<svg xmlns="http://www.w3.org/2000/svg" viewBox="0 0 91.8 20.05"><defs><style>.cls-1,.cls-2{fill:#fff;}.cls-1{fill-rule:evenodd;}</style></defs><title>Asset 1</title><g id="Layer_2" data-name="Layer 2"><g id="Layer_1-2" data-name="Layer 1"><path class="cls-1" d="M81.82,13.88a4.84,4.84,0,0,1-.34,1.57,4.45,4.45,0,0,0,2.94,1,4.06,4.06,0,0,0,4.4-4c0-4-5.62-2.57-5.62-5.9a2.17,2.17,0,0,1,2.29-2.23A2.26,2.26,0,0,1,87.63,6h.19a5.7,5.7,0,0,1,.5-1.53,4.16,4.16,0,0,0-2.64-.81c-2.37,0-3.9,1.38-3.9,3.37,0,4.22,5.62,2.8,5.62,6.1a2.44,2.44,0,0,1-2.52,2.57,3.07,3.07,0,0,1-2.83-1.84Z"/><path class="cls-1" d="M90.39,4.41h.3a.27.27,0,0,1,.19,0,.12.12,0,0,1,0,.11s0,.08,0,.08a.08.08,0,0,1-.07.07s-.08,0-.16,0h-.26Zm0,.92V4.87h.22a.12.12,0,0,1,.08,0l0,0a1.53,1.53,0,0,1,.11.16l.16.23h.15L91,5l-.12-.11s0,0-.07-.08a.26.26,0,0,0,.3-.27s0-.11,0-.15l-.11-.12h-.69v1Z"/><path class="cls-2" d="M90.61,6A1.17,1.17,0,1,1,91.8,4.83,1.18,1.18,0,0,1,90.61,6m0-2.19a1,1,0,1,0,1,1,1,1,0,0,0-1-1"/><path class="cls-1" d="M35.44,8.55c0-1.3.08-2.61.12-3.91a15.93,15.93,0,0,1,1.72-.08c1.22,0,2.79.46,2.79,2.34,0,2.15-2,2.76-3.44,2.76a6,6,0,0,1-1.19-.11ZM34,11.62c0,1.53-.08,3.1-.15,4.64a6.4,6.4,0,0,1,.88-.08,7.36,7.36,0,0,1,.88.08c-.08-1.54-.16-3.11-.16-4.64V10.31h.69a54,54,0,0,1,4.63,6,8.93,8.93,0,0,1,1-.08,9.63,9.63,0,0,1,1.07.08c-1-1.15-4-5-4.89-6.1,1.33-.19,3.67-1.11,3.67-3.45,0-2.11-1.72-2.8-3.71-2.8-.69,0-1.38.08-2.07.08s-1.34,0-2-.08C33.91,5.44,34,7,34,8.55Z"/><path class="cls-1" d="M53.76,10.08c0,3.95-2.18,5.75-5,5.75s-4.94-1.8-4.94-5.75S46,4.33,48.79,4.33s5,1.77,5,5.75m-11.66,0c0,4.07,2.75,6.4,6.69,6.4s6.69-2.33,6.69-6.4-2.76-6.4-6.69-6.4S42.1,6,42.1,10.08"/><path class="cls-1" d="M66.87,16.49c0-.81-.08-4.76-.08-6.6,0-1.38.2-4.94.31-6a3.24,3.24,0,0,1-.57.08,3.19,3.19,0,0,1-.61-.08c.15,2.76.15,6.25.15,9.43C63.89,11.16,59.91,6.82,57,3.68h-.27c0,.81,0,2.53,0,4.79s-.23,6.94-.39,7.79a4.06,4.06,0,0,1,.69-.08,3.19,3.19,0,0,1,.61.08c-.07-.73-.15-4.49-.15-6,0-1.92,0-3,0-3.65,3.06,3.26,6.31,6.67,9,9.9Z"/><path class="cls-1" d="M79.45,10.08c0,3.95-2.14,5.75-4.93,5.75s-4.93-1.8-4.93-5.75,2.14-5.75,4.93-5.75,4.93,1.77,4.93,5.75m-11.62,0c0,4.07,2.75,6.4,6.69,6.4s6.69-2.33,6.69-6.4-2.75-6.4-6.69-6.4S67.83,6,67.83,10.08"/><path class="cls-1" d="M.15,8.13H8.72c.19,0,2.44.11,3.36-1.19S15.75,1.8,15.75,1.8c.19.12.19.16.35.27,0,0-4.55,6.36-4.55,6.4A3.79,3.79,0,0,1,8.41,9.81H0A9.5,9.5,0,0,1,.15,8.13"/><path class="cls-1" d="M20,10a9.46,9.46,0,0,1-2.53,6.6l-3.67-5.1a3.7,3.7,0,0,0-2-1.5,4.07,4.07,0,0,0,2-1.49l3.67-5.14A9.48,9.48,0,0,1,20,10"/><path class="cls-1" d="M.8,6H8.14c1.91,0,2.26-.54,2.76-1.08,0,0,3-4.17,3-4.17A4,4,0,0,1,14.3,1s-1.72,2.45-3.94,5.52A2.69,2.69,0,0,1,8.11,7.71H.27A17.37,17.37,0,0,1,.8,6"/><path class="cls-1" d="M2.45,3.45H6.58c.72,0,1.14-.69,1.41-1C8,2.53,9.79,0,9.79,0A9.83,9.83,0,0,0,2.45,3.45"/><path class="cls-1" d="M2.06,3.91H7.68A2.76,2.76,0,0,0,9.83,2.8L11.74.15l.49.08s-2.82,4-2.86,4A2.45,2.45,0,0,1,7.3,5.56H1a9,9,0,0,1,1-1.65"/><path class="cls-1" d="M.15,11.92H8.72c.19,0,2.44-.07,3.36,1.19s3.67,5.14,3.67,5.14A3.55,3.55,0,0,0,16.1,18s-4.55-6.36-4.55-6.4a3.79,3.79,0,0,0-3.14-1.34H0a9.5,9.5,0,0,0,.15,1.68"/><path class="cls-1" d="M.8,14H8.14c1.91,0,2.26.54,2.76,1.08,0,0,3,4.17,3,4.17a4,4,0,0,0,.42-.19s-1.72-2.45-3.94-5.52a2.69,2.69,0,0,0-2.25-1.23s-7.84,0-7.84,0A17.37,17.37,0,0,0,.8,14"/><path class="cls-1" d="M2.45,16.6H6.58c.72,0,1.14.69,1.41,1l1.8,2.49A9.79,9.79,0,0,1,2.45,16.6"/><path class="cls-1" d="M2.06,16.14H7.68a2.89,2.89,0,0,1,2.15,1.11l1.91,2.65.49-.08s-2.82-4-2.86-4A2.47,2.47,0,0,0,7.3,14.49H1a9.78,9.78,0,0,0,1,1.65"/><path class="cls-1" d="M24.32,11.65V8.59c0-1.54-.08-3.07-.16-4.56.31,0,.58.07.88.07s.54,0,.84-.07c-.07,1.49-.11,3-.11,4.56v1c0,.08,0,.12.08.12s.11,0,.26-.15A62.73,62.73,0,0,0,31.43,4a5.33,5.33,0,0,0,.72.07A8.12,8.12,0,0,0,33,4a67.51,67.51,0,0,0-5.66,5.52c1.91,2.14,3.86,4.4,5.85,6.67a9.11,9.11,0,0,0-1.07-.08,7.77,7.77,0,0,0-1,.08c-1.68-2.07-4.36-5.33-5.12-6.1a.34.34,0,0,0-.19-.11.08.08,0,0,0-.08.07v1.57c0,1.5,0,3.07.11,4.57a6.42,6.42,0,0,0-.84-.08,6.69,6.69,0,0,0-.88.08c.08-1.5.16-3.07.16-4.57"/></g></g></svg>