<svg id="Layer_1" data-name="Layer 1" xmlns="http://www.w3.org/2000/svg" viewBox="0 0 400.88 89.93"><defs><style>.cls-1{fill:#fff;}</style></defs><title>National Ambulance Logo white</title><path class="cls-1" d="M402.55,63.08h3V58.74h-2.24c-1.42-.09-1.61-.43-1.7-1.86V34.15h-4.94v23a6.22,6.22,0,0,0,1.42,4.16,5.78,5.78,0,0,0,4.49,1.8M270.69,52.73,258.46,34.15h-4.6V63.08H259V44.46l12.23,18.63h4.6V34.15h-5.17Zm39.69-16.22h-4.94v6.06h-2.26v4h2.26V57.08a6.31,6.31,0,0,0,1.45,4.15,5.79,5.79,0,0,0,4.48,1.85h2.87V58.74h-2.11c-1.29-.06-1.67-.55-1.75-1.86V46.57h3.86v-4h-3.86Zm-21.17,14a8.12,8.12,0,0,0-5.47,1.73,5.82,5.82,0,0,0-1.88,4.48,6.59,6.59,0,0,0,1.7,4.61c1.33,1.33,3.14,2,5.67,1.94h.1a7.11,7.11,0,0,0,4.76-1.46v1.23H299V49.29a6.75,6.75,0,0,0-2.23-5.47c-1.49-1.25-3.67-1.83-6.46-1.83-3.34,0-5.55.72-7.5,3l-.29.33,3.32,3.14.31-.4c1.07-1.32,1.85-1.72,4-1.75,3,.08,3.83.94,3.9,3.27v.95Zm4.8,4.88a3.59,3.59,0,0,1-.73,2.62c-.93.89-1.88,1-3.4,1-2.42-.06-3.15-.8-3.2-2.36s.87-2.35,3.11-2.41H294Zm30.15-13.22h-5V63.08h5Zm.11-8.18h-5.18v5.18h5.18ZM389,43.82c-1.5-1.25-3.67-1.83-6.46-1.83h0c-3.35,0-5.55.72-7.5,3l-.3.33,3.33,3.14.32-.4c1.05-1.32,1.85-1.72,4-1.75,3,.08,3.82.94,3.89,3.27v.95h-4.79a8.09,8.09,0,0,0-5.46,1.73,5.82,5.82,0,0,0-1.89,4.48,6.59,6.59,0,0,0,1.7,4.61c1.32,1.33,3.14,2,5.68,1.94h.09a7,7,0,0,0,4.75-1.46v1.24h4.87V49.29A6.75,6.75,0,0,0,389,43.82m-2.73,11.61a3.59,3.59,0,0,1-.72,2.62c-.93.89-1.88,1-3.4,1-2.41-.06-3.15-.8-3.21-2.36s.88-2.35,3.13-2.41h4.2Zm-39.85-2.8c0-3.37-.46-6.06-2.48-8.15A8.57,8.57,0,0,0,337.66,42a8.43,8.43,0,0,0-6.26,2.48c-2,2.1-2.5,4.79-2.5,8.16s.48,6.09,2.5,8.19a8.4,8.4,0,0,0,6.26,2.49h0a8.52,8.52,0,0,0,6.3-2.49c2-2.1,2.5-4.77,2.48-8.19m-6.17,5.14a3.65,3.65,0,0,1-2.63,1,3.49,3.49,0,0,1-2.56-1c-1.06-1-1.26-3-1.25-5.14s.19-4.12,1.25-5.14a3.46,3.46,0,0,1,2.56-1,3.59,3.59,0,0,1,2.63,1c1,1,1.26,3,1.25,5.13s-.2,4.12-1.25,5.14m23.61-7.3V63.08h4.94V49.88a7.75,7.75,0,0,0-2.15-6A7.38,7.38,0,0,0,361.46,42a7.75,7.75,0,0,0-4.84,1.63V42.21h-4.86V63.09h4.94V50.47c0-2.86,1.61-3.95,3.66-4s3.51,1.06,3.54,4" transform="translate(-55.45 -34.03)"/><path class="cls-1" d="M98.74,35.63H94.13v4.64h4.61Zm7,17.85c0-5.47-3.81-9.78-9.36-9.78S87,47.76,87,53.35a11.92,11.92,0,0,0,1.15,5H81.46c-5.64,0-8.1-2-8.1-7.06V45H68.72v6.31C68.72,59,73,63.09,81.55,63.09H96.39c5.61,0,9.36-4.1,9.36-9.61m-14-.16c0-3.27,1.76-5.36,4.47-5.36S101,50.31,101,53.48c0,3-1.64,5.3-4.47,5.3s-4.69-2.41-4.69-5.46M117,63.09h18.87a16.62,16.62,0,0,0,9.24-3,8.49,8.49,0,0,0,2.67,2,8.16,8.16,0,0,0,3.73,1H189.2c4.77,0,8.11-3.92,8.11-9.94v-9h-4.73v9.62c0,3.05-1.16,4.6-3.55,4.6h-4.55c.62-.67,1-2.38,1-5.11V44.11h-4.73V53.7c0,3.08-1.17,4.63-3.54,4.63h-4.36v-.26c.5-.78.76-2.37.76-4.85V44.11h-4.73V53.4c0,3.29-1.17,4.93-3.55,4.93h-12.8a13.36,13.36,0,0,1-1.83-.08,3.61,3.61,0,0,1-1.68-1,24.63,24.63,0,0,0,4.8-4.68,16.86,16.86,0,0,0,3-4.64,17.59,17.59,0,0,0-11.91-4.34A21,21,0,0,0,133.51,47v4.42a15.83,15.83,0,0,1,4.93,2.27A11.88,11.88,0,0,1,142,56.74a8.47,8.47,0,0,1-3,1.3,13.53,13.53,0,0,1-3.26.29H119.67a6.53,6.53,0,0,1-3.58-.71c-.88-.64-1.35-2-1.35-4V36.13H110.1V55.49a8.18,8.18,0,0,0,1.66,5.43A6.33,6.33,0,0,0,117,63.09M138.53,49.3A13.74,13.74,0,0,1,145,47.59,11.73,11.73,0,0,1,151,49.26,18.8,18.8,0,0,1,148.69,52a12.88,12.88,0,0,1-3.05,2.3,16.7,16.7,0,0,0-7.11-5m83.19,7.24V36.13h-4.56V53.4a5.64,5.64,0,0,1-1.16,4,3.81,3.81,0,0,1-2.84.92L207.92,39.1H203l5.25,19.23h-6.39v4.76h12.51c4.51,0,7.35-2.59,7.35-6.55m-19.6,15.12h7.23V69.75H206a1.72,1.72,0,0,1-.76-1.59,1.55,1.55,0,0,1,1.44-1.64,1.06,1.06,0,0,1,1.16.93l1.5-.73a2.81,2.81,0,0,0-2.63-1.92,3.35,3.35,0,0,0-3.26,3.48,8.34,8.34,0,0,0,.38,1.47h-1.67Zm26.63-8.57h4.64v-27h-4.64Z" transform="translate(-55.45 -34.03)"/><rect class="cls-1" x="8.15" y="85.29" width="4.6" height="4.64"/><rect class="cls-1" x="16.05" y="85.29" width="4.59" height="4.64"/><rect class="cls-1" x="56.31" y="46.29" width="4.6" height="4.64"/><path class="cls-1" d="M159.3,88.73c-4.39,0-8.39,2.25-12.24,7.23l.5-15.13H143V103h-27.6c.67-.8,1-2.39,1-4.85V88.81h-4.63v9.62a7.26,7.26,0,0,1-.51,3.18,2.86,2.86,0,0,1-2.81,1.42h-18c-2.39,0-4-1.22-5.74-4.36a8.91,8.91,0,0,0-8.27-5H74.51V98a3.83,3.83,0,0,1,.75,0c2.68,0,4.22,1.85,4.22,4.44,0,4.26-4.08,7.86-9.53,7.86-6.06,0-9.82-4.06-9.82-10.55V95.54H55.45v4.68a14.25,14.25,0,0,0,14.38,14.5c6.82,0,12.41-4.08,13.75-10.61,1.76,2.64,3.15,3.54,7.32,3.67h79c.13-1.55.21-3,.21-4.34,0-9.79-3.59-14.72-10.83-14.72m6,14.3H146.59c2.85-5.93,7.57-10.12,12.29-10.12,4.07,0,6.44,3.47,6.44,8.77Z" transform="translate(-55.45 -34.03)"/><path class="cls-1" d="M217.12,98.65a9,9,0,0,1-.33,3c-.45.93-1.43,1.39-3,1.39H192.12V98.18c0-5.48-3.6-9.41-8.7-9.41a9,9,0,0,0-9.36,9.28c0,5.52,4.1,9.74,9.16,9.74h4.47C187,110,185.47,111,183,111v3.67c5.45,0,8.49-2.28,9.12-6.89h22.62c4.69,0,7-2.51,7-7.57V80.83h-4.69ZM187.44,103H183.3c-2.51,0-4.48-2.34-4.48-5.24a4.36,4.36,0,0,1,4.52-4.72c2.42,0,3.84,1.75,4.1,4.22Z" transform="translate(-55.45 -34.03)"/><rect class="cls-1" x="173.3" y="46.75" width="4.64" height="27"/><path class="cls-1" d="M304.17,86.72A8,8,0,0,0,298,89.34a6.81,6.81,0,0,0-5.69-2.62,7.8,7.8,0,0,0-4.85,1.63V87h-4.87v20.87h4.94V95.2c0-2.86,1.62-3.94,3.67-4s3.51,1.08,3.55,4v12.62h4.94V95a3.48,3.48,0,0,1,3.67-3.79c2,.06,3.49,1.08,3.54,4v12.62h4.94V94.61a7.89,7.89,0,0,0-2.26-6,7.68,7.68,0,0,0-5.36-1.93" transform="translate(-55.45 -34.03)"/><path class="cls-1" d="M264.46,78.89l-.11.3-10.49,28.63h5.51l1.93-5.63h10.39l1.92,5.63h5.53L268.53,78.89Zm-1.58,18.75,3.7-10.54,3.62,10.54Z" transform="translate(-55.45 -34.03)"/><path class="cls-1" d="M432.25,101.8c-1.25,1.32-2,1.73-3.48,1.74a4,4,0,0,1-3.33-1.58c-.77-1-1.08-2.31-1.08-4.61s.31-3.56,1.07-4.55a4.06,4.06,0,0,1,3.34-1.59c1.48,0,2.23.41,3.48,1.74l.32.35L436,90l-.31-.32a8.6,8.6,0,0,0-6.9-2.93,9.05,9.05,0,0,0-6.44,2.42c-1.78,1.71-2.91,4.39-2.91,8.21s1.13,6.53,2.89,8.25a9.09,9.09,0,0,0,6.46,2.44h.06a8.65,8.65,0,0,0,6.84-3l.31-.33-3.41-3.28Z" transform="translate(-55.45 -34.03)"/><path class="cls-1" d="M407.55,86.72a7.74,7.74,0,0,0-4.85,1.63V87h-4.86v20.87h5V95.2c0-2.86,1.61-3.94,3.66-4s3.51,1.08,3.54,4v12.62h4.94V94.61a7.81,7.81,0,0,0-2.15-6,7.39,7.39,0,0,0-5.24-1.92" transform="translate(-55.45 -34.03)"/><path class="cls-1" d="M456.33,96.78A10.85,10.85,0,0,0,454,89.55a8.31,8.31,0,0,0-6.59-2.83,8.15,8.15,0,0,0-6.48,2.83,11.83,11.83,0,0,0-2.42,7.8c0,3.87,1,6.57,2.73,8.3a9.26,9.26,0,0,0,6.7,2.39H448a9.78,9.78,0,0,0,7.71-3.23l.35-.34-3.23-3-.31.31a5.48,5.48,0,0,1-4.53,1.91c-2.86,0-4.4-1.68-4.58-4.67h12.92Zm-12.92-1.5a4.91,4.91,0,0,1,.46-2.06,3.9,3.9,0,0,1,7.05,0,5.24,5.24,0,0,1,.48,2.07Z" transform="translate(-55.45 -34.03)"/><path class="cls-1" d="M383.13,86.72c-3.35,0-5.55.71-7.51,3l-.29.34,3.32,3.13.32-.41c1.07-1.32,1.86-1.72,4-1.74,3,.08,3.83,1,3.9,3.27v1h-4.8A8.06,8.06,0,0,0,376.61,97a5.79,5.79,0,0,0-1.88,4.47,6.61,6.61,0,0,0,1.7,4.63c1.32,1.32,3.13,1.93,5.68,1.93h.09a7.11,7.11,0,0,0,4.76-1.46v1.24h4.85V94a6.75,6.75,0,0,0-2.22-5.48c-1.49-1.24-3.67-1.82-6.46-1.82m3.74,13.42a3.59,3.59,0,0,1-.72,2.63c-.95.9-1.88,1-3.4,1-2.43-.06-3.15-.8-3.2-2.36s.87-2.35,3.11-2.42h4.21Z" transform="translate(-55.45 -34.03)"/><path class="cls-1" d="M351.25,99.56c0,2.85-1.62,3.94-3.67,4s-3.5-1.06-3.55-4V87H339.1v13.19a7.83,7.83,0,0,0,2.14,6,7.37,7.37,0,0,0,5.24,1.93h0a7.7,7.7,0,0,0,4.85-1.63v1.41h4.86V87h-4.94Z" transform="translate(-55.45 -34.03)"/><path class="cls-1" d="M327,86.72a6.83,6.83,0,0,0-4.78,1.55V78.89h-4.93v28.93h4.86v-1.43a6.69,6.69,0,0,0,4.71,1.65h.1a7.33,7.33,0,0,0,5.21-1.9c2.16-2.19,2.36-5.74,2.37-8.79s-.21-6.54-2.37-8.74A7.3,7.3,0,0,0,327,86.72m1.93,15.08a2.91,2.91,0,0,1-3,1.74,3,3,0,0,1-3-1.74,10.84,10.84,0,0,1-.69-4.45,10.72,10.72,0,0,1,.69-4.42,3,3,0,0,1,3-1.72,2.93,2.93,0,0,1,3,1.72,10.73,10.73,0,0,1,.68,4.42,10.85,10.85,0,0,1-.68,4.45" transform="translate(-55.45 -34.03)"/><path class="cls-1" d="M367.23,101.61V78.89h-4.94v23a6.26,6.26,0,0,0,1.42,4.17,5.84,5.84,0,0,0,4.5,1.81h3v-4.36h-2.23c-1.42-.08-1.61-.42-1.71-1.85" transform="translate(-55.45 -34.03)"/></svg>