<svg xmlns="http://www.w3.org/2000/svg" viewBox="0 0 72.55 24.18"><defs><style>.cls-1{fill:#fff;}</style></defs><title>Asset 4</title><g id="Layer_2" data-name="Layer 2"><g id="Layer_1-2" data-name="Layer 1"><path class="cls-1" d="M9.88,19.76a9.88,9.88,0,1,1,9.88-9.88,9.89,9.89,0,0,1-9.88,9.88m0-15.26a5.38,5.38,0,1,0,5.38,5.38A5.38,5.38,0,0,0,9.88,4.5"/><path class="cls-1" d="M72,19.85,68.68,16a9.89,9.89,0,1,0-3.5,2.82l3.41,4a2.24,2.24,0,0,0,3.17.25A2.26,2.26,0,0,0,72,19.85m-16.48-10a5.38,5.38,0,1,1,5.38,5.38,5.38,5.38,0,0,1-5.38-5.38"/><path class="cls-1" d="M46.54,19.31a2.25,2.25,0,0,1-2.25-2.25V2.25a2.25,2.25,0,0,1,4.5,0V17.06a2.25,2.25,0,0,1-2.25,2.25"/><path class="cls-1" d="M31.43,0a9.88,9.88,0,0,0-9.86,9.42,1.79,1.79,0,0,0,0,.23V21.93a2.25,2.25,0,0,0,4.5,0V18.16A9.88,9.88,0,1,0,31.43,0m0,15.26a5.38,5.38,0,1,1,5.38-5.38,5.38,5.38,0,0,1-5.38,5.38"/></g></g></svg>