<svg xmlns="http://www.w3.org/2000/svg" viewBox="0 0 54.68 49.97"><defs><style>.cls-1{fill:none;stroke:#808285;stroke-miterlimit:10;stroke-width:0.75px;}</style></defs><title>icon-2</title><g id="Layer_2" data-name="Layer 2"><g id="Layer_1-2" data-name="Layer 1"><path class="cls-1" d="M29.83,3.44a2.82,2.82,0,1,0-5.63,0,2.82,2.82,0,1,0,5.63,0Z"/><path class="cls-1" d="M21.5,11.6V11a1.74,1.74,0,0,1,.35-1.07A5.7,5.7,0,0,1,26.5,7.61h1a5.7,5.7,0,0,1,4.65,2.27A1.8,1.8,0,0,1,32.53,11v.65"/><path class="cls-1" d="M51.6,29.19a2.82,2.82,0,1,0-2.81,3.06A2.95,2.95,0,0,0,51.6,29.19Z"/><path class="cls-1" d="M43.27,37.35v-.66a1.82,1.82,0,0,1,.35-1.07,5.74,5.74,0,0,1,4.65-2.26h1A5.72,5.72,0,0,1,54,35.62a1.76,1.76,0,0,1,.35,1.07v.66"/><path class="cls-1" d="M8.71,29.19a3,3,0,0,0-2.82-3.07,3.08,3.08,0,0,0,0,6.13A3,3,0,0,0,8.71,29.19Z"/><path class="cls-1" d="M.38,37.35v-.66a1.81,1.81,0,0,1,.34-1.07,5.75,5.75,0,0,1,4.65-2.26h1a5.75,5.75,0,0,1,4.65,2.26,1.82,1.82,0,0,1,.35,1.07v.66"/><path class="cls-1" d="M47.91,22.13A21.51,21.51,0,0,0,36,8.54"/><path class="cls-1" d="M10.45,41.34a21.42,21.42,0,0,0,33.79,0"/><path class="cls-1" d="M18,8.86A21.52,21.52,0,0,0,6.77,22.13"/><line class="cls-1" x1="22.27" y1="20.68" x2="32.79" y2="20.68"/><rect class="cls-1" x="19.01" y="18.54" width="17.21" height="22.28" rx="2.03"/><line class="cls-1" x1="18.83" y1="22.39" x2="36.23" y2="22.39"/><line class="cls-1" x1="25.38" y1="26.23" x2="33.86" y2="26.23"/><polyline class="cls-1" points="21.65 25.59 22.37 26.55 24.74 24.57"/><line class="cls-1" x1="25.38" y1="29.76" x2="33.86" y2="29.76"/><polyline class="cls-1" points="21.65 29.12 22.37 30.08 24.74 28.1"/><line class="cls-1" x1="25.38" y1="33.29" x2="33.86" y2="33.29"/><polyline class="cls-1" points="21.65 32.65 22.37 33.61 24.74 31.63"/><line class="cls-1" x1="25.38" y1="36.82" x2="33.86" y2="36.82"/><polyline class="cls-1" points="21.65 36.18 22.37 37.14 24.74 35.16"/><path class="cls-1" d="M25.55,18.58a2,2,0,1,1,3.95,0"/></g></g></svg>