<svg xmlns="http://www.w3.org/2000/svg" viewBox="0 0 57.61 43.66"><defs><style>.cls-1{fill:none;stroke:#808285;stroke-miterlimit:10;stroke-width:0.75px;}.cls-2{fill:#fff;}.cls-3{fill:#808285;fill-rule:evenodd;}</style></defs><title>icon-5</title><g id="Layer_2" data-name="Layer 2"><g id="Layer_1-2" data-name="Layer 1"><rect class="cls-1" x="16.1" y="13.81" width="41.14" height="29.47" rx="3.73"/><path class="cls-1" d="M28.65,13.81V9.51a2.17,2.17,0,0,1,2.16-2.17H42.27a2.17,2.17,0,0,1,2.16,2.17v4.3"/><path class="cls-2" d="M29.18,14.78a14.4,14.4,0,1,0-14.4,14.4,14.4,14.4,0,0,0,14.4-14.4"/><path class="cls-1" d="M29.18,14.78a14.4,14.4,0,1,0-14.4,14.4A14.4,14.4,0,0,0,29.18,14.78Z"/><path class="cls-3" d="M43.83,22.19s-5.16-2.6-8.83,1.7-.4,8.89-.4,8.89,4.2,4.93,9.29,2a8.59,8.59,0,0,1-10.2,1.52c-6.75-4.07-4.46-11.49-2.37-13.51a8.77,8.77,0,0,1,12.51-.57"/><path class="cls-3" d="M15.44,12.74a1.31,1.31,0,0,0-1.67,1.92,1.37,1.37,0,0,0,1.68.36,1.56,1.56,0,0,1-1.85.28,1.61,1.61,0,0,1-.42-2.45,1.57,1.57,0,0,1,2.26-.11"/><circle class="cls-1" cx="9.7" cy="19.33" r="2.05"/><circle class="cls-1" cx="20.85" cy="19.33" r="2.05"/><path class="cls-1" d="M17.11,13.91a3.2,3.2,0,1,0-3.19,3.2A3.19,3.19,0,0,0,17.11,13.91Z"/><line class="cls-1" x1="9.5" y1="11.51" x2="11.75" y2="11.51"/><line class="cls-1" x1="6.93" y1="13.74" x2="10.72" y2="13.74"/><line class="cls-1" x1="8.73" y1="16" x2="11.49" y2="16"/><path class="cls-1" d="M12.54,8.92H10.6l.2-1.48a.2.2,0,0,1,.2-.17h1.08a.19.19,0,0,1,.19.16Z"/><path class="cls-1" d="M7.59,19.33H6.21A.32.32,0,0,1,5.89,19V9.24a.32.32,0,0,1,.32-.32H16.67a1.77,1.77,0,0,1,1.77,1.77v3.16a.27.27,0,0,0,.27.27h4.75a1.11,1.11,0,0,1,.8.35l.65.7a1.1,1.1,0,0,1,.29.73v2.87a.56.56,0,0,1-.56.56H22.86"/><line class="cls-1" x1="18.81" y1="19.33" x2="11.64" y2="19.33"/><path class="cls-1" d="M18.34,11h2.57a1.27,1.27,0,0,1,1,.5L24,14.26"/></g></g></svg>