<svg xmlns="http://www.w3.org/2000/svg" viewBox="0 0 197 54.51"><defs><style>.cls-1,.cls-2{fill:#00332e;}.cls-1{opacity:0.33;isolation:isolate;}.cls-3{fill:#93d500;}</style></defs><title>carbocPay-logo</title><g id="Layer_2" data-name="Layer 2"><g id="Layer_1-2" data-name="Layer 1"><path class="cls-1" d="M118.24,38.57c2.94,0,4.65,1.76,4.65,4.26a3.47,3.47,0,0,1-.61,2.07,3.41,3.41,0,0,1-1.69,1.3,3.75,3.75,0,0,1,2.06,1.38A3.8,3.8,0,0,1,123.4,50a4.39,4.39,0,0,1-.4,1.75,4.31,4.31,0,0,1-1.06,1.44,4.29,4.29,0,0,1-3.3,1.08h-5.4V38.59ZM118,45.39a2.55,2.55,0,0,0,1-.09,2.62,2.62,0,0,0,.9-.52,2.56,2.56,0,0,0,.61-.85,2.4,2.4,0,0,0,.2-1c0-1.42-1.06-2.44-2.81-2.44h-2.55v4.93Zm.3,6.9c1.73,0,2.89-1,2.89-2.49s-.93-2.56-2.81-2.56h-3v5Z"/><path class="cls-1" d="M129.68,54.51a3.76,3.76,0,0,1-1.58-.32,3.82,3.82,0,0,1-1.32-.93,3.92,3.92,0,0,1-1-3V43.57h2v6.36c0,1.42.65,2.73,2.37,2.73a2.36,2.36,0,0,0,1.87-.76,2.26,2.26,0,0,0,.52-.9,2.3,2.3,0,0,0,.09-1V43.57h2.05V52.2a18.58,18.58,0,0,0,.11,2h-2a11.13,11.13,0,0,1-.08-1.28,3.41,3.41,0,0,1-3.09,1.62Z"/><path class="cls-1" d="M139.27,50.77a2.25,2.25,0,0,0,.83,1.49,2.2,2.2,0,0,0,1.62.48c1.15,0,1.78-.65,1.78-1.42s-.48-1.16-1.4-1.42l-1.79-.4a3,3,0,0,1-1.85-1,3.07,3.07,0,0,1-.76-2,3.57,3.57,0,0,1,1.19-2.44,3.47,3.47,0,0,1,2.53-.9,3.66,3.66,0,0,1,2.52.67A3.72,3.72,0,0,1,145.4,46l-1.8.68a2.09,2.09,0,0,0-.75-1.31,2,2,0,0,0-1.43-.45,1.8,1.8,0,0,0-.61,0,1.61,1.61,0,0,0-.55.29,1.72,1.72,0,0,0-.4.49,1.5,1.5,0,0,0-.18.59c0,.63.39,1.1,1.2,1.27l1.69.38a3.15,3.15,0,0,1,2.05,1,3.19,3.19,0,0,1,.85,2.14,3.62,3.62,0,0,1-.36,1.36,3.72,3.72,0,0,1-.86,1.11,3.43,3.43,0,0,1-2.62.81,3.91,3.91,0,0,1-2.68-.74,4,4,0,0,1-1.53-2.35Z"/><path class="cls-1" d="M149.46,38.08a1.43,1.43,0,0,1,.78.24,1.48,1.48,0,0,1,.52.64,1.53,1.53,0,0,1,.08.82,1.45,1.45,0,0,1-.39.73,1.31,1.31,0,0,1-.72.39,1.41,1.41,0,0,1-.81-.08,1.45,1.45,0,0,1-.63-.52,1.49,1.49,0,0,1-.24-.79,1.46,1.46,0,0,1,.41-1A1.42,1.42,0,0,1,149.46,38.08Zm-1,16.1V43.59h2V54.18Z"/><path class="cls-1" d="M156.23,54.18h-2V43.59h2v1.52a3.56,3.56,0,0,1,1.35-1.37,3.61,3.61,0,0,1,1.87-.47c2.5,0,3.73,1.84,3.73,4.18v6.73h-2.08V47.77c0-1.43-.61-2.66-2.44-2.66-1.6,0-2.43,1.29-2.43,2.84Z"/><path class="cls-1" d="M175.74,51.17a4.74,4.74,0,0,1-4.7,3.34,5.55,5.55,0,0,1-3.47-1.84,5.73,5.73,0,0,1-.17-7.42,5.63,5.63,0,0,1,3.39-2c3.21,0,5,2.25,5,5.54q0,.33,0,.66h-7.88a3.13,3.13,0,0,0,.22,1.24,3.09,3.09,0,0,0,2.93,2,2.76,2.76,0,0,0,1.86-.52A2.82,2.82,0,0,0,174,50.54Zm-2-3.4a3,3,0,0,0-.21-1.1,2.65,2.65,0,0,0-.63-.91,2.73,2.73,0,0,0-1-.58,2.68,2.68,0,0,0-1.09-.13,2.8,2.8,0,0,0-2,.79,2.83,2.83,0,0,0-.86,1.93Z"/><path class="cls-1" d="M179.51,50.77a2.28,2.28,0,0,0,.82,1.49,2.22,2.22,0,0,0,1.62.48c1.16,0,1.79-.65,1.79-1.42s-.49-1.16-1.41-1.42l-1.78-.4a2.93,2.93,0,0,1-1.85-1,3,3,0,0,1-.75-2,3.62,3.62,0,0,1,1.18-2.44,3.55,3.55,0,0,1,2.53-.9,3.66,3.66,0,0,1,2.52.67A3.79,3.79,0,0,1,185.65,46l-1.81.68a2.07,2.07,0,0,0-.75-1.31,2,2,0,0,0-1.43-.45,1.55,1.55,0,0,0-.61.06,1.61,1.61,0,0,0-.55.29,1.53,1.53,0,0,0-.39.48,1.56,1.56,0,0,0-.18.59c0,.63.38,1.1,1.2,1.27l1.69.38a3.19,3.19,0,0,1,2.05,1,3.24,3.24,0,0,1,.85,2.14,3.53,3.53,0,0,1-1.22,2.47,3.43,3.43,0,0,1-2.62.81,3.93,3.93,0,0,1-2.67-.75,4,4,0,0,1-1.54-2.33Z"/><path class="cls-1" d="M189.57,50.77a2.25,2.25,0,0,0,.81,1.49,2.22,2.22,0,0,0,1.62.48c1.15,0,1.78-.65,1.78-1.42s-.48-1.16-1.4-1.42l-1.79-.4a3,3,0,0,1-1.85-1,3.07,3.07,0,0,1-.76-2,3.57,3.57,0,0,1,1.19-2.44,3.47,3.47,0,0,1,2.53-.9,3.66,3.66,0,0,1,2.52.67A3.72,3.72,0,0,1,195.68,46l-1.8.68A2,2,0,0,0,191.7,45a1.59,1.59,0,0,0-1.16.35,1.66,1.66,0,0,0-.58,1.07,1.29,1.29,0,0,0,1.19,1.27l1.7.38a3.15,3.15,0,0,1,2.05,1,3.19,3.19,0,0,1,.85,2.14,3.62,3.62,0,0,1-.36,1.36,3.72,3.72,0,0,1-.86,1.11,3.43,3.43,0,0,1-2.62.81,3.91,3.91,0,0,1-2.68-.74,4,4,0,0,1-1.53-2.35Z"/><path class="cls-2" d="M41.25,29.49h5.47v-13c0-4.15-2.38-7.82-8.85-7.82-4.74,0-7.38,2.49-8.35,5l4.41,2.49a3.6,3.6,0,0,1,1.48-2,3.52,3.52,0,0,1,2.42-.58c1.92,0,2.93,1,2.93,2.2,0,.7-.36,1.23-1.4,1.43l-4.71.74c-3.3.48-5.91,2.51-5.91,6.1,0,3.22,2.53,6.15,6.91,6.15a6.15,6.15,0,0,0,3.18-.66,6.33,6.33,0,0,0,2.44-2.18Zm-.46-7.89c0,3.14-1.85,4-3.67,4s-2.37-1-2.37-2.08c0-1.42,1-2,2.26-2.24l3.78-.62Z"/><path class="cls-2" d="M76.38,8.76c-2.81,0-4.95.65-5.79,1.92V0l-6,3.51v26H70.5V27.22A6.53,6.53,0,0,0,73,29.3a6.26,6.26,0,0,0,3.15.63c5.62,0,9.54-4.43,9.54-10.62S82.16,8.76,76.38,8.76ZM75,24.4a4.54,4.54,0,0,1-3.38-1.5,4.62,4.62,0,0,1-1-1.65,4.7,4.7,0,0,1-.21-1.9,4.55,4.55,0,0,1,.2-1.9,4.47,4.47,0,0,1,2.49-2.75A4.34,4.34,0,0,1,75,14.33c2.7,0,4.51,1.6,4.51,5s-2.06,5-4.44,5Z"/><path class="cls-3" d="M190.52,9.24,186.1,20.08,181.22,9.24h-6.84l8.42,17.52-4.56,10.5h6.44L197,9.24Z"/><path class="cls-3" d="M141.3,19.17V29.49H135V.84h10.64c5.76,0,9.72,3.84,9.72,9.19s-4,9.2-9.72,9.2ZM145,13.65a3.68,3.68,0,0,0,1.51-.15,3.63,3.63,0,0,0,1.31-.77,3.7,3.7,0,0,0,.89-4.24,3.77,3.77,0,0,0-.89-1.24,3.47,3.47,0,0,0-1.31-.76A3.52,3.52,0,0,0,145,6.33H141.4v7.31Z"/><path class="cls-2" d="M21.5,19.32a7.14,7.14,0,0,1-2.76,3.48A7,7,0,0,1,14.48,24a7.82,7.82,0,0,1-5.8-2.42A8.1,8.1,0,0,1,6.45,15.6C6.45,9.67,10.67,7,14.39,7a6.7,6.7,0,0,1,4.26,1.09,6.84,6.84,0,0,1,2.68,3.51L26.76,8.4C25.22,4.75,21.49.84,14.39.84A14.11,14.11,0,0,0,4.09,5.11,14.44,14.44,0,0,0,0,15.6a14.35,14.35,0,0,0,4.1,10.49,14.06,14.06,0,0,0,4.76,3.16,13.81,13.81,0,0,0,5.61,1,12.85,12.85,0,0,0,7.45-1.9A13.13,13.13,0,0,0,27,22.5Z"/><path class="cls-3" d="M168.51,29.49H174v-13c0-4.15-2.38-7.82-8.85-7.82-4.74,0-7.38,2.49-8.36,5l4.41,2.49a3.64,3.64,0,0,1,1.48-2,3.58,3.58,0,0,1,2.42-.58c1.93,0,2.94,1,2.94,2.2,0,.7-.37,1.23-1.4,1.43l-4.73.74c-3.28.48-5.91,2.51-5.91,6.1,0,3.22,2.54,6.15,6.93,6.15a6.15,6.15,0,0,0,3.18-.66,6.33,6.33,0,0,0,2.44-2.18Zm-.45-7.89c0,3.14-1.86,4-3.67,4s-2.37-1-2.37-2.08c0-1.42,1-2,2.24-2.24l3.8-.62Z"/><path class="cls-2" d="M61.6,9q-.32,0-.63,0c-1.62,0-4.74.64-5.2,1.72V7.84H49.85V29.52H56V20.68c0-4,2.22-5.49,4.68-5.49a7.69,7.69,0,0,1,1,0Z"/><path class="cls-2" d="M118,29.48V17.9a3.27,3.27,0,0,1,.17-1.35,3.41,3.41,0,0,1,.7-1.17,3.2,3.2,0,0,1,2.43-1,3,3,0,0,1,1.32.24,3.07,3.07,0,0,1,1.1.78,3,3,0,0,1,.67,1.18,3.1,3.1,0,0,1,.12,1.35V29.54h6.11V16.84c0-4.44-2.14-8.18-7.17-8.18A6.86,6.86,0,0,0,120.4,9a7,7,0,0,0-2.62,1.67V7.82h-5.89V29.49Z"/><path class="cls-2" d="M98.42,7.72l-9.68,5.69V24.79l9.68,5.68,9.66-5.68V13.41Zm4,13.24-4,2.75-4-2.75V17.08l4-2.73,4,2.73Z"/></g></g></svg>