<svg id="Layer_1" data-name="Layer 1" xmlns="http://www.w3.org/2000/svg" viewBox="0 0 511.88 512"><defs><style>.cls-1{fill:#fff;}</style></defs><title>covarage</title><g id="Page-1"><path id="Shape" class="cls-1" d="M387.41,56.75l-128-56a8.52,8.52,0,0,0-6.82,0l-128,56a8.51,8.51,0,0,0-5.12,7.81v134a94,94,0,0,0,38.91,76l88.46,63.81a15.64,15.64,0,0,0,18.32,0l88.46-63.8a94,94,0,0,0,38.91-76v-134A8.51,8.51,0,0,0,387.41,56.75Zm-11.94,141.8a76.9,76.9,0,0,1-31.83,62.17L256,323.93l-87.64-63.21a76.9,76.9,0,0,1-31.83-62.17V70.14L256,17.85,375.47,70.14Z" transform="translate(-0.15 0)"/><path class="cls-1" d="M252.59,38l-93.87,41.1a8.53,8.53,0,0,0-5.12,7.82V198.55a59.75,59.75,0,0,0,24.75,48.33L251,299.29a8.53,8.53,0,0,0,10,0l72.66-52.41a59.75,59.75,0,0,0,24.75-48.33V86.89a8.53,8.53,0,0,0-5.12-7.82L259.41,38A8.52,8.52,0,0,0,252.59,38Zm88.74,54.49V198.55A42.65,42.65,0,0,1,323.67,233L256,281.85,188.33,233a42.65,42.65,0,0,1-17.66-34.49V92.46L256,55.11Z" transform="translate(-0.15 0)"/><path class="cls-1" d="M70.7,283.31,52.24,240.18a27.2,27.2,0,0,0-49.77,22l33.44,73.57a90.65,90.65,0,0,0,18.52,26.74l52.6,52.6a16.94,16.94,0,0,0-4.63,11.61v68.26A17.07,17.07,0,0,0,119.47,512h93.86a17.07,17.07,0,0,0,17.07-17.07V426.67a17.07,17.07,0,0,0-17.07-17.07V393.72a89.42,89.42,0,0,0-18.7-55.89,61.47,61.47,0,0,0-28.44-20.75,168.88,168.88,0,0,1-48.86-31.35A39.24,39.24,0,0,0,70.7,283.31ZM213.33,494.93H119.47V426.67h93.86Zm-32-146.45a72.47,72.47,0,0,1,15,45.24V409.6H125.7L66.5,350.4a73.81,73.81,0,0,1-15.06-21.74L18,255.1a10.14,10.14,0,1,1,18.55-8.2l19.09,44.52a100.65,100.65,0,0,0,21.52,31.79l39,39a8.53,8.53,0,1,0,12.06-12.07l-39-39a84.38,84.38,0,0,1-10.52-12.8,22.2,22.2,0,0,1,27.64.46,181.87,181.87,0,0,0,54.45,34.48A44.81,44.81,0,0,1,181.31,348.48Z" transform="translate(-0.15 0)"/><path class="cls-1" d="M187.73,452.27H179.2a8.53,8.53,0,0,0,0,17.06h8.53a8.53,8.53,0,1,0,0-17.06Z" transform="translate(-0.15 0)"/><path class="cls-1" d="M476.09,335.72l33.44-73.57a27.2,27.2,0,1,0-49.76-22l-18.42,43a39.37,39.37,0,0,0-46.68,2.56,168.91,168.91,0,0,1-48.86,31.36,61.45,61.45,0,0,0-28.44,20.74,89.39,89.39,0,0,0-18.7,55.92V409.6a17.07,17.07,0,0,0-17.07,17.07v68.26A17.07,17.07,0,0,0,298.67,512h93.86a17.07,17.07,0,0,0,17.07-17.07V426.67A16.94,16.94,0,0,0,405,415.06l52.6-52.6A90.65,90.65,0,0,0,476.09,335.72ZM392.53,494.93H298.67V426.67h93.86ZM386.3,409.6H315.73V393.72a72.5,72.5,0,0,1,15-45.23,44.91,44.91,0,0,1,20.48-15.21,181.87,181.87,0,0,0,54.45-34.48,22.18,22.18,0,0,1,27.69-.53,83.09,83.09,0,0,1-10.57,12.88l-39,39a8.54,8.54,0,0,0,12.07,12.07l39-39a100.82,100.82,0,0,0,21.52-31.79l19.09-44.53A10.14,10.14,0,1,1,494,255.1l-33.44,73.57a73.82,73.82,0,0,1-15.06,21.73Z" transform="translate(-0.15 0)"/><path class="cls-1" d="M332.8,452.27h-8.53a8.53,8.53,0,1,0,0,17.06h8.53a8.53,8.53,0,0,0,0-17.06Z" transform="translate(-0.15 0)"/><path class="cls-1" d="M209.92,180.91a8.53,8.53,0,1,0-10.24,13.65l34.13,25.6a8.54,8.54,0,0,0,5.12,1.71,8.78,8.78,0,0,0,1.45-.12,8.54,8.54,0,0,0,5.65-3.68l68.27-102.4a8.53,8.53,0,0,0-14.2-9.47l-63.27,94.9Z" transform="translate(-0.15 0)"/></g></svg>