<svg id="Capa_1" data-name="Capa 1" xmlns="http://www.w3.org/2000/svg" viewBox="0 0 512 440"><defs><style>.cls-1{fill:#fff;}</style></defs><title>education</title><path class="cls-1" d="M256,386c42.24,0,85-13.74,85-40V289.17l40-17.78V376a10,10,0,0,0,20,0V256a10,10,0,0,0-6.12-9.22L260.06,186.86a10,10,0,0,0-8.12,0l-135,60a10,10,0,0,0,0,18.28l54.06,24V346c0,26.26,42.76,40,85,40Zm65-40c0,6-22.11,20-65,20s-65-14-65-20V298.05l60.94,27.09a10,10,0,0,0,8.12,0L321,298.05ZM145.62,256,256,206.94,366.38,256,256,305.06Z" transform="translate(0 -36)"/><path class="cls-1" d="M502,36H10A10,10,0,0,0,0,46V466a10,10,0,0,0,10,10H211a10,10,0,0,0,0-20H20V146H492V456H301a10,10,0,0,0,0,20H502a10,10,0,0,0,10-10V46A10,10,0,0,0,502,36Zm-10,90H20V56H306V76a10,10,0,0,0,20,0V56h40V76a10,10,0,0,0,20,0V56h40V76a10,10,0,0,0,20,0V56h46Z" transform="translate(0 -36)"/><circle class="cls-1" cx="256" cy="430" r="10"/></svg>