<svg xmlns="http://www.w3.org/2000/svg" viewBox="0 0 95.26 11.95"><defs><style>.cls-1{fill:#fff;}</style></defs><title>Asset 5</title><g id="Layer_2" data-name="Layer 2"><g id="Layer_1-2" data-name="Layer 1"><path class="cls-1" d="M39.65,7.77h6.07L42.51,2.6l-5.88,9.34H34L41.11.73a1.71,1.71,0,0,1,2.79,0L51.09,12H48.4L47.14,9.86H41ZM67.5,9.86V.12H65.22V10.81a1.11,1.11,0,0,0,.33.79,1.2,1.2,0,0,0,.84.34H76.76L78.1,9.86ZM29.87,8.11a4,4,0,1,0,0-8h-10V11.94h2.28V2.2h7.52a1.92,1.92,0,1,1,0,3.83H23.3l6.79,5.91h3.3L28.83,8.11Zm-24,3.83A5.91,5.91,0,0,1,5.91.12h6.88a5.92,5.92,0,0,1,0,11.83Zm6.73-2.08a3.83,3.83,0,0,0,0-7.66H6.07a3.83,3.83,0,0,0,0,7.66Zm43.19,2.08a5.91,5.91,0,1,1,0-11.82H64L62.66,2.2H56a3.83,3.83,0,1,0,0,7.66h8.2l-1.33,2.08ZM83.65,9.86A3.83,3.83,0,0,1,80,7.08h9.72L91,5H80A3.82,3.82,0,0,1,83.65,2.2h6.68L91.67.12H83.5a5.91,5.91,0,1,0,0,11.82h7l1.33-2.08Z"/><path class="cls-1" d="M92.89,1.38a1,1,0,1,1,1,1,1,1,0,0,1-1-1m1,1.33A1.33,1.33,0,1,0,92.6,1.38a1.33,1.33,0,0,0,1.33,1.33M93.81.59a1,1,0,0,1,.39,0,.43.43,0,0,1,.29.42,1,1,0,0,1,0,.12.45.45,0,0,1-.18.26l-.07,0,.34.62h-.33l-.3-.57h-.21v.57h-.29V.59Zm.1.67a.27.27,0,0,0,.25-.09.28.28,0,0,0,0-.13.2.2,0,0,0-.11-.18.94.94,0,0,0-.27,0h-.09v.42Z"/></g></g></svg>