<svg id="Layer_1" data-name="Layer 1" xmlns="http://www.w3.org/2000/svg" xmlns:xlink="http://www.w3.org/1999/xlink" viewBox="0 0 96.27 96.27"><defs><style>.cls-1{fill:none;}.cls-2{clip-path:url(#clip-path);}.cls-3{fill:#fff;}</style><clipPath id="clip-path" transform="translate(-44.4 -44.4)"><rect class="cls-1" width="185.07" height="185.07"/></clipPath></defs><title>outlook-logo</title><g class="cls-2"><path class="cls-3" d="M117.55,96.33a5.53,5.53,0,0,1-3.73,1.45,5.45,5.45,0,0,1-3.73-1.46l-6.24-5.79v29.53h36.82V75Z" transform="translate(-44.4 -44.4)"/><path class="cls-3" d="M115.17,93.74l25.5-23.53v-3.5H103.85v19l8.63,8a2,2,0,0,0,2.69,0" transform="translate(-44.4 -44.4)"/><path class="cls-3" d="M72.63,81C68.49,81,65,86.28,65,92.47s3.5,11.43,7.64,11.43,7.63-5.23,7.63-11.43S76.77,81,72.63,81" transform="translate(-44.4 -44.4)"/><path class="cls-3" d="M44.4,54.85v77.07l56.18,8.75V44.4Zm28.23,54.32c-7.12,0-12.91-7.49-12.91-16.7s5.79-16.7,12.91-16.7,12.91,7.49,12.91,16.7-5.79,16.7-12.91,16.7" transform="translate(-44.4 -44.4)"/></g></svg>