<svg xmlns="http://www.w3.org/2000/svg" viewBox="0 0 95.44 32.64"><defs><style>.cls-1{fill:#fff;}</style></defs><title>Asset 3</title><g id="Layer_2" data-name="Layer 2"><g id="Layer_1-2" data-name="Layer 1"><path class="cls-1" d="M44.17,20a3.45,3.45,0,1,1,3.38-3.45A3.41,3.41,0,0,1,44.17,20m3.39.44c0,.32.54,1.2,1.21,1.2h.43a.3.3,0,0,0,.3-.3V11.87h0a.31.31,0,0,0-.3-.29H47.86a.31.31,0,0,0-.3.29h0v.76a4.27,4.27,0,0,0-3.39-1.42,5.31,5.31,0,0,0,0,10.62,4.36,4.36,0,0,0,3.39-1.42Zm5.12-1.35a5,5,0,0,0,2.79.91c.89,0,1.81-.46,1.81-1.26,0-1.07-2-1.24-3.26-1.66a3,3,0,0,1-2.34-2.74c0-2.19,2-3.1,3.77-3.1a5.63,5.63,0,0,1,3.11.93.31.31,0,0,1,.11.43l-.74,1a.3.3,0,0,1-.43.09,3.41,3.41,0,0,0-2-.64c-1.24,0-1.78.51-1.78,1.15s.87,1,1.89,1.26c1.77.48,3.71,1.05,3.71,3.23,0,1.93-1.81,3.12-3.8,3.12a6.41,6.41,0,0,1-3.88-1.22.33.33,0,0,1-.06-.44l.73-1a.29.29,0,0,1,.42-.07m16.57,1.35c0,.32.54,1.2,1.21,1.2h.43a.3.3,0,0,0,.3-.3V11.87h0a.31.31,0,0,0-.3-.29H69.56a.31.31,0,0,0-.31.29h0v.76a4.27,4.27,0,0,0-3.39-1.42,5.31,5.31,0,0,0,0,10.62A4.36,4.36,0,0,0,69.25,20.41ZM65.87,20a3.45,3.45,0,1,1,3.37-3.45A3.41,3.41,0,0,1,65.87,20m17.25.76V15.85a4.28,4.28,0,0,0-4.51-4.61,3.38,3.38,0,0,0-2.79,1.42h0a1.09,1.09,0,0,0-1.2-1.06h-.43a.31.31,0,0,0-.31.31v8.52h0v.92h0a.31.31,0,0,0,.3.29h1.49l0,0h0l0,0a.25.25,0,0,0,.06-.16h0V15.77a2.68,2.68,0,0,1,5.36,0v4.66h0v.92h0a.31.31,0,0,0,.3.29H83l0,0h0a.08.08,0,0,0,0,0h0a.44.44,0,0,0,.06-.16h0Zm10.38-.32c0,.32.54,1.2,1.21,1.2h.43a.3.3,0,0,0,.3-.3V11.87h0a.31.31,0,0,0-.3-.29H93.8a.31.31,0,0,0-.3.29h0v.76a4.27,4.27,0,0,0-3.39-1.42,5.31,5.31,0,0,0,0,10.62,4.36,4.36,0,0,0,3.39-1.42ZM90.12,20a3.45,3.45,0,1,1,3.37-3.45A3.41,3.41,0,0,1,90.12,20"/><path class="cls-1" d="M27.63,17.28A7.68,7.68,0,1,0,35.31,25a7.68,7.68,0,0,0-7.68-7.68m-19.95,0A7.68,7.68,0,1,0,15.36,25a7.68,7.68,0,0,0-7.68-7.68m17.65-9.6A7.68,7.68,0,1,1,17.65,0a7.68,7.68,0,0,1,7.68,7.68"/></g></g></svg>