<svg xmlns="http://www.w3.org/2000/svg" viewBox="0 0 49.93 40.38"><defs><style>.cls-1{fill:#fff;}</style></defs><title>Asset 2</title><g id="Layer_2" data-name="Layer 2"><g id="Layer_1-2" data-name="Layer 1"><path class="cls-1" d="M33.79,7.57A.7.7,0,0,0,33.4,7V4.72l2.67-.95L24.93,0,13.79,3.77,19,5.6l0,2.69a15.6,15.6,0,0,1,6,1.58,15.67,15.67,0,0,1,6-1.58l0-2.69L32.65,5V7a.69.69,0,0,0-.11,1.18l-.27,2h1.51l-.29-2a.68.68,0,0,0,.3-.57"/><path class="cls-1" d="M25,40.38a3.62,3.62,0,0,1-1.13-.19l-5.08-1.71a1.87,1.87,0,0,0-.62-.1H6.4A6.41,6.41,0,0,1,0,32V10.8A4.19,4.19,0,0,1,4.19,6.62h8V8.44h-8A2.36,2.36,0,0,0,1.83,10.8V32A4.58,4.58,0,0,0,6.4,36.55H18.13a3.73,3.73,0,0,1,1.2.2l5.08,1.71a1.76,1.76,0,0,0,1.11,0l5.08-1.71a3.73,3.73,0,0,1,1.2-.2H43.53A4.58,4.58,0,0,0,48.1,32V10.8a2.36,2.36,0,0,0-2.36-2.36h-8V6.62h8a4.19,4.19,0,0,1,4.19,4.18V32a6.41,6.41,0,0,1-6.4,6.4H31.8a1.83,1.83,0,0,0-.62.1L26.1,40.19a3.63,3.63,0,0,1-1.14.19"/><polygon class="cls-1" points="12.14 28.78 12.14 14.84 8.49 14.84 8.49 31.19 9.11 31.19 12.14 31.19 15.77 31.19 15.77 28.78 12.14 28.78"/><polygon class="cls-1" points="27.15 31.19 29.81 31.19 29.54 14.84 28.03 14.84 26.92 14.84 25.53 14.84 23.84 24.66 22.15 14.84 20.8 14.84 19.65 14.84 18.18 14.84 17.92 31.19 20.57 31.19 20.73 20.49 22.74 31.08 22.72 31.19 22.76 31.19 24.92 31.19 24.96 31.19 24.95 31.08 27 20.27 27.15 31.19"/><path class="cls-1" d="M37.93,19.7,41,19.25s.14-4.47-4-4.56c0,0-4.28-.24-4.56,4a5.08,5.08,0,0,0,1.21,3.55l3,2.75a4,4,0,0,1,1.25,2.67,1.08,1.08,0,0,1-1,1.12s-1.61.16-1.45-3l-3.07.53s-.34,5.18,4.73,5.14a4.07,4.07,0,0,0,4.19-4,5.59,5.59,0,0,0-1.83-4.4l-2.92-2.58a2.7,2.7,0,0,1-.78-1.9,1.59,1.59,0,0,1,.37-1,1,1,0,0,1,1.53.28,3.62,3.62,0,0,1,.25,1.89"/></g></g></svg>