<svg xmlns="http://www.w3.org/2000/svg" xmlns:xlink="http://www.w3.org/1999/xlink" viewBox="0 0 60.91 59.22"><defs><style>.cls-1,.cls-3{fill:none;}.cls-2{clip-path:url(#clip-path);}.cls-3{stroke:#505150;stroke-miterlimit:10;stroke-width:1.5px;}</style><clipPath id="clip-path" transform="translate(-9.17 -12.99)"><rect class="cls-1" width="79.26" height="84.44"/></clipPath></defs><title>technology</title><g id="Layer_2" data-name="Layer 2"><g id="Layer_1-2" data-name="Layer 1"><g class="cls-2"><line class="cls-3" x1="25.1" y1="52.79" x2="35.81" y2="52.79"/><line class="cls-3" x1="25.61" y1="55.63" x2="35.3" y2="55.63"/><line class="cls-3" x1="26.47" y1="58.47" x2="34.44" y2="58.47"/><g class="cls-2"><path class="cls-3" d="M39.58,62.78c-1.57,0-3.13,0-4.69,0-1.09,0-1.76-.47-1.67-1.51.42-4.75-2.28-8.1-4.79-11.69-3.33-4.75-3.7-9.9-.6-15a13.89,13.89,0,0,1,13.55-6.32c6,1,10.17,4.28,11.76,10.29,1.07,4,0,7.78-2.3,11.19-.52.76-1.08,1.5-1.67,2.21a12,12,0,0,0-3,8.27c.07,2.33-.29,2.53-2.61,2.54Z" transform="translate(-9.17 -12.99)"/><line class="cls-3" x1="30.41" x2="30.41" y2="12.5"/><line class="cls-3" y1="30.05" x2="12.5" y2="30.05"/><line class="cls-3" x1="9.12" y1="8.83" x2="17.92" y2="17.6"/><line class="cls-3" x1="60.91" y1="30.05" x2="48.41" y2="30.05"/><line class="cls-3" x1="51.79" y1="8.83" x2="42.99" y2="17.6"/></g></g></g></g></svg>