<svg xmlns="http://www.w3.org/2000/svg" viewBox="0 0 55.36 28.32"><defs><style>.cls-1,.cls-3{fill:#808285;}.cls-2{fill:none;stroke:#808285;stroke-miterlimit:10;stroke-width:0.75px;}.cls-3{fill-rule:evenodd;}</style></defs><title>Asset 8</title><g id="Layer_2" data-name="Layer 2"><g id="Layer_1-2" data-name="Layer 1"><path class="cls-1" d="M13.69,18.66a.52.52,0,0,0-.71-.24l-1.46.72L9.72,15l-4.87.82-.29-1.74,3.08-.47h0a.53.53,0,0,0,.43-.6.54.54,0,0,0-.6-.44L4.39,13,4,10.56a.52.52,0,0,0-.61-.43h0a.53.53,0,0,0-.43.61L4,17l5.1-.86L11,20.59l2.46-1.23a.52.52,0,0,0,.24-.7"/><path class="cls-1" d="M4.61,7.52A1.64,1.64,0,1,0,3.3,9.43,1.63,1.63,0,0,0,4.61,7.52"/><path class="cls-1" d="M5.93,22A4.32,4.32,0,0,1,2,14.79l-.18-.94a5.13,5.13,0,1,0,7.73,6.51l-.42-1A4.35,4.35,0,0,1,5.93,22"/><line class="cls-2" x1="17.26" y1="21.99" x2="0.88" y2="27.2"/><path class="cls-3" d="M35.93,11.07a2.64,2.64,0,0,0-3.13.61,2.6,2.6,0,0,0-.14,3.14s1.49,1.75,3.29.7a3,3,0,0,1-3.61.54,3.14,3.14,0,0,1-.84-4.78,3.1,3.1,0,0,1,4.43-.21"/><path class="cls-2" d="M28.71,23.94a4,4,0,1,0-4,4A4,4,0,0,0,28.71,23.94Z"/><path class="cls-2" d="M50.5,23.94a4,4,0,1,0-4,4A4,4,0,0,0,50.5,23.94Z"/><circle class="cls-2" cx="32.94" cy="13.36" r="6.25"/><line class="cls-2" x1="24.31" y1="8.65" x2="28.71" y2="8.65"/><line class="cls-2" x1="19.31" y1="13.01" x2="26.7" y2="13.01"/><line class="cls-2" x1="22.81" y1="17.43" x2="28.21" y2="17.43"/><path class="cls-2" d="M30.25,3.6H26.46l.4-2.89a.39.39,0,0,1,.39-.33h2.1a.38.38,0,0,1,.38.32Z"/><path class="cls-2" d="M20.58,23.94H17.89a.63.63,0,0,1-.63-.63V4.22a.63.63,0,0,1,.63-.62H38.32a3.45,3.45,0,0,1,3.46,3.45v6.19a.53.53,0,0,0,.53.53h9.28a2.15,2.15,0,0,1,1.56.67l1.26,1.37A2.12,2.12,0,0,1,55,17.25v5.59a1.11,1.11,0,0,1-1.11,1.1H50.41"/><line class="cls-2" x1="42.5" y1="23.94" x2="28.5" y2="23.94"/><path class="cls-2" d="M41.58,7.69h5a2.42,2.42,0,0,1,1.95,1L52.6,14"/></g></g></svg>