<svg id="Layer_1" data-name="Layer 1" xmlns="http://www.w3.org/2000/svg" viewBox="0 0 52.3 46.81"><defs><style>.cls-1,.cls-4{fill:#fff;}.cls-2{fill:none;stroke:#808285;stroke-miterlimit:10;stroke-width:0.75px;}.cls-3{fill:#808285;}.cls-4{fill-rule:evenodd;}</style></defs><title>appointment</title><g id="Layer_1-2" data-name="Layer 1-2"><rect class="cls-1" x="13.11" y="7.62" width="39.19" height="39.19" rx="3.74"/><rect class="cls-2" x="18.26" y="19.78" width="4.92" height="4.92"/><rect class="cls-1" x="34.24" y="19.78" width="4.92" height="4.92"/><rect class="cls-1" x="26.25" y="27.02" width="4.92" height="4.92"/><rect class="cls-1" x="34.24" y="27.02" width="4.92" height="4.92"/><rect class="cls-1" x="42.22" y="27.02" width="4.92" height="4.92"/><rect class="cls-1" x="42.22" y="19.78" width="4.92" height="4.92"/><rect class="cls-1" x="18.26" y="34.25" width="4.92" height="4.92"/><rect class="cls-1" x="26.25" y="34.25" width="4.92" height="4.92"/><rect class="cls-1" x="34.24" y="34.25" width="4.92" height="4.92"/><rect class="cls-1" x="42.22" y="34.25" width="4.92" height="4.92"/><line class="cls-2" x1="13.11" y1="13.46" x2="52.3" y2="13.46"/><polygon class="cls-1" points="13.11 13.89 52.3 14.1 51.9 9.69 49.95 7.89 47.87 7.76 17.2 7.92 14.95 8.14 13.38 9.95 13.11 13.89"/><path class="cls-3" d="M20.78,12.19h0a2.1,2.1,0,0,1-2.1-2.1h0V4.88a2.1,2.1,0,1,1,4.2,0v5.21a2.1,2.1,0,0,1-2.1,2.1h0" transform="translate(-0.37 -0.38)"/><path class="cls-1" d="M20.78,11.17a1.08,1.08,0,0,1-1.08-1.08V4.88a1.08,1.08,0,1,1,2.16,0h0v5.21a1.08,1.08,0,0,1-1.08,1.08" transform="translate(-0.37 -0.38)"/><path class="cls-1" d="M33.07,12.19h0a2.1,2.1,0,0,1-2.1-2.1h0V4.88a2.1,2.1,0,0,1,4.2,0v5.21a2.1,2.1,0,0,1-2.1,2.1" transform="translate(-0.37 -0.38)"/><path class="cls-1" d="M45.37,12.19h0a2.1,2.1,0,0,1-2.1-2.1V4.88a2.1,2.1,0,0,1,4.2,0v5.21a2.11,2.11,0,0,1-2.1,2.1" transform="translate(-0.37 -0.38)"/><path class="cls-1" d="M33.07,11.17A1.07,1.07,0,0,1,32,10.1h0V4.88a1.08,1.08,0,1,1,2.15-.21.74.74,0,0,1,0,.21v5.21a1.08,1.08,0,0,1-1.08,1.08h0" transform="translate(-0.37 -0.38)"/><path class="cls-1" d="M45.37,11.17a1.08,1.08,0,0,1-1.08-1.08h0V4.88a1.08,1.08,0,1,1,2.15-.21.74.74,0,0,1,0,.21v5.21a1.07,1.07,0,0,1-1.06,1.08h0" transform="translate(-0.37 -0.38)"/><path class="cls-1" d="M33.07,16.72A16.35,16.35,0,1,1,16.71.38h0A16.35,16.35,0,0,1,33.07,16.72" transform="translate(-0.37 -0.38)"/><path class="cls-1" d="M33.07,16.72A16.35,16.35,0,1,1,16.71.38h0A16.35,16.35,0,0,1,33.07,16.72Z" transform="translate(-0.37 -0.38)"/><path class="cls-4" d="M17.81,13.62a1.65,1.65,0,0,0-1.94.37,1.61,1.61,0,0,0-.09,1.95,1.67,1.67,0,0,0,2,.43,1.88,1.88,0,0,1-2.24.34,2,2,0,0,1-.7-2.74,1.51,1.51,0,0,1,.18-.26,1.93,1.93,0,0,1,2.71-.17l0,0" transform="translate(-0.37 -0.38)"/><circle class="cls-1" cx="10.49" cy="21.21" r="2.48"/><path class="cls-1" d="M26.83,21.59a2.48,2.48,0,1,0-2.48,2.48h0A2.48,2.48,0,0,0,26.83,21.59Z" transform="translate(-0.37 -0.38)"/><path class="cls-1" d="M19.83,15A3.87,3.87,0,1,0,16,18.9h0A3.88,3.88,0,0,0,19.83,15Z" transform="translate(-0.37 -0.38)"/><line class="cls-1" x1="10.24" y1="11.74" x2="12.97" y2="11.74"/><line class="cls-1" x1="7.14" y1="14.44" x2="11.72" y2="14.44"/><line class="cls-1" x1="9.31" y1="17.18" x2="12.65" y2="17.18"/><path class="cls-1" d="M14.29,9H11.94l.25-1.79A.25.25,0,0,1,12.43,7h1.3a.24.24,0,0,1,.24.2Z" transform="translate(-0.37 -0.38)"/><path class="cls-1" d="M8.3,21.59H6.63a.38.38,0,0,1-.39-.39V9.37A.39.39,0,0,1,6.63,9H19.29a2.14,2.14,0,0,1,2.14,2.14V15a.33.33,0,0,0,.33.33h5.75a1.26,1.26,0,0,1,1,.42l.79.84a1.37,1.37,0,0,1,.35.9V21a.67.67,0,0,1-.66.68H26.78" transform="translate(-0.37 -0.38)"/><line class="cls-1" x1="21.51" y1="21.21" x2="12.83" y2="21.21"/><path class="cls-1" d="M21.31,11.53h3.11a1.53,1.53,0,0,1,1.21.6l2.5,3.32" transform="translate(-0.37 -0.38)"/></g></svg>