<svg id="Layer_1" data-name="Layer 1" xmlns="http://www.w3.org/2000/svg" viewBox="0 0 53.05 47.56"><defs><style>.cls-1,.cls-2{fill:none;stroke-miterlimit:10;stroke-width:0.75px;}.cls-1{stroke:#fff;}.cls-2{stroke:#808285;}.cls-3{fill:#b0976f;}.cls-4{fill:#808285;}.cls-5,.cls-6{fill:#fff;}.cls-6{fill-rule:evenodd;}</style></defs><title>appointment</title><g id="Layer_1-2" data-name="Layer 1-2"><rect class="cls-1" x="13.48" y="8" width="39.19" height="39.19" rx="3.74"/><rect class="cls-2" x="18.63" y="20.15" width="4.92" height="4.92"/><rect class="cls-1" x="34.61" y="20.15" width="4.92" height="4.92"/><rect class="cls-1" x="26.62" y="27.39" width="4.92" height="4.92"/><rect class="cls-1" x="34.61" y="27.39" width="4.92" height="4.92"/><rect class="cls-1" x="42.59" y="27.39" width="4.92" height="4.92"/><rect class="cls-1" x="42.59" y="20.15" width="4.92" height="4.92"/><rect class="cls-1" x="18.63" y="34.63" width="4.92" height="4.92"/><rect class="cls-1" x="26.62" y="34.63" width="4.92" height="4.92"/><rect class="cls-1" x="34.61" y="34.63" width="4.92" height="4.92"/><rect class="cls-1" x="42.59" y="34.63" width="4.92" height="4.92"/><polygon class="cls-3" points="12.48 15.27 51.67 15.47 51.27 11.06 49.33 9.27 47.24 9.13 16.57 9.29 14.32 9.52 12.76 11.32 12.48 15.27"/><path class="cls-4" d="M20.78,12.19h0a2.1,2.1,0,0,1-2.1-2.1h0V4.88a2.1,2.1,0,1,1,4.2,0v5.21a2.1,2.1,0,0,1-2.1,2.1h0" transform="translate(0 0)"/><path class="cls-5" d="M20.78,11.17a1.08,1.08,0,0,1-1.08-1.08V4.88a1.08,1.08,0,1,1,2.16,0h0v5.21a1.08,1.08,0,0,1-1.08,1.08" transform="translate(0 0)"/><path class="cls-5" d="M33.07,12.19h0a2.1,2.1,0,0,1-2.1-2.1h0V4.88a2.1,2.1,0,0,1,4.2,0v5.21a2.1,2.1,0,0,1-2.1,2.1" transform="translate(0 0)"/><path class="cls-5" d="M45.37,12.19h0a2.1,2.1,0,0,1-2.1-2.1V4.88a2.1,2.1,0,0,1,4.2,0v5.21a2.11,2.11,0,0,1-2.1,2.1" transform="translate(0 0)"/><path class="cls-3" d="M33.07,11.17A1.07,1.07,0,0,1,32,10.1h0V4.88a1.08,1.08,0,1,1,2.15-.21.74.74,0,0,1,0,.21v5.21a1.08,1.08,0,0,1-1.08,1.08h0" transform="translate(0 0)"/><path class="cls-3" d="M45.37,11.17a1.08,1.08,0,0,1-1.08-1.08h0V4.88a1.08,1.08,0,1,1,2.15-.21.74.74,0,0,1,0,.21v5.21a1.07,1.07,0,0,1-1.06,1.08h0" transform="translate(0 0)"/><path class="cls-3" d="M33.07,16.72A16.35,16.35,0,1,1,16.71.38h0A16.35,16.35,0,0,1,33.07,16.72" transform="translate(0 0)"/><path class="cls-1" d="M33.07,16.72A16.35,16.35,0,1,1,16.71.38h0A16.35,16.35,0,0,1,33.07,16.72Z" transform="translate(0 0)"/><path class="cls-6" d="M17.81,13.62a1.65,1.65,0,0,0-1.94.37,1.61,1.61,0,0,0-.09,1.95,1.67,1.67,0,0,0,2,.43,1.88,1.88,0,0,1-2.24.34,2,2,0,0,1-.7-2.74,1.51,1.51,0,0,1,.18-.26,1.93,1.93,0,0,1,2.71-.17l0,0" transform="translate(0 0)"/><circle class="cls-1" cx="10.86" cy="21.59" r="2.48"/><path class="cls-1" d="M26.83,21.59a2.48,2.48,0,1,0-2.48,2.48h0A2.48,2.48,0,0,0,26.83,21.59Z" transform="translate(0 0)"/><path class="cls-1" d="M19.83,15A3.87,3.87,0,1,0,16,18.9h0A3.88,3.88,0,0,0,19.83,15Z" transform="translate(0 0)"/><line class="cls-1" x1="10.61" y1="12.11" x2="13.34" y2="12.11"/><line class="cls-1" x1="7.51" y1="14.81" x2="12.09" y2="14.81"/><line class="cls-1" x1="9.68" y1="17.55" x2="13.02" y2="17.55"/><path class="cls-1" d="M14.29,9H11.94l.25-1.79A.25.25,0,0,1,12.43,7h1.3a.24.24,0,0,1,.24.2Z" transform="translate(0 0)"/><path class="cls-1" d="M8.3,21.59H6.63a.38.38,0,0,1-.39-.39V9.37A.39.39,0,0,1,6.63,9H19.29a2.14,2.14,0,0,1,2.14,2.14V15a.33.33,0,0,0,.33.33h5.75a1.26,1.26,0,0,1,1,.42l.79.84a1.37,1.37,0,0,1,.35.9V21a.67.67,0,0,1-.66.68H26.78" transform="translate(0 0)"/><line class="cls-1" x1="21.88" y1="21.59" x2="13.2" y2="21.59"/><path class="cls-1" d="M21.31,11.53h3.11a1.53,1.53,0,0,1,1.21.6l2.5,3.32" transform="translate(0 0)"/></g></svg>