<svg xmlns="http://www.w3.org/2000/svg" viewBox="0 0 53.04 47.56"><defs><style>.cls-1{fill:none;stroke:#808285;stroke-miterlimit:10;stroke-width:0.75px;}.cls-2,.cls-4{fill:#808285;}.cls-3{fill:#fff;}.cls-4{fill-rule:evenodd;}</style></defs><title>appointment</title><g id="Layer_2" data-name="Layer 2"><g id="Layer_1-2" data-name="Layer 1"><rect class="cls-1" x="13.48" y="8" width="39.19" height="39.19" rx="3.74"/><rect class="cls-1" x="18.63" y="20.16" width="4.92" height="4.92"/><rect class="cls-1" x="34.61" y="20.16" width="4.92" height="4.92"/><rect class="cls-1" x="26.62" y="27.4" width="4.92" height="4.92"/><rect class="cls-1" x="34.61" y="27.4" width="4.92" height="4.92"/><rect class="cls-1" x="42.59" y="27.4" width="4.92" height="4.92"/><rect class="cls-1" x="42.59" y="20.16" width="4.92" height="4.92"/><rect class="cls-1" x="18.63" y="34.63" width="4.92" height="4.92"/><rect class="cls-1" x="26.62" y="34.63" width="4.92" height="4.92"/><rect class="cls-1" x="34.61" y="34.63" width="4.92" height="4.92"/><rect class="cls-1" x="42.59" y="34.63" width="4.92" height="4.92"/><line class="cls-1" x1="13.48" y1="13.84" x2="52.67" y2="13.84"/><polygon class="cls-2" points="13.48 14.27 52.67 14.48 52.27 10.07 50.32 8.27 48.24 8.14 17.57 8.3 15.32 8.52 13.75 10.33 13.48 14.27"/><path class="cls-2" d="M20.78,12.19h0a2.1,2.1,0,0,1-2.1-2.1V4.88a2.1,2.1,0,1,1,4.2,0v5.21a2.1,2.1,0,0,1-2.1,2.1"/><path class="cls-3" d="M20.78,11.17a1.08,1.08,0,0,1-1.08-1.08V4.88a1.08,1.08,0,1,1,2.16,0v5.21a1.08,1.08,0,0,1-1.08,1.08"/><path class="cls-2" d="M33.07,12.19h0a2.1,2.1,0,0,1-2.1-2.1V4.88a2.1,2.1,0,0,1,4.2,0v5.21a2.1,2.1,0,0,1-2.1,2.1"/><path class="cls-2" d="M45.37,12.19h0a2.1,2.1,0,0,1-2.1-2.1V4.88a2.1,2.1,0,0,1,4.2,0v5.21a2.11,2.11,0,0,1-2.1,2.1"/><path class="cls-3" d="M33.07,11.17A1.07,1.07,0,0,1,32,10.09V4.88a1.08,1.08,0,1,1,2.15,0v5.21a1.08,1.08,0,0,1-1.08,1.08"/><path class="cls-3" d="M45.37,11.17a1.08,1.08,0,0,1-1.08-1.08V4.88a1.08,1.08,0,1,1,2.15,0v5.21a1.07,1.07,0,0,1-1.07,1.08"/><path class="cls-3" d="M33.07,16.72A16.35,16.35,0,1,1,16.72.38,16.35,16.35,0,0,1,33.07,16.72"/><path class="cls-1" d="M33.07,16.72A16.35,16.35,0,1,1,16.72.38,16.35,16.35,0,0,1,33.07,16.72Z"/><path class="cls-4" d="M17.81,13.62a1.64,1.64,0,0,0-1.94.37,1.61,1.61,0,0,0-.09,1.95,1.67,1.67,0,0,0,2,.43,1.89,1.89,0,0,1-2.24.34,2,2,0,0,1-.52-3,1.92,1.92,0,0,1,2.75-.13"/><circle class="cls-1" cx="10.86" cy="21.59" r="2.48"/><path class="cls-1" d="M26.83,21.59a2.48,2.48,0,1,0-2.48,2.48A2.48,2.48,0,0,0,26.83,21.59Z"/><path class="cls-1" d="M19.83,15A3.87,3.87,0,1,0,16,18.9,3.88,3.88,0,0,0,19.83,15Z"/><line class="cls-1" x1="10.61" y1="12.12" x2="13.34" y2="12.12"/><line class="cls-1" x1="7.51" y1="14.82" x2="12.09" y2="14.82"/><line class="cls-1" x1="9.68" y1="17.56" x2="13.02" y2="17.56"/><path class="cls-1" d="M14.29,9H11.94l.25-1.79A.24.24,0,0,1,12.43,7h1.3a.24.24,0,0,1,.24.2Z"/><path class="cls-1" d="M8.3,21.59H6.63a.39.39,0,0,1-.39-.39V9.37A.39.39,0,0,1,6.63,9H19.29a2.14,2.14,0,0,1,2.14,2.14V15a.33.33,0,0,0,.33.33h5.75a1.28,1.28,0,0,1,1,.42l.79.84a1.35,1.35,0,0,1,.35.9v3.46a.67.67,0,0,1-.68.68H26.78"/><line class="cls-1" x1="21.88" y1="21.59" x2="13.2" y2="21.59"/><path class="cls-1" d="M21.31,11.53h3.11a1.53,1.53,0,0,1,1.21.6l2.5,3.32"/></g></g></svg>