<svg id="Layer_1" data-name="Layer 1" xmlns="http://www.w3.org/2000/svg" xmlns:xlink="http://www.w3.org/1999/xlink" viewBox="0 0 491.37 71.4"><defs><style>.cls-1,.cls-4,.cls-6{fill:none;}.cls-2{clip-path:url(#clip-path);}.cls-3{fill:#f0f0f0;}.cls-4,.cls-6{stroke:#272e65;stroke-miterlimit:10;}.cls-4{stroke-width:0.75px;}.cls-26,.cls-5{fill:#fff;}.cls-6{stroke-width:0.5px;}.cls-7{font-size:8px;}.cls-11,.cls-7{fill:#6d6d6d;}.cls-26,.cls-7{font-family:Calibri-Bold, Calibri;font-weight:700;}.cls-8{letter-spacing:-0.01em;}.cls-9{letter-spacing:0em;}.cls-10{letter-spacing:-0.01em;}.cls-12{letter-spacing:-0.01em;}.cls-13{letter-spacing:-0.01em;}.cls-14{letter-spacing:-0.01em;}.cls-15{letter-spacing:0.01em;}.cls-16{letter-spacing:-0.01em;}.cls-17{letter-spacing:-0.02em;}.cls-18{letter-spacing:-0.01em;}.cls-19{letter-spacing:-0.01em;}.cls-20{letter-spacing:-0.01em;}.cls-21{letter-spacing:-0.01em;}.cls-22{letter-spacing:-0.02em;}.cls-23{letter-spacing:-0.01em;}.cls-24{letter-spacing:-0.01em;}.cls-25{fill:#272e65;}.cls-26{font-size:9.57px;}</style><clipPath id="clip-path" transform="translate(-25.92 -25.67)"><rect class="cls-1" width="543.22" height="122.62"/></clipPath></defs><title>career-process</title><g class="cls-2"><path class="cls-3" d="M71.11,93.68H38.05a8.76,8.76,0,0,1-8.74-8.74V51.88a8.77,8.77,0,0,1,8.74-8.74H71.11a8.77,8.77,0,0,1,8.74,8.74V84.94a8.76,8.76,0,0,1-8.74,8.74" transform="translate(-25.92 -25.67)"/><path class="cls-3" d="M132.9,93.68H99.84a8.76,8.76,0,0,1-8.74-8.74V51.88a8.77,8.77,0,0,1,8.74-8.74H132.9a8.77,8.77,0,0,1,8.74,8.74V84.94a8.76,8.76,0,0,1-8.74,8.74" transform="translate(-25.92 -25.67)"/><path class="cls-3" d="M195,93.68H161.94a8.76,8.76,0,0,1-8.74-8.74V51.88a8.77,8.77,0,0,1,8.74-8.74H195a8.77,8.77,0,0,1,8.74,8.74V84.94A8.77,8.77,0,0,1,195,93.68" transform="translate(-25.92 -25.67)"/><path class="cls-3" d="M257.09,93.68H224a8.76,8.76,0,0,1-8.74-8.74V51.88A8.77,8.77,0,0,1,224,43.14h33.06a8.77,8.77,0,0,1,8.74,8.74V84.94a8.76,8.76,0,0,1-8.74,8.74" transform="translate(-25.92 -25.67)"/><path class="cls-3" d="M319.19,93.68H286.13a8.76,8.76,0,0,1-8.74-8.74V51.88a8.77,8.77,0,0,1,8.74-8.74h33.06a8.77,8.77,0,0,1,8.74,8.74V84.94a8.77,8.77,0,0,1-8.74,8.74" transform="translate(-25.92 -25.67)"/><path class="cls-3" d="M443.38,93.68H410.32a8.76,8.76,0,0,1-8.74-8.74V51.88a8.77,8.77,0,0,1,8.74-8.74h33.06a8.77,8.77,0,0,1,8.74,8.74V84.94a8.77,8.77,0,0,1-8.74,8.74" transform="translate(-25.92 -25.67)"/><path class="cls-3" d="M381.28,93.68H348.22a8.76,8.76,0,0,1-8.74-8.74V51.88a8.77,8.77,0,0,1,8.74-8.74h33.06A8.77,8.77,0,0,1,390,51.88V84.94a8.76,8.76,0,0,1-8.74,8.74" transform="translate(-25.92 -25.67)"/><path class="cls-3" d="M505.47,93.68H472.41a8.77,8.77,0,0,1-8.74-8.74V51.88a8.77,8.77,0,0,1,8.74-8.74h33.06a8.77,8.77,0,0,1,8.74,8.74V84.94a8.76,8.76,0,0,1-8.74,8.74" transform="translate(-25.92 -25.67)"/><path class="cls-4" d="M90.92,67.89H82.25V84.7a12,12,0,0,1-12,12H38.3a12,12,0,0,1-12-12V52.13a12,12,0,0,1,12-12h32a12,12,0,0,1,12,12v5.39" transform="translate(-25.92 -25.67)"/><polyline class="cls-4" points="62.19 38.67 65 42.23 62.19 45.83"/><path class="cls-4" d="M88.39,78.51V84.7a12,12,0,0,0,12,12h32a12,12,0,0,0,12-12V79.3" transform="translate(-25.92 -25.67)"/><path class="cls-4" d="M153,68.94h-8.67V52.13a12,12,0,0,0-12-12h-32a12,12,0,0,0-12,12v5.39" transform="translate(-25.92 -25.67)"/><polyline class="cls-4" points="124.28 46.81 127.09 43.26 124.28 39.66"/><path class="cls-4" d="M150.49,58.31V52.13a12,12,0,0,1,12-12h31.95a12,12,0,0,1,12,12v5.39" transform="translate(-25.92 -25.67)"/><path class="cls-4" d="M215.11,67.89h-8.67V84.7a12,12,0,0,1-12,12H162.49a12,12,0,0,1-12-12V79.3" transform="translate(-25.92 -25.67)"/><polyline class="cls-4" points="186.38 38.67 189.19 42.23 186.38 45.83"/><path class="cls-4" d="M212.58,78.51V84.7a12,12,0,0,0,12,12h32a12,12,0,0,0,12-12V79.3" transform="translate(-25.92 -25.67)"/><path class="cls-4" d="M277.21,68.94h-8.67V52.13a12,12,0,0,0-12-12h-32a12,12,0,0,0-12,12v5.39" transform="translate(-25.92 -25.67)"/><polyline class="cls-4" points="248.47 46.81 251.29 43.26 248.47 39.66"/><path class="cls-4" d="M274.68,58.31V52.13a12,12,0,0,1,12-12h31.95a12,12,0,0,1,12,12v5.39" transform="translate(-25.92 -25.67)"/><path class="cls-4" d="M339.3,67.89h-8.67V84.7a12,12,0,0,1-12,12H286.68a12,12,0,0,1-12-12V79.3" transform="translate(-25.92 -25.67)"/><polyline class="cls-4" points="310.57 38.67 313.38 42.23 310.57 45.83"/><path class="cls-4" d="M336.77,58.31V52.13a12,12,0,0,1,12-12h32a12,12,0,0,1,12,12v5.39" transform="translate(-25.92 -25.67)"/><path class="cls-4" d="M401.4,67.89h-8.67V84.7a12,12,0,0,1-12,12h-32a12,12,0,0,1-12-12V79.3" transform="translate(-25.92 -25.67)"/><polyline class="cls-4" points="372.66 38.67 375.48 42.23 372.66 45.83"/><path class="cls-4" d="M398.87,78.51V84.7a12,12,0,0,0,12,12h31.95a12,12,0,0,0,12-12V79.3" transform="translate(-25.92 -25.67)"/><path class="cls-4" d="M463.49,68.94h-8.67V52.13a12,12,0,0,0-12-12H410.87a12,12,0,0,0-12,12v5.39" transform="translate(-25.92 -25.67)"/><polyline class="cls-4" points="434.76 46.81 437.57 43.26 434.76 39.66"/><path class="cls-4" d="M461,78.51V84.7a12,12,0,0,0,12,12h32a12,12,0,0,0,12-12V52.13a12,12,0,0,0-12-12H473a12,12,0,0,0-12,12v5.39" transform="translate(-25.92 -25.67)"/><path class="cls-5" d="M64.79,36.24A10.32,10.32,0,1,1,54.47,25.92,10.32,10.32,0,0,1,64.79,36.24" transform="translate(-25.92 -25.67)"/><path class="cls-6" d="M64.79,36.24A10.32,10.32,0,1,1,54.47,25.92,10.32,10.32,0,0,1,64.79,36.24Z" transform="translate(-25.92 -25.67)"/><path class="cls-5" d="M126.69,36.33A10.32,10.32,0,1,1,116.37,26a10.31,10.31,0,0,1,10.32,10.32" transform="translate(-25.92 -25.67)"/><path class="cls-6" d="M126.69,36.33A10.32,10.32,0,1,1,116.37,26,10.31,10.31,0,0,1,126.69,36.33Z" transform="translate(-25.92 -25.67)"/><path class="cls-5" d="M188.78,36.33A10.32,10.32,0,1,1,178.47,26a10.31,10.31,0,0,1,10.31,10.32" transform="translate(-25.92 -25.67)"/><path class="cls-6" d="M188.78,36.33A10.32,10.32,0,1,1,178.47,26,10.31,10.31,0,0,1,188.78,36.33Z" transform="translate(-25.92 -25.67)"/><path class="cls-5" d="M252,36.33A10.32,10.32,0,1,1,241.7,26,10.3,10.3,0,0,1,252,36.33" transform="translate(-25.92 -25.67)"/><path class="cls-6" d="M252,36.33A10.32,10.32,0,1,1,241.7,26,10.3,10.3,0,0,1,252,36.33Z" transform="translate(-25.92 -25.67)"/><path class="cls-5" d="M314.62,36.33A10.32,10.32,0,1,1,304.3,26a10.31,10.31,0,0,1,10.32,10.32" transform="translate(-25.92 -25.67)"/><path class="cls-6" d="M314.62,36.33A10.32,10.32,0,1,1,304.3,26,10.31,10.31,0,0,1,314.62,36.33Z" transform="translate(-25.92 -25.67)"/><path class="cls-5" d="M376.54,36.33A10.32,10.32,0,1,1,366.22,26a10.31,10.31,0,0,1,10.32,10.32" transform="translate(-25.92 -25.67)"/><path class="cls-6" d="M376.54,36.33A10.32,10.32,0,1,1,366.22,26,10.31,10.31,0,0,1,376.54,36.33Z" transform="translate(-25.92 -25.67)"/><path class="cls-5" d="M438.85,36.33A10.32,10.32,0,1,1,428.53,26a10.31,10.31,0,0,1,10.32,10.32" transform="translate(-25.92 -25.67)"/><path class="cls-6" d="M438.85,36.33A10.32,10.32,0,1,1,428.53,26,10.31,10.31,0,0,1,438.85,36.33Z" transform="translate(-25.92 -25.67)"/><path class="cls-5" d="M500.87,36.33A10.32,10.32,0,1,1,490.55,26a10.31,10.31,0,0,1,10.32,10.32" transform="translate(-25.92 -25.67)"/><path class="cls-6" d="M500.87,36.33A10.32,10.32,0,1,1,490.55,26,10.31,10.31,0,0,1,500.87,36.33Z" transform="translate(-25.92 -25.67)"/></g><text class="cls-7" transform="translate(9.14 41.08)"><tspan class="cls-8">R</tspan><tspan class="cls-9" x="4.39" y="0">e</tspan><tspan x="8.39" y="0">vi</tspan><tspan class="cls-10" x="14.14" y="0">e</tspan><tspan x="18.12" y="0">w and</tspan></text><path class="cls-11" d="M38.93,73.24a1.57,1.57,0,0,1-.15.7,1.53,1.53,0,0,1-.41.5,1.73,1.73,0,0,1-.59.3,2.78,2.78,0,0,1-1.21.06l-.4-.1-.29-.13a.82.82,0,0,1-.16-.12.21.21,0,0,1-.07-.14,1,1,0,0,1,0-.28c0-.08,0-.15,0-.2s0-.1,0-.14a.43.43,0,0,1,0-.07l.07,0a.35.35,0,0,1,.16.06,1.37,1.37,0,0,0,.25.15,2.35,2.35,0,0,0,.38.14,1.85,1.85,0,0,0,.5.06,1.11,1.11,0,0,0,.33,0,.71.71,0,0,0,.26-.13.5.5,0,0,0,.15-.2.6.6,0,0,0,.06-.27.53.53,0,0,0-.09-.3,1,1,0,0,0-.25-.21,1.56,1.56,0,0,0-.34-.18l-.4-.18a3.72,3.72,0,0,1-.39-.21,1.58,1.58,0,0,1-.34-.29,1.53,1.53,0,0,1-.25-.39,1.45,1.45,0,0,1-.09-.54,1.41,1.41,0,0,1,.14-.64,1.27,1.27,0,0,1,.36-.46,1.52,1.52,0,0,1,.54-.27,2.29,2.29,0,0,1,.66-.09,2.19,2.19,0,0,1,.36,0,1.76,1.76,0,0,1,.33.07,1.49,1.49,0,0,1,.28.11.69.69,0,0,1,.16.09l.05.07a.14.14,0,0,1,0,.07.36.36,0,0,1,0,.11v.37s0,.09,0,.13a.43.43,0,0,1,0,.07l-.07,0a.47.47,0,0,1-.14,0l-.23-.12-.31-.12a1.68,1.68,0,0,0-.4,0,.85.85,0,0,0-.29,0,1,1,0,0,0-.21.11.46.46,0,0,0-.13.18.71.71,0,0,0,0,.21.43.43,0,0,0,.1.29.85.85,0,0,0,.24.22,1.64,1.64,0,0,0,.35.18l.4.18a3.84,3.84,0,0,1,.4.21,1.93,1.93,0,0,1,.35.29,1.28,1.28,0,0,1,.24.39A1.39,1.39,0,0,1,38.93,73.24Zm4,1.38a.14.14,0,0,1,0,.07l-.08,0-.15,0h-.48l-.15,0s-.06,0-.07,0a.09.09,0,0,1,0-.07v-2a2.1,2.1,0,0,0,0-.4,1.08,1.08,0,0,0-.11-.24.58.58,0,0,0-.18-.17.71.71,0,0,0-.26,0,.6.6,0,0,0-.38.14,2.06,2.06,0,0,0-.4.39v2.32a.14.14,0,0,1,0,.07l-.08,0-.15,0h-.48l-.15,0s-.07,0-.08,0a.09.09,0,0,1,0-.07V69.48a.11.11,0,0,1,0-.07.12.12,0,0,1,.08,0,.57.57,0,0,1,.15,0h.48a.57.57,0,0,1,.15,0l.08,0a.19.19,0,0,1,0,.07v1.93a1.73,1.73,0,0,1,.52-.37,1.17,1.17,0,0,1,.55-.13,1.4,1.4,0,0,1,.6.12,1,1,0,0,1,.39.32,1.45,1.45,0,0,1,.22.47,3.23,3.23,0,0,1,.06.66Zm4.49-1.78a2.67,2.67,0,0,1-.11.82,1.79,1.79,0,0,1-.36.63,1.73,1.73,0,0,1-.6.41,2.38,2.38,0,0,1-.84.14,2.13,2.13,0,0,1-.8-.13,1.41,1.41,0,0,1-.57-.37,1.46,1.46,0,0,1-.34-.61,2.91,2.91,0,0,1-.11-.82,2.6,2.6,0,0,1,.12-.81,1.63,1.63,0,0,1,.36-.63,1.46,1.46,0,0,1,.59-.41,2.17,2.17,0,0,1,.84-.15,2.46,2.46,0,0,1,.81.13,1.41,1.41,0,0,1,.57.37,1.57,1.57,0,0,1,.33.61A2.58,2.58,0,0,1,47.47,72.84Zm-1,0a2.29,2.29,0,0,0,0-.47,1.07,1.07,0,0,0-.14-.38.63.63,0,0,0-.26-.25.83.83,0,0,0-.41-.09.92.92,0,0,0-.38.08A.67.67,0,0,0,45,72a1.32,1.32,0,0,0-.16.38,2.38,2.38,0,0,0,0,.49,3.3,3.3,0,0,0,0,.47,1.31,1.31,0,0,0,.14.38.69.69,0,0,0,.26.25.86.86,0,0,0,.41.09A.93.93,0,0,0,46,74a.69.69,0,0,0,.27-.24,1,1,0,0,0,.15-.36A1.93,1.93,0,0,0,46.46,72.88Zm4-1.42v.23a1.06,1.06,0,0,1,0,.14s0,.06,0,.07l-.06,0h-.07l-.09,0-.11,0-.13,0a.47.47,0,0,0-.16,0,.5.5,0,0,0-.17.1,1.69,1.69,0,0,0-.19.19,2.84,2.84,0,0,0-.2.29v2.17a.14.14,0,0,1,0,.07l-.08,0-.15,0h-.48l-.15,0s-.07,0-.08,0a.09.09,0,0,1,0-.07V71.14a.14.14,0,0,1,0-.07.18.18,0,0,1,.07,0l.14,0h.4L49,71a.1.1,0,0,1,.06,0,.08.08,0,0,1,0,.07v.43a3.51,3.51,0,0,1,.26-.32,1.31,1.31,0,0,1,.23-.2.9.9,0,0,1,.22-.11.83.83,0,0,1,.22,0h.11l.12,0,.11,0,.07,0,0,0s0,0,0,.06,0,.07,0,.13Zm2.67,2.82a1.61,1.61,0,0,1,0,.26.53.53,0,0,1-.06.13l-.1.07-.16.05-.2,0H52.4a1.53,1.53,0,0,1-.51-.07.86.86,0,0,1-.35-.23.82.82,0,0,1-.21-.39,1.86,1.86,0,0,1-.07-.56V71.8h-.42s-.08,0-.11-.09a1.05,1.05,0,0,1,0-.31c0-.07,0-.14,0-.19a1,1,0,0,1,0-.12.18.18,0,0,1,.05-.07l.07,0h.41v-.77a.14.14,0,0,1,0-.07.17.17,0,0,1,.08-.06l.15,0H52l.15,0a.17.17,0,0,1,.08.06.08.08,0,0,1,0,.07V71H53l.07,0,0,.07a1,1,0,0,1,0,.12c0,.05,0,.12,0,.19a1.05,1.05,0,0,1,0,.31.14.14,0,0,1-.12.09h-.76v1.64a.77.77,0,0,0,.09.42.35.35,0,0,0,.32.15l.14,0,.12,0,.08,0h.1a.09.09,0,0,1,0,.06.89.89,0,0,0,0,.11S53.16,74.2,53.16,74.28Zm1.69.34a.08.08,0,0,1,0,.07s0,0-.08,0l-.15,0h-.48l-.15,0-.08,0a.14.14,0,0,1,0-.07V69.48a.19.19,0,0,1,0-.07l.08,0a.57.57,0,0,1,.15,0h.48a.57.57,0,0,1,.15,0,.12.12,0,0,1,.08,0,.1.1,0,0,1,0,.07Zm2-4.66a.57.57,0,0,1-.12.41,1,1,0,0,1-.9,0,.5.5,0,0,1-.12-.39.59.59,0,0,1,.12-.42,1,1,0,0,1,.9,0A.53.53,0,0,1,56.9,70Zm-.08,4.66a.08.08,0,0,1,0,.07l-.08,0-.15,0h-.48l-.15,0-.08,0a.14.14,0,0,1,0-.07V71.14a.19.19,0,0,1,0-.07l.08,0,.15,0h.48l.15,0,.08,0a.1.1,0,0,1,0,.07Zm3.44-1a1.24,1.24,0,0,1-.11.52,1.07,1.07,0,0,1-.32.38,1.34,1.34,0,0,1-.48.23,2.25,2.25,0,0,1-.6.07,2.6,2.6,0,0,1-.69-.1l-.23-.09a.42.42,0,0,1-.14-.09.32.32,0,0,1-.07-.13,1.51,1.51,0,0,1,0-.26.92.92,0,0,1,0-.18.31.31,0,0,1,0-.11.09.09,0,0,1,0-.06h.06a.36.36,0,0,1,.13,0l.2.11.3.11a1.38,1.38,0,0,0,.37,0,.88.88,0,0,0,.24,0,.49.49,0,0,0,.18-.08.24.24,0,0,0,.11-.13.34.34,0,0,0,0-.18.31.31,0,0,0-.07-.2.72.72,0,0,0-.19-.14,1.69,1.69,0,0,0-.27-.12l-.31-.12L58.15,73a1.13,1.13,0,0,1-.27-.22.91.91,0,0,1-.19-.3,1.19,1.19,0,0,1,0-.88.87.87,0,0,1,.28-.35,1.37,1.37,0,0,1,.45-.24,2.1,2.1,0,0,1,.59-.08,1.73,1.73,0,0,1,.32,0l.27,0,.22.08.12.07.05.06a.14.14,0,0,1,0,.07s0,.06,0,.1v.32s0,.08,0,.11a.07.07,0,0,1,0,0l0,0a.25.25,0,0,1-.11-.05l-.19-.08-.26-.09a1.06,1.06,0,0,0-.33,0,.8.8,0,0,0-.23,0,.34.34,0,0,0-.16.07.47.47,0,0,0-.09.12.42.42,0,0,0,0,.15.28.28,0,0,0,.08.2.58.58,0,0,0,.19.15l.28.11.31.12.31.15a1.05,1.05,0,0,1,.48.51A1.32,1.32,0,0,1,60.26,73.64Zm4-2.64a.3.3,0,0,1,.22.07.28.28,0,0,1,.07.21v3.34a.14.14,0,0,1,0,.07l-.08,0-.15,0h-.48l-.15,0-.08,0a.14.14,0,0,1,0-.07V71.8H62v1.64a.77.77,0,0,0,.09.42.35.35,0,0,0,.32.15l.14,0,.11,0,.09,0h.1a.09.09,0,0,1,0,.06.89.89,0,0,0,0,.11s0,.1,0,.18a1.61,1.61,0,0,1,0,.26s0,.1-.06.12a.27.27,0,0,1-.1.08l-.17.05-.19,0H62.2a1.53,1.53,0,0,1-.51-.07.86.86,0,0,1-.35-.23.82.82,0,0,1-.21-.39,1.86,1.86,0,0,1-.07-.56V71.8h-.42s-.08,0-.11-.09a.8.8,0,0,1,0-.31,1.09,1.09,0,0,1,0-.19,1,1,0,0,1,0-.12.18.18,0,0,1,0-.07l.07,0h.41v-.77a.14.14,0,0,1,0-.07.17.17,0,0,1,.08-.06l.15,0h.48l.15,0a.17.17,0,0,1,.08.06.14.14,0,0,1,0,.07V71Zm.37-1a.57.57,0,0,1-.12.41,1,1,0,0,1-.9,0,.5.5,0,0,1-.12-.39.59.59,0,0,1,.12-.42,1,1,0,0,1,.9,0A.53.53,0,0,1,64.67,70Zm4.23,4.66a.14.14,0,0,1,0,.07l-.08,0-.15,0h-.48l-.15,0-.08,0a.14.14,0,0,1,0-.07v-2a1.45,1.45,0,0,0,0-.4.75.75,0,0,0-.1-.24.58.58,0,0,0-.18-.17.75.75,0,0,0-.26,0,.58.58,0,0,0-.38.14,2.06,2.06,0,0,0-.4.39v2.32a.09.09,0,0,1,0,.07s0,0-.08,0l-.15,0h-.47l-.15,0s-.07,0-.08,0a.09.09,0,0,1,0-.07V71.14a.14.14,0,0,1,0-.07.18.18,0,0,1,.07,0l.13,0h.41l.13,0a.1.1,0,0,1,.06,0,.08.08,0,0,1,0,.07v.4a2.21,2.21,0,0,1,.59-.47,1.27,1.27,0,0,1,.62-.16,1.34,1.34,0,0,1,.6.12,1,1,0,0,1,.4.32,1.36,1.36,0,0,1,.22.47,3,3,0,0,1,.06.65ZM73,71.38a.69.69,0,0,1,0,.28.14.14,0,0,1-.11.08h-.41a.53.53,0,0,1,.12.22.69.69,0,0,1,0,.25,1.33,1.33,0,0,1-.1.54,1.14,1.14,0,0,1-.29.4,1.34,1.34,0,0,1-.46.24,1.83,1.83,0,0,1-.59.09,1.07,1.07,0,0,1-.32,0,.6.6,0,0,1-.24-.09.36.36,0,0,0-.08.12.29.29,0,0,0,0,.16.21.21,0,0,0,.1.18.47.47,0,0,0,.28.08l.85,0a2.09,2.09,0,0,1,.53.09,1.2,1.2,0,0,1,.39.2,1,1,0,0,1,.24.31,1,1,0,0,1,.08.42,1,1,0,0,1-.11.49,1.27,1.27,0,0,1-.34.4,1.67,1.67,0,0,1-.57.26,2.73,2.73,0,0,1-.8.1,3.39,3.39,0,0,1-.76-.07,1.51,1.51,0,0,1-.51-.2.75.75,0,0,1-.39-.68.67.67,0,0,1,0-.24.92.92,0,0,1,.09-.23,1.56,1.56,0,0,1,.16-.2,1.37,1.37,0,0,1,.22-.19.67.67,0,0,1-.26-.24.69.69,0,0,1-.09-.34.82.82,0,0,1,.1-.42A1.27,1.27,0,0,1,70,73a.93.93,0,0,1-.21-.33,1.14,1.14,0,0,1-.09-.48,1.33,1.33,0,0,1,.11-.54,1.12,1.12,0,0,1,.3-.41,1.21,1.21,0,0,1,.46-.25,1.76,1.76,0,0,1,.58-.09l.32,0,.28,0h1.1s.08,0,.11.09A.68.68,0,0,1,73,71.38ZM72,75a.33.33,0,0,0-.14-.27.82.82,0,0,0-.39-.1l-.7,0a.78.78,0,0,0-.16.15.64.64,0,0,0-.1.13.61.61,0,0,0,0,.12s0,.08,0,.12a.33.33,0,0,0,.2.3,1.37,1.37,0,0,0,.56.1,1.32,1.32,0,0,0,.37-.05.83.83,0,0,0,.25-.12.48.48,0,0,0,.13-.16A.45.45,0,0,0,72,75Zm-.23-2.78a.58.58,0,0,0-.16-.44.6.6,0,0,0-.44-.15.49.49,0,0,0-.25,0,.35.35,0,0,0-.18.13.49.49,0,0,0-.11.2.59.59,0,0,0,0,.23.61.61,0,0,0,.16.42.59.59,0,0,0,.43.15.53.53,0,0,0,.26-.05.57.57,0,0,0,.18-.12.52.52,0,0,0,.11-.19A.62.62,0,0,0,71.75,72.2Z" transform="translate(-25.92 -25.67)"/><path class="cls-11" d="M98.15,66.61a.14.14,0,0,1,0,.07.19.19,0,0,1-.09,0,.33.33,0,0,1-.15,0l-.25,0-.25,0a.35.35,0,0,1-.16,0,.12.12,0,0,1-.08,0,.09.09,0,0,1,0-.07V61.84a.09.09,0,0,1,0-.07.12.12,0,0,1,.08-.05.38.38,0,0,1,.16,0l.25,0,.25,0a.33.33,0,0,1,.15,0,.19.19,0,0,1,.09.05.14.14,0,0,1,0,.07Zm4.38,0a.09.09,0,0,1,0,.07s0,0-.07,0l-.16,0h-.47l-.15,0-.08,0a.08.08,0,0,1,0-.07v-2a2,2,0,0,0,0-.4.76.76,0,0,0-.11-.24.58.58,0,0,0-.18-.17.67.67,0,0,0-.26,0,.62.62,0,0,0-.38.14,2.06,2.06,0,0,0-.4.39v2.32a.08.08,0,0,1,0,.07l-.08,0-.15,0h-.48l-.15,0-.08,0a.14.14,0,0,1,0-.07V63.14a.14.14,0,0,1,0-.07.1.1,0,0,1,.07,0l.13,0h.41l.12,0a.13.13,0,0,1,.07,0,.14.14,0,0,1,0,.07v.4a2.07,2.07,0,0,1,.59-.47,1.25,1.25,0,0,1,.62-.16,1.34,1.34,0,0,1,.6.12,1,1,0,0,1,.39.32,1.2,1.2,0,0,1,.22.47,2.93,2.93,0,0,1,.07.65Zm3-4.81c0,.07,0,.13,0,.18a.87.87,0,0,1,0,.1l0,.06h-.1l-.09,0-.11,0-.16,0a.34.34,0,0,0-.18,0,.31.31,0,0,0-.13.1.69.69,0,0,0-.07.19,1.19,1.19,0,0,0,0,.28V63h.63l.07,0,.05.07,0,.12s0,.12,0,.19a1.05,1.05,0,0,1,0,.31.14.14,0,0,1-.12.09h-.63v2.82a.09.09,0,0,1,0,.07s0,0-.07,0l-.16,0h-.47l-.15,0s-.07,0-.08,0a.08.08,0,0,1,0-.07V63.8h-.44a.11.11,0,0,1-.11-.09.8.8,0,0,1,0-.31,1.09,1.09,0,0,1,0-.19,1,1,0,0,1,0-.12.16.16,0,0,1,0-.07l.07,0h.44v-.29a2.3,2.3,0,0,1,.07-.62,1.06,1.06,0,0,1,.22-.45.94.94,0,0,1,.38-.27,1.55,1.55,0,0,1,.55-.09,1.36,1.36,0,0,1,.29,0l.21,0a.27.27,0,0,1,.11.06.16.16,0,0,1,0,.07.5.5,0,0,1,0,.13C105.54,61.67,105.55,61.73,105.55,61.81Zm3.83,3a2.66,2.66,0,0,1-.12.82,1.77,1.77,0,0,1-.35.63,1.73,1.73,0,0,1-.6.41,2.38,2.38,0,0,1-.84.14,2.22,2.22,0,0,1-.81-.13,1.41,1.41,0,0,1-.57-.37,1.72,1.72,0,0,1-.34-.61,2.91,2.91,0,0,1-.11-.82,2.6,2.6,0,0,1,.12-.81,1.63,1.63,0,0,1,.36-.63,1.5,1.5,0,0,1,.6-.41,2.12,2.12,0,0,1,.83-.15,2.47,2.47,0,0,1,.82.13,1.41,1.41,0,0,1,.57.37,1.57,1.57,0,0,1,.33.61A2.91,2.91,0,0,1,109.38,64.84Zm-1,0a3.3,3.3,0,0,0,0-.47,1.31,1.31,0,0,0-.14-.38.69.69,0,0,0-.26-.25.86.86,0,0,0-.41-.09.89.89,0,0,0-.38.08.67.67,0,0,0-.27.23,1.09,1.09,0,0,0-.16.38,1.85,1.85,0,0,0,0,.49,2.29,2.29,0,0,0,0,.47,1.07,1.07,0,0,0,.14.38.63.63,0,0,0,.26.25.82.82,0,0,0,.4.09.93.93,0,0,0,.39-.08.69.69,0,0,0,.27-.24,1.19,1.19,0,0,0,.16-.36A2.49,2.49,0,0,0,108.37,64.88Zm4-1.42a1.55,1.55,0,0,1,0,.23c0,.06,0,.11,0,.14a.21.21,0,0,1,0,.07l-.07,0h-.07l-.09,0-.1,0-.13,0a.53.53,0,0,0-.17,0,.62.62,0,0,0-.17.1,1.11,1.11,0,0,0-.18.19l-.21.29v2.17a.08.08,0,0,1,0,.07l-.08,0-.15,0h-.48l-.15,0-.08,0a.14.14,0,0,1,0-.07V63.14a.14.14,0,0,1,0-.07.13.13,0,0,1,.07,0l.13,0h.41l.13,0a.1.1,0,0,1,.06,0,.14.14,0,0,1,0,.07v.43a2.37,2.37,0,0,1,.26-.32,1,1,0,0,1,.23-.2.65.65,0,0,1,.22-.11.78.78,0,0,1,.22,0h.1l.13,0,.1,0s.06,0,.07,0,0,0,0,0a.14.14,0,0,1,0,.06.45.45,0,0,1,0,.13A1.35,1.35,0,0,1,112.4,63.46Zm6.14,3.16a.14.14,0,0,1,0,.07l-.08,0-.15,0h-.48l-.15,0-.08,0a.14.14,0,0,1,0-.07V64.55a1.66,1.66,0,0,0,0-.32.75.75,0,0,0-.1-.24.69.69,0,0,0-.17-.17.66.66,0,0,0-.25,0,.55.55,0,0,0-.36.14,2.38,2.38,0,0,0-.39.39v2.32a.14.14,0,0,1,0,.07l-.08,0-.15,0h-.48l-.15,0-.08,0a.14.14,0,0,1,0-.07V64.55a1.66,1.66,0,0,0,0-.32.75.75,0,0,0-.1-.24.55.55,0,0,0-.17-.17.66.66,0,0,0-.25,0,.55.55,0,0,0-.36.14,2.38,2.38,0,0,0-.39.39v2.32a.08.08,0,0,1,0,.07l-.08,0-.15,0h-.48l-.15,0-.08,0a.14.14,0,0,1,0-.07V63.14a.14.14,0,0,1,0-.07.13.13,0,0,1,.07,0l.13,0h.41l.13,0a.1.1,0,0,1,.06,0,.14.14,0,0,1,0,.07v.4a2,2,0,0,1,.58-.47,1.16,1.16,0,0,1,.59-.16,1.48,1.48,0,0,1,.39.05,1,1,0,0,1,.31.13.74.74,0,0,1,.23.2.87.87,0,0,1,.16.26,4,4,0,0,1,.31-.29,1.74,1.74,0,0,1,.3-.2A1.15,1.15,0,0,1,117,63a1.54,1.54,0,0,1,.3,0,1.32,1.32,0,0,1,.59.12,1.07,1.07,0,0,1,.38.32,1.19,1.19,0,0,1,.21.47,2.62,2.62,0,0,1,.06.57Zm3.93,0a.1.1,0,0,1,0,.09.24.24,0,0,1-.12,0l-.25,0-.25,0a.24.24,0,0,1-.12,0,.12.12,0,0,1,0-.09v-.28a1.41,1.41,0,0,1-.49.36,1.36,1.36,0,0,1-.61.13,1.61,1.61,0,0,1-.51-.07,1.17,1.17,0,0,1-.4-.21,1,1,0,0,1-.27-.36,1.22,1.22,0,0,1-.09-.49,1.12,1.12,0,0,1,.12-.53,1,1,0,0,1,.35-.37,1.86,1.86,0,0,1,.59-.22,4.92,4.92,0,0,1,.82-.07h.34v-.21a.88.88,0,0,0,0-.29.36.36,0,0,0-.11-.2.34.34,0,0,0-.2-.12.93.93,0,0,0-.31,0,1.9,1.9,0,0,0-.44.05l-.34.12-.25.13a.47.47,0,0,1-.16.05.11.11,0,0,1-.08,0l-.06-.07,0-.13a.81.81,0,0,1,0-.16,1,1,0,0,1,0-.2.37.37,0,0,1,.07-.12.76.76,0,0,1,.2-.13,1.66,1.66,0,0,1,.32-.12,2.12,2.12,0,0,1,.4-.1,3.13,3.13,0,0,1,.44,0,2.75,2.75,0,0,1,.7.08,1.21,1.21,0,0,1,.48.25.92.92,0,0,1,.28.43,2.22,2.22,0,0,1,.08.62Zm-1-1.49h-.38a2.25,2.25,0,0,0-.4,0,.82.82,0,0,0-.28.11.4.4,0,0,0-.15.17.56.56,0,0,0,0,.23.44.44,0,0,0,.14.34.52.52,0,0,0,.38.13.7.7,0,0,0,.38-.11,1.42,1.42,0,0,0,.36-.31ZM126.79,63a.32.32,0,0,1,.22.07.28.28,0,0,1,.07.21v3.34a.09.09,0,0,1,0,.07s0,0-.07,0l-.15,0h-.48l-.15,0-.08,0a.14.14,0,0,1,0-.07V63.8h-1.57v1.64a.77.77,0,0,0,.09.42.35.35,0,0,0,.32.15l.14,0,.11,0,.09,0h.1a.09.09,0,0,1,0,.06.53.53,0,0,1,0,.11s0,.1,0,.18a1.61,1.61,0,0,1,0,.26.44.44,0,0,1-.06.12.27.27,0,0,1-.1.08l-.17.05-.2,0h-.21a1.53,1.53,0,0,1-.51-.07,1,1,0,0,1-.36-.23.9.9,0,0,1-.2-.39,1.86,1.86,0,0,1-.07-.56V63.8h-.42s-.08,0-.11-.09a.8.8,0,0,1,0-.31,1.09,1.09,0,0,1,0-.19l0-.12a.18.18,0,0,1,0-.07l.07,0h.41v-.77a.14.14,0,0,1,0-.07.17.17,0,0,1,.08-.06l.15,0h.48l.15,0a.17.17,0,0,1,.08.06.14.14,0,0,1,0,.07V63Zm.37-1a.57.57,0,0,1-.12.41.74.74,0,0,1-.45.11.68.68,0,0,1-.45-.11A.5.5,0,0,1,126,62a.59.59,0,0,1,.12-.42,1,1,0,0,1,.9,0A.53.53,0,0,1,127.16,62Zm4.43,2.88a2.66,2.66,0,0,1-.12.82,1.79,1.79,0,0,1-.36.63,1.69,1.69,0,0,1-.59.41,2.38,2.38,0,0,1-.84.14,2.22,2.22,0,0,1-.81-.13,1.41,1.41,0,0,1-.57-.37,1.58,1.58,0,0,1-.34-.61,2.91,2.91,0,0,1-.11-.82,2.6,2.6,0,0,1,.12-.81,1.63,1.63,0,0,1,.36-.63,1.53,1.53,0,0,1,.59-.41,2.17,2.17,0,0,1,.84-.15,2.41,2.41,0,0,1,.81.13,1.41,1.41,0,0,1,.57.37,1.72,1.72,0,0,1,.34.61A2.91,2.91,0,0,1,131.59,64.84Zm-1,0a2.29,2.29,0,0,0,0-.47.91.91,0,0,0-.14-.38.63.63,0,0,0-.26-.25.79.79,0,0,0-.4-.09.93.93,0,0,0-.39.08.67.67,0,0,0-.27.23,1.08,1.08,0,0,0-.15.38,1.83,1.83,0,0,0-.06.49,2.26,2.26,0,0,0,0,.47,1.07,1.07,0,0,0,.14.38.67.67,0,0,0,.25.25.86.86,0,0,0,.41.09.93.93,0,0,0,.39-.08.69.69,0,0,0,.27-.24,1,1,0,0,0,.15-.36A1.93,1.93,0,0,0,130.57,64.88Zm5.12,1.74a.08.08,0,0,1,0,.07s0,0-.08,0l-.15,0H135l-.15,0s-.07,0-.08,0a.09.09,0,0,1,0-.07v-2a2.1,2.1,0,0,0,0-.4.76.76,0,0,0-.11-.24.58.58,0,0,0-.18-.17.71.71,0,0,0-.26,0,.6.6,0,0,0-.38.14,2.06,2.06,0,0,0-.4.39v2.32a.14.14,0,0,1,0,.07l-.08,0-.15,0h-.48l-.15,0-.08,0a.08.08,0,0,1,0-.07V63.14a.08.08,0,0,1,0-.07.1.1,0,0,1,.07,0l.13,0H133l.12,0a.18.18,0,0,1,.07,0,.14.14,0,0,1,0,.07v.4a2.18,2.18,0,0,1,.58-.47,1.28,1.28,0,0,1,.63-.16,1.4,1.4,0,0,1,.6.12,1,1,0,0,1,.39.32,1.36,1.36,0,0,1,.22.47,3,3,0,0,1,.06.65Z" transform="translate(-25.92 -25.67)"/><text class="cls-7" transform="translate(73.97 49.08)">G<tspan class="cls-12" x="5.1" y="0">a</tspan><tspan x="8.98" y="0">thering</tspan></text><path class="cls-11" d="M170.55,58.61a.14.14,0,0,1,0,.07.19.19,0,0,1-.09,0,.33.33,0,0,1-.15,0l-.25,0-.25,0a.35.35,0,0,1-.16,0,.12.12,0,0,1-.08,0,.09.09,0,0,1,0-.07V53.84a.09.09,0,0,1,0-.07.12.12,0,0,1,.08-.05.38.38,0,0,1,.16,0l.25,0,.25,0a.33.33,0,0,1,.15,0,.19.19,0,0,1,.09.05.14.14,0,0,1,0,.07Zm4.38,0a.09.09,0,0,1,0,.07s0,0-.07.05l-.16,0h-.47l-.15,0-.08-.05a.08.08,0,0,1,0-.07v-2a2,2,0,0,0,0-.4.76.76,0,0,0-.11-.24.58.58,0,0,0-.18-.17.67.67,0,0,0-.26,0,.62.62,0,0,0-.38.14,2.06,2.06,0,0,0-.4.39v2.32a.08.08,0,0,1,0,.07l-.08.05-.15,0h-.48l-.15,0-.08-.05a.14.14,0,0,1,0-.07V55.14a.14.14,0,0,1,0-.07.1.1,0,0,1,.07,0l.13,0h.41l.12,0a.13.13,0,0,1,.07,0,.14.14,0,0,1,0,.07v.4a2.07,2.07,0,0,1,.59-.47,1.25,1.25,0,0,1,.62-.16,1.34,1.34,0,0,1,.6.12,1,1,0,0,1,.39.32,1.2,1.2,0,0,1,.22.47,2.93,2.93,0,0,1,.07.65ZM177,54a.57.57,0,0,1-.12.41.7.7,0,0,1-.45.11.65.65,0,0,1-.44-.11.5.5,0,0,1-.12-.39.59.59,0,0,1,.12-.42,1,1,0,0,1,.9,0A.58.58,0,0,1,177,54Zm-.07,4.66a.14.14,0,0,1,0,.07l-.08.05-.15,0h-.48l-.15,0s-.07,0-.08-.05a.09.09,0,0,1,0-.07V55.14a.11.11,0,0,1,0-.07l.08,0,.15,0h.48l.15,0,.08,0a.19.19,0,0,1,0,.07ZM181.26,55a.33.33,0,0,1,.23.07.28.28,0,0,1,.07.21v3.34a.09.09,0,0,1,0,.07s0,0-.07.05l-.15,0h-.48l-.15,0-.08-.05a.14.14,0,0,1,0-.07V55.8H179v1.64a.77.77,0,0,0,.09.42.35.35,0,0,0,.32.15l.14,0,.11,0,.09,0h.1a.09.09,0,0,1,0,.06.53.53,0,0,1,0,.11s0,.1,0,.18a1.61,1.61,0,0,1,0,.26.44.44,0,0,1-.06.12.27.27,0,0,1-.1.08l-.17,0-.2,0h-.21a1.53,1.53,0,0,1-.51-.07,1,1,0,0,1-.36-.23.9.9,0,0,1-.2-.39,1.86,1.86,0,0,1-.07-.56V55.8h-.42c-.05,0-.08,0-.11-.09a.8.8,0,0,1,0-.31,1.09,1.09,0,0,1,0-.19,1,1,0,0,1,0-.12.18.18,0,0,1,.05-.07l.07,0H178v-.77a.14.14,0,0,1,0-.07.17.17,0,0,1,.08-.06l.15,0h.48l.15,0a.17.17,0,0,1,.08.06.14.14,0,0,1,0,.07V55Zm.38-1a.53.53,0,0,1-.13.41,1,1,0,0,1-.89,0,.5.5,0,0,1-.12-.39.59.59,0,0,1,.12-.42,1,1,0,0,1,.9,0A.53.53,0,0,1,181.64,54Zm3.87,4.67a.1.1,0,0,1,0,.09.24.24,0,0,1-.12,0l-.25,0-.25,0a.24.24,0,0,1-.12,0,.12.12,0,0,1,0-.09v-.28a1.41,1.41,0,0,1-.49.36,1.36,1.36,0,0,1-.61.13,1.61,1.61,0,0,1-.51-.07,1.17,1.17,0,0,1-.4-.21,1,1,0,0,1-.27-.36,1.22,1.22,0,0,1-.09-.49,1.12,1.12,0,0,1,.12-.53,1,1,0,0,1,.35-.37,1.86,1.86,0,0,1,.59-.22,4.82,4.82,0,0,1,.82-.07h.34v-.21a.88.88,0,0,0,0-.29.43.43,0,0,0-.11-.2.34.34,0,0,0-.2-.12.93.93,0,0,0-.31,0,1.9,1.9,0,0,0-.44.05l-.34.12-.25.13a.47.47,0,0,1-.16,0,.11.11,0,0,1-.08,0l-.06-.07,0-.13a.81.81,0,0,1,0-.16,1,1,0,0,1,0-.2.37.37,0,0,1,.07-.12.87.87,0,0,1,.19-.13,2.38,2.38,0,0,1,.32-.12,2.46,2.46,0,0,1,.41-.1,3.13,3.13,0,0,1,.44,0,2.75,2.75,0,0,1,.7.08,1.21,1.21,0,0,1,.48.25.92.92,0,0,1,.28.43,2.22,2.22,0,0,1,.08.62Zm-1-1.49h-.38a2.25,2.25,0,0,0-.4,0,.82.82,0,0,0-.28.11.4.4,0,0,0-.15.17.43.43,0,0,0-.05.23.41.41,0,0,0,.14.34.52.52,0,0,0,.38.13.7.7,0,0,0,.38-.11,1.42,1.42,0,0,0,.36-.31Zm2.93,1.48a.14.14,0,0,1,0,.07l-.08.05-.15,0h-.48l-.15,0s-.07,0-.08-.05a.09.09,0,0,1,0-.07V53.48a.11.11,0,0,1,0-.07.12.12,0,0,1,.08,0,.57.57,0,0,1,.15,0h.48a.57.57,0,0,1,.15,0l.08,0a.19.19,0,0,1,0,.07Z" transform="translate(-25.92 -25.67)"/><text class="cls-7" transform="translate(132.96 41.08)">Assessme<tspan class="cls-13" x="32.18" y="0">n</tspan><tspan x="36.4" y="0">t</tspan></text><text class="cls-7" transform="translate(140.6 49.08)">and HR</text><text class="cls-7" transform="translate(135.14 57.08)">I<tspan class="cls-12" x="2.13" y="0">n</tspan><tspan class="cls-14" x="6.35" y="0">t</tspan><tspan x="9.03" y="0">e</tspan><tspan class="cls-15" x="13.06" y="0">r</tspan><tspan x="15.97" y="0">vi</tspan><tspan class="cls-10" x="21.72" y="0">e</tspan><tspan class="cls-16" x="25.71" y="0">w</tspan><tspan x="31.62" y="0">s</tspan></text><text class="cls-7" transform="translate(195.16 37.08)">Medi<tspan class="cls-16" x="17.28" y="0">c</tspan><tspan x="20.58" y="0">al and</tspan></text><text class="cls-7" transform="translate(202.32 45.08)">P<tspan class="cls-17" x="4.26" y="0">h</tspan><tspan class="cls-16" x="8.41" y="0">y</tspan><tspan x="12.16" y="0">si</tspan><tspan class="cls-16" x="17.31" y="0">c</tspan><tspan x="20.61" y="0">al</tspan></text><text class="cls-7" transform="translate(195.99 53.08)">Assessme<tspan class="cls-13" x="32.18" y="0">n</tspan><tspan x="36.4" y="0">t</tspan></text><text class="cls-7" transform="translate(271.49 33.08)">P<tspan class="cls-18" x="4.26" y="0">r</tspan><tspan x="7.02" y="0">e-</tspan></text><text class="cls-7" transform="translate(257.11 41.08)">Empl<tspan class="cls-16" x="16.67" y="0">o</tspan><tspan x="20.92" y="0">yme</tspan><tspan class="cls-19" x="35.25" y="0">n</tspan><tspan x="39.47" y="0">t</tspan></text><text class="cls-7" transform="translate(264.82 49.08)">Security</text><path class="cls-11" d="M289.94,82.37a1.94,1.94,0,0,1,.06.22.14.14,0,0,1,0,.13.37.37,0,0,1-.15,0h-.61l-.17,0a.19.19,0,0,1-.09,0,.59.59,0,0,1,0-.08l-.34-1h-1.89l-.32,1a.19.19,0,0,1-.05.09s0,0-.08.06l-.16,0h-.27l-.28,0a.18.18,0,0,1-.14-.05.14.14,0,0,1,0-.13,1.94,1.94,0,0,1,.06-.22L287,77.88a.28.28,0,0,1,0-.11.17.17,0,0,1,.1-.06.5.5,0,0,1,.19,0H288a.58.58,0,0,1,.21,0,.17.17,0,0,1,.11.06.67.67,0,0,1,.06.12Zm-2.32-3.71h0l-.72,2.15h1.44Zm6.48,2.17a3,3,0,0,1-.1.83,1.89,1.89,0,0,1-.29.64,1.32,1.32,0,0,1-.48.4,1.38,1.38,0,0,1-.65.14,1.2,1.2,0,0,1-.28,0,1.06,1.06,0,0,1-.25-.09,1.5,1.5,0,0,1-.23-.15l-.25-.21V84a.08.08,0,0,1,0,.07.18.18,0,0,1-.08.06l-.15,0h-.48l-.15,0-.08-.06a.14.14,0,0,1,0-.07V79.14a.14.14,0,0,1,0-.07.13.13,0,0,1,.07,0l.13,0h.4l.12,0a.1.1,0,0,1,.07,0,.08.08,0,0,1,0,.07v.41a2.56,2.56,0,0,1,.3-.28,1.74,1.74,0,0,1,.3-.2,1.34,1.34,0,0,1,.66-.16,1.3,1.3,0,0,1,.65.15,1.18,1.18,0,0,1,.44.42,1.62,1.62,0,0,1,.25.6A3.59,3.59,0,0,1,294.1,80.83Zm-1,.07a3,3,0,0,0,0-.43,1.34,1.34,0,0,0-.11-.37.74.74,0,0,0-.21-.25.52.52,0,0,0-.33-.1.68.68,0,0,0-.39.13,1.4,1.4,0,0,0-.2.17l-.23.26v1.15a2.15,2.15,0,0,0,.4.4.6.6,0,0,0,.39.15.59.59,0,0,0,.33-.1.8.8,0,0,0,.22-.26,1.2,1.2,0,0,0,.12-.35A1.87,1.87,0,0,0,293.07,80.9Zm5.32-.07a3,3,0,0,1-.1.83,1.71,1.71,0,0,1-.29.64,1.21,1.21,0,0,1-.47.4,1.39,1.39,0,0,1-.66.14,1.12,1.12,0,0,1-.27,0,1.06,1.06,0,0,1-.25-.09,1.58,1.58,0,0,1-.24-.15c-.07-.06-.16-.13-.24-.21V84a.14.14,0,0,1,0,.07.28.28,0,0,1-.08.06l-.15,0h-.48l-.15,0a.28.28,0,0,1-.08-.06.08.08,0,0,1,0-.07V79.14a.08.08,0,0,1,0-.07.1.1,0,0,1,.06,0l.13,0h.4l.13,0a.13.13,0,0,1,.07,0,.14.14,0,0,1,0,.07v.41a2.56,2.56,0,0,1,.3-.28,1.43,1.43,0,0,1,.3-.2,1.66,1.66,0,0,1,.31-.12,1.87,1.87,0,0,1,.35,0,1.33,1.33,0,0,1,.65.15,1.26,1.26,0,0,1,.44.42,2,2,0,0,1,.25.6A3.61,3.61,0,0,1,298.39,80.83Zm-1,.07a3,3,0,0,0,0-.43,1.07,1.07,0,0,0-.12-.37.64.64,0,0,0-.21-.25.47.47,0,0,0-.32-.1.69.69,0,0,0-.2,0,.7.7,0,0,0-.19.1,1,1,0,0,0-.21.17,3.28,3.28,0,0,0-.22.26v1.15a2.15,2.15,0,0,0,.4.4.6.6,0,0,0,.39.15.58.58,0,0,0,.32-.1.7.7,0,0,0,.22-.26,1.21,1.21,0,0,0,.13-.35A1.87,1.87,0,0,0,297.37,80.9Zm2.8,1.72a.09.09,0,0,1,0,.07s0,0-.08,0l-.15,0h-.47l-.15,0s-.07,0-.08,0a.09.09,0,0,1,0-.07V77.48a.11.11,0,0,1,0-.07.12.12,0,0,1,.08,0,.43.43,0,0,1,.15,0h.47a.43.43,0,0,1,.15,0,.12.12,0,0,1,.08,0,.11.11,0,0,1,0,.07Zm2-4.66a.57.57,0,0,1-.12.41,1,1,0,0,1-.9,0,.51.51,0,0,1-.11-.39.59.59,0,0,1,.12-.42.68.68,0,0,1,.45-.11.67.67,0,0,1,.44.11A.53.53,0,0,1,302.21,78Zm-.07,4.66a.09.09,0,0,1,0,.07s0,0-.08,0l-.15,0h-.48l-.15,0-.08,0a.14.14,0,0,1,0-.07V79.14a.19.19,0,0,1,0-.07l.08,0,.15,0h.48l.15,0,.08,0a.11.11,0,0,1,0,.07Zm3.62-.55c0,.06,0,.12,0,.17a.36.36,0,0,1,0,.11.19.19,0,0,1,0,.08l-.06.07a.61.61,0,0,1-.16.11l-.26.12-.31.08a2.07,2.07,0,0,1-.35,0,1.73,1.73,0,0,1-.71-.13,1.24,1.24,0,0,1-.53-.37,1.58,1.58,0,0,1-.31-.59,2.52,2.52,0,0,1-.11-.81A2.71,2.71,0,0,1,303,80a1.93,1.93,0,0,1,.36-.63A1.41,1.41,0,0,1,304,79a2,2,0,0,1,.7-.12l.31,0,.28.08.23.1a.73.73,0,0,1,.15.11.19.19,0,0,1,.06.07l0,.07s0,.07,0,.12a.81.81,0,0,1,0,.17.76.76,0,0,1,0,.31c0,.06-.06.1-.1.1a.22.22,0,0,1-.14-.06l-.18-.12a1.34,1.34,0,0,0-.24-.12.86.86,0,0,0-.34-.06.65.65,0,0,0-.58.3,1.48,1.48,0,0,0-.2.86,1.88,1.88,0,0,0,.05.5,1,1,0,0,0,.15.36.59.59,0,0,0,.25.22.91.91,0,0,0,.35.07,1,1,0,0,0,.35-.06,1.48,1.48,0,0,0,.25-.14l.19-.13a.19.19,0,0,1,.12-.06.07.07,0,0,1,.06,0,.14.14,0,0,1,0,.07s0,.08,0,.13S305.76,82,305.76,82.07Zm3.62.56a.13.13,0,0,1,0,.09.33.33,0,0,1-.13,0l-.24,0-.26,0a.23.23,0,0,1-.11,0,.1.1,0,0,1,0-.09v-.28a1.46,1.46,0,0,1-1.1.49,1.7,1.7,0,0,1-.51-.07,1.27,1.27,0,0,1-.4-.21,1,1,0,0,1-.26-.36,1.07,1.07,0,0,1-.1-.49,1.12,1.12,0,0,1,.12-.53,1,1,0,0,1,.36-.37,1.71,1.71,0,0,1,.58-.22,4.92,4.92,0,0,1,.82-.07h.34v-.21a1.29,1.29,0,0,0,0-.29.43.43,0,0,0-.11-.2.37.37,0,0,0-.21-.12.9.9,0,0,0-.31,0,2,2,0,0,0-.44,0l-.34.12-.25.13a.47.47,0,0,1-.16.05.11.11,0,0,1-.08,0,.18.18,0,0,1-.05-.07.5.5,0,0,1,0-.13s0-.1,0-.16a1,1,0,0,1,0-.2.42.42,0,0,1,.08-.12.67.67,0,0,1,.19-.13,2,2,0,0,1,.32-.12,2.12,2.12,0,0,1,.4-.1,3.14,3.14,0,0,1,.45,0,2.87,2.87,0,0,1,.7.08,1.37,1.37,0,0,1,.48.25,1,1,0,0,1,.27.43,1.89,1.89,0,0,1,.09.62Zm-1-1.49H308a2.37,2.37,0,0,0-.41,0,.84.84,0,0,0-.27.11.43.43,0,0,0-.16.17.56.56,0,0,0-.05.23.44.44,0,0,0,.14.34.53.53,0,0,0,.39.13.76.76,0,0,0,.38-.11,1.59,1.59,0,0,0,.35-.31ZM313.68,79a.33.33,0,0,1,.23.07.28.28,0,0,1,.07.21v3.34a.09.09,0,0,1,0,.07s0,0-.07,0l-.15,0h-.48l-.15,0-.08,0a.08.08,0,0,1,0-.07V79.8h-1.57v1.64a.77.77,0,0,0,.09.42.35.35,0,0,0,.32.15l.14,0,.11,0,.08,0h.11a.09.09,0,0,1,0,.06.27.27,0,0,1,0,.11.87.87,0,0,1,0,.18.94.94,0,0,1,0,.26.27.27,0,0,1-.05.12.24.24,0,0,1-.11.08l-.16.05-.2,0h-.21a1.53,1.53,0,0,1-.51-.07,1,1,0,0,1-.36-.23.9.9,0,0,1-.2-.39,1.86,1.86,0,0,1-.07-.56V79.8H310a.11.11,0,0,1-.11-.09.8.8,0,0,1,0-.31,1.09,1.09,0,0,1,0-.19,1,1,0,0,1,0-.12A.18.18,0,0,1,310,79l.07,0h.41v-.77a.14.14,0,0,1,0-.07.17.17,0,0,1,.08-.06l.15,0h.48l.15,0a.17.17,0,0,1,.08.06.14.14,0,0,1,0,.07V79Zm.38-1a.57.57,0,0,1-.13.41.69.69,0,0,1-.44.11.66.66,0,0,1-.45-.11.5.5,0,0,1-.12-.39.59.59,0,0,1,.12-.42,1,1,0,0,1,.9,0A.53.53,0,0,1,314.06,78Zm4.43,2.88a2.66,2.66,0,0,1-.12.82,1.64,1.64,0,0,1-.95,1,2.38,2.38,0,0,1-.84.14,2.22,2.22,0,0,1-.81-.13,1.41,1.41,0,0,1-.57-.37,1.58,1.58,0,0,1-.34-.61,2.91,2.91,0,0,1-.11-.82,2.6,2.6,0,0,1,.12-.81,1.63,1.63,0,0,1,.36-.63,1.46,1.46,0,0,1,.59-.41,2.17,2.17,0,0,1,.84-.15,2.46,2.46,0,0,1,.81.13,1.41,1.41,0,0,1,.57.37,1.72,1.72,0,0,1,.34.61A2.91,2.91,0,0,1,318.49,80.84Zm-1,0a2.29,2.29,0,0,0,0-.47.91.91,0,0,0-.14-.38.63.63,0,0,0-.26-.25.79.79,0,0,0-.4-.09.93.93,0,0,0-.39.08A.67.67,0,0,0,316,80a1.08,1.08,0,0,0-.15.38,1.83,1.83,0,0,0-.06.49,2.26,2.26,0,0,0,.05.47,1.07,1.07,0,0,0,.13.38.69.69,0,0,0,.26.25.86.86,0,0,0,.41.09A.93.93,0,0,0,317,82a.69.69,0,0,0,.27-.24,1,1,0,0,0,.15-.36A1.93,1.93,0,0,0,317.47,80.88Zm5.12,1.74a.08.08,0,0,1,0,.07l-.08,0-.15,0h-.47l-.15,0s-.07,0-.08,0a.09.09,0,0,1,0-.07v-2a2.1,2.1,0,0,0,0-.4.76.76,0,0,0-.11-.24.58.58,0,0,0-.18-.17.71.71,0,0,0-.26,0,.6.6,0,0,0-.38.14,2.06,2.06,0,0,0-.4.39v2.32a.14.14,0,0,1,0,.07l-.08,0-.15,0h-.48l-.15,0s-.07,0-.08,0a.08.08,0,0,1,0-.07V79.14a.08.08,0,0,1,0-.07.1.1,0,0,1,.07,0l.13,0h.4l.13,0a.18.18,0,0,1,.07,0,.14.14,0,0,1,0,.07v.4a2,2,0,0,1,.58-.47,1.28,1.28,0,0,1,.63-.16,1.4,1.4,0,0,1,.6.12,1,1,0,0,1,.39.32,1.36,1.36,0,0,1,.22.47,3,3,0,0,1,.06.65Z" transform="translate(-25.92 -25.67)"/><text class="cls-7" transform="translate(323.72 33.08)"><tspan class="cls-20">R</tspan><tspan class="cls-21" x="4.39" y="0">e</tspan><tspan class="cls-22" x="8.36" y="0">f</tspan><tspan x="10.76" y="0">e</tspan><tspan class="cls-18" x="14.79" y="0">r</tspan><tspan x="17.55" y="0">ence</tspan></text><text class="cls-7" transform="translate(323.29 41.08)">Check and</text><text class="cls-7" transform="translate(332.55 49.08)">D<tspan class="cls-23" x="5.04" y="0">at</tspan><tspan x="11.62" y="0">a</tspan></text><path class="cls-11" d="M350.3,82.57a.28.28,0,0,1-.05.11.14.14,0,0,1-.1.06.5.5,0,0,1-.19,0h-.78l-.12,0-.09,0s0,0-.05,0a.94.94,0,0,1,0-.09l-1.5-4.48a1.94,1.94,0,0,1-.06-.22.11.11,0,0,1,0-.12.3.3,0,0,1,.17-.06h.6l.16,0a.12.12,0,0,1,.08.06s0,.06,0,.1l1.23,3.89h0l1.21-3.87a.28.28,0,0,1,0-.11s0,0,.08-.07l.16,0h.29l.28,0a.14.14,0,0,1,.16.18,1.94,1.94,0,0,1-.06.22Zm5-1.79a.38.38,0,0,1-.08.26.3.3,0,0,1-.23.09h-2.12a1.25,1.25,0,0,0,.06.4.76.76,0,0,0,.16.31.67.67,0,0,0,.3.19,1.16,1.16,0,0,0,.44.07,2,2,0,0,0,.45,0,2.44,2.44,0,0,0,.34-.08l.23-.08a.41.41,0,0,1,.16,0l0,0s0,0,0,0l0,.1v.31a.45.45,0,0,0,0,.11l0,.07a.21.21,0,0,1,0,.06.83.83,0,0,1-.14.07l-.29.09a3.13,3.13,0,0,1-.4.08,3.64,3.64,0,0,1-.48,0,2.91,2.91,0,0,1-.82-.11,1.43,1.43,0,0,1-.58-.36,1.49,1.49,0,0,1-.35-.6,3,3,0,0,1,0-1.69,1.76,1.76,0,0,1,.36-.63,1.41,1.41,0,0,1,.56-.4,1.91,1.91,0,0,1,.74-.14,2.1,2.1,0,0,1,.75.13,1.38,1.38,0,0,1,.51.36,1.41,1.41,0,0,1,.29.54,2.48,2.48,0,0,1,.1.68Zm-1-.29a1.07,1.07,0,0,0-.16-.65.79.79,0,0,0-.88-.16.71.71,0,0,0-.23.19.82.82,0,0,0-.14.28,1.86,1.86,0,0,0-.06.34Zm4-1a1.55,1.55,0,0,1,0,.23.46.46,0,0,1,0,.14.21.21,0,0,1,0,.07l-.07,0h-.07l-.09,0-.1,0-.13,0a.53.53,0,0,0-.17,0,.62.62,0,0,0-.17.1,1.7,1.7,0,0,0-.18.19,2.84,2.84,0,0,0-.2.29v2.17a.09.09,0,0,1,0,.07s0,0-.08,0l-.15,0h-.48l-.15,0-.08,0a.14.14,0,0,1,0-.07V79.14a.14.14,0,0,1,0-.07.13.13,0,0,1,.07,0l.13,0h.41l.13,0a.1.1,0,0,1,.06,0,.14.14,0,0,1,0,.07v.43a2.37,2.37,0,0,1,.26-.32,1.31,1.31,0,0,1,.23-.2.65.65,0,0,1,.22-.11.78.78,0,0,1,.22,0H358l.12,0,.11,0a.09.09,0,0,1,.06,0,.08.08,0,0,1,0,0s0,0,0,.06a1.23,1.23,0,0,1,0,.13ZM360,78a.57.57,0,0,1-.12.41,1,1,0,0,1-.9,0,.51.51,0,0,1-.11-.39.59.59,0,0,1,.12-.42.7.7,0,0,1,.45-.11.67.67,0,0,1,.44.11A.53.53,0,0,1,360,78Zm-.07,4.66a.09.09,0,0,1,0,.07s0,0-.08,0l-.15,0h-.48l-.15,0-.08,0a.14.14,0,0,1,0-.07V79.14a.19.19,0,0,1,0-.07l.08,0,.15,0h.48l.15,0,.08,0a.11.11,0,0,1,0,.07Zm4.42,0a.08.08,0,0,1,0,.07l-.08,0-.15,0h-.47l-.15,0s-.07,0-.08,0a.09.09,0,0,1,0-.07V79.8h-1.29v2.82a.14.14,0,0,1,0,.07l-.08,0-.15,0h-.48l-.15,0-.08,0a.14.14,0,0,1,0-.07V79.8h-.44c-.05,0-.08,0-.11-.09a1.05,1.05,0,0,1,0-.31c0-.07,0-.14,0-.19a1,1,0,0,1,0-.12.18.18,0,0,1,.05-.07l.07,0h.43v-.31a2.35,2.35,0,0,1,.07-.62,1.21,1.21,0,0,1,.22-.44.94.94,0,0,1,.38-.27,1.69,1.69,0,0,1,.53-.08h.18l.16,0,.14,0,.08,0,0,.05a.25.25,0,0,0,0,.07s0,.07,0,.11,0,.11,0,.17a.82.82,0,0,1,0,.27.08.08,0,0,1-.08.07h-.05l-.07,0-.1,0h-.13a.34.34,0,0,0-.31.14.86.86,0,0,0-.09.46V79h2a.29.29,0,0,1,.22.07.24.24,0,0,1,.07.2ZM364.4,78a.9.9,0,0,1,0,.25.26.26,0,0,1-.09.16.27.27,0,0,1-.16.08,1.12,1.12,0,0,1-.27,0,1,1,0,0,1-.27,0,.33.33,0,0,1-.18-.08.42.42,0,0,1-.09-.16,1.69,1.69,0,0,1,0-.25,1.4,1.4,0,0,1,0-.23.35.35,0,0,1,.09-.16.28.28,0,0,1,.18-.09,1,1,0,0,1,.27,0,1.12,1.12,0,0,1,.27,0,.34.34,0,0,1,.25.25A.75.75,0,0,1,364.4,78ZM368,82.07a.91.91,0,0,1,0,.17s0,.08,0,.11l0,.08-.06.07a.61.61,0,0,1-.16.11l-.26.12-.31.08a2,2,0,0,1-.35,0,1.73,1.73,0,0,1-.71-.13,1.21,1.21,0,0,1-.52-.37,1.47,1.47,0,0,1-.32-.59,2.83,2.83,0,0,1-.11-.81,2.71,2.71,0,0,1,.13-.9,1.78,1.78,0,0,1,.37-.63,1.37,1.37,0,0,1,.55-.37,2,2,0,0,1,.7-.12l.31,0,.28.08a1.33,1.33,0,0,1,.24.1l.14.11a.19.19,0,0,1,.06.07l0,.07s0,.07,0,.12v.17a.76.76,0,0,1,0,.31c0,.06-.06.1-.1.1a.24.24,0,0,1-.14-.06l-.18-.12a.89.89,0,0,0-.24-.12.81.81,0,0,0-.33-.06.67.67,0,0,0-.59.3,1.56,1.56,0,0,0-.2.86,1.88,1.88,0,0,0,.05.5,1,1,0,0,0,.15.36.65.65,0,0,0,.25.22,1,1,0,0,0,.7,0,1.17,1.17,0,0,0,.25-.14l.19-.13a.22.22,0,0,1,.12-.06s.05,0,.06,0,0,0,0,.07,0,.08,0,.13S368,82,368,82.07Zm3.64.56a.13.13,0,0,1,0,.09.33.33,0,0,1-.13,0l-.24,0-.26,0a.23.23,0,0,1-.11,0,.1.1,0,0,1,0-.09v-.28a1.46,1.46,0,0,1-1.1.49,1.7,1.7,0,0,1-.51-.07,1.27,1.27,0,0,1-.4-.21,1,1,0,0,1-.26-.36,1.07,1.07,0,0,1-.1-.49,1.12,1.12,0,0,1,.12-.53,1,1,0,0,1,.36-.37,1.71,1.71,0,0,1,.58-.22,4.92,4.92,0,0,1,.82-.07h.34v-.21a1.29,1.29,0,0,0,0-.29.43.43,0,0,0-.11-.2.37.37,0,0,0-.2-.12,1,1,0,0,0-.32,0,2,2,0,0,0-.44,0l-.34.12-.25.13a.41.41,0,0,1-.16.05.13.13,0,0,1-.08,0,.18.18,0,0,1-.05-.07.28.28,0,0,1,0-.13.78.78,0,0,1,0-.16,1,1,0,0,1,0-.2.42.42,0,0,1,.08-.12.67.67,0,0,1,.19-.13,2,2,0,0,1,.32-.12,2.12,2.12,0,0,1,.4-.1,3.14,3.14,0,0,1,.45,0,2.87,2.87,0,0,1,.7.08,1.37,1.37,0,0,1,.48.25,1,1,0,0,1,.27.43,1.89,1.89,0,0,1,.09.62Zm-1-1.49h-.37a2.37,2.37,0,0,0-.41,0,.84.84,0,0,0-.27.11.43.43,0,0,0-.16.17.56.56,0,0,0-.05.23.44.44,0,0,0,.14.34.53.53,0,0,0,.39.13.76.76,0,0,0,.38-.11,1.59,1.59,0,0,0,.35-.31ZM375.89,79a.33.33,0,0,1,.23.07.28.28,0,0,1,.07.21v3.34a.09.09,0,0,1,0,.07s0,0-.07,0l-.15,0h-.48l-.15,0-.08,0a.08.08,0,0,1,0-.07V79.8h-1.57v1.64a.77.77,0,0,0,.09.42.35.35,0,0,0,.32.15l.14,0,.11,0,.08,0h.11a.09.09,0,0,1,0,.06.53.53,0,0,1,0,.11v.18a1.86,1.86,0,0,1,0,.26.44.44,0,0,1-.06.12.27.27,0,0,1-.1.08l-.17.05-.2,0h-.21a1.53,1.53,0,0,1-.51-.07,1,1,0,0,1-.36-.23.9.9,0,0,1-.2-.39,1.86,1.86,0,0,1-.07-.56V79.8h-.42c-.05,0-.08,0-.11-.09a.8.8,0,0,1,0-.31,1.09,1.09,0,0,1,0-.19,1,1,0,0,1,0-.12.18.18,0,0,1,.05-.07l.07,0h.41v-.77a.14.14,0,0,1,0-.07.17.17,0,0,1,.08-.06l.15,0h.48l.15,0a.17.17,0,0,1,.08.06.14.14,0,0,1,0,.07V79Zm.38-1a.53.53,0,0,1-.13.41.69.69,0,0,1-.44.11.66.66,0,0,1-.45-.11.5.5,0,0,1-.12-.39.59.59,0,0,1,.12-.42,1,1,0,0,1,.9,0A.53.53,0,0,1,376.27,78Zm4.43,2.88a2.66,2.66,0,0,1-.12.82,1.79,1.79,0,0,1-.36.63,1.69,1.69,0,0,1-.59.41,2.38,2.38,0,0,1-.84.14,2.22,2.22,0,0,1-.81-.13,1.41,1.41,0,0,1-.57-.37,1.58,1.58,0,0,1-.34-.61,2.91,2.91,0,0,1-.11-.82,2.6,2.6,0,0,1,.12-.81,1.63,1.63,0,0,1,.36-.63,1.53,1.53,0,0,1,.59-.41,2.17,2.17,0,0,1,.84-.15,2.46,2.46,0,0,1,.81.13,1.41,1.41,0,0,1,.57.37,1.72,1.72,0,0,1,.34.61A2.91,2.91,0,0,1,380.7,80.84Zm-1,0a2.29,2.29,0,0,0,0-.47.91.91,0,0,0-.14-.38.63.63,0,0,0-.26-.25.79.79,0,0,0-.4-.09.93.93,0,0,0-.39.08.67.67,0,0,0-.27.23,1.08,1.08,0,0,0-.15.38,1.83,1.83,0,0,0-.06.49,2.26,2.26,0,0,0,0,.47,1.07,1.07,0,0,0,.13.38.77.77,0,0,0,.26.25.86.86,0,0,0,.41.09.93.93,0,0,0,.39-.08.69.69,0,0,0,.27-.24,1,1,0,0,0,.15-.36A1.93,1.93,0,0,0,379.68,80.88Zm5.12,1.74a.08.08,0,0,1,0,.07s0,0-.08,0l-.15,0h-.47l-.15,0s-.07,0-.08,0a.09.09,0,0,1,0-.07v-2a2.1,2.1,0,0,0,0-.4.76.76,0,0,0-.11-.24.58.58,0,0,0-.18-.17.71.71,0,0,0-.26,0,.6.6,0,0,0-.38.14,2.06,2.06,0,0,0-.4.39v2.32a.14.14,0,0,1,0,.07l-.08,0-.15,0h-.48l-.15,0-.08,0a.08.08,0,0,1,0-.07V79.14a.08.08,0,0,1,0-.07.1.1,0,0,1,.07,0l.13,0h.41l.12,0a.18.18,0,0,1,.07,0,.14.14,0,0,1,0,.07v.4a2,2,0,0,1,.58-.47,1.28,1.28,0,0,1,.63-.16,1.4,1.4,0,0,1,.6.12,1,1,0,0,1,.39.32,1.36,1.36,0,0,1,.22.47,3,3,0,0,1,.06.65Z" transform="translate(-25.92 -25.67)"/><text class="cls-7" transform="translate(387.43 45.39)">Job O<tspan class="cls-22" x="18.46" y="0">ﬀ</tspan><tspan x="23.13" y="0">er</tspan></text><text class="cls-7" transform="translate(444.86 45.08)">Onboa<tspan class="cls-24" x="22.25" y="0">r</tspan><tspan x="24.99" y="0">ding</tspan></text><g class="cls-2"><path class="cls-25" d="M63.18,36.24a8.71,8.71,0,1,1-8.71-8.71,8.7,8.7,0,0,1,8.71,8.71" transform="translate(-25.92 -25.67)"/></g><text class="cls-26" transform="translate(26.13 13.39)">1</text><g class="cls-2"><path class="cls-25" d="M125.07,36.33a8.71,8.71,0,1,1-8.7-8.71,8.69,8.69,0,0,1,8.7,8.71" transform="translate(-25.92 -25.67)"/></g><text class="cls-26" transform="translate(88.02 13.48)">2</text><g class="cls-2"><path class="cls-25" d="M187.17,36.33a8.71,8.71,0,1,1-8.7-8.71,8.7,8.7,0,0,1,8.7,8.71" transform="translate(-25.92 -25.67)"/></g><text class="cls-26" transform="translate(150.12 13.48)">3</text><g class="cls-2"><path class="cls-25" d="M250.4,36.33a8.71,8.71,0,1,1-8.7-8.71,8.69,8.69,0,0,1,8.7,8.71" transform="translate(-25.92 -25.67)"/></g><text class="cls-26" transform="translate(213.35 13.48)">4</text><g class="cls-2"><path class="cls-25" d="M313,36.33a8.71,8.71,0,1,1-8.71-8.71A8.7,8.7,0,0,1,313,36.33" transform="translate(-25.92 -25.67)"/></g><text class="cls-26" transform="translate(275.96 13.48)">5</text><g class="cls-2"><path class="cls-25" d="M374.92,36.33a8.71,8.71,0,1,1-8.7-8.71,8.69,8.69,0,0,1,8.7,8.71" transform="translate(-25.92 -25.67)"/></g><text class="cls-26" transform="translate(337.87 13.48)">6</text><g class="cls-2"><path class="cls-25" d="M437.24,36.33a8.71,8.71,0,1,1-8.71-8.71,8.7,8.7,0,0,1,8.71,8.71" transform="translate(-25.92 -25.67)"/></g><text class="cls-26" transform="translate(400.19 13.48)">7</text><g class="cls-2"><path class="cls-25" d="M499.26,36.33a8.71,8.71,0,1,1-8.71-8.71,8.7,8.7,0,0,1,8.71,8.71" transform="translate(-25.92 -25.67)"/></g><text class="cls-26" transform="translate(462.2 13.48)">8</text></svg>