<svg xmlns="http://www.w3.org/2000/svg" viewBox="0 0 36.71 32.19"><defs><style>.cls-1{fill:none;stroke:#808285;stroke-miterlimit:10;stroke-width:0.75px;}</style></defs><title>Asset 9</title><g id="Layer_2" data-name="Layer 2"><g id="Layer_1-2" data-name="Layer 1"><path class="cls-1" d="M18.57,13.59,12.2,6.19A3.62,3.62,0,0,1,11.72,2,3.53,3.53,0,0,1,14.48.38c2.5-.19,4.09,2.71,4.09,2.71S20.16.19,22.66.38A3.53,3.53,0,0,1,25.42,2a3.62,3.62,0,0,1-.48,4.19Z"/><path class="cls-1" d="M19.81,32.19V24.64a7.77,7.77,0,0,1,2.51-5.72l8.38-7.73a.71.71,0,0,1,1.05.1A2.92,2.92,0,0,1,32.32,13,4.93,4.93,0,0,1,31,16.43l-2.5,3.24"/><path class="cls-1" d="M28.47,19.67l3-3a3.54,3.54,0,0,0,1.05-2.53V9.85a7.46,7.46,0,0,1,2.08-5.18L35.29,4a.6.6,0,0,1,1,.42V17.05a3.6,3.6,0,0,1-.83,2.29L28.27,28a3.46,3.46,0,0,0-.81,2.21v2"/><path class="cls-1" d="M16.9,32.19V24.64a7.77,7.77,0,0,0-2.51-5.72L6,11.19a.7.7,0,0,0-1,.1A2.87,2.87,0,0,0,4.38,13a4.94,4.94,0,0,0,1.36,3.4l2.5,3.24"/><path class="cls-1" d="M8.24,19.67l-3-3a3.58,3.58,0,0,1-1-2.53V9.85A7.5,7.5,0,0,0,2.09,4.67L1.42,4a.6.6,0,0,0-1,.42V17.05a3.54,3.54,0,0,0,.83,2.29L8.44,28a3.45,3.45,0,0,1,.8,2.21v2"/></g></g></svg>