<svg xmlns="http://www.w3.org/2000/svg" viewBox="0 0 34.49 48.49"><defs><style>.cls-1{fill:none;stroke:#808285;stroke-miterlimit:10;stroke-width:0.75px;}</style></defs><title>complaint-register</title><g id="Layer_2" data-name="Layer 2"><g id="Layer_1-2" data-name="Layer 1"><line class="cls-1" x1="6.75" y1="8.63" x2="27.39" y2="8.63"/><path class="cls-1" d="M3.21,4.43H31.29a2.83,2.83,0,0,1,2.83,2.83v38a2.84,2.84,0,0,1-2.84,2.84H3.21A2.83,2.83,0,0,1,.38,45.28v-38A2.83,2.83,0,0,1,3.21,4.43Z"/><line class="cls-1" x1="0.02" y1="11.99" x2="34.12" y2="11.99"/><line class="cls-1" x1="12.85" y1="19.51" x2="29.47" y2="19.51"/><polyline class="cls-1" points="5.54 18.26 6.95 20.13 11.6 16.26"/><line class="cls-1" x1="12.85" y1="26.43" x2="29.47" y2="26.43"/><polyline class="cls-1" points="5.54 25.18 6.95 27.05 11.6 23.18"/><line class="cls-1" x1="12.85" y1="33.35" x2="29.47" y2="33.35"/><polyline class="cls-1" points="5.54 32.1 6.95 33.98 11.6 30.1"/><line class="cls-1" x1="12.85" y1="40.28" x2="29.47" y2="40.28"/><polyline class="cls-1" points="5.54 39.03 6.95 40.9 11.6 37.03"/><path class="cls-1" d="M13.19,4.5A4,4,0,0,1,17.07.38,4,4,0,0,1,20.94,4.5"/></g></g></svg>