<svg id="Layer_1" data-name="Layer 1" xmlns="http://www.w3.org/2000/svg" viewBox="0 0 45.41 42.17"><defs><style>.cls-1{fill:#fff;}</style></defs><title>contact-us</title><g id="Layer_1-2" data-name="Layer 1-2"><path class="cls-1" d="M20.28,22a4.19,4.19,0,0,0-4-4.35,4.19,4.19,0,0,0-4,4.35,4.19,4.19,0,0,0,4,4.35A4.19,4.19,0,0,0,20.28,22Z" transform="translate(-0.38 -0.38)"/><path class="cls-1" d="M24.1,34.89V34a2.58,2.58,0,0,0-.49-1.52A8.1,8.1,0,0,0,17,29.23H15.55A8.09,8.09,0,0,0,9,32.44,2.68,2.68,0,0,0,8.46,34v.93" transform="translate(-0.38 -0.38)"/><path class="cls-1" d="M13.91,11.65H6.4a2.91,2.91,0,0,0-2.91,2.91v21.6" transform="translate(-0.38 -0.38)"/><line class="cls-1" x1="41.97" y1="35.78" x2="41.97" y2="23.48"/><path class="cls-1" d="M22.08,21.46h3.6v7a.69.69,0,0,0,.67.69.71.71,0,0,0,.48-.19l7.78-7.53h7a3.12,3.12,0,0,0,3.12-3.11V3.49A3.12,3.12,0,0,0,41.66.38H19.4a3.12,3.12,0,0,0-3.12,3.11v12.3" transform="translate(-0.38 -0.38)"/><path class="cls-1" d="M28.07,14.72v-.44a4.12,4.12,0,0,1,1-3,3.91,3.91,0,0,0,1-2.28,1.36,1.36,0,0,0-1.24-1.47,1,1,0,0,0-.24,0A2.64,2.64,0,0,0,27,8l-.34-1a3.86,3.86,0,0,1,2.23-.68,2.39,2.39,0,0,1,2.6,2.18,2.81,2.81,0,0,1,0,.29,4.92,4.92,0,0,1-1.34,3,3.56,3.56,0,0,0-.89,2.51v.44Zm-.35,2.39a.94.94,0,1,1,1.86-.27,1.22,1.22,0,0,1,0,.27.94.94,0,1,1-1.86.27A1.22,1.22,0,0,1,27.72,17.11Z" transform="translate(-0.38 -0.38)"/><path class="cls-1" d="M27.42,36.67l-1.25,2.18a1,1,0,0,1-.87.51H20.86a1,1,0,0,1-.86-.51l-1.25-2.18a1,1,0,0,0-.87-.51H.38v.52a5.87,5.87,0,0,0,5.87,5.87H39.92a5.87,5.87,0,0,0,5.87-5.87v-.52H28.29A1,1,0,0,0,27.42,36.67Z" transform="translate(-0.38 -0.38)"/></g></svg>