<svg xmlns="http://www.w3.org/2000/svg" viewBox="0 0 57.16 28.85"><defs><style>.cls-1{fill:none;stroke:#868686;stroke-miterlimit:10;}</style></defs><title>culture</title><g id="Layer_2" data-name="Layer 2"><g id="Layer_1-2" data-name="Layer 1"><path class="cls-1" d="M35.69,8.24C35.69,4,32.51.5,28.58.5S21.47,4,21.47,8.24,24.65,16,28.58,16,35.69,12.51,35.69,8.24Z"/><path class="cls-1" d="M14.65,28.85V27.2a4.61,4.61,0,0,1,.88-2.71,14.48,14.48,0,0,1,11.74-5.72h2.62a14.48,14.48,0,0,1,11.74,5.72,4.55,4.55,0,0,1,.88,2.71v1.65"/><path class="cls-1" d="M16.11,7.75A5.52,5.52,0,0,0,10.83,2,5.52,5.52,0,0,0,5.56,7.75a5.52,5.52,0,0,0,5.27,5.74A5.52,5.52,0,0,0,16.11,7.75Z"/><path class="cls-1" d="M.5,23.05V21.82a3.42,3.42,0,0,1,.65-2,10.72,10.72,0,0,1,8.71-4.24H11.8a11.05,11.05,0,0,1,6.62,2.14"/><path class="cls-1" d="M41.05,7.75A5.53,5.53,0,0,1,46.33,2a5.53,5.53,0,0,1,5.28,5.74,5.53,5.53,0,0,1-5.28,5.74A5.53,5.53,0,0,1,41.05,7.75Z"/><path class="cls-1" d="M56.66,23.05V21.82a3.35,3.35,0,0,0-.65-2,10.72,10.72,0,0,0-8.71-4.24H45.36a11.08,11.08,0,0,0-6.62,2.14"/></g></g></svg>