<svg xmlns="http://www.w3.org/2000/svg" viewBox="0 0 36.88 39.8"><defs><style>.cls-1{fill:none;}.cls-1,.cls-2,.cls-3{stroke:#fff;stroke-miterlimit:10;}.cls-2{fill:#5f5e5e;}.cls-3{fill:#fff;}</style></defs><title>custmer-service</title><g id="Layer_2" data-name="Layer 2"><g id="Layer_1-2" data-name="Layer 1"><path class="cls-1" d="M18.45,5.43c-4.55,0-9.1,4.73-8.24,10.43,1.23,8.18,5.32,9.76,7.23,10.05a2.71,2.71,0,0,1,2.21-1.13,2.77,2.77,0,0,1,1.65.55c2-1,4.48-3.41,5.4-9.47C27.56,10.16,23,5.43,18.45,5.43Z"/><path class="cls-2" d="M19.67,28.13l0-1a17.65,17.65,0,0,0,6.59-1.31,4.82,4.82,0,0,0,2.72-4.39V19.36h1v2.11a5.76,5.76,0,0,1-3.29,5.26,18.47,18.47,0,0,1-6.95,1.4"/><path class="cls-1" d="M23.67,28.31a4.09,4.09,0,0,1-8.07-.24C1.67,28.79.56,39.3.56,39.3H36.32S35.33,30,23.67,28.31Z"/><path class="cls-1" d="M8.19,13a10.27,10.27,0,0,1,20.48-.28,1.43,1.43,0,0,1,.94-.36,1.38,1.38,0,0,1,.69.19C30,5.84,24.83.5,18.44.5S6.9,5.77,6.59,12.4a1.34,1.34,0,0,1,.4-.06A1.43,1.43,0,0,1,8.19,13Z"/><path class="cls-1" d="M7,12.34a1.45,1.45,0,0,0-1.32.87,3.49,3.49,0,0,0,0,7,1.45,1.45,0,0,0,2.78-.58V13.79A1.46,1.46,0,0,0,7,12.34Z"/><path class="cls-3" d="M29.61,12.34a1.47,1.47,0,0,1,1.33.87,3.49,3.49,0,0,1,0,7,1.47,1.47,0,0,1-1.33.87,1.45,1.45,0,0,1-1.45-1.45V13.79a1.45,1.45,0,0,1,1.45-1.45"/><path class="cls-1" d="M29.61,12.34a1.47,1.47,0,0,1,1.33.87,3.49,3.49,0,0,1,0,7,1.47,1.47,0,0,1-1.33.87,1.45,1.45,0,0,1-1.45-1.45V13.79A1.45,1.45,0,0,1,29.61,12.34Z"/><path class="cls-3" d="M20.9,27.65a1.25,1.25,0,1,0-1.25,1.25,1.25,1.25,0,0,0,1.25-1.25"/><path class="cls-1" d="M20.9,27.65a1.25,1.25,0,1,0-1.25,1.25A1.25,1.25,0,0,0,20.9,27.65Z"/></g></g></svg>