<svg id="Layer_1" data-name="Layer 1" xmlns="http://www.w3.org/2000/svg" viewBox="0 0 36.87 39.8"><defs><style>.cls-1{fill:none;}.cls-1,.cls-2,.cls-3{stroke:#b0976f;stroke-miterlimit:10;}.cls-2{fill:#5f5e5e;}.cls-3{fill:#fff;}</style></defs><title>custmer-service-hover</title><g id="Layer_1-2" data-name="Layer 1-2"><path class="cls-1" d="M18.45,5.43c-4.55,0-9.1,4.73-8.24,10.43,1.23,8.18,5.32,9.76,7.23,10.05a2.72,2.72,0,0,1,2.21-1.13,2.75,2.75,0,0,1,1.65.55c2-1,4.48-3.41,5.4-9.47C27.56,10.16,23,5.43,18.45,5.43Z" transform="translate(0)"/><path class="cls-2" d="M19.67,28.13v-1a17.72,17.72,0,0,0,6.59-1.31A4.81,4.81,0,0,0,29,21.43V19.36h1v2.11a5.76,5.76,0,0,1-3.29,5.26,18.39,18.39,0,0,1-7,1.4" transform="translate(0)"/><path class="cls-1" d="M23.67,28.31a4.09,4.09,0,0,1-8.07-.24C1.67,28.79.56,39.3.56,39.3H36.32S35.33,30,23.67,28.31Z" transform="translate(0)"/><path class="cls-1" d="M8.19,13a10.27,10.27,0,0,1,20.48-.28,1.38,1.38,0,0,1,1.63-.17C30,5.84,24.83.5,18.44.5S6.9,5.77,6.59,12.4a1.34,1.34,0,0,1,.4-.06A1.42,1.42,0,0,1,8.19,13Z" transform="translate(0)"/><path class="cls-1" d="M7,12.34a1.44,1.44,0,0,0-1.32.87,3.5,3.5,0,0,0,0,7,1.45,1.45,0,0,0,2.78-.58V13.79A1.47,1.47,0,0,0,7,12.34Z" transform="translate(0)"/><path class="cls-3" d="M29.61,12.34a1.44,1.44,0,0,1,1.33.87,3.5,3.5,0,0,1,0,7,1.45,1.45,0,0,1-2.78-.58h0V13.79a1.45,1.45,0,0,1,1.45-1.45h0" transform="translate(0)"/><path class="cls-1" d="M29.61,12.34a1.44,1.44,0,0,1,1.33.87,3.5,3.5,0,0,1,0,7,1.45,1.45,0,0,1-2.78-.58h0V13.79a1.45,1.45,0,0,1,1.45-1.45Z" transform="translate(0)"/><path class="cls-3" d="M20.9,27.65a1.25,1.25,0,1,0-1.25,1.25,1.25,1.25,0,0,0,1.25-1.25" transform="translate(0)"/><path class="cls-1" d="M20.9,27.65a1.25,1.25,0,1,0-1.25,1.25A1.25,1.25,0,0,0,20.9,27.65Z" transform="translate(0)"/></g></svg>