<svg xmlns="http://www.w3.org/2000/svg" viewBox="0 0 42.76 42.97"><defs><style>.cls-1{fill:none;stroke:#868686;stroke-miterlimit:10;}.cls-2{fill:#868686;}</style></defs><title>development</title><g id="Layer_2" data-name="Layer 2"><g id="Layer_1-2" data-name="Layer 1"><path class="cls-1" d="M25.43,8.15c0-4.23-3.15-7.65-7-7.65s-7,3.42-7,7.65,3.14,7.64,7,7.64S25.43,12.37,25.43,8.15Z"/><path class="cls-1" d="M4.64,34.21V26.88a4.52,4.52,0,0,1,.87-2.68,14.3,14.3,0,0,1,11.6-5.65h2.58a14.3,14.3,0,0,1,11.6,5.65,4.52,4.52,0,0,1,.87,2.68v.77"/><polyline class="cls-1" points="0.35 42.62 17.76 25.05 28.2 35.99 40.4 22.66"/><path class="cls-2" d="M42.76,20.08a17.56,17.56,0,0,0-1.31,5.52L40.09,23l-2.71-1.12a17.34,17.34,0,0,0,5.38-1.8"/></g></g></svg>