<svg xmlns="http://www.w3.org/2000/svg" xmlns:xlink="http://www.w3.org/1999/xlink" viewBox="0 0 64.11 60.23"><defs><style>.cls-1,.cls-3{fill:none;}.cls-2{clip-path:url(#clip-path);}.cls-3{stroke:#505150;stroke-miterlimit:10;stroke-width:1.5px;}</style><clipPath id="clip-path" transform="translate(-9.05 -14.99)"><rect class="cls-1" width="79.26" height="84.44"/></clipPath></defs><title>education</title><g id="Layer_2" data-name="Layer 2"><g id="Layer_1-2" data-name="Layer 1"><g class="cls-2"><polyline class="cls-3" points="48.66 30.35 48.66 50.8 20.21 50.8"/><polyline class="cls-3" points="7.41 50.8 0.75 50.8 0.75 18.48 22.67 18.48"/><g class="cls-2"><path class="cls-3" d="M29.73,63.25a7.09,7.09,0,1,0-7.08,7.09A7.08,7.08,0,0,0,29.73,63.25Z" transform="translate(-9.05 -14.99)"/><line class="cls-3" x1="16.3" y1="54.74" x2="15.25" y2="60.09"/><line class="cls-3" x1="16.3" y1="54.74" x2="21.43" y2="56.57"/><line class="cls-3" x1="10.28" y1="54.74" x2="11.33" y2="60.09"/><line class="cls-3" x1="10.28" y1="54.74" x2="5.15" y2="56.57"/><line class="cls-3" x1="9.44" y1="32.41" x2="40" y2="32.41"/><line class="cls-3" x1="9.44" y1="37.33" x2="40" y2="37.33"/><line class="cls-3" x1="23.43" y1="42" x2="40" y2="42"/><line class="cls-3" x1="18.07" y1="26.21" x2="28.7" y2="26.21"/><polygon class="cls-3" points="29.57 10.11 38.73 19.38 52.62 19.38 50.11 28.04 34.8 28.04 25.15 18.48 29.57 10.11"/><polygon class="cls-3" points="23.43 0.75 39.94 16.76 62.19 16.76 44.77 0.75 23.43 0.75"/><line class="cls-3" x1="58.97" y1="16.76" x2="58.97" y2="41.17"/><rect class="cls-3" x="57.61" y="29.2" width="2.7" height="11.98"/></g></g></g></g></svg>