<svg xmlns="http://www.w3.org/2000/svg" xmlns:xlink="http://www.w3.org/1999/xlink" viewBox="0 0 64.72 62.58"><defs><style>.cls-1,.cls-3{fill:none;}.cls-2{clip-path:url(#clip-path);}.cls-3{stroke:#505150;stroke-miterlimit:10;stroke-width:1.5px;}</style><clipPath id="clip-path" transform="translate(-7.27 -10.93)"><rect class="cls-1" width="79.26" height="84.44"/></clipPath></defs><title>ems</title><g id="Layer_2" data-name="Layer 2"><g id="Layer_1-2" data-name="Layer 1"><g class="cls-2"><polyline class="cls-3" points="27.88 5.94 58.78 5.94 58.78 15.38"/><polyline class="cls-3" points="5.94 34.18 5.94 5.94 17.5 5.94"/><polyline class="cls-3" points="36.58 56.64 5.94 56.64 5.94 44.82"/><polyline class="cls-3" points="58.78 26.05 58.78 56.64 47.37 56.64"/><g class="cls-2"><path class="cls-3" d="M35.14,16.87A5.19,5.19,0,1,0,30,22.06,5.19,5.19,0,0,0,35.14,16.87Z" transform="translate(-7.27 -10.93)"/><line class="cls-3" x1="34.03" y1="2.38" x2="28.36" y2="5.94"/><line class="cls-3" x1="28.36" y1="5.94" x2="34.03" y2="9.5"/><path class="cls-3" d="M13.21,45.6a5.19,5.19,0,1,0,5.19,5.19A5.19,5.19,0,0,0,13.21,45.6Z" transform="translate(-7.27 -10.93)"/><line class="cls-3" x1="2.38" y1="28.5" x2="5.94" y2="34.18"/><line class="cls-3" x1="5.94" y1="34.18" x2="9.5" y2="28.5"/><path class="cls-3" d="M43.84,67.57A5.19,5.19,0,1,0,49,62.38,5.19,5.19,0,0,0,43.84,67.57Z" transform="translate(-7.27 -10.93)"/><line class="cls-3" x1="30.42" y1="60.2" x2="36.09" y2="56.64"/><line class="cls-3" x1="36.09" y1="56.64" x2="30.42" y2="53.07"/><path class="cls-3" d="M66.05,37a5.19,5.19,0,1,0-5.19-5.19A5.19,5.19,0,0,0,66.05,37Z" transform="translate(-7.27 -10.93)"/><line class="cls-3" x1="62.35" y1="32.25" x2="58.78" y2="26.58"/><line class="cls-3" x1="58.78" y1="26.58" x2="55.22" y2="32.25"/></g></g></g></g></svg>