<svg xmlns="http://www.w3.org/2000/svg" viewBox="0 0 49.64 49.63"><defs><style>.cls-1{fill:none;stroke:#808285;stroke-miterlimit:10;stroke-width:0.5px;}.cls-2{fill:#808285;}</style></defs><title>experience</title><g id="Layer_2" data-name="Layer 2"><g id="Capa_1" data-name="Capa 1"><path class="cls-1" d="M42.39,41.06c-.74.68.12-.1.41-.38h0a22.55,22.55,0,0,0,6.56-13.82,2,2,0,0,0-1.8-2.21h0a1.41,1.41,0,0,0-.29,0h0a2.48,2.48,0,0,0-2.33,1.9l-.77,3.17a10.39,10.39,0,0,1-5.53,6.87,1,1,0,0,1-1.27-.44,1,1,0,0,1-.08-.58l.61-3.49A2,2,0,0,0,36,29.79a2.08,2.08,0,0,0-1.73,1l-3.82,6a.08.08,0,0,1-.12,0,1.45,1.45,0,0,0-1.79.21l-2.86,2.86a.71.71,0,0,0,0,1h0l8.3,8.3a.72.72,0,0,0,1,0h0l2.85-2.86A1.46,1.46,0,0,0,38,44.43a.09.09,0,0,1,0-.13,21,21,0,0,0,2.57-1.68"/><path class="cls-1" d="M15.47,12.38l1,.53,0,0L18,15.52v1.13A1.45,1.45,0,0,0,18.68,18l2.17,1.25a1.49,1.49,0,0,0,1.51,0l.94-.57h3l.94.57a1.48,1.48,0,0,0,1.51,0L31,18a1.47,1.47,0,0,0,.74-1.31l0-1.1a0,0,0,0,1,0,0l1.5-2.59,0,0,1-.53a1.53,1.53,0,0,0,.77-1.31V8.58a1.49,1.49,0,0,0-.77-1.3l-1-.54h0l-.09-.15a.71.71,0,0,0-1-.27.73.73,0,0,0-.27,1h0l.09.15a1.51,1.51,0,0,0,.57.55l1,.53a.08.08,0,0,1,0,.05v2.5a.08.08,0,0,1,0,.05l-1,.53a1.51,1.51,0,0,0-.57.55L30.45,14.8a1.41,1.41,0,0,0-.2.77v1.1a0,0,0,0,1,0,0L28.07,18H28l-.94-.57a1.56,1.56,0,0,0-.77-.21h-3a1.62,1.62,0,0,0-.77.21l-.94.57h-.05L19.4,16.71a.05.05,0,0,1,0,0l0-1.1a1.5,1.5,0,0,0-.2-.77l-1.5-2.59a1.48,1.48,0,0,0-.56-.55l-1-.53a.05.05,0,0,1,0-.05V8.58a.05.05,0,0,1,0-.05L17.12,8a1.4,1.4,0,0,0,.57-.56l1.5-2.59a1.39,1.39,0,0,0,.2-.77l0-1.09s0,0,0,0L21.57,1.7a0,0,0,0,1,.05,0l.93.56a1.51,1.51,0,0,0,.77.21h3a1.45,1.45,0,0,0,.76-.21L28,1.7a0,0,0,0,1,.05,0L30.24,3a.05.05,0,0,1,0,0l0,1.1a1.42,1.42,0,0,0,.14.67.73.73,0,0,0,1,.34.72.72,0,0,0,.34-1h0v0l0-1.1A1.5,1.5,0,0,0,31,1.7L28.79.45a1.48,1.48,0,0,0-1.51,0L26.34,1h-3L22.36.46a1.49,1.49,0,0,0-1.51,0L18.68,1.7A1.48,1.48,0,0,0,17.93,3l0,1.1v0L16.45,6.72s0,0,0,0l-1,.53a1.49,1.49,0,0,0-.77,1.31v2.5a1.49,1.49,0,0,0,.77,1.3Z"/><path class="cls-1" d="M24.82,5.48a4.35,4.35,0,1,0,4.35,4.35h0A4.35,4.35,0,0,0,24.82,5.48Zm0,7.26a2.91,2.91,0,1,1,2.91-2.91h0A2.91,2.91,0,0,1,24.82,12.74Z"/><path class="cls-1" d="M37.91,24a3.24,3.24,0,1,0-3.24-3.24A3.24,3.24,0,0,0,37.91,24Zm0-5a1.8,1.8,0,1,1-1.8,1.8,1.8,1.8,0,0,1,1.8-1.8Z"/><path class="cls-1" d="M32.92,16v.71l-1,1.71-.62.34a1.26,1.26,0,0,0-.64,1.09v1.74a1.27,1.27,0,0,0,.64,1.1l.62.34,1,1.71v.71a1.24,1.24,0,0,0,.62,1.1l1.51.87a1.26,1.26,0,0,0,1.27,0l.61-.37h2l.6.37a1.27,1.27,0,0,0,1.28,0l1.5-.87a1.27,1.27,0,0,0,.63-1.1l0-.71,1-1.71.62-.34a1.24,1.24,0,0,0,.64-1.1V19.85a1.24,1.24,0,0,0-.64-1.09l-.62-.34-1-1.71,0-.71a1.25,1.25,0,0,0-.63-1.11L40.78,14a1.25,1.25,0,0,0-1.28,0l-.6.36h-2L36.32,14a1.23,1.23,0,0,0-1.27,0l-1.51.86A1.27,1.27,0,0,0,32.92,16Zm1.44.09,1.31-.76.56.33a1.21,1.21,0,0,0,.64.18H39a1.19,1.19,0,0,0,.64-.18l.56-.33,1.31.76v.64a1.31,1.31,0,0,0,.17.65l1,1.8a1.21,1.21,0,0,0,.48.47l.57.32v1.51l-.57.32a1.21,1.21,0,0,0-.48.47l-1,1.79a1.37,1.37,0,0,0-.17.65v.65l-1.31.76-.56-.33a1.21,1.21,0,0,0-.64-.18H36.87a1.21,1.21,0,0,0-.64.18l-.56.33-1.31-.76v-.65a1.24,1.24,0,0,0-.17-.65l-1-1.79a1.27,1.27,0,0,0-.48-.47l-.57-.32V20l.57-.32a1.27,1.27,0,0,0,.48-.47l1-1.8a1.13,1.13,0,0,0,.17-.65Z"/><path class="cls-1" d="M11.72,24a3.24,3.24,0,1,0-3.23-3.24A3.24,3.24,0,0,0,11.72,24Zm0-5a1.8,1.8,0,1,1-1.8,1.8,1.8,1.8,0,0,1,1.8-1.8Z"/><path class="cls-1" d="M5.14,22.69l.62.34,1,1.71v.71a1.24,1.24,0,0,0,.62,1.1l1.51.87a1.26,1.26,0,0,0,1.27,0l.61-.36h2l.61.36a1.25,1.25,0,0,0,1.27,0l1.5-.86a1.24,1.24,0,0,0,.63-1.11v-.71l1-1.71.62-.34A1.25,1.25,0,0,0,19,21.6V19.86a1.24,1.24,0,0,0-.65-1.09l-.62-.35-1-1.71V16a1.24,1.24,0,0,0-.63-1.11L14.59,14a1.25,1.25,0,0,0-1.27,0l-.61.37h-2L10.13,14a1.26,1.26,0,0,0-1.27,0l-1.5.87A1.23,1.23,0,0,0,6.73,16v.71l-1,1.71-.62.34a1.25,1.25,0,0,0-.65,1.09v1.74a1.25,1.25,0,0,0,.65,1.1ZM5.93,20l.57-.32A1.27,1.27,0,0,0,7,19.18l1-1.8a1.21,1.21,0,0,0,.16-.65v-.64l1.32-.76.55.33a1.25,1.25,0,0,0,.65.18h2.07a1.25,1.25,0,0,0,.65-.18l.56-.33,1.31.76v.64a1.13,1.13,0,0,0,.17.65l1,1.8a1.21,1.21,0,0,0,.48.47l.57.32v1.51L17,21.8a1.21,1.21,0,0,0-.48.47l-1,1.79a1.37,1.37,0,0,0-.17.65l0,.65L14,26.12l-.55-.33a1.25,1.25,0,0,0-.65-.18H10.69a1.25,1.25,0,0,0-.65.18l-.56.33-1.31-.76v-.65A1.17,1.17,0,0,0,8,24.06L7,22.27a1.27,1.27,0,0,0-.48-.47l-.57-.32V20Z"/><path class="cls-1" d="M20.92,43.93,24,40.86a.71.71,0,0,0,0-1h0L21.13,37a1.44,1.44,0,0,0-1.87-.15L15.32,30.7a1.95,1.95,0,0,0-3.56,1.38l.61,3.49a.94.94,0,0,1-1.35,1,10.35,10.35,0,0,1-5.53-6.87l-.77-3.17a2.5,2.5,0,0,0-2.33-1.91h0a2,2,0,0,0-2.1,1.93h0a2.71,2.71,0,0,0,0,.29,22.5,22.5,0,0,0,11.47,17.5,1.46,1.46,0,0,0,.08,2l2.86,2.86a.72.72,0,0,0,1,0h0L18.88,46"/><path class="cls-1" d="M11.41,44.42c.66.51,9.77-6.47,7.73-7.76"/><path class="cls-2" d="M19.12,46.26a.32.32,0,0,0,0-.45L19,45.72a.32.32,0,0,0-.45,0"/><path class="cls-2" d="M20.65,43.67a.32.32,0,0,0,0,.45l.08.08a.32.32,0,0,0,.45,0"/><path class="cls-1" d="M30.08,36.87c-.46.7,5.93,9,8.33,7.19"/><path class="cls-2" d="M40.78,42.92a.32.32,0,0,0,.07-.44l-.07-.1a.32.32,0,0,0-.45-.06"/></g></g></svg>