<svg id="Capa_1" data-name="Capa 1" xmlns="http://www.w3.org/2000/svg" viewBox="0 0 512.08 512"><defs><style>.cls-1{fill:#5f5e5e;}</style></defs><title>experience-grey</title><path class="cls-1" d="M490.18,254.17h-.37A26.17,26.17,0,0,0,465.43,274l-8,33a107.89,107.89,0,0,1-57.59,71.6A9.88,9.88,0,0,1,385.77,368l6.34-36.33A20.31,20.31,0,0,0,355,317.27L313.89,381.4a15.05,15.05,0,0,0-19.42,1.6l-29.78,29.78a7.5,7.5,0,0,0,0,10.61h0l86.46,86.46a7.5,7.5,0,0,0,10.61,0h0L391.54,480a15.07,15.07,0,0,0,.83-20.36,234.76,234.76,0,0,0,27.72-18.11,7.5,7.5,0,0,0-8.92-12.06l-.17.13a230.45,230.45,0,0,1-29.63,19l-56.53-56.53,42.71-66.71a5.32,5.32,0,0,1,9.72,3.78L371,365.47a24.87,24.87,0,0,0,35.43,26.62A122.83,122.83,0,0,0,472,310.57l8-33c2.59-10.63,17.87-11.12,17-1.81a220.23,220.23,0,0,1-64,134.82,7.5,7.5,0,0,0,10.38,10.83l.18-.18a235.24,235.24,0,0,0,68.41-144,21,21,0,0,0-18.82-23A22.67,22.67,0,0,0,490.18,254.17ZM356.46,493.89,280.6,418l24.54-24.48,75.79,75.86Z" transform="translate(0 -0.05)"/><path class="cls-1" d="M158.6,126.5l10,5.52a.64.64,0,0,1,.2.2l15.61,27a.64.64,0,0,1,.07.27l-.2,11.41A15.53,15.53,0,0,0,192,184.63l22.6,13a15.55,15.55,0,0,0,15.76-.13l9.77-5.88a.64.64,0,0,1,.27-.07h31.2a.5.5,0,0,1,.27.08l9.78,5.87a15.53,15.53,0,0,0,15.75.14l22.6-13a15.55,15.55,0,0,0,7.76-13.71l-.2-11.41a.52.52,0,0,1,.07-.27l15.6-27a.52.52,0,0,1,.2-.19l10-5.53a15.55,15.55,0,0,0,8-13.58V86.83a15.5,15.5,0,0,0-8-13.57l-10-5.53a.64.64,0,0,1-.2-.2l-.9-1.56a7.5,7.5,0,1,0-13,7.5h0l.9,1.56a15.61,15.61,0,0,0,5.92,5.82l10,5.52a.52.52,0,0,1,.27.46v26.1a.5.5,0,0,1-.27.45l-10,5.53a15.62,15.62,0,0,0-5.91,5.81l-15.6,27a15.38,15.38,0,0,0-2.08,8l.2,11.4a.54.54,0,0,1-.26.46l-22.6,13a.55.55,0,0,1-.53,0l-9.77-5.87a15.56,15.56,0,0,0-8-2.22H240.4a15.56,15.56,0,0,0-8,2.22l-9.78,5.87a.49.49,0,0,1-.52,0l-22.6-13a.49.49,0,0,1-.26-.46l.2-11.4a15.57,15.57,0,0,0-2.08-8l-15.6-27a15.51,15.51,0,0,0-5.92-5.81l-10-5.53a.52.52,0,0,1-.27-.46V86.83a.54.54,0,0,1,.26-.46l10-5.53A15.5,15.5,0,0,0,181.77,75l15.6-27a15.57,15.57,0,0,0,2.08-8l-.2-11.4a.49.49,0,0,1,.26-.46l22.6-13a.49.49,0,0,1,.52,0L232.41,21a15.56,15.56,0,0,0,8,2.22h31.21a15.56,15.56,0,0,0,8-2.22l9.77-5.87a.55.55,0,0,1,.53,0l22.6,13.05a.54.54,0,0,1,.26.46l-.2,11.4A15.64,15.64,0,0,0,314.1,47a7.5,7.5,0,0,0,13.55-6.44h0a.62.62,0,0,1-.07-.23l.2-11.4A15.54,15.54,0,0,0,320,15.13l-22.6-13a15.51,15.51,0,0,0-15.75.14l-9.77,5.87a.55.55,0,0,1-.28.07H240.4a.52.52,0,0,1-.27-.07l-9.77-5.87a15.52,15.52,0,0,0-15.76-.14l-22.6,13a15.51,15.51,0,0,0-7.76,13.71l.2,11.4a.64.64,0,0,1-.07.27l-15.61,27a.52.52,0,0,1-.19.2l-10,5.53a15.5,15.5,0,0,0-8,13.57V112.9a15.55,15.55,0,0,0,8,13.58Z" transform="translate(0 -0.05)"/><path class="cls-1" d="M256,54.52a45.36,45.36,0,1,0,45.36,45.36h0A45.41,45.41,0,0,0,256,54.52Zm0,75.72a30.36,30.36,0,1,1,30.36-30.36h0A30.4,30.4,0,0,1,256,130.24Z" transform="translate(0 -0.05)"/><path class="cls-1" d="M392.45,247.15A33.75,33.75,0,1,0,358.7,213.4,33.75,33.75,0,0,0,392.45,247.15Zm0-52.5A18.75,18.75,0,1,1,373.7,213.4,18.74,18.74,0,0,1,392.45,194.65Z" transform="translate(0 -0.05)"/><path class="cls-1" d="M340.4,164.18l.13,7.37-10.29,17.81-6.44,3.57a13.06,13.06,0,0,0-6.73,11.42v18.1a13.06,13.06,0,0,0,6.73,11.42l6.44,3.57,10.29,17.81-.13,7.37a13.1,13.1,0,0,0,6.52,11.54l15.68,9a13.07,13.07,0,0,0,13.25-.11l6.32-3.8h20.56l6.31,3.8a13.09,13.09,0,0,0,13.26.11l15.67-9a13.08,13.08,0,0,0,6.53-11.54l-.13-7.37,10.28-17.81,6.45-3.57a13.06,13.06,0,0,0,6.72-11.42v-18.1a13.06,13.06,0,0,0-6.72-11.42l-6.45-3.57-10.28-17.81.13-7.37a13,13,0,0,0-6.5-11.53l-15.7-9.05a13.09,13.09,0,0,0-13.26.11l-6.31,3.8H382.17l-6.32-3.8a13.09,13.09,0,0,0-13.26-.11l-15.67,9.05a13.05,13.05,0,0,0-6.52,11.53Zm15,.89,13.69-7.91,5.8,3.49a13.07,13.07,0,0,0,6.73,1.86h21.64a13,13,0,0,0,6.72-1.87l5.8-3.48,13.69,7.91-.12,6.76a13.12,13.12,0,0,0,1.75,6.76l10.82,18.73a13.07,13.07,0,0,0,5,4.9l5.91,3.28v15.81l-5.92,3.28a13,13,0,0,0-5,4.89l-10.82,18.73a13.12,13.12,0,0,0-1.75,6.76l.12,6.77-13.69,7.9-5.8-3.48a13.08,13.08,0,0,0-6.73-1.87H381.63a13.08,13.08,0,0,0-6.73,1.87l-5.8,3.48-13.69-7.9.12-6.77a13,13,0,0,0-1.75-6.76L343,229.48a13.14,13.14,0,0,0-5-4.9l-5.92-3.27V205.5l5.91-3.28a13.07,13.07,0,0,0,5-4.9l10.81-18.73a13,13,0,0,0,1.75-6.76Z" transform="translate(0 -0.05)"/><path class="cls-1" d="M119.55,247.15A33.75,33.75,0,1,0,85.8,213.4,33.75,33.75,0,0,0,119.55,247.15Zm0-52.5A18.75,18.75,0,1,1,100.8,213.4,18.74,18.74,0,0,1,119.55,194.65Z" transform="translate(0 -0.05)"/><path class="cls-1" d="M50.9,233.87l6.45,3.57,10.28,17.81-.13,7.37A13,13,0,0,0,74,274.15l15.7,9.05a13.09,13.09,0,0,0,13.26-.11l6.31-3.8h20.56l6.32,3.8a13.07,13.07,0,0,0,13.25.11l15.67-9a13.08,13.08,0,0,0,6.53-11.54l-.13-7.37,10.28-17.81,6.45-3.57a13.06,13.06,0,0,0,6.73-11.42v-18.1A13.06,13.06,0,0,0,188.2,193l-6.45-3.57-10.28-17.81.13-7.37a13.06,13.06,0,0,0-6.53-11.53l-15.66-9.05a13.06,13.06,0,0,0-13.26.11l-6.32,3.8H109.27l-6.32-3.8a13.07,13.07,0,0,0-13.25-.11l-15.67,9a13.08,13.08,0,0,0-6.53,11.54l.13,7.37L57.35,189.36l-6.44,3.57a13,13,0,0,0-6.73,11.42v18.1a13.06,13.06,0,0,0,6.72,11.42Zm8.28-28.37,5.91-3.28a13.07,13.07,0,0,0,5-4.9l10.82-18.73a13.12,13.12,0,0,0,1.75-6.76l-.12-6.76,13.69-7.91,5.8,3.48a13,13,0,0,0,6.72,1.87h21.64a13.19,13.19,0,0,0,6.73-1.86l5.8-3.49,13.69,7.91-.12,6.76a13,13,0,0,0,1.75,6.76L169,197.33a13.12,13.12,0,0,0,5,4.89l5.91,3.28v15.81L174,224.59a13.12,13.12,0,0,0-5,4.89l-10.82,18.74a13.11,13.11,0,0,0-1.74,6.76l.12,6.76-13.69,7.9-5.8-3.48a13.08,13.08,0,0,0-6.73-1.87H108.73a13,13,0,0,0-6.72,1.87l-5.8,3.48-13.69-7.9.12-6.77a13,13,0,0,0-1.75-6.75L70.07,229.48a13,13,0,0,0-5-4.89l-5.91-3.28V205.5Z" transform="translate(0 -0.05)"/><path class="cls-1" d="M217.53,383a15,15,0,0,0-19.42-1.55l-41.06-64.13a20.31,20.31,0,0,0-37.12,14.45l6.34,36.33a9.88,9.88,0,0,1-14.07,10.57A107.93,107.93,0,0,1,54.61,307l-8-33a26.17,26.17,0,0,0-24.38-19.85h-.37A21,21,0,0,0,0,274.27a20.78,20.78,0,0,0,.09,3A234.6,234.6,0,0,0,119.63,459.66a15.08,15.08,0,0,0,.83,20.37l29.78,29.77a7.5,7.5,0,0,0,10.61,0h0l33.28-33.28a7.5,7.5,0,0,0-10.61-10.6l-28,28L131,469.38l75.86-75.79L231.4,418l-26.68,26.67a7.5,7.5,0,1,0,10.61,10.61l32-32a7.5,7.5,0,0,0,0-10.61h0ZM15,275.77a6,6,0,0,1,5.35-6.58,6.47,6.47,0,0,1,.88,0h.37A11,11,0,0,1,32,277.58l8,33a122.87,122.87,0,0,0,65.58,81.52A24.87,24.87,0,0,0,141,365.47l-6.34-36.33a5.32,5.32,0,0,1,9.72-3.78l42.71,66.71L130.6,448.6C129.7,447.75,27,399.6,15,275.77Z" transform="translate(0 -0.05)"/></svg>