<svg xmlns="http://www.w3.org/2000/svg" viewBox="0 0 45.48 45.63"><defs><style>.cls-1{fill:none;stroke:#fff;stroke-miterlimit:10;}</style></defs><title>feedback</title><g id="Layer_2" data-name="Layer 2"><g id="Layer_1-2" data-name="Layer 1"><path class="cls-1" d="M33.58,8.35h8.88A2.52,2.52,0,0,1,45,10.87V35.21a2.52,2.52,0,0,1-2.52,2.52H3A2.52,2.52,0,0,1,.5,35.21V10.87A2.52,2.52,0,0,1,3,8.35h8.81"/><line class="cls-1" x1="33.63" y1="11.87" x2="44.91" y2="11.87"/><line class="cls-1" x1="0.57" y1="11.87" x2="11.85" y2="11.87"/><line class="cls-1" x1="0.53" y1="34.08" x2="44.95" y2="34.08"/><path class="cls-1" d="M23.41,35.94a.67.67,0,1,0-1.34,0,.67.67,0,1,0,1.34,0Z"/><path class="cls-1" d="M32,45.13H13.47a.72.72,0,0,1-.72-.72v-.8a1.36,1.36,0,0,1,1.36-1.36H31.37a1.36,1.36,0,0,1,1.36,1.36v.8A.72.72,0,0,1,32,45.13Z"/><path class="cls-1" d="M18.75,37.62a4.26,4.26,0,0,1-2.41,4.66"/><path class="cls-1" d="M26.73,37.62a4.26,4.26,0,0,0,2.41,4.66"/><polygon class="cls-1" points="33.77 31.71 11.71 31.71 11.71 0.5 27.54 0.5 33.77 6.99 33.77 31.71"/><line class="cls-1" x1="14.95" y1="11.44" x2="29.77" y2="11.44"/><line class="cls-1" x1="14.95" y1="15.85" x2="29.77" y2="15.85"/><line class="cls-1" x1="14.95" y1="20.06" x2="29.77" y2="20.06"/><line class="cls-1" x1="14.95" y1="24.47" x2="29.77" y2="24.47"/><polyline class="cls-1" points="33.77 6.99 27.54 6.99 27.54 0.5"/></g></g></svg>