<svg id="Capa_1" data-name="Capa 1" xmlns="http://www.w3.org/2000/svg" viewBox="0 0 150.01 150.01"><defs><style>.cls-1{fill:#b0976f;}</style></defs><title>feedback-whatsapp-hover</title><path class="cls-1" d="M75,0A75,75,0,0,0,11.36,114.7c-3,10.38-8.32,30-8.37,30.21a2.89,2.89,0,0,0,.77,2.83,2.92,2.92,0,0,0,2.86.69l29.73-9.15A75,75,0,1,0,75,0Zm0,144.23A68.93,68.93,0,0,1,38.28,133.7a2.9,2.9,0,0,0-1.54-.44,2.63,2.63,0,0,0-.84.13l-26,8c1.9-7,5.33-19.41,7.32-26.34a2.91,2.91,0,0,0-.35-2.37A69.24,69.24,0,1,1,75,144.23Z" transform="translate(0.01 0)"/><path class="cls-1" d="M124,92.67c-5.33-3-9.86-5.92-13.17-8.08-2.53-1.65-4.36-2.85-5.69-3.52-3.75-1.86-6.58-.55-7.66.54a3.13,3.13,0,0,0-.36.44c-3.89,5.83-9,11.41-10.45,11.71-1.71-.27-9.75-4.84-17.73-11.49-8.15-6.79-13.28-13.29-14-17.72C60.14,59.16,62,55.78,62,51.92S52.75,31.37,51.08,29.69s-5.47-1.94-11.26-.79a2.94,2.94,0,0,0-1.47.79c-.71.7-17.11,17.42-9.31,37.69,8.55,22.25,30.51,48.1,58.51,52.3a60.33,60.33,0,0,0,9,.71c16.47,0,26.19-8.29,28.93-24.72A2.9,2.9,0,0,0,124,92.67ZM88.41,114c-29.61-4.44-48.26-33.77-54-48.66s4.8-27.94,7.43-30.91A21.26,21.26,0,0,1,47.18,34c2,2.73,8.77,15.58,9.07,17.89,0,1.52-.49,3.63-6.37,9.5a2.88,2.88,0,0,0-.84,2C49,78.5,80.9,99.45,86.54,99.45c4.91,0,11.3-8.25,14.95-13.62a2.84,2.84,0,0,1,1.07.33c1,.52,2.84,1.7,5.11,3.19,3,2,7,4.57,11.71,7.27C117.24,107,111.26,117.41,88.41,114Z" transform="translate(0.01 0)"/></svg>