<svg xmlns="http://www.w3.org/2000/svg" xmlns:xlink="http://www.w3.org/1999/xlink" viewBox="0 0 56.1 56.1"><defs><style>.cls-1,.cls-3{fill:none;}.cls-2{clip-path:url(#clip-path);}.cls-3{stroke:#505150;stroke-miterlimit:10;stroke-width:1.5px;}.cls-4{fill:#fff;}</style><clipPath id="clip-path" transform="translate(-11.58 -14.17)"><rect class="cls-1" width="79.26" height="84.44"/></clipPath></defs><title>globe</title><g id="Layer_2" data-name="Layer 2"><g id="Layer_1-2" data-name="Layer 1"><g class="cls-2"><g class="cls-2"><path class="cls-3" d="M60.77,42.22c0-15.07-9.46-27.3-21.14-27.3S18.49,27.15,18.49,42.22,28,69.52,39.63,69.52,60.77,57.3,60.77,42.22Z" transform="translate(-11.58 -14.17)"/><path class="cls-3" d="M46.75,42.22c0-15.07-3.19-27.3-7.12-27.3S32.5,27.15,32.5,42.22s3.19,27.3,7.13,27.3S46.75,57.3,46.75,42.22Z" transform="translate(-11.58 -14.17)"/><path class="cls-3" d="M63,28.24C58.89,32.2,50,35,39.63,35S20.37,32.2,16.21,28.24a27.2,27.2,0,0,0-3.88,14h54.6A27.11,27.11,0,0,0,63,28.24Z" transform="translate(-11.58 -14.17)"/><path class="cls-3" d="M12.33,42.22a27.11,27.11,0,0,0,4,14.14c4.2-3.91,13.05-6.61,23.32-6.61S58.75,52.45,63,56.36a27.11,27.11,0,0,0,4-14.14Z" transform="translate(-11.58 -14.17)"/><path class="cls-3" d="M16.31,56.36a27.46,27.46,0,0,0,7.42,8,40.51,40.51,0,0,1,15.9-2.93,40.51,40.51,0,0,1,15.9,2.93,27.58,27.58,0,0,0,7.42-8c-4.2-3.91-13.05-6.61-23.32-6.61S20.51,52.45,16.31,56.36Z" transform="translate(-11.58 -14.17)"/><path class="cls-3" d="M55.53,64.38a40.51,40.51,0,0,0-15.9-2.93,40.6,40.6,0,0,0-15.91,2.93,27.18,27.18,0,0,0,31.81,0Z" transform="translate(-11.58 -14.17)"/><path class="cls-3" d="M63,28.24a27.2,27.2,0,0,0-6.85-7.68A39.54,39.54,0,0,1,39.63,23.8a39.54,39.54,0,0,1-16.56-3.24,27.39,27.39,0,0,0-6.86,7.68C20.37,32.2,29.28,35,39.63,35S58.89,32.2,63,28.24Z" transform="translate(-11.58 -14.17)"/><path class="cls-3" d="M23.07,20.56A39.54,39.54,0,0,0,39.63,23.8a39.54,39.54,0,0,0,16.56-3.24,27.13,27.13,0,0,0-33.12,0Z" transform="translate(-11.58 -14.17)"/><path class="cls-4" d="M56.22,42.62A15.64,15.64,0,1,0,40.59,58.26,15.63,15.63,0,0,0,56.22,42.62" transform="translate(-11.58 -14.17)"/><circle class="cls-3" cx="29.01" cy="28.45" r="15.63"/><polyline class="cls-3" points="19.41 30.39 24.45 34.4 37.27 21.58"/></g></g></g></g></svg>