<svg xmlns="http://www.w3.org/2000/svg" viewBox="0 0 43.5 43.5"><defs><style>.cls-1{fill:none;stroke:#808285;stroke-miterlimit:10;stroke-width:0.75px;}.cls-2{fill:#fff;}</style></defs><title>globe</title><g id="Layer_2" data-name="Layer 2"><g id="Layer_1-2" data-name="Layer 1"><ellipse class="cls-1" cx="21.75" cy="21.75" rx="16.56" ry="21.38"/><path class="cls-1" d="M27.33,21.75C27.33,9.94,24.83.38,21.75.38s-5.58,9.56-5.58,21.37,2.5,21.38,5.58,21.38S27.33,33.56,27.33,21.75Z"/><path class="cls-1" d="M40.09,10.8c-3.25,3.11-10.23,5.26-18.34,5.26S6.67,13.91,3.42,10.8a21.24,21.24,0,0,0-3,11H43.13A21.24,21.24,0,0,0,40.09,10.8Z"/><path class="cls-1" d="M.38,21.75A21.33,21.33,0,0,0,3.49,32.83c3.29-3.07,10.22-5.18,18.26-5.18s15,2.11,18.26,5.18a21.24,21.24,0,0,0,3.12-11.08Z"/><path class="cls-1" d="M3.49,32.83A21.46,21.46,0,0,0,9.3,39.1a31.66,31.66,0,0,1,12.45-2.29A31.75,31.75,0,0,1,34.21,39.1,21.56,21.56,0,0,0,40,32.83c-3.28-3.07-10.21-5.19-18.26-5.19S6.78,29.76,3.49,32.83Z"/><path class="cls-1" d="M34.21,39.1a31.75,31.75,0,0,0-12.46-2.29A31.66,31.66,0,0,0,9.3,39.1a21.26,21.26,0,0,0,24.91,0Z"/><path class="cls-1" d="M40.09,10.8a21.44,21.44,0,0,0-5.37-6,31.09,31.09,0,0,1-13,2.53,31.16,31.16,0,0,1-13-2.53,21.25,21.25,0,0,0-5.36,6c3.25,3.11,10.22,5.26,18.33,5.26S36.84,13.91,40.09,10.8Z"/><path class="cls-1" d="M8.78,4.79a31,31,0,0,0,13,2.53,30.94,30.94,0,0,0,13-2.53,21.28,21.28,0,0,0-25.94,0Z"/><path class="cls-2" d="M34.75,22.07A12.25,12.25,0,1,0,22.5,34.31,12.24,12.24,0,0,0,34.75,22.07"/><path class="cls-1" d="M34.75,22.07A12.25,12.25,0,1,0,22.5,34.31,12.24,12.24,0,0,0,34.75,22.07Z"/><polyline class="cls-1" points="14.98 23.59 18.94 26.73 28.98 16.68"/></g></g></svg>