<svg id="Layer_1" data-name="Layer 1" xmlns="http://www.w3.org/2000/svg" xmlns:xlink="http://www.w3.org/1999/xlink" viewBox="0 0 54.54 28.97"><defs><style>.cls-1{clip-path:url(#clip-path);}.cls-2{fill:none;stroke:#706f71;stroke-miterlimit:10;}</style><clipPath id="clip-path" transform="translate(-0.2 -0.17)"/></defs><title>handshake</title><g class="cls-1"><path class="cls-2" d="M7.94.88S1.68,13.62.91,15l6.52,2.72A30.37,30.37,0,0,0,14.62,5Z" transform="translate(-0.2 -0.17)"/><path class="cls-2" d="M47.19,1.19l-6.38,4s3,8.2,7.33,12.15L54.05,15Z" transform="translate(-0.2 -0.17)"/><path class="cls-2" d="M15.86,8.66a48.5,48.5,0,0,1-4.93,8.84l3,1.78,7.47-8.41a5.45,5.45,0,0,1,1.29-1l2.54-1.49a4.44,4.44,0,0,1,2.25-.61h1.66a.94.94,0,0,1,.81.46l1.08,1.75a2.28,2.28,0,0,0,1.2,1l.59.21A2.65,2.65,0,0,0,35,10.9a.58.58,0,0,0,.22-.77L32.3,4.76a1.87,1.87,0,0,0-1.65-1H26.7a4.63,4.63,0,0,0-2.43.69L19.35,7.55a2.07,2.07,0,0,1-1.24.31l-.82-.06a1.44,1.44,0,0,0-1.43.86" transform="translate(-0.2 -0.17)"/><path class="cls-2" d="M33,28.28l-.15.11a1.08,1.08,0,0,1-1.53-.28l-.86-1.31a1.07,1.07,0,0,1,1.71-1.28l1,1.2A1.08,1.08,0,0,1,33,28.28" transform="translate(-0.2 -0.17)"/><path class="cls-2" d="M43.29,21.79l-.06.05a1.17,1.17,0,0,1-1.63-.16l-.88-1.08a1.16,1.16,0,0,1,1.75-1.52l.94,1a1.15,1.15,0,0,1-.12,1.68" transform="translate(-0.2 -0.17)"/><path class="cls-2" d="M36.85,26.88l-.07.06A1.3,1.3,0,0,1,35,26.76l-1.69-2.07a1.3,1.3,0,0,1,2-1.68L37,25a1.3,1.3,0,0,1-.15,1.87" transform="translate(-0.2 -0.17)"/><path class="cls-2" d="M29.9,24.3a2.16,2.16,0,0,1,1.29-.42,2.12,2.12,0,0,1,.57.07,2.39,2.39,0,0,1,2.41-2.61,2.42,2.42,0,0,1,1.43.46,2.28,2.28,0,0,1,.59-1.35,2.35,2.35,0,0,1,1.74-.77,2.43,2.43,0,0,1,1.35.43,2.42,2.42,0,0,1-.06-.76,2.28,2.28,0,0,1,4-1.32l.68.74,1.79-1.21A43.94,43.94,0,0,1,39.57,7.32a12.34,12.34,0,0,1-3.78,1L36.62,10a1.64,1.64,0,0,1-.69,2.17l-.09,0a4.87,4.87,0,0,1-1.37.43s-2.65,0-3.87-.94a1.93,1.93,0,0,1-.49-.57l-1.12-1a.94.94,0,0,0-.81-.47h-1a2.82,2.82,0,0,0-1.39.36l-1.88.57a3.58,3.58,0,0,0-1,.77L15.5,19.83A1.59,1.59,0,0,0,17.85,22L23,16.44a.48.48,0,0,1,.65,0,.47.47,0,0,1,.06.68l-4.28,5a1.54,1.54,0,0,0,2.3,2.05l3.33-3.57a.49.49,0,0,1,.69,0,.5.5,0,0,1,.06.69l-2.72,3.35a1.53,1.53,0,0,0,2.29,2l2.93-3.08a.49.49,0,0,1,.73.66l-1.53,1.78a1.61,1.61,0,0,0,.13,2.24l0,0a1.61,1.61,0,0,0,2,.14l.29-.19-.59-.89a2.18,2.18,0,0,1,.53-3" transform="translate(-0.2 -0.17)"/><path class="cls-2" d="M40.59,24.36l-.11.13a1.24,1.24,0,0,1-1.8.09l-1.45-1.39a1.23,1.23,0,0,1,1.63-1.85l1.56,1.26a1.24,1.24,0,0,1,.17,1.76" transform="translate(-0.2 -0.17)"/></g></svg>