<svg xmlns="http://www.w3.org/2000/svg" viewBox="0 0 52.53 28.35"><defs><style>.cls-1{fill:none;stroke:#5f5e5e;stroke-miterlimit:10;}</style></defs><title>handshake</title><g id="Layer_2" data-name="Layer 2"><g id="Layer_1-2" data-name="Layer 1"><path class="cls-1" d="M7.75.72S1.48,13.46.71,14.85l6.52,2.72a30.54,30.54,0,0,0,7.2-12.69Z"/><path class="cls-1" d="M45,1.19l-6.38,4s3,8.2,7.34,12.15L51.84,15Z"/><path class="cls-1" d="M14.65,7.17A48.46,48.46,0,0,1,9.72,16l3,1.79,7.47-8.41A5.4,5.4,0,0,1,21.5,8.34L24,6.85a4.51,4.51,0,0,1,2.26-.61H28a1,1,0,0,1,.81.45l1.08,1.75a2.27,2.27,0,0,0,1.21,1l.58.2a2.61,2.61,0,0,0,2.15-.19A.57.57,0,0,0,34,8.65L31.08,3.27a1.89,1.89,0,0,0-1.65-1H25.48a4.52,4.52,0,0,0-2.42.7L18.13,6.07a2.06,2.06,0,0,1-1.23.31l-.83-.06A1.41,1.41,0,0,0,14.65,7.17Z"/><path class="cls-1" d="M31.36,27.34l-.15.11a1.07,1.07,0,0,1-1.53-.27l-.86-1.31a1.07,1.07,0,0,1,1.71-1.28l1,1.2A1.07,1.07,0,0,1,31.36,27.34Z"/><path class="cls-1" d="M41.68,20.71l-.06.05A1.16,1.16,0,0,1,40,20.59l-.88-1.07A1.16,1.16,0,0,1,40.87,18l.93,1A1.15,1.15,0,0,1,41.68,20.71Z"/><path class="cls-1" d="M35.28,26,35.2,26a1.29,1.29,0,0,1-1.83-.18l-1.69-2.07a1.3,1.3,0,0,1,2-1.68l1.76,2A1.3,1.3,0,0,1,35.28,26Z"/><path class="cls-1" d="M28.42,23.51a2.23,2.23,0,0,1,1.29-.42,2.12,2.12,0,0,1,.57.08A2.42,2.42,0,0,1,34.12,21a2.35,2.35,0,0,1,2.33-2.13,2.32,2.32,0,0,1,1.35.44,2.48,2.48,0,0,1-.06-.77,2.28,2.28,0,0,1,3.95-1.31l.68.74,1.8-1.22A43.79,43.79,0,0,1,38.09,6.54a12.55,12.55,0,0,1-3.78,1l.83,1.68a1.64,1.64,0,0,1-.69,2.17l-.09.05a5.2,5.2,0,0,1-1.37.42,5,5,0,0,1-2.87-.93,2.06,2.06,0,0,1-.49-.57l-1.12-2a.93.93,0,0,0-.81-.47h-1a3,3,0,0,0-1.39.35L22.46,9.82a3.58,3.58,0,0,0-1,.77L14,19.05a1.59,1.59,0,0,0,2.35,2.13l5.15-5.52a.47.47,0,0,1,.66,0,.47.47,0,0,1,.05.67l-4.28,5a1.54,1.54,0,0,0,.22,2.21,1.55,1.55,0,0,0,2.08-.16l3.33-3.58a.5.5,0,0,1,.75.65l-2.72,3.36a1.52,1.52,0,0,0,2.29,2l2.93-3.08a.5.5,0,0,1,.71,0,.49.49,0,0,1,0,.67L26,25.15a1.6,1.6,0,0,0,.13,2.23l0,0a1.6,1.6,0,0,0,2,.15l.29-.19-.59-.9A2.18,2.18,0,0,1,28.42,23.51Z"/><path class="cls-1" d="M39,23.3l-.12.13a1.22,1.22,0,0,1-1.79.09L35.6,22.13a1.23,1.23,0,0,1,1.63-1.85l1.56,1.26A1.24,1.24,0,0,1,39,23.3Z"/></g></g></svg>