<svg xmlns="http://www.w3.org/2000/svg" viewBox="0 0 39.84 35.38"><defs><style>.cls-1{fill:none;stroke:#808285;stroke-miterlimit:10;stroke-width:0.75px;}</style></defs><title>Asset 7</title><g id="Layer_2" data-name="Layer 2"><g id="Layer_1-2" data-name="Layer 1"><rect class="cls-1" x="4.29" y="4.92" width="31.18" height="18.72"/><rect class="cls-1" x="0.38" y="0.38" width="39.09" height="34.63" rx="3.27"/><rect class="cls-1" x="4.29" y="27.31" width="9.12" height="3.24"/><rect class="cls-1" x="18.24" y="27.31" width="9.12" height="3.24"/><path class="cls-1" d="M35.36,28.75a1.81,1.81,0,1,0-1.81,1.81A1.81,1.81,0,0,0,35.36,28.75Z"/><polyline class="cls-1" points="31.3 15.67 28.42 15.67 26.98 13.4 25.04 17.07 22.47 9.83 20.29 15.62 15.43 15.62"/><path class="cls-1" d="M12.61,18.9,8.79,14.46A2.17,2.17,0,0,1,8.5,12a2.11,2.11,0,0,1,1.65-1c1.5-.12,2.46,1.62,2.46,1.62s1-1.74,2.45-1.62a2.11,2.11,0,0,1,1.65,1,2.17,2.17,0,0,1-.29,2.51Z"/></g></g></svg>