<svg xmlns="http://www.w3.org/2000/svg" viewBox="0 0 39.59 35.13"><defs><style>.cls-1{fill:none;stroke:#808285;stroke-miterlimit:10;stroke-width:0.5px;}</style></defs><title>heartbeat</title><g id="Layer_2" data-name="Layer 2"><g id="Layer_1-2" data-name="Layer 1"><g id="Layer_1-2-2" data-name="Layer 1-2"><rect class="cls-1" x="4.16" y="4.79" width="31.18" height="18.72"/><rect class="cls-1" x="0.25" y="0.25" width="39.09" height="34.63" rx="3.27"/><rect class="cls-1" x="4.16" y="27.18" width="9.12" height="3.24"/><rect class="cls-1" x="18.11" y="27.18" width="9.12" height="3.24"/><path class="cls-1" d="M35.23,28.62a1.81,1.81,0,1,0-1.81,1.81,1.81,1.81,0,0,0,1.81-1.81Z"/><polyline class="cls-1" points="31.17 15.54 28.29 15.54 26.85 13.27 24.91 16.94 22.34 9.7 20.16 15.49 15.3 15.49"/><path class="cls-1" d="M12.48,18.77,8.66,14.33a2.17,2.17,0,0,1-.29-2.46,2.12,2.12,0,0,1,1.65-1c1.5-.12,2.46,1.62,2.46,1.62s1-1.74,2.45-1.62a2.12,2.12,0,0,1,1.65,1,2.18,2.18,0,0,1-.29,2.51Z"/></g></g></g></svg>