<svg xmlns="http://www.w3.org/2000/svg" viewBox="0 0 60.3 25.85"><defs><style>.cls-1{fill:#808285;}.cls-2{fill:none;stroke:#808285;stroke-miterlimit:10;stroke-width:0.75px;}</style></defs><title>Asset 5</title><g id="Layer_2" data-name="Layer 2"><g id="Layer_1-2" data-name="Layer 1"><path class="cls-1" d="M25.08.8V.49H22.6v.3C19.7.7.8.11,0,0,0,.68.68.74,2.42.93,4,1.1,19.46,1.86,22.6,2V5.18l2.55-.07L25.08,2c2.65-.14,18.78-.93,20.37-1.1S47.87.68,47.87,0c-.82.12-20.68.73-22.79.8"/><path class="cls-1" d="M9,22.81a.48.48,0,0,1,.58.32,2.5,2.5,0,0,0,2.34,1.75h3.47l.45-4c.31.07.73,0,1,.06l-.5,4h8.15l-.31-4.2c.31-.07.75,0,1.05-.07l.27,4.27h4.95a.47.47,0,1,1,0,.94h-5s-10.15.07-10.21,0H11.88a3.42,3.42,0,0,1-3.24-2.43A.47.47,0,0,1,9,22.81"/><path class="cls-2" d="M58.15,3.16l-3.78,8.36-22-1.24C32.2,10,31.77,6,30,5.45c-2.23-.56-8.67-.25-9.78.06S18.64,7.8,18.64,7.8l-2.17-.12a6.64,6.64,0,0,0-4.21,1.11,53,53,0,0,0-4.33,4.4c-3.78,3.72-1.92,5,.43,6.19,5.33,2.29,16,1.36,17.71,1.05s4.4-2.6,6.56-3l5.08-1,16.1-2.23s.31,1.18,1,3.72,2.17.31,2.17.31l-.37-4.28L57,12.2l2.79-9.41Z"/><path class="cls-2" d="M14.93,9.17a2.45,2.45,0,0,0-2.78.91c-1.39,1.55-3.36,3.69-3.36,3.69l4.81.48Z"/></g></g></svg>