<svg id="Layer_1" data-name="Layer 1" xmlns="http://www.w3.org/2000/svg" viewBox="0 0 126.91 168.43"><defs><style>.cls-1,.cls-3{fill:none;}.cls-1{stroke:#706f71;stroke-miterlimit:10;}.cls-2{fill:#706f71;}</style></defs><title>hospital</title><path class="cls-1" d="M16.4,11.83a5.61,5.61,0,1,0-5.6-5.61,5.61,5.61,0,0,0,5.6,5.61" transform="translate(46.15 91.54)"/><path class="cls-2" d="M14.63,4.26a3,3,0,0,1,4.26-.2,2.55,2.55,0,0,0-3,.58,2.52,2.52,0,0,0-.14,3,2.6,2.6,0,0,0,3.16.67,2.91,2.91,0,0,1-3.47.51,3,3,0,0,1-.8-4.59" transform="translate(46.15 91.54)"/><path class="cls-1" d="M30.28,46V10.12H23.14a7.78,7.78,0,0,1-13.47,0H2.52V46H.72v1.88H32.09V46ZM9.82,31.05H6.05V27.28H9.82Zm0-8.51H6.05V18.77H9.82Zm4.85-3.77h3.77v3.77H14.67Zm0,8.52h3.77v3.76H14.67Zm1.14,18.13H11.29V37.66h4.52Zm5.71,0H17V37.66h4.52Zm5.24-14.37H23V27.28h3.77Zm0-8.51H23V18.77h3.77Z" transform="translate(46.15 91.54)"/><rect class="cls-3" width="126.91" height="168.43"/></svg>