<svg id="Layer_1" data-name="Layer 1" xmlns="http://www.w3.org/2000/svg" xmlns:xlink="http://www.w3.org/1999/xlink" viewBox="0 0 51.58 107.07"><defs><style>.cls-1{clip-path:url(#clip-path);}.cls-2,.cls-3{fill:#706f71;}.cls-3{stroke:#fff;}.cls-3,.cls-4{stroke-miterlimit:10;}.cls-4{fill:none;stroke:#706f71;}</style><clipPath id="clip-path" transform="translate(9.86 58.41)"/></defs><title>hospital</title><g class="cls-1"><path class="cls-2" d="M-2.82-57.18S-9.09-44.44-9.86-43l6.52,2.72A30.54,30.54,0,0,0,3.86-53Z" transform="translate(9.86 58.41)"/><path class="cls-3" d="M34.17-57.69l-6.39,4s3,8.2,7.34,12.15L41-43.93Z" transform="translate(9.86 58.41)"/><path class="cls-2" d="M4.08-50.73A48.63,48.63,0,0,1-.86-41.89l3,1.79,7.48-8.41a5.21,5.21,0,0,1,1.28-1.05L13.47-51a4.48,4.48,0,0,1,2.26-.61h1.65a.94.94,0,0,1,.81.46l1.08,1.75a2.26,2.26,0,0,0,1.21,1l.58.21a2.65,2.65,0,0,0,2.15-.2.58.58,0,0,0,.22-.77l-2.92-5.37a1.87,1.87,0,0,0-1.65-1H14.91a4.63,4.63,0,0,0-2.43.69L7.56-51.83a2.07,2.07,0,0,1-1.24.31l-.82-.06a1.41,1.41,0,0,0-1.42.85" transform="translate(9.86 58.41)"/><path class="cls-2" d="M20.54-31.54l-.15.12a1.07,1.07,0,0,1-1.52-.28L18-33a1.07,1.07,0,0,1,.27-1.45,1.06,1.06,0,0,1,1.44.17l1,1.2a1.06,1.06,0,0,1-.19,1.55" transform="translate(9.86 58.41)"/><path class="cls-2" d="M30.87-38.17l-.06.05a1.17,1.17,0,0,1-1.63-.16l-.88-1.08A1.15,1.15,0,0,1,28.46-41a1.16,1.16,0,0,1,1.59.11l.94,1a1.16,1.16,0,0,1-.12,1.68" transform="translate(9.86 58.41)"/><path class="cls-2" d="M24.46-32.9l-.07.06A1.29,1.29,0,0,1,22.56-33l-1.7-2.06a1.31,1.31,0,0,1,.19-1.84,1.31,1.31,0,0,1,1.8.15l1.76,2a1.29,1.29,0,0,1-.15,1.86" transform="translate(9.86 58.41)"/><path class="cls-2" d="M17.61-35.37a2.19,2.19,0,0,1,1.29-.42,2.1,2.1,0,0,1,.56.08,2.42,2.42,0,0,1,.88-2.07,2.43,2.43,0,0,1,1.53-.55,2.42,2.42,0,0,1,1.43.47,2.38,2.38,0,0,1,.59-1.35A2.37,2.37,0,0,1,25.64-40a2.3,2.3,0,0,1,1.34.43,2.21,2.21,0,0,1-.05-.77,2.25,2.25,0,0,1,.82-1.53,2.25,2.25,0,0,1,1.44-.52,2.28,2.28,0,0,1,1.68.74l.68.74,1.8-1.21a43.81,43.81,0,0,1-6.07-10.24,12.34,12.34,0,0,1-3.78,1l.83,1.68a1.65,1.65,0,0,1-.69,2.17l-.09,0a5.69,5.69,0,0,1-1.38.43A5.07,5.07,0,0,1,19.31-48a1.91,1.91,0,0,1-.49-.57l-1.13-2a.92.92,0,0,0-.81-.47h-1a2.89,2.89,0,0,0-1.38.35L11.65-49a3.4,3.4,0,0,0-1,.76L3.2-39.83a1.6,1.6,0,0,0,.16,2.26,1.58,1.58,0,0,0,2.19-.13l5.16-5.52a.48.48,0,0,1,.65,0,.49.49,0,0,1,.06.68l-4.29,5a1.54,1.54,0,0,0,.22,2.21,1.53,1.53,0,0,0,2.08-.16l3.33-3.58a.51.51,0,0,1,.7,0,.5.5,0,0,1,0,.69l-2.72,3.35a1.52,1.52,0,0,0,.29,2.19,1.5,1.5,0,0,0,2-.18L16-36.18a.5.5,0,0,1,.71,0,.49.49,0,0,1,0,.66l-1.54,1.79a1.6,1.6,0,0,0,.13,2.23l0,0a1.6,1.6,0,0,0,2,.15l.29-.19-.59-.89a2.19,2.19,0,0,1,.54-3" transform="translate(9.86 58.41)"/><path class="cls-2" d="M28.14-35.58l-.11.13a1.24,1.24,0,0,1-1.8.1l-1.45-1.4a1.22,1.22,0,0,1-.06-1.71,1.23,1.23,0,0,1,1.69-.13L28-37.34a1.23,1.23,0,0,1,.17,1.76" transform="translate(9.86 58.41)"/><path class="cls-4" d="M16.4,12.13a5.61,5.61,0,1,0-5.6-5.61,5.61,5.61,0,0,0,5.6,5.61" transform="translate(9.86 58.41)"/><path class="cls-2" d="M14.63,4.55a3,3,0,0,1,4.26-.19,2.53,2.53,0,0,0-3,.58,2.5,2.5,0,0,0-.14,3,2.59,2.59,0,0,0,3.16.67,2.91,2.91,0,0,1-3.47.52,3,3,0,0,1-.8-4.6" transform="translate(9.86 58.41)"/><path class="cls-4" d="M30.28,46.28V10.42H23.14a7.78,7.78,0,0,1-13.47,0H2.52V46.28H.72v1.88H32.09V46.28ZM9.82,31.35H6.05V27.58H9.82Zm0-8.51H6.05V19.07H9.82Zm4.85-3.77h3.77v3.77H14.67Zm0,8.51h3.77v3.77H14.67Zm1.14,18.13H11.29V38h4.52Zm5.71,0H17V38h4.52Zm5.24-14.36H23V27.58h3.77Zm0-8.51H23V19.07h3.77Z" transform="translate(9.86 58.41)"/></g></svg>