<svg id="Layer_1" data-name="Layer 1" xmlns="http://www.w3.org/2000/svg" xmlns:xlink="http://www.w3.org/1999/xlink" viewBox="0 0 31.37 47.25"><defs><style>.cls-1{fill:none;}.cls-2{clip-path:url(#clip-path);}.cls-3{fill:#706f71;}</style><clipPath id="clip-path" transform="translate(-0.38 -0.74)"><rect class="cls-1" x="-46.49" y="-91.41" width="126.91" height="168.43"/></clipPath></defs><title>hospital</title><g class="cls-2"><path class="cls-3" d="M16.06,12a5.61,5.61,0,1,0-5.61-5.61A5.61,5.61,0,0,0,16.06,12M14.29,4.38a3,3,0,0,1,4.26-.19,2.53,2.53,0,0,0-3,.58,2.5,2.5,0,0,0-.14,3,2.59,2.59,0,0,0,3.16.67A2.91,2.91,0,0,1,15.09,9a3,3,0,0,1-.8-4.6" transform="translate(-0.38 -0.74)"/><path class="cls-3" d="M29.94,46.11V10.25H22.8a7.78,7.78,0,0,1-13.48,0H2.18V46.11H.38V48H31.75V46.11ZM9.47,31.18H5.71V27.41H9.47Zm0-8.51H5.71V18.9H9.47Zm4.86-3.77H18.1v3.77H14.33Zm0,8.51H18.1v3.77H14.33Zm1.14,18.13H11V37.78h4.52Zm5.71,0H16.66V37.78h4.52Zm5.24-14.36H22.65V27.41h3.77Zm0-8.51H22.65V18.9h3.77Z" transform="translate(-0.38 -0.74)"/></g></svg>