<svg xmlns="http://www.w3.org/2000/svg" viewBox="0 0 32.38 48.24"><defs><style>.cls-1{fill:none;stroke:#5f5e5e;stroke-miterlimit:10;}.cls-2{fill:#5f5e5e;}</style></defs><title>hospital</title><g id="Layer_2" data-name="Layer 2"><g id="Layer_1-2" data-name="Layer 1"><circle class="cls-1" cx="16.19" cy="6.11" r="5.61" transform="translate(-0.86 3.17) rotate(-10.9)"/><path class="cls-1" d="M30.07,45.87V10H22.93A7.78,7.78,0,0,1,9.45,10H2.31V45.87H.5v1.87H31.88V45.87ZM9.6,30.94H5.83V27.17H9.6Zm0-8.52H5.83V18.66H9.6Zm4.86-3.76h3.77v3.76H14.46Zm0,8.51h3.77v3.77H14.46ZM15.59,45.3H11.07V37.54h4.52Zm5.71,0H16.78V37.54H21.3Zm5.24-14.36H22.78V27.17h3.76Zm0-8.52H22.78V18.66h3.76Z"/><path class="cls-2" d="M14.17,3.9a3,3,0,0,1,4.26-.2,2.55,2.55,0,0,0-3,.58,2.51,2.51,0,0,0-.13,3A2.58,2.58,0,0,0,18.45,8,2.94,2.94,0,0,1,15,8.5a3,3,0,0,1-.8-4.6"/></g></g></svg>