<svg xmlns="http://www.w3.org/2000/svg" viewBox="0 0 35.82 40.54"><defs><style>.cls-1{fill:none;stroke:#808285;stroke-miterlimit:10;stroke-width:0.75px;}</style></defs><title>icon-3</title><g id="Layer_2" data-name="Layer 2"><g id="Layer_1-2" data-name="Layer 1"><path class="cls-1" d="M21.27,19.8,14.55,12A3.85,3.85,0,0,1,14,7.57,3.7,3.7,0,0,1,17,5.87c2.65-.21,4.32,2.85,4.32,2.85S23,5.66,25.59,5.87a3.69,3.69,0,0,1,2.91,1.7A3.84,3.84,0,0,1,28,12Z"/><path class="cls-1" d="M6.27,29.48l4.94-4.94a7.23,7.23,0,0,1,5.39-2.11l10.54.44a.64.64,0,0,1,.62.74A2.66,2.66,0,0,1,27,25.13a4.56,4.56,0,0,1-3.11,1.34L20.13,27"/><path class="cls-1" d="M20.13,27l3.94,0a3.32,3.32,0,0,0,2.34-1l2.81-2.82a7,7,0,0,1,4.75-2l.9,0a.55.55,0,0,1,.41.95L27,30.38a3.31,3.31,0,0,1-2,1l-10.38.92a3.16,3.16,0,0,0-2,.92l-1.31,1.31"/><rect class="cls-1" x="3.95" y="27.85" width="5.52" height="11.95" transform="translate(-21.96 14.65) rotate(-45)"/><path class="cls-1" d="M33.73,12.83a12.46,12.46,0,0,0-24.91,0"/></g></g></svg>