<svg id="Layer_1" data-name="Layer 1" xmlns="http://www.w3.org/2000/svg" viewBox="0 0 494 423.86"><defs><style>.cls-1{fill:#fff;stroke:#808285;stroke-miterlimit:10;stroke-width:2px;}</style></defs><title>icon-7</title><g id="Layer_1-2" data-name="Layer 1-2"><path class="cls-1" d="M390,151.44H339.86a6,6,0,0,0-5.09,2.81l-16.28,26L302,148.63a6,6,0,0,0-11,.75l-25.85,71.83-26.59-76.58a6,6,0,0,0-10.64-1.4L204,178.45l-21.6-73.23A6,6,0,0,0,171,105l-27.4,79H106.82a6,6,0,0,0,0,12h41.05a6,6,0,0,0,5.67-4l22.67-65.33,19.9,67.46a6,6,0,0,0,10.72,1.62l24.33-35.83,28.27,81.32a6,6,0,0,0,5.63,4h0a6,6,0,0,0,5.64-4l27-74.93,15,28.77a6,6,0,0,0,10.4.41l20.08-32.06H390a6,6,0,1,0,0-12Z" transform="translate(-1.43 -1.77)"/><path class="cls-1" d="M450.43,2.77h-404a44,44,0,0,0-44,44V351.54a44,44,0,0,0,44,44h9.63v23.09a6,6,0,0,0,6,6H128.9a6,6,0,0,0,6-6h0V395.54H362v23.09a6,6,0,0,0,6,6H434.8a6,6,0,0,0,6-6h0V395.54h9.63a44.06,44.06,0,0,0,44-44V46.77A44.06,44.06,0,0,0,450.43,2.77ZM122.9,412.63H68.06V395.54H122.9Zm305.9,0H374V395.54H428.8Zm53.63-61.09a32,32,0,0,1-32,32h-404a32,32,0,0,1-32-32V311.35h468ZM56.17,299.35V73.7a14,14,0,0,1,14-14H426.69a14,14,0,0,1,14,14h0V299.4Zm426.26,0H452.69V73.7a26,26,0,0,0-26-26H70.17a26,26,0,0,0-26,26V299.4H14.43V46.77a32,32,0,0,1,32-32h404a32,32,0,0,1,32,32Z" transform="translate(-1.43 -1.77)"/><path class="cls-1" d="M47.58,364.38a16.08,16.08,0,1,0-16-16.16v.06h0A16.07,16.07,0,0,0,47.58,364.38Zm0-20.15a4.08,4.08,0,1,1-4,4.16v-.07h0A4.06,4.06,0,0,1,47.58,344.23Z" transform="translate(-1.43 -1.77)"/><path class="cls-1" d="M94.34,364.38a16.08,16.08,0,1,0-16-16.16v.06h0A16.08,16.08,0,0,0,94.34,364.38Zm0-20.15a4.08,4.08,0,1,1-4,4.16v-.06h0A4.07,4.07,0,0,1,94.34,344.23Z" transform="translate(-1.43 -1.77)"/><path class="cls-1" d="M290.24,364.38a16.08,16.08,0,1,0-16.05-16.11h0A16.08,16.08,0,0,0,290.24,364.38Zm0-20.15a4.08,4.08,0,1,1-4.05,4.11h0a4.07,4.07,0,0,1,4-4.1Z" transform="translate(-1.43 -1.77)"/><path class="cls-1" d="M337,364.38A16.08,16.08,0,1,0,321,348.28h0A16.08,16.08,0,0,0,337,364.38Zm0-20.15a4.08,4.08,0,1,1-4.06,4.1h0a4.07,4.07,0,0,1,4-4.1Z" transform="translate(-1.43 -1.77)"/><path class="cls-1" d="M382.6,364.38a16.08,16.08,0,1,0-16.05-16.11h0a16.07,16.07,0,0,0,16.05,16.11Zm0-20.15a4.08,4.08,0,1,1-4.05,4.11h0a4.07,4.07,0,0,1,4-4.1Z" transform="translate(-1.43 -1.77)"/><path class="cls-1" d="M442.22,364.38a16.08,16.08,0,1,0-16.05-16.11h0a16.07,16.07,0,0,0,16.05,16.11Zm0-20.15a4.08,4.08,0,1,1-4.05,4.11h0a4.07,4.07,0,0,1,4-4.1Z" transform="translate(-1.43 -1.77)"/><path class="cls-1" d="M73.94,72.35a6,6,0,0,0-6,6h0V80.7a6,6,0,0,0,12,0V78.34A6,6,0,0,0,73.94,72.35Z" transform="translate(-1.43 -1.77)"/><path class="cls-1" d="M73.94,91.91a6,6,0,0,0-6,6v60.7a6,6,0,0,0,12,0V97.91A6,6,0,0,0,73.94,91.91Z" transform="translate(-1.43 -1.77)"/></g></svg>