<svg xmlns="http://www.w3.org/2000/svg" viewBox="0 0 47.61 42.09"><defs><style>.cls-1{fill:#fff;}.cls-2{fill:none;stroke:#808285;stroke-miterlimit:10;stroke-width:0.75px;}</style></defs><title>icon-4</title><g id="Layer_2" data-name="Layer 2"><g id="Layer_1-2" data-name="Layer 1"><path class="cls-1" d="M11.82,18.71A4.05,4.05,0,0,0,8,14.5a4.06,4.06,0,0,0-3.87,4.21A4.05,4.05,0,0,0,8,22.92a4,4,0,0,0,3.87-4.21"/><path class="cls-2" d="M11.82,18.71A4.05,4.05,0,0,0,8,14.5a4.06,4.06,0,0,0-3.87,4.21A4.05,4.05,0,0,0,8,22.92,4,4,0,0,0,11.82,18.71Z"/><path class="cls-1" d="M15.53,31.21v-.9a2.49,2.49,0,0,0-.48-1.48,7.88,7.88,0,0,0-6.39-3.11H7.24A7.89,7.89,0,0,0,.85,28.83a2.55,2.55,0,0,0-.47,1.48v.9"/><path class="cls-2" d="M15.53,31.21v-.9a2.49,2.49,0,0,0-.48-1.48,7.88,7.88,0,0,0-6.39-3.11H7.24A7.89,7.89,0,0,0,.85,28.83a2.55,2.55,0,0,0-.47,1.48v.9"/><path class="cls-1" d="M43.52,18.71a3.88,3.88,0,1,0-7.74,0,3.88,3.88,0,1,0,7.74,0"/><path class="cls-2" d="M43.52,18.71a3.88,3.88,0,1,0-7.74,0,3.88,3.88,0,1,0,7.74,0Z"/><path class="cls-1" d="M47.23,31.21v-.9a2.49,2.49,0,0,0-.48-1.48,7.87,7.87,0,0,0-6.39-3.11H38.94a7.89,7.89,0,0,0-6.39,3.11,2.48,2.48,0,0,0-.47,1.48v.9"/><path class="cls-2" d="M47.23,31.21v-.9a2.49,2.49,0,0,0-.48-1.48,7.87,7.87,0,0,0-6.39-3.11H38.94a7.89,7.89,0,0,0-6.39,3.11,2.48,2.48,0,0,0-.47,1.48v.9"/><path class="cls-1" d="M27.67,13.23A4,4,0,0,0,23.8,9a4.05,4.05,0,0,0-3.87,4.21,4.06,4.06,0,0,0,3.87,4.21,4.05,4.05,0,0,0,3.87-4.21"/><path class="cls-2" d="M27.67,13.23A4,4,0,0,0,23.8,9a4.05,4.05,0,0,0-3.87,4.21,4.06,4.06,0,0,0,3.87,4.21A4.05,4.05,0,0,0,27.67,13.23Z"/><path class="cls-1" d="M31.38,25.72v-.9a2.46,2.46,0,0,0-.48-1.47,7.84,7.84,0,0,0-6.39-3.11H23.09a7.87,7.87,0,0,0-6.39,3.11,2.46,2.46,0,0,0-.48,1.47v.9"/><path class="cls-2" d="M31.38,25.72v-.9a2.46,2.46,0,0,0-.48-1.47,7.84,7.84,0,0,0-6.39-3.11H23.09a7.87,7.87,0,0,0-6.39,3.11,2.46,2.46,0,0,0-.48,1.47v.9"/><path class="cls-2" d="M7.27,33.32a20.68,20.68,0,0,0,33.26,0"/><path class="cls-2" d="M42.79,12.64A20.68,20.68,0,0,0,5,12.67"/></g></g></svg>