<svg id="Layer_1" data-name="Layer 1" xmlns="http://www.w3.org/2000/svg" viewBox="0 0 499 428.86"><defs><style>.cls-1{fill:#fff;stroke:#808285;stroke-miterlimit:10;stroke-width:7px;}</style></defs><title>icon-7</title><g id="Layer_1-2" data-name="Layer 1-2"><path class="cls-1" d="M391.57,153.48H341.39a6,6,0,0,0-5.09,2.81l-16.28,26-16.51-31.62a6,6,0,0,0-11,.75l-25.85,71.83-26.59-76.58a6,6,0,0,0-10.64-1.4l-23.87,35.22L184,107.26a6,6,0,0,0-11.42-.27l-27.4,79H108.35a6,6,0,0,0,0,12H149.4a6,6,0,0,0,5.67-4l22.67-65.33,19.9,67.46a6,6,0,0,0,10.72,1.62l24.33-35.83L261,243.23a6,6,0,0,0,5.63,4h0a6,6,0,0,0,5.64-4l27-74.93,15,28.77a6,6,0,0,0,8.09,2.54,5.92,5.92,0,0,0,2.31-2.13l20.08-32.06h46.86a6,6,0,0,0,0-12Z" transform="translate(-0.46 -1.31)"/><path class="cls-1" d="M452,4.81H48a44.06,44.06,0,0,0-44,44V353.58a44,44,0,0,0,44,44h9.63v23.09a6,6,0,0,0,6,6h66.84a6,6,0,0,0,6-6h0V397.58H363.49v23.09a6,6,0,0,0,6,6h66.84a6,6,0,0,0,6-6h0V397.58H452a44,44,0,0,0,44-44V48.81A44.06,44.06,0,0,0,452,4.81ZM124.43,414.67H69.59V397.58h54.84Zm305.9,0H375.49V397.58h54.84ZM484,353.58a32,32,0,0,1-32,32H48a32,32,0,0,1-32-32V313.39H484ZM57.7,301.39V75.74a14,14,0,0,1,14-14H428.22a14,14,0,0,1,14,14h0v225.7Zm426.26,0H454.22V75.74a26,26,0,0,0-26-26H71.7a26,26,0,0,0-26,26v225.7H16V48.81a32,32,0,0,1,32-32H452a32,32,0,0,1,32,32Z" transform="translate(-0.46 -1.31)"/><path class="cls-1" d="M49.11,366.42a16.08,16.08,0,1,0-16-16.16v.06h0A16.06,16.06,0,0,0,49.11,366.42Zm0-20.15a4.08,4.08,0,1,1-4,4.16v-.07h0A4.08,4.08,0,0,1,49.11,346.27Z" transform="translate(-0.46 -1.31)"/><path class="cls-1" d="M95.87,366.42a16.08,16.08,0,1,0-16-16.16v.06h0A16.07,16.07,0,0,0,95.87,366.42Zm0-20.15a4.08,4.08,0,1,1-4,4.16v-.06h0A4.07,4.07,0,0,1,95.87,346.27Z" transform="translate(-0.46 -1.31)"/><path class="cls-1" d="M291.77,366.42a16.08,16.08,0,1,0-16-16.11h0A16.09,16.09,0,0,0,291.77,366.42Zm0-20.15a4.08,4.08,0,1,1-4,4.11h0a4.07,4.07,0,0,1,4-4.1Z" transform="translate(-0.46 -1.31)"/><path class="cls-1" d="M338.54,366.42a16.08,16.08,0,1,0-16.06-16.1h0A16.08,16.08,0,0,0,338.54,366.42Zm0-20.15a4.08,4.08,0,1,1-4.06,4.1h0a4.07,4.07,0,0,1,4-4.1Z" transform="translate(-0.46 -1.31)"/><path class="cls-1" d="M384.13,366.42a16.08,16.08,0,1,0-16.05-16.11h0a16.07,16.07,0,0,0,16.05,16.11Zm0-20.15a4.08,4.08,0,1,1-4.05,4.11h0a4.07,4.07,0,0,1,4-4.1Z" transform="translate(-0.46 -1.31)"/><path class="cls-1" d="M443.75,366.42a16.08,16.08,0,1,0-16.05-16.11h0a16.07,16.07,0,0,0,16.05,16.11Zm0-20.15a4.08,4.08,0,1,1-4.05,4.11h0a4.07,4.07,0,0,1,4-4.1Z" transform="translate(-0.46 -1.31)"/><path class="cls-1" d="M75.47,74.39a6,6,0,0,0-6,6h0v2.35a6,6,0,0,0,12,0V80.38A6,6,0,0,0,75.47,74.39Z" transform="translate(-0.46 -1.31)"/><path class="cls-1" d="M75.47,94a6,6,0,0,0-6,6v60.7a6,6,0,0,0,12,0V100A6,6,0,0,0,75.47,94Z" transform="translate(-0.46 -1.31)"/></g></svg>