<svg xmlns="http://www.w3.org/2000/svg" viewBox="0 0 492 421.86"><defs><style>.cls-1{fill:#808285;}</style></defs><title>icon-7</title><g id="Layer_2" data-name="Layer 2"><g id="Layer_1-2" data-name="Layer 1"><path class="cls-1" d="M387.61,148.67H337.43a6,6,0,0,0-5.09,2.81l-16.28,26-16.51-31.62a6,6,0,0,0-11,.75L262.7,218.44l-26.59-76.58a6,6,0,0,0-10.64-1.4L201.6,175.68,180,102.45a6,6,0,0,0-11.42-.27l-27.4,79H104.39a6,6,0,1,0,0,12h41.05a6,6,0,0,0,5.67-4l22.67-65.33,19.9,67.46a6,6,0,0,0,10.72,1.62l24.33-35.83L257,238.42a6,6,0,0,0,5.63,4h0a6,6,0,0,0,5.64-4l27-74.93,15,28.77a6,6,0,0,0,10.4.41l20.08-32.06h46.86a6,6,0,0,0,0-12Z"/><path class="cls-1" d="M448,0H44A44.05,44.05,0,0,0,0,44V348.77a44.05,44.05,0,0,0,44,44h9.63v23.09a6,6,0,0,0,6,6h66.84a6,6,0,0,0,6-6h0V392.77H359.53v23.09a6,6,0,0,0,6,6h66.84a6,6,0,0,0,6-6h0V392.77H448a44.05,44.05,0,0,0,44-44V44A44.05,44.05,0,0,0,448,0ZM120.47,409.86H65.63V392.77h54.84Zm305.9,0H371.53V392.77h54.84ZM480,348.77a32,32,0,0,1-32,32H44a32,32,0,0,1-32-32V308.58H480ZM53.74,296.58V70.93a14,14,0,0,1,14-14H424.26a14,14,0,0,1,14,14h0v225.7Zm426.26,0H450.26V70.93a26,26,0,0,0-26-26H67.74a26,26,0,0,0-26,26v225.7H12V44A32,32,0,0,1,44,12H448a32,32,0,0,1,32,32Z"/><path class="cls-1" d="M45.15,361.61a16.08,16.08,0,1,0-16-16.16v.06h0A16.07,16.07,0,0,0,45.15,361.61Zm0-20.15a4.08,4.08,0,1,1-4,4.16v-.07h0A4.07,4.07,0,0,1,45.15,341.46Z"/><path class="cls-1" d="M91.91,361.61a16.08,16.08,0,1,0-16-16.16v.06h0A16.09,16.09,0,0,0,91.91,361.61Zm0-20.15a4.08,4.08,0,1,1-4,4.16v-.06h0A4.07,4.07,0,0,1,91.91,341.46Z"/><path class="cls-1" d="M287.81,361.61a16.08,16.08,0,1,0-16.05-16.11h0A16.09,16.09,0,0,0,287.81,361.61Zm0-20.15a4.08,4.08,0,1,1-4.05,4.11h0a4.07,4.07,0,0,1,4-4.1Z"/><path class="cls-1" d="M334.58,361.61a16.08,16.08,0,1,0-16.06-16.1h0A16.09,16.09,0,0,0,334.58,361.61Zm0-20.15a4.08,4.08,0,1,1-4.06,4.1h0a4.07,4.07,0,0,1,4-4.1Z"/><path class="cls-1" d="M380.17,361.61a16.08,16.08,0,1,0-16.05-16.11h0a16.08,16.08,0,0,0,16.05,16.11Zm0-20.15a4.08,4.08,0,1,1-4.05,4.11h0a4.07,4.07,0,0,1,4-4.1Z"/><path class="cls-1" d="M439.79,361.61a16.08,16.08,0,1,0-16.05-16.11h0a16.08,16.08,0,0,0,16.05,16.11Zm0-20.15a4.08,4.08,0,1,1-4.05,4.11h0a4.07,4.07,0,0,1,4-4.1Z"/><path class="cls-1" d="M71.51,69.58a6,6,0,0,0-6,6h0v2.35a6,6,0,0,0,12,0V75.57A6,6,0,0,0,71.51,69.58Z"/><path class="cls-1" d="M71.51,89.14a6,6,0,0,0-6,6v60.7a6,6,0,0,0,12,0V95.14A6,6,0,0,0,71.51,89.14Z"/></g></g></svg>