<svg xmlns="http://www.w3.org/2000/svg" viewBox="0 0 512.1 512"><defs><style>.cls-1{fill:#808285;}</style></defs><title>icion-6</title><g id="Layer_2" data-name="Layer 2"><g id="Capa_1" data-name="Capa 1"><path class="cls-1" d="M490.2,254.12h-.37A26.17,26.17,0,0,0,465.45,274l-8,33a107.89,107.89,0,0,1-57.59,71.6A9.88,9.88,0,0,1,385.79,368l6.34-36.33A20.31,20.31,0,0,0,355,317.22l-41.11,64.13a15.05,15.05,0,0,0-19.42,1.6l-29.78,29.78a7.5,7.5,0,0,0,0,10.61h0l86.46,86.46a7.5,7.5,0,0,0,10.61,0h0L391.56,480a15.07,15.07,0,0,0,.83-20.36,235.58,235.58,0,0,0,27.72-18.11,7.5,7.5,0,0,0-8.92-12.06h0l-.17.13a230.45,230.45,0,0,1-29.63,19L324.86,392l42.71-66.71a5.32,5.32,0,0,1,9.72,3.78L371,365.42A24.87,24.87,0,0,0,406.45,392,122.83,122.83,0,0,0,472,310.52l8-33c2.59-10.63,17.87-11.12,17-1.81a220.23,220.23,0,0,1-64,134.82,7.5,7.5,0,1,0,10.38,10.83h0l.18-.18a235.24,235.24,0,0,0,68.41-144,21,21,0,0,0-18.79-23h0A24.54,24.54,0,0,0,490.2,254.12ZM356.48,493.84,280.62,418l24.54-24.48L381,469.33Z"/><path class="cls-1" d="M158.62,126.45l10,5.52a.64.64,0,0,1,.2.2l15.61,27a.64.64,0,0,1,.07.27l-.2,11.41A15.53,15.53,0,0,0,192,184.58l22.6,13a15.55,15.55,0,0,0,15.76-.13l9.77-5.88a.6.6,0,0,1,.27-.07h31.2a.53.53,0,0,1,.27.08l9.78,5.87a15.53,15.53,0,0,0,15.75.14l22.6-13a15.55,15.55,0,0,0,7.76-13.71l-.2-11.41a.52.52,0,0,1,.07-.27l15.6-27a.52.52,0,0,1,.2-.19l10-5.53a15.57,15.57,0,0,0,8-13.58V86.78a15.5,15.5,0,0,0-8-13.57l-10-5.53a.64.64,0,0,1-.2-.2l-.9-1.56a7.5,7.5,0,1,0-13,7.5h0l.9,1.56a15.61,15.61,0,0,0,5.92,5.82l10,5.52a.52.52,0,0,1,.27.46v26.1a.5.5,0,0,1-.27.45l-10,5.53a15.62,15.62,0,0,0-5.91,5.81l-15.6,27a15.38,15.38,0,0,0-2.08,8l.2,11.4a.54.54,0,0,1-.26.46l-22.6,13a.55.55,0,0,1-.53,0l-9.77-5.87a15.56,15.56,0,0,0-8-2.22h-31.2a15.53,15.53,0,0,0-8,2.22l-9.78,5.87a.49.49,0,0,1-.52,0l-22.6-13a.49.49,0,0,1-.26-.46l.2-11.4a15.57,15.57,0,0,0-2.08-8l-15.6-27a15.51,15.51,0,0,0-5.92-5.81l-10-5.53a.52.52,0,0,1-.27-.46V86.78a.54.54,0,0,1,.26-.46l10-5.53A15.57,15.57,0,0,0,181.79,75l15.6-27a15.57,15.57,0,0,0,2.08-8l-.2-11.4a.49.49,0,0,1,.26-.46l22.6-13a.49.49,0,0,1,.52,0L232.43,21a15.53,15.53,0,0,0,8,2.22h31.21a15.56,15.56,0,0,0,8-2.22l9.77-5.87a.55.55,0,0,1,.53,0l22.6,13.05a.54.54,0,0,1,.26.46L312.6,40a15.5,15.5,0,0,0,1.52,7,7.5,7.5,0,0,0,13.55-6.44h0a.62.62,0,0,1-.07-.23l.2-11.4A15.53,15.53,0,0,0,320,15.08l-22.6-13a15.51,15.51,0,0,0-15.75.14L271.9,8.09a.55.55,0,0,1-.28.07h-31.2a.5.5,0,0,1-.27-.07l-9.77-5.87a15.52,15.52,0,0,0-15.76-.14l-22.6,13a15.51,15.51,0,0,0-7.76,13.71l.2,11.4a.64.64,0,0,1-.07.27l-15.61,27a.61.61,0,0,1-.19.2l-10,5.53a15.5,15.5,0,0,0-8,13.57v26.09a15.55,15.55,0,0,0,8,13.58Z"/><path class="cls-1" d="M256,54.47a45.36,45.36,0,1,0,45.36,45.36h0A45.41,45.41,0,0,0,256,54.47Zm0,75.72a30.36,30.36,0,1,1,30.36-30.36h0A30.4,30.4,0,0,1,256,130.19Z"/><path class="cls-1" d="M392.47,247.1a33.75,33.75,0,1,0-33.75-33.75,33.75,33.75,0,0,0,33.75,33.75Zm0-52.5a18.75,18.75,0,1,1-18.75,18.75,18.75,18.75,0,0,1,18.75-18.75Z"/><path class="cls-1" d="M340.42,164.13l.13,7.37-10.29,17.81-6.44,3.57a13.06,13.06,0,0,0-6.73,11.42v18.1a13.06,13.06,0,0,0,6.73,11.42l6.44,3.57,10.29,17.81-.13,7.37a13.1,13.1,0,0,0,6.52,11.54l15.68,9a13.07,13.07,0,0,0,13.25-.11l6.32-3.8h20.56l6.31,3.8a13.09,13.09,0,0,0,13.26.11l15.67-9a13.08,13.08,0,0,0,6.53-11.54l-.13-7.37,10.28-17.81,6.45-3.57a13.06,13.06,0,0,0,6.72-11.42V204.3a13.06,13.06,0,0,0-6.72-11.42l-6.45-3.57L444.39,171.5l.13-7.37A13,13,0,0,0,438,152.6l-15.7-9a13.09,13.09,0,0,0-13.26.11l-6.31,3.8H382.19l-6.32-3.8a13.09,13.09,0,0,0-13.26-.11l-15.67,9A13,13,0,0,0,340.42,164.13Zm15,.89,13.69-7.91,5.8,3.49a13.07,13.07,0,0,0,6.73,1.86h21.64a13,13,0,0,0,6.72-1.87l5.8-3.48L429.49,165l-.12,6.76a13.12,13.12,0,0,0,1.75,6.76l10.82,18.73a13.07,13.07,0,0,0,5,4.9l5.91,3.28v15.81l-5.92,3.28a13,13,0,0,0-5,4.89l-10.82,18.73a13.12,13.12,0,0,0-1.75,6.76l.12,6.77-13.69,7.9-5.8-3.48a13.08,13.08,0,0,0-6.73-1.87H381.65a13.08,13.08,0,0,0-6.73,1.87l-5.8,3.48-13.69-7.9.12-6.77a13,13,0,0,0-1.75-6.76L343,229.43a13.07,13.07,0,0,0-5-4.9l-5.92-3.27V205.45l5.91-3.28a13.07,13.07,0,0,0,5-4.9l10.81-18.73a13,13,0,0,0,1.75-6.76Z"/><path class="cls-1" d="M119.57,247.1a33.75,33.75,0,1,0-33.75-33.75,33.75,33.75,0,0,0,33.75,33.75Zm0-52.5a18.75,18.75,0,1,1-18.75,18.75,18.75,18.75,0,0,1,18.75-18.75Z"/><path class="cls-1" d="M50.92,233.82l6.45,3.57L67.65,255.2l-.13,7.37A13,13,0,0,0,74,274.1l15.7,9A13.09,13.09,0,0,0,103,283l6.31-3.8h20.56l6.32,3.8a13.07,13.07,0,0,0,13.25.11l15.67-9a13.08,13.08,0,0,0,6.53-11.54l-.13-7.37,10.28-17.81,6.45-3.57A13.06,13.06,0,0,0,195,222.44v-18.1A13.06,13.06,0,0,0,188.22,193l-6.45-3.57-10.28-17.81.13-7.37a13.06,13.06,0,0,0-6.53-11.53l-15.66-9a13.06,13.06,0,0,0-13.26.11l-6.32,3.8H109.29l-6.32-3.8a13.07,13.07,0,0,0-13.25-.11l-15.67,9a13.08,13.08,0,0,0-6.53,11.54l.13,7.37L57.37,189.31l-6.44,3.57A13,13,0,0,0,44.2,204.3v18.1a13.06,13.06,0,0,0,6.72,11.42Zm8.28-28.37,5.91-3.28a13.07,13.07,0,0,0,5-4.9l10.82-18.73a13.12,13.12,0,0,0,1.75-6.76L82.56,165l13.69-7.91,5.8,3.48a13,13,0,0,0,6.72,1.87h21.64a13.19,13.19,0,0,0,6.73-1.86l5.8-3.49L156.63,165l-.12,6.76a12.93,12.93,0,0,0,1.75,6.76L169,197.28a13.12,13.12,0,0,0,5,4.89l5.91,3.28v15.81L174,224.54a13.12,13.12,0,0,0-5,4.89L158.2,248.17a13.11,13.11,0,0,0-1.74,6.76l.12,6.76-13.69,7.9-5.8-3.48a13.08,13.08,0,0,0-6.73-1.87H108.75a13,13,0,0,0-6.72,1.87l-5.8,3.48-13.69-7.9.12-6.77a13,13,0,0,0-1.75-6.75L70.09,229.43a13,13,0,0,0-5-4.89l-5.91-3.28V205.45Z"/><path class="cls-1" d="M217.55,383a15,15,0,0,0-19.42-1.55l-41.06-64.13A20.31,20.31,0,0,0,120,331.72l6.34,36.33a9.88,9.88,0,0,1-14.07,10.57A107.93,107.93,0,0,1,54.63,307l-8-33A26.17,26.17,0,0,0,22.25,254.1h-.37A21,21,0,0,0,0,274.2v0a21.48,21.48,0,0,0,.09,3A234.6,234.6,0,0,0,119.65,459.61a15.08,15.08,0,0,0,.83,20.37l29.78,29.77a7.5,7.5,0,0,0,10.61,0h0l33.28-33.28a7.5,7.5,0,0,0-10.61-10.6l-28,28L131,469.33l75.86-75.79L231.42,418l-26.68,26.67a7.5,7.5,0,0,0,10.61,10.61l32-32a7.5,7.5,0,0,0,0-10.61h0ZM15,275.72a6,6,0,0,1,5.35-6.58,6.46,6.46,0,0,1,.88,0h.37A11,11,0,0,1,32,277.53l8,33a122.84,122.84,0,0,0,65.58,81.52A24.87,24.87,0,0,0,141,365.42l-6.34-36.33a5.32,5.32,0,0,1,9.72-3.78L187.11,392l-56.49,56.53C129.72,447.7,27,399.55,15,275.72Z"/></g></g></svg>