<svg id="Layer_1" data-name="Layer 1" xmlns="http://www.w3.org/2000/svg" viewBox="0 0 46.26 39.66"><defs><style>.cls-1{fill:#fff;}.cls-2,.cls-3,.cls-4{fill:none;stroke:#808285;stroke-miterlimit:10;}.cls-2{stroke-width:0.5px;}.cls-3{stroke-width:0.4px;}.cls-4{stroke-width:0.4px;}.cls-5{fill:#808285;}</style></defs><title>icon-7</title><path class="cls-1" d="M265.12,190.84h-38A4.15,4.15,0,0,0,223,195v28.66a4.14,4.14,0,0,0,4.14,4.13h.9v2.17a.57.57,0,0,0,.57.56h6.28a.57.57,0,0,0,.57-.56h0v-2.17H256.8v2.17a.57.57,0,0,0,.57.56h6.28a.57.57,0,0,0,.57-.56h0v-2.17h.9a4.15,4.15,0,0,0,4.14-4.14V195A4.16,4.16,0,0,0,265.12,190.84Z" transform="translate(-223 -190.84)"/><path class="cls-2" d="M234.83,227.6v1.51a.71.71,0,0,1-.72.71h-5a.71.71,0,0,1-.72-.71V227.6" transform="translate(-223 -190.84)"/><path class="cls-2" d="M234.15,227.92" transform="translate(-223 -190.84)"/><path class="cls-2" d="M229.17,227.92" transform="translate(-223 -190.84)"/><path class="cls-2" d="M268.75,221v3.2a3.51,3.51,0,0,1-3.76,3.17H227a3.51,3.51,0,0,1-3.76-3.17V221" transform="translate(-223 -190.84)"/><path class="cls-2" d="M224,220.38h44" transform="translate(-223 -190.84)"/><path class="cls-1" d="M227.92,219.73a.75.75,0,0,1-.75-.75V197.77a2.07,2.07,0,0,1,2.07-2.07h33.52a2.07,2.07,0,0,1,2.07,2.07V219a.75.75,0,0,1-.22.53.79.79,0,0,1-.53.22Z" transform="translate(-223 -190.84)"/><path class="cls-2" d="M264.45,220.5V199c0-2.07-.76-2.84-1.69-2.84H229.24a1.71,1.71,0,0,0-1.69,1.72c0,9.62,0,26.36,0,21.51" transform="translate(-223 -190.84)"/><path class="cls-2" d="M265.18,219.61" transform="translate(-223 -190.84)"/><path class="cls-2" d="M268,219.61" transform="translate(-223 -190.84)"/><path class="cls-2" d="M223.25,219.37c0,6.75,0-6.44,0-24.08a3.79,3.79,0,0,1,3.76-3.81h38c2.07,0,3.76,1.71,3.76,5.6v24.08" transform="translate(-223 -190.84)"/><path class="cls-2" d="M224.05,220.38" transform="translate(-223 -190.84)"/><path class="cls-1" d="M268,219h-2.8V197.77a2.45,2.45,0,0,0-2.44-2.45H229.24a2.45,2.45,0,0,0-2.44,2.45V219H224V195.24a3,3,0,0,1,3-3h38a3,3,0,0,1,3,3Z" transform="translate(-223 -190.84)"/><path class="cls-3" d="M227.12,225.1a1.52,1.52,0,1,0-1.51-1.52h0A1.52,1.52,0,0,0,227.12,225.1Zm0-1.9a.39.39,0,1,1-.38.39h0A.4.4,0,0,1,227.12,223.2Z" transform="translate(-223 -190.84)"/><path class="cls-3" d="M231.51,225.1a1.52,1.52,0,1,0-1.5-1.52h0A1.52,1.52,0,0,0,231.51,225.1Zm0-1.9a.39.39,0,0,1,0,.77.39.39,0,0,1-.39-.38h0A.39.39,0,0,1,231.51,223.2Z" transform="translate(-223 -190.84)"/><path class="cls-3" d="M249.93,225.1a1.52,1.52,0,1,0-1.51-1.52h0A1.52,1.52,0,0,0,249.93,225.1Zm0-1.9a.39.39,0,0,1,0,.77.38.38,0,0,1-.39-.38h0a.4.4,0,0,1,.38-.39Z" transform="translate(-223 -190.84)"/><path class="cls-3" d="M254.33,225.1a1.52,1.52,0,1,0-1.51-1.52h0A1.52,1.52,0,0,0,254.33,225.1Zm0-1.9a.39.39,0,1,1-.38.39h0a.38.38,0,0,1,.37-.39Z" transform="translate(-223 -190.84)"/><path class="cls-3" d="M258.61,225.1a1.52,1.52,0,1,0-1.5-1.52h0a1.51,1.51,0,0,0,1.5,1.52Zm0-1.9a.38.38,0,0,1,.39.38.39.39,0,1,1-.77,0h0a.4.4,0,0,1,.38-.39Z" transform="translate(-223 -190.84)"/><path class="cls-3" d="M264.22,225.1a1.52,1.52,0,1,0-1.51-1.52h0a1.52,1.52,0,0,0,1.51,1.52Zm0-1.9a.4.4,0,0,1,.39.38.39.39,0,0,1-.39.39.38.38,0,0,1-.38-.38h0a.39.39,0,0,1,.37-.39Z" transform="translate(-223 -190.84)"/><path class="cls-2" d="M230.6,200.4a1,1,0,0,1-1-1v-.17a1,1,0,0,1,1-1,1,1,0,0,1,1,1v.17A1,1,0,0,1,230.6,200.4Z" transform="translate(-223 -190.84)"/><path class="cls-1" d="M230.72,199.2a.56.56,0,1,0-1.12,0h0v.22a.56.56,0,0,0,.56.56" transform="translate(-223 -190.84)"/><path class="cls-4" d="M261.31,205.08H256.6a.56.56,0,0,0-.48.26l-1.53,2.45-1.56-3a.56.56,0,0,0-.75-.24.57.57,0,0,0-.28.31l-2.43,6.76-2.5-7.2a.56.56,0,0,0-.72-.35.58.58,0,0,0-.28.21l-2.24,3.32-2-6.89a.57.57,0,0,0-.71-.38.55.55,0,0,0-.37.36l-2.57,7.42h-3.46a.58.58,0,0,0-.57.57.57.57,0,0,0,.57.56h3.86a.56.56,0,0,0,.53-.37l2.13-6.15,1.87,6.35a.57.57,0,0,0,.7.37.54.54,0,0,0,.31-.22l2.29-3.37,2.65,7.64a.57.57,0,0,0,.53.38h0a.56.56,0,0,0,.53-.38l2.54-7,1.41,2.7a.56.56,0,0,0,.76.24.47.47,0,0,0,.22-.2l1.89-3h4.4a.57.57,0,1,0,0-1.13Z" transform="translate(-223 -190.84)"/><path class="cls-2" d="M230.6,208.07a1,1,0,0,1-1-1v-4.34a1,1,0,0,1,2,0v4.34A1,1,0,0,1,230.6,208.07Z" transform="translate(-223 -190.84)"/><path class="cls-2" d="M263.53,227.63v1.51a.71.71,0,0,1-.72.7h-5a.71.71,0,0,1-.72-.7v-1.51" transform="translate(-223 -190.84)"/><rect class="cls-5" x="0.04" y="29.29" width="5.48" height="0.49"/><rect class="cls-5" x="40.34" y="29.29" width="5.48" height="0.49"/></svg>