<svg xmlns="http://www.w3.org/2000/svg" viewBox="0 0 44.62 45.28"><defs><style>.cls-1,.cls-4{fill:#808285;}.cls-2{fill:none;stroke:#808285;stroke-miterlimit:10;stroke-width:0.75px;}.cls-3{fill:#fff;}.cls-4{fill-rule:evenodd;}</style></defs><title>icon-1</title><g id="Layer_2" data-name="Layer 2"><g id="Layer_1-2" data-name="Layer 1"><polygon class="cls-1" points="0.38 13.42 37.86 13.62 37.36 9.3 35.47 7.68 33.62 7.56 4.29 7.72 2.32 7.98 0.82 9.71 0.38 13.42"/><rect class="cls-2" x="0.38" y="7.43" width="37.48" height="37.48" rx="3.74"/><line class="cls-2" x1="0.37" y1="13.01" x2="37.86" y2="13.01"/><path class="cls-1" d="M7.43,11.44H7.29A1.94,1.94,0,0,1,5.35,9.49V4.38A1.94,1.94,0,0,1,7.29,2.44h.14A1.94,1.94,0,0,1,9.37,4.38V9.49a1.94,1.94,0,0,1-1.94,1.95"/><path class="cls-3" d="M7.36,10.46a1,1,0,0,1-1-1v-5a1,1,0,0,1,2.06,0v5a1,1,0,0,1-1,1"/><path class="cls-1" d="M19.18,11.44h-.13a1.94,1.94,0,0,1-1.94-1.95V4.38a1.94,1.94,0,0,1,1.94-1.94h.13a1.94,1.94,0,0,1,1.95,1.94V9.49a2,2,0,0,1-1.95,1.95"/><path class="cls-3" d="M19.12,10.46a1,1,0,0,1-1-1v-5a1,1,0,0,1,2.06,0v5a1,1,0,0,1-1,1"/><path class="cls-1" d="M30.94,11.44h-.13a2,2,0,0,1-1.95-1.95V4.38a1.94,1.94,0,0,1,1.95-1.94h.13a1.94,1.94,0,0,1,1.94,1.94V9.49a1.94,1.94,0,0,1-1.94,1.95"/><path class="cls-3" d="M30.87,10.46a1,1,0,0,1-1-1v-5a1,1,0,1,1,2.06,0v5a1,1,0,0,1-1,1"/><path class="cls-3" d="M19.12,10.46a1,1,0,0,1-1-1v-5a1,1,0,0,1,2.06,0v5a1,1,0,0,1-1,1"/><path class="cls-3" d="M30.87,10.46a1,1,0,0,1-1-1v-5a1,1,0,1,1,2.06,0v5a1,1,0,0,1-1,1"/><path class="cls-4" d="M20,26.54a1.85,1.85,0,0,0-2.36,2.71,2,2,0,0,0,2.38.5,2.19,2.19,0,0,1-2.61.39,2.27,2.27,0,0,1-.61-3.45,2.23,2.23,0,0,1,3.2-.15"/><path class="cls-2" d="M14.79,35.84a2.89,2.89,0,1,0-2.89,2.89A2.89,2.89,0,0,0,14.79,35.84Z"/><path class="cls-2" d="M30.54,35.84a2.9,2.9,0,1,0-2.9,2.89A2.89,2.89,0,0,0,30.54,35.84Z"/><circle class="cls-2" cx="17.85" cy="28.19" r="4.52"/><line class="cls-2" x1="11.61" y1="24.79" x2="14.79" y2="24.79"/><line class="cls-2" x1="7.99" y1="27.94" x2="13.33" y2="27.94"/><line class="cls-2" x1="10.52" y1="31.13" x2="14.42" y2="31.13"/><path class="cls-2" d="M15.9,21.13H13.16l.29-2.08a.28.28,0,0,1,.28-.24h1.52a.27.27,0,0,1,.28.23Z"/><path class="cls-2" d="M8.91,35.84H7a.45.45,0,0,1-.45-.45V21.59A.46.46,0,0,1,7,21.13H21.73a2.5,2.5,0,0,1,2.5,2.5V28.1a.39.39,0,0,0,.38.39h6.72a1.51,1.51,0,0,1,1.12.49l.91,1a1.48,1.48,0,0,1,.41,1v4a.8.8,0,0,1-.8.8H30.47"/><line class="cls-2" x1="24.75" y1="35.84" x2="14.64" y2="35.84"/><path class="cls-2" d="M24.09,24.1h3.63a1.77,1.77,0,0,1,1.41.7l2.92,3.88"/><path class="cls-3" d="M44.25,10.12a9.75,9.75,0,1,0-9.75,9.75,9.75,9.75,0,0,0,9.75-9.75"/><path class="cls-2" d="M44.25,10.12a9.75,9.75,0,1,0-9.75,9.75A9.75,9.75,0,0,0,44.25,10.12Z"/><polyline class="cls-2" points="28.51 11.34 31.66 13.83 39.66 5.84"/></g></g></svg>