<svg id="Layer_1" data-name="Layer 1" xmlns="http://www.w3.org/2000/svg" viewBox="0 0 512 409.6"><defs><style>.cls-1{fill:#b0976f;}</style></defs><title>laptop-hover</title><g id="Page-1"><path id="Shape" class="cls-1" d="M392.53,93.87A17.08,17.08,0,0,0,375.47,76.8H307.2a17.09,17.09,0,0,0-17.07,17.07v68.26A17.09,17.09,0,0,0,307.2,179.2h68.27a17.08,17.08,0,0,0,17.06-17.07Zm-17.06,68.26H307.2V93.87h68.27Z" transform="translate(0)"/><path class="cls-1" d="M392.53,298.67V281.6a8.53,8.53,0,0,0-17.06,0h0v17.07H307.2V230.4h42.67a8.54,8.54,0,0,0,0-17.07H307.2a17.09,17.09,0,0,0-17.07,17.07v68.27a17.08,17.08,0,0,0,17.07,17.06h68.27A17.08,17.08,0,0,0,392.53,298.67Z" transform="translate(0)"/><path class="cls-1" d="M128,102.4h25.6a8.54,8.54,0,0,0,0-17.07H128a8.54,8.54,0,0,0,0,17.07Z" transform="translate(0)"/><path class="cls-1" d="M247.47,85.33H187.73a8.54,8.54,0,0,0,0,17.07h59.74a8.54,8.54,0,0,0,0-17.07Z" transform="translate(0)"/><path class="cls-1" d="M247.47,119.47H128a8.53,8.53,0,0,0,0,17.06H247.47a8.53,8.53,0,0,0,0-17.06Z" transform="translate(0)"/><path class="cls-1" d="M196.27,162.13a8.53,8.53,0,0,0-8.53-8.53H128a8.54,8.54,0,0,0,0,17.07h59.73a8.54,8.54,0,0,0,8.54-8.54Z" transform="translate(0)"/><path class="cls-1" d="M247.47,153.6h-25.6a8.54,8.54,0,1,0-.58,17.07,5.61,5.61,0,0,0,.58,0h25.6a8.54,8.54,0,0,0,0-17.07Z" transform="translate(0)"/><path class="cls-1" d="M128,221.87a8.53,8.53,0,0,0,0,17.06H153.6a8.53,8.53,0,0,0,0-17.06H128Z" transform="translate(0)"/><path class="cls-1" d="M247.47,221.87H187.73a8.53,8.53,0,0,0,0,17.06h59.75a8.53,8.53,0,0,0,0-17.06Z" transform="translate(0)"/><path class="cls-1" d="M247.47,256H128a8.54,8.54,0,0,0,0,17.07H247.47a8.54,8.54,0,0,0,0-17.07Z" transform="translate(0)"/><path class="cls-1" d="M187.73,290.13H128a8.54,8.54,0,0,0,0,17.07h59.73a8.54,8.54,0,1,0,.58-17.07Z" transform="translate(0)"/><path class="cls-1" d="M247.47,290.13h-25.6a8.54,8.54,0,1,0-.58,17.07h26.18a8.54,8.54,0,0,0,0-17.07Z" transform="translate(0)"/><path class="cls-1" d="M394.24,199.68l-45.3,60.4L338.83,250A8.53,8.53,0,0,0,326.77,262l17.06,17.07a8.55,8.55,0,0,0,6,2.5h.6a8.49,8.49,0,0,0,6.22-3.39l51.2-68.27A8.53,8.53,0,0,0,394.2,199.7Z" transform="translate(0)"/><path class="cls-1" d="M110.93,34.13H102.4a8.54,8.54,0,0,0,0,17.07h8.53a8.54,8.54,0,1,0,.58-17.07A5.61,5.61,0,0,0,110.93,34.13Z" transform="translate(0)"/><path class="cls-1" d="M145.07,51.2h281.6a8.54,8.54,0,0,0,0-17.07H145.07a8.54,8.54,0,1,0-.58,17.07Z" transform="translate(0)"/><path class="cls-1" d="M469.33,0H101A42,42,0,0,0,59.73,42.67V341.33H8.53A8.53,8.53,0,0,0,0,349.86H0v8.53a51.26,51.26,0,0,0,51.2,51.2H460.8A51.26,51.26,0,0,0,512,358.4V42.67A42.73,42.73,0,0,0,469.33,0Zm25.6,42.67V341.33h-25.6V42.67a43.14,43.14,0,0,0-8.46-25.6h8.46A25.61,25.61,0,0,1,494.93,42.67Zm-418.13,0A24.92,24.92,0,0,1,101,17.07H428.09a25,25,0,0,1,24.18,25.6V341.33H76.8ZM17.07,358.4H307.2a50.88,50.88,0,0,0,13.15,34.13H51.2A34.17,34.17,0,0,1,17.07,358.4ZM460.8,392.53H358.4a34.17,34.17,0,0,1-34.13-34.13H494.93A34.17,34.17,0,0,1,460.8,392.53Z" transform="translate(0)"/></g></svg>