<svg xmlns="http://www.w3.org/2000/svg" xmlns:xlink="http://www.w3.org/1999/xlink" viewBox="0 0 259.83 37.99"><defs><style>.cls-1,.cls-4,.cls-6{fill:none;}.cls-2{clip-path:url(#clip-path);}.cls-3{fill:#f0f0f0;}.cls-4,.cls-6{stroke:#272e65;stroke-miterlimit:10;}.cls-4{stroke-width:0.75px;}.cls-18,.cls-5{fill:#fff;}.cls-6{stroke-width:0.5px;}.cls-11,.cls-12,.cls-13,.cls-14,.cls-15,.cls-18,.cls-7,.cls-8,.cls-9{isolation:isolate;}.cls-11,.cls-12,.cls-13,.cls-14,.cls-15,.cls-8,.cls-9{font-size:4.22px;}.cls-10,.cls-11,.cls-12,.cls-13,.cls-14,.cls-15,.cls-8,.cls-9{fill:#6d6d6d;}.cls-11,.cls-12,.cls-13,.cls-14,.cls-15,.cls-18,.cls-8,.cls-9{font-family:Calibri-Bold, Calibri;font-weight:700;}.cls-8{letter-spacing:-0.01em;}.cls-11,.cls-16{letter-spacing:-0.01em;}.cls-12{letter-spacing:0.01em;}.cls-13{letter-spacing:-0.02em;}.cls-14{letter-spacing:-0.02em;}.cls-15{letter-spacing:-0.02em;}.cls-17{fill:#272e65;}.cls-18{font-size:5.05px;}</style><clipPath id="clip-path" transform="translate(-13.51 -13.44)"><rect class="cls-1" width="286.81" height="64.74"/></clipPath></defs><title>Asset 1</title><g id="Layer_2" data-name="Layer 2"><g id="Layer_1-2" data-name="Layer 1"><g class="cls-2"><path class="cls-3" d="M37.54,49.46H20.09a4.63,4.63,0,0,1-4.62-4.61V27.39a4.63,4.63,0,0,1,4.62-4.61H37.54a4.63,4.63,0,0,1,4.62,4.61V44.85a4.63,4.63,0,0,1-4.62,4.61" transform="translate(-13.51 -13.44)"/><path class="cls-3" d="M70.17,49.46H52.71a4.62,4.62,0,0,1-4.61-4.61V27.39a4.63,4.63,0,0,1,4.61-4.61H70.17a4.63,4.63,0,0,1,4.61,4.61V44.85a4.62,4.62,0,0,1-4.61,4.61" transform="translate(-13.51 -13.44)"/><path class="cls-3" d="M103,49.46H85.5a4.62,4.62,0,0,1-4.61-4.61V27.39a4.62,4.62,0,0,1,4.61-4.61H103a4.63,4.63,0,0,1,4.62,4.61V44.85A4.63,4.63,0,0,1,103,49.46" transform="translate(-13.51 -13.44)"/><path class="cls-3" d="M135.74,49.46H118.27a4.63,4.63,0,0,1-4.62-4.61V27.39a4.63,4.63,0,0,1,4.62-4.61h17.45a4.63,4.63,0,0,1,4.62,4.61V44.85a4.63,4.63,0,0,1-4.62,4.61" transform="translate(-13.51 -13.44)"/><path class="cls-3" d="M168.52,49.46H151.07a4.63,4.63,0,0,1-4.62-4.61V27.39a4.63,4.63,0,0,1,4.62-4.61h17.45a4.63,4.63,0,0,1,4.62,4.61V44.85a4.63,4.63,0,0,1-4.62,4.61" transform="translate(-13.51 -13.44)"/><path class="cls-3" d="M234.09,49.46H216.64A4.63,4.63,0,0,1,212,44.85V27.39a4.63,4.63,0,0,1,4.62-4.61h17.45a4.63,4.63,0,0,1,4.62,4.61V44.85a4.63,4.63,0,0,1-4.62,4.61" transform="translate(-13.51 -13.44)"/><path class="cls-3" d="M201.31,49.46H183.85a4.62,4.62,0,0,1-4.61-4.61V27.39a4.62,4.62,0,0,1,4.61-4.61h17.46a4.62,4.62,0,0,1,4.6,4.61V44.85a4.63,4.63,0,0,1-4.62,4.61" transform="translate(-13.51 -13.44)"/><path class="cls-3" d="M266.87,49.46H249.42a4.62,4.62,0,0,1-4.61-4.61V27.39a4.62,4.62,0,0,1,4.61-4.61h17.45a4.63,4.63,0,0,1,4.62,4.61V44.85a4.63,4.63,0,0,1-4.62,4.61" transform="translate(-13.51 -13.44)"/><path class="cls-4" d="M48,35.84H43.43v8.88a6.33,6.33,0,0,1-6.34,6.33H20.22a6.32,6.32,0,0,1-6.33-6.33V27.52a6.32,6.32,0,0,1,6.33-6.33h16.9a6.32,6.32,0,0,1,6.33,6.33v2.85" transform="translate(-13.51 -13.44)"/><polyline class="cls-4" points="33.01 20.54 34.49 22.41 33.01 24.32"/><path class="cls-4" d="M46.67,41.45v3.27A6.32,6.32,0,0,0,53,51.05H69.9a6.32,6.32,0,0,0,6.33-6.33V41.87" transform="translate(-13.51 -13.44)"/><path class="cls-4" d="M80.78,36.4H76.2V27.52a6.32,6.32,0,0,0-6.33-6.33H53a6.32,6.32,0,0,0-6.33,6.33v2.85" transform="translate(-13.51 -13.44)"/><polyline class="cls-4" points="65.79 24.83 67.27 22.96 65.79 21.06"/><path class="cls-4" d="M79.45,30.79V27.52a6.33,6.33,0,0,1,6.34-6.33h16.87A6.32,6.32,0,0,1,109,27.52v2.85" transform="translate(-13.51 -13.44)"/><path class="cls-4" d="M113.57,35.84H109v8.88a6.32,6.32,0,0,1-6.33,6.33H85.79a6.33,6.33,0,0,1-6.34-6.33V41.87" transform="translate(-13.51 -13.44)"/><polyline class="cls-4" points="98.58 20.54 100.06 22.41 98.58 24.32"/><path class="cls-4" d="M112.24,41.45v3.27a6.32,6.32,0,0,0,6.33,6.33h16.9a6.32,6.32,0,0,0,6.33-6.33V41.87" transform="translate(-13.51 -13.44)"/><path class="cls-4" d="M146.36,36.4h-4.58V27.52a6.32,6.32,0,0,0-6.33-6.33h-16.9a6.32,6.32,0,0,0-6.33,6.33v2.85" transform="translate(-13.51 -13.44)"/><polyline class="cls-4" points="131.36 24.83 132.85 22.96 131.36 21.06"/><path class="cls-4" d="M145,30.79V27.52a6.33,6.33,0,0,1,6.34-6.33h16.87a6.32,6.32,0,0,1,6.33,6.33v2.85" transform="translate(-13.51 -13.44)"/><path class="cls-4" d="M179.14,35.84h-4.58v8.88a6.32,6.32,0,0,1-6.33,6.33H151.36A6.33,6.33,0,0,1,145,44.72V41.87" transform="translate(-13.51 -13.44)"/><polyline class="cls-4" points="164.15 20.54 165.63 22.41 164.15 24.32"/><path class="cls-4" d="M177.81,30.79V27.52a6.32,6.32,0,0,1,6.33-6.33H201a6.32,6.32,0,0,1,6.33,6.33v2.85" transform="translate(-13.51 -13.44)"/><path class="cls-4" d="M211.93,35.84h-4.58v8.88A6.33,6.33,0,0,1,201,51.05H184.12a6.33,6.33,0,0,1-6.34-6.33V41.87" transform="translate(-13.51 -13.44)"/><polyline class="cls-4" points="196.93 20.54 198.42 22.41 196.93 24.32"/><path class="cls-4" d="M210.59,41.45v3.27a6.33,6.33,0,0,0,6.34,6.33H233.8a6.32,6.32,0,0,0,6.33-6.33V41.87" transform="translate(-13.51 -13.44)"/><path class="cls-4" d="M244.71,36.4h-4.58V27.52a6.32,6.32,0,0,0-6.33-6.33H216.93a6.33,6.33,0,0,0-6.34,6.33v2.85" transform="translate(-13.51 -13.44)"/><polyline class="cls-4" points="229.72 24.83 231.2 22.96 229.72 21.06"/><path class="cls-4" d="M243.4,41.45v3.27a6.32,6.32,0,0,0,6.33,6.33h16.9A6.32,6.32,0,0,0,273,44.72V27.52a6.32,6.32,0,0,0-6.33-6.33h-16.9a6.32,6.32,0,0,0-6.33,6.33v2.85" transform="translate(-13.51 -13.44)"/><path class="cls-5" d="M34.21,19.13a5.45,5.45,0,1,1-5.45-5.44,5.45,5.45,0,0,1,5.45,5.44h0" transform="translate(-13.51 -13.44)"/><path class="cls-6" d="M34.21,19.13a5.45,5.45,0,1,1-5.45-5.44,5.45,5.45,0,0,1,5.45,5.44Z" transform="translate(-13.51 -13.44)"/><path class="cls-5" d="M66.89,19.18a5.45,5.45,0,1,1-5.45-5.45,5.44,5.44,0,0,1,5.45,5.45h0" transform="translate(-13.51 -13.44)"/><path class="cls-6" d="M66.89,19.18a5.45,5.45,0,1,1-5.45-5.45,5.44,5.44,0,0,1,5.45,5.45Z" transform="translate(-13.51 -13.44)"/><path class="cls-5" d="M99.67,19.18a5.45,5.45,0,1,1-5.44-5.45,5.44,5.44,0,0,1,5.44,5.45h0" transform="translate(-13.51 -13.44)"/><path class="cls-6" d="M99.67,19.18a5.45,5.45,0,1,1-5.44-5.45,5.44,5.44,0,0,1,5.44,5.45Z" transform="translate(-13.51 -13.44)"/><path class="cls-5" d="M133.05,19.18a5.45,5.45,0,1,1-5.44-5.45h0a5.44,5.44,0,0,1,5.44,5.44h0" transform="translate(-13.51 -13.44)"/><path class="cls-6" d="M133.05,19.18a5.45,5.45,0,1,1-5.44-5.45h0a5.44,5.44,0,0,1,5.44,5.44Z" transform="translate(-13.51 -13.44)"/><path class="cls-5" d="M166.11,19.18a5.45,5.45,0,1,1-5.45-5.45,5.44,5.44,0,0,1,5.45,5.45h0" transform="translate(-13.51 -13.44)"/><path class="cls-6" d="M166.11,19.18a5.45,5.45,0,1,1-5.45-5.45,5.44,5.44,0,0,1,5.45,5.45Z" transform="translate(-13.51 -13.44)"/><path class="cls-5" d="M198.8,19.18a5.45,5.45,0,1,1-5.45-5.45,5.44,5.44,0,0,1,5.45,5.45h0" transform="translate(-13.51 -13.44)"/><path class="cls-6" d="M198.8,19.18a5.45,5.45,0,1,1-5.45-5.45,5.44,5.44,0,0,1,5.45,5.45Z" transform="translate(-13.51 -13.44)"/><path class="cls-5" d="M231.7,19.18a5.45,5.45,0,1,1-5.45-5.45,5.44,5.44,0,0,1,5.45,5.45h0" transform="translate(-13.51 -13.44)"/><path class="cls-6" d="M231.7,19.18a5.45,5.45,0,1,1-5.45-5.45,5.44,5.44,0,0,1,5.45,5.45Z" transform="translate(-13.51 -13.44)"/><path class="cls-5" d="M264.45,19.18A5.45,5.45,0,1,1,259,13.73a5.45,5.45,0,0,1,5.45,5.45h0" transform="translate(-13.51 -13.44)"/><path class="cls-6" d="M264.45,19.18A5.45,5.45,0,1,1,259,13.73a5.45,5.45,0,0,1,5.45,5.45Z" transform="translate(-13.51 -13.44)"/></g><g class="cls-7"><text class="cls-8" transform="translate(5 21.81)">R</text><text class="cls-9" transform="translate(7.32 21.81)">e</text><text class="cls-9" transform="translate(9.43 21.81)">vi</text><text class="cls-8" transform="translate(12.47 21.81)">e</text><text class="cls-9" transform="translate(14.57 21.81)">w and</text></g><path class="cls-10" d="M20.55,38.67a.69.69,0,0,1-.08.37.75.75,0,0,1-.21.26.92.92,0,0,1-.31.16,1.39,1.39,0,0,1-.64,0l-.21-.05-.16-.07-.08-.06a.12.12,0,0,1,0-.08v-.36h0a.11.11,0,0,1,.08,0l.14.08a.68.68,0,0,0,.2.07.75.75,0,0,0,.26,0h.17l.14-.07a.28.28,0,0,0,.08-.11.32.32,0,0,0,0-.14.29.29,0,0,0,0-.16l-.14-.11a.77.77,0,0,0-.18-.1l-.21-.09-.2-.11a.9.9,0,0,1-.18-.15.8.8,0,0,1-.13-.21.71.71,0,0,1-.05-.29.75.75,0,0,1,.07-.33.79.79,0,0,1,.19-.25,1,1,0,0,1,.29-.14,1.34,1.34,0,0,1,.35,0h.19l.17,0,.15.06.08,0,0,0v.4h-.11l-.12-.06L20,37.23h-.36l-.11.06a.23.23,0,0,0-.07.1.2.2,0,0,0,0,.11.27.27,0,0,0,.05.15.49.49,0,0,0,.13.12,1.51,1.51,0,0,0,.18.09L20,38a1,1,0,0,1,.21.11.9.9,0,0,1,.19.15.74.74,0,0,1,.13.21A.64.64,0,0,1,20.55,38.67Zm2.12.73v0h-.5V38.34a.74.74,0,0,0,0-.21.69.69,0,0,0-.05-.13l-.1-.09h-.14a.32.32,0,0,0-.2.08,1.34,1.34,0,0,0-.21.2v1.23s0,0,0,0H21s0,0,0,0V36.68a0,0,0,0,1,0,0h.49V37.7a.77.77,0,0,1,.28-.19.59.59,0,0,1,.29-.07.81.81,0,0,1,.31.06.51.51,0,0,1,.21.17,1.15,1.15,0,0,1,.12.25,2,2,0,0,1,0,.35ZM25,38.46a1.59,1.59,0,0,1-.06.43,1,1,0,0,1-.19.33.87.87,0,0,1-.32.22,1.1,1.1,0,0,1-.44.07,1,1,0,0,1-.42-.07.67.67,0,0,1-.31-.19.76.76,0,0,1-.17-.32,1.61,1.61,0,0,1-.06-.44,1.52,1.52,0,0,1,.06-.42.88.88,0,0,1,.19-.34.74.74,0,0,1,.31-.21,1.12,1.12,0,0,1,.45-.08,1.2,1.2,0,0,1,.42.07.67.67,0,0,1,.3.19A.79.79,0,0,1,25,38a1.32,1.32,0,0,1,.08.44Zm-.53,0a1,1,0,0,0,0-.25.5.5,0,0,0-.08-.2.33.33,0,0,0-.13-.13.42.42,0,0,0-.22-.05.45.45,0,0,0-.2,0,.53.53,0,0,0-.12.14.88.88,0,0,0-.09.2v.51a.7.7,0,0,0,.08.2.29.29,0,0,0,.14.13.38.38,0,0,0,.21.05.58.58,0,0,0,.19,0,.43.43,0,0,0,.14-.13.54.54,0,0,0,.08-.19.82.82,0,0,0,0-.27Zm2.11-.75v.23h-.33L26.2,38l-.1.1a.86.86,0,0,0-.1.16v1.18h-.5V37.52h.32l.05,0a0,0,0,0,1,0,0,0,0,0,0,1,0,0v.23a1.15,1.15,0,0,1,.14-.17l.12-.1.12-.06a.21.21,0,0,1,.11,0h.22v.29ZM28,39.2v.13l0,.07-.05,0-.09,0h-.19a.77.77,0,0,1-.27,0,.62.62,0,0,1-.19-.12.53.53,0,0,1-.11-.21.92.92,0,0,1,0-.29v-.9h-.22a.07.07,0,0,1-.06,0v-.33l0,0h.25v-.45l.05,0h.42l0,0v.44H28v.2a.43.43,0,0,1,0,.16.07.07,0,0,1-.06,0h-.41v.86a.59.59,0,0,0,.05.23.18.18,0,0,0,.17.07H28a0,0,0,0,1,0,0v0s.07,0,.07.07Zm.89.18a0,0,0,0,1,0,0h-.49a0,0,0,0,1,0,0v-2.7a0,0,0,0,1,0,0h.49a0,0,0,0,1,0,0ZM30,36.92a.28.28,0,0,1-.07.21.49.49,0,0,1-.47,0,.24.24,0,0,1-.06-.2.32.32,0,0,1,.06-.23.55.55,0,0,1,.47,0A.28.28,0,0,1,30,37Zm0,2.46v0h-.5V37.52h.5v1.86Zm1.81-.53a.63.63,0,0,1-.06.27.53.53,0,0,1-.16.2.68.68,0,0,1-.26.12,1.1,1.1,0,0,1-.31,0,1.5,1.5,0,0,1-.37,0l-.12,0a.18.18,0,0,1-.07-.05.21.21,0,0,1,0-.06.33.33,0,0,1,0-.14V39a.06.06,0,0,1,0-.06,0,0,0,0,1,0,0h.1l.1.06.16.06H31l.1,0A.13.13,0,0,0,31.2,39a.17.17,0,0,0,0-.1.14.14,0,0,0,0-.1.39.39,0,0,0-.1-.08l-.14-.06-.17-.06H30.7l-.14-.11a.54.54,0,0,1-.1-.16.64.64,0,0,1,0-.47.43.43,0,0,1,.15-.18.76.76,0,0,1,.23-.13,1.17,1.17,0,0,1,.32,0,.43.43,0,0,1,.16,0h.15l.11,0,.07,0,0,0s0,0,0,0v.28h0l-.06,0-.1,0-.13-.05h-.3l-.08,0-.05.06v.08a.15.15,0,0,0,0,.11.23.23,0,0,0,.1.07l.15.06.16.07.17.08a.53.53,0,0,1,.25.26.71.71,0,0,1,0,.29Zm2.11-1.4a.16.16,0,0,1,.12,0,.15.15,0,0,1,0,.11v1.8h-.5V37.91h-.79v.86a.59.59,0,0,0,.05.23.21.21,0,0,0,.17.08h.23a0,0,0,0,1,0,0v.15a.33.33,0,0,1,0,.14s0,.05,0,.06a.1.1,0,0,1,0,0l-.09,0h-.17a.84.84,0,0,1-.27,0,.36.36,0,0,1-.18-.12.47.47,0,0,1-.12-.2,1.53,1.53,0,0,1,0-.3v-1H32a.06.06,0,0,1-.06,0,.43.43,0,0,1,0-.16v-.2h.25v-.45l0,0h.42l0,0v.44Zm.2-.52a.32.32,0,0,1-.06.21.51.51,0,0,1-.48,0,.24.24,0,0,1-.06-.2.29.29,0,0,1,.06-.22.51.51,0,0,1,.48,0,.26.26,0,0,1,.14.24Zm2.23,2.46a0,0,0,0,1,0,0H35.8a0,0,0,0,1,0,0V38.33a.74.74,0,0,0,0-.21.31.31,0,0,0-.06-.13l-.09-.09h-.14a.32.32,0,0,0-.2.08,1.34,1.34,0,0,0-.21.2v1.26h-.49a0,0,0,0,1,0,0V37.52H35a0,0,0,0,1,0,0v.21a1.48,1.48,0,0,1,.31-.25.76.76,0,0,1,.33-.08.7.7,0,0,1,.32.06.68.68,0,0,1,.21.17.8.8,0,0,1,.11.25,1.32,1.32,0,0,1,0,.34Zm2.25-1.7a.33.33,0,0,1,0,.14s0,0-.06.05h-.21a.24.24,0,0,1,.06.11.28.28,0,0,1,0,.13.71.71,0,0,1,0,.29.65.65,0,0,1-.16.21.7.7,0,0,1-.24.13,1.06,1.06,0,0,1-.31,0H37.4l-.13,0,0,.06a.14.14,0,0,0,0,.09.11.11,0,0,0,.06.09.23.23,0,0,0,.14,0h.45a1.26,1.26,0,0,1,.28,0,.53.53,0,0,1,.21.11.48.48,0,0,1,.12.16.55.55,0,0,1,0,.48.91.91,0,0,1-.18.21.83.83,0,0,1-.3.14,1.51,1.51,0,0,1-.42,0,1.9,1.9,0,0,1-.41,0,.64.64,0,0,1-.26-.1.39.39,0,0,1-.21-.36.28.28,0,0,1,0-.13.61.61,0,0,1,0-.12.39.39,0,0,1,.08-.1l.12-.1a.35.35,0,0,1-.14-.13.41.41,0,0,1-.05-.18.43.43,0,0,1,.06-.22.6.6,0,0,1,.14-.21.45.45,0,0,1-.11-.17.58.58,0,0,1-.05-.26.71.71,0,0,1,.06-.28.57.57,0,0,1,.16-.22.7.7,0,0,1,.24-.13,1.06,1.06,0,0,1,.31,0h.89a.06.06,0,0,1,.06,0A.31.31,0,0,1,38.54,37.69ZM38,39.6a.15.15,0,0,0-.07-.14.37.37,0,0,0-.21-.06h-.37l-.08.08-.05.07v.13a.18.18,0,0,0,.1.16,1,1,0,0,0,.3,0,.63.63,0,0,0,.19,0A.35.35,0,0,0,38,39.8a.2.2,0,0,0,.06-.09A.14.14,0,0,0,38,39.6Zm-.12-1.47a.27.27,0,0,0-.08-.23.3.3,0,0,0-.23-.08h-.14a.15.15,0,0,0-.09.07.21.21,0,0,0-.06.1.24.24,0,0,0,0,.12.32.32,0,0,0,.09.23.35.35,0,0,0,.22.08.32.32,0,0,0,.14,0l.09-.06a.27.27,0,0,0,.06-.1.37.37,0,0,0,0-.11Z" transform="translate(-13.51 -13.44)"/><path class="cls-10" d="M51.82,35.17v0H51.3v-2.6l.05,0a.11.11,0,0,1,.08,0h.26a.11.11,0,0,1,.08,0l0,0v2.56Zm2.31,0s0,0,0,0h-.49v-1.1a.74.74,0,0,0,0-.21.39.39,0,0,0-.15-.22h-.14a.39.39,0,0,0-.2.08,1.34,1.34,0,0,0-.21.2v1.23s0,0,0,0h-.5V33.3h.43v.25a1,1,0,0,1,.31-.25.62.62,0,0,1,.32-.09.71.71,0,0,1,.32.07.56.56,0,0,1,.21.17.71.71,0,0,1,.11.25,1.27,1.27,0,0,1,0,.34Zm1.59-2.54v.18h-.25a.14.14,0,0,0-.09,0,.18.18,0,0,0-.07,0,.42.42,0,0,0,0,.1v.3h.37l0,0v.16a.49.49,0,0,1,0,.17.08.08,0,0,1-.06,0h-.34v1.49a0,0,0,0,1,0,0h-.49V33.68h-.23s0,0-.06,0a.49.49,0,0,1,0-.17v-.2h.27v-.15a1.24,1.24,0,0,1,0-.33.74.74,0,0,1,.11-.24.6.6,0,0,1,.21-.14.93.93,0,0,1,.29,0h.26l.06,0v.1a.56.56,0,0,0,0,.13Zm2,1.58a1.61,1.61,0,0,1-.06.44,1.09,1.09,0,0,1-.19.33.85.85,0,0,1-.32.21,1.11,1.11,0,0,1-.44.08,1.29,1.29,0,0,1-.43-.07A.75.75,0,0,1,56,35a.92.92,0,0,1-.18-.32,1.54,1.54,0,0,1-.06-.43,1.25,1.25,0,0,1,.07-.43.84.84,0,0,1,.19-.33.77.77,0,0,1,.31-.22,1.32,1.32,0,0,1,.44-.08,1.62,1.62,0,0,1,.44.07.83.83,0,0,1,.3.2.76.76,0,0,1,.17.32,1.41,1.41,0,0,1,.07.45Zm-.53,0a1,1,0,0,0,0-.25.8.8,0,0,0-.07-.2.44.44,0,0,0-.14-.13.54.54,0,0,0-.22-.05.49.49,0,0,0-.2.05.39.39,0,0,0-.14.12.5.5,0,0,0-.08.2.57.57,0,0,0,0,.26,1,1,0,0,0,0,.25.53.53,0,0,0,.07.2.35.35,0,0,0,.14.13.46.46,0,0,0,.21.05.46.46,0,0,0,.2-.05.44.44,0,0,0,.15-.12.77.77,0,0,0,.08-.19,1.77,1.77,0,0,0,0-.23Zm2.11-.75a.24.24,0,0,1,0,.12v.08s0,0,0,0h-.24a.14.14,0,0,0-.09,0l-.09,0a.43.43,0,0,0-.09.1l-.12.15v1.15a0,0,0,0,1,0,0H58.2V33.3h.42v.26a2.09,2.09,0,0,1,.14-.17.4.4,0,0,1,.12-.1.23.23,0,0,1,.12-.06h.32a0,0,0,0,1,0,0,.08.08,0,0,1,0,.07.55.55,0,0,1,0,.18Zm3.24,1.67a0,0,0,0,1,0,0h-.49V33.91a.69.69,0,0,0,0-.13l-.09-.08a.33.33,0,0,0-.14,0,.28.28,0,0,0-.19.07,1.34,1.34,0,0,0-.2.21v1.26h-.5V34.08a.49.49,0,0,0,0-.17.69.69,0,0,0,0-.13.24.24,0,0,0-.09-.08.29.29,0,0,0-.13,0,.26.26,0,0,0-.19.07,1,1,0,0,0-.21.21V35.2a0,0,0,0,1,0,0h-.5V33.3h.43v.25a1,1,0,0,1,.3-.25.61.61,0,0,1,.31-.09.76.76,0,0,1,.21,0,.46.46,0,0,1,.16.07.45.45,0,0,1,.13.11.57.57,0,0,1,.08.13l.16-.15.16-.11.1,0h.16a.64.64,0,0,1,.31.07.53.53,0,0,1,.2.16.51.51,0,0,1,.11.25,1,1,0,0,1,0,.3Zm2.08,0a0,0,0,0,1,0,0h-.39a0,0,0,0,1,0,0V35a.7.7,0,0,1-.26.19.71.71,0,0,1-.32.07l-.27,0a.72.72,0,0,1-.21-.12.45.45,0,0,1-.14-.19.56.56,0,0,1,0-.25.64.64,0,0,1,.06-.28.52.52,0,0,1,.19-.2.84.84,0,0,1,.31-.12A3.11,3.11,0,0,1,64,34h.18v-.11a.43.43,0,0,0,0-.16.21.21,0,0,0-.06-.1.14.14,0,0,0-.1-.07h-.17a.91.91,0,0,0-.23,0l-.18.06-.13.07-.09,0h0l0,0v-.26a.21.21,0,0,1,0-.06l.1-.07a.58.58,0,0,1,.17-.06.8.8,0,0,1,.21-.05h.24a1.11,1.11,0,0,1,.36,0,.64.64,0,0,1,.26.13.51.51,0,0,1,.15.23,1.12,1.12,0,0,1,0,.32Zm-.53-.79H63.7a.47.47,0,0,0-.15.06.34.34,0,0,0-.08.09.24.24,0,0,0,0,.12.23.23,0,0,0,.08.18.24.24,0,0,0,.2.07.36.36,0,0,0,.2-.06.7.7,0,0,0,.19-.16Zm2.83-1.08a.17.17,0,0,1,.12,0,.14.14,0,0,1,0,.11v1.76s0,0,0,0H66.6V33.68h-.83v.87a.54.54,0,0,0,0,.22.17.17,0,0,0,.17.08h.23a0,0,0,0,1,0,0,.06.06,0,0,1,0,.06V35a.29.29,0,0,1,0,.13.09.09,0,0,1,0,.07.1.1,0,0,1,0,0l-.09,0h-.22a.84.84,0,0,1-.27,0,.76.76,0,0,1-.19-.12.51.51,0,0,1-.1-.21.92.92,0,0,1,0-.29v-1H65a.07.07,0,0,1-.06,0,.49.49,0,0,1,0-.17v-.2h.25v-.44s0,0,0,0h.41s0,0,0,0v.43Zm.2-.53a.34.34,0,0,1-.07.22.32.32,0,0,1-.23.06A.34.34,0,0,1,66.6,33a.3.3,0,0,1-.08-.22.36.36,0,0,1,.07-.22.55.55,0,0,1,.47,0A.27.27,0,0,1,67.14,32.73Zm2.34,1.52a1.31,1.31,0,0,1-.07.44.92.92,0,0,1-.19.33.87.87,0,0,1-.31.22,1.31,1.31,0,0,1-.44.07,1.25,1.25,0,0,1-.43-.07.73.73,0,0,1-.3-.19.89.89,0,0,1-.18-.33,1.54,1.54,0,0,1-.06-.43,1.59,1.59,0,0,1,.06-.43,1.09,1.09,0,0,1,.19-.33.85.85,0,0,1,.32-.21,1,1,0,0,1,.44-.08,1.24,1.24,0,0,1,.43.06.75.75,0,0,1,.3.2.92.92,0,0,1,.18.32,1.45,1.45,0,0,1,.06.41Zm-.53,0A1,1,0,0,0,69,34a.5.5,0,0,0-.08-.2.35.35,0,0,0-.13-.14.39.39,0,0,0-.21,0,.46.46,0,0,0-.21,0,.33.33,0,0,0-.14.12.5.5,0,0,0-.08.2,1.15,1.15,0,0,0,0,.26,1,1,0,0,0,0,.25.48.48,0,0,0,.07.2.4.4,0,0,0,.13.13.54.54,0,0,0,.22.05.65.65,0,0,0,.2,0,.47.47,0,0,0,.15-.13.64.64,0,0,0,.08-.19,2.45,2.45,0,0,0,0-.27Zm2.7.92s0,0,0,0h-.5V34.12a.74.74,0,0,0,0-.21.5.5,0,0,0-.05-.13.28.28,0,0,0-.1-.09h-.14a.37.37,0,0,0-.2.07,1,1,0,0,0-.21.21v1.22s0,0,0,0H70s0,0,0,0V33.34s0,0,0,0h.36v.25a1.07,1.07,0,0,1,.31-.25.63.63,0,0,1,.33-.09.71.71,0,0,1,.32.07.47.47,0,0,1,.2.17.58.58,0,0,1,.12.25,1.87,1.87,0,0,1,0,.34Z" transform="translate(-13.51 -13.44)"/><g class="cls-7"><text class="cls-9" transform="translate(39.23 26.03)">G</text><text class="cls-11" transform="translate(41.92 26.03)">a</text><text class="cls-9" transform="translate(43.97 26.03)">thering</text></g><path class="cls-10" d="M90.05,30.94v0h-.52s0,0,0,0V28.43s0,0,0,0,0,0,0,0H90l0,0v2.55Zm2.31,0v0l0,0h-.41l0,0s0,0,0,0V29.68a.31.31,0,0,0-.06-.13.18.18,0,0,0-.23-.09.32.32,0,0,0-.2.07,1,1,0,0,0-.21.21V31l0,0h-.41l0,0V29.08h.42v.24a1,1,0,0,1,.31-.24.66.66,0,0,1,.33-.09.87.87,0,0,1,.32.06.55.55,0,0,1,.2.17.64.64,0,0,1,.12.25,2,2,0,0,1,0,.34Zm1.09-2.43a.29.29,0,0,1-.06.22.5.5,0,0,1-.24.06.46.46,0,0,1-.23-.06.31.31,0,0,1-.07-.21.34.34,0,0,1,.07-.22.49.49,0,0,1,.47,0A.27.27,0,0,1,93.45,28.51Zm0,2.46a0,0,0,0,1,0,0l0,0H93s0,0,0,0a0,0,0,0,1,0,0V29.11a0,0,0,0,1,0,0h.49a0,0,0,0,1,0,0ZM95.7,29a.17.17,0,0,1,.12,0,.15.15,0,0,1,0,.11V31l0,0h-.41l0,0s0,0,0,0V29.46h-.86v.87a.43.43,0,0,0,0,.22.23.23,0,0,0,.17.08H95V31l0,.06,0,0h-.3a.77.77,0,0,1-.27,0,.52.52,0,0,1-.19-.12.43.43,0,0,1-.11-.21,1,1,0,0,1,0-.29v-.94h-.22s0,0-.06-.05a.43.43,0,0,1,0-.16v-.16l0,0H94v-.44a.08.08,0,0,1,0,0h.41l0,0V29Zm.2-.53a.29.29,0,0,1-.07.22.55.55,0,0,1-.47,0,.26.26,0,0,1-.06-.21.29.29,0,0,1,.06-.22.51.51,0,0,1,.48,0A.26.26,0,0,1,95.9,28.51Zm2,2.47a0,0,0,0,1,0,0,.06.06,0,0,1-.06,0h-.26a.09.09,0,0,1-.07,0v-.19a.83.83,0,0,1-.26.19.71.71,0,0,1-.32.07.84.84,0,0,1-.27,0,.61.61,0,0,1-.21-.11.52.52,0,0,1-.14-.19.75.75,0,0,1,0-.26.55.55,0,0,1,.07-.28.41.41,0,0,1,.18-.19.91.91,0,0,1,.31-.12,2.09,2.09,0,0,1,.43,0h.18v-.11a.38.38,0,0,0,0-.15.37.37,0,0,0,0-.11.24.24,0,0,0-.11-.06h-.16a1,1,0,0,0-.24,0l-.17.06-.14.07h-.12l0,0v-.26l0-.06.1-.07a.58.58,0,0,1,.17-.06A1.41,1.41,0,0,1,97,29h.23a1.57,1.57,0,0,1,.37.05.6.6,0,0,1,.25.13.51.51,0,0,1,.15.23,1.12,1.12,0,0,1,0,.32Zm-.52-.79h-.2a.81.81,0,0,0-.22,0,.35.35,0,0,0-.14.06.14.14,0,0,0-.08.09.24.24,0,0,0,0,.12.24.24,0,0,0,.07.18.31.31,0,0,0,.21.07.36.36,0,0,0,.2-.06,1,1,0,0,0,.19-.16ZM99,31a0,0,0,0,1,0,0l0,0h-.41s0,0,0,0a0,0,0,0,1,0,0V28.24s0,0,0,0H99s0,0,0,0Z" transform="translate(-13.51 -13.44)"/><g class="cls-7"><text class="cls-9" transform="translate(70.37 21.81)">Assessme</text><text class="cls-8" transform="translate(87.36 21.81)">n</text><text class="cls-9" transform="translate(89.59 21.81)">t</text></g><text class="cls-9" transform="translate(74.41 26.03)">and HR</text><g class="cls-7"><text class="cls-9" transform="translate(71.52 30.25)">I</text><text class="cls-8" transform="translate(72.65 30.25)">n</text><text class="cls-8" transform="translate(74.88 30.25)">t</text><text class="cls-9" transform="translate(76.29 30.25)">e</text><text class="cls-12" transform="translate(78.42 30.25)">r</text><text class="cls-9" transform="translate(79.96 30.25)">vi</text><text class="cls-8" transform="translate(82.99 30.25)">e</text><text class="cls-11" transform="translate(85.1 30.25)">w</text><text class="cls-9" transform="translate(88.22 30.25)">s</text></g><g class="cls-7"><text class="cls-9" transform="translate(103.21 19.7)">Medi</text><text class="cls-8" transform="translate(112.34 19.7)">c</text><text class="cls-9" transform="translate(114.08 19.7)">al and</text></g><g class="cls-7"><text class="cls-9" transform="translate(106.99 23.92)">P</text><text class="cls-13" transform="translate(109.24 23.92)">h</text><text class="cls-11" transform="translate(111.43 23.92)">y</text><text class="cls-9" transform="translate(113.41 23.92)">si</text><text class="cls-8" transform="translate(116.13 23.92)">c</text><text class="cls-9" transform="translate(117.88 23.92)">al</text></g><g class="cls-7"><text class="cls-9" transform="translate(103.65 28.14)">Assessme</text><text class="cls-8" transform="translate(120.64 28.14)">n</text><text class="cls-9" transform="translate(122.87 28.14)">t</text></g><g class="cls-7"><text class="cls-9" transform="translate(143.51 17.58)">P</text><text class="cls-11" transform="translate(145.76 17.58)">r</text><text class="cls-9" transform="translate(147.22 17.58)">e-</text></g><g class="cls-7"><text class="cls-9" transform="translate(135.92 21.81)">Empl</text><text class="cls-11" transform="translate(144.72 21.81)">o</text><text class="cls-9" transform="translate(146.97 21.81)">yme</text><text class="cls-11" transform="translate(154.53 21.81)">n</text><text class="cls-9" transform="translate(156.76 21.81)">t</text></g><text class="cls-9" transform="translate(139.99 26.03)">Security</text><path class="cls-10" d="M153.08,43.49l0,.12a.06.06,0,0,1,0,.06h-.54v0l-.18-.53h-1l-.17.53,0,0,0,0h-.38a.11.11,0,0,1-.07,0,.06.06,0,0,1,0-.06l0-.12.79-2.38a.06.06,0,0,1,0-.06.05.05,0,0,1,.05,0h.59a.09.09,0,0,1,.06,0l0,.06Zm-1.22-2h0l-.38,1.14h.76Zm3.42,1.15a1.59,1.59,0,0,1-.06.43,1,1,0,0,1-.15.34.73.73,0,0,1-.6.29h-.14l-.14-.05-.12-.08-.13-.11v.85s0,0,0,0l0,0h-.41l-.05,0V41.75h.42a0,0,0,0,1,0,0V42l.16-.15.16-.1a.73.73,0,0,1,.35-.09.81.81,0,0,1,.34.08.54.54,0,0,1,.23.22.8.8,0,0,1,.13.32A1.75,1.75,0,0,1,155.28,42.68Zm-.53,0v-.22a.66.66,0,0,0-.06-.2.35.35,0,0,0-.11-.13.22.22,0,0,0-.17,0,.37.37,0,0,0-.21.06l-.11.09-.12.14V43a1,1,0,0,0,.21.21.32.32,0,0,0,.21.08.34.34,0,0,0,.17,0,.53.53,0,0,0,.12-.14.6.6,0,0,0,.06-.19.74.74,0,0,0,0-.21Zm2.81,0a1.59,1.59,0,0,1-.06.43.7.7,0,0,1-.15.34.57.57,0,0,1-.25.21.66.66,0,0,1-.34.08h-.15l-.13-.05-.13-.08-.12-.11v.89l0,0h-.41l0,0V41.75h.42V42l.16-.15a.78.78,0,0,1,.15-.1l.17-.07h.18a.85.85,0,0,1,.35.08.8.8,0,0,1,.23.22,1.27,1.27,0,0,1,.13.32,1.62,1.62,0,0,1,0,.38Zm-.53,0a.81.81,0,0,0,0-.22.66.66,0,0,0-.06-.2.47.47,0,0,0-.11-.13.22.22,0,0,0-.17,0h-.11a.57.57,0,0,0-.21.14l-.12.14V43a1.39,1.39,0,0,0,.21.21.32.32,0,0,0,.21.08.34.34,0,0,0,.17-.05.41.41,0,0,0,.12-.14.55.55,0,0,0,.06-.18.68.68,0,0,0,0-.2Zm1.48.91v0H158a0,0,0,0,1,0,0V40.91a0,0,0,0,1,0,0h.49v2.75Zm1.05-2.46a.29.29,0,0,1-.06.22.55.55,0,0,1-.47,0,.26.26,0,0,1-.06-.21A.29.29,0,0,1,159,41a.34.34,0,0,1,.24-.06.32.32,0,0,1,.23.06.27.27,0,0,1,.06.23Zm0,2.46v0H159V41.75h.5v1.87Zm1.91-.29v.19l0,0-.09.06-.14.06-.16,0h-.18a.83.83,0,0,1-.38-.07.67.67,0,0,1-.28-.19.92.92,0,0,1-.16-.31,1.59,1.59,0,0,1-.06-.43,1.29,1.29,0,0,1,0-.48.84.84,0,0,1,.19-.33.67.67,0,0,1,.33-.2,1.19,1.19,0,0,1,.37-.06H161l.14,0,.13.05.08.06,0,0V42a.43.43,0,0,1,0,.16.06.06,0,0,1-.06.05.11.11,0,0,1-.07,0l-.09-.06-.13-.07-.18,0a.38.38,0,0,0-.31.16.82.82,0,0,0-.1.46.78.78,0,0,0,0,.26.64.64,0,0,0,.08.19.37.37,0,0,0,.13.12.63.63,0,0,0,.19,0,.52.52,0,0,0,.18,0l.14-.07.1-.07a.07.07,0,0,1,.06,0h0v.1s0,.12,0,.16Zm1.91.3a0,0,0,0,1,0,0H163a0,0,0,0,1,0,0v-.15a.8.8,0,0,1-.58.26.84.84,0,0,1-.27,0,.53.53,0,0,1-.21-.11.52.52,0,0,1-.14-.19.47.47,0,0,1,0-.26.67.67,0,0,1,.06-.28.5.5,0,0,1,.19-.19.84.84,0,0,1,.31-.12,2,2,0,0,1,.43,0h.18V42.4a.38.38,0,0,0,0-.15.22.22,0,0,0-.17-.17h-.4l-.17.06-.14.07s-.05,0-.08,0h0s0,0,0,0v-.26l0-.06.1-.07a.58.58,0,0,1,.17-.06.83.83,0,0,1,.21-.06h.24a1.57,1.57,0,0,1,.37.05.6.6,0,0,1,.25.13.51.51,0,0,1,.15.23.85.85,0,0,1,0,.32Zm-.53-.79h-.2a.81.81,0,0,0-.22,0,.35.35,0,0,0-.14.06.2.2,0,0,0-.09.09.25.25,0,0,0,0,.12.21.21,0,0,0,.07.18.31.31,0,0,0,.21.07.36.36,0,0,0,.2-.06.93.93,0,0,0,.18-.16Zm2.79-1.13a.2.2,0,0,1,.13,0,.14.14,0,0,1,0,.11v1.76a0,0,0,0,1,0,0h-.49V42.13h-.83V43a.42.42,0,0,0,.05.22.19.19,0,0,0,.17.08h.23a0,0,0,0,1,0,0,.06.06,0,0,1,0,.06v.09a.33.33,0,0,1,0,.14.11.11,0,0,1,0,.06l-.06,0-.09,0h-.21a.8.8,0,0,1-.27,0,.5.5,0,0,1-.19-.13.43.43,0,0,1-.11-.2,1,1,0,0,1,0-.3v-1h-.24a.06.06,0,0,1-.06-.05.43.43,0,0,1,0-.16v-.16a.13.13,0,0,1,.06,0h.25v-.44l.05,0h.41a.08.08,0,0,1,0,0v.44Zm.21-.53a.34.34,0,0,1-.07.22.48.48,0,0,1-.24.06.32.32,0,0,1-.23-.06.27.27,0,0,1-.07-.21.34.34,0,0,1,.07-.22.55.55,0,0,1,.47,0A.33.33,0,0,1,165.82,41.18Zm2.33,1.52a1.3,1.3,0,0,1-.06.44.83.83,0,0,1-.5.52,1.32,1.32,0,0,1-.44.08,1.21,1.21,0,0,1-.43-.07.69.69,0,0,1-.3-.2.68.68,0,0,1-.18-.32,1.59,1.59,0,0,1-.06-.43,1.54,1.54,0,0,1,.06-.43,1,1,0,0,1,.19-.33.84.84,0,0,1,.31-.22,1.42,1.42,0,0,1,.45-.08,1.29,1.29,0,0,1,.43.07.83.83,0,0,1,.3.2.92.92,0,0,1,.18.32,1.24,1.24,0,0,1,.05.43Zm-.52,0v-.25a.5.5,0,0,0-.08-.2.35.35,0,0,0-.14-.13.46.46,0,0,0-.21,0,.46.46,0,0,0-.2,0,.28.28,0,0,0-.16.12.5.5,0,0,0-.08.2,1.09,1.09,0,0,0,0,.26,2.29,2.29,0,0,0,0,.25.8.8,0,0,0,.07.2.44.44,0,0,0,.14.13.54.54,0,0,0,.22,0,.43.43,0,0,0,.19,0,.41.41,0,0,0,.14-.12.52.52,0,0,0,.08-.19,1.33,1.33,0,0,0,0-.28Zm2.7.92v0h-.49a0,0,0,0,1,0,0V42.35a.34.34,0,0,0-.06-.12.26.26,0,0,0-.09-.09h-.14a.27.27,0,0,0-.2.07,1,1,0,0,0-.21.21v1.26h-.5a0,0,0,0,1,0,0V41.78a0,0,0,0,1,0,0h.42a0,0,0,0,1,0,0V42a1,1,0,0,1,.31-.24.63.63,0,0,1,.33-.09.71.71,0,0,1,.32.07.45.45,0,0,1,.2.16.64.64,0,0,1,.12.25,2.07,2.07,0,0,1,0,.35Z" transform="translate(-13.51 -13.44)"/><g class="cls-7"><text class="cls-11" transform="translate(171.09 17.58)">R</text><text class="cls-11" transform="translate(173.41 17.58)">e</text><text class="cls-14" transform="translate(175.5 17.58)">f</text><text class="cls-9" transform="translate(176.77 17.58)">e</text><text class="cls-11" transform="translate(178.9 17.58)">r</text><text class="cls-9" transform="translate(180.36 17.58)">ence</text></g><text class="cls-9" transform="translate(170.86 21.81)">Check and</text><g class="cls-7"><text class="cls-9" transform="translate(175.75 26.03)">D</text><text class="cls-15" transform="translate(178.41 26.03)">a<tspan class="cls-16" x="2" y="0">t</tspan></text><text class="cls-9" transform="translate(181.89 26.03)">a</text></g><path class="cls-10" d="M185,43.59s0,0,0,.06a.05.05,0,0,1,0,0h-.65v0l-.79-2.37a.61.61,0,0,1,0-.11,0,0,0,0,1,0-.07.12.12,0,0,1,.09,0h.4s0,0,0,0v0l.65,2.06h0l.64-2a.06.06,0,0,1,0-.06l0,0h.39s.07,0,.08.06v0l0,.11Zm2.64-.94a.23.23,0,0,1,0,.14.16.16,0,0,1-.13,0h-1.11a.53.53,0,0,0,0,.22.35.35,0,0,0,.08.16.34.34,0,0,0,.16.1.59.59,0,0,0,.23,0h.24l.18-.05.12,0h.09v.22a.06.06,0,0,0,0,.06v.07l-.08,0-.15,0-.21,0a1.13,1.13,0,0,1-.26,0,1.59,1.59,0,0,1-.43-.06.73.73,0,0,1-.31-.19.87.87,0,0,1-.18-.31,1.53,1.53,0,0,1,0-.9.92.92,0,0,1,.19-.33.81.81,0,0,1,.3-.21,1,1,0,0,1,.39-.07,1,1,0,0,1,.39.07.58.58,0,0,1,.27.19.64.64,0,0,1,.15.28,1.13,1.13,0,0,1,.06.36Zm-.53-.15a.62.62,0,0,0-.08-.35.43.43,0,0,0-.47-.08.29.29,0,0,0-.12.1.35.35,0,0,0-.07.15,1.16,1.16,0,0,0,0,.18Zm2.11-.53a.24.24,0,0,1,0,.12.09.09,0,0,1,0,.07v0h-.33l-.09,0-.09.1a.91.91,0,0,0-.11.16v1.18h-.5V41.75h.43V42a1.09,1.09,0,0,1,.13-.17l.12-.1.12-.06h.32V42Zm.9-.79a.29.29,0,0,1-.06.22.57.57,0,0,1-.48,0,.26.26,0,0,1-.06-.21.34.34,0,0,1,.07-.22.32.32,0,0,1,.23-.06A.34.34,0,0,1,190,41,.27.27,0,0,1,190.07,41.18Zm0,2.46a0,0,0,0,1,0,0h-.49a0,0,0,0,1,0,0V41.78a0,0,0,0,1,0,0H190a0,0,0,0,1,0,0Zm2.34,0v0h-.49a0,0,0,0,1,0,0V42.13h-.69v1.49a0,0,0,0,1,0,0h-.49V42.13h-.23s-.05,0-.06-.05a.43.43,0,0,1,0-.16v-.16a.05.05,0,0,1,0,0h.27v-.16a1.24,1.24,0,0,1,0-.33.61.61,0,0,1,.11-.23.48.48,0,0,1,.2-.15,1.35,1.35,0,0,1,.28,0h.3V41a.38.38,0,0,1,0,.15s0,0,0,0h-.19a.17.17,0,0,0-.16.08.4.4,0,0,0-.05.24v.19h1.06a.15.15,0,0,1,.11,0,.12.12,0,0,1,0,.1Zm0-2.46a.28.28,0,0,1,0,.13.13.13,0,0,1,0,.09.18.18,0,0,1-.09,0,.33.33,0,0,1-.14,0,.33.33,0,0,1-.14,0,.18.18,0,0,1-.1,0,.26.26,0,0,1,0-.09v-.25a.22.22,0,0,1,0-.08.14.14,0,0,1,.1,0h.28a.16.16,0,0,1,.13.13A.24.24,0,0,1,192.39,41.18Zm1.9,2.15a.14.14,0,0,1,0,.09v.1l0,0-.08.06-.14.06-.16,0h-.19a.79.79,0,0,1-.37-.07.61.61,0,0,1-.28-.19.94.94,0,0,1-.17-.31,1.27,1.27,0,0,1-.05-.43,1.32,1.32,0,0,1,.06-.48,1.12,1.12,0,0,1,.2-.33.7.7,0,0,1,.29-.19.94.94,0,0,1,.37-.07h.16l.15,0,.13.06.07,0a.05.05,0,0,1,0,0V42a.49.49,0,0,1,0,.17.05.05,0,0,1-.05,0,.15.15,0,0,1-.07,0l-.1-.07a.52.52,0,0,0-.13-.06.47.47,0,0,0-.17,0,.34.34,0,0,0-.31.16.77.77,0,0,0-.11.45,1.09,1.09,0,0,0,0,.26.41.41,0,0,0,.08.19.37.37,0,0,0,.13.12.48.48,0,0,0,.37,0l.13-.07.1-.07a.09.09,0,0,1,.07,0h0v.1S194.29,43.29,194.29,43.33Zm1.93.3v0h-.39a0,0,0,0,1,0,0v-.15a.81.81,0,0,1-.59.26.84.84,0,0,1-.27,0,.71.71,0,0,1-.21-.11.5.5,0,0,1-.13-.19.58.58,0,0,1-.06-.26.55.55,0,0,1,.07-.28.44.44,0,0,1,.19-.19.86.86,0,0,1,.3-.12,2.18,2.18,0,0,1,.44,0h.18v-.26a.22.22,0,0,0-.17-.17h-.4l-.18.06-.13.07-.09,0h0a.05.05,0,0,1,0,0,.09.09,0,0,1,0-.07.11.11,0,0,1,0-.08.21.21,0,0,1,0-.11l0-.06.1-.07a.49.49,0,0,1,.17-.06.83.83,0,0,1,.21-.06h.24a1.57,1.57,0,0,1,.37.05.67.67,0,0,1,.25.13.49.49,0,0,1,.14.23.86.86,0,0,1,0,.32Zm-.53-.79h-.2a.74.74,0,0,0-.21,0,.47.47,0,0,0-.15.06.24.24,0,0,0-.08.09.27.27,0,0,0,0,.12.25.25,0,0,0,.08.18.29.29,0,0,0,.2.07.36.36,0,0,0,.2-.06l.19-.16Zm2.77-1.13a.17.17,0,0,1,.12,0,.15.15,0,0,1,0,.11v1.8h-.49a0,0,0,0,1,0,0V42.13h-.83V43a.34.34,0,0,0,0,.22.17.17,0,0,0,.16.08h.24v.32l0,.06-.06,0-.09,0h-.21a.77.77,0,0,1-.27,0,.5.5,0,0,1-.19-.13.43.43,0,0,1-.11-.2,1,1,0,0,1,0-.3v-1h-.22s0,0-.06-.05a.43.43,0,0,1,0-.16v-.16l0,0h.25v-.44a.05.05,0,0,1,.05,0h.41s0,0,0,0v.43Zm.2-.53a.29.29,0,0,1-.07.22.46.46,0,0,1-.23.06.35.35,0,0,1-.24-.06.26.26,0,0,1-.06-.21.29.29,0,0,1,.06-.22.57.57,0,0,1,.48,0,.27.27,0,0,1,.06.21ZM201,42.7a1.61,1.61,0,0,1-.06.44,1.09,1.09,0,0,1-.19.33.85.85,0,0,1-.32.21,1.11,1.11,0,0,1-.44.08,1.29,1.29,0,0,1-.43-.07.83.83,0,0,1-.3-.2.92.92,0,0,1-.18-.32,1.54,1.54,0,0,1-.06-.43,1.25,1.25,0,0,1,.07-.43.84.84,0,0,1,.19-.33.77.77,0,0,1,.31-.22,1.32,1.32,0,0,1,.44-.08,1.55,1.55,0,0,1,.43.07.69.69,0,0,1,.3.2.92.92,0,0,1,.18.32,1.4,1.4,0,0,1,.06.41Zm-.53,0a1,1,0,0,0,0-.25.48.48,0,0,0-.07-.2.35.35,0,0,0-.14-.13.5.5,0,0,0-.21,0,.54.54,0,0,0-.21,0,.39.39,0,0,0-.14.12.5.5,0,0,0-.08.2,1.09,1.09,0,0,0,0,.26,1,1,0,0,0,0,.25.53.53,0,0,0,.07.2.35.35,0,0,0,.14.13.5.5,0,0,0,.21,0,.54.54,0,0,0,.21,0,.41.41,0,0,0,.14-.12.52.52,0,0,0,.08-.19.82.82,0,0,0,0-.27Zm2.7.92a0,0,0,0,1,0,0h-.49V42.57a.81.81,0,0,0,0-.22.61.61,0,0,0-.05-.12.28.28,0,0,0-.1-.09h-.14a.31.31,0,0,0-.2.07,1,1,0,0,0-.21.21v1.26h-.5V41.75h.43V42a1,1,0,0,1,.3-.24.69.69,0,0,1,.34-.09.67.67,0,0,1,.31.07.47.47,0,0,1,.21.16,1.15,1.15,0,0,1,.12.25,2.07,2.07,0,0,1,0,.35Z" transform="translate(-13.51 -13.44)"/><g class="cls-7"><text class="cls-9" transform="translate(204.73 24.08)">Job O</text><text class="cls-14" transform="translate(214.47 24.08)">ﬀ</text><text class="cls-9" transform="translate(216.94 24.08)">er</text></g><g class="cls-7"><text class="cls-9" transform="translate(235.05 23.92)">Onboa</text><text class="cls-11" transform="translate(246.8 23.92)">r</text><text class="cls-9" transform="translate(248.24 23.92)">ding</text></g><g class="cls-2"><path class="cls-17" d="M33.36,19.13a4.6,4.6,0,1,1-4.6-4.59h0a4.59,4.59,0,0,1,4.6,4.58h0" transform="translate(-13.51 -13.44)"/></g><text class="cls-18" transform="translate(13.97 7.19)">1</text><g class="cls-2"><path class="cls-17" d="M66,19.18a4.6,4.6,0,1,1-4.6-4.6h0A4.59,4.59,0,0,1,66,19.17h0" transform="translate(-13.51 -13.44)"/></g><text class="cls-18" transform="translate(46.65 7.24)">2</text><g class="cls-2"><path class="cls-17" d="M98.82,19.18a4.6,4.6,0,1,1-4.6-4.6h0a4.6,4.6,0,0,1,4.59,4.6h0" transform="translate(-13.51 -13.44)"/></g><text class="cls-18" transform="translate(79.43 7.24)">3</text><g class="cls-2"><path class="cls-17" d="M132.2,19.18a4.6,4.6,0,1,1-4.59-4.6h0a4.59,4.59,0,0,1,4.59,4.59h0" transform="translate(-13.51 -13.44)"/></g><text class="cls-18" transform="translate(112.82 7.24)">4</text><g class="cls-2"><path class="cls-17" d="M165.26,19.18a4.6,4.6,0,1,1-4.6-4.6h0a4.6,4.6,0,0,1,4.6,4.59h0" transform="translate(-13.51 -13.44)"/></g><text class="cls-18" transform="translate(145.87 7.24)">5</text><g class="cls-2"><path class="cls-17" d="M198,19.18a4.6,4.6,0,1,1-4.6-4.6h0a4.6,4.6,0,0,1,4.6,4.59h0" transform="translate(-13.51 -13.44)"/></g><text class="cls-18" transform="translate(178.56 7.24)">6</text><g class="cls-2"><path class="cls-17" d="M230.85,19.18a4.6,4.6,0,1,1-4.6-4.6h0a4.59,4.59,0,0,1,4.6,4.59h0" transform="translate(-13.51 -13.44)"/></g><text class="cls-18" transform="translate(211.46 7.24)">7</text><g class="cls-2"><path class="cls-17" d="M263.6,19.18a4.6,4.6,0,1,1-4.6-4.6h0a4.6,4.6,0,0,1,4.6,4.59h0" transform="translate(-13.51 -13.44)"/></g><text class="cls-18" transform="translate(244.2 7.24)">8</text></g></g></svg>