<svg id="Layer_1" data-name="Layer 1" xmlns="http://www.w3.org/2000/svg" viewBox="0 0 72.99 57.66"><defs><style>.cls-1,.cls-2{fill:none;}.cls-1{stroke:#fff;stroke-miterlimit:10;stroke-width:1.5px;}</style></defs><title>request</title><polyline class="cls-1" points="52.2 15.85 65.67 15.85 65.67 48.8 7.06 48.8 7.06 15.85 25.89 15.85"/><polygon class="cls-1" points="66.39 54.65 6.6 54.65 3.6 50.6 3.6 48.8 69.39 48.8 69.39 50.6 66.39 54.65"/><polygon class="cls-1" points="55.77 36.21 51.27 37.8 49.52 42.24 47.54 34.25 55.77 36.21"/><line class="cls-1" x1="56.23" y1="42.6" x2="51.27" y2="37.8"/><line class="cls-1" x1="11.92" y1="33.95" x2="32.05" y2="33.95"/><line class="cls-1" x1="11.92" y1="38.8" x2="37.1" y2="38.8"/><line class="cls-1" x1="11.92" y1="43.66" x2="42.74" y2="43.66"/><polygon class="cls-1" points="54.49 10.42 36.64 17.85 18.95 10.42 36.64 3.06 54.49 10.42"/><line class="cls-1" x1="52.01" y1="11.3" x2="52.01" y2="24.69"/><line class="cls-1" x1="48.95" y1="24.7" x2="54.85" y2="24.7"/><path class="cls-1" d="M26.06,13.59v8.92s7.31-.06,10.5,5a12.81,12.81,0,0,1,10.43-5V13.72" transform="translate(0 0)"/><rect class="cls-2" width="72.99" height="57.66"/></svg>