<svg xmlns="http://www.w3.org/2000/svg" viewBox="0 0 43.29 43.06"><defs><style>.cls-1{fill:none;stroke:#868686;stroke-miterlimit:10;}</style></defs><title>team</title><g id="Layer_2" data-name="Layer 2"><g id="Layer_1-2" data-name="Layer 1"><path class="cls-1" d="M27.24,19.71l-3.08-3.27a1.24,1.24,0,0,0-.9-.39h-3.9a1.2,1.2,0,0,1-.89-.39l-2.82-3A1.23,1.23,0,0,1,17.43,11l1.44,1.45"/><path class="cls-1" d="M34.79,15l-5-4.9a1.22,1.22,0,0,1-.26-.38l-1.2-2.59a1.23,1.23,0,0,0-.25-.36L23,1.58a1.27,1.27,0,0,0-1.82,1.78l1.44,1.48"/><path class="cls-1" d="M19,12.57l-5.9-5.89A1.33,1.33,0,0,1,15,4.8l3.66,3.66"/><path class="cls-1" d="M19.22,9,13.64,3.4a1.32,1.32,0,1,1,1.87-1.87l5.58,5.59"/><path class="cls-1" d="M20.74,6.75l-4-4A1.32,1.32,0,0,1,18.62.89l4,4"/><path class="cls-1" d="M24,26.93l2.89-2.72a1.2,1.2,0,0,0,.39-.89v-3.9a1.27,1.27,0,0,1,.38-.9l3-2.81a1.24,1.24,0,0,1,1.72,1.78l-1.46,1.44"/><line class="cls-1" x1="7.86" y1="42.09" x2="14.71" y2="35.64"/><path class="cls-1" d="M28.38,34.74l4.79-4.9a1.22,1.22,0,0,1,.38-.26l2.59-1.2a1.24,1.24,0,0,0,.35-.25L41.71,23a1.27,1.27,0,0,0-1.78-1.82l-1.48,1.44"/><path class="cls-1" d="M30.72,19.07l5.89-5.9A1.32,1.32,0,1,1,38.48,15L34.83,18.7"/><path class="cls-1" d="M34.3,19.28l5.58-5.58a1.33,1.33,0,1,1,1.88,1.87l-5.59,5.58"/><path class="cls-1" d="M36.54,20.79l4-4a1.33,1.33,0,0,1,1.87,0,1.32,1.32,0,0,1,0,1.87l-4,4"/><path class="cls-1" d="M16,23.27l3.15,3.35A1.23,1.23,0,0,0,20,27h3.89a1.26,1.26,0,0,1,.9.38l2.81,3a1.23,1.23,0,0,1-1.77,1.72l-1.44-1.45"/><line class="cls-1" x1="1.25" y1="7.63" x2="7.81" y2="14.59"/><path class="cls-1" d="M8.49,28l5,4.9a1.22,1.22,0,0,1,.26.38L15,35.91a1.07,1.07,0,0,0,.25.35l5.11,5.22a1.28,1.28,0,0,0,1.83-1.78l-1.44-1.48"/><path class="cls-1" d="M24.28,30.49l5.9,5.89a1.33,1.33,0,0,1-1.88,1.87L24.65,34.6"/><path class="cls-1" d="M24.07,34.07l5.58,5.58a1.33,1.33,0,1,1-1.87,1.88l-5.59-5.59"/><path class="cls-1" d="M22.55,36.31l4,4a1.32,1.32,0,1,1-1.87,1.87l-4-4"/><path class="cls-1" d="M19.36,16.05l-2.92,2.79a1.24,1.24,0,0,0-.39.9v3.9a1.2,1.2,0,0,1-.39.89l-3,2.82a1.25,1.25,0,0,1-1.77-.07A1.23,1.23,0,0,1,11,25.57l1.45-1.44"/><path class="cls-1" d="M15,8.25l-4.86,5a1.22,1.22,0,0,1-.38.26l-2.59,1.2a1.23,1.23,0,0,0-.36.25L1.58,20.05a1.27,1.27,0,0,0,1.78,1.82l1.48-1.44"/><path class="cls-1" d="M12.57,24l-5.89,5.9a1.33,1.33,0,0,1-1.87,0,1.32,1.32,0,0,1,0-1.87l3.65-3.66"/><path class="cls-1" d="M9,23.78,3.4,29.36a1.32,1.32,0,0,1-1.87,0,1.33,1.33,0,0,1,0-1.87l5.58-5.58"/><path class="cls-1" d="M6.75,22.26l-4,4A1.32,1.32,0,0,1,.89,24.38l4-4"/><line class="cls-1" x1="42.03" y1="35.43" x2="35.44" y2="28.47"/></g></g></svg>