<svg xmlns="http://www.w3.org/2000/svg" viewBox="0 0 44.49 46.51"><defs><style>.cls-1{fill:#808285;}</style></defs><title>Asset 3</title><g id="Layer_2" data-name="Layer 2"><g id="Layer_1-2" data-name="Layer 1"><path class="cls-1" d="M7.7,29.34v-.93L9,27.25c3.15-2.73,4.57-4.18,4.59-5.87,0-1.15-.61-2.2-2.45-2.2a4.44,4.44,0,0,0-2.62.95L8,19.06a5.71,5.71,0,0,1,3.49-1.14c2.66,0,3.78,1.66,3.78,3.27,0,2.07-1.65,3.74-4.25,6L10,28v0h5.54v1.26Z"/><path class="cls-1" d="M22.59,29.34V26.28H16.86v-1l5.51-7.17h1.8v7H25.9v1.19H24.17v3.06Zm0-4.25V21.34c0-.59,0-1.17.06-1.76h-.06c-.38.65-.68,1.14-1,1.66l-3,3.81v0Z"/><path class="cls-1" d="M27.7,17.07h1.67v5.22h0a3,3,0,0,1,1.19-1.07,3.67,3.67,0,0,1,1.71-.43c1.23,0,3.21.69,3.21,3.57v5H33.85v-4.8c0-1.35-.55-2.49-2.13-2.49a2.39,2.39,0,0,0-2.24,1.52,1.76,1.76,0,0,0-.11.72v5.05H27.7Z"/><path class="cls-1" d="M12.4,43.3a23,23,0,0,1-2.8-1.85A20.53,20.53,0,0,1,5,36.62a22.45,22.45,0,0,1-2.89-6A22.56,22.56,0,0,1,1.21,24,21.43,21.43,0,0,1,5.47,11.7,21,21,0,0,1,16.08,4.2a21.36,21.36,0,0,1,12-.16l.94.29.64-1.87a25.84,25.84,0,0,0-14.09.14A22.47,22.47,0,0,0,4.31,10.84a21.71,21.71,0,0,0-3.19,6.27A22,22,0,0,0,0,24a23.78,23.78,0,0,0,1.06,6.91A23.53,23.53,0,0,0,4.2,37.17a21.51,21.51,0,0,0,4.89,5A25.57,25.57,0,0,0,12,44l.71.33L13,43.6l-.61-.3"/><path class="cls-1" d="M34.86,42.22c-.19.13-.4.24-.6.36l.18.34.63-.4a19.52,19.52,0,0,0,2.44-2l-.22-.22a18.82,18.82,0,0,1-2.43,1.92"/><path class="cls-1" d="M44.49,25A21.18,21.18,0,0,1,44,28.89l.06,0A21.31,21.31,0,0,0,44.49,25"/><path class="cls-1" d="M28.75,45.08c-.66.18-1.33.33-2,.45l.05.52c.7-.14,1.4-.31,2.08-.51.42-.13.82-.28,1.22-.44l-.22-.41c-.37.14-.75.27-1.13.39"/><path class="cls-1" d="M42.33,33.55a21.33,21.33,0,0,1-1.82,3.1l.16.16a22.61,22.61,0,0,0,1.8-3.18Z"/><path class="cls-1" d="M17.57,45.29l-.25.64a21.45,21.45,0,0,0,4.65.58l-.06-.61a21.12,21.12,0,0,1-4.34-.61"/><path class="cls-1" d="M29,4.31c-.3-.1-.61-.18-.92-.27L26.63,5.63a19.11,19.11,0,0,1,6.21-.73A19.5,19.5,0,0,1,29,0l-.1,2.27c.24.07.49.12.73.2Z"/></g></g></svg>