<svg xmlns="http://www.w3.org/2000/svg" viewBox="0 0 51.12 40.56"><defs><style>.cls-1{fill:none;stroke:#868686;stroke-miterlimit:10;}.cls-2{font-size:7px;fill:#868686;font-family:Calibri-Bold, Calibri;font-weight:700;}.cls-3{letter-spacing:0.17em;}.cls-4{letter-spacing:0.2em;}</style></defs><title>UAE-map</title><g id="Layer_2" data-name="Layer 2"><g id="Layer_1-2" data-name="Layer 1"><path class="cls-1" d="M1.15,24l9,11.86a2.51,2.51,0,0,0,1.67,1l24.79,3.26A1.28,1.28,0,0,0,38,39.28l.25-.61a1.22,1.22,0,0,0,.1-.53,20.94,20.94,0,0,1,0-2.42c.07-.21.6-2.15.83-3a2.1,2.1,0,0,1,.33-.67l2-2.79.07-.11.74-1.25a1.24,1.24,0,0,0-.1-1.4L41.81,26a1.92,1.92,0,0,1-.18-.31l-.19-.53a.8.8,0,0,1,.5-1.05l.67-.23a1,1,0,0,1,.42,0l3.58.44v-1a.85.85,0,0,0-.06-.31l-.31-.85a.74.74,0,0,0-.69-.48h-.83a.4.4,0,0,1-.39-.49l.29-1.09a.53.53,0,0,0,0-.35L44,18.25a.57.57,0,0,1,0-.29l.26-2a.06.06,0,0,1,0,0l.38-1.9A.77.77,0,0,1,45,13.5L46.15,13l.08,1.34a1.5,1.5,0,0,0,.06.29l.2.6a1,1,0,0,0,.47.56l.67.37.93-.38,1.28-.85a.69.69,0,0,0,.29-.71l-.26-1.14a.38.38,0,0,1,0-.15l.36-2.15.37-2.71A1.48,1.48,0,0,0,50.3,7l-.36-.48a1.5,1.5,0,0,0-1.2-.59h-.92l.24-1c0-.1,0-.2,0-.29l.17-2.08.19-2H47.35l-.83.56-.83,1.83a1.85,1.85,0,0,1-.25.37L44.33,4.52a2,2,0,0,1-.51.4l-1.89,1a2.13,2.13,0,0,0-.69.61L40.4,7.73l-1.76,2.41-3,3.41a2.37,2.37,0,0,1-.8.61l-1.23.6a1.9,1.9,0,0,0-1,1.26l-.29,1.18a1.79,1.79,0,0,1-.13.32l-1.42,2.53a2.2,2.2,0,0,1-.4.51l-.26.24a2.06,2.06,0,0,1-1.87.49l-.88-.21s-.56.65-.56.92a4.86,4.86,0,0,1-1,1.27,1.08,1.08,0,0,1-.74.33l-3.86.16h-.12l-2.35-.18-2.32-.47L12,22.53a1.42,1.42,0,0,0-.94.22L10,23.49a.93.93,0,0,1-.31.13c-.61.16-2.75.7-3,.7S5.24,24,4.37,23.74a1.45,1.45,0,0,1-1-1.13l-.2-1.07a1.21,1.21,0,0,0,0-.18L2,19.13l-.71.51a1.15,1.15,0,0,0-.42.61L.54,21.57a1.35,1.35,0,0,0,0,.69l.39,1.28A1.19,1.19,0,0,0,1.15,24Z"/><text class="cls-2" transform="translate(17.71 32.77)"><tspan class="cls-3">U</tspan><tspan class="cls-4" x="5.78" y="0">A</tspan><tspan x="11.42" y="0">E</tspan></text></g></g></svg>