<svg xmlns="http://www.w3.org/2000/svg" viewBox="0 0 42.99 33.03"><defs><style>.cls-1{fill:none;stroke:#808285;stroke-miterlimit:10;stroke-width:0.75px;}</style></defs><title>Asset 4</title><g id="Layer_2" data-name="Layer 2"><g id="Layer_1-2" data-name="Layer 1"><path class="cls-1" d="M34.06,12.09H2.87a2.5,2.5,0,0,1,0-5h29a2.49,2.49,0,0,0,1.86-.83L38.25,1.2A2.5,2.5,0,0,1,42,4.55l-6.06,6.71A2.46,2.46,0,0,1,34.06,12.09Z"/><path class="cls-1" d="M10.36,29.41a3.25,3.25,0,1,0-3.25,3.25A3.25,3.25,0,0,0,10.36,29.41Z"/><line class="cls-1" x1="9.79" y1="27.58" x2="30.4" y2="12.09"/><path class="cls-1" d="M27.43,29.41a3.24,3.24,0,1,1,3.24,3.25A3.24,3.24,0,0,1,27.43,29.41Z"/><line class="cls-1" x1="27.99" y1="27.58" x2="7.38" y2="12.09"/><polyline class="cls-1" points="4.12 7.37 4.12 4.14 22.23 4.14 22.23 7.37"/><path class="cls-1" d="M25.06,7V5.05a3.18,3.18,0,0,1,3.18-3.18h1.4a3.18,3.18,0,0,1,3.18,3.18V7"/></g></g></svg>