<svg xmlns="http://www.w3.org/2000/svg" viewBox="0 0 46.06 42.85"><defs><style>.cls-1{fill:none;stroke:#868686;stroke-miterlimit:10;}.cls-2{fill:#868686;}</style></defs><title>workforce</title><g id="Layer_2" data-name="Layer 2"><g id="Layer_1-2" data-name="Layer 1"><ellipse class="cls-1" cx="24.55" cy="8.15" rx="7.03" ry="7.65"/><path class="cls-1" d="M10.79,28.51V26.88a4.52,4.52,0,0,1,.87-2.68,14.3,14.3,0,0,1,11.6-5.65h2.58a14.3,14.3,0,0,1,11.6,5.65,4.52,4.52,0,0,1,.87,2.68v1.63"/><path class="cls-1" d="M27.37,34.68a3,3,0,0,0-2.82-3.06,3.08,3.08,0,0,0,0,6.13A3,3,0,0,0,27.37,34.68Z"/><path class="cls-1" d="M19,42.85v-.66a1.82,1.82,0,0,1,.35-1.07A5.73,5.73,0,0,1,24,38.85h1a5.73,5.73,0,0,1,4.65,2.27,1.82,1.82,0,0,1,.35,1.07v.66"/><path class="cls-1" d="M13.61,34.68a3,3,0,0,0-2.82-3.06,3.08,3.08,0,0,0,0,6.13A3,3,0,0,0,13.61,34.68Z"/><path class="cls-1" d="M5.28,42.85v-.66a1.81,1.81,0,0,1,.34-1.07,5.74,5.74,0,0,1,4.66-2.27h1A5.72,5.72,0,0,1,16,41.12a1.82,1.82,0,0,1,.35,1.07v.66"/><path class="cls-1" d="M41.13,34.68a2.83,2.83,0,1,0-2.82,3.07A3,3,0,0,0,41.13,34.68Z"/><path class="cls-1" d="M32.79,42.85v-.66a1.82,1.82,0,0,1,.35-1.07,5.73,5.73,0,0,1,4.65-2.27h1a5.73,5.73,0,0,1,4.65,2.27,1.82,1.82,0,0,1,.35,1.07v.66"/><path class="cls-1" d="M44,35.89a21.39,21.39,0,0,0-6.37-24.51"/><path class="cls-2" d="M34.79,9.38a17.3,17.3,0,0,0,5.63.66L38,11.7l-.8,2.82a17.45,17.45,0,0,0-2.41-5.14"/><path class="cls-1" d="M44,35.89a21.39,21.39,0,0,0-6.37-24.51"/><path class="cls-2" d="M34.79,9.38a17.3,17.3,0,0,0,5.63.66L38,11.7l-.8,2.82a17.45,17.45,0,0,0-2.41-5.14"/><path class="cls-1" d="M3,32.55A21.47,21.47,0,0,1,13.3,9.38"/><path class="cls-2" d="M4.05,35.89a17.55,17.55,0,0,1,1.24-5.53L2.93,32.1,0,31.92a17.52,17.52,0,0,1,4.05,4"/></g></g></svg>