<?xml version="1.0" encoding="UTF-8"?>
<svg xmlns="http://www.w3.org/2000/svg" xmlns:xlink="http://www.w3.org/1999/xlink" version="1.2" >
<font id="GE SS Two K Bold">
<font-face  font-family="GE SS Two K" units-per-em="1000" ascent="825" descent="-240" font-style="normal" font-weight="400" font-stretch="normal" cap-height="667" x-height="493" underline-position="-100" underline-thickness="50" />
<missing-glyph  horiz-adv-x="500" d="M438 750 L438 0 L63 0 L63 750 L438 750 Z M375 688 L125 688 L125 63 L375 63 L375 688 Z " />
<glyph glyph-name="space" unicode="&#x20;" horiz-adv-x="205" d="" />
<glyph glyph-name="divide" unicode="&#xf7;" horiz-adv-x="551" d="M208 526 L332 526 L332 410 L208 410 L208 526 Z M22 343 L515 343 L515 224 L22 224 L22 343 Z M208 155 L332 155 L332 40 L208 40 L208 155 Z " />
<glyph glyph-name="exclam" unicode="&#x21;" horiz-adv-x="235" d="M32 644 L172 644 L172 452 L128 201 L74 201 Q59 293 32 452 L32 644 Z M32 134 L172 134 L172 0 L32 0 L32 134 Z " />
<glyph glyph-name="quotedbl" unicode="&#x22;" horiz-adv-x="316" d="M48 414 L21 686 L133 686 L108 414 L48 414 Z M203 414 L176 686 L288 686 L263 414 L203 414 Z " />
<glyph glyph-name="dollar" unicode="&#x24;" horiz-adv-x="609" d="M577 164 Q577 68 510 13 Q452 -33 351 -44 L351 -154 L279 -154 L279 -44 Q139 -29 32 40 L116 135 Q206 86 279 80 L279 221 Q145 246 98 290 Q59 327 59 397 Q59 490 126 544 Q184 590 278 596 L278 700 L351 700 L351 595 Q451 585 555 521 L475 428 Q409 461 351 473 L351 351 Q486 323 536 275 Q577 235 577 164 Z M279 474 Q205 467 205 414 Q205 378 279 364 L279 474 Z M431 152 Q431 196 351 207 L351 82 Q431 90 431 152 Z " />
<glyph glyph-name="quotesingle" unicode="&#x27;" horiz-adv-x="165" d="M48 414 L21 686 L133 686 L108 414 L48 414 Z " />
<glyph glyph-name="parenright" unicode="&#x29;" horiz-adv-x="351" d="M317 262 Q317 122 256 10 Q200 -91 86 -184 L32 -130 Q113 -37 145 43 Q182 130 182 251 Q182 501 32 634 L82 697 Q317 525 317 262 Z " />
<glyph glyph-name="parenleft" unicode="&#x28;" horiz-adv-x="351" d="M271 -183 Q35 -10 35 252 Q35 520 267 698 L319 643 Q241 555 207 470 Q170 380 170 263 Q170 14 320 -120 L271 -183 Z " />
<glyph glyph-name="multiply" unicode="&#xd7;" horiz-adv-x="550" d="M273 366 L406 499 L489 415 L357 282 L489 150 L406 66 L273 199 L141 66 L57 150 L190 282 L57 415 L141 499 L273 366 Z " />
<glyph glyph-name="plus" unicode="&#x2b;" horiz-adv-x="550" d="M344 357 L522 357 L522 238 L344 238 L344 52 L205 52 L205 238 L29 238 L29 357 L205 357 L205 540 L344 540 L344 357 Z " />
<glyph glyph-name="hyphen" unicode="&#x2d;" horiz-adv-x="551" d="M24 276 L517 276 L517 157 L24 157 L24 276 Z " />
<glyph glyph-name="period" unicode="&#x2e;" horiz-adv-x="190" d="M25 133 L148 133 L148 1 L25 1 L25 133 Z " />
<glyph glyph-name="slash" unicode="&#x2f;" horiz-adv-x="472" d="M32 0 L309 645 L439 645 L162 0 L32 0 Z " />
<glyph glyph-name="colon" unicode="&#x3a;" horiz-adv-x="190" d="M25 357 L148 357 L148 224 L25 224 L25 357 Z M26 134 L149 134 L149 0 L26 0 L26 134 Z " />
<glyph glyph-name="greater" unicode="&#x3e;" horiz-adv-x="481" d="M38 467 L197 467 L431 233 L197 0 L38 0 L272 233 L38 467 Z " />
<glyph glyph-name="equal" unicode="&#x3d;" horiz-adv-x="567" d="M37 409 L530 409 L530 291 L37 291 L37 409 Z M37 216 L530 216 L530 98 L37 98 L37 216 Z " />
<glyph glyph-name="less" unicode="&#x3c;" horiz-adv-x="481" d="M432 467 L198 233 L432 0 L273 0 L39 233 L273 467 L432 467 Z " />
<glyph glyph-name="bracketright" unicode="&#x5d;" horiz-adv-x="270" d="M32 677 L236 677 L236 -165 L32 -165 L32 -88 L115 -88 L115 601 L32 601 L32 677 Z " />
<glyph glyph-name="backslash" unicode="&#x5c;" horiz-adv-x="467" d="M28 645 L157 645 L434 0 L305 0 L28 645 Z " />
<glyph glyph-name="bracketleft" unicode="&#x5b;" horiz-adv-x="270" d="M154 -88 L236 -88 L236 -165 L32 -165 L32 677 L236 677 L236 601 L154 601 L154 -88 Z " />
<glyph glyph-name="underscore" unicode="&#x5f;" horiz-adv-x="382" d="M16 -16 L365 -16 L365 -120 L16 -120 L16 -16 Z " />
<glyph glyph-name="braceright" unicode="&#x7d;" horiz-adv-x="422" d="M35 -124 Q35 -112 36 -108 Q119 -107 150 -89 Q181 -71 181 -29 L180 -13 L180 189 Q180 243 252 289 Q180 345 180 388 L180 590 Q180 653 146 672 Q117 689 37 689 L37 698 Q37 717 39 727 Q290 727 290 590 L290 388 Q290 358 312 331.5 Q334 305 372 289 L374 289 Q290 234 290 189 L290 -13 Q290 -83 243 -114 Q201 -141 114 -141 L36 -141 Q35 -136 35 -124 Z " />
<glyph glyph-name="bar" unicode="&#x7c;" horiz-adv-x="175" d="M137 725 L137 -141 L34 -141 L34 725 L137 725 Z " />
<glyph glyph-name="braceleft" unicode="&#x7b;" horiz-adv-x="422" d="M375 -124 Q375 -136 374 -141 L296 -141 Q197 -141 155 -105 Q120 -75 120 -13 L120 189 Q120 234 36 289 L38 289 Q76 305 98 331.5 Q120 358 120 388 L120 590 Q120 727 371 727 Q373 717 373 698 L373 689 Q283 689 255 666 Q230 646 230 590 L230 388 Q230 345 158 289 Q230 243 230 189 L230 -13 L229 -29 Q229 -76 269 -94 Q301 -107 374 -108 Q375 -112 375 -124 Z " />
<glyph glyph-name="zero" unicode="0" horiz-adv-x="529" d="M431 543 Q479 459 479 305 Q479 151 431 68 Q384 -15 264 -15 Q145 -15 98 68 Q50 151 50 305 Q50 459 98 543 Q146 626 264 626 Q383 626 431 543 Z M192 141 Q210 84 264 84 Q318 84 336 141 Q353 200 353 305 Q353 415 336 471 Q318 525 264 525 Q210 525 192 471 Q175 420 175 305 Q175 195 192 141 Z " />
<glyph glyph-name="one" unicode="1" horiz-adv-x="372" d="M196 429 L50 429 L50 512 Q112 515 131 520 Q166 527 191 552 Q206 570 215 597 Q219 612 219 622 L322 622 L322 0 L196 0 L196 429 Z " />
<glyph glyph-name="two" unicode="2" horiz-adv-x="526" d="M79 122 Q105 185 202 254 Q285 312 312 341 Q350 382 350 430 Q350 470 328 495 Q306 522 265 522 Q210 522 189 480 Q177 454 176 404 L57 404 Q60 484 86 532 Q134 625 260 625 Q359 625 417 570 Q475 516 475 426 Q475 358 434 303 Q409 270 345 223 L296 189 Q254 159 233 142 Q215 125 204 108 L476 108 L476 0 L50 0 Q51 65 79 122 Z " />
<glyph glyph-name="three" unicode="3" horiz-adv-x="530" d="M170 191 Q170 153 182 129 Q205 84 263 84 Q300 84 326 109 Q353 133 353 180 Q353 241 303 262 Q273 273 214 273 L214 361 Q272 361 297 372 Q338 390 338 445 Q338 481 317 503 Q296 525 259 525 Q216 525 195 498 Q174 472 176 425 L61 425 Q64 473 77 513 Q91 547 124 580 Q148 603 181 613 Q214 625 262 625 Q353 625 406 579 Q461 533 461 455 Q461 401 428 362 Q406 338 385 330 Q402 330 433 302 Q480 258 480 183 Q480 103 425 44 Q371 -15 264 -15 Q132 -15 80 71 Q53 116 50 191 L170 191 Z " />
<glyph glyph-name="four" unicode="4" horiz-adv-x="536" d="M486 229 L486 134 L416 134 L416 0 L296 0 L296 134 L50 134 L50 241 L279 618 L416 618 L416 229 L486 229 Z M141 229 L296 229 L296 497 L141 229 Z " />
<glyph glyph-name="five" unicode="5" horiz-adv-x="530" d="M172 166 Q180 125 200 105 Q219 83 260 83 Q305 83 329 115 Q352 147 352 196 Q352 244 330 276 Q308 309 261 309 Q239 309 222 303 Q193 292 179 265 L70 270 L113 614 L455 614 L455 510 L201 510 L179 374 Q207 391 223 398 Q249 408 288 408 Q366 408 422 356 Q480 305 480 205 Q480 121 425 51 Q370 -16 259 -16 Q171 -16 113 31 Q56 79 50 166 L172 166 Z " />
<glyph glyph-name="six" unicode="6" horiz-adv-x="530" d="M345 465 Q345 480 333 498 Q314 528 273 528 Q213 528 189 461 Q175 425 170 352 Q193 379 222 391 Q255 404 291 404 Q375 404 427 347 Q480 291 480 204 Q480 117 428 50 Q376 -16 267 -16 Q148 -16 93 82 Q50 158 50 280 Q50 351 56 396 Q66 476 98 528 Q122 571 167 601 Q211 628 270 628 Q356 628 409 584 Q460 539 467 465 L345 465 Z M200 115 Q227 83 268 83 Q310 83 332 114 Q356 144 356 193 Q356 249 329 277 Q303 306 264 306 Q232 306 209 287 Q173 259 173 197 Q173 147 200 115 Z " />
<glyph glyph-name="seven" unicode="7" horiz-adv-x="540" d="M490 614 L490 518 Q465 494 413 422 Q365 356 331 279 Q304 217 284 137 Q263 55 263 0 L136 0 Q140 166 246 348 Q315 463 359 504 L50 504 L50 614 L490 614 Z " />
<glyph glyph-name="eight" unicode="8" horiz-adv-x="533" d="M74 267 Q98 310 143 331 Q100 360 84 396 Q71 429 71 462 Q71 529 122 577 Q173 625 267 625 Q360 625 411 577 Q462 529 462 462 Q462 429 449 396 Q436 363 390 335 Q437 309 459 267 Q483 225 483 172 Q483 95 425 39 Q367 -16 262 -16 Q158 -16 104 39 Q50 95 50 172 Q50 225 74 267 Z M209 392 Q230 371 267 371 Q304 371 325 392 Q345 415 345 448 Q345 484 325 506 Q303 526 267 526 Q231 526 209 506 Q188 485 188 448 Q188 415 209 392 Z M201 109 Q226 84 267 84 Q308 84 333 109 Q357 135 357 181 Q357 228 332 253 Q307 278 267 278 Q227 278 202 253 Q177 228 177 181 Q177 135 201 109 Z " />
<glyph glyph-name="nine" unicode="9" horiz-adv-x="532" d="M108 565 Q165 627 257 627 Q400 627 452 501 Q482 431 482 314 Q482 199 453 126 Q399 -18 252 -18 Q182 -18 126 23 Q71 65 62 144 L184 144 Q189 117 207 100 Q227 82 257 82 Q318 82 342 149 Q356 188 359 257 Q342 236 324 225 Q290 204 239 204 Q166 204 107 255 Q50 308 50 403 Q50 504 108 565 Z M313 318 Q355 345 355 411 Q355 465 330 494 Q306 525 263 525 Q232 525 209 507 Q174 480 174 414 Q174 359 196 331 Q219 304 266 304 Q290 304 313 318 Z " />
<glyph glyph-name="quotedblleft" unicode="&#x201c;" horiz-adv-x="267" d="M130 647 Q83 604 83 555 Q83 530 114 530 L114 458 L34 458 L34 539 Q34 582 105 647 L130 647 Z M237 647 Q190 604 190 555 Q190 530 221 530 L221 458 L141 458 L141 539 Q141 583 211 647 L237 647 Z " />
<glyph glyph-name="quotedblright" unicode="&#x201d;" horiz-adv-x="267" d="M51 647 L130 647 L130 565 Q130 523 59 458 L34 458 Q82 500 82 549 Q82 574 51 574 L51 647 Z M158 647 L237 647 L237 565 Q237 523 166 458 L141 458 Q188 500 188 549 Q188 574 158 574 L158 647 Z " />
<glyph glyph-name="hyphenminus" unicode="&#x2010;" horiz-adv-x="454" d="M445 231 L445 192 L24 192 L24 231 L445 231 Z " />
<glyph glyph-name="delete" unicode="&#x2421;" horiz-adv-x="709" d="M253 189 Q253 81 174 62 Q154 57 133 57 L38 57 L38 317 L128 317 Q161 317 174 313 Q253 295 253 189 Z M320 88 L479 88 L479 57 L284 57 L284 317 L473 317 L473 286 L320 286 L320 207 L463 207 L463 176 L320 176 L320 88 Z M547 88 L674 88 L674 57 L511 57 L511 317 L547 317 L547 88 Z M218 189 Q218 263 172 281 Q157 286 128 286 L73 286 L73 88 L129 88 Q173 88 192 106 Q218 134 218 189 Z " />
<glyph glyph-name="nbspace" unicode="&#xa0;" horiz-adv-x="623" d="" />
<glyph glyph-name="righttoleft" unicode="&#x200f;" horiz-adv-x="20" d="M-76 722 L20 722 L20 0 L0 0 L0 702 L-78 702 L-40 664 L-54 650 L-114 711 L-54 772 L-40 758 L-76 722 Z " />
<glyph glyph-name="lefttoright" unicode="&#x200e;" horiz-adv-x="20" d="M60 758 L74 772 L134 711 L74 650 L60 664 L98 702 L20 702 L20 0 L0 0 L0 722 L96 722 L60 758 Z " />
<glyph glyph-name="zerojoin" unicode="&#x200d;" horiz-adv-x="20" d="M71 758 L24 711 L71 663 L57 650 L20 687 L20 0 L0 0 L0 687 L-37 650 L-51 663 L-3 711 L-51 758 L-37 772 L10 724 L57 772 L71 758 Z " />
<glyph glyph-name="zeronojoin" unicode="&#x200c;" horiz-adv-x="20" d="M0 722 L20 722 L20 0 L0 0 L0 722 Z " />
<glyph glyph-name="zerowidthnobreakspace" unicode="&#xfeff;" d="" />
<glyph glyph-name="asterisk" unicode="&#x2a;" horiz-adv-x="358" d="M224 183 L326 191 L326 127 L225 133 L288 48 L224 17 L179 108 L137 12 L76 49 L134 132 L32 126 L32 192 L132 181 L75 264 L136 301 L179 205 L224 301 L282 265 L224 183 Z " />
<glyph glyph-name="hamzaar" unicode="&#x621;" horiz-adv-x="559" d="M521 134 L521 0 L62 0 L62 134 L162 134 Q151 170 151 201 Q151 295 215 354 Q269 404 346 404 Q467 404 519 283 L403 229 Q385 282 345 282 Q317 282 301.5 262 Q286 242 286 207 Q286 152 317 134 L521 134 Z " />
<glyph glyph-name="alefar" unicode="&#x627;" horiz-adv-x="256" d="M70 645 L210 645 L210 0 L70 0 L70 645 Z " />
<glyph glyph-name="alefar.fina" unicode="&#xfe8e;" horiz-adv-x="360" d="M371 134 L371 0 L239 0 Q154 0 109 50 Q70 93 70 165 L70 645 L210 645 L210 238 Q210 179 235 157 Q262 134 330 134 L371 134 Z " />
<glyph glyph-name="alefHamzaabovear" unicode="&#x623;" horiz-adv-x="263" d="M228 752 L228 700 L49 700 L49 751 L88 751 Q84 763 84 777 Q84 813 108 837 Q129 857 159 857 Q206 857 226 810 L181 789 Q175 810 159 810 Q136 810 136 780 Q136 757 150 752 L228 752 Z M70 645 L210 645 L210 0 L70 0 L70 645 Z " />
<glyph glyph-name="alefHamzaabovear.fina" unicode="&#xfe84;" horiz-adv-x="360" d="M228 752 L228 700 L49 700 L49 751 L88 751 Q84 763 84 777 Q84 813 108 837 Q129 857 159 857 Q206 857 226 810 L181 789 Q175 810 159 810 Q136 810 136 780 Q136 757 150 752 L228 752 Z M371 134 L371 0 L239 0 Q154 0 109 50 Q70 93 70 165 L70 645 L210 645 L210 238 Q210 179 235 157 Q262 134 330 134 L371 134 Z " />
<glyph glyph-name="alefHamzabelowar" unicode="&#x625;" horiz-adv-x="256" d="M70 645 L210 645 L210 0 L70 0 L70 645 Z M221 -147 L221 -199 L41 -199 L41 -148 L81 -148 Q76 -131 76 -121 Q76 -84 100 -61 Q122 -41 153 -41 Q200 -41 220 -88 L175 -109 Q167 -89 152 -89 Q129 -89 129 -119 Q129 -143 142 -147 L221 -147 Z " />
<glyph glyph-name="alefHamzabelowar.fina" unicode="&#xfe88;" horiz-adv-x="360" d="M371 134 L371 0 L239 0 Q154 0 109 50 Q70 93 70 165 L70 645 L210 645 L210 238 Q210 179 235 157 Q262 134 330 134 L371 134 Z M262 -147 L262 -199 L82 -199 L82 -148 L122 -148 Q117 -131 117 -121 Q117 -84 141 -61 Q163 -41 194 -41 Q241 -41 261 -88 L216 -109 Q208 -89 193 -89 Q170 -89 170 -119 Q170 -143 183 -147 L262 -147 Z " />
<glyph glyph-name="alefMaddaar" unicode="&#x622;" horiz-adv-x="256" d="M265 730 Q231 688 196 688 Q185 688 143 706 Q99 724 87 724 Q65 724 41 691 L21 746 Q53 788 87 788 Q100 788 153 766 L157 764 Q189 751 195 751 Q218 751 246 784 L265 730 Z M70 645 L210 645 L210 0 L70 0 L70 645 Z " />
<glyph glyph-name="alefMaddaar.fina" unicode="&#xfe82;" horiz-adv-x="360" d="M265 730 Q231 688 196 688 Q185 688 143 706 Q99 724 87 724 Q65 724 41 691 L21 746 Q53 788 87 788 Q100 788 153 766 L157 764 Q189 751 195 751 Q218 751 246 784 L265 730 Z M371 134 L371 0 L239 0 Q154 0 109 50 Q70 93 70 165 L70 645 L210 645 L210 238 Q210 179 235 157 Q262 134 330 134 L371 134 Z " />
<glyph glyph-name="alefWaslaar" unicode="&#x671;" horiz-adv-x="256" d="M20 708 L20 744 L47 745 L47 804 L80 804 L80 763 Q98 803 137 826 Q163 839 183 839 L187 839 Q262 830 263 708 L20 708 Z M221 744 Q209 799 181 799 L179 799 Q140 799 102 744 L221 744 Z M70 645 L210 645 L210 0 L70 0 L70 645 Z " />
<glyph glyph-name="alefWaslaar.fina" unicode="&#xfb51;" horiz-adv-x="360" d="M20 708 L20 744 L47 745 L47 804 L80 804 L80 763 Q98 803 137 826 Q163 839 183 839 L187 839 Q262 830 263 708 L20 708 Z M221 744 Q209 799 181 799 L179 799 Q140 799 102 744 L221 744 Z M371 134 L371 0 L239 0 Q154 0 109 50 Q70 93 70 165 L70 645 L210 645 L210 238 Q210 179 235 157 Q262 134 330 134 L371 134 Z " />
<glyph glyph-name="alefFathatanar.isol" unicode="&#xfd3d;" horiz-adv-x="256" d="M261 834 Q260 801 212 785 Q191 778 105 762 Q78 756 57 752 Q65 784 101 796 L261 834 Z M250 765 Q250 733 203 717 Q183 711 95 693 Q68 688 47 683 Q54 716 91 728 L250 765 Z M70 645 L210 645 L210 0 L70 0 L70 645 Z " />
<glyph glyph-name="alefFathatanar.fina" unicode="&#xfd3c;" horiz-adv-x="360" d="M261 834 Q260 801 212 785 Q191 778 105 762 Q78 756 57 752 Q65 784 101 796 L261 834 Z M250 765 Q250 733 203 717 Q183 711 95 693 Q68 688 47 683 Q54 716 91 728 L250 765 Z M371 134 L371 0 L239 0 Q154 0 109 50 Q70 93 70 165 L70 645 L210 645 L210 238 Q210 179 235 157 Q262 134 330 134 L371 134 Z " />
<glyph glyph-name="behar" unicode="&#x628;" horiz-adv-x="926" d="M756 453 L894 453 L894 165 Q894 81 844 38 Q800 0 725 0 L363 0 Q32 0 32 280 L32 454 L170 454 L170 280 Q170 191 226 159 Q269 134 366 134 L624 134 Q685 134 706 144 Q756 165 756 236 L756 453 Z M414 -50 L538 -50 L538 -166 L414 -166 L414 -50 Z " />
<glyph glyph-name="behar.fina" unicode="&#xfe90;" horiz-adv-x="1034" d="M1043 134 L1043 0 L363 0 Q32 0 32 280 L32 453 L170 453 L170 280 Q170 191 226 159 Q269 134 366 134 L685 134 Q756 134 756 230 L756 453 L896 453 L896 235 Q896 179 880 134 L1043 134 Z M420 -50 L545 -50 L545 -166 L420 -166 L420 -50 Z " />
<glyph glyph-name="behar.medi" unicode="&#xfe92;" horiz-adv-x="430" d="M440 134 L440 0 L-11 0 L-11 134 L81 134 Q152 134 152 230 L152 453 L293 453 L293 235 Q293 182 276 134 L440 134 Z M155 -50 L279 -50 L279 -166 L155 -166 L155 -50 Z " />
<glyph glyph-name="behar.init" unicode="&#xfe91;" horiz-adv-x="322" d="M150 453 L290 453 L290 193 Q290 114 246 61 Q197 0 109 0 L-10 0 L-10 134 L79 134 Q150 134 150 232 L150 453 Z M158 -50 L282 -50 L282 -166 L158 -166 L158 -50 Z " />
<glyph glyph-name="pehar" unicode="&#x67e;" horiz-adv-x="926" d="M756 453 L894 453 L894 165 Q894 81 844 38 Q800 0 725 0 L363 0 Q32 0 32 280 L32 454 L170 454 L170 280 Q170 191 226 159 Q269 134 366 134 L624 134 Q685 134 706 144 Q756 165 756 236 L756 453 Z M338 -79 L443 -79 L443 -178 L338 -178 L338 -79 Z M498 -79 L604 -79 L604 -178 L498 -178 L498 -79 Z M417 -214 L523 -214 L523 -313 L417 -313 L417 -214 Z " />
<glyph glyph-name="pehar.fina" unicode="&#xfb57;" horiz-adv-x="1034" d="M1043 134 L1043 0 L363 0 Q32 0 32 280 L32 454 L170 454 L170 280 Q170 191 226 159 Q269 134 366 134 L685 134 Q756 134 756 230 L756 453 L896 453 L896 235 Q896 179 880 134 L1043 134 Z M338 -79 L443 -79 L443 -178 L338 -178 L338 -79 Z M498 -79 L604 -79 L604 -178 L498 -178 L498 -79 Z M417 -214 L523 -214 L523 -313 L417 -313 L417 -214 Z " />
<glyph glyph-name="pehar.medi" unicode="&#xfb59;" horiz-adv-x="430" d="M440 134 L440 0 L-11 0 L-11 134 L81 134 Q152 134 152 230 L152 453 L293 453 L293 235 Q293 182 276 134 L440 134 Z M34 -79 L140 -79 L140 -178 L34 -178 L34 -79 Z M195 -79 L300 -79 L300 -178 L195 -178 L195 -79 Z M114 -214 L220 -214 L220 -313 L114 -313 L114 -214 Z " />
<glyph glyph-name="pehar.init" unicode="&#xfb58;" horiz-adv-x="322" d="M150 453 L290 453 L290 193 Q290 113 247 61 Q198 0 109 0 L-24 0 L-24 134 L79 134 Q150 134 150 232 L150 453 Z M23 -79 L129 -79 L129 -178 L23 -178 L23 -79 Z M184 -79 L289 -79 L289 -178 L184 -178 L184 -79 Z M103 -214 L209 -214 L209 -313 L103 -313 L103 -214 Z " />
<glyph glyph-name="tehar" unicode="&#x62a;" horiz-adv-x="926" d="M313 569 L438 569 L438 453 L313 453 L313 569 Z M502 569 L627 569 L627 453 L502 453 L502 569 Z M756 453 L894 453 L894 165 Q894 81 844 38 Q800 0 725 0 L363 0 Q32 0 32 280 L32 454 L170 454 L170 280 Q170 191 226 159 Q269 134 366 134 L624 134 Q685 134 706 144 Q756 165 756 236 L756 453 Z " />
<glyph glyph-name="tehar.fina" unicode="&#xfe96;" horiz-adv-x="1034" d="M313 569 L438 569 L438 453 L313 453 L313 569 Z M502 569 L627 569 L627 453 L502 453 L502 569 Z M1043 134 L1043 0 L363 0 Q32 0 32 280 L32 454 L170 454 L170 280 Q170 191 226 159 Q269 134 366 134 L685 134 Q756 134 756 230 L756 453 L896 453 L896 235 Q896 179 880 134 L1043 134 Z " />
<glyph glyph-name="tehar.medi" unicode="&#xfe98;" horiz-adv-x="430" d="M-30 644 L94 644 L94 529 L-30 529 L-30 644 Z M158 644 L282 644 L282 529 L158 529 L158 644 Z M440 134 L440 0 L-11 0 L-11 134 L81 134 Q152 134 152 230 L152 453 L293 453 L293 235 Q293 182 276 134 L440 134 Z " />
<glyph glyph-name="tehar.init" unicode="&#xfe97;" horiz-adv-x="322" d="M-32 644 L92 644 L92 529 L-32 529 L-32 644 Z M156 644 L281 644 L281 529 L156 529 L156 644 Z M150 453 L290 453 L290 193 Q290 114 246 61 Q197 0 109 0 L-10 0 L-10 134 L79 134 Q150 134 150 232 L150 453 Z " />
<glyph glyph-name="thehar" unicode="&#x62b;" horiz-adv-x="926" d="M410 730 L535 730 L535 614 L410 614 L410 730 Z M316 569 L441 569 L441 454 L316 454 L316 569 Z M505 569 L630 569 L630 454 L505 454 L505 569 Z M756 453 L894 453 L894 165 Q894 81 844 38 Q800 0 725 0 L363 0 Q32 0 32 280 L32 454 L170 454 L170 280 Q170 191 226 159 Q269 134 366 134 L624 134 Q685 134 706 144 Q756 165 756 236 L756 453 Z " />
<glyph glyph-name="thehar.fina" unicode="&#xfe9a;" horiz-adv-x="1034" d="M410 729 L535 729 L535 613 L410 613 L410 729 Z M316 569 L441 569 L441 454 L316 454 L316 569 Z M505 569 L630 569 L630 454 L505 454 L505 569 Z M1043 134 L1043 0 L363 0 Q32 0 32 280 L32 454 L170 454 L170 280 Q170 191 226 159 Q269 134 366 134 L685 134 Q756 134 756 230 L756 453 L896 453 L896 235 Q896 179 880 134 L1043 134 Z " />
<glyph glyph-name="thehar.medi" unicode="&#xfe9c;" horiz-adv-x="431" d="M63 809 L187 809 L187 694 L63 694 L63 809 Z M-30 644 L94 644 L94 529 L-30 529 L-30 644 Z M158 644 L282 644 L282 529 L158 529 L158 644 Z M442 134 L442 0 L-9 0 L-9 134 L83 134 Q154 134 154 230 L154 453 L294 453 L294 235 Q294 179 278 134 L442 134 Z " />
<glyph glyph-name="thehar.init" unicode="&#xfe9b;" horiz-adv-x="322" d="M61 809 L185 809 L185 694 L61 694 L61 809 Z M-32 644 L92 644 L92 529 L-32 529 L-32 644 Z M156 644 L281 644 L281 529 L156 529 L156 644 Z M150 453 L290 453 L290 193 Q290 114 246 61 Q197 0 109 0 L-10 0 L-10 134 L79 134 Q150 134 150 232 L150 453 Z " />
<glyph glyph-name="jeemar" unicode="&#x62c;" horiz-adv-x="561" d="M320 199 Q237 199 202 169 Q172 143 172 86 Q172 -27 317 -27 L420 -27 L420 -166 L327 -166 Q174 -166 97 -89 Q32 -24 32 86 Q32 191 94 258 Q149 317 239 332 Q277 338 385 338 Q358 471 224 471 Q191 471 163 460 L163 584 Q192 589 229 589 Q376 589 459 486 Q529 398 529 262 Q529 228 525 199 L320 199 Z M265 146 L389 146 L389 30 L265 30 L265 146 Z " />
<glyph glyph-name="jeemar.fina" unicode="&#xfe9e;" horiz-adv-x="701" d="M710 134 L710 0 L702 0 Q586 0 509 58 Q442 109 409 200 L317 200 Q172 200 172 83 Q172 -26 317 -26 L420 -26 L420 -165 L327 -165 Q173 -165 97 -89 Q32 -24 32 86 Q32 191 96 259 Q151 318 240 333 Q260 336 357 338 L385 338 Q358 471 224 471 Q193 471 163 460 L163 584 Q200 592 233 592 Q376 592 452 502 Q518 424 526 287 Q552 134 693 134 L710 134 Z M260 151 L385 151 L385 36 L260 36 L260 151 Z " />
<glyph glyph-name="jeemar.medi" unicode="&#xfea0;" horiz-adv-x="790" d="M822 134 L822 0 L-14 0 L-14 134 L554 134 Q550 213 497 270 Q438 335 343 335 Q299 335 252.5 315 Q206 295 176 263 L106 358 Q208 464 353 464 Q440 464 509 432 Q671 355 696 134 L822 134 Z M302 -50 L426 -50 L426 -166 L302 -166 L302 -50 Z " />
<glyph glyph-name="jeemar.init" unicode="&#xfe9f;" horiz-adv-x="729" d="M696 0 L-19 0 L-19 134 L547 134 Q542 226 477 284 Q419 335 338 335 Q295 335 248 315 Q201 295 170 263 L100 358 Q202 464 348 464 Q529 463 619 338 Q696 231 696 46 L696 0 Z M300 -50 L425 -50 L425 -166 L300 -166 L300 -50 Z " />
<glyph glyph-name="tchehar" unicode="&#x686;" horiz-adv-x="561" d="M320 199 Q237 199 202 169 Q172 143 172 86 Q172 -27 317 -27 L420 -27 L420 -166 L327 -166 Q174 -166 97 -89 Q32 -24 32 86 Q32 191 94 258 Q149 317 239 332 Q277 338 385 338 Q358 471 224 471 Q191 471 163 460 L163 584 Q192 589 229 589 Q376 589 459 486 Q529 398 529 262 Q529 228 525 199 L320 199 Z M303 144 L362 144 L362 90 L303 90 L303 144 Z M392 144 L451 144 L451 90 L392 90 L392 144 Z M347 69 L406 69 L406 15 L347 15 L347 69 Z " />
<glyph glyph-name="tchehar.fina" unicode="&#xfb7b;" horiz-adv-x="701" d="M710 134 L710 0 L702 0 Q586 0 509 58 Q442 109 409 200 L317 200 Q172 200 172 83 Q172 -26 317 -26 L420 -26 L420 -165 L327 -165 Q173 -165 97 -89 Q32 -24 32 86 Q32 191 96 259 Q151 318 240 333 Q260 336 357 338 L385 338 Q358 471 224 471 Q193 471 163 460 L163 584 Q200 592 233 592 Q376 592 452 502 Q518 424 526 287 Q552 134 693 134 L710 134 Z M247 144 L306 144 L306 90 L247 90 L247 144 Z M337 144 L396 144 L396 90 L337 90 L337 144 Z M292 69 L351 69 L351 15 L292 15 L292 69 Z " />
<glyph glyph-name="tchehar.medi" unicode="&#xfb7d;" horiz-adv-x="790" d="M822 134 L822 0 L-14 0 L-14 134 L554 134 Q550 213 497 270 Q438 335 343 335 Q299 335 252.5 315 Q206 295 176 263 L106 358 Q208 464 353 464 Q440 464 509 432 Q671 355 696 134 L822 134 Z M254 -79 L360 -79 L360 -178 L254 -178 L254 -79 Z M414 -79 L520 -79 L520 -178 L414 -178 L414 -79 Z M333 -214 L439 -214 L439 -313 L333 -313 L333 -214 Z " />
<glyph glyph-name="tchehar.init" unicode="&#xfb7c;" horiz-adv-x="727" d="M696 0 L-19 0 L-19 134 L547 134 Q542 226 477 284 Q419 335 338 335 Q295 335 248 315 Q201 295 170 263 L100 358 Q202 464 348 464 Q529 463 619 338 Q696 231 696 46 L696 0 Z M248 -79 L354 -79 L354 -178 L248 -178 L248 -79 Z M408 -79 L514 -79 L514 -178 L408 -178 L408 -79 Z M328 -214 L433 -214 L433 -313 L328 -313 L328 -214 Z " />
<glyph glyph-name="hahar" unicode="&#x62d;" horiz-adv-x="561" d="M320 199 Q237 199 202 169 Q172 143 172 86 Q172 -27 317 -27 L420 -27 L420 -166 L327 -166 Q174 -166 97 -89 Q32 -24 32 86 Q32 191 94 258 Q149 317 239 332 Q277 338 385 338 Q358 471 224 471 Q191 471 163 460 L163 584 Q192 589 229 589 Q376 589 459 486 Q529 398 529 262 Q529 228 525 199 L320 199 Z " />
<glyph glyph-name="hahar.fina" unicode="&#xfea2;" horiz-adv-x="701" d="M710 134 L710 0 L702 0 Q586 0 509 58 Q442 109 409 200 L317 200 Q172 200 172 83 Q172 -26 317 -26 L420 -26 L420 -165 L327 -165 Q173 -165 97 -89 Q32 -24 32 86 Q32 191 96 259 Q151 318 240 333 Q260 336 357 338 L385 338 Q358 471 224 471 Q193 471 163 460 L163 584 Q200 592 233 592 Q376 592 452 502 Q518 424 526 287 Q552 134 693 134 L710 134 Z " />
<glyph glyph-name="hahar.medi" unicode="&#xfea4;" horiz-adv-x="790" d="M802 134 L802 0 L-14 0 L-14 134 L554 134 Q550 213 497 270 Q438 335 343 335 Q299 335 252.5 315 Q206 295 176 263 L106 358 Q208 464 353 464 Q440 464 509 432 Q671 355 696 134 L802 134 Z " />
<glyph glyph-name="hahar.init" unicode="&#xfea3;" horiz-adv-x="729" d="M696 0 L-19 0 L-19 134 L547 134 Q542 226 477 284 Q419 335 338 335 Q295 335 248 315 Q201 295 170 263 L100 358 Q202 464 348 464 Q529 463 619 338 Q696 231 696 46 L696 0 Z " />
<glyph glyph-name="khahar" unicode="&#x62e;" horiz-adv-x="561" d="M260 760 L385 760 L385 645 L260 645 L260 760 Z M320 199 Q237 199 202 169 Q172 143 172 86 Q172 -27 317 -27 L420 -27 L420 -166 L327 -166 Q174 -166 97 -89 Q32 -24 32 86 Q32 191 94 258 Q149 317 239 332 Q277 338 385 338 Q358 471 224 471 Q191 471 163 460 L163 584 Q192 589 229 589 Q376 589 459 486 Q529 398 529 262 Q529 228 525 199 L320 199 Z " />
<glyph glyph-name="khahar.fina" unicode="&#xfea6;" horiz-adv-x="701" d="M259 760 L384 760 L384 644 L259 644 L259 760 Z M710 134 L710 0 L702 0 Q586 0 509 58 Q442 109 409 200 L317 200 Q172 200 172 83 Q172 -26 317 -26 L420 -26 L420 -165 L327 -165 Q173 -165 97 -89 Q32 -24 32 86 Q32 191 96 259 Q151 318 240 333 Q260 336 357 338 L385 338 Q358 471 224 471 Q193 471 163 460 L163 584 Q200 592 233 592 Q376 592 452 502 Q518 424 526 287 Q552 134 693 134 L710 134 Z " />
<glyph glyph-name="khahar.medi" unicode="&#xfea8;" horiz-adv-x="790" d="M289 644 L413 644 L413 529 L289 529 L289 644 Z M802 134 L802 0 L-14 0 L-14 134 L554 134 Q550 213 497 270 Q438 335 343 335 Q299 335 252.5 315 Q206 295 176 263 L106 358 Q208 464 353 464 Q440 464 509 432 Q671 355 696 134 L802 134 Z " />
<glyph glyph-name="khahar.init" unicode="&#xfea7;" horiz-adv-x="729" d="M282 644 L407 644 L407 529 L282 529 L282 644 Z M696 0 L-19 0 L-19 134 L547 134 Q542 226 477 284 Q419 335 338 335 Q295 335 248 315 Q201 295 170 263 L100 358 Q202 464 348 464 Q529 463 619 338 Q696 231 696 46 L696 0 Z " />
<glyph glyph-name="dalar" unicode="&#x62f;" horiz-adv-x="597" d="M565 0 L62 0 L62 134 L425 134 Q425 246 356 294 Q295 336 171 336 L171 453 Q304 453 358 434 Q565 361 565 135 L565 0 Z " />
<glyph glyph-name="dalar.fina" unicode="&#xfeaa;" horiz-adv-x="692" d="M710 135 L710 0 L62 0 L62 134 L425 134 Q425 246 356 294 Q295 336 171 336 L171 453 Q304 453 358 434 Q565 360 565 135 L710 135 Z " />
<glyph glyph-name="thalar" unicode="&#x630;" horiz-adv-x="597" d="M233 644 L358 644 L358 529 L233 529 L233 644 Z M565 0 L62 0 L62 134 L425 134 Q425 246 356 294 Q295 336 171 336 L171 453 Q304 453 358 434 Q565 361 565 135 L565 0 Z " />
<glyph glyph-name="thalar.fina" unicode="&#xfeac;" horiz-adv-x="692" d="M233 644 L358 644 L358 529 L233 529 L233 644 Z M710 135 L710 0 L62 0 L62 134 L425 134 Q425 246 356 294 Q295 336 171 336 L171 453 Q304 453 358 434 Q565 360 565 135 L710 135 Z " />
<glyph glyph-name="rehar" unicode="&#x631;" horiz-adv-x="362" d="M189 453 L330 453 L330 92 Q330 -46 260 -107 Q196 -165 51 -165 L51 -52 Q189 -52 189 80 L189 453 Z " />
<glyph glyph-name="rehar.fina" unicode="&#xfeae;" horiz-adv-x="457" d="M330 134 L478 134 L478 0 L323 0 Q289 -165 51 -165 L51 -52 Q189 -52 189 80 L189 453 L330 453 L330 134 Z " />
<glyph glyph-name="zainar" unicode="&#x632;" horiz-adv-x="362" d="M196 644 L320 644 L320 529 L196 529 L196 644 Z M189 453 L330 453 L330 92 Q330 -46 260 -107 Q196 -165 51 -165 L51 -52 Q189 -52 189 80 L189 453 Z " />
<glyph glyph-name="zainar.fina" unicode="&#xfeb0;" horiz-adv-x="457" d="M197 644 L321 644 L321 529 L197 529 L197 644 Z M330 134 L478 134 L478 0 L323 0 Q289 -165 51 -165 L51 -52 Q189 -52 189 80 L189 453 L330 453 L330 134 Z " />
<glyph glyph-name="rehvbelowar" unicode="&#x695;" horiz-adv-x="362" d="M189 453 L330 453 L330 92 Q330 -46 260 -107 Q196 -165 51 -165 L51 -52 Q189 -52 189 80 L189 453 Z M218 -389 L157 -389 L105 -240 L163 -240 L188 -310 L212 -240 L270 -240 L218 -389 Z " />
<glyph glyph-name="jehar" unicode="&#x698;" horiz-adv-x="362" d="M100 800 L224 800 L224 685 L100 685 L100 800 Z M15 644 L139 644 L139 529 L15 529 L15 644 Z M197 644 L321 644 L321 529 L197 529 L197 644 Z M189 453 L330 453 L330 92 Q330 -46 260 -107 Q196 -165 51 -165 L51 -52 Q189 -52 189 80 L189 453 Z " />
<glyph glyph-name="jehar.fina" unicode="&#xfb8b;" horiz-adv-x="457" d="M100 800 L224 800 L224 685 L100 685 L100 800 Z M15 644 L139 644 L139 529 L15 529 L15 644 Z M197 644 L321 644 L321 529 L197 529 L197 644 Z M330 134 L478 134 L478 0 L323 0 Q289 -165 51 -165 L51 -52 Q189 -52 189 80 L189 453 L330 453 L330 134 Z " />
<glyph glyph-name="seenar" unicode="&#x633;" horiz-adv-x="1270" d="M1092 453 L1233 453 L1233 236 Q1233 127 1165 58 Q1107 0 1026 0 L624 0 Q526 -166 350 -166 Q263 -166 190 -121 Q118 -76 77 0 Q34 79 34 174 L34 454 L174 454 L174 187 Q174 81 227 19 Q274 -36 350 -36 Q436 -36 484 34 Q525 94 525 187 L525 454 L666 454 L666 174 Q666 160 664 134 L738 134 Q809 134 809 224 L809 453 L949 453 L949 235 Q949 180 932 134 L1021 134 Q1092 134 1092 224 L1092 453 Z " />
<glyph glyph-name="seenar.fina" unicode="&#xfeb2;" horiz-adv-x="1365" d="M1379 134 L1379 0 L624 0 Q605 -33 579 -63 Q489 -165 350 -166 Q217 -166 125 -68 Q34 29 34 174 L34 454 L174 454 L174 187 Q174 97 215 35 Q262 -36 350 -36 Q437 -36 485 35 Q525 96 525 187 L525 454 L666 454 L666 453 L667 453 L667 235 Q667 216 666 207 L666 174 Q666 160 664 134 L739 134 Q810 134 810 224 L810 453 L950 453 L950 235 Q950 180 933 134 L1022 134 Q1093 134 1093 224 L1093 453 L1234 453 L1234 236 Q1234 180 1216 134 L1379 134 Z " />
<glyph glyph-name="seenar.medi" unicode="&#xfeb4;" horiz-adv-x="1005" d="M1018 134 L1018 0 L-12 0 L-12 134 L94 134 Q131 134 148 157 Q165 180 165 229 L165 453 L306 453 L306 235 Q306 180 289 134 L378 134 Q449 134 449 224 L449 453 L589 453 L589 235 Q589 180 572 134 L661 134 Q732 134 732 224 L732 453 L873 453 L873 236 Q873 180 855 134 L1018 134 Z " />
<glyph glyph-name="seenar.init" unicode="&#xfeb3;" horiz-adv-x="915" d="M-32 0 L-32 134 L94 134 Q142 134 159 178 Q165 190 165 230 L165 453 L306 453 L306 235 Q306 180 289 134 L378 134 Q449 134 449 224 L449 453 L589 453 L589 235 Q589 180 572 134 L661 134 Q732 134 732 224 L732 453 L873 453 L873 236 Q873 118 800 53 Q741 0 666 0 L-32 0 Z " />
<glyph glyph-name="sheenar" unicode="&#x634;" horiz-adv-x="1270" d="M812 809 L936 809 L936 694 L812 694 L812 809 Z M719 644 L844 644 L844 529 L719 529 L719 644 Z M908 644 L1032 644 L1032 529 L908 529 L908 644 Z M1092 453 L1233 453 L1233 236 Q1233 127 1165 58 Q1107 0 1026 0 L624 0 Q526 -166 350 -166 Q263 -166 190 -121 Q118 -76 77 0 Q34 79 34 174 L34 454 L174 454 L174 187 Q174 81 227 19 Q274 -36 350 -36 Q436 -36 484 34 Q525 94 525 187 L525 454 L666 454 L666 174 Q666 160 664 134 L738 134 Q809 134 809 224 L809 453 L949 453 L949 235 Q949 180 932 134 L1021 134 Q1092 134 1092 224 L1092 453 Z " />
<glyph glyph-name="sheenar.fina" unicode="&#xfeb6;" horiz-adv-x="1365" d="M812 809 L936 809 L936 694 L812 694 L812 809 Z M719 644 L844 644 L844 529 L719 529 L719 644 Z M908 644 L1032 644 L1032 529 L908 529 L908 644 Z M1379 134 L1379 0 L624 0 Q605 -33 579 -63 Q489 -165 350 -166 Q217 -166 125 -68 Q34 29 34 174 L34 454 L174 454 L174 187 Q174 97 215 35 Q262 -36 350 -36 Q437 -36 485 35 Q525 96 525 187 L525 454 L666 454 L666 453 L667 453 L667 235 Q667 216 666 207 L666 174 Q666 160 664 134 L739 134 Q810 134 810 224 L810 453 L950 453 L950 235 Q950 180 933 134 L1022 134 Q1093 134 1093 224 L1093 453 L1234 453 L1234 236 Q1234 180 1216 134 L1379 134 Z " />
<glyph glyph-name="sheenar.medi" unicode="&#xfeb8;" horiz-adv-x="1005" d="M451 809 L575 809 L575 694 L451 694 L451 809 Z M358 644 L483 644 L483 529 L358 529 L358 644 Z M547 644 L671 644 L671 529 L547 529 L547 644 Z M1018 134 L1018 0 L-32 0 L-32 134 L94 134 Q131 134 148 157 Q165 180 165 229 L165 453 L306 453 L306 235 Q306 180 289 134 L378 134 Q449 134 449 224 L449 453 L589 453 L589 235 Q589 180 572 134 L661 134 Q732 134 732 224 L732 453 L873 453 L873 236 Q873 180 855 134 L1018 134 Z " />
<glyph glyph-name="sheenar.init" unicode="&#xfeb7;" horiz-adv-x="915" d="M453 809 L577 809 L577 694 L453 694 L453 809 Z M360 644 L485 644 L485 529 L360 529 L360 644 Z M549 644 L673 644 L673 529 L549 529 L549 644 Z M732 453 L873 453 L873 236 Q873 127 805 58 Q747 0 666 0 L215 0 L215 -1 L214 0 L-32 0 L-32 134 L94 134 Q131 134 148 157 Q165 180 165 230 L165 453 L306 453 L306 235 Q306 180 289 134 L378 134 Q449 134 449 224 L449 453 L589 453 L589 235 Q589 180 572 134 L661 134 Q732 134 732 224 L732 453 Z " />
<glyph glyph-name="sadar" unicode="&#x635;" horiz-adv-x="1303" d="M624 0 Q526 -166 350 -166 Q263 -166 190 -121 Q118 -76 77 0 Q34 80 34 174 L34 454 L174 454 L174 187 Q174 81 227 19 Q274 -36 350 -36 Q436 -36 484 34 Q525 94 525 187 L525 454 L666 454 L666 268 Q738 362 828 412 Q908 455 987 455 Q1129 455 1201 345 Q1262 252 1262 92 Q1262 52 1257 0 L624 0 Z M1115 134 L1116 152 Q1116 237 1075 287 Q1037 333 977 333 Q821 333 705 134 L1115 134 Z " />
<glyph glyph-name="sadar.fina" unicode="&#xfeba;" horiz-adv-x="1353" d="M1364 134 L1364 0 L624 0 Q526 -166 350 -166 Q263 -166 190 -121 Q118 -76 77 0 Q34 80 34 174 L34 454 L174 454 L174 187 Q174 81 227 19 Q274 -36 350 -36 Q436 -36 484 34 Q525 94 525 187 L525 454 L666 454 L666 276 Q737 366 826 413 Q904 455 982 455 Q1113 455 1184 360 Q1246 278 1255 134 L1364 134 Z M1109 134 L1110 152 Q1110 237 1069 287 Q1031 333 971 333 Q815 333 699 134 L1109 134 Z " />
<glyph glyph-name="sadar.medi" unicode="&#xfebc;" horiz-adv-x="994" d="M1003 134 L1003 0 L-32 0 L-32 134 L94 134 Q131 134 148 157 Q165 180 165 230 L165 405 L305 405 L305 276 Q376 366 465 413 Q543 455 621 455 Q752 455 823 360 Q885 278 894 134 L1003 134 Z M748 134 L749 152 Q749 237 708 287 Q670 333 610 333 Q454 333 338 134 L748 134 Z " />
<glyph glyph-name="sadar.init" unicode="&#xfebb;" horiz-adv-x="947" d="M-32 0 L-32 134 L94 134 Q131 134 148 157 Q165 180 165 230 L165 405 L305 405 L305 272 Q377 364 466 413 Q545 455 623 455 Q765 455 837 345 Q898 252 898 92 Q898 52 893 0 L-32 0 Z M751 134 L752 152 Q752 237 711 287 Q673 333 613 333 Q457 333 341 134 L751 134 Z " />
<glyph glyph-name="dadar" unicode="&#x636;" horiz-adv-x="1303" d="M901 644 L1026 644 L1026 529 L901 529 L901 644 Z M624 0 Q526 -166 350 -166 Q263 -166 190 -121 Q118 -76 77 0 Q34 80 34 174 L34 454 L174 454 L174 187 Q174 81 227 19 Q274 -36 350 -36 Q436 -36 484 34 Q525 94 525 187 L525 454 L666 454 L666 268 Q738 362 828 412 Q908 455 987 455 Q1129 455 1201 345 Q1262 252 1262 92 Q1262 52 1257 0 L624 0 Z M1115 134 L1116 152 Q1116 237 1075 287 Q1037 333 977 333 Q821 333 705 134 L1115 134 Z " />
<glyph glyph-name="dadar.fina" unicode="&#xfebe;" horiz-adv-x="1353" d="M895 644 L1020 644 L1020 529 L895 529 L895 644 Z M1364 134 L1364 0 L624 0 Q526 -166 350 -166 Q263 -166 190 -121 Q118 -76 77 0 Q34 80 34 174 L34 454 L174 454 L174 187 Q174 81 227 19 Q274 -36 350 -36 Q436 -36 484 34 Q525 94 525 187 L525 454 L666 454 L666 276 Q737 366 826 413 Q904 455 982 455 Q1113 455 1184 360 Q1246 278 1255 134 L1364 134 Z M1109 134 L1110 152 Q1110 237 1069 287 Q1031 333 971 333 Q815 333 699 134 L1109 134 Z " />
<glyph glyph-name="dadar.medi" unicode="&#xfec0;" horiz-adv-x="994" d="M534 644 L659 644 L659 529 L534 529 L534 644 Z M1003 134 L1003 0 L-32 0 L-32 134 L94 134 Q131 134 148 157 Q165 180 165 230 L165 405 L305 405 L305 276 Q376 366 465 413 Q543 455 621 455 Q752 455 823 360 Q885 278 894 134 L1003 134 Z M748 134 Q748 226 710 281 Q673 333 610 333 Q454 333 338 134 L748 134 Z " />
<glyph glyph-name="dadar.init" unicode="&#xfebf;" horiz-adv-x="947" d="M537 644 L662 644 L662 529 L537 529 L537 644 Z M-32 0 L-32 134 L94 134 Q131 134 148 157 Q165 180 165 230 L165 405 L305 405 L305 272 Q377 364 466 413 Q545 455 623 455 Q765 455 837 345 Q898 252 898 92 Q898 52 893 0 L-32 0 Z M751 134 L752 152 Q752 237 711 287 Q673 333 613 333 Q457 333 341 134 L751 134 Z " />
<glyph glyph-name="tahar" unicode="&#x637;" horiz-adv-x="844" d="M32 0 L32 134 L131 134 L131 644 L270 644 L257 317 Q389 455 536 455 Q678 455 750 345 Q811 252 811 92 Q811 52 806 0 L32 0 Z M664 134 Q665 141 665 154 Q665 239 623 289 Q586 333 526 333 Q370 333 254 134 L664 134 Z " />
<glyph glyph-name="tahar.fina" unicode="&#xfec2;" horiz-adv-x="909" d="M919 134 L919 0 L32 0 L32 134 L130 134 L130 644 L270 644 L257 317 Q388 455 537 455 Q668 455 740 359 Q802 276 810 134 L919 134 Z M664 134 L664 148 Q664 238 623 288 Q586 333 525 333 Q370 333 254 134 L664 134 Z " />
<glyph glyph-name="tahar.medi" unicode="&#xfec4;" horiz-adv-x="933" d="M943 134 L943 0 L-6 0 L-6 134 L154 134 L154 644 L293 644 L280 317 Q412 455 560 455 Q691 455 762 360 Q823 278 834 134 L943 134 Z M687 134 Q688 141 688 154 Q688 239 646 289 Q609 333 549 333 Q393 333 277 134 L687 134 Z " />
<glyph glyph-name="tahar.init" unicode="&#xfec3;" horiz-adv-x="867" d="M-51 0 L-51 134 L154 134 L154 644 L293 644 L280 317 Q412 455 559 455 Q701 455 773 345 Q834 251 834 92 Q834 52 829 0 L-51 0 Z M687 134 Q688 141 688 154 Q688 239 646 289 Q609 333 549 333 Q393 333 277 134 L687 134 Z " />
<glyph glyph-name="zahar" unicode="&#x638;" horiz-adv-x="844" d="M536 455 Q678 455 750 345 Q811 252 811 92 Q811 52 806 0 L32 0 L32 134 L131 134 L131 644 L270 644 L257 317 Q389 455 536 455 Z M575 529 L450 529 L450 644 L575 644 L575 529 Z M254 134 L664 134 Q665 141 665 154 Q665 239 623 289 Q586 333 526 333 Q370 333 254 134 Z " />
<glyph glyph-name="zahar.fina" unicode="&#xfec6;" horiz-adv-x="909" d="M919 134 L919 0 L32 0 L32 134 L130 134 L130 644 L270 644 L257 317 Q388 455 537 455 Q668 455 740 359 Q802 276 810 134 L919 134 Z M575 529 L450 529 L450 644 L575 644 L575 529 Z M664 134 L664 148 Q663 238 623 288 Q586 333 525 333 Q370 333 254 134 L664 134 Z " />
<glyph glyph-name="zahar.medi" unicode="&#xfec8;" horiz-adv-x="933" d="M943 134 L943 0 L-6 0 L-6 134 L154 134 L154 644 L293 644 L280 317 Q412 455 560 455 Q691 455 762 360 Q823 278 834 134 L943 134 Z M587 529 L463 529 L463 644 L587 644 L587 529 Z M277 134 L687 134 Q688 141 688 154 Q688 239 646 289 Q609 333 549 333 Q393 333 277 134 Z " />
<glyph glyph-name="zahar.init" unicode="&#xfec7;" horiz-adv-x="867" d="M-51 0 L-51 134 L154 134 L154 644 L293 644 L280 317 Q412 455 559 455 Q701 455 773 345 Q834 251 834 92 Q834 52 829 0 L-51 0 Z M485 644 L610 644 L610 529 L485 529 L485 644 Z M687 134 Q688 141 688 154 Q688 239 646 289 Q609 333 549 333 Q393 333 277 134 L687 134 Z " />
<glyph glyph-name="ainar" unicode="&#x639;" horiz-adv-x="618" d="M586 323 L586 188 L309 188 Q230 188 196 159 Q167 133 167 79 Q167 -30 309 -30 L501 -30 L501 -166 L317 -166 Q172 -166 97 -93 Q32 -30 32 79 Q32 170 81 232 Q124 286 198 309 Q174 359 174 428 Q174 524 245 588 Q307 644 392 644 Q460 644 511 608 Q556 576 579 522 L467 470 Q448 528 390 528 Q351 528 327 494 Q306 465 306 422 Q306 349 362 323 L586 323 Z " />
<glyph glyph-name="ainar.fina" unicode="&#xfeca;" horiz-adv-x="756" d="M766 134 L766 0 L757 0 Q540 2 476 188 L309 188 Q230 188 196 159 Q167 133 167 79 Q167 -31 309 -31 L501 -31 L501 -166 L317 -166 Q169 -166 95 -92 Q32 -29 32 79 Q32 170 81 232 Q124 286 198 309 Q174 363 174 416 Q174 519 243 586 Q304 644 392 644 Q460 644 511 608 Q556 576 579 522 L467 470 Q448 528 390 528 Q351 528 327 494 Q306 465 306 422 Q306 344 362 323 L586 323 Q586 134 755 134 L766 134 Z " />
<glyph glyph-name="ainar.medi" unicode="&#xfecc;" horiz-adv-x="812" d="M834 134 L834 0 L576 0 Q488 0 421 70 Q384 39 327 20 Q262 0 203 0 L-17 0 L-17 134 L201 134 Q276 134 331 168 Q310 197 255 232 Q191 272 133 282 L133 397 Q270 478 410 478 Q576 478 719 368 Q703 328 646 262 Q585 192 531 159 Q557 134 606 134 L834 134 Z M546 331 Q482 364 420 364 Q358 364 301 336 Q343 318 373 296 Q401 276 435 236 Q464 249 500 282 Q534 311 546 331 Z " />
<glyph glyph-name="ainar.init" unicode="&#xfecb;" horiz-adv-x="581" d="M548 134 L548 0 L-15 0 L-15 134 L143 134 Q123 188 123 230 Q123 328 186 397 Q251 466 349 466 Q417 466 470 428 Q517 394 541 339 L426 286 Q406 345 346 345 Q303 345 281 311 Q260 283 260 237 Q260 157 316 134 L548 134 Z " />
<glyph glyph-name="ghainar" unicode="&#x63a;" horiz-adv-x="618" d="M328 831 L452 831 L452 715 L328 715 L328 831 Z M586 323 L586 188 L309 188 Q230 188 196 159 Q167 133 167 79 Q167 -30 309 -30 L501 -30 L501 -166 L317 -166 Q172 -166 97 -93 Q32 -30 32 79 Q32 170 81 232 Q124 286 198 309 Q174 359 174 428 Q174 524 245 588 Q307 644 392 644 Q460 644 511 608 Q556 576 579 522 L467 470 Q448 528 390 528 Q351 528 327 494 Q306 465 306 422 Q306 349 362 323 L586 323 Z " />
<glyph glyph-name="ghainar.fina" unicode="&#xfece;" horiz-adv-x="756" d="M328 831 L452 831 L452 715 L328 715 L328 831 Z M766 134 L766 0 L757 0 Q540 2 476 188 L309 188 Q230 188 196 159 Q167 133 167 79 Q167 -31 309 -31 L501 -31 L501 -166 L317 -166 Q169 -166 95 -92 Q32 -29 32 79 Q32 170 81 232 Q124 286 198 309 Q174 363 174 416 Q174 519 243 586 Q304 644 392 644 Q460 644 511 608 Q556 576 579 522 L467 470 Q448 528 390 528 Q351 528 327 494 Q306 465 306 422 Q306 344 362 323 L586 323 Q586 134 755 134 L766 134 Z " />
<glyph glyph-name="ghainar.medi" unicode="&#xfed0;" horiz-adv-x="812" d="M359 665 L484 665 L484 550 L359 550 L359 665 Z M834 134 L834 0 L576 0 Q488 0 421 70 Q384 39 327 20 Q262 0 203 0 L-17 0 L-17 134 L201 134 Q276 134 331 168 Q310 197 255 232 Q191 272 133 282 L133 397 Q270 478 410 478 Q576 478 719 368 Q703 328 646 262 Q585 192 531 159 Q557 134 606 134 L834 134 Z M546 331 Q482 364 420 364 Q358 364 301 336 Q343 318 373 296 Q401 276 435 236 Q464 249 500 282 Q534 311 546 331 Z " />
<glyph glyph-name="ghainar.init" unicode="&#xfecf;" horiz-adv-x="581" d="M288 644 L412 644 L412 529 L288 529 L288 644 Z M548 134 L548 0 L-17 0 L-17 134 L143 134 Q123 188 123 230 Q123 328 186 397 Q251 466 349 466 Q417 466 470 428 Q517 394 541 339 L426 286 Q406 345 346 345 Q303 345 281 311 Q260 283 260 237 Q260 157 316 134 L548 134 Z " />
<glyph glyph-name="fehar" unicode="&#x641;" horiz-adv-x="987" d="M667 644 L791 644 L791 529 L667 529 L667 644 Z M955 228 Q955 118 883 55 Q821 0 725 0 L363 0 Q32 0 32 280 L32 426 L170 426 L170 280 Q170 194 220 162 Q265 134 366 134 L510 134 Q494 176 494 227 Q494 339 563 400 Q623 454 720 454 Q836 454 900 385 Q955 325 955 228 Z M816 224 Q816 342 727 342 L718 342 Q676 342 652 305 Q632 274 632 229 Q632 172 660 140 Q685 113 725 113 Q770 113 795 149 Q816 179 816 224 Z " />
<glyph glyph-name="fehar.fina" unicode="&#xfed2;" horiz-adv-x="1054" d="M682 742 L806 742 L806 627 L682 627 L682 742 Z M1063 134 L1063 0 L995 0 Q829 0 745 29 Q663 0 496 0 L362 0 Q32 0 32 280 L32 453 L170 453 L170 280 Q170 191 226 159 Q269 134 366 134 L496 134 Q560 134 578 135 Q512 210 512 305 Q512 345 524 382 Q549 460 615 503 Q672 540 745 540 Q829 540 891 492 Q945 450 967 382 Q979 345 979 305 Q979 211 914 135 Q931 134 995 134 L1063 134 Z M794 201 Q853 243 853 313 Q853 364 821 395 Q791 424 745 424 Q694 424 664 387 Q638 357 638 313 Q638 243 697 201 Q721 183 745 171 Q769 182 794 201 Z " />
<glyph glyph-name="fehar.medi" unicode="&#xfed4;" horiz-adv-x="626" d="M252 742 L376 742 L376 627 L252 627 L252 742 Z M647 134 L647 0 L566 0 Q420 0 316 37 Q212 0 66 0 L-25 0 L-25 134 L66 134 Q130 134 148 142 Q83 216 83 306 Q83 344 95 382 Q121 460 186 503 Q243 540 316 540 Q401 540 462 492 Q515 450 537 382 Q549 344 549 306 Q549 216 484 142 Q503 134 566 134 L647 134 Z M365 201 Q423 242 423 316 Q423 368 391 401 Q362 431 316 431 Q268 431 236 396 Q210 362 210 316 Q210 243 268 201 Q292 183 316 171 Q338 182 365 201 Z " />
<glyph glyph-name="fehar.init" unicode="&#xfed3;" horiz-adv-x="610" d="M277 645 L401 645 L401 530 L277 530 L277 645 Z M578 228 Q578 126 515 63 Q454 0 349 0 L-17 0 L-17 134 L133 134 Q117 176 117 227 Q117 339 186 400 Q246 454 343 454 Q449 454 513 394 Q578 335 578 228 Z M439 224 Q439 342 350 342 L340 342 Q298 342 274 305 Q254 273 254 229 Q254 180 276 149 Q302 113 348 113 Q392 113 417 147 Q439 178 439 224 Z " />
<glyph glyph-name="vehar" unicode="&#x6a4;" horiz-adv-x="987" d="M674 764 L786 764 L786 660 L674 660 L674 764 Z M592 618 L705 618 L705 514 L592 514 L592 618 Z M763 618 L875 618 L875 514 L763 514 L763 618 Z M955 228 Q955 117 884 54 Q823 0 725 0 L363 0 Q187 0 106 81 Q32 155 32 280 L32 426 L170 426 L170 280 Q170 210 204 177 Q247 134 366 134 L510 134 Q494 176 494 227 Q494 339 563 400 Q623 454 720 454 Q827 454 889 396 Q955 335 955 228 Z M816 224 Q816 342 727 342 L718 342 Q674 342 652 305 Q632 273 632 229 Q632 181 653 149 Q679 113 725 113 Q770 113 794 147 Q816 178 816 224 Z " />
<glyph glyph-name="vehar.fina" unicode="&#xfb6b;" horiz-adv-x="1054" d="M696 859 L807 859 L807 755 L696 755 L696 859 Z M614 714 L726 714 L726 610 L614 610 L614 714 Z M784 714 L896 714 L896 610 L784 610 L784 714 Z M1074 134 L1074 0 L995 0 Q829 0 745 29 Q669 0 496 0 L362 0 Q32 0 32 280 L32 453 L170 453 L170 280 Q170 190 226 158 Q270 134 366 134 L496 134 Q560 134 578 135 Q512 210 512 305 Q512 345 524 382 Q549 460 615 503 Q672 540 745 540 Q829 540 891 492 Q945 450 967 382 Q979 345 979 305 Q979 211 914 135 Q931 134 995 134 L1074 134 Z M794 201 Q853 243 853 313 Q853 364 821 395 Q791 424 745 424 Q694 424 664 387 Q638 357 638 313 Q638 243 697 201 Q721 183 745 171 Q769 182 794 201 Z " />
<glyph glyph-name="vehar.medi" unicode="&#xfb6d;" horiz-adv-x="625" d="M274 857 L386 857 L386 753 L274 753 L274 857 Z M193 712 L305 712 L305 608 L193 608 L193 712 Z M362 712 L475 712 L475 608 L362 608 L362 712 Z M679 134 L679 0 L566 0 Q420 0 316 37 Q212 0 66 0 L-46 0 L-46 134 L66 134 Q130 134 148 142 Q83 216 83 306 Q83 416 160 483 Q225 540 316 540 Q423 540 490 467 Q549 402 549 306 Q549 216 484 142 Q503 134 566 134 L679 134 Z M365 201 Q423 243 423 316 Q423 368 391 401 Q362 431 316 431 Q266 431 236 394 Q210 363 210 316 Q210 225 316 171 Q338 182 365 201 Z " />
<glyph glyph-name="vehar.init" unicode="&#xfb6c;" horiz-adv-x="597" d="M282 764 L395 764 L395 660 L282 660 L282 764 Z M201 618 L313 618 L313 514 L201 514 L201 618 Z M371 618 L483 618 L483 514 L371 514 L371 618 Z M565 228 Q565 120 494 56 Q432 0 336 0 L-15 0 L-15 134 L120 134 Q104 176 104 227 Q104 339 173 400 Q233 454 330 454 Q443 454 507 387 Q565 326 565 228 Z M426 224 Q426 342 337 342 L328 342 Q286 342 262 305 Q241 275 241 229 Q241 172 270 141 Q295 113 335 113 Q379 113 405 148 Q426 178 426 224 Z " />
<glyph glyph-name="qafar" unicode="&#x642;" horiz-adv-x="758" d="M348 644 L466 644 L466 534 L348 534 L348 644 Z M529 644 L648 644 L648 534 L529 534 L529 644 Z M725 162 Q725 71 679 -5 Q634 -79 556 -122 Q477 -166 382 -166 Q287 -166 206 -123 Q126 -81 80 -8 Q32 69 32 162 L32 353 L167 353 L167 174 Q167 67 230 10 Q285 -40 379 -40 Q510 -40 564 54 Q536 48 504 48 Q395 48 335 115 Q282 173 282 267 Q282 374 349 433 Q407 485 500 485 Q610 485 671 420 Q725 363 725 270 L725 162 Z M592 263 Q592 376 507 376 L497 376 Q457 376 434 341 Q415 312 415 268 Q415 215 442 184 Q465 157 504 157 Q547 157 571 191 Q592 219 592 263 Z " />
<glyph glyph-name="qafar.fina" unicode="&#xfed6;" horiz-adv-x="848" d="M348 644 L466 644 L466 534 L348 534 L348 644 Z M529 644 L648 644 L648 534 L529 534 L529 644 Z M725 134 L859 134 L859 0 L688 0 Q644 -84 557 -128 Q480 -166 382 -166 Q287 -166 206 -123 Q126 -81 80 -8 Q32 69 32 162 L32 353 L167 353 L167 174 Q167 67 230 10 Q285 -40 379 -40 Q472 -40 527 -1 Q411 1 342 79 Q283 148 283 249 Q283 358 351 425 Q410 485 500 485 Q611 485 672 420 Q725 363 725 270 L725 134 Z M592 134 L592 246 Q592 377 508 377 Q465 377 441 334 Q421 299 421 251 Q421 190 465 160 Q502 134 569 134 L592 134 Z " />
<glyph glyph-name="qafar.medi" unicode="&#xfed8;" horiz-adv-x="626" d="M160 742 L284 742 L284 627 L160 627 L160 742 Z M349 742 L473 742 L473 627 L349 627 L349 742 Z M647 134 L647 0 L566 0 Q420 0 316 37 Q212 0 66 0 L-25 0 L-25 134 L66 134 Q130 134 148 142 Q83 216 83 306 Q83 344 95 382 Q121 460 186 503 Q243 540 316 540 Q401 540 462 492 Q515 450 537 382 Q549 344 549 306 Q549 216 484 142 Q503 134 566 134 L647 134 Z M365 201 Q423 242 423 316 Q423 368 391 401 Q362 431 316 431 Q268 431 236 396 Q210 362 210 316 Q210 243 268 201 Q292 183 316 171 Q338 182 365 201 Z " />
<glyph glyph-name="qafar.init" unicode="&#xfed7;" horiz-adv-x="610" d="M184 644 L308 644 L308 529 L184 529 L184 644 Z M373 644 L497 644 L497 529 L373 529 L373 644 Z M578 228 Q578 126 515 63 Q454 0 349 0 L-10 0 L-10 134 L133 134 Q117 176 117 227 Q117 339 186 400 Q246 454 343 454 Q449 454 513 394 Q578 335 578 228 Z M439 224 Q439 342 350 342 L340 342 Q298 342 274 305 Q254 273 254 229 Q254 180 276 149 Q302 113 348 113 Q392 113 417 147 Q439 178 439 224 Z " />
<glyph glyph-name="kafar" unicode="&#x643;" horiz-adv-x="927" d="M742 644 L880 644 L880 165 Q880 82 830 38 Q786 0 711 0 L349 0 Q17 0 17 281 L17 453 L155 453 L155 281 Q155 192 212 159 Q255 134 351 134 L609 134 Q672 134 692 142 Q742 162 742 237 L742 644 Z M575 431 L575 355 L315 355 L315 430 L372 430 Q365 450 365 468 Q365 522 401 555 Q431 584 476 584 Q544 584 573 516 L508 485 Q498 515 475 515 Q441 515 441 472 Q441 439 462 431 L575 431 Z " />
<glyph glyph-name="kafar.fina" unicode="&#xfeda;" horiz-adv-x="1034" d="M1044 134 L1044 0 L363 0 Q32 0 32 281 L32 453 L170 453 L170 281 Q170 195 220 163 Q265 134 366 134 L624 134 Q711 134 736 159 Q757 179 757 237 L757 644 L897 644 L897 235 Q897 182 880 134 L1044 134 Z M590 431 L590 355 L329 355 L329 430 L386 430 Q380 451 380 468 Q380 522 415 555 Q446 584 490 584 Q558 584 588 516 L523 485 Q513 515 489 515 Q455 515 455 472 Q455 438 477 431 L590 431 Z " />
<glyph glyph-name="kafar.medi" unicode="&#xfedc;" horiz-adv-x="799" d="M815 134 L815 0 L-10 0 L-10 134 L540 134 Q530 214 476 268 Q419 325 338 325 L86 325 L284 644 L451 644 L326 454 L401 454 Q477 446 531 414 Q665 334 687 134 L815 134 Z " />
<glyph glyph-name="kafar.init" unicode="&#xfedb;" horiz-adv-x="716" d="M684 0 L-44 0 L-44 134 L532 134 Q521 222 458 277 Q402 325 329 325 L77 325 L277 644 L443 644 L317 454 L394 454 Q545 438 620 320 Q684 218 684 52 L684 0 Z " />
<glyph glyph-name="kehehar" unicode="&#x6a9;" horiz-adv-x="1027" d="M980 0 L349 0 Q17 0 17 281 L17 368 L155 368 L155 281 Q155 192 212 159 Q255 134 351 134 L828 134 Q817 222 754 277 Q698 325 625 325 L432 325 L632 644 L798 644 L672 454 L690 454 Q841 438 916 320 Q980 218 980 52 L980 0 Z " />
<glyph glyph-name="kehehar.fina" unicode="&#xfb8f;" horiz-adv-x="1134" d="M828 134 Q818 214 764 268 Q707 325 626 325 L432 325 L630 644 L797 644 L672 454 L689 454 Q765 446 819 414 Q953 334 975 134 L1144 134 L1144 0 L349 0 Q17 0 17 281 L17 368 L155 368 L155 281 Q155 192 212 159 Q255 134 351 134 L828 134 Z " />
<glyph glyph-name="kehehar.medi" unicode="&#xfb91;" horiz-adv-x="799" d="M815 134 L815 0 L-10 0 L-10 134 L540 134 Q530 214 476 268 Q419 325 338 325 L86 325 L284 644 L451 644 L326 454 L401 454 Q477 446 531 414 Q665 334 687 134 L815 134 Z " />
<glyph glyph-name="kehehar.init" unicode="&#xfb90;" horiz-adv-x="716" d="M684 0 L-44 0 L-44 134 L532 134 Q521 222 458 277 Q402 325 329 325 L77 325 L277 644 L443 644 L317 454 L394 454 Q545 438 620 320 Q684 218 684 52 L684 0 Z " />
<glyph glyph-name="gafar" unicode="&#x6af;" horiz-adv-x="1027" d="M980 0 L349 0 Q17 0 17 281 L17 368 L155 368 L155 281 Q155 192 212 159 Q255 134 351 134 L828 134 Q817 222 754 277 Q698 325 625 325 L432 325 L632 644 L798 644 L672 454 L690 454 Q841 438 916 320 Q980 218 980 52 L980 0 Z M485 644 L555 644 L357 325 L287 325 L485 644 Z " />
<glyph glyph-name="gafar.fina" unicode="&#xfb93;" horiz-adv-x="1134" d="M828 134 Q818 214 764 268 Q707 325 626 325 L432 325 L630 644 L797 644 L672 454 L689 454 Q765 446 819 414 Q953 334 975 134 L1144 134 L1144 0 L349 0 Q17 0 17 281 L17 368 L155 368 L155 281 Q155 192 212 159 Q255 134 351 134 L828 134 Z M485 644 L555 644 L357 325 L287 325 L485 644 Z " />
<glyph glyph-name="gafar.medi" unicode="&#xfb95;" horiz-adv-x="899" d="M915 134 L915 0 L-10 0 L-10 134 L640 134 Q630 214 576 268 Q519 325 438 325 L236 325 L434 644 L601 644 L476 454 L501 454 Q577 446 631 414 Q765 334 787 134 L915 134 Z M289 644 L359 644 L161 325 L91 325 L289 644 Z " />
<glyph glyph-name="gafar.init" unicode="&#xfb94;" horiz-adv-x="816" d="M784 0 L-44 0 L-44 134 L632 134 Q621 222 558 277 Q502 325 429 325 L227 325 L427 644 L593 644 L467 454 L494 454 Q645 438 720 320 Q784 218 784 52 L784 0 Z M281 644 L351 644 L153 325 L83 325 L281 644 Z " />
<glyph glyph-name="lamar" unicode="&#x644;" horiz-adv-x="696" d="M523 644 L664 644 L664 174 Q664 15 565 -82 Q478 -166 348 -166 Q261 -166 188 -121 Q116 -76 75 1 Q32 80 32 174 L32 273 L171 273 L171 187 Q171 81 225 19 Q274 -36 349 -36 Q437 -36 483 32 Q523 91 523 187 L523 644 Z " />
<glyph glyph-name="lamar.fina" unicode="&#xfede;" horiz-adv-x="800" d="M664 134 L814 134 L814 0 L621 0 Q577 -84 498 -128 Q430 -166 348 -166 Q261 -166 188 -121 Q116 -76 75 1 Q32 80 32 174 L32 273 L172 273 L172 187 Q172 80 225 19 Q272 -36 349 -36 Q437 -36 484 31 Q524 89 524 187 L524 644 L664 644 L664 134 Z " />
<glyph glyph-name="lamar.medi" unicode="&#xfee0;" horiz-adv-x="430" d="M440 134 L440 0 L-14 0 L-14 134 L81 134 Q152 134 152 230 L152 644 L293 644 L293 235 Q293 182 276 134 L440 134 Z " />
<glyph glyph-name="lamar.init" unicode="&#xfedf;" horiz-adv-x="314" d="M142 644 L282 644 L282 193 Q282 114 238 61 Q189 0 100 0 L-32 0 L-32 134 L71 134 Q142 134 142 232 L142 644 Z " />
<glyph glyph-name="lamvar" unicode="&#x6b5;" horiz-adv-x="696" d="M617 718 L556 718 L504 867 L562 867 L587 797 L611 867 L669 867 L617 718 Z M523 644 L664 644 L664 174 Q664 15 565 -82 Q478 -166 348 -166 Q261 -166 188 -121 Q116 -76 75 1 Q32 80 32 174 L32 273 L171 273 L171 187 Q171 81 225 19 Q274 -36 349 -36 Q437 -36 483 32 Q523 91 523 187 L523 644 Z " />
<glyph glyph-name="meemar" unicode="&#x645;" horiz-adv-x="827" d="M795 224 Q795 119 730 57 Q666 -3 561 -3 Q458 -3 396 59 Q335 120 335 224 Q335 276 351 317 L287 317 Q170 317 170 165 L170 -166 L32 -166 L32 187 Q32 316 106 387 Q174 453 281 453 L566 453 Q671 453 732 390 Q795 327 795 224 Z M657 228 Q657 276 635 305 Q610 339 565 339 Q520 339 494 303 Q472 272 472 224 Q472 179 492 147 Q516 110 558 110 L568 110 Q657 110 657 228 Z " />
<glyph glyph-name="meemar.fina" unicode="&#xfee2;" horiz-adv-x="965" d="M970 134 L970 0 L964 0 Q830 0 749 77 Q684 -3 561 -3 Q451 -3 389 67 Q335 128 335 224 Q335 276 351 317 L287 317 Q170 317 170 165 L170 -166 L32 -166 L32 187 Q32 316 110 390 Q177 453 281 453 L566 453 Q658 453 719 402 Q772 358 788 287 Q809 196 851 164 Q888 135 963 134 L970 134 Z M657 228 Q657 282 629 312 Q604 339 565 339 Q519 339 494 302 Q472 271 472 224 Q472 170 499 138 Q522 110 558 110 L568 110 Q657 110 657 228 Z " />
<glyph glyph-name="meemar.medi" unicode="&#xfee4;" horiz-adv-x="653" d="M673 134 L673 0 L513 0 Q451 -86 326 -86 Q199 -86 136 0 L-17 0 L-17 134 L95 134 Q95 251 162 313 Q222 368 322 368 Q439 368 502 298 Q556 237 556 134 L673 134 Z M417 137 Q417 256 328 256 L318 256 Q277 256 253 220 Q233 189 233 143 Q233 88 261 56 Q286 28 326 28 Q371 28 396 61 Q417 90 417 137 Z " />
<glyph glyph-name="meemar.init" unicode="&#xfee3;" horiz-adv-x="611" d="M579 142 Q579 33 508 -30 Q446 -86 349 -86 Q221 -86 159 0 L-21 0 L-21 134 L118 134 Q118 250 185 313 Q244 368 344 368 Q459 368 523 298 Q579 238 579 142 Z M440 137 Q440 256 351 256 L341 256 Q300 256 276 220 Q255 189 255 143 Q255 87 283 56 Q308 28 349 28 Q393 28 418 62 Q440 91 440 137 Z " />
<glyph glyph-name="noonar" unicode="&#x646;" horiz-adv-x="696" d="M285 644 L409 644 L409 529 L285 529 L285 644 Z M32 454 L173 454 L173 187 Q173 80 226 19 Q273 -36 349 -36 Q435 -36 483 35 Q523 94 523 187 L523 454 L664 454 L664 174 Q664 82 622 3 Q581 -74 510 -119 Q437 -166 348 -166 Q261 -166 188 -121 Q116 -76 75 0 Q32 79 32 174 L32 454 Z " />
<glyph glyph-name="noonar.fina" unicode="&#xfee6;" horiz-adv-x="800" d="M293 644 L417 644 L417 529 L293 529 L293 644 Z M664 134 L826 134 L826 0 L621 0 Q577 -84 498 -128 Q430 -166 348 -166 Q261 -166 188 -121 Q116 -76 75 0 Q32 80 32 174 L32 453 L173 453 L173 187 Q173 80 226 18 Q274 -36 349 -36 Q434 -36 483 35 Q524 96 524 187 L524 453 L664 453 L664 134 Z " />
<glyph glyph-name="noonar.medi" unicode="&#xfee8;" horiz-adv-x="430" d="M157 644 L282 644 L282 529 L157 529 L157 644 Z M440 134 L440 0 L-11 0 L-11 134 L81 134 Q152 134 152 230 L152 453 L293 453 L293 235 Q293 182 276 134 L440 134 Z " />
<glyph glyph-name="noonar.init" unicode="&#xfee7;" horiz-adv-x="322" d="M156 644 L281 644 L281 529 L156 529 L156 644 Z M150 453 L290 453 L290 193 Q290 114 246 61 Q197 0 109 0 L-10 0 L-10 134 L79 134 Q150 134 150 232 L150 453 Z " />
<glyph glyph-name="hehar" unicode="&#x647;" horiz-adv-x="551" d="M518 241 Q518 125 443 58 Q378 0 276 0 Q158 0 91 73 Q32 138 32 240 Q32 357 105 423 Q169 480 271 480 Q390 480 458 408 Q518 344 518 241 Z M384 236 Q384 374 272 374 Q163 374 163 236 Q163 172 198 137 Q227 107 276 107 Q329 107 359 148 Q384 182 384 236 Z " />
<glyph glyph-name="hehar.fina" unicode="&#xfeea;" horiz-adv-x="662" d="M680 134 L680 0 L539 0 Q419 0 371 123 Q333 63 229 63 Q134 63 79 141 Q32 207 32 305 Q32 426 93 492 Q148 550 239 550 Q239 551 506 551 L506 236 Q506 134 608 134 L680 134 Z M362 448 L270 448 Q225 448 196 402 Q171 362 171 307 Q171 250 201 212 Q228 179 267 179 Q314 179 340 222 Q362 258 362 316 L362 448 Z " />
<glyph glyph-name="hehar.medi" unicode="&#xfeec;" horiz-adv-x="827" d="M749 134 L839 134 L839 0 L-14 0 L-14 134 L130 134 Q111 173 111 221 Q111 317 178 373 Q235 420 323 420 Q424 420 482 360 Q535 306 535 221 Q535 173 516 134 L613 134 L615 185 Q613 310 547 387 Q485 458 381 469 L394 604 Q479 596 562 544 Q636 499 678 438 Q748 340 751 186 L749 134 Z M401 222 Q401 262 378 286 Q357 307 323 307 Q288 307 267 284 Q246 261 246 222 Q246 182 270 156 Q292 133 323 133 Q359 133 382 162 Q401 187 401 222 Z " />
<glyph glyph-name="hehar.init" unicode="&#xfeeb;" horiz-adv-x="773" d="M-29 0 L-29 134 L120 134 Q101 173 101 221 Q101 317 168 373 Q225 420 313 420 Q414 420 472 360 Q524 307 524 221 Q524 175 506 134 L603 134 L605 185 Q603 310 537 387 Q475 458 371 469 L383 604 Q469 596 553 544 Q625 499 668 438 Q741 335 741 186 Q741 99 716 0 L-29 0 Z M391 222 Q391 262 368 286 Q347 307 313 307 Q278 307 257 284 Q236 261 236 222 Q236 181 260 155 Q282 133 313 133 Q349 133 372 162 Q391 187 391 222 Z " />
<glyph glyph-name="hehDoachashmeear" unicode="&#x6be;" horiz-adv-x="803" d="M41 0 L41 134 L140 134 Q121 173 121 221 Q121 317 188 373 Q245 420 333 420 Q434 420 492 360 Q544 307 544 221 Q544 175 526 134 L623 134 L625 185 Q623 310 557 387 Q495 458 391 469 L403 604 Q489 596 573 544 Q645 499 688 438 Q761 335 761 186 Q761 99 736 0 L41 0 Z M411 222 Q411 262 388 286 Q367 307 333 307 Q298 307 277 284 Q256 261 256 222 Q256 181 280 155 Q302 133 333 133 Q369 133 392 162 Q411 187 411 222 Z " />
<glyph glyph-name="hehDoachashmeear.fina" unicode="&#xfbab;" horiz-adv-x="827" d="M749 134 L839 134 L839 0 L31 0 L31 134 L130 134 Q111 173 111 221 Q111 317 178 373 Q235 420 323 420 Q424 420 482 360 Q535 306 535 221 Q535 173 516 134 L613 134 L615 185 Q613 310 547 387 Q485 458 381 469 L394 604 Q479 596 562 544 Q636 499 678 438 Q748 340 751 186 L749 134 Z M401 222 Q401 262 378 286 Q357 307 323 307 Q288 307 267 284 Q246 261 246 222 Q246 182 270 156 Q292 133 323 133 Q359 133 382 162 Q401 187 401 222 Z " />
<glyph glyph-name="hehDoachashmeear.medi" unicode="&#xfbad;" horiz-adv-x="827" d="M749 134 L839 134 L839 0 L-14 0 L-14 134 L130 134 Q111 173 111 221 Q111 317 178 373 Q235 420 323 420 Q424 420 482 360 Q535 306 535 221 Q535 173 516 134 L613 134 L615 185 Q613 310 547 387 Q485 458 381 469 L394 604 Q479 596 562 544 Q636 499 678 438 Q748 340 751 186 L749 134 Z M401 222 Q401 262 378 286 Q357 307 323 307 Q288 307 267 284 Q246 261 246 222 Q246 182 270 156 Q292 133 323 133 Q359 133 382 162 Q401 187 401 222 Z " />
<glyph glyph-name="hehDoachashmeear.init" unicode="&#xfbac;" horiz-adv-x="773" d="M-29 0 L-29 134 L120 134 Q101 173 101 221 Q101 317 168 373 Q225 420 313 420 Q414 420 472 360 Q524 307 524 221 Q524 175 506 134 L603 134 L605 185 Q603 310 537 387 Q475 458 371 469 L383 604 Q469 596 553 544 Q625 499 668 438 Q741 335 741 186 Q741 99 716 0 L-29 0 Z M391 222 Q391 262 368 286 Q347 307 313 307 Q278 307 257 284 Q236 261 236 222 Q236 181 260 155 Q282 133 313 133 Q349 133 372 162 Q391 187 391 222 Z " />
<glyph glyph-name="tehMarbutaar" unicode="&#x629;" horiz-adv-x="551" d="M116 673 L240 673 L240 558 L116 558 L116 673 Z M305 673 L429 673 L429 558 L305 558 L305 673 Z M518 241 Q518 132 452 66 Q386 0 276 0 Q166 0 98 65 Q32 130 32 240 Q32 350 97 415 Q162 480 271 480 Q383 480 450 416 Q518 353 518 241 Z M384 236 Q384 374 272 374 Q163 374 163 236 Q163 180 190 145 Q218 107 272 107 Q328 107 357 145 Q384 180 384 236 Z " />
<glyph glyph-name="tehMarbutaar.fina" unicode="&#xfe94;" horiz-adv-x="662" d="M144 760 L268 760 L268 644 L144 644 L144 760 Z M332 760 L456 760 L456 644 L332 644 L332 760 Z M680 134 L680 0 L539 0 Q419 0 371 123 Q333 63 229 63 Q134 63 79 141 Q32 207 32 305 Q32 426 93 492 Q148 550 239 550 Q239 551 506 551 L506 236 Q506 134 608 134 L680 134 Z M362 448 L270 448 Q225 448 196 402 Q171 362 171 307 Q171 250 201 212 Q228 179 267 179 Q314 179 340 222 Q362 258 362 316 L362 448 Z " />
<glyph glyph-name="wawar" unicode="&#x648;" horiz-adv-x="542" d="M509 20 Q509 -165 280 -165 L266 -165 L266 -53 L275 -53 Q322 -53 356 -23 Q386 3 386 40 Q358 -6 287 -6 Q183 -6 118 68 Q62 133 62 226 Q62 335 134 400 Q195 455 287 455 Q390 455 454 380 Q509 316 509 224 L509 20 Z M369 224 Q369 273 342 302 Q319 328 284 328 Q245 328 222 296 Q202 268 202 227 Q202 180 228 151 Q252 124 289 124 Q326 124 347.5 151 Q369 178 369 224 Z " />
<glyph glyph-name="wawar.fina" unicode="&#xfeee;" horiz-adv-x="623" d="M511 134 L641 134 L641 0 L509 0 Q485 -165 281 -165 L266 -165 L266 -53 L278 -53 Q358 -53 375 6 Q358 0 289 0 Q183 0 119 72 Q62 136 62 228 Q62 336 134 399 Q196 454 289 454 Q392 454 456 381 Q511 318 511 225 L511 134 Z M371 134 L371 231 Q371 278 344 305 Q321 328 285 328 Q248 328 226 302.5 Q204 277 204 234 Q204 187 231 159 Q254 134 290 134 L371 134 Z " />
<glyph glyph-name="wawHamzaabovear" unicode="&#x624;" horiz-adv-x="542" d="M400 573 L400 510 L178 510 L178 573 L227 573 Q221 591 221 605 Q221 651 252 680 Q278 705 315 705 Q373 705 399 646 L343 620 Q335 646 314 646 Q286 646 286 608 Q286 581 303 573 L400 573 Z M509 20 Q509 -165 280 -165 L266 -165 L266 -53 Q317 -53 353 -26 Q386 0 386 40 Q358 -6 287 -6 Q183 -6 118 68 Q62 133 62 226 Q62 335 134 400 Q195 455 287 455 Q390 455 454 380 Q509 316 509 224 L509 20 Z M369 224 Q369 273 342 302 Q319 328 284 328 Q245 328 222 296 Q202 268 202 227 Q202 180 228 151 Q252 124 289 124 Q326 124 347.5 151 Q369 178 369 224 Z " />
<glyph glyph-name="wawHamzaabovear.fina" unicode="&#xfe86;" horiz-adv-x="623" d="M400 573 L400 510 L178 510 L178 573 L227 573 Q221 591 221 605 Q221 651 252 680 Q278 705 315 705 Q373 705 399 646 L343 620 Q335 646 314 646 Q286 646 286 608 Q286 581 303 573 L400 573 Z M511 134 L641 134 L641 0 L509 0 Q485 -165 281 -165 L266 -165 L266 -53 Q315 -53 340.5 -39 Q366 -25 375 6 Q358 0 289 0 Q183 0 119 72 Q62 136 62 228 Q62 336 134 399 Q196 454 289 454 Q392 454 456 381 Q511 318 511 225 L511 134 Z M371 134 L371 231 Q371 278 344 305 Q321 328 285 328 Q248 328 226 302.5 Q204 277 204 234 Q204 187 231 159 Q254 134 290 134 L371 134 Z " />
<glyph glyph-name="oear" unicode="&#x6c6;" horiz-adv-x="542" d="M316 518 L255 518 L203 667 L261 667 L286 597 L310 667 L368 667 L316 518 Z M509 20 Q509 -165 280 -165 L266 -165 L266 -53 L275 -53 Q322 -53 356 -23 Q386 3 386 40 Q358 -6 287 -6 Q183 -6 118 68 Q62 133 62 226 Q62 335 134 400 Q195 455 287 455 Q390 455 454 380 Q509 316 509 224 L509 20 Z M369 224 Q369 273 342 302 Q319 328 284 328 Q245 328 222 296 Q202 268 202 227 Q202 180 228 151 Q252 124 289 124 Q326 124 347.5 151 Q369 178 369 224 Z " />
<glyph glyph-name="oear.fina" unicode="&#xfbda;" horiz-adv-x="623" d="M316 518 L255 518 L203 667 L261 667 L286 597 L310 667 L368 667 L316 518 Z M511 134 L641 134 L641 0 L509 0 Q485 -165 281 -165 L266 -165 L266 -53 L278 -53 Q358 -53 375 6 Q358 0 289 0 Q183 0 119 72 Q62 136 62 228 Q62 336 134 399 Q196 454 289 454 Q392 454 456 381 Q511 318 511 225 L511 134 Z M371 134 L371 231 Q371 278 344 305 Q321 328 285 328 Q248 328 226 302.5 Q204 277 204 234 Q204 187 231 159 Q254 134 290 134 L371 134 Z " />
<glyph glyph-name="alefMaksuraar" unicode="&#x649;" horiz-adv-x="786" d="M753 292 L753 175 Q753 29 650 -68 Q546 -166 396 -166 L390 -166 Q239 -166 135 -68 Q32 29 32 175 L32 295 L172 295 L172 188 Q172 128 190 83 Q215 25 274 -8 Q327 -36 393 -36 Q468 -36 525 1 Q573 32 595 83 Q609 117 612 160 L351 160 Q351 310 434 405 Q518 500 655 500 L715 500 L715 364 L655 364 Q571 364 521 292 L753 292 Z " />
<glyph glyph-name="alefMaksuraar.fina" unicode="&#xfef0;" horiz-adv-x="909" d="M913 134 L913 0 L906 0 Q785 0 726 59 Q701 -48 595 -112 Q505 -166 390 -166 Q291 -166 208 -121 Q127 -76 80 0 Q32 80 32 175 L32 295 L172 295 L172 188 Q172 78 237 18 Q295 -36 393 -36 Q483 -36 547 16 Q604 62 604 125 Q604 166 572 192 Q546 213 511 213 Q499 213 487 210 L487 332 Q487 333 548 333 Q700 333 772 195 Q789 162 816.5 148 Q844 134 891 134 L913 134 Z " />
<glyph glyph-name="yehar" unicode="&#x64a;" horiz-adv-x="786" d="M753 292 L753 175 Q753 29 650 -68 Q546 -166 396 -166 L390 -166 Q239 -166 135 -68 Q32 29 32 175 L32 295 L172 295 L172 188 Q172 128 190 83 Q215 25 274 -8 Q327 -36 393 -36 Q468 -36 525 1 Q573 32 595 83 Q609 117 612 160 L351 160 Q351 310 434 405 Q518 500 655 500 L715 500 L715 364 L655 364 Q571 364 521 292 L753 292 Z M239 -259 L363 -259 L363 -374 L239 -374 L239 -259 Z M428 -259 L552 -259 L552 -374 L428 -374 L428 -259 Z " />
<glyph glyph-name="yehar.fina" unicode="&#xfef2;" horiz-adv-x="909" d="M913 134 L913 0 L906 0 Q785 0 726 59 Q701 -48 595 -112 Q505 -166 390 -166 Q291 -166 208 -121 Q127 -76 80 0 Q32 80 32 175 L32 295 L172 295 L172 188 Q172 78 237 18 Q295 -36 393 -36 Q483 -36 547 16 Q604 62 604 125 Q604 166 572 192 Q546 213 511 213 Q499 213 487 210 L487 332 Q487 333 548 333 Q700 333 772 195 Q789 162 816.5 148 Q844 134 891 134 L913 134 Z M248 -259 L373 -259 L373 -374 L248 -374 L248 -259 Z M437 -259 L561 -259 L561 -374 L437 -374 L437 -259 Z " />
<glyph glyph-name="yehar.medi" unicode="&#xfef4;" horiz-adv-x="433" d="M443 134 L443 0 L-7 0 L-7 134 L85 134 Q155 134 155 230 L155 453 L296 453 L296 235 Q296 179 280 134 L443 134 Z M-30 -50 L94 -50 L94 -166 L-30 -166 L-30 -50 Z M158 -50 L282 -50 L282 -166 L158 -166 L158 -50 Z " />
<glyph glyph-name="yehar.init" unicode="&#xfef3;" horiz-adv-x="322" d="M150 453 L290 453 L290 193 Q290 114 246 61 Q197 0 109 0 L-10 0 L-10 134 L79 134 Q150 134 150 232 L150 453 Z M-32 -50 L92 -50 L92 -166 L-32 -166 L-32 -50 Z M156 -50 L281 -50 L281 -166 L156 -166 L156 -50 Z " />
<glyph glyph-name="yehHamzaabovear" unicode="&#x626;" horiz-adv-x="786" d="M293 430 L293 355 L33 355 L33 430 L90 430 Q84 450 84 467 Q84 521 119 554 Q150 583 194 583 Q263 583 293 515 L226 485 Q217 515 193 515 Q160 515 160 471 Q160 438 180 430 L293 430 Z M753 292 L753 175 Q753 29 650 -68 Q546 -166 396 -166 L390 -166 Q239 -166 135 -68 Q32 29 32 175 L32 295 L172 295 L172 188 Q172 128 190 83 Q215 25 274 -8 Q327 -36 393 -36 Q468 -36 525 1 Q573 32 595 83 Q609 117 612 160 L351 160 Q351 310 434 405 Q518 500 655 500 L715 500 L715 364 L655 364 Q571 364 521 292 L753 292 Z " />
<glyph glyph-name="yehHamzaabovear.fina" unicode="&#xfe8a;" horiz-adv-x="988" d="M319 467 L319 386 L37 386 L37 467 L99 467 Q91 491 91 508 Q91 566 130 602 Q164 634 212 634 Q286 634 318 560 L247 527 Q237 560 211 560 Q174 560 174 512 Q174 476 197 467 L319 467 Z M992 146 L992 0 L985 0 Q853 0 789 64 Q763 -51 648 -120 Q549 -180 424 -180 Q317 -180 227 -131 Q139 -82 88 1 Q35 87 35 190 L35 321 L187 321 L187 204 Q187 85 258 19 Q321 -39 427 -39 Q525 -39 594 16 Q656 66 656 136 Q656 180 622 208 Q593 231 555 231 Q543 231 529 228 L529 361 Q529 362 595 362 Q761 362 839 212 Q858 176 887 161 Q916 146 968 146 L992 146 Z " />
<glyph glyph-name="yehHamzaabovear.medi" unicode="&#xfe8c;" horiz-adv-x="430" d="M297 528 L297 453 L38 453 L38 527 L95 527 Q87 549 87 566 Q87 619 123 652 Q155 682 199 682 Q267 682 296 614 L230 583 Q221 613 198 613 Q164 613 164 569 Q164 536 185 528 L297 528 Z M440 134 L440 0 L-11 0 L-11 134 L81 134 Q152 134 152 230 L152 397 L293 397 L293 235 Q293 182 276 134 L440 134 Z " />
<glyph glyph-name="yehHamzaabovear.init" unicode="&#xfe8b;" horiz-adv-x="314" d="M282 528 L282 453 L22 453 L22 527 L79 527 Q72 547 72 566 Q72 619 108 652 Q139 682 183 682 Q251 682 281 614 L214 583 Q205 613 181 613 Q148 613 148 569 Q148 536 169 528 L282 528 Z M142 398 L282 398 L282 193 Q282 114 238 61 Q189 0 100 0 L-15 0 L-15 134 L71 134 Q114 134 130 165 Q142 188 142 232 L142 398 Z " />
<glyph glyph-name="yehvar" unicode="&#x6ce;" horiz-adv-x="786" d="M304 416 L243 416 L191 565 L249 565 L274 495 L298 565 L356 565 L304 416 Z M753 292 L753 175 Q753 29 650 -68 Q546 -166 396 -166 L390 -166 Q239 -166 135 -68 Q32 29 32 175 L32 295 L172 295 L172 188 Q172 128 190 83 Q215 25 274 -8 Q327 -36 393 -36 Q468 -36 525 1 Q573 32 595 83 Q609 117 612 160 L351 160 Q351 310 434 405 Q518 500 655 500 L715 500 L715 364 L655 364 Q571 364 521 292 L753 292 Z " />
<glyph glyph-name="yehfarsi" unicode="&#x6cc;" horiz-adv-x="786" d="M753 292 L753 175 Q753 29 650 -68 Q546 -166 396 -166 L390 -166 Q239 -166 135 -68 Q32 29 32 175 L32 295 L172 295 L172 188 Q172 128 190 83 Q215 25 274 -8 Q327 -36 393 -36 Q468 -36 525 1 Q573 32 595 83 Q609 117 612 160 L351 160 Q351 310 434 405 Q518 500 655 500 L715 500 L715 364 L655 364 Q571 364 521 292 L753 292 Z " />
<glyph glyph-name="yehfarsi.fina" unicode="&#xfbfd;" horiz-adv-x="909" d="M913 134 L913 0 L906 0 Q785 0 726 59 Q701 -48 595 -112 Q505 -166 390 -166 Q291 -166 208 -121 Q127 -76 80 0 Q32 80 32 175 L32 295 L172 295 L172 188 Q172 78 237 18 Q295 -36 393 -36 Q483 -36 547 16 Q604 62 604 125 Q604 166 572 192 Q546 213 511 213 Q499 213 487 210 L487 332 Q487 333 548 333 Q700 333 772 195 Q789 162 816.5 148 Q844 134 891 134 L913 134 Z " />
<glyph glyph-name="yehfarsi.medi" unicode="&#xfbff;" horiz-adv-x="433" d="M443 134 L443 0 L-7 0 L-7 134 L85 134 Q155 134 155 230 L155 453 L296 453 L296 235 Q296 179 280 134 L443 134 Z M-30 -50 L94 -50 L94 -166 L-30 -166 L-30 -50 Z M158 -50 L282 -50 L282 -166 L158 -166 L158 -50 Z " />
<glyph glyph-name="yehfarsi.init" unicode="&#xfbfe;" horiz-adv-x="322" d="M150 453 L290 453 L290 193 Q290 114 246 61 Q197 0 109 0 L-10 0 L-10 134 L79 134 Q150 134 150 232 L150 453 Z M-32 -50 L92 -50 L92 -166 L-32 -166 L-32 -50 Z M156 -50 L281 -50 L281 -166 L156 -166 L156 -50 Z " />
<glyph glyph-name="aear" unicode="&#x6d5;" horiz-adv-x="551" d="M518 241 Q518 125 443 58 Q378 0 276 0 Q158 0 91 73 Q32 138 32 240 Q32 357 105 423 Q169 480 271 480 Q390 480 458 408 Q518 344 518 241 Z M384 236 Q384 374 272 374 Q163 374 163 236 Q163 172 198 137 Q227 107 276 107 Q329 107 359 148 Q384 182 384 236 Z " />
<glyph glyph-name="tatweelar" unicode="&#x640;" horiz-adv-x="198" d="M-9 134 L205 134 L205 0 L-9 0 L-9 134 Z " />
<glyph glyph-name="lam_alefar" unicode="&#xfefb;" horiz-adv-x="606" d="M436 644 L574 644 L574 164 Q574 91 525 45 Q476 0 402 0 L70 0 L70 134 L219 134 L93 577 L241 577 L365 134 Q436 136 436 236 L436 644 Z " />
<glyph glyph-name="lam_alefar.fina" unicode="&#xfefc;" horiz-adv-x="720" d="M750 134 L750 0 L70 0 L70 134 L220 134 L94 577 L242 577 L365 134 L378 134 Q426 134 443 178 Q449 190 449 230 L449 644 L588 644 L588 235 Q588 179 572 134 L750 134 Z " />
<glyph glyph-name="lam_alefHamzaabovear" unicode="&#xfef7;" horiz-adv-x="607" d="M249 688 L249 636 L70 636 L70 687 L109 687 Q105 699 105 713 Q105 749 129 773 Q150 793 180 793 Q227 793 247 746 L202 725 Q196 746 180 746 Q157 746 157 716 Q157 693 171 688 L249 688 Z M437 644 L575 644 L575 164 Q575 91 526 45 Q477 0 403 0 L71 0 L71 134 L220 134 L94 577 L242 577 L366 134 Q437 136 437 236 L437 644 Z " />
<glyph glyph-name="lam_alefHamzaabovear.fina" unicode="&#xfef8;" horiz-adv-x="721" d="M249 688 L249 636 L70 636 L70 687 L109 687 Q105 699 105 713 Q105 749 129 773 Q150 793 180 793 Q227 793 247 746 L202 725 Q196 746 180 746 Q157 746 157 716 Q157 693 171 688 L249 688 Z M751 134 L751 0 L71 0 L71 134 L221 134 L95 577 L243 577 L366 134 L379 134 Q427 134 444 178 Q450 190 450 230 L450 644 L589 644 L589 235 Q589 179 573 134 L751 134 Z " />
<glyph glyph-name="lam_alefHamzabelowar" unicode="&#xfef9;" horiz-adv-x="606" d="M436 644 L574 644 L574 164 Q574 91 525 45 Q476 0 402 0 L70 0 L70 134 L219 134 L93 577 L241 577 L365 134 Q436 136 436 236 L436 644 Z M262 -147 L262 -199 L82 -199 L82 -148 L122 -148 Q117 -131 117 -121 Q117 -84 141 -61 Q163 -41 194 -41 Q241 -41 261 -88 L216 -109 Q208 -89 193 -89 Q170 -89 170 -119 Q170 -143 183 -147 L262 -147 Z " />
<glyph glyph-name="lam_alefHamzabelowar.fina" unicode="&#xfefa;" horiz-adv-x="720" d="M750 134 L750 0 L70 0 L70 134 L220 134 L94 577 L242 577 L365 134 L378 134 Q426 134 443 178 Q449 190 449 230 L449 644 L588 644 L588 235 Q588 179 572 134 L750 134 Z M262 -147 L262 -199 L82 -199 L82 -148 L122 -148 Q117 -131 117 -121 Q117 -84 141 -61 Q163 -41 194 -41 Q241 -41 261 -88 L216 -109 Q208 -89 193 -89 Q170 -89 170 -119 Q170 -143 183 -147 L262 -147 Z " />
<glyph glyph-name="lam_alefMaddaar" unicode="&#xfef5;" horiz-adv-x="606" d="M282 672 Q247 630 213 630 Q193 630 159 648 Q125 666 104 666 Q82 666 58 633 L38 688 Q69 730 104 730 Q125 730 162 711 Q200 693 212 693 Q234 693 263 726 L282 672 Z M436 644 L574 644 L574 164 Q574 91 525 45 Q476 0 402 0 L70 0 L70 134 L219 134 L93 577 L241 577 L365 134 Q436 136 436 236 L436 644 Z " />
<glyph glyph-name="lam_alefMaddaar.fina" unicode="&#xfef6;" horiz-adv-x="720" d="M282 672 Q247 630 213 630 Q193 630 159 648 Q125 666 104 666 Q82 666 58 633 L38 688 Q69 730 104 730 Q125 730 162 711 Q200 693 212 693 Q234 693 263 726 L282 672 Z M750 134 L750 0 L70 0 L70 134 L220 134 L94 577 L242 577 L365 134 L378 134 Q426 134 443 178 Q449 190 449 230 L449 644 L588 644 L588 235 Q588 179 572 134 L750 134 Z " />
<glyph glyph-name="zeroar" unicode="&#x660;" horiz-adv-x="370" d="M99 337 L271 262 L271 94 L99 167 L99 337 Z " />
<glyph glyph-name="onear" unicode="&#x661;" horiz-adv-x="293" d="M77 547 L216 645 L216 0 L77 0 L77 547 Z " />
<glyph glyph-name="twoar" unicode="&#x662;" horiz-adv-x="582" d="M505 514 Q495 513 476 513 Q468 513 442 513 Q410 514 388 514 Q302 514 259 455 Q227 410 227 344 L227 0 L87 0 L87 251 Q87 465 159 556 Q228 644 380 644 Q500 644 505 643 L505 514 Z " />
<glyph glyph-name="threear" unicode="&#x663;" horiz-adv-x="736" d="M523 644 L659 644 L659 543 Q659 453 579 402 Q506 357 392 357 L217 357 L217 0 L77 0 L77 645 L217 645 L217 465 Q273 465 294.5 487.5 Q316 510 316 569 L316 644 L435 644 L435 543 Q435 471 404 455 Q461 455 495 492 Q523 523 523 569 L523 644 Z " />
<glyph glyph-name="fourar" unicode="&#x664;" horiz-adv-x="584" d="M507 115 L507 0 L311 0 Q201 0 136 59 Q77 112 77 197 Q77 258 112 296 Q142 329 195 339 Q92 377 92 476 Q92 559 155 605 Q210 644 295 644 L484 644 L484 533 L303 533 Q275 533 256.5 512.5 Q238 492 238 461 Q238 388 318 388 Q319 388 325 388 Q335 389 343 389 L370 389 L370 284 L367 284 Q355 285 342 285 L312 285 Q223 285 223 207 Q223 163 247 138 Q269 115 305 115 L507 115 Z " />
<glyph glyph-name="fivear" unicode="&#x665;" horiz-adv-x="637" d="M560 285 Q560 170 486 103 Q421 44 319 44 Q201 44 135 117 Q77 182 77 284 Q77 347 125 420 Q166 483 233 539 Q288 584 315 590 Q346 584 408.5 532 Q471 480 506 431 Q560 358 560 285 Z M425 280 Q425 326 384 389 Q350 444 315 461 Q279 444 241 377 Q208 320 208 280 Q208 215 240 181 Q268 151 315 151 Q370 151 400 192 Q425 226 425 280 Z " />
<glyph glyph-name="sixar" unicode="&#x666;" horiz-adv-x="571" d="M87 514 L87 643 Q92 644 212 644 Q384 644 451 529 Q505 438 505 251 L505 0 L365 0 L365 344 Q365 421 323 467 Q280 514 204 514 Q181 514 144 513 Q124 513 116 513 Q97 513 87 514 Z " />
<glyph glyph-name="sevenar" unicode="&#x667;" horiz-adv-x="633" d="M320 186 L410 644 L556 644 L400 0 L237 0 L77 644 L215 644 L320 186 Z " />
<glyph glyph-name="eightar" unicode="&#x668;" horiz-adv-x="630" d="M236 644 L400 644 L553 0 L407 0 L319 458 L215 0 L77 0 L236 644 Z " />
<glyph glyph-name="ninear" unicode="&#x669;" horiz-adv-x="629" d="M552 0 L413 0 L413 206 Q388 175 311 175 Q195 175 133 247 Q77 312 77 417 Q77 515 142 580 Q206 644 311 644 Q416 644 483 578 Q552 512 552 413 L552 0 Z M411 407 Q411 452 387 480 Q360 513 316 513 Q270 513 245 480 Q224 452 224 410 Q224 366 249 337 Q275 304 321 304 Q363 304 389 336 Q411 364 411 407 Z " />
<glyph glyph-name="zeropersian" unicode="&#x6f0;" horiz-adv-x="370" d="M99 337 L271 262 L271 94 L99 167 L99 337 Z " />
<glyph glyph-name="onepersian" unicode="&#x6f1;" horiz-adv-x="293" d="M77 547 L216 645 L216 0 L77 0 L77 547 Z " />
<glyph glyph-name="twopersian" unicode="&#x6f2;" horiz-adv-x="582" d="M505 514 Q495 513 476 513 Q468 513 442 513 Q410 514 388 514 Q302 514 259 455 Q227 410 227 344 L227 0 L87 0 L87 251 Q87 465 159 556 Q228 644 380 644 Q500 644 505 643 L505 514 Z " />
<glyph glyph-name="threepersian" unicode="&#x6f3;" horiz-adv-x="736" d="M523 644 L659 644 L659 543 Q659 453 579 402 Q506 357 392 357 L217 357 L217 0 L77 0 L77 645 L217 645 L217 465 Q273 465 294.5 487.5 Q316 510 316 569 L316 644 L435 644 L435 543 Q435 471 404 455 Q461 455 495 492 Q523 523 523 569 L523 644 Z " />
<glyph glyph-name="fourpersian" unicode="&#x6f4;" horiz-adv-x="584" d="M507 115 L507 0 L311 0 Q201 0 136 59 Q77 112 77 197 Q77 258 112 296 Q142 329 195 339 Q92 377 92 476 Q92 559 155 605 Q210 644 295 644 L484 644 L484 533 L303 533 Q275 533 256.5 512.5 Q238 492 238 461 Q238 388 318 388 Q319 388 325 388 Q335 389 343 389 L370 389 L370 284 L367 284 Q355 285 342 285 L312 285 Q223 285 223 207 Q223 163 247 138 Q269 115 305 115 L507 115 Z " />
<glyph glyph-name="fivepersian" unicode="&#x6f5;" horiz-adv-x="637" d="M560 285 Q560 170 486 103 Q421 44 319 44 Q201 44 135 117 Q77 182 77 284 Q77 347 125 420 Q166 483 233 539 Q288 584 315 590 Q346 584 408.5 532 Q471 480 506 431 Q560 358 560 285 Z M425 280 Q425 326 384 389 Q350 444 315 461 Q279 444 241 377 Q208 320 208 280 Q208 215 240 181 Q268 151 315 151 Q370 151 400 192 Q425 226 425 280 Z " />
<glyph glyph-name="sixpersian" unicode="&#x6f6;" horiz-adv-x="571" d="M87 514 L87 643 Q92 644 212 644 Q384 644 451 529 Q505 438 505 251 L505 0 L365 0 L365 344 Q365 421 323 467 Q280 514 204 514 Q181 514 144 513 Q124 513 116 513 Q97 513 87 514 Z " />
<glyph glyph-name="sevenpersian" unicode="&#x6f7;" horiz-adv-x="633" d="M320 186 L410 644 L556 644 L400 0 L237 0 L77 644 L215 644 L320 186 Z " />
<glyph glyph-name="eightpersian" unicode="&#x6f8;" horiz-adv-x="630" d="M236 644 L400 644 L553 0 L407 0 L319 458 L215 0 L77 0 L236 644 Z " />
<glyph glyph-name="ninepersian" unicode="&#x6f9;" horiz-adv-x="629" d="M552 0 L413 0 L413 206 Q388 175 311 175 Q195 175 133 247 Q77 312 77 417 Q77 515 142 580 Q206 644 311 644 Q416 644 483 578 Q552 512 552 413 L552 0 Z M411 407 Q411 452 387 480 Q360 513 316 513 Q270 513 245 480 Q224 452 224 410 Q224 366 249 337 Q275 304 321 304 Q363 304 389 336 Q411 364 411 407 Z " />
<glyph glyph-name="guillemotleft" unicode="&#xab;" horiz-adv-x="349" d="M127 -2 Q29 78 29 186 Q29 297 129 369 L167 331 Q103 276 103 182 Q103 132 119 100 Q131 74 167 33 L127 -2 Z M273 -2 Q175 78 175 186 Q175 297 275 369 L313 331 Q249 276 249 182 Q249 132 265 100 Q277 74 313 33 L273 -2 Z " />
<glyph glyph-name="guillemotright" unicode="&#xbb;" horiz-adv-x="349" d="M170 185 Q170 77 72 -3 L32 32 Q68 73 80 99 Q96 131 96 181 Q96 275 32 330 L70 368 Q170 296 170 185 Z M316 185 Q316 77 218 -3 L178 32 Q213 73 226 99 Q241 132 241 181 Q241 275 178 330 L216 368 Q316 296 316 185 Z " />
<glyph glyph-name="commaar" unicode="&#x60c;" horiz-adv-x="191" d="M150 213 Q122 203 111 182 Q105 167 102 132 L149 132 L149 0 L25 0 L25 123 Q25 237 150 266 L150 213 Z " />
<glyph glyph-name="semicolonar" unicode="&#x61b;" horiz-adv-x="191" d="M150 436 Q122 426 111 406 Q105 391 102 356 L149 356 L149 224 L25 224 L25 347 Q25 367 32 389 Q54 468 150 489 L150 436 Z M27 133 L150 133 L150 1 L27 1 L27 133 Z " />
<glyph glyph-name="questionar" unicode="&#x61f;" horiz-adv-x="543" d="M386 445 Q385 497 352 527 Q322 554 278 554 Q178 554 178 472 Q178 444 196.5 423 Q215 402 271 368 Q335 329 351.5 305 Q368 281 368 229 L368 222 L253 222 Q249 245 240.5 255 Q232 265 188 296 Q96 363 86 373 Q39 420 39 487 Q39 571 110 617 Q170 657 266 657 Q374 657 434 612 Q487 573 517 489 L386 445 Z M240 134 L379 134 L379 0 L240 0 L240 134 Z " />
<glyph glyph-name="decimalseparatorar" unicode="&#x66b;" horiz-adv-x="191" d="M24 -63 Q52 -53 63 -32 Q69 -17 72 18 L25 18 L25 150 L149 150 L149 27 Q149 -87 24 -116 L24 -63 Z " />
<glyph glyph-name="thousandseparatorar" unicode="&#x66c;" horiz-adv-x="191" d="M24 -63 Q52 -53 63 -32 Q69 -17 72 18 L25 18 L25 150 L149 150 L149 27 Q149 -87 24 -116 L24 -63 Z " />
<glyph glyph-name="asteriskar" unicode="&#x66d;" horiz-adv-x="500" d="M300 245 L438 265 L447 245 L331 153 L382 15 L365 0 L252 94 L138 0 L121 13 L173 152 L56 245 L65 266 L203 245 L242 388 L262 388 L300 245 Z " />
<glyph glyph-name="parenleftar" unicode="&#xfd3e;" horiz-adv-x="351" d="M271 -183 Q35 -10 35 252 Q35 520 267 698 L319 643 Q241 555 207 470 Q170 380 170 263 Q170 14 320 -120 L271 -183 Z " />
<glyph glyph-name="parenrightar" unicode="&#xfd3f;" horiz-adv-x="351" d="M317 262 Q317 122 256 10 Q200 -91 86 -184 L32 -130 Q113 -37 145 43 Q182 130 182 251 Q182 501 32 634 L82 697 Q317 525 317 262 Z " />
<glyph glyph-name="allahar" unicode="&#xfdf2;" horiz-adv-x="1193" d="M822 797 L863 797 L863 719 Q863 670 814 670 Q784 670 768 707 Q759 685 750.5 679 Q742 673 721 673 Q672 673 672 719 L672 797 L713 797 L713 728 Q713 713 724 713 Q747 713 747 742 L747 797 L788 797 L788 742 Q788 712 812 712 Q822 712 822 728 L822 797 Z M1021 644 L1161 644 L1161 192 Q1161 103 1109 49 Q1062 1 989 1 L539 1 Q419 1 371 122 Q333 63 229 63 Q134 63 79 141 Q32 207 32 305 Q32 426 93 491 Q148 550 239 550 Q239 551 506 551 L506 235 Q506 183 533 159 Q563 133 630 133 Q701 133 701 229 L701 644 L842 644 L842 234 Q842 181 825 133 L953 133 Q1021 133 1021 231 L1021 644 Z M362 448 L270 448 Q225 448 196 401 Q171 362 171 307 Q171 250 201 212 Q228 179 267 179 Q314 179 340 221 Q362 258 362 315 L362 448 Z " />
<glyph glyph-name="percentar" unicode="&#x66a;" horiz-adv-x="472" d="M32 0 L310 645 L440 645 L162 0 L32 0 Z M78 616 L202 616 L202 501 L78 501 L78 616 Z M273 146 L397 146 L397 31 L273 31 L273 146 Z " />
<glyph glyph-name="alefabovear" unicode="&#x670;" d="M77 918 L77 714 L23 714 L23 918 L77 918 Z " />
<glyph glyph-name="hamzaabovear" unicode="&#x654;" d="M198 752 L198 700 L19 700 L19 751 L58 751 Q54 763 54 777 Q54 813 78 837 Q99 857 129 857 Q176 857 196 810 L151 789 Q145 810 129 810 Q106 810 106 780 Q106 757 120 752 L198 752 Z " />
<glyph glyph-name="hamzabelowar" unicode="&#x655;" d="M191 -147 L191 -199 L11 -199 L11 -148 L51 -148 Q46 -131 46 -121 Q46 -84 70 -61 Q92 -41 123 -41 Q170 -41 190 -88 L145 -109 Q137 -89 122 -89 Q99 -89 99 -119 Q99 -143 112 -147 L191 -147 Z " />
<glyph glyph-name="fathatanar" unicode="&#x64b;" d="M231 822 Q230 789 182 773 Q161 766 75 750 Q48 744 27 740 Q35 772 71 784 L231 822 Z M220 753 Q220 721 173 705 Q153 699 65 681 Q38 676 17 671 Q24 704 61 716 L220 753 Z " />
<glyph glyph-name="dammatanar" unicode="&#x64c;" d="M236 772 Q236 731 191 700 Q146 668 76 668 Q75 668 57 696 Q66 699 74 712 Q82 725 82 737 Q82 761 59 761 Q40 761 24 739 Q30 787 72 787 Q91 787 103 774 Q115 761 115 740 Q115 717 102 704 Q130 710 154 724 Q131 741 131 771 Q131 794 146 810.5 Q161 827 181 827 Q203 827 219.5 810.5 Q236 794 236 772 Z M187 794 Q177 794 169.5 787 Q162 780 162 771 Q162 757 179 741 Q205 757 205 775 Q205 794 187 794 Z " />
<glyph glyph-name="kasratanar" unicode="&#x64d;" d="M277 -269 Q277 -301 228 -318 Q206 -325 121 -342 Q94 -347 74 -351 Q81 -318 118 -306 L277 -269 Z M267 -338 Q266 -366 231 -381 Q209 -390 133 -405 Q90 -414 63 -420 Q72 -386 107 -374 L267 -338 Z " />
<glyph glyph-name="fathaar" unicode="&#x64e;" d="M223 755 Q222 723 175 706 Q149 698 66 682 Q36 677 18 673 Q27 705 63 717 L223 755 Z " />
<glyph glyph-name="dammaar" unicode="&#x64f;" d="M208 777 Q208 728 157 700 Q115 677 49 673 Q48 673 35 694 Q30 701 27 705 Q101 707 126 728 Q103 747 103 777 Q103 800 118 815.5 Q133 831 155 831 Q177 831 192.5 815 Q208 799 208 777 Z M159 798 Q149 798 141.5 791.5 Q134 785 134 776 Q134 760 152 746 Q178 760 178 780 Q178 798 159 798 Z " />
<glyph glyph-name="kasraar" unicode="&#x650;" d="M230 -288 Q230 -320 183 -336 Q160 -344 75 -360 Q47 -366 27 -370 Q34 -337 71 -325 L230 -288 Z " />
<glyph glyph-name="shaddaar" unicode="&#x651;" d="M158 815 L199 823 L214 748 Q217 738 217 730 Q217 711 203.5 700 Q190 689 167 689 Q145 689 125 716 Q120 690 109.5 681 Q99 672 74 672 Q37 672 29 708 L13 785 L52 793 L67 725 Q70 713 78 713 Q90 713 98 736 Q98 738 98 737 Q98 744 97 747 L86 800 L126 809 L137 755 Q142 731 163 731 Q174 731 174 741 Q174 746 173 748 L158 815 Z " />
<glyph glyph-name="shadda_dammatanar" unicode="&#xfc5e;" d="M222 927 Q222 886 178 855 Q134 824 63 824 Q62 824 52 839 Q47 846 43 851 Q52 852 60 865.5 Q68 879 68 892 Q68 915 45 915 Q27 915 10 895 Q16 942 58 942 Q77 942 89 928.5 Q101 915 101 895 Q101 873 88 860 Q119 864 140 878 Q117 896 117 927 Q117 950 131.5 965.5 Q146 981 167 981 Q190 981 206 965 Q222 949 222 927 Z M172 948 Q163 948 155.5 941 Q148 934 148 926 Q148 910 166 896 Q191 911 191 930 Q191 948 172 948 Z M207 810 L247 818 L263 743 L263 742 Q265 729 265 724 Q265 706 251 694.5 Q237 683 214 683 Q192 683 173 711 Q166 684 156 675.5 Q146 667 121 667 Q85 667 77 703 L61 779 L100 787 L115 720 Q118 707 125 707 Q139 707 146 732 Q146 735 144 741 L133 794 L174 803 L185 750 Q189 727 210 725 Q223 725 223 738 Q223 739 223 740 Q222 742 222 743 L207 810 Z " />
<glyph glyph-name="shadda_kasratanar" unicode="&#xfc5f;" d="M186 960 L225 969 L242 894 L243 889 Q244 878 244 874 Q244 856 230 845 Q216 834 193 834 Q172 834 152 861 Q146 835 135.5 825.5 Q125 816 100 816 Q64 816 56 854 L40 930 L79 938 L94 871 Q97 858 105 858 Q119 858 125 883 Q125 889 124 892 L112 944 L153 953 L165 900 Q171 876 191 876 Q202 876 202 887 L186 960 Z M275 822 Q275 790 226 773 Q202 765 119 749 Q91 744 72 740 Q80 772 116 784 L275 822 Z M265 753 Q264 721 217 705 Q195 698 110 681 Q82 676 62 671 Q69 704 105 716 L265 753 Z " />
<glyph glyph-name="shadda_fathaar" unicode="&#xfc60;" d="M226 898 Q225 865 178 849 Q156 842 70 826 Q43 820 22 816 Q29 849 66 861 L226 898 Z M182 816 L223 824 L238 749 Q241 739 241 731 Q241 712 227 701 Q213 690 190 690 Q169 690 149 717 Q143 691 132 682 Q121 673 97 673 Q61 673 52 709 L37 786 L76 794 L91 726 Q94 714 102 714 Q113 714 121 737 Q121 739 121 738 L121 748 L109 801 L150 810 L161 756 Q166 732 187 732 Q198 732 198 742 Q198 747 197 749 L182 816 Z " />
<glyph glyph-name="shadda_dammaar" unicode="&#xfc61;" d="M198 925 Q198 879 147 851 Q104 827 38 822 Q37 822 24 843 Q19 849 16 854 Q90 855 116 877 Q92 895 92 925 Q92 948 107 964 Q122 980 144 980 Q166 980 182 963.5 Q198 947 198 925 Z M148 947 Q138 947 130.5 940 Q123 933 123 925 Q123 911 141 894 Q167 911 167 928 Q167 947 148 947 Z M182 811 L223 819 L238 744 Q241 734 241 726 Q241 707 227 696 Q213 685 190 685 Q169 685 149 712 Q144 686 133.5 677 Q123 668 98 668 Q61 668 53 704 L37 781 L76 789 L91 721 Q94 709 102 709 Q113 709 121 732 Q121 734 121 733 L121 743 L109 796 L150 805 L161 751 Q166 727 187 727 Q198 727 198 737 Q198 742 197 744 L182 811 Z " />
<glyph glyph-name="shadda_kasraar" unicode="&#xfc62;" d="M164 884 L204 894 L220 817 Q223 807 223 799 Q223 780 209 769 Q195 758 171 758 Q151 758 131 785 Q124 759 113.5 750 Q103 741 78 741 Q42 741 34 779 L18 854 L58 862 L73 795 Q76 783 84 783 Q96 783 103 806 L103 807 Q103 813 102 816 L91 869 L132 878 L143 825 Q149 800 169 800 Q179 800 179 810 Q179 815 178 817 L164 884 Z M249 749 Q249 717 200 701 Q178 693 93 677 Q66 672 46 667 Q53 700 90 712 L249 749 Z " />
<glyph glyph-name="sukunar" unicode="&#x652;" d="M163 751 Q165 739 165 734 Q165 703 144.5 684.5 Q124 666 89 666 Q58 666 39.5 686 Q21 706 21 740 Q21 807 98 807 Q151 807 163 751 Z M93 776 Q60 776 60 743 Q60 697 93 697 Q126 697 126 731 Q126 750 116.5 763 Q107 776 93 776 Z " />
<glyph glyph-name="maddaar" unicode="&#x653;" d="M235 730 Q201 688 166 688 Q146 688 112 706 Q78 724 57 724 Q35 724 11 691 L-9 746 Q23 788 57 788 Q78 788 115 769 Q153 751 165 751 Q188 751 216 784 L235 730 Z " />
<glyph glyph-name="numbersign" unicode="&#x23;" horiz-adv-x="632" d="M168 15 L73 15 L119 174 L49 174 L57 263 L145 263 L184 401 L95 401 L103 490 L210 490 L253 635 L348 635 L304 490 L397 490 L440 635 L535 635 L491 490 L572 490 L564 401 L466 401 L426 263 L516 263 L508 174 L401 174 L355 15 L260 15 L306 174 L214 174 L168 15 Z M239 263 L332 263 L371 401 L279 401 L239 263 Z " />
<glyph glyph-name="percent" unicode="&#x25;" horiz-adv-x="889" d="M234 710 Q307 710 362 657 Q416 603 416 528 Q416 452 362 399 Q309 346 232 346 Q194 346 162 359 Q111 379 79 427 Q48 474 48 527 Q48 605 102 657 Q158 710 234 710 Z M231 611 Q197 611 172 586 Q147 561 147 527 Q147 495 172 468 Q198 444 232 444 Q268 444 292 468 Q317 493 317 527 Q317 562 292 586 Q267 611 231 611 Z M612 717 L688 717 L293 -11 L216 -11 L612 717 Z M668 361 Q702 361 736 347 Q788 325 819 280 Q849 234 849 178 Q849 140 835 109 Q813 56 768 27 Q722 -4 666 -4 Q589 -4 536 49 Q482 103 482 178 Q482 212 496 248 Q517 300 564 330 Q610 361 668 361 Z M665 262 Q647 262 633 255 Q611 247 595 224 Q581 202 581 178 Q581 161 587 146 Q609 94 666 94 Q684 94 698 101 Q721 109 736 131 Q750 153 750 178 Q750 195 744 210 Q734 234 712 248 Q690 262 665 262 Z " />
<glyph glyph-name="at" unicode="&#x40;" horiz-adv-x="854" d="M528 401 L618 401 L556 173 Q550 153 550 143 Q550 117 576 117 Q621 117 658 176 Q689 227 689 285 Q689 383 605 447 Q532 503 432 503 Q353 503 287 463 Q222 424 185 357 Q147 287 147 204 Q147 94 233 24 Q307 -36 414 -36 Q459 -36 495 -28.5 Q531 -21 580 0 L608 -77 Q555 -99 512 -107.5 Q469 -116 412 -116 Q242 -116 139 -14 Q50 74 50 204 Q50 268 75.5 333.5 Q101 399 147 452 Q260 585 438 585 Q533 585 612 543 Q689 503 733 432 Q779 360 779 274 Q779 195 741 137 Q708 84 661 56 Q620 33 576 33 Q507 33 477 82 Q426 32 364 32 Q304 32 263 80 Q228 121 228 175 Q228 277 297 348 Q357 409 436 409 Q489 409 520 371 L528 401 Z M432 333 Q389 333 354 282 Q323 238 323 189 Q323 157 339.5 137 Q356 117 381 117 Q424 117 458 171 Q487 217 487 271 Q487 300 472 316.5 Q457 333 432 333 Z " />
<glyph glyph-name="quoteleft" unicode="&#x2018;" horiz-adv-x="224" d="M136 458 L57 458 L57 540 Q57 582 128 647 L153 647 Q105 605 105 556 Q105 531 136 531 L136 458 Z " />
<glyph glyph-name="quoteright" unicode="&#x2019;" horiz-adv-x="236" d="M90 647 L169 647 L169 565 Q169 523 98 458 L73 458 Q121 500 121 549 Q121 574 90 574 L90 647 Z " />
<glyph glyph-name="quotesinglbase" unicode="&#x201a;" horiz-adv-x="230" d="M78 73 L157 73 L157 -9 Q157 -51 86 -116 L61 -116 Q109 -74 109 -25 Q109 0 78 0 L78 73 Z " />
</font>
</svg>
