<svg xmlns="http://www.w3.org/2000/svg" xmlns:xlink="http://www.w3.org/1999/xlink" viewBox="0 0 47.92 54.09"><defs><style>.cls-1,.cls-3{fill:none;}.cls-2{clip-path:url(#clip-path);}.cls-3{stroke:#a4a9af;stroke-miterlimit:10;stroke-width:1.5px;}.cls-4{fill:#a4a9af;}.cls-5{fill:#fff;}</style><clipPath id="clip-path" transform="translate(-15.67 -15.17)"><rect class="cls-1" width="79.26" height="84.44"/></clipPath></defs><title>Asset 5</title><g id="Layer_2" data-name="Layer 2"><g id="Layer_1-2" data-name="Layer 1"><g class="cls-2"><g class="cls-2"><rect class="cls-3" x="0.75" y="6.93" width="46.42" height="46.42" rx="3.74"/><rect class="cls-3" x="6.85" y="21.34" width="5.83" height="5.83"/><rect class="cls-3" x="16.31" y="21.34" width="5.83" height="5.83"/><rect class="cls-3" x="25.77" y="21.34" width="5.83" height="5.83"/><rect class="cls-3" x="35.24" y="21.34" width="5.83" height="5.83"/><rect class="cls-3" x="6.85" y="29.9" width="5.83" height="5.83"/><rect class="cls-3" x="16.31" y="29.9" width="5.83" height="5.83"/><rect class="cls-3" x="25.77" y="29.9" width="5.83" height="5.83"/><rect class="cls-3" x="35.24" y="29.9" width="5.83" height="5.83"/><rect class="cls-3" x="6.85" y="38.47" width="5.83" height="5.83"/><rect class="cls-3" x="16.31" y="38.47" width="5.83" height="5.83"/><rect class="cls-3" x="25.77" y="38.47" width="5.83" height="5.83"/><rect class="cls-3" x="35.24" y="38.47" width="5.83" height="5.83"/><line class="cls-3" x1="0.75" y1="13.85" x2="47.17" y2="13.85"/><polygon class="cls-4" points="0.75 14.35 47.17 14.6 47.02 8.64 44.38 7.25 41.92 7.1 5.6 7.29 2.93 7.54 1.08 9.69 0.75 14.35"/><path class="cls-5" d="M25.46,27.07h-.78a2.1,2.1,0,0,1-2.1-2.1V18a2.1,2.1,0,0,1,2.1-2.1h.78a2.1,2.1,0,0,1,2.1,2.1v7a2.1,2.1,0,0,1-2.1,2.1" transform="translate(-15.67 -15.17)"/><rect class="cls-3" x="6.91" y="0.75" width="4.97" height="11.14" rx="2.1"/><path class="cls-5" d="M40,27.07h-.78a2.1,2.1,0,0,1-2.1-2.1V18a2.1,2.1,0,0,1,2.1-2.1H40a2.1,2.1,0,0,1,2.1,2.1v7a2.1,2.1,0,0,1-2.1,2.1" transform="translate(-15.67 -15.17)"/><rect class="cls-3" x="21.47" y="0.75" width="4.97" height="11.14" rx="2.1"/><path class="cls-5" d="M54.57,27.07H53.8A2.1,2.1,0,0,1,51.7,25V18a2.1,2.1,0,0,1,2.1-2.1h.77a2.1,2.1,0,0,1,2.1,2.1v7a2.1,2.1,0,0,1-2.1,2.1" transform="translate(-15.67 -15.17)"/><rect class="cls-3" x="36.03" y="0.75" width="4.97" height="11.14" rx="2.1"/></g></g></g></g></svg>