<?xml version="1.0" encoding="utf-8"?>
<!-- Generator: Adobe Illustrator 23.0.6, SVG Export Plug-In . SVG Version: 6.00 Build 0)  -->
<svg version="1.1" id="Layer_1" xmlns="http://www.w3.org/2000/svg" xmlns:xlink="http://www.w3.org/1999/xlink" x="0px" y="0px"
	 viewBox="0 0 512 512" style="enable-background:new 0 0 512 512;" xml:space="preserve">
<style type="text/css">
	.st0{fill:#FFFFFF;}
</style>
<g>
	<circle class="st0" cx="208" cy="224" r="16"/>
	<circle class="st0" cx="304" cy="224" r="16"/>
	<path class="st0" d="M446,436.4c-12.3-18.2-29.2-30.9-47.6-35.8L312,377.8v-29.7c21.4-14.3,40.6-35.4,50-60.1h22c4.4,0,8-3.6,8-8
		v64h-8c0-4.4-3.6-8-8-8h-32c-4.4,0-8,3.6-8,8v23c0,4.4,3.6,8,8,8h32c4.4,0,8-3.6,8-8v-7h16c4.4,0,8-3.6,8-8v-72.4
		c9.3-1.9,16-10.1,16-19.6v-56c0-9.5-6.7-17.7-16-19.6V160C408,76.2,339.8,8,256,8S104,76.2,104,160v24.4c-9.3,1.9-16,10.1-16,19.6
		v56c0,11,9,20,20,20h12c0,4.4,3.6,8,8,8h22.1c9.4,24.7,28.6,45.8,49.9,60.1v29.7l-86.4,22.7c-18.4,4.9-35.3,17.6-47.6,35.8
		c-11.6,17.3-18,37.6-18,57.3v2.3c0,4.4,3.6,8,8,8h400c4.4,0,8-3.6,8-8v-2.3C464,474,457.6,453.6,446,436.4z M368,359h-16v-7h16V359
		z M352,187.3c-16.9-5.6-31.5-16.7-41.3-31.5c-2.4-3.5-7.1-4.6-10.8-2.4c-0.6,0.4-59.2,35.3-139.9,37.5V160c0-53,43-96,96-96
		s96,43,96,96L352,187.3z M376,272h-8v-80h8V272z M408,204v56c0,2.2-1.8,4-4,4h-12v-64h12C406.2,200,408,201.8,408,204z M120,264
		h-12c-2.2,0-4-1.8-4-4v-56c0-2.2,1.8-4,4-4h12V264z M144,272h-8v-80h8V272z M144,160v16h-16c-4.4,0-8,3.6-8,8v-24
		c0-75,61-136,136-136s136,61,136,136v24c0-4.4-3.6-8-8-8h-16v-16c0-61.9-50.1-112-112-112S144,98.1,144,160z M194.3,323.6
		C164.5,296.8,160,269.8,160,256v-49.1c70.3-1.8,123.8-26.7,141.8-36.2c12.6,16.3,30.3,28,50.2,33.3V256c0,13.8-4.5,40.8-34.3,67.6
		C298.4,340.8,274.2,352,256,352S213.6,340.8,194.3,323.6z M296,357.4v22.9l-40,33.3l-40-33.3v-22.9c13.9,6.8,27.8,10.6,40,10.6
		S282.1,364.2,296,357.4z M384,488v-16c0-4.4-3.6-8-8-8s-8,3.6-8,8v16H144v-16c0-4.4-3.6-8-8-8s-8,3.6-8,8v16H64.2
		c2.4-33,25.5-64.6,53.5-72l88.4-23.3l44.8,37.4c3,2.5,7.3,2.5,10.2,0l44.8-37.4l88.4,23.3c28,7.4,51,38.9,53.5,72H384z"/>
	<path class="st0" d="M280,304c0-4.4-3.6-8-8-8h-32c-4.4,0-8,3.6-8,8s3.6,8,8,8h32C276.4,312,280,308.4,280,304z"/>
</g>
</svg>
