<svg id="Capa_1" data-name="Capa 1" xmlns="http://www.w3.org/2000/svg" viewBox="0 0 352.62 311.49"><defs><style>.cls-1{fill:#243a76;}</style></defs><title>check-mark</title><path class="cls-1" d="M337.22,23c-15.91-8.57-33.66,8-44.06,17.75C269.29,64,249.09,90.88,226.45,115.36c-25.09,26.93-48.35,53.86-74,80.18-14.69,14.68-30.6,30.6-40.39,49-22-21.42-41-44.68-65.49-63.65C28.77,167.38-.6,157.59,0,190c1.22,42.23,38.56,87.52,66.1,116.28C77.73,318.55,93,331.4,110.78,332c21.42,1.23,43.45-24.48,56.31-38.55,22.64-24.48,41-52,61.81-77.11,26.93-33,54.47-65.49,80.78-99.15C326.21,96.39,378.23,45,337.22,23ZM26.94,187.58a4.64,4.64,0,0,0-2.45.61,29.27,29.27,0,0,1-6.73-2.45h0Q20.51,183.91,26.94,187.58Z" transform="translate(0 -20.57)"/><ellipse class="cls-1" cx="22.07" cy="166.99" rx="7.62" ry="7.18"/></svg>