<svg id="Capa_1" data-name="Capa 1" xmlns="http://www.w3.org/2000/svg" viewBox="0 0 438.53 438.53"><defs><style>.cls-1{fill:#243a76;}</style></defs><title>chevron-sign-to-right-ar</title><path class="cls-1" d="M29.4,109.2a218.33,218.33,0,0,1,79.8-79.79Q159.58,0,219.26,0T329.32,29.41a218.33,218.33,0,0,1,79.8,79.79q29.42,50.4,29.41,110.07T409.12,329.33a218.44,218.44,0,0,1-79.8,79.8q-50.38,29.4-110.06,29.4T109.2,409.13a218.44,218.44,0,0,1-79.8-79.8Q0,278.93,0,219.27T29.4,109.2Zm74.8,122.91L233.82,361.74a17.93,17.93,0,0,0,25.35.35l0,0,.33-.33,29.12-29.13a17.93,17.93,0,0,0,.35-25.35l0,0-.33-.33L201,219.27l87.65-87.65a17.92,17.92,0,0,0,.36-25.34l-.36-.36L259.53,76.79a17.93,17.93,0,0,0-25.35-.35l0,0-.33.33L104.2,206.41a17.93,17.93,0,0,0-.35,25.35l0,0,.33.33Z"/></svg>