<svg id="Layer_1" data-name="Layer 1" xmlns="http://www.w3.org/2000/svg" viewBox="0 0 548 346.5"><defs><style>.cls-1{fill:#b0976f;}.cls-2{fill:#fff;}</style></defs><title>company-logo</title><rect class="cls-1" width="548" height="346.5"/><path class="cls-2" d="M446.36,151.29h3.48v-5.1h-2.63c-1.67-.1-1.88-.5-2-2.18V117.29h-5.81v27a7.35,7.35,0,0,0,1.66,4.89,6.81,6.81,0,0,0,5.29,2.11m-155-12.16L277,117.29h-5.41v34h6.08V129.41l14.37,21.89h5.41v-34h-6.08ZM338,120.07h-5.8v7.11h-2.67v4.71h2.67v12.34a7.38,7.38,0,0,0,1.7,4.89,6.8,6.8,0,0,0,5.26,2.17h3.38v-5.1h-2.49c-1.51-.07-2-.64-2-2.18V131.89h4.54v-4.71H338Zm-24.89,16.5a9.49,9.49,0,0,0-6.42,2,6.84,6.84,0,0,0-2.21,5.26,7.77,7.77,0,0,0,2,5.42c1.57,1.56,3.7,2.29,6.68,2.29h.11a8.33,8.33,0,0,0,5.59-1.73v1.45h5.72V135.08a8,8,0,0,0-2.62-6.43c-1.76-1.47-4.32-2.15-7.6-2.15-3.93,0-6.52.85-8.81,3.55l-.34.4,3.9,3.68.37-.46c1.25-1.56,2.17-2,4.7-2.07,3.53.1,4.51,1.11,4.59,3.85v1.12Zm5.65,5.73a4.22,4.22,0,0,1-.86,3.08c-1.1,1.05-2.21,1.17-4,1.17-2.85-.08-3.71-.94-3.77-2.78s1-2.76,3.67-2.83h4.95Zm35.43-15.53h-5.82v24.52h5.82Zm.13-9.61h-6.08v6.08h6.08Zm76.12,11.49c-1.77-1.47-4.31-2.15-7.6-2.15h0c-3.93,0-6.52.85-8.81,3.55l-.35.4,3.91,3.68.38-.46c1.24-1.56,2.18-2,4.69-2.07,3.51.1,4.49,1.11,4.58,3.85v1.12h-5.64a9.49,9.49,0,0,0-6.42,2,6.84,6.84,0,0,0-2.21,5.26,7.77,7.77,0,0,0,2,5.42c1.55,1.56,3.69,2.29,6.68,2.29h.1a8.25,8.25,0,0,0,5.58-1.72v1.45h5.72V135.08a7.91,7.91,0,0,0-2.6-6.43m-3.2,13.65a4.17,4.17,0,0,1-.86,3.08c-1.09,1.05-2.2,1.17-4,1.17-2.84-.08-3.7-.94-3.77-2.78s1-2.76,3.67-2.83h4.95ZM380.44,139c0-4-.54-7.12-2.91-9.57a10,10,0,0,0-7.43-2.94,9.91,9.91,0,0,0-7.36,2.93c-2.37,2.46-2.94,5.61-2.94,9.58s.57,7.16,2.94,9.63a10,10,0,0,0,7.36,2.93h0a10,10,0,0,0,7.41-2.93c2.37-2.47,2.93-5.61,2.91-9.63m-7.25,6a4.28,4.28,0,0,1-3.09,1.23,4.08,4.08,0,0,1-3-1.23c-1.25-1.2-1.48-3.52-1.48-6s.24-4.84,1.48-6a4.07,4.07,0,0,1,3-1.18,4.25,4.25,0,0,1,3.09,1.19c1.23,1.19,1.48,3.51,1.46,6s-.23,4.84-1.46,6m27.74-8.58v14.82h5.81V135.78c0-2.7-.58-5.11-2.53-7a8.64,8.64,0,0,0-6.14-2.27,9.16,9.16,0,0,0-5.7,1.92v-1.65h-5.7V151.3h5.8V136.47c0-3.36,1.89-4.64,4.3-4.68s4.12,1.25,4.16,4.68" transform="translate(0 1.5)"/><path class="cls-2" d="M89.31,119H83.9v5.46h5.41Zm8.25,21c0-6.43-4.48-11.49-11-11.49s-11.1,4.76-11.1,11.34a14.05,14.05,0,0,0,1.35,5.85H69c-6.63,0-9.52-2.41-9.52-8.3V130H54v7.42c0,9.07,5,13.9,15.07,13.9H86.56c6.58,0,11-4.83,11-11.3m-16.41-.19c0-3.84,2.07-6.29,5.25-6.29s5.51,2.75,5.51,6.48c0,3.53-1.92,6.23-5.25,6.23s-5.51-2.83-5.51-6.42m29.57,11.49h22.17a19.47,19.47,0,0,0,10.86-3.55,10,10,0,0,0,3.15,2.37,9.51,9.51,0,0,0,4.37,1.18h44.35c5.61,0,9.54-4.62,9.54-11.69V129H199.6v11.3c0,3.58-1.37,5.41-4.17,5.41h-5.35c.73-.79,1.13-2.8,1.13-6V129h-5.56v11.27c0,3.61-1.38,5.44-4.17,5.44h-5.12v-.3c.6-.93.9-2.79.9-5.7V129H171.7v10.91c0,3.87-1.37,5.8-4.18,5.8h-15a14.76,14.76,0,0,1-2.15-.1,4.29,4.29,0,0,1-2-1.22,29.25,29.25,0,0,0,5.64-5.51,19.74,19.74,0,0,0,3.49-5.45,20.65,20.65,0,0,0-14-5.11,24.59,24.59,0,0,0-13.32,4v5.2a18.64,18.64,0,0,1,5.8,2.65,14.19,14.19,0,0,1,4.18,3.64,9.87,9.87,0,0,1-3.54,1.52,15.66,15.66,0,0,1-3.83.35H113.91c-2,0-3.49-.3-4.21-.84-1-.74-1.58-2.3-1.58-4.71V119.62h-5.45v22.75a9.58,9.58,0,0,0,2,6.38,7.44,7.44,0,0,0,6.1,2.56m25.36-16.21a16.15,16.15,0,0,1,7.57-2,13.85,13.85,0,0,1,7.12,2,21.22,21.22,0,0,1-2.76,3.24,14.16,14.16,0,0,1-3.58,2.7,19.57,19.57,0,0,0-8.35-5.89m97.76,8.5v-24h-5.35v20.29c0,2.2-.45,3.78-1.37,4.72a4.52,4.52,0,0,1-3.34,1.08l-6.15-22.61h-5.79L218,145.71h-7.51v5.6h14.7c5.3,0,8.63-3.05,8.63-7.71m-23,17.77h8.5v-2.24h-4a2,2,0,0,1-.9-1.87,1.82,1.82,0,0,1,1.69-1.93,1.26,1.26,0,0,1,1.37,1.09l1.76-.85a3.3,3.3,0,0,0-3.09-2.25,3.93,3.93,0,0,0-3.83,4.08,8.92,8.92,0,0,0,.44,1.73h-2Zm31.29-10.06h5.46V119.58H242.1Z" transform="translate(0 1.5)"/><rect class="cls-2" x="48.02" y="218.89" width="5.4" height="5.45"/><rect class="cls-2" x="57.31" y="218.89" width="5.39" height="5.45"/><rect class="cls-2" x="104.61" y="173.06" width="5.41" height="5.45"/><path class="cls-2" d="M160.49,181.44c-5.16,0-9.87,2.64-14.39,8.49l.59-17.78h-5.41v26.09H108.85c.79-1,1.17-2.81,1.17-5.7v-11h-5.44v11.31a8.77,8.77,0,0,1-.59,3.74,3.37,3.37,0,0,1-3.3,1.66H79.46c-2.8,0-4.72-1.43-6.74-5.13A10.46,10.46,0,0,0,63,187.28H60.84v5a3.86,3.86,0,0,1,.89-.07c3.14,0,5,2.18,5,5.22,0,5-4.8,9.24-11.2,9.24-7.12,0-11.54-4.78-11.54-12.39v-4.86h-5.5v5.5a16.75,16.75,0,0,0,16.9,17c8,0,14.59-4.8,16.17-12.48,2.06,3.11,3.69,4.16,8.59,4.32H173c.15-1.82.24-3.48.24-5.1,0-11.5-4.22-17.29-12.72-17.29m7.07,16.8h-22c3.35-7,8.9-11.89,14.45-11.89,4.77,0,7.56,4.07,7.56,10.3Z" transform="translate(0 1.5)"/><path class="cls-2" d="M228.44,193.09a10.8,10.8,0,0,1-.39,3.52c-.53,1.09-1.68,1.63-3.48,1.63H199.05v-5.7c0-6.44-4.22-11-10.22-11-6.24,0-11,4.4-11,10.9s4.82,11.44,10.76,11.44h5.26c-.79,2.61-2.61,3.78-5.46,3.78v4.32c6.4,0,10-2.68,10.71-8.1h26.59c5.51,0,8.25-2.94,8.25-8.89V172.15h-5.5Zm-34.88,5.15h-4.87c-2.95,0-5.26-2.75-5.26-6.16s2.06-5.54,5.3-5.54c2.85,0,4.52,2.06,4.83,5Z" transform="translate(0 1.5)"/><rect class="cls-2" x="242.11" y="173.6" width="5.46" height="31.74"/><path class="cls-2" d="M330.74,179.07a9.4,9.4,0,0,0-7.31,3.08,8,8,0,0,0-6.69-3.08,9.13,9.13,0,0,0-5.69,1.92v-1.65h-5.73v24.53h5.8V189c.05-3.36,1.91-4.63,4.32-4.69s4.12,1.27,4.17,4.69v14.83h5.8V188.81a4.1,4.1,0,0,1,4.31-4.46c2.41.07,4.11,1.27,4.17,4.69v14.83h5.81V188.34a9.27,9.27,0,0,0-2.66-7,9,9,0,0,0-6.3-2.27" transform="translate(0 1.5)"/><path class="cls-2" d="M284.07,169.87l-.13.36-12.33,33.64h6.48l2.27-6.61h12.2l2.27,6.61h6.49l-12.47-34Zm-1.85,22,4.35-12.39,4.24,12.39Z" transform="translate(0 1.5)"/><path class="cls-2" d="M481.26,196.8c-1.47,1.55-2.36,2-4.09,2a4.77,4.77,0,0,1-3.92-1.85c-.9-1.16-1.26-2.72-1.26-5.41s.36-4.19,1.26-5.35a4.76,4.76,0,0,1,3.92-1.87c1.73,0,2.62.48,4.09,2.05l.37.41,4-3.91-.37-.38a10.12,10.12,0,0,0-8.11-3.45,10.64,10.64,0,0,0-7.57,2.84c-2.09,2-3.41,5.17-3.41,9.66s1.32,7.67,3.39,9.69a10.69,10.69,0,0,0,7.59,2.87h.07a10.18,10.18,0,0,0,8-3.49l.37-.39-4-3.86Z" transform="translate(0 1.5)"/><path class="cls-2" d="M452.23,179.07a9.12,9.12,0,0,0-5.7,1.92v-1.65h-5.71v24.53h5.82V189c0-3.36,1.89-4.63,4.3-4.69s4.12,1.27,4.16,4.69v14.83h5.8V188.34c0-2.7-.58-5.12-2.52-7a8.68,8.68,0,0,0-6.16-2.26" transform="translate(0 1.5)"/><path class="cls-2" d="M509.56,190.89a12.82,12.82,0,0,0-2.75-8.5,9.83,9.83,0,0,0-7.74-3.32,9.62,9.62,0,0,0-7.63,3.32c-1.84,2.19-2.84,5.3-2.84,9.18,0,4.55,1.18,7.72,3.22,9.75a10.89,10.89,0,0,0,7.86,2.81h.08a11.52,11.52,0,0,0,9.07-3.8l.41-.39-3.8-3.57-.36.37a6.48,6.48,0,0,1-5.33,2.24c-3.35,0-5.17-2-5.37-5.48h15.18Zm-15.18-1.75a5.55,5.55,0,0,1,.53-2.42,4.58,4.58,0,0,1,8.29,0,6.16,6.16,0,0,1,.57,2.44Z" transform="translate(0 1.5)"/><path class="cls-2" d="M423.53,179.07c-3.94,0-6.52.84-8.82,3.55l-.34.4,3.9,3.68.38-.48c1.25-1.55,2.18-2,4.7-2.05,3.52.1,4.49,1.12,4.58,3.84v1.13h-5.64a9.46,9.46,0,0,0-6.42,2,6.8,6.8,0,0,0-2.21,5.25,7.76,7.76,0,0,0,2,5.44c1.55,1.55,3.68,2.27,6.67,2.27h.1a8.34,8.34,0,0,0,5.6-1.72v1.46h5.71V187.65a7.9,7.9,0,0,0-2.62-6.43c-1.75-1.47-4.3-2.15-7.59-2.15m4.4,15.78c0,1.6-.3,2.56-.85,3.08-1.11,1.07-2.21,1.18-4,1.18-2.86-.07-3.7-.94-3.77-2.78s1-2.76,3.66-2.83h4.95Z" transform="translate(0 1.5)"/><path class="cls-2" d="M386.07,194.16c0,3.35-1.9,4.63-4.32,4.68s-4.1-1.25-4.17-4.68V179.34h-5.79v15.51c0,2.71.57,5.12,2.52,7a8.64,8.64,0,0,0,6.15,2.27h0a9.06,9.06,0,0,0,5.7-1.92v1.66h5.71V179.34h-5.8Z" transform="translate(0 1.5)"/><path class="cls-2" d="M357.57,179.07A8.05,8.05,0,0,0,352,180.9v-11h-5.8v34h5.72v-1.68a7.86,7.86,0,0,0,5.54,1.94h.11a8.66,8.66,0,0,0,6.12-2.23c2.55-2.58,2.77-6.75,2.79-10.33s-.24-7.69-2.79-10.28a8.55,8.55,0,0,0-6.07-2.22m2.27,17.73a3.43,3.43,0,0,1-3.52,2,3.5,3.5,0,0,1-3.56-2,12.67,12.67,0,0,1-.81-5.23,12.49,12.49,0,0,1,.81-5.2,3.52,3.52,0,0,1,3.56-2,3.47,3.47,0,0,1,3.52,2,12.68,12.68,0,0,1,.79,5.2,12.86,12.86,0,0,1-.79,5.23" transform="translate(0 1.5)"/><path class="cls-2" d="M404.84,196.58V169.87h-5.79v27a7.35,7.35,0,0,0,1.66,4.9,6.84,6.84,0,0,0,5.29,2.13h3.47v-5.13h-2.62c-1.66-.09-1.89-.48-2-2.16" transform="translate(0 1.5)"/></svg>