<svg id="Layer_1" data-name="Layer 1" xmlns="http://www.w3.org/2000/svg" viewBox="0 0 992 839.39"><defs><style>.cls-1{fill:#858b94;}</style></defs><title>department</title><path class="cls-1" d="M473.86,626.45h76.3V550.16H779.09c63.77,0,76.22,1,76.3,76.3H931.7V550.18c-.07-50.58-26.39-76.28-76.31-76.32H550.16V397.54h-76.3v76.32L182.7,479.1c-49.95,0-90.38,40.9-90.38,91.46v55.89h76.3c0-58.27-3.9-76.26,76.31-76.29H473.86ZM366.08,321.23H657.86c24.78,0,44.91-22.29,44.91-49.82V142.13c0-27.51-20.11-49.83-44.91-49.83H366.08c-24.78,0-44.85,22.32-44.85,49.83V271.41C321.23,298.94,341.3,321.23,366.08,321.23ZM210.82,702.77H50.1c-18.82,0-34.1,21.47-34.1,48V883.7c0,26.51,15.28,48,34.1,48H210.82c18.81,0,34.09-21.49,34.09-48V750.78C244.93,724.24,229.63,702.77,210.82,702.77Zm381.56,0H431.63c-18.83,0-34.09,21.47-34.09,48V883.7c0,26.51,15.24,48,34.09,48H592.4c18.82,0,34.06-21.49,34.06-48V750.78C626.46,724.24,611.22,702.77,592.38,702.77Zm381.52,0H813.15c-18.81,0-34.06,21.47-34.06,48V883.7c0,26.51,15.26,48,34.06,48H973.9c18.85,0,34.1-21.49,34.1-48V750.78C1008,724.24,992.75,702.77,973.9,702.77Z" transform="translate(-16 -92.3)"/></svg>