<?xml version="1.0" encoding="utf-8"?>
<!-- Generator: Adobe Illustrator 25.4.1, SVG Export Plug-In . SVG Version: 6.00 Build 0)  -->
<svg version="1.1" id="Layer_1" xmlns="http://www.w3.org/2000/svg" xmlns:xlink="http://www.w3.org/1999/xlink" x="0px" y="0px"
	 viewBox="0 0 1172 1024" style="enable-background:new 0 0 1172 1024;" xml:space="preserve">
<style type="text/css">
	.st0{fill:none;stroke:#A4A9AF;stroke-width:40;stroke-miterlimit:10;}
</style>
<g>
	<path class="st0" d="M547.8,626.4h76.3v-76.3H853c63.8,0,76.2,1,76.3,76.3l0,0h76.3v-76.3c-0.1-50.6-26.4-76.3-76.3-76.3H624.1
		v-76.3h-76.3v76.3L256.6,479c-50,0-90.4,40.9-90.4,91.5v55.9h76.3c0-58.3-3.9-76.3,76.3-76.3h228.9v76.3H547.8z M440.1,321.2h291.8
		c24.8,0,44.9-22.3,44.9-49.8V142.1c0-27.5-20.1-49.8-44.9-49.8H440.1c-24.8,0-44.8,22.3-44.8,49.8v129.3
		C395.2,298.9,415.3,321.2,440.1,321.2z M284.8,702.8H124.1c-18.8,0-34.1,21.5-34.1,48v132.9c0,26.5,15.3,48,34.1,48h160.7
		c18.8,0,34.1-21.5,34.1-48V750.8C318.9,724.2,303.6,702.8,284.8,702.8z M666.4,702.8H505.6c-18.8,0-34.1,21.5-34.1,48v132.9
		c0,26.5,15.2,48,34.1,48h160.8c18.8,0,34.1-21.5,34.1-48V750.8C700.4,724.2,685.2,702.8,666.4,702.8z M1047.9,702.8H887.1
		c-18.8,0-34.1,21.5-34.1,48v132.9c0,26.5,15.3,48,34.1,48h160.8c18.8,0,34.1-21.5,34.1-48V750.8
		C1082,724.2,1066.7,702.8,1047.9,702.8z"/>
</g>
</svg>
