<svg id="Capa_1" data-name="Capa 1" xmlns="http://www.w3.org/2000/svg" viewBox="0 0 512 512"><defs><style>.cls-1{fill:#fff;}</style></defs><title>feedback</title><path class="cls-1" d="M457,80H442V45a45,45,0,0,0-90,0V57.28a35.15,35.15,0,0,1-25.39,33.66L312,95.11V95a15,15,0,0,0-15-15H237a15,15,0,0,0-15,15v67H45A45.05,45.05,0,0,0,0,207V497a15,15,0,0,0,23.32,12.48L79.54,472H365a45.05,45.05,0,0,0,45-45V270h47a55.06,55.06,0,0,0,55-55V135A55.06,55.06,0,0,0,457,80ZM252,110h30V240H252ZM380,427a15,15,0,0,1-15,15H75a15,15,0,0,0-8.32,2.52L30,469V207a15,15,0,0,1,15-15H222v63a15,15,0,0,0,15,15h60a15,15,0,0,0,14.9-13.29A84.47,84.47,0,0,0,357.31,270H380ZM482,215a25,25,0,0,1-25,25H357.31A54.58,54.58,0,0,1,312,215.75V126.31l22.86-6.53A65.28,65.28,0,0,0,382,57.28V45a15,15,0,0,1,30,0V95a15,15,0,0,0,15,15h30a25,25,0,0,1,25,25Z"/><path class="cls-1" d="M75,282H175a15,15,0,0,0,0-30H75a15,15,0,0,0,0,30Z"/><path class="cls-1" d="M335,312H75a15,15,0,0,0,0,30H335a15,15,0,0,0,0-30Z"/><path class="cls-1" d="M335,372H75a15,15,0,0,0,0,30H335a15,15,0,0,0,0-30Z"/></svg>