<?xml version="1.0" encoding="utf-8"?>
<!-- Generator: Adobe Illustrator 27.7.0, SVG Export Plug-In . SVG Version: 6.00 Build 0)  -->
<svg version="1.1" id="Layer_1" xmlns="http://www.w3.org/2000/svg" xmlns:xlink="http://www.w3.org/1999/xlink" x="0px" y="0px"
	 viewBox="0 0 400.9 90.7" style="enable-background:new 0 0 400.9 90.7;" xml:space="preserve">
<style type="text/css">
	.st0{fill:#FFFFFF;}
	.st1{fill:#E1E1E1;}
	.st2{fill:none;stroke:#FFFFFF;stroke-width:0.347;stroke-miterlimit:10;}
	.st3{fill:#B99B2C;}
	.st4{fill:#FFFFFF;stroke:#E1E1E1;stroke-width:7.847752e-02;stroke-miterlimit:10;}
	.st5{clip-path:url(#SVGID_00000183969929725380225770000010932039866874116226_);fill:#E1E1E1;}
	.st6{clip-path:url(#SVGID_00000013898279949231879630000014302540679609950347_);fill:#FFFFFF;}
	.st7{clip-path:url(#SVGID_00000013898279949231879630000014302540679609950347_);fill:#E1E1E1;}
	.st8{clip-path:url(#SVGID_00000011010875552790545600000016160774918760781744_);fill:#E1E1E1;}
	
		.st9{clip-path:url(#SVGID_00000147899238098819410520000013683384093415321509_);fill:none;stroke:#E1E1E1;stroke-width:7.847752e-02;stroke-miterlimit:10;}
	.st10{clip-path:url(#SVGID_00000147899238098819410520000013683384093415321509_);}
	.st11{fill:none;stroke:#E1E1E1;stroke-width:7.847752e-02;stroke-miterlimit:10;}
	.st12{display:none;fill:#B99B2C;stroke:#221E1F;stroke-width:8.482088e-02;stroke-miterlimit:10;}
	.st13{clip-path:url(#SVGID_00000008833636881090284110000001473519398088966566_);}
	.st14{fill:#B99B2C;stroke:#E1E1E1;stroke-width:6.278194e-02;stroke-miterlimit:10;}
	
		.st15{clip-path:url(#SVGID_00000008833636881090284110000001473519398088966566_);fill:#FFFFFF;stroke:#E1E1E1;stroke-width:6.278194e-02;stroke-miterlimit:10;}
	.st16{clip-path:url(#SVGID_00000134216913875650260320000015939780691858653588_);fill:#E1E1E1;}
	.st17{clip-path:url(#SVGID_00000145776819103817643440000014578262717837970061_);fill:#FFFFFF;}
	.st18{clip-path:url(#SVGID_00000145776819103817643440000014578262717837970061_);fill:#E1E1E1;}
	.st19{clip-path:url(#SVGID_00000155114102280712330270000016682363070744430722_);fill:#E1E1E1;}
	
		.st20{clip-path:url(#SVGID_00000056400223718830180660000003754202057717910947_);fill:none;stroke:#E1E1E1;stroke-width:7.847752e-02;stroke-miterlimit:10;}
	.st21{clip-path:url(#SVGID_00000056400223718830180660000003754202057717910947_);}
	.st22{clip-path:url(#SVGID_00000151518271476413873230000017264914520778662291_);}
	
		.st23{clip-path:url(#SVGID_00000151518271476413873230000017264914520778662291_);fill:#FFFFFF;stroke:#E1E1E1;stroke-width:6.278194e-02;stroke-miterlimit:10;}
</style>
<g>
	<g>
		<path class="st0" d="M281.2,0h-3v3h3V0z M285.8,11.8c0-3.6-2.5-6.5-6.2-6.5c-3.7,0-6.2,2.7-6.2,6.4c0,1.2,0.3,2.2,0.7,3.3h-4.6
			c-3.7,0-5.4-1.4-5.4-4.7V6.1h-3.1v4.2c0,5.1,2.8,7.8,8.5,7.8h10C283.3,18.1,285.8,15.4,285.8,11.8 M276.6,11.7
			c0-2.2,1.2-3.5,2.9-3.5c1.8,0,3.1,1.5,3.1,3.6c0,2-1.1,3.5-3,3.5C277.8,15.3,276.6,13.7,276.6,11.7 M293.2,18.1H312
			c2.1,0,4.1-0.7,6.1-2c0.5,0.5,1,1,1.8,1.3c0.9,0.4,1.7,0.7,2.5,0.7H358c3.1,0,5.4-2.6,5.4-6.6v-6h-3.1v6.4c0,2-0.8,3-2.3,3h-3.7
			c0.4-0.4,0.6-1.6,0.6-3.4v-6h-3.1v6.3c0,2-0.8,3.1-2.3,3.1h-4.2v-0.2c0.3-0.5,0.5-1.6,0.5-3.2v-6h-3.1v6.1c0,2.2-0.8,3.3-2.4,3.3
			H323c-0.7,0-1.1,0-1.2-0.1c-0.4-0.1-0.7-0.3-1.1-0.7c1-0.7,2-1.7,3.2-3.1c1-1.3,1.7-2.3,2-3.1c-2.2-1.9-4.8-2.9-7.9-2.9
			c-2.6,0-5.1,0.7-7.5,2.3v2.9c1,0.2,2.1,0.7,3.3,1.5c1.1,0.7,1.9,1.4,2.4,2c-0.7,0.4-1.3,0.7-2,0.9c-0.5,0.1-1.3,0.2-2.2,0.2H295
			c-1.1,0-2-0.2-2.4-0.5c-0.6-0.4-0.9-1.3-0.9-2.6V0h-3.1v13.1c0,1.5,0.4,2.7,1.1,3.6C290.6,17.7,291.7,18.1,293.2,18.1 M313.8,9
			c1.4-0.7,2.8-1.1,4.3-1.1c1.4,0,2.7,0.4,4,1.1c-0.4,0.6-0.9,1.2-1.5,1.8c-0.7,0.7-1.4,1.2-2,1.5C317.1,10.7,315.5,9.6,313.8,9
			 M380.8,13.8V0h-3v11.7c0,1.2-0.3,2.1-0.8,2.6c-0.4,0.4-1,0.6-1.9,0.6l-3.5-12.7h-3.3l3.5,12.7h-4.2v3.1h8.3
			C378.9,18.1,380.8,16.4,380.8,13.8 M367.8,23.8h4.8v-1.3h-2.2c-0.3-0.2-0.5-0.6-0.5-1.1c0-0.5,0.4-1.1,1-1.1
			c0.4,0,0.7,0.2,0.8,0.6l1-0.5c-0.4-0.8-1-1.3-1.7-1.3c-1.2,0-2.2,1-2.2,2.3c0,0.1,0.1,0.4,0.3,1h-1.1V23.8z M385.4,18.1h3.1V0
			h-3.1V18.1z"/>
		<g>
			<rect x="266.5" y="52.9" class="st0" width="3" height="3.1"/>
			<rect x="271.7" y="52.9" class="st0" width="3" height="3.1"/>
			<rect x="303" y="27.2" class="st0" width="3" height="3"/>
			<path class="st0" d="M336.9,32.7c-2.9,0-5.5,1.5-8.1,4.8l0.3-10.3h-3.1v15h-20.7c0.4-0.5,0.7-1.6,0.7-3.2v-6.2H303v6.3
				c0,1-0.1,1.7-0.3,2.1c-0.3,0.6-2.3,0.9-3.2,0.9h-15.3c-1.6,0-2.7-0.8-3.8-2.9c-1.2-2.2-3-3.3-5.5-3.3h-1.2v2.8c0.2,0,0.3,0,0.5,0
				c1.8,0,2.8,1.2,2.8,2.9c0,2.8-2.7,5.2-6.3,5.2c-4,0-6.5-2.7-6.5-7v-2.7h-3.1v3.1c0,5.4,4.2,9.6,9.5,9.6c4.5,0,8.2-2.7,9.1-7
				c1.2,1.7,2.1,2.3,4.8,2.4v0h59.4c0.1-1,0.1-2,0.1-2.9C344.1,36,341.7,32.7,336.9,32.7 M340.9,42.1h-12.4c1.9-3.9,5-6.7,8.1-6.7
				c2.7,0,4.3,2.3,4.3,5.8V42.1z"/>
			<path class="st0" d="M377.7,39.3c0,1-0.1,1.6-0.2,2c-0.3,0.6-0.9,0.9-1.9,0.9h-15.6v-3.2c0-3.6-2.4-6.2-5.7-6.2
				c-3.5,0-6.2,2.5-6.2,6.1c0,3.6,2.7,6.4,6,6.4h3c-0.4,1.5-1.5,2.1-3.1,2.1v2.4c3.6,0,5.6-1.5,6-4.6h16.3c3.1,0,4.6-1.7,4.6-5V27.2
				h-3.1V39.3z M356.8,42.1h-2.7c-1.7,0-3-1.6-3-3.5c0-1.8,1.2-3.1,3-3.1c1.6,0,2.5,1.2,2.7,2.8V42.1z"/>
			<rect x="385.4" y="27.2" class="st0" width="3.1" height="18.1"/>
		</g>
		<g>
			<path class="st0" d="M138,18.1h1.8v-2.7h-1.4c-0.9-0.1-1-0.3-1.1-1.2V0h-3.1v14.4c0,1,0.3,1.9,0.9,2.6
				C135.8,17.7,136.7,18.1,138,18.1"/>
			<polygon class="st0" points="23,11.7 15.3,0 12.5,0 12.5,18.1 15.7,18.1 15.7,6.5 23.3,18.1 26.2,18.1 26.2,0 23,0 			"/>
			<path class="st0" d="M57,1.5h-3.1v3.8h-1.4v2.5h1.4v6.5c0,0.9,0.3,1.9,0.9,2.6c0.6,0.7,1.6,1.2,2.8,1.2h1.8v-2.7h-1.3
				c-0.8,0-1.1-0.3-1.1-1.2V7.8h2.4V5.3H57V1.5z"/>
			<path class="st0" d="M43.5,6.1c-0.9-0.8-2.3-1.1-4-1.1c-2.1,0-3.5,0.5-4.7,1.9l-0.2,0.2L36.7,9l0.2-0.2c0.7-0.8,1.2-1.1,2.5-1.1
				c1.9,0.1,2.4,0.6,2.4,2v0.6h-3c-1.5,0-2.6,0.4-3.4,1.1c-0.8,0.7-1.2,1.7-1.2,2.8c0,1.1,0.4,2.2,1.1,2.9c0.8,0.8,2,1.2,3.6,1.2
				c0,0,0,0,0.1,0c1.3,0,2.2-0.3,3-0.9v0.8h3V9.5C44.9,8,44.4,6.9,43.5,6.1z M41.8,13.3c0,0.8-0.2,1.3-0.5,1.6
				c-0.6,0.5-1.2,0.6-2.1,0.6c-1.5,0-2-0.5-2-1.5c0-1,0.6-1.5,2-1.5h2.6V13.3z"/>
			<g>
				<rect x="68" y="5.1" class="st0" width="3.1" height="13"/>
				<rect x="68" class="st0" width="3.2" height="3.2"/>
			</g>
			<path class="st0" d="M123.3,6.1c-0.9-0.8-2.3-1.1-4-1.1c-2.1,0-3.5,0.5-4.7,1.9l-0.2,0.2l2.1,1.9l0.2-0.2
				c0.7-0.8,1.2-1.1,2.5-1.1c1.9,0.1,2.4,0.6,2.4,2v0.6h-3c-1.5,0-2.6,0.4-3.4,1.1c-0.8,0.7-1.2,1.7-1.2,2.8c0,1.1,0.4,2.2,1.1,2.9
				c0.8,0.8,2,1.2,3.6,1.2c0,0,0,0,0.1,0c1.3,0,2.2-0.3,3-0.9v0.8h3V9.5C124.7,8,124.3,6.9,123.3,6.1z M121.6,13.3
				c0,0.8-0.2,1.3-0.5,1.6c-0.6,0.5-1.2,0.6-2.1,0.6c-1.5,0-2-0.5-2-1.5c0-1,0.5-1.5,2-1.5h2.6V13.3z"/>
			<path class="st0" d="M88.4,6.5C87.5,5.6,86.2,5,84.5,5c-1.8,0-3.1,0.7-3.9,1.5c-1.3,1.3-1.6,3-1.6,5.1c0,2.1,0.3,3.8,1.6,5.1
				c0.9,0.9,2.1,1.6,3.9,1.6h0c1.8,0,3.1-0.7,3.9-1.6c1.3-1.3,1.6-3,1.6-5.1C90,9.5,89.7,7.8,88.4,6.5z M86.1,14.8
				c-0.4,0.4-1,0.7-1.6,0.7c-0.7,0-1.2-0.2-1.6-0.7c-0.7-0.6-0.8-1.9-0.8-3.2c0-1.3,0.1-2.6,0.8-3.2c0.4-0.4,0.9-0.6,1.6-0.6
				c0.7,0,1.2,0.2,1.6,0.6c0.7,0.6,0.8,1.9,0.8,3.2C86.9,12.9,86.8,14.2,86.1,14.8z"/>
			<path class="st0" d="M104,10.2v7.9h3.1V9.9c0-1.4-0.3-2.7-1.3-3.7c-0.8-0.8-1.9-1.2-3.3-1.2c-1.1,0-2.2,0.3-3,1V5.1h-3v13h3.1
				v-7.9c0-1.8,1-2.5,2.3-2.5C103.1,7.8,104,8.4,104,10.2"/>
		</g>
		<g>
			<path class="st0" d="M44.6,32.1c-1.6,0-2.9,0.5-3.9,1.6c-0.8-1.1-2.1-1.7-3.6-1.6c-1.1,0-2.2,0.4-3,1v-0.9h-3.1v13.1h3.1v-7.9
				c0-1.8,1-2.5,2.3-2.5c1.3,0,2.2,0.7,2.2,2.5v7.9h3.1v-8c0-1.7,1.1-2.4,2.3-2.4c1.3,0,2.2,0.7,2.2,2.5v7.9h3.1V37
				c0-1.4-0.4-2.7-1.4-3.7C47.2,32.5,46,32.1,44.6,32.1"/>
			<path class="st0" d="M19,27.2L19,27.4l-6.6,17.9h3.4l1.2-3.5h6.5l1.2,3.5h3.5l-6.6-18.1H19z M18,38.9l2.3-6.6l2.3,6.6H18z"/>
			<path class="st0" d="M124.1,41.5c-0.8,0.8-1.3,1.1-2.2,1.1c-0.9,0-1.6-0.4-2.1-1c-0.5-0.6-0.7-1.4-0.7-2.9c0-1.4,0.2-2.2,0.7-2.9
				c0.5-0.6,1.2-1,2.1-1c0.9,0,1.4,0.3,2.2,1.1l0.2,0.2l2.1-2.1l-0.2-0.2c-1.2-1.3-2.5-1.8-4.3-1.8c-1.5,0-2.9,0.4-4,1.5
				c-1.1,1.1-1.8,2.8-1.8,5.1c0,2.4,0.7,4.1,1.8,5.2c1.1,1.1,2.6,1.5,4.1,1.5h0c1.8,0,3.1-0.6,4.3-1.9l0.2-0.2l-2.1-2.1L124.1,41.5z
				"/>
			<path class="st0" d="M108.4,32.1c-1.1,0-2.2,0.3-3,1v-0.9h-3v13.1h3.1v-7.9c0-1.8,1-2.5,2.3-2.5c1.3,0,2.2,0.7,2.2,2.5l0,7.9h3.1
				V37c0-1.4-0.3-2.7-1.3-3.7C110.9,32.5,109.8,32.1,108.4,32.1"/>
			<path class="st0" d="M139.8,38.4c0-1.8-0.5-3.4-1.5-4.5c-1-1.1-2.4-1.8-4.1-1.8c-1.7,0-3.1,0.6-4.1,1.8c-1,1.2-1.5,2.8-1.5,4.9
				c0,2.4,0.6,4.1,1.7,5.2c1.1,1.1,2.6,1.5,4.2,1.5h0.1c2.2,0,3.5-0.7,4.8-2l0.2-0.2l-2-1.9l-0.2,0.2c-0.9,0.9-1.5,1.2-2.8,1.2
				c-1.8,0-2.8-1.1-2.9-2.9h8.1V38.4z M131.7,37.4c0-0.6,0.1-0.8,0.3-1.3c0.3-0.8,1.1-1.4,2.2-1.4c1.1,0,1.8,0.6,2.2,1.4
				c0.2,0.5,0.3,0.8,0.3,1.3H131.7z"/>
			<path class="st0" d="M93.7,32.1c-2.1,0-3.5,0.5-4.7,1.9l-0.2,0.2l2.1,2l0.2-0.3c0.7-0.8,1.2-1.1,2.5-1.1c1.9,0.1,2.4,0.6,2.4,2
				v0.6h-3c-1.5,0-2.6,0.4-3.4,1.1c-0.8,0.7-1.2,1.7-1.2,2.8c0,1.1,0.4,2.2,1.1,2.9c0.8,0.8,2,1.2,3.6,1.2h0.1c1.3,0,2.2-0.3,3-0.9
				v0.8h3v-8.6c0-1.5-0.5-2.7-1.4-3.4C96.8,32.4,95.4,32.1,93.7,32.1 M96,40.5c0,0.9-0.2,1.4-0.5,1.6c-0.6,0.6-1.2,0.6-2.1,0.6
				c-1.5,0-2-0.5-2-1.5c0-1,0.6-1.5,1.9-1.5H96V40.5z"/>
			<path class="st0" d="M74.3,40.1c0,1.8-1,2.5-2.3,2.5c-1.3,0-2.2-0.7-2.2-2.5v-7.9h-3.1v8.3c0,1.4,0.3,2.7,1.3,3.7
				c0.8,0.8,1.9,1.2,3.3,1.2h0c1.1,0,2.2-0.3,3-1v0.9h3V32.2h-3.1V40.1z"/>
			<path class="st0" d="M59.1,32.1c-1.1,0-2.1,0.2-3,1v-5.9H53v18.1h3.1v-0.9c0.8,0.8,1.8,1,2.9,1h0.1c1.3,0,2.5-0.4,3.3-1.2
				c1.4-1.4,1.5-3.6,1.5-5.5c0-1.9-0.1-4.1-1.5-5.5C61.6,32.5,60.4,32.1,59.1,32.1 M60.3,41.5c-0.3,0.7-0.8,1.1-1.9,1.1
				c-1.1,0-1.6-0.4-1.9-1.1c-0.3-0.7-0.4-1.7-0.4-2.8c0-1.1,0.1-2.1,0.4-2.8c0.3-0.7,0.8-1.1,1.9-1.1c1,0,1.5,0.4,1.9,1.1
				c0.3,0.7,0.4,1.7,0.4,2.8C60.7,39.8,60.6,40.8,60.3,41.5"/>
			<path class="st0" d="M84,41.4V27.2h-3.1v14.4c0,1,0.3,1.9,0.9,2.6c0.6,0.7,1.6,1.1,2.8,1.1h1.8v-2.7h-1.4
				C84.2,42.5,84.1,42.3,84,41.4"/>
		</g>
		<g>
			<path class="st1" d="M239,1.7c0,0,2,26.9-5.9,48.4c-7.7,21.1-19.8,31.3-25.4,34.8c-1.4,0.9-2.5,1.6-4.3,2.6l-2.9,1.3l-2.5-1.3
				c-1.3-0.7-2.8-1.5-4.4-2.5c-5.6-3.9-18-14.1-25.6-34.8c-7.9-21.5-6.1-48.4-6.1-48.4H239 M240.6,0H239h-77h-1.6l-0.1,1.6
				c-0.1,1.1-1.7,27.5,6.2,49.1c7.4,20.3,19.6,31,26.2,35.6c1.4,1,2.8,1.7,4,2.4l0.5,0.3l0,0l0,0l2.5,1.3l0.7,0.4l0.7-0.3l2.9-1.3
				l0.1,0l0,0c1.5-0.8,2.5-1.4,3.5-2.1c0.3-0.2,0.6-0.4,0.9-0.6c4-2.5,17.6-12.4,26.1-35.7c7.9-21.6,6.1-48,6-49.2L240.6,0L240.6,0z
				"/>
			<polygon class="st1" points="170.2,2.5 170.2,6.1 171.2,4.8 			"/>
			<polygon class="st1" points="173.7,5.1 170.2,6 171.9,6.8 			"/>
			<polygon class="st1" points="170.1,8.1 172.3,9.3 170.2,6 			"/>
			<polygon class="st1" points="168.3,6.8 170.2,6 167.9,9.2 			"/>
			<polygon class="st1" points="166.6,5.1 170.2,6 169,4.7 			"/>
			<polygon class="st1" points="180.4,2.5 180.4,6.1 181.5,4.8 			"/>
			<polygon class="st1" points="183.9,5.1 180.4,6 182.1,6.8 			"/>
			<polygon class="st1" points="180.3,8.1 182.5,9.3 180.4,6 			"/>
			<polygon class="st1" points="178.6,6.8 180.4,6 178.1,9.2 			"/>
			<polygon class="st1" points="176.8,5.1 180.4,6 179.3,4.7 			"/>
			<polygon class="st1" points="190.7,2.5 190.7,6.1 191.7,4.8 			"/>
			<polygon class="st1" points="194.2,5.1 190.7,6 192.4,6.8 			"/>
			<polygon class="st1" points="190.6,8.1 192.8,9.3 190.7,6 			"/>
			<polygon class="st1" points="188.8,6.8 190.7,6 188.4,9.2 			"/>
			<polygon class="st1" points="187.1,5.1 190.7,6 189.5,4.7 			"/>
			<polygon class="st1" points="200.9,2.5 200.9,6.1 202,4.8 			"/>
			<polygon class="st1" points="204.4,5.1 200.9,6 202.6,6.8 			"/>
			<polygon class="st1" points="200.8,8.1 203,9.3 200.9,6 			"/>
			<polygon class="st1" points="199.1,6.8 200.9,6 198.6,9.2 			"/>
			<polygon class="st1" points="197.3,5.1 200.9,6 199.8,4.7 			"/>
			<polygon class="st1" points="211.2,2.5 211.2,6.1 212.2,4.8 			"/>
			<polygon class="st1" points="214.7,5.1 211.2,6 212.9,6.8 			"/>
			<polygon class="st1" points="211.1,8.1 213.3,9.3 211.2,6 			"/>
			<polygon class="st1" points="209.3,6.8 211.2,6 208.9,9.2 			"/>
			<polygon class="st1" points="207.6,5.1 211.2,6 210,4.7 			"/>
			<polygon class="st1" points="221.4,2.5 221.4,6.1 222.5,4.8 			"/>
			<polygon class="st1" points="224.9,5.1 221.4,6 223.1,6.8 			"/>
			<polygon class="st1" points="221.3,8.1 223.5,9.3 221.4,6 			"/>
			<polygon class="st1" points="219.6,6.8 221.4,6 219.1,9.2 			"/>
			<polygon class="st1" points="217.8,5.1 221.4,6 220.3,4.7 			"/>
			<polygon class="st1" points="231.7,2.5 231.7,6.1 232.7,4.8 			"/>
			<polygon class="st1" points="235.2,5.1 231.7,6 233.4,6.8 			"/>
			<polygon class="st1" points="231.6,8.1 233.8,9.3 231.7,6 			"/>
			<polygon class="st1" points="229.8,6.8 231.7,6 229.4,9.2 			"/>
			<polygon class="st1" points="228.1,5.1 231.7,6 230.5,4.7 			"/>
			<g>
				<path class="st0" d="M218,68.4c-0.1,0-0.1,0-0.2,0c-0.1,0-0.1,0-0.2,0.1c0,0,0,0.1,0,0.1c0,0,0,0.1,0,0.1c0,0,0,0.1,0.1,0.1
					c0,0,0.1,0.1,0.1,0.1c0,0,0.1,0,0.1,0.1c0,0,0.1,0,0.1,0l0.3-0.3c0,0-0.1-0.1-0.1-0.1C218.1,68.5,218.1,68.5,218,68.4z"/>
				<path class="st0" d="M176.9,61c-0.1,0-0.1,0-0.2,0.1c-0.1,0.1-0.2,0.2-0.2,0.3c0,0.1,0,0.1,0.1,0.2c0.1,0.2,0.3,0.3,0.4,0.3
					c0,0,0.1,0,0.1,0c0,0,0.1,0,0.1,0v0l0.3-0.2c-0.1-0.1-0.2-0.3-0.3-0.4C177.1,61.1,177,61,176.9,61z"/>
				<path class="st0" d="M216.3,70.4c0,0-0.1,0.1-0.1,0.2c0,0.1-0.1,0.2-0.1,0.3c0,0.1,0,0.2,0,0.3c0,0.1,0,0.2,0,0.3l0.8-1
					c-0.2-0.1-0.3-0.1-0.4-0.1C216.4,70.3,216.4,70.3,216.3,70.4z"/>
				<path class="st0" d="M170.3,47.6c0,0-0.1,0-0.1,0c-0.1,0-0.1,0.1-0.2,0.1c0,0,0,0.1,0,0.2c0,0,0,0.1,0,0.1
					c0.1,0.2,0.3,0.3,0.5,0.3l0,0c0,0,0.1,0,0.1,0l0,0l0.3-0.1c-0.1-0.2-0.1-0.3-0.2-0.4C170.6,47.7,170.4,47.6,170.3,47.6z"/>
				<path class="st0" d="M190.3,77.5c-0.2,0-0.4,0.1-0.6,0.3c-0.2,0.2-0.3,0.4-0.3,0.6c0,0.1,0,0.3,0.2,0.4c0.1,0.1,0.2,0.2,0.4,0.2
					c0.1,0,0.2,0,0.3-0.1l0,0c0,0,0.1-0.1,0.1-0.1l0.3-0.3l0,0c0,0,0.1-0.1,0.1-0.1l0,0l0,0c0.1-0.1,0.1-0.2,0.1-0.3
					c0-0.1,0-0.3-0.1-0.4C190.6,77.5,190.4,77.5,190.3,77.5z"/>
				<path class="st0" d="M186,73.7c-0.1-0.1-0.2-0.2-0.4-0.1c-0.1,0-0.1,0-0.2,0.1c-0.1,0.1-0.1,0.2-0.1,0.2c0,0.1,0,0.1,0.1,0.2
					c0.1,0.1,0.3,0.2,0.4,0.2c0.1,0,0.1,0,0.2,0c0,0,0.1,0,0.1-0.1l0.2-0.2C186.2,73.8,186.1,73.7,186,73.7z"/>
				<path class="st0" d="M239,1.7h-77c0,0-1.8,26.9,6.1,48.4c7.6,20.7,19.9,30.9,25.6,34.8c1.5,1.1,3,1.8,4.4,2.5l2.5,1.3l2.9-1.3
					c1.8-1,2.8-1.7,4.3-2.6c5.6-3.5,17.7-13.7,25.4-34.8C241,28.6,239,1.7,239,1.7z M220.3,4.7l1.1-2.2l1.1,2.2l2.4,0.4l-1.8,1.7
					l0.4,2.4l-2.2-1.2l-2.2,1.1l0.4-2.4l-1.8-1.7L220.3,4.7z M210,4.7l1.1-2.2l1.1,2.2l2.4,0.4l-1.8,1.7l0.4,2.4l-2.2-1.2l-2.2,1.1
					l0.4-2.4l-1.8-1.7L210,4.7z M199.8,4.7l1.1-2.2l1.1,2.2l2.4,0.4l-1.8,1.7l0.4,2.4l-2.2-1.2l-2.2,1.1l0.4-2.4l-1.8-1.7L199.8,4.7
					z M189.5,4.7l1.1-2.2l1.1,2.2l2.4,0.4l-1.8,1.7l0.4,2.4l-2.2-1.2l-2.2,1.1l0.4-2.4l-1.8-1.7L189.5,4.7z M179.3,4.7l1.1-2.2
					l1.1,2.2l2.4,0.4l-1.8,1.7l0.4,2.4l-2.2-1.2l-2.2,1.1l0.4-2.4l-1.8-1.7L179.3,4.7z M166.6,5.1l2.5-0.3l1.1-2.2l1.1,2.2l2.4,0.4
					l-1.8,1.7l0.4,2.4l-2.2-1.2l-2.2,1.1l0.4-2.4L166.6,5.1z M168.6,45.7l1.3-1.6c0.2-0.2,0.4-0.5,0.6-0.7c-0.3,0.1-0.6,0.2-0.9,0.3
					l-1.4,0.5l-0.2-0.6l3.3-1.2l0.2,0.6l-1.3,1.6c-0.2,0.2-0.4,0.4-0.5,0.6c0.3-0.1,0.6-0.2,0.9-0.3l1.3-0.5l0.1,0l0.2,0.6l-3.3,1.2
					L168.6,45.7z M170.1,49.2L170.1,49.2l-0.3-0.5l0.2-0.1c-0.2-0.1-0.4-0.3-0.5-0.5c0-0.1-0.1-0.2-0.1-0.3c0-0.3,0.2-0.6,0.5-0.7
					c0.1,0,0.2-0.1,0.3-0.1c0.2,0,0.5,0.1,0.6,0.3c0.2,0.2,0.3,0.4,0.5,0.7c0.1,0,0.1-0.1,0.2-0.1c0.1-0.1,0.1-0.1,0.1-0.2
					c0-0.1,0-0.1-0.1-0.2v0l0,0c-0.1-0.2-0.2-0.4-0.4-0.5l-0.1-0.1l0.4-0.3l0.1,0c0.2,0.2,0.4,0.4,0.5,0.7c0.1,0.2,0.1,0.3,0.1,0.4
					c0,0.2-0.1,0.4-0.2,0.6c-0.1,0.1-0.3,0.2-0.5,0.3l-0.8,0.3C170.4,49.1,170.2,49.2,170.1,49.2z M171.1,51.8
					c-0.1-0.1-0.2-0.2-0.2-0.4c0-0.1-0.1-0.2-0.1-0.3c0-0.1,0-0.2,0.1-0.3l0,0l0,0c0.1-0.2,0.3-0.3,0.6-0.4l1.1-0.5l-0.1-0.3
					l0.5-0.2l0.1,0.3l0.4-0.2l0.4,0.5l-0.6,0.2l0.2,0.6L173,51l-0.2-0.6l-1.1,0.5c-0.1,0-0.2,0.1-0.2,0.1c0,0-0.1,0.1-0.1,0.1
					c0,0,0,0.1,0,0.1c0,0.1,0.1,0.2,0.1,0.2l0.1,0.1L171.1,51.8L171.1,51.8z M171.5,52.8l2.2-1l0.1,0l0.3,0.6l-2.3,1.1L171.5,52.8z
					 M172.9,55.7c-0.1-0.2-0.1-0.4-0.1-0.6c0-0.5,0.3-0.9,0.8-1.1c0.2-0.1,0.5-0.2,0.7-0.2c0.5,0,0.9,0.3,1.1,0.7
					c0.1,0.2,0.1,0.4,0.1,0.6c0,0.5-0.3,0.9-0.8,1.1c-0.2,0.1-0.5,0.2-0.7,0.2C173.5,56.5,173.1,56.1,172.9,55.7z M174.7,52.1
					c0,0-0.1,0-0.2,0c-0.1,0-0.3-0.1-0.3-0.2c0,0,0-0.1,0-0.2c0-0.1,0.1-0.3,0.2-0.3c0.1,0,0.1,0,0.2,0c0.1,0,0.3,0.1,0.3,0.2
					c0,0.1,0,0.1,0,0.2C174.9,51.9,174.8,52,174.7,52.1L174.7,52.1L174.7,52.1z M174.9,59.4l1.3-0.7c0.1-0.1,0.2-0.1,0.3-0.2
					c0.1-0.1,0.1-0.2,0.1-0.3c0-0.1,0-0.1-0.1-0.2c-0.1-0.2-0.3-0.3-0.5-0.3c0,0-0.1,0-0.1,0l0,0l0,0c0,0-0.1,0-0.2,0.1l-1.3,0.7
					l-0.3-0.5l1.6-0.9c0.2-0.1,0.4-0.2,0.6-0.3l0.1-0.1l0.3,0.5l-0.2,0.1c0.2,0.1,0.5,0.2,0.6,0.5c0.1,0.1,0.1,0.3,0.1,0.4
					c0,0.3-0.2,0.6-0.6,0.9l-1.3,0.7L174.9,59.4z M176.9,62.7L176.9,62.7l-0.4-0.4l0.2-0.1c-0.2-0.1-0.4-0.2-0.6-0.5
					c-0.1-0.2-0.1-0.3-0.1-0.4c0-0.3,0.2-0.5,0.4-0.7c0.1-0.1,0.3-0.1,0.4-0.1c0.2,0,0.4,0.1,0.6,0.2c0.2,0.1,0.3,0.4,0.5,0.6
					c0,0,0.1-0.1,0.1-0.1c0-0.1,0.1-0.1,0.1-0.2c0-0.1,0-0.2-0.1-0.3v0l0,0c-0.1-0.2-0.3-0.3-0.4-0.4l-0.1-0.1l0.3-0.4l0.1,0
					c0.2,0.1,0.5,0.3,0.6,0.6c0.1,0.2,0.2,0.4,0.2,0.6c0,0.2-0.1,0.4-0.2,0.5c-0.1,0.1-0.2,0.2-0.4,0.3l-0.8,0.5
					C177.2,62.5,177,62.6,176.9,62.7z M177.6,64l3-1.9l0.1,0l0.3,0.5l-3.1,2L177.6,64z M181.5,69.6c-0.2-0.1-0.5-0.4-0.8-0.8
					c-0.2-0.4-0.4-0.7-0.4-1.1c0-0.1,0-0.2,0-0.2l0,0c0.1-0.4,0.3-0.8,0.8-1.2c0.3-0.2,0.7-0.4,1.1-0.4c0.6,0,1.1,0.3,1.5,0.9
					c0.2,0.3,0.3,0.6,0.4,0.8l0,0.1l-0.5,0.2l0-0.1c0-0.2-0.1-0.4-0.3-0.6c-0.3-0.4-0.6-0.6-1-0.6c-0.2,0-0.5,0.1-0.8,0.3
					c-0.4,0.3-0.6,0.6-0.6,1c0,0.2,0.1,0.5,0.3,0.7c0.1,0.2,0.2,0.3,0.3,0.4l0.7-0.5l-0.4-0.5l0.4-0.3l0.1-0.1l0.7,1L181.5,69.6
					L181.5,69.6z M183.8,72.6L183.8,72.6l-0.4-0.4l0.2-0.2c-0.2,0-0.5-0.1-0.7-0.4c-0.1-0.1-0.2-0.3-0.2-0.5c0-0.3,0.1-0.6,0.5-0.9
					l1.2-0.9l0.4,0.5l-1.1,0.9c-0.1,0.1-0.2,0.2-0.3,0.3c-0.1,0.1-0.1,0.2-0.1,0.2c0,0.1,0,0.2,0.1,0.2c0.1,0.1,0.3,0.2,0.4,0.2
					c0.1,0,0.1,0,0.2,0h0h0c0,0,0.1,0,0.2-0.1l1.2-0.9l0.1-0.1l0.4,0.5l-1.4,1.1C184.1,72.4,183.9,72.5,183.8,72.6z M185.8,75.1
					L185.8,75.1l-0.4-0.4l0.1-0.1c-0.2,0-0.4-0.1-0.6-0.4c-0.1-0.2-0.2-0.4-0.2-0.5c0-0.2,0.1-0.4,0.3-0.6c0.2-0.1,0.3-0.2,0.5-0.2
					c0.4,0,0.7,0.2,1.1,0.7c0,0,0.1-0.1,0.1-0.1c0-0.1,0.1-0.1,0.1-0.2c0-0.1,0-0.2-0.1-0.3v0l0,0c-0.1-0.2-0.3-0.3-0.5-0.3l-0.1,0
					l0.3-0.4l0.1,0c0.2,0.1,0.5,0.3,0.7,0.5h0c0.2,0.2,0.3,0.4,0.3,0.6c0,0.3-0.2,0.6-0.5,0.8l-0.7,0.6
					C186.1,74.9,185.9,75,185.8,75.1z M188.3,75.8c0,0-0.1,0.1-0.1,0.1l-1,0.9l-0.4-0.5l1.3-1.1c0.2-0.2,0.4-0.3,0.5-0.5l0.1-0.1
					L189,75l-0.2,0.2c0,0,0,0,0.1,0c0.2,0,0.4,0.1,0.6,0.3c0,0,0.1,0.1,0.1,0.1l0,0.1l-0.4,0.3l-0.1,0.1l-0.1-0.1c0,0,0-0.1-0.1-0.1
					c-0.1-0.1-0.2-0.2-0.3-0.2C188.5,75.7,188.4,75.7,188.3,75.8z M190.5,79.4c-0.2,0.1-0.3,0.3-0.4,0.4l-0.1,0.1l-0.4-0.4l0.2-0.2
					c0,0,0,0,0,0c-0.2,0-0.5-0.1-0.7-0.3c-0.2-0.2-0.3-0.5-0.3-0.7c0-0.3,0.2-0.7,0.5-1v0c0.3-0.3,0.7-0.4,1-0.4
					c0.3,0,0.6,0.1,0.8,0.3c0.2,0.2,0.3,0.4,0.3,0.6l0.9-0.8l0.1-0.1l0.4,0.4L190.5,79.4z M202.7,78.2l-2.2,1.3l-2.2-1.3
					c-1.5-0.9-4.5-3-8.1-6.6c-6.2-6.3-11.1-14.2-14.5-23.3c-4.2-11.3-5.1-24.4-5.1-33.4l0-4h59.9l0,4c0,9-1,22.1-5.1,33.4
					c-3.4,9.2-8.3,17-14.5,23.3C207.2,75.2,204.2,77.3,202.7,78.2z M211.6,74.7l-0.7,0l0-0.7l0.7,0L211.6,74.7z M212.8,79.5l-0.6,0
					l0-0.6l0.5,0l0-0.5l0.6,0l0,0.6l-0.5,0L212.8,79.5z M216,72.6L216,72.6l-0.7,0.8l0,0l0,0l0,0l0,0l-0.7,0.8l0,0l0,0l0,0l0,0
					l-0.7,0.8l0,0l-1.1,1.2l0,0l-0.3,0.3c0.1,0.1,0.2,0.3,0.3,0.4c0.1,0.2,0.1,0.3,0.1,0.5c0,0.2,0,0.3-0.1,0.5
					c-0.1,0.1-0.2,0.3-0.3,0.4c-0.1,0.1-0.2,0.2-0.4,0.3c-0.1,0.1-0.3,0.1-0.4,0.1c-0.2,0-0.3,0-0.5-0.1c-0.2-0.1-0.3-0.2-0.5-0.3
					c0,0-0.1-0.1-0.1-0.2c-0.1-0.1-0.1-0.1-0.1-0.2c0-0.1-0.1-0.2-0.1-0.2c0-0.1-0.1-0.2-0.1-0.2l0.1-0.4c0,0.1,0.1,0.2,0.2,0.3
					c0.1,0.1,0.1,0.2,0.2,0.3c0.1,0.1,0.2,0.2,0.3,0.2c0.1,0.1,0.2,0.1,0.3,0.1c0.1,0,0.2,0,0.3,0c0.1,0,0.2-0.1,0.3-0.2
					c0.1,0,0.1-0.1,0.2-0.2c0-0.1,0.1-0.1,0.1-0.2c0-0.1,0-0.2,0-0.2c0-0.1,0-0.1-0.1-0.2l-0.5,0.4l-0.4-0.6l0.9-0.9l0,0l0.5-0.5
					c0,0-0.1-0.1-0.1-0.1c-0.1-0.1-0.1-0.1-0.2-0.2c-0.1,0-0.2-0.1-0.3-0.1l0.1-0.7c0.2,0.1,0.4,0.1,0.5,0.2
					c0.2,0.1,0.3,0.2,0.4,0.3l0,0l0.2-0.2l0,0l0.8-0.9l0.8-0.9l0.8-0.9l0,0l0.2-0.3c-0.3-0.2-0.5-0.4-0.8-0.6
					c-0.3-0.2-0.5-0.4-0.8-0.6l0.2-0.7l1.3,1.1c0-0.1,0-0.2,0-0.3c0-0.1,0-0.2,0-0.3c0-0.1,0-0.2,0.1-0.3c0-0.1,0.1-0.2,0.1-0.2
					c0.1-0.1,0.1-0.1,0.2-0.2c0.1,0,0.2-0.1,0.3-0.1c0.1,0,0.3,0,0.4,0.1c0.2,0,0.3,0.1,0.5,0.2l0.5,0.5L216,72.6z M221.4,65.5
					L221.4,65.5l-0.6,0.9l0,0l0,0.1l0,0l-0.7,0.9l0,0l0,0l0,0l0,0l-0.7,0.9l0,0l-0.2,0.3c0.1,0.1,0.1,0.2,0.2,0.3
					c0.1,0.1,0.1,0.2,0.1,0.3c0,0.1,0,0.2,0.1,0.3c0,0.1,0,0.2,0,0.2c0,0.1,0,0.1,0,0.2c0,0.1-0.1,0.1-0.1,0.1l-0.7,0.4
					c0.1-0.1,0.1-0.2,0.1-0.4c0-0.1,0-0.2,0-0.4c0-0.1,0-0.2,0-0.3c0-0.1-0.1-0.2-0.1-0.3l-0.3,0.4c0,0,0,0-0.1,0.1c0,0,0,0-0.1,0
					c-0.1,0-0.1,0-0.2,0c-0.1,0-0.1,0-0.2,0c-0.1,0-0.1,0-0.2-0.1c-0.1,0-0.1-0.1-0.2-0.1c-0.1-0.1-0.1-0.1-0.2-0.2
					c-0.1-0.1-0.1-0.1-0.1-0.2c0-0.1-0.1-0.2-0.1-0.2c0-0.1,0-0.2,0-0.2c0-0.1,0-0.2,0-0.2c0-0.1,0.1-0.1,0.1-0.2
					c0.1-0.1,0.2-0.2,0.3-0.3c0.1,0,0.2-0.1,0.4-0.1c0.1,0,0.3,0,0.4,0.1c0.1,0.1,0.3,0.1,0.4,0.2l0.1-0.2l0,0l0.7-1l0.7-0.9l0.7-1
					l0.3-0.4c-0.3-0.2-0.6-0.4-0.8-0.5c-0.3-0.2-0.6-0.4-0.8-0.5l0.1-0.7l1.9,1.3l0.5,0.4L221.4,65.5z M222.6,63.8l-0.5-0.4
					c-0.1-0.1-0.3-0.2-0.4-0.3c-0.1-0.1-0.3-0.2-0.4-0.3c-0.1-0.1-0.3-0.2-0.4-0.3c-0.1-0.1-0.3-0.2-0.4-0.3l0.1-0.7l1.9,1.3
					l0.3,0.6L222.6,63.8z M225.6,59.8c0.1,0.1,0.1,0.3,0.1,0.4c0,0.1,0,0.3,0,0.4c0,0.1-0.1,0.3-0.2,0.4c-0.1,0.1-0.2,0.3-0.3,0.4
					c-0.1,0.1-0.3,0.2-0.4,0.2c-0.2,0-0.3,0.1-0.5,0c-0.2,0-0.3-0.1-0.5-0.2c0,0-0.1-0.1-0.2-0.1c-0.1-0.1-0.1-0.1-0.2-0.2
					c-0.1-0.1-0.1-0.1-0.2-0.2c-0.1-0.1-0.1-0.1-0.1-0.2l0-0.4c0.1,0.1,0.1,0.1,0.2,0.2c0.1,0.1,0.1,0.1,0.2,0.2
					c0.1,0.1,0.2,0.1,0.2,0.2c0.1,0,0.2,0.1,0.3,0.1c0.1,0,0.2,0,0.3,0c0.1,0,0.2,0,0.3-0.1c0.1,0,0.1-0.1,0.2-0.1
					c0.1-0.1,0.1-0.1,0.1-0.2c0-0.1,0.1-0.2,0.1-0.2c0-0.1,0-0.2,0-0.3c0-0.1-0.1-0.2-0.1-0.3c-0.1-0.1-0.2-0.2-0.3-0.2
					c-0.1,0-0.1,0-0.1-0.1c0,0-0.1,0-0.1,0c0,0-0.1,0-0.1,0c0,0-0.1,0-0.1-0.1l0.1-0.6c0.1,0.1,0.3,0.1,0.4,0.1
					c0.1,0,0.2,0.1,0.3,0.1l0.2-0.4c-0.1,0-0.1,0-0.2-0.1c-0.1,0-0.2-0.1-0.2-0.1l0.1-0.6c0.1,0.1,0.2,0.1,0.4,0.1
					c0.1,0,0.2,0.1,0.3,0.1l0.2-0.3c-0.1-0.1-0.2-0.1-0.3-0.2c-0.1,0-0.2-0.1-0.4-0.1l0-0.7c0.2,0,0.4,0.1,0.5,0.1
					c0.2,0.1,0.3,0.1,0.5,0.2c0.1,0.1,0.2,0.1,0.3,0.2c0.1,0.1,0.2,0.1,0.3,0.2l-1,1.7C225.4,59.5,225.5,59.7,225.6,59.8z M232,46
					L232,46l-0.4,1h0l0,0l0,0l-0.4,1l0,0.1l0,0l-0.4,1h0l0,0l0,0.1l0,0l-0.4,1l0,0l-1.1,2.4l0,0l-0.5,1l0,0l0,0l0,0l0,0l-0.5,1l0,0
					l0,0v0l-0.5,1l0,0l-0.2,0.4c0.1,0.1,0.1,0.1,0.2,0.2c0.1,0.1,0.1,0.2,0.1,0.2c0,0.1,0.1,0.2,0.1,0.3c0,0.1,0,0.2,0.1,0.3
					c0,0.1,0,0.2,0,0.2c0,0.1,0,0.1-0.1,0.2l-0.7,0.4c0.1-0.2,0.1-0.4,0.1-0.5c0-0.2,0-0.3,0-0.4c0-0.1-0.1-0.2-0.2-0.3
					c-0.1-0.1-0.2-0.2-0.3-0.2c-0.1-0.1-0.3-0.1-0.4-0.2c-0.2,0-0.4-0.1-0.6-0.1l-0.1-0.7c0.2,0,0.4,0,0.6,0c0.2,0,0.4,0.1,0.6,0.2
					l0.2-0.3l0,0l0.6-1.1l0.5-1l0.5-1.1l0,0L229,51c-0.1,0-0.2,0-0.3,0.1c-0.1,0-0.2,0.1-0.3,0.1c-0.1,0.1-0.1,0.1-0.2,0.2
					c0,0.1-0.1,0.1-0.1,0.2c0,0.1,0,0.1,0,0.2c0,0.1,0,0.1,0,0.2c-0.1,0-0.2-0.1-0.2-0.2c-0.1-0.1-0.1-0.1-0.2-0.2
					c0-0.1-0.1-0.2-0.1-0.2c0-0.1,0-0.2,0.1-0.3c0-0.1,0.1-0.2,0.2-0.3c0.1-0.1,0.2-0.1,0.3-0.2c0.1-0.1,0.3-0.1,0.4-0.1
					c0.2,0,0.4-0.1,0.6-0.1l0.1-0.3l0,0l0.5-1.1l0.5-1.1l0.4-1.1l0.5-1.1l0,0l0.2-0.5c-0.3-0.1-0.6-0.2-0.9-0.3
					c-0.3-0.1-0.6-0.2-0.9-0.3l0-0.7l2.1,0.9l0.6,0.2L232,46z M232.7,44.1l-0.6-0.2c-0.2-0.1-0.3-0.1-0.5-0.2
					c-0.2-0.1-0.3-0.1-0.5-0.2c-0.2-0.1-0.3-0.1-0.5-0.2c-0.2-0.1-0.3-0.1-0.5-0.2l0-0.7l2.2,0.9l0.5,0.6L232.7,44.1z M233.8,9.3
					l-2.2-1.2l-2.2,1.1l0.4-2.4l-1.8-1.7l2.5-0.3l1.1-2.2l1.1,2.2l2.4,0.4l-1.8,1.7L233.8,9.3z"/>
				<path class="st0" d="M174.9,55.1c0-0.1,0-0.2-0.1-0.2c-0.1-0.2-0.3-0.3-0.5-0.3c-0.2,0-0.3,0-0.5,0.1c-0.3,0.2-0.5,0.4-0.5,0.7
					c0,0.1,0,0.2,0.1,0.2c0.1,0.2,0.3,0.3,0.6,0.3c0.1,0,0.3,0,0.5-0.1c0.1-0.1,0.3-0.2,0.4-0.3C174.8,55.3,174.9,55.2,174.9,55.1z"
					/>
			</g>
			<path class="st2" d="M194.9,34.7c-0.8,2.8-2.3,6-3.2,7.7l6.2,8.3c1.1,1.4,3.2,1.6,4.5,0.5l11.3-10.1c0.5-0.4,0.7-1.1,0.5-1.7
				c-0.4-1.3-1.2-3.7-1.6-5c-0.4-1.1-0.9-2.3-1.3-3.1l-0.4,0.3c-0.1,0-0.8-0.4-1.1-0.8c-0.1-0.1-0.1-0.2-0.2-0.3c0-0.2,0-0.2,0-0.5
				c0-0.1,0-0.2-0.1-0.3c0-0.1-0.1-0.2-0.2-0.3c-0.1-0.2-0.2-0.3-0.3-0.3c-0.1-0.1-0.2,0-0.3,0c-0.5,0-0.9-0.3-1-0.4
				c-0.1-0.1-0.2-0.2-0.2-0.3c0-0.1,0.1-0.1,0.2-0.3c0-0.1,0-0.1,0.1-0.2c0.1-0.4,0-0.8-0.2-1.6c0-0.1-0.1-0.3-0.2-0.4
				c-0.1-0.1-0.2-0.1-0.2-0.1c-0.2,0-0.3,0-0.4,0c-0.1,0-0.1-0.1-0.1-0.1c-0.3-0.5-0.5-0.9-0.8-1.1c-0.1-0.1-0.2-0.2-0.4-0.3
				c-0.2-0.1-0.5-0.1-0.6-0.1l-0.1,0c0-0.1-0.1-0.5-0.4-0.7c-0.2-0.1-0.6-0.2-0.7-0.1c0,0,0,0.1,0,0.1c0,0,0.1,0.1,0.1,0.1
				c0.1,0,0.2,0.1,0.3,0.4l0,0.1c-0.1,0-0.3,0-0.5,0c-0.1,0-0.3,0.1-0.6,0.2c-0.2,0.2-0.4,0.4-0.4,0.5l-0.1,0.1c0,0-0.5-0.1-0.5,0.1
				c0,0,0,0.1,0,0.2c0.1,0.2,0.2,0.2,0.3,0.3c0.2,0.2,0.2,0.5,0.2,0.7c-0.1,0.3-0.3,0.3-0.3,0.5c0,0.2,0.1,0.3,0.1,0.4
				c-0.1,0.1-0.1,0-0.2,0.1c-0.1,0.1,0,0.2,0,0.2c0,0.2,0.2,0.3,0.3,0.3l0,0.1c-0.1,0-0.3,0.1-0.3,0.2c0,0.1,0.1,0.2,0.2,0.3
				c0.6,0.5,0.7,0.7,0.8,0.8c0.1,0.3,0.1,0.4,0.1,0.5c0,0.1-0.1,0.2-0.1,0.2l-0.1-0.1c-0.3-0.2-1.3-0.7-2-1.4
				c-0.3-0.3-0.5-0.5-0.6-0.8c-0.2-0.3-0.2-0.5-0.2-0.7c0-0.1,0-0.2,0-0.3c0-0.1-0.1-0.2-0.2-0.2c-0.1-0.1-0.2-0.1-0.3-0.1l0-0.1
				c0-0.2-0.1-0.8-0.5-1.2c-0.2-0.3-0.5-0.4-0.7-0.5l0-0.1c-0.2-0.3-0.4-0.6-0.5-0.7c-0.1-0.1-0.3-0.3-0.5-0.4
				c-0.2-0.1-0.4-0.1-0.6-0.1l0.1-0.1c0.1-0.1,0.3-0.3,0.6-0.4c0.1-0.1,0.3-0.1,0.4-0.1l0.1,0l0-0.1c0-0.2,0.1-0.5,0.3-0.8
				c0.1-0.1,0.3-0.3,0.5-0.4c0.2-0.1,0.2,0,0.6-0.1c0.2,0,0.4-0.1,0.6-0.2c0.1-0.1,0.3-0.2,0.5-0.4c0.1-0.1,0.1-0.2,0.2-0.3v0
				c-0.3,0-0.8-0.1-1.3-0.1c-0.7,0-1.3,0.1-1.9,0.2c-0.7,0.2-1.4,0.4-2,0.7l0,0l0,0c-0.5-0.1-1.3-0.1-2.1,0.3
				c-1.1,0.6-1.9,2.2-1.8,3.8l1.6-1.6c0,0,0.2-0.1,0.5-0.2c0.2-0.1,1.2-0.1,1.7,0c0,0,1,0.1,1.2,0.1c0.2,0.1,1.3,0.9,1.5,1.1
				c0.3,0.1,0.8,0.4,1,0.5C199,24.9,199,25,199,25c-0.1,0.1-0.7,0.2-1.2-0.2c-0.6-0.5-1.2-1.1-1.6-1.3c-0.4-0.2-0.9-0.2-1.5-0.2
				c-0.6,0-1-0.1-1.4,0.1c-0.1,0-0.2,0.1-0.3,0.2c0.2-0.1,0.3-0.2,0.5-0.3c0.2-0.1,0.3,0,0.6,0c0.1,0,0.3,0,0.5,0c0.2,0,0.5,0,0.7,0
				l0,0.1c-0.2,0-0.5,0-0.7,0c-0.2,0-0.4,0-0.5,0c-0.3,0-0.4,0-0.6,0c-0.3,0.1-0.5,0.2-0.8,0.5c0.3,0.2,0.8,0.7,1.2,1.1
				c0.7,0.9,1.1,1.9,1.2,2.6l0-0.1c0.1,0.3,0.2,0.7,0.2,1c0.3,1.7,0.1,3.2,0,4C195.2,33.3,195.1,33.9,194.9,34.7"/>
			<g>
				<path class="st0" d="M194.1,23.3c-0.3,0-0.4,0-0.6,0c-0.3,0.1-0.5,0.3-0.8,0.5c0,0,0,0,0,0c0,0,0,0,0,0c0.3,0.2,0.8,0.7,1.1,1.1
					c0.8,1,1.2,2.8,1.2,2.8c0.1,0.3,0.1,0.5,0.2,0.8c0.3,1.7,0.1,3.1,0,4c-0.1,0.7-0.2,1.4-0.4,2.1c-0.8,2.9-2.3,6.1-3.2,7.8l0.1,0
					c0.9-1.7,2.4-4.9,3.2-7.8c0.2-0.8,0.3-1.4,0.4-2.1c0.1-0.8,0.3-2.3,0-4c-0.1-0.3-0.1-0.7-0.2-1c0,0-0.5-1.7-1.2-2.6
					c-0.3-0.4-0.8-0.8-1.2-1.1c0.2-0.3,0.5-0.4,0.8-0.5C193.6,23.3,193.8,23.3,194.1,23.3c0.1,0.1,0.3,0.1,0.5,0.1
					c0.2,0,0.5,0,0.7,0v-0.1c-0.2,0-0.5,0-0.7,0C194.4,23.3,194.2,23.3,194.1,23.3"/>
				<path class="st0" d="M191.7,42.7l-0.4-0.2l0.1-0.2c0.9-1.7,2.4-4.9,3.2-7.7c0.2-0.7,0.3-1.4,0.4-2.1c0.1-0.8,0.3-2.2,0-3.9
					c0-0.2-0.1-0.5-0.2-0.8c0,0-0.4-1.8-1.2-2.7c-0.3-0.4-0.8-0.8-1.1-1l-0.2-0.1l0.2-0.2c0.3-0.3,0.6-0.5,0.9-0.6
					c0.2-0.1,0.4,0,0.7,0l0,0c0.1,0,0.3,0,0.5,0c0.2,0,0.5,0,0.7,0l0.2,0v0.4l-0.2,0c-0.2,0-0.5,0-0.7,0c-0.2,0-0.4,0-0.5,0
					c-0.3,0-0.4,0-0.6,0c-0.2,0-0.4,0.2-0.5,0.3c0.3,0.3,0.7,0.6,1,1c0.8,0.9,1.2,2.6,1.2,2.6c0.1,0.3,0.2,0.7,0.2,1
					c0.3,1.8,0.1,3.2,0,4.1c-0.1,0.7-0.2,1.4-0.4,2.1c-0.8,2.9-2.4,6.1-3.2,7.8L191.7,42.7z"/>
			</g>
			<path class="st3" d="M194.7,21.5c0,0.2,0.2,0.3,0.5,0.3c0.2,0,0.4-0.2,0.4-0.4c0-0.2-0.2-0.3-0.5-0.3
				C194.9,21.1,194.7,21.3,194.7,21.5"/>
			<path class="st0" d="M194.7,21.5c0,0.2,0.2,0.3,0.5,0.3c0.2,0,0.4-0.2,0.4-0.4c0-0.2-0.2-0.3-0.5-0.3
				C194.9,21.1,194.7,21.3,194.7,21.5"/>
			<path class="st0" d="M211.2,31.2c-0.2-0.5-0.5-1.2-0.9-1.9c-0.5-0.9-1-1.8-1.5-2.7c-0.2-0.3-0.3-0.5-0.5-0.7
				c-0.9-1.4-1.7-2.5-2.9-3.5c-0.5-0.5-1.1-1-1.8-1.4c-1.3-0.7-2.4-1-3-1.1c-0.3,0-0.8-0.1-1.3-0.1c-0.7,0-1.3,0.1-1.9,0.2
				c-0.9,0.2-2.1,0.7-2.1,0.7c-0.5-0.1-1.4-0.1-2.2,0.3c-1.1,0.6-1.9,2.3-1.8,3.9c0,0,0,0,0,0c0,0,0,0,0.1,0
				c0.3-0.2,0.8-0.7,1.3-1.1c0,0,0,0,0,0c0.3-0.2,0.5-0.4,0.6-0.5c0.4-0.2,0.8-0.1,1.4-0.1c0.6,0,1.1,0,1.5,0.2
				c0.4,0.2,1,0.8,1.6,1.3c0.6,0.5,1.1,0.3,1.2,0.2c0.1-0.1,0-0.1-0.1-0.2c-0.1-0.1-0.7-0.4-1-0.5c-0.3-0.1-1.4-1-1.5-1.1
				c-0.2-0.1-1.2-0.1-1.2-0.1c-0.6,0-1.5,0-1.7,0c-0.2,0-0.4,0.1-0.5,0.2c-0.5,0.3-1.6,1.6-1.6,1.6c0-1.6,0.7-3.2,1.8-3.8
				c0.8-0.4,1.6-0.4,2.1-0.3l0,0l0,0c0.6-0.3,1.3-0.5,2-0.7c0.6-0.1,1.3-0.2,1.9-0.2c0.6,0,1,0.1,1.3,0.1c0,0,0,0,0,0
				c0,0.1-0.1,0.2-0.2,0.3c-0.2,0.2-0.3,0.3-0.5,0.3c-0.2,0.1-0.4,0.1-0.6,0.2c-0.4,0-0.4,0-0.6,0.1c-0.3,0.1-0.4,0.3-0.5,0.4
				c-0.2,0.3-0.3,0.6-0.3,0.8l0,0.1l-0.1,0c-0.1,0-0.2,0.1-0.4,0.1c-0.3,0.1-0.5,0.3-0.6,0.4l-0.1,0.1c0.1,0,0.3,0,0.6,0.1
				c0.2,0.1,0.4,0.2,0.5,0.4c0.1,0.1,0.3,0.4,0.5,0.7l0,0.1c0.2,0.1,0.4,0.2,0.7,0.5c0.4,0.5,0.5,1,0.5,1.2l0,0.1c0,0,0.2,0,0.3,0.1
				c0.1,0.1,0.1,0.2,0.2,0.2c0.1,0.2,0,0.3,0,0.3c0,0.2,0.1,0.4,0.2,0.7c0.1,0.3,0.3,0.5,0.6,0.8c0.7,0.7,1.6,1.2,2,1.4l0.1,0.1
				c0,0,0.1-0.1,0.1-0.2c0,0,0-0.2-0.1-0.5c-0.1-0.1-0.2-0.3-0.8-0.8c-0.1-0.1-0.2-0.2-0.2-0.3c0-0.1,0.2-0.2,0.3-0.2l0-0.1
				c0,0-0.2-0.1-0.3-0.3c0,0,0-0.2,0-0.2c0.1-0.1,0.2,0,0.2-0.1c0.1-0.1-0.1-0.2-0.1-0.4c0-0.2,0.2-0.3,0.3-0.5c0-0.2,0-0.5-0.2-0.7
				c-0.1-0.1-0.2-0.1-0.3-0.3c0-0.1-0.1-0.1,0-0.2c0.1-0.1,0.5-0.1,0.5-0.1l0.1-0.1c0.1-0.1,0.2-0.3,0.4-0.5
				c0.2-0.2,0.4-0.2,0.6-0.2c0.2,0,0.4,0,0.5,0l0-0.1c-0.1-0.2-0.2-0.3-0.3-0.4c0,0-0.1,0-0.1-0.1c0,0,0-0.1,0-0.1
				c0.1-0.1,0.4,0,0.7,0.1c0.3,0.2,0.4,0.5,0.4,0.7l0.1,0c0.1,0,0.4,0,0.6,0.1c0.2,0.1,0.3,0.2,0.4,0.3c0.3,0.2,0.5,0.6,0.8,1.1
				c0,0,0.1,0.1,0.1,0.1c0.1,0.1,0.2,0,0.4,0c0,0,0.1,0,0.2,0.1c0.2,0.1,0.2,0.3,0.2,0.4c0.1,0.7,0.3,1.2,0.2,1.6
				c0,0.1,0,0.1-0.1,0.2c-0.1,0.2-0.2,0.2-0.2,0.3c0,0.1,0.1,0.2,0.2,0.3c0.1,0.1,0.5,0.4,1,0.4c0.1,0,0.2,0,0.3,0
				c0.1,0,0.2,0.1,0.3,0.3c0.1,0.1,0.2,0.2,0.2,0.3c0,0.1,0.1,0.2,0.1,0.3c0,0.3,0,0.3,0,0.5c0,0.1,0.1,0.2,0.2,0.3
				c0.3,0.4,1,0.8,1.1,0.8l0.7,0.1L211.2,31.2z M201.7,23.8c-0.5,0.2-0.9,0.3-1.3,0.1c-0.4-0.1-0.6-0.4-0.7-0.6l-0.1-0.1
				c-0.4,0-0.8-0.3-0.9-0.7c-0.1-0.4,0.1-0.8,0.1-0.9c0.2-0.3,0.5-0.5,0.6-0.6l0,0.1l0,0.4l0.1-0.1c0.1-0.1,0.4-0.4,0.8-0.5
				c0.5-0.1,0.9,0,1.3,0.2c0.4,0.1,0.8,0.3,1,0.6c0.1,0.1,0.1,0.3,0.1,0.4l0,0.1c0,0.1,0.1,0.2,0.2,0.2c0.1,0.1,0.3,0.1,0.3,0.1
				l0,0.1C202.7,23.4,202.1,23.7,201.7,23.8"/>
			<path class="st0" d="M200.9,23.3c0.8,0,1.3-0.4,1.3-0.9c0-0.5-0.6-0.8-1.4-0.8c-0.7,0-1.3,0.4-1.3,0.9
				C199.6,23,200.2,23.4,200.9,23.3 M200.2,22.1c0.2,0,0.4,0.2,0.4,0.4c0,0.2-0.2,0.4-0.4,0.4c-0.2,0-0.4-0.2-0.4-0.4
				C199.9,22.3,200,22.1,200.2,22.1"/>
			<path class="st0" d="M204.4,37.9c0,0.1,0,0.1,0,0.2c-0.1,0-0.1,0-0.2,0c-0.1,0.2-0.1,0.2-0.4,0c0,0,0,0.1,0.1,0.1
				c0.2,0.2,0.4,0.4,0.6,0.6c0.1,0.1,0.1,0.2-0.1,0.3c-0.1,0-0.2,0-0.2,0c-0.1,0-0.1,0-0.2,0c-0.1,0.1-0.2,0.1-0.3,0
				c-0.1-0.1-0.1-0.2-0.2-0.2c0,0-0.1-0.1-0.1-0.1c0.1,0.3,0.4,0.6,0.7,0.7c0.1-0.1,0.4,0,0.4-0.3c0.1,0.1,0.3,0.2,0.4,0.1
				c0-0.1,0-0.1,0.1-0.2c0,0,0.1,0,0.1,0c0,0,0,0,0.1,0c0.2-0.1,0.3-0.2,0.5-0.3c0.1-0.1,0.1-0.2,0.2-0.3c0-0.1,0.1-0.3,0.1-0.4
				c0-0.2,0.1-0.3,0.3-0.4c0,0,0,0,0-0.1c-0.1,0-0.3,0-0.4-0.1c0,0,0,0-0.1,0c-0.3,0.1-0.4-0.1-0.7-0.2c-0.1,0-0.2-0.1-0.4-0.1
				c-0.1,0-0.1,0-0.2,0c0-0.2,0-0.3,0-0.5c0-0.1,0-0.1,0.1-0.1c0,0,0.1,0,0.1,0c0.1,0,0.2,0,0.3-0.2c0,0,0-0.1,0.1-0.1
				c0.1-0.2,0.1-0.2,0.2-0.1c0.1-0.1,0.2-0.2,0.3-0.2c0.1-0.1,0.2-0.2,0.3-0.3c0.1-0.1,0.1-0.1,0.2,0c0,0,0,0,0,0
				c0.1,0,0.1,0.1,0.1,0.1c0,0.1-0.1,0.1-0.2,0c0,0,0,0-0.1,0c0,0,0,0,0,0.1c0,0,0,0,0,0.1c0,0,0,0,0,0c0.1,0,0.2,0,0.3,0.1
				c0.1,0.1,0.1,0.2,0.2,0.4c0,0,0,0,0,0.1c0,0,0,0.1,0,0.1c0,0-0.1,0-0.1,0c0,0-0.1-0.1-0.1-0.1c0-0.1-0.1-0.2-0.2-0.2
				c0,0-0.1-0.1-0.2-0.1c0,0.1,0,0.1,0,0.1c0,0,0.1,0.1,0.1,0.1c0,0,0,0.1,0,0.1c0,0-0.1,0-0.1,0c-0.1-0.1-0.3-0.1-0.4-0.2
				c-0.1,0.1-0.1,0.3,0,0.5c0,0.1,0.1,0.2,0.2,0.2c0.2,0,0.4,0.1,0.5,0.3c0,0,0,0,0.1,0c0.1-0.1,0-0.3,0.3-0.2c0,0,0,0.1,0,0.1
				c0.1,0,0.2,0,0.3-0.1c0.1-0.1,0.2-0.1,0.3-0.2c0.1-0.1,0.1-0.2,0-0.2c-0.1,0-0.1-0.1-0.2-0.1c-0.2,0-0.3-0.2-0.4-0.3
				c0,0-0.1-0.1,0-0.2c0-0.1,0.1-0.1,0.2-0.1c0.1,0,0.1,0.1,0,0.1c0,0,0,0,0,0.1c0.2,0,0.3,0.1,0.5,0c0,0,0.1-0.1,0.1-0.1
				c0-0.1,0.1-0.2,0.2-0.3c0-0.1,0.1-0.2,0.1-0.3c0,0-0.1,0-0.1-0.1c-0.1,0.1-0.1,0.2-0.3,0.1c-0.1,0-0.2-0.1-0.2-0.2
				c0-0.1,0-0.1-0.1-0.1l0,0c0-0.2-0.1-0.1,0.3-0.3c0.1,0.1,0.2,0.1,0.3,0.2c0.1,0,0.2,0,0.3,0c-0.1-0.2-0.1-0.3,0.2-0.3
				c-0.1,0-0.1-0.1-0.1-0.1c0-0.1,0-0.1,0-0.1c0.1-0.1,0-0.3,0-0.4c0,0,0,0-0.1-0.1c-0.1-0.1-0.1-0.1,0-0.3c0.1-0.1,0.1-0.1,0.2-0.2
				c0.1-0.1,0.2-0.2,0.2-0.3c0.1-0.2,0.1-0.2,0.3-0.1c0,0,0-0.1,0.1-0.1c-0.1,0-0.1-0.1-0.2-0.1c0-0.1,0.1-0.1,0.1-0.1
				c0.1-0.1,0.2,0,0.3,0c0.2-0.1,0.3-0.1,0.5-0.2c0.1-0.1,0.2-0.1,0.3-0.2c0.1-0.1,0.3-0.2,0.4-0.3c0.1-0.1,0.2-0.2,0.3-0.3
				c0.2-0.2,0.4-0.4,0.7-0.4c0.1,0,0.2-0.1,0.3-0.1c0.1,0,0.2-0.1,0.1-0.2c0-0.1,0-0.1,0.1-0.1c0.1,0,0.2-0.1,0.3-0.2
				c0.3-0.3,0.5-0.7,0.8-1c0,0,0.1-0.1,0.1-0.1c0.1-0.1,0.1-0.2,0.1-0.3c0-0.1,0-0.2,0.1-0.2c0,0,0.1,0,0.1-0.1
				c-0.1-0.1-0.1-0.2,0-0.3c0.1,0,0.1,0.1,0.1,0.1c0,0,0,0,0,0c0-0.1,0.1-0.2,0.2-0.3c0.1-0.1,0.3-0.2,0.4-0.3
				c0.1-0.1,0.2-0.2,0.2-0.4c0,0,0.1,0,0.1,0c0-0.2,0.1-0.3,0.2-0.4c0.1-0.1,0.2-0.1,0.2-0.2c0.1-0.1,0.1-0.1,0.1-0.2
				c0-0.1,0.1-0.2,0.2-0.3c0.1,0,0.1-0.1,0.2-0.1c0.2-0.2,0.3-0.4,0.5-0.6c0.1-0.2,0.3-0.3,0.2-0.6c0-0.1,0-0.1,0.1-0.2
				c0.1-0.1,0.2-0.2,0.4-0.2c0,0,0,0,0.1,0c0.1-0.2,0.3-0.2,0.5-0.3c0.1-0.1,0.2-0.1,0.3-0.2c0.1-0.1,0.1-0.1,0.2,0.1
				c0.2-0.2,0.4-0.4,0.6-0.6c0.1-0.1,0.1-0.2,0.1-0.2c0,0,0.1-0.1,0.1-0.1c0.2,0,0.3-0.1,0.5-0.2c0.1,0,0.2-0.1,0.2,0
				c0.1-0.1,0.2-0.2,0.3-0.3l0,0c0,0-0.1,0-0.1,0c-0.1-0.2,0-0.3,0.2-0.3c0,0,0,0.1,0.1,0.1c0.1-0.1,0.2-0.2,0.3-0.2
				c-0.1-0.2,0-0.3,0.2-0.3c0.1-0.1,0.1-0.2,0.1-0.4c0,0,0-0.1,0-0.1c0.1-0.1,0.1-0.2,0.2-0.3c0-0.1,0.1-0.2,0.1-0.3
				c0-0.1,0.1-0.2,0.1-0.3c0,0,0-0.1,0-0.1c0.2-0.2,0.2-0.5,0.2-0.7c0-0.2,0.1-0.3,0.1-0.5c0.2,0,0.4-0.1,0.6-0.3
				c0.1,0,0.2,0.1,0.2,0.2c0.1,0.1,0.2,0.3,0.2,0.4c0.1,0.1,0.1,0.2,0,0.3c-0.1,0.2-0.1,0.4-0.1,0.5c0,0.2,0,0.5,0,0.7
				c0,0,0,0.1,0,0.1c0,0.1-0.1,0.1-0.1,0.2c-0.1,0.2-0.1,0.4,0,0.6c0.2,0.2,0.2,0.4,0,0.6c-0.1,0.1-0.1,0.5,0,0.7
				c0,0.1,0.1,0.1,0.2,0.1c0.1,0,0.2,0.1,0.3,0.2c0,0,0,0.1,0.1,0.1c0,0.1,0.1,0.1,0.2,0.1c0,0,0.1,0,0.1,0c0.1,0,0.1,0,0.2,0.1
				c0.1,0.1,0.1,0.2,0.3,0.1c0.2,0,0.3,0.1,0.5,0.2c0,0,0.1,0.1,0.1,0.2c0,0.1,0,0.3,0.1,0.4c0.1,0.1,0.1,0.2,0.1,0.3
				c0,0.1,0,0.2,0,0.3c0,0.1,0,0.3,0,0.4c0,0.1,0,0.2,0,0.4c0,0.1,0,0.2-0.1,0.4c0,0,0,0,0,0c0.2,0.1,0.3,0.2,0.2,0.5
				c0,0.2-0.1,0.4-0.1,0.7c0,0.3,0,0.5,0,0.8c0,0.1,0,0.3,0,0.4c0,0.1,0,0.2,0,0.2c0,0,0,0.1,0,0.1c-0.1,0.2,0,0.3,0,0.5
				c0,0.1,0,0.2,0,0.3c0,0,0,0.1,0,0.1c0,0.1,0.1,0.2,0.1,0.3c0,0,0,0.1-0.1,0.1c0,0-0.1,0-0.2,0.1c-0.1,0-0.2,0.1-0.1,0.2
				c0,0.1,0,0.1,0.1,0.2c0.1,0.2-0.1,0.4-0.3,0.4c-0.1,0-0.2,0.1-0.2,0.2c-0.1,0.2-0.2,0.3-0.4,0.3c-0.1,0.1-0.2,0.1-0.3,0.1
				c-0.2,0-0.3,0.1-0.3,0.3c0,0.1,0,0.2-0.1,0.3c-0.1,0.1-0.2,0.1-0.2,0.2c-0.1,0.1-0.2,0.2-0.3,0.2c0,0-0.1,0-0.1,0
				c-0.2,0-0.3,0-0.4-0.2c-0.1-0.2-0.3-0.5-0.4-0.8c-0.1-0.1-0.1-0.2-0.2-0.4c-0.1-0.2-0.1-0.2,0-0.3c0.1-0.1,0.2-0.1,0.4,0
				c0,0,0.1,0,0.1,0.1c-0.1-0.3-0.1-0.5-0.2-0.8c0,0-0.1-0.1-0.1-0.1c-0.1-0.1-0.3-0.1-0.4-0.1c-0.1,0-0.2,0-0.2,0
				c-0.2,0-0.3,0.1-0.5,0.2c-0.2,0.2-0.4,0.4-0.6,0.6c-0.1,0.1-0.1,0.2-0.1,0.3c0,0.3,0.1,0.5,0.1,0.8c0,0.2,0.1,0.3,0.1,0.5
				c0,0.2,0,0.4,0.1,0.6c0.1,0.1,0.1,0.3-0.1,0.4c-0.1,0.1-0.1,0.2-0.1,0.3c0,0.1,0,0.2-0.1,0.3c-0.2,0.1-0.2,0.3-0.1,0.4
				c0.1,0.2,0.1,0.4,0.1,0.6c0,0,0,0.1,0,0.1c0,0.2,0,0.3,0.2,0.5c0.1,0.1,0.2,0.2,0.2,0.4c0,0.3,0,0.5-0.1,0.7
				c-0.1,0.1-0.1,0.2-0.2,0.4c0,0.1-0.1,0.1-0.1,0.2c-0.1,0.2,0,0.3,0.2,0.3c0.1,0,0.2,0,0.3,0.1c0.1,0.1,0.2,0.1,0.3,0
				c0.1-0.1,0.2-0.1,0.3-0.2c0.2-0.1,0.4,0,0.5,0.2c0.1,0.2,0.2,0.4,0.2,0.7c0,0.1,0.1,0.2,0.2,0.4c0,0.1,0.1,0.1,0.1,0.2
				c0.2,0.3,0.1,0.4-0.2,0.5c-0.2,0-0.4,0.1-0.6,0.2c-0.3,0.1-0.6,0.2-0.8,0.3c0,0-0.1,0-0.1,0c-0.1,0.1-0.2,0.1-0.3,0
				c0,0,0,0-0.1,0c-0.1-0.1-0.3-0.1-0.4,0c-0.1,0.1-0.2,0.1-0.4,0c-0.2-0.1-0.4-0.1-0.6-0.1c-0.3,0.1-0.4,0.2-0.6,0.4
				c-0.2,0.2-0.4,0.2-0.6,0.3c-0.1,0-0.1,0-0.2,0c-0.1,0.2-0.1,0.2,0.1,0.3c0.1,0.1,0.3,0.2,0.4,0.2c0.2,0.1,0.3,0.3,0.2,0.5
				c0,0.1,0,0.2,0,0.3c0,0.2,0,0.3,0,0.5c0,0.2,0,0.3-0.2,0.5c-0.1,0.1-0.1,0.1-0.2,0.2c-0.2,0.2-0.3,0.5-0.4,0.8
				c0,0.3-0.1,0.5-0.1,0.8c0,0,0,0.1-0.1,0.1c-0.2,0.2-0.3,0.4-0.5,0.6c-0.1,0.1-0.2,0.3-0.2,0.4c0,0.2-0.1,0.5-0.1,0.7
				c-0.1,0.4-0.2,0.7-0.3,1c-0.1,0.2-0.2,0.4-0.3,0.6c-0.2,0.4-0.4,0.8-0.6,1.1c0,0.1-0.1,0.1-0.1,0.2c0,0.3-0.1,0.6-0.2,0.9
				c0,0.1,0,0.1,0,0.2c0,0.3,0,0.6,0,0.9c0,0.2,0.1,0.5,0.1,0.7c0,0.2,0,0.5,0,0.7c0,0.1,0,0.2,0,0.3c0,0.2-0.1,0.4-0.3,0.6
				c-0.6,0.6-1.1,1.2-1.7,1.8c-0.1,0.1-0.1,0.1-0.3,0.1c-0.2-0.1-0.5-0.1-0.7-0.1c-0.2,0-0.4-0.1-0.7-0.1c-0.2,0-0.3-0.1-0.5-0.1
				c-0.2,0-0.4-0.1-0.7-0.1c-0.2,0-0.3-0.1-0.5-0.1c-0.4-0.1-0.8-0.1-1.2-0.2c-0.2,0-0.4-0.1-0.6-0.1c-0.2,0-0.3-0.1-0.5-0.1
				c-0.2,0-0.4-0.1-0.6-0.1c-0.2,0-0.4-0.1-0.7-0.1c-0.2,0-0.3-0.1-0.5-0.1c-0.2,0-0.4-0.1-0.6-0.1c-0.2,0-0.5-0.1-0.7-0.1
				c-0.2,0-0.3-0.1-0.5-0.1c-0.4-0.1-0.8-0.1-1.2-0.2c-0.2,0-0.4-0.1-0.6-0.1c-0.2,0-0.5-0.1-0.7-0.1c-0.2,0-0.4-0.1-0.5-0.1
				c-0.1,0-0.3,0-0.4-0.1c-0.2,0-0.4-0.1-0.6-0.1c-0.2,0-0.4-0.1-0.6-0.1c-0.2,0-0.4-0.1-0.6-0.1c-0.4-0.1-0.7-0.2-1.1-0.2
				c-0.4-0.1-0.8-0.1-1.1-0.2c-0.2,0-0.4-0.1-0.6-0.1c-0.2,0-0.4-0.1-0.6-0.1c-0.2,0-0.4-0.1-0.5-0.1c-0.1,0-0.3,0-0.4-0.1
				c-0.4-0.1-0.8-0.2-1.1-0.2c-0.2,0-0.5-0.1-0.7-0.1c-0.2,0-0.4-0.1-0.6-0.1c-0.2,0-0.5-0.1-0.7-0.1c-0.2,0-0.4-0.1-0.6-0.1
				c-0.1,0-0.2,0-0.2,0c-0.2,0-0.3-0.1-0.4-0.2c-0.3-0.4-0.7-0.8-1-1.3c-1-1.3-2.1-2.7-3.1-4c-0.8-1-1.5-2-2.3-2.9
				c-1-1.3-2-2.6-3-3.8c-0.1-0.1-0.1-0.1-0.1-0.2c0-0.3,0-0.6,0.1-0.9c0-0.2,0-0.3-0.1-0.4c0,0,0-0.1,0-0.1c0,0,0.1-0.1,0.1-0.1
				c0.1-0.1,0.2-0.3,0.1-0.5c-0.1-0.1-0.1-0.2,0-0.3c0-0.1,0-0.2-0.1-0.3c0,0,0,0,0-0.1c0-0.1,0.1-0.1,0.1-0.2
				c0.1-0.1,0.1-0.1,0.2,0c0.1,0.2,0.3,0.4,0.4,0.6c0.2,0,0.2,0,0.2,0.1c0,0,0,0.1,0.1,0.1c0,0.1,0,0.1,0.1,0.2c0,0,0,0.1,0,0.1
				c0.1,0.1,0.2,0.3,0.2,0.5c0,0,0,0.1,0.1,0.1c0-0.1,0-0.1,0-0.1c-0.1-0.2,0-0.3,0.1-0.4c0.1-0.1,0.1-0.1,0.1-0.2
				c0.1-0.1,0.1-0.1,0.2-0.1c0.1,0.1,0.2,0.2,0.3,0.2c0,0,0,0,0,0c0,0.2,0,0.4,0,0.5c0,0.1,0,0.1,0,0.2c-0.1,0.1-0.1,0.3-0.1,0.4
				c0,0.1,0,0.2,0.1,0.4c0,0.1,0.1,0.3,0.1,0.4c0,0.1,0,0.1,0,0.2c-0.1,0.2,0,0.4,0.2,0.6c0.2,0.2,0.5,0.2,0.7,0.2
				c0.1,0,0.1,0,0.2,0c0.1-0.2,0.2-0.2,0.4-0.1c0.2,0.1,0.3,0.1,0.5,0c0.1,0,0.1,0,0.2,0c0.1,0.1,0.2,0.2,0.3,0.2
				c0.1,0,0.1,0.1,0.2,0.1c0,0,0-0.1,0-0.1c0-0.1,0.1-0.1,0.2-0.1c0.3,0.2,0.5,0.1,0.8,0.1c0.2,0,0.3,0,0.5,0c0.2,0,0.4-0.1,0.6-0.2
				c0.3-0.1,0.5-0.2,0.7-0.3c0.2-0.1,0.3-0.2,0.5-0.2c0.1,0,0.3-0.1,0.4-0.2c0.1-0.1,0.1-0.1,0-0.2c-0.1,0-0.1-0.1-0.1-0.1
				c0,0-0.1-0.1,0-0.1c0.1-0.1,0.1-0.1,0.2-0.1c0,0,0.1,0.1,0.1,0.1c0,0,0,0.1,0,0.1c0.4,0,0.7-0.2,1-0.4c0-0.2,0-0.3,0.1-0.4
				c0-0.1,0.2-0.2,0.3-0.2c0.1-0.1,0.1,0,0.2,0c0.1,0.1,0.2,0.1,0.2,0.2c0,0,0,0,0,0c0.1,0,0.1,0.1,0.2,0.1c0,0,0.1,0.1,0.1,0.2
				c0.3-0.1,0.5,0,0.7,0.1c0.1,0,0.2,0.1,0.2,0c0,0,0,0,0.1,0c0.2-0.1,0.3-0.1,0.5,0c0.1,0.1,0.1,0,0.2,0c0.1,0,0.1-0.1,0.2-0.1
				c0.1,0,0.1,0,0.2,0c0.1,0.1,0.2,0.1,0.3,0c0.1-0.1,0.2-0.1,0.3-0.2c0,0,0.1,0,0.2,0c0.1,0,0.1-0.1,0.2-0.1c0.1,0,0.1,0,0.1,0.1
				c0,0,0,0.1-0.1,0.1c0,0-0.1,0-0.1,0c0,0-0.1,0-0.1,0c0.1,0.2,0.2,0.2,0.4,0.2c0.2-0.1,0.5-0.1,0.7-0.2c0,0,0-0.1,0-0.1
				c0-0.2,0.2-0.2,0.4-0.2c0.1,0,0.3,0.1,0.4,0.2c0.1,0.1,0.2,0.2,0.3,0.3c0.1,0.1,0.1,0.1,0.1,0.2c0,0,0.1,0.1,0.1,0.1
				c0.1,0,0.2,0.1,0.4,0.1c0.1,0.1,0.2,0,0.2-0.1c0-0.1,0.1-0.2,0.2-0.1c0.1,0.1,0.2,0.1,0.3,0c0.1,0,0.2,0,0.2,0
				c0.1,0,0.3,0,0.4-0.1c0.1-0.1,0.2-0.1,0.2,0c0.2,0.2,0.4,0.3,0.6,0.3c0.2,0,0.3,0.1,0.4,0.3c0.1,0.1,0.2,0.2,0.4,0.2
				c0.1,0,0.2,0,0.3,0c0.2,0,0.3,0,0.5-0.1c0.1-0.1,0.2-0.1,0.4,0c0,0,0.1,0,0.1,0c0.2,0,0.4,0,0.7,0c0,0,0.1,0,0.1,0
				c0.1-0.1,0.2,0,0.3,0c0.1,0,0.3,0,0.4-0.1c0.1,0,0.2-0.1,0.3-0.1c0,0,0.1,0,0.1,0c0.3-0.2,0.7-0.2,1-0.4c0.2-0.1,0.3-0.1,0.5-0.2
				c0.2-0.1,0.4-0.2,0.6-0.3c0-0.2,0.2-0.3,0.3-0.4c-0.1-0.1-0.1-0.2-0.3-0.2c-0.1,0-0.1-0.1-0.2-0.2c-0.1-0.1-0.1-0.1-0.3-0.1
				c0.1,0,0.1,0.1,0.2,0.1c0,0,0.1,0.1,0.1,0.1c-0.1,0.1-0.2,0-0.3,0c0,0.1,0.1,0.1,0.1,0.2c0.1,0.1,0.1,0.1,0.1,0.2
				c0,0-0.1,0.1-0.1,0.1c-0.1,0-0.2,0.1-0.3,0.1c-0.1,0.1-0.2,0.1-0.3,0.3c0,0,0,0-0.1,0c0,0-0.1,0-0.1,0c0,0-0.1-0.1-0.1-0.1
				c0,0,0.1-0.1,0.1-0.1c0,0-0.1,0-0.2-0.1c-0.1,0-0.1-0.1-0.1-0.2c0-0.1,0.1-0.1,0.2-0.2c0.1,0,0.1,0,0.2,0c0.1,0,0.2-0.1,0.2-0.2
				c0,0,0,0,0-0.1c0.2,0,0.3-0.1,0.4-0.3c-0.1-0.1-0.1-0.2-0.2-0.3c0.2-0.2,0.4-0.3,0.6-0.5c0,0,0.1,0,0.1,0.1
				c0.2-0.1,0.3-0.2,0.5-0.3c-0.1-0.1-0.2-0.1-0.3-0.1c0,0-0.1-0.1-0.1-0.1c0,0,0.1-0.1,0.1-0.1c0.2,0,0.3-0.1,0.4-0.2
				c0,0,0.1-0.1,0.1-0.1c0.1,0,0.2,0,0.2,0.1c0,0.1,0,0.1-0.1,0.2c0,0,0,0,0,0.1c0,0,0,0.1,0,0.1c0,0,0,0,0.1,0.1
				C204.2,37.9,204.3,37.9,204.4,37.9C204.3,37.9,204.4,37.9,204.4,37.9 M179.4,38.6c-0.1,0.3,0,0.6,0,0.9c0.1-0.1,0.2-0.3,0.1-0.4
				c0,0,0-0.1,0-0.1C179.6,38.8,179.5,38.7,179.4,38.6 M200.1,39.1c0,0-0.1,0.1-0.1,0.1c-0.1,0-0.1,0.1-0.2,0.1
				c-0.1,0-0.2,0.2-0.4,0.1c-0.1-0.1-0.2,0-0.3,0c-0.2,0.2-0.4,0.3-0.7,0.4c-0.1,0-0.2,0.1-0.3,0.2c-0.1,0.1-0.1,0.1,0,0.2
				c0.1,0.1,0.2,0.2,0.4,0.1c0.1,0,0.1,0,0.2-0.1c0.1,0.1,0.2,0.1,0.2,0.2c0.1,0.1,0.2,0.1,0.3,0.1c0.2,0,0.4,0.1,0.6,0
				c0.2,0,0.2-0.1,0.2-0.2c0-0.1,0-0.2,0-0.3l0,0c0,0.2,0,0.3,0.2,0.3c0.1,0,0.2,0.1,0.4,0.1c0.1,0.1,0.2,0,0.4,0
				c0.1,0,0.2-0.1,0.3-0.2c0.1-0.1,0.1-0.2,0.1-0.4c0,0,0,0,0-0.1c-0.2-0.2-0.3-0.4-0.6-0.4c-0.2,0-0.4-0.1-0.4-0.3
				c0.1,0,0.1-0.1,0.2-0.1c-0.1-0.1-0.1-0.1-0.3-0.2C200.2,39,200.1,39,200.1,39.1 M204.6,38.3c-0.1,0-0.1,0-0.2,0
				c0,0.1,0,0.2,0.1,0.2c0.1,0,0.1,0,0.2,0c0.1-0.1,0.2-0.2,0.3-0.4c-0.2-0.2-0.3-0.4-0.6-0.5c-0.2,0.1-0.2,0.1-0.1,0.3
				c0,0,0,0,0.1,0.1C204.5,38,204.6,38.1,204.6,38.3 M206.9,35.5C206.9,35.4,206.9,35.4,206.9,35.5c-0.1-0.3-0.1-0.3-0.3-0.2
				c-0.1,0.1-0.2,0.1-0.3,0.1c-0.1,0-0.1,0-0.1,0.1c0,0.1,0,0.1,0.1,0.1c0.1,0,0.3,0,0.4,0C206.9,35.6,206.9,35.6,206.9,35.5
				L206.9,35.5z M206.4,35.8c0,0,0,0.1,0,0.1c0.1,0.1,0.2,0.2,0.3,0.1c0,0,0.1,0,0.1,0c0.1,0,0.1,0,0.1-0.1c0-0.1,0-0.1-0.1-0.2
				c-0.1,0-0.3-0.1-0.4-0.1C206.5,35.8,206.5,35.8,206.4,35.8 M206.7,37.2c0,0,0.1,0,0.1-0.1c0-0.1,0-0.1-0.1-0.1c0,0-0.1,0-0.1-0.1
				c-0.1,0-0.2,0-0.3,0c0,0-0.1,0-0.1,0.1C206.4,37.1,206.5,37.1,206.7,37.2 M207.3,34.8c-0.1,0.1-0.2,0.1-0.3,0.2
				c0,0-0.1,0.1-0.1,0.1c0,0,0,0.1,0,0.1c0,0,0.1,0,0.1,0c0,0,0,0,0.1,0c0.1-0.1,0.2-0.1,0.3-0.2c0,0,0.1-0.1,0.1-0.1
				C207.4,34.7,207.3,34.7,207.3,34.8 M205.2,37.5c-0.1-0.1-0.2-0.1-0.4-0.1c0,0-0.1,0-0.1,0.1c0,0,0,0.1,0.1,0.1
				c0.1,0.1,0.3,0.1,0.4,0.1c0,0,0.1,0,0.1-0.1C205.3,37.6,205.2,37.5,205.2,37.5 M206.1,36.9c-0.1,0-0.2,0.1-0.2,0.2
				c0,0.1,0.1,0.1,0.1,0.1C206.1,37.2,206.2,37.1,206.1,36.9C206.1,37,206.1,36.9,206.1,36.9 M179.4,39.5c0.1-0.1,0.2-0.3,0.1-0.4
				c0,0,0-0.1,0-0.1c0.1-0.2-0.1-0.3-0.1-0.4C179.4,38.9,179.4,39.2,179.4,39.5"/>
			<g>
				<g>
					<g>
						<path class="st4" d="M195.4,69.3c0,0,0.5,0.7,0,1.2c-0.3,0.2-1,0.4-0.9,0.9c0.1,0.5,1,1.1,2,1c1-0.1,2-1.4,2-2.5
							c0-1.1-0.7-1.9-1.7-2.8L195.4,69.3z"/>
						<path class="st4" d="M196.4,67.7c0,0,0.8,0.7,1.1,1.2c0.3,0.5,0.5,1.2,0.5,1.7c0,0.5-0.2,1.1-0.7,1.5
							c-0.5,0.4-1.3,0.4-1.9,0.2c-0.6-0.2-1-0.8-0.8-1c0.3-0.2,0.5-0.2,0.8-0.3c0.3-0.1,0.5-0.2,0.7-0.5c0.1-0.3,0.3-0.8-0.6-1.5
							L196.4,67.7z"/>
						<path class="st3" d="M196.6,71.8c0.3,0,0.5-0.2,0.5-0.5c0-0.3-0.2-0.5-0.5-0.5c-0.3,0-0.5,0.2-0.5,0.5
							C196.1,71.6,196.3,71.8,196.6,71.8z"/>
						<g>
							<defs>
								<path id="SVGID_1_" d="M196.5,67.9c0,0,0.7,0.6,1,1.1c0.3,0.5,0.5,1.2,0.5,1.7c0,0.5-0.2,1.1-0.7,1.5
									c-0.5,0.4-1.3,0.4-1.9,0.2c-0.6-0.2-1-0.8-0.8-1c0.3-0.2,0.5-0.2,0.8-0.3c0.3-0.1,0.5-0.2,0.7-0.5c0.1-0.3,0.2-0.8-0.4-1.3
									L196.5,67.9z"/>
							</defs>
							<clipPath id="SVGID_00000176035044057479304200000002517315209232475809_">
								<use xlink:href="#SVGID_1_"  style="overflow:visible;"/>
							</clipPath>
							<polyline style="clip-path:url(#SVGID_00000176035044057479304200000002517315209232475809_);fill:#E1E1E1;" points="
								196.1,68.3 198.2,71 198.1,71 196,68.3 							"/>
							<polyline style="clip-path:url(#SVGID_00000176035044057479304200000002517315209232475809_);fill:#E1E1E1;" points="
								195.9,68.4 198,71.1 197.9,71.2 195.8,68.5 							"/>
							<polyline style="clip-path:url(#SVGID_00000176035044057479304200000002517315209232475809_);fill:#E1E1E1;" points="
								195.8,68.6 197.8,71.3 197.8,71.4 195.7,68.7 							"/>
							<polyline style="clip-path:url(#SVGID_00000176035044057479304200000002517315209232475809_);fill:#E1E1E1;" points="
								195.7,68.9 197.8,71.6 197.7,71.6 195.6,68.9 							"/>
							<polyline style="clip-path:url(#SVGID_00000176035044057479304200000002517315209232475809_);fill:#E1E1E1;" points="
								195.6,69.2 197.7,71.9 197.6,71.9 195.5,69.3 							"/>
							<polyline style="clip-path:url(#SVGID_00000176035044057479304200000002517315209232475809_);fill:#E1E1E1;" points="
								195.4,69.4 197.5,72.1 197.5,72.1 195.4,69.4 							"/>
							<polyline style="clip-path:url(#SVGID_00000176035044057479304200000002517315209232475809_);fill:#E1E1E1;" points="
								195.3,69.6 197.4,72.3 197.3,72.3 195.2,69.6 							"/>
							<polyline style="clip-path:url(#SVGID_00000176035044057479304200000002517315209232475809_);fill:#E1E1E1;" points="
								195.2,69.7 197.2,72.4 197.2,72.5 195.1,69.8 							"/>
							<polyline style="clip-path:url(#SVGID_00000176035044057479304200000002517315209232475809_);fill:#E1E1E1;" points="
								195,69.9 197.1,72.6 197,72.7 194.9,70 							"/>
							<polyline style="clip-path:url(#SVGID_00000176035044057479304200000002517315209232475809_);fill:#E1E1E1;" points="
								194.9,70.1 196.9,72.8 196.9,72.8 194.8,70.1 							"/>
						</g>
						<g>
							<path class="st1" d="M196.6,70.9c0.2,0,0.4,0.2,0.4,0.5c0,0.2-0.2,0.4-0.5,0.4c-0.2,0-0.4-0.2-0.4-0.5
								C196.2,71.1,196.4,70.9,196.6,70.9 M196,71.3c0,0.3,0.2,0.5,0.5,0.6c0.3,0,0.5-0.2,0.6-0.5c0-0.3-0.2-0.5-0.5-0.6
								C196.3,70.8,196.1,71,196,71.3z"/>
							<g>
								<defs>
									<path id="SVGID_00000157307250050872541210000007306861914071922350_" d="M196.1,71.3c0,0.2,0.2,0.4,0.4,0.5
										c0.2,0,0.4-0.2,0.5-0.4c0-0.2-0.2-0.4-0.4-0.5C196.4,70.9,196.2,71.1,196.1,71.3z"/>
								</defs>
								<clipPath id="SVGID_00000071550459116388920800000010874509470889488571_">
									<use xlink:href="#SVGID_00000157307250050872541210000007306861914071922350_"  style="overflow:visible;"/>
								</clipPath>
								<path style="clip-path:url(#SVGID_00000071550459116388920800000010874509470889488571_);fill:#FFFFFF;" d="M196.1,71.3
									c0,0.3,0.2,0.5,0.5,0.5c0.3,0,0.5-0.2,0.5-0.5c0-0.3-0.2-0.5-0.5-0.5C196.3,70.8,196.1,71,196.1,71.3z"/>
								<path style="clip-path:url(#SVGID_00000071550459116388920800000010874509470889488571_);fill:#E1E1E1;" d="M196.1,71.2
									L196.1,71.2c0,0.2,0.2,0.3,0.4,0.3c0.2,0,0.3-0.1,0.3-0.3c0-0.2-0.1-0.3-0.3-0.3C196.3,70.8,196.1,71,196.1,71.2L196.1,71.2
									L196.1,71.2c0-0.2,0.2-0.4,0.4-0.4c0.2,0,0.4,0.2,0.4,0.4c0,0.2-0.2,0.4-0.4,0.4C196.2,71.6,196,71.4,196.1,71.2L196.1,71.2
									z"/>
							</g>
						</g>
					</g>
					<g>
						<path class="st4" d="M191.8,65.4l0,0.3l3.3,3.7l0.4,0.2l1.4-2.2l-0.1-0.4l-3.4-3.7l-0.2-0.1C193.2,63.1,192.8,64.5,191.8,65.4
							z"/>
						<g>
							<g>
								<defs>
									<path id="SVGID_00000087383590688389247640000002660293191868393401_" d="M191.8,65.4l0,0.3l3.3,3.7l0.4,0.2l1.4-2.2
										l-0.1-0.4l-3.4-3.7l-0.2-0.1C193.2,63.1,193.2,64.4,191.8,65.4z"/>
								</defs>
								<clipPath id="SVGID_00000164473537444971827200000012437998331024425635_">
									<use xlink:href="#SVGID_00000087383590688389247640000002660293191868393401_"  style="overflow:visible;"/>
								</clipPath>
								<path style="clip-path:url(#SVGID_00000164473537444971827200000012437998331024425635_);fill:#E1E1E1;" d="M193.4,63.2
									c0,0,1.1,2.9,1.5,6.1l-0.1,0c-0.2-1.6-0.5-3.1-0.8-4.3c-0.2-0.6-0.3-1-0.4-1.3c-0.1-0.2-0.1-0.3-0.1-0.4
									C193.3,63.3,193.3,63.2,193.4,63.2L193.4,63.2L193.4,63.2z"/>
								<path style="clip-path:url(#SVGID_00000164473537444971827200000012437998331024425635_);fill:#E1E1E1;" d="M193,62.7
									c0,0,1.1,2.9,1.5,6.1l-0.1,0c-0.2-1.6-0.5-3.1-0.8-4.3c-0.2-0.6-0.3-1-0.4-1.3c-0.1-0.2-0.1-0.3-0.1-0.4
									C192.9,62.8,192.9,62.8,193,62.7L193,62.7z"/>
								<path style="clip-path:url(#SVGID_00000164473537444971827200000012437998331024425635_);fill:#E1E1E1;" d="M192.7,62.4
									c0,0,1.1,2.9,1.5,6.1l-0.1,0c-0.2-1.6-0.5-3.1-0.8-4.3c-0.2-0.6-0.3-1-0.4-1.3c-0.1-0.2-0.1-0.3-0.1-0.4
									C192.6,62.5,192.6,62.5,192.7,62.4L192.7,62.4L192.7,62.4z"/>
								<path style="clip-path:url(#SVGID_00000164473537444971827200000012437998331024425635_);fill:#E1E1E1;" d="M192.4,62.1
									c0,0,1.1,2.9,1.5,6.1l-0.1,0c-0.2-1.6-0.5-3.1-0.8-4.3c-0.2-0.6-0.3-1-0.4-1.3c-0.1-0.2-0.1-0.3-0.1-0.4
									C192.3,62.2,192.3,62.1,192.4,62.1L192.4,62.1L192.4,62.1z"/>
								<path style="clip-path:url(#SVGID_00000164473537444971827200000012437998331024425635_);fill:#E1E1E1;" d="M192.1,61.8
									c0,0,1.1,2.9,1.5,6.1l-0.1,0c-0.2-1.6-0.5-3.1-0.8-4.3c-0.2-0.6-0.3-1-0.4-1.3c-0.1-0.2-0.1-0.3-0.1-0.4
									C192.1,61.8,192,61.8,192.1,61.8L192.1,61.8L192.1,61.8z"/>
								<path style="clip-path:url(#SVGID_00000164473537444971827200000012437998331024425635_);fill:#E1E1E1;" d="M191.8,61.4
									c0,0,1.1,2.9,1.5,6.1l-0.1,0c-0.2-1.6-0.5-3.1-0.8-4.3c-0.2-0.6-0.3-1-0.4-1.3c-0.1-0.2-0.1-0.3-0.1-0.4
									C191.7,61.5,191.7,61.4,191.8,61.4L191.8,61.4L191.8,61.4z"/>
								<path style="clip-path:url(#SVGID_00000164473537444971827200000012437998331024425635_);fill:#E1E1E1;" d="M191.5,61.1
									c0,0,1.1,2.9,1.5,6.1l-0.1,0c-0.2-1.6-0.5-3.1-0.8-4.3c-0.2-0.6-0.3-1-0.4-1.3c-0.1-0.2-0.1-0.3-0.1-0.4
									C191.4,61.2,191.4,61.2,191.5,61.1L191.5,61.1z"/>
								<path style="clip-path:url(#SVGID_00000164473537444971827200000012437998331024425635_);fill:#E1E1E1;" d="M191.1,60.8
									c0,0,1.1,2.9,1.5,6.1l-0.1,0c-0.2-1.6-0.5-3.1-0.8-4.3c-0.2-0.6-0.3-1-0.4-1.3c-0.1-0.2-0.1-0.3-0.1-0.4
									C191.1,60.9,191.1,60.8,191.1,60.8L191.1,60.8L191.1,60.8z"/>
								<path style="clip-path:url(#SVGID_00000164473537444971827200000012437998331024425635_);fill:#E1E1E1;" d="M190.8,60.5
									c0,0,1.1,2.9,1.5,6.1l-0.1,0c-0.2-1.6-0.5-3.1-0.8-4.3c-0.2-0.6-0.3-1-0.4-1.3c-0.1-0.2-0.1-0.3-0.1-0.4
									C190.7,60.6,190.7,60.6,190.8,60.5L190.8,60.5L190.8,60.5z"/>
								<path style="clip-path:url(#SVGID_00000164473537444971827200000012437998331024425635_);fill:#E1E1E1;" d="M193.6,63.3
									c0,0,1.1,2.9,1.5,6.1l-0.1,0c-0.2-1.6-0.5-3.1-0.8-4.3c-0.2-0.6-0.3-1-0.4-1.3c-0.1-0.2-0.1-0.3-0.1-0.4
									C193.6,63.4,193.6,63.3,193.6,63.3L193.6,63.3z"/>
								<path style="clip-path:url(#SVGID_00000164473537444971827200000012437998331024425635_);fill:#E1E1E1;" d="M193.9,63.3
									c0,0,1.1,2.9,1.5,6.1l-0.1,0c-0.2-1.6-0.5-3.1-0.8-4.3c-0.2-0.6-0.3-1-0.4-1.3c-0.1-0.2-0.1-0.3-0.1-0.4
									C193.8,63.4,193.8,63.4,193.9,63.3L193.9,63.3L193.9,63.3z"/>
								<path style="clip-path:url(#SVGID_00000164473537444971827200000012437998331024425635_);fill:#E1E1E1;" d="M194.1,63.4
									c0,0,1.1,2.9,1.5,6.1l-0.1,0c-0.2-1.6-0.5-3.1-0.8-4.3c-0.2-0.6-0.3-1-0.4-1.3c-0.1-0.2-0.1-0.3-0.1-0.4
									C194.1,63.5,194,63.4,194.1,63.4L194.1,63.4z"/>
								<path style="clip-path:url(#SVGID_00000164473537444971827200000012437998331024425635_);fill:#E1E1E1;" d="M194.3,63.1
									c0,0,1.1,2.9,1.5,6.1l-0.1,0c-0.2-1.6-0.5-3.1-0.8-4.3c-0.2-0.6-0.3-1-0.4-1.3c-0.1-0.2-0.1-0.3-0.1-0.4
									C194.3,63.2,194.2,63.1,194.3,63.1L194.3,63.1L194.3,63.1z"/>
								<path style="clip-path:url(#SVGID_00000164473537444971827200000012437998331024425635_);fill:#E1E1E1;" d="M194.5,62.9
									c0,0,1.1,2.9,1.5,6.1l-0.1,0c-0.2-1.6-0.5-3.1-0.8-4.3c-0.2-0.6-0.3-1-0.4-1.3c-0.1-0.2-0.1-0.3-0.1-0.4
									C194.5,63,194.4,62.9,194.5,62.9L194.5,62.9L194.5,62.9z"/>
								<path style="clip-path:url(#SVGID_00000164473537444971827200000012437998331024425635_);fill:#E1E1E1;" d="M194.7,62.7
									c0,0,1.1,2.9,1.5,6.1l-0.1,0c-0.2-1.6-0.5-3.1-0.8-4.3c-0.2-0.6-0.3-1-0.4-1.3c-0.1-0.2-0.1-0.3-0.1-0.4
									C194.6,62.8,194.6,62.8,194.7,62.7L194.7,62.7L194.7,62.7z"/>
								<path style="clip-path:url(#SVGID_00000164473537444971827200000012437998331024425635_);fill:#E1E1E1;" d="M194.9,62.6
									c0,0,1.1,2.9,1.5,6.1l-0.1,0c-0.2-1.6-0.5-3.1-0.8-4.3c-0.2-0.6-0.3-1-0.4-1.3c-0.1-0.2-0.1-0.3-0.1-0.4
									C194.8,62.7,194.8,62.7,194.9,62.6L194.9,62.6L194.9,62.6z"/>
								<path style="clip-path:url(#SVGID_00000164473537444971827200000012437998331024425635_);fill:#E1E1E1;" d="M195,62.5
									c0,0,1.1,2.9,1.5,6.1l-0.1,0c-0.2-1.6-0.5-3.1-0.8-4.3c-0.2-0.6-0.3-1-0.4-1.3c-0.1-0.2-0.1-0.3-0.1-0.4
									C195,62.6,194.9,62.5,195,62.5L195,62.5L195,62.5z"/>
								<path style="clip-path:url(#SVGID_00000164473537444971827200000012437998331024425635_);fill:#E1E1E1;" d="M195.2,62.3
									c0,0,1.1,2.9,1.5,6.1l-0.1,0c-0.2-1.6-0.5-3.1-0.8-4.3c-0.2-0.6-0.3-1-0.4-1.3c-0.1-0.2-0.1-0.3-0.1-0.4
									C195.1,62.4,195.1,62.4,195.2,62.3L195.2,62.3z"/>
								<path style="clip-path:url(#SVGID_00000164473537444971827200000012437998331024425635_);fill:#E1E1E1;" d="M195.3,62.2
									c0,0,1.1,2.9,1.5,6.1l-0.1,0c-0.2-1.6-0.5-3.1-0.8-4.3c-0.2-0.6-0.3-1-0.4-1.3c-0.1-0.2-0.1-0.3-0.1-0.4
									C195.3,62.2,195.3,62.2,195.3,62.2L195.3,62.2L195.3,62.2z"/>
								<path style="clip-path:url(#SVGID_00000164473537444971827200000012437998331024425635_);fill:#E1E1E1;" d="M195.4,62.1
									c1.1,2.9,1.2,2.9,1.5,6.1l-0.1,0C196.5,65,196.5,65,195.4,62.1L195.4,62.1L195.4,62.1z"/>
							</g>
						</g>
					</g>
					<g>
						<path class="st3" d="M190.2,64c0,0-17.4-15.7-17.3-39.4c0-1.9,0.3-4.5,1.3-5.1c0,0,0.5,8.7,1.3,12.7
							c3.6,18.4,16.3,29.7,16.3,29.7l-0.6,1L190.2,64z"/>
						<path class="st1" d="M190.2,64L190.2,64c0,0-17.4-15.7-17.3-39.4c0-0.2,0-0.4,0-0.7c0-0.9,0.1-1.9,0.3-2.7
							c0.1-0.4,0.2-0.8,0.4-1.1c0.2-0.3,0.4-0.5,0.6-0.7l0.1,0l0,0.1c0,0,0,0.1,0,0.4c0.1,1.7,0.6,8.8,1.3,12.4
							c1.8,9.2,5.9,16.6,9.5,21.7c1.8,2.6,3.5,4.5,4.7,5.9c0.6,0.7,1.1,1.2,1.5,1.5c0.2,0.2,0.3,0.3,0.4,0.4
							c0.1,0.1,0.1,0.1,0.1,0.1l0,0l-0.6,1L190.2,64L190.2,64L190.2,64L190.2,64l1.1-1.1l0.6-1l0.1,0l0,0c0,0-12.7-11.3-16.3-29.7
							c-0.8-4.1-1.3-12.8-1.3-12.8l0.1,0l0,0.1c-0.2,0.1-0.4,0.3-0.5,0.6c-0.5,0.9-0.7,2.4-0.7,3.7c0,0.2,0,0.4,0,0.7
							c0,11.8,4.3,21.7,8.6,28.6c2.2,3.4,4.3,6.1,6,8c0.8,0.9,1.5,1.6,2,2.1c0.2,0.2,0.4,0.4,0.5,0.5
							C190.2,63.9,190.2,63.9,190.2,64L190.2,64L190.2,64L190.2,64z"/>
					</g>
					<g>
						<path class="st4" d="M190.2,64c0,0-17.4-15.7-17.3-39.4c0-1.9,0.3-4.5,1.3-5.1c0,0,0.5,8.7,1.3,12.7
							c3.6,18.4,16.2,29.5,16.2,29.5l-0.6,1L190.2,64z"/>
						<g>
							<defs>
								<path id="SVGID_00000042715938767880395150000013826890715438336181_" d="M190.2,64c0,0-17.4-15.7-17.3-39.4
									c0-1.9,0.3-4.5,1.3-5.1c0,0,0.5,8.7,1.3,12.7c3.6,18.4,16.2,29.5,16.2,29.5l-0.6,1L190.2,64z"/>
							</defs>
							<clipPath id="SVGID_00000147916259299572010200000013559807433165750948_">
								<use xlink:href="#SVGID_00000042715938767880395150000013826890715438336181_"  style="overflow:visible;"/>
							</clipPath>
							
								<path style="clip-path:url(#SVGID_00000147916259299572010200000013559807433165750948_);fill:none;stroke:#E1E1E1;stroke-width:7.847752e-02;stroke-miterlimit:10;" d="
								M190.5,63.6c0,0-6.1-6.9-6.7-7.9c-0.6-1.1-3.9-6.2-5.1-9.2c-1.3-3-2.8-7.7-3.4-9.8c-0.6-2.1-1.1-4.6-1.1-5.6
								c-0.1-1-0.2-2.5-0.2-3c-0.1-0.5-0.1-1-0.1-1.6c0-0.6-0.1-1.8,0-2.3c0.1-0.5,0.2-1.1,0.2-1.1s0.2,1.3,0.3,1.6
								c0.1,0.3,0.1,1.1,0.2,1.8c0,0.7,0.1,1.9,0.3,2.8c0.2,0.9,1,5.1,1.4,6.6c0.4,1.5,1.1,3.8,1.7,5.3c0.6,1.5,1.5,4,2.3,5.7
								c0.9,1.7,2.9,5.3,3.6,6.5c0.7,1.1,2.9,3.7,3.5,4.3c0.5,0.6,2.2,2.8,2.6,3.1c0.4,0.3,1.7,1.4,1.7,1.4L190.5,63.6z"/>
							
								<path style="clip-path:url(#SVGID_00000147916259299572010200000013559807433165750948_);fill:none;stroke:#E1E1E1;stroke-width:7.847752e-02;stroke-miterlimit:10;" d="
								M191.2,62.6c0,0-3.4-3.7-4.4-4.9c-1-1.2-3.7-4.6-4.9-6.7c-1.2-2.1-3.7-7.2-4.6-9.6c-0.9-2.3-1.8-5.3-2.4-7.8
								c-0.6-2.5-1.2-5.6-1.2-5.6"/>
							<g style="clip-path:url(#SVGID_00000147916259299572010200000013559807433165750948_);">
								<line class="st11" x1="190" y1="60.9" x2="189.3" y2="59.6"/>
								<line class="st11" x1="187.8" y1="58.3" x2="187.2" y2="57.2"/>
							</g>
						</g>
					</g>
				</g>
				<g>
					<path class="st4" d="M191.8,61.6l1.2,1.2c0,0,0.1,0.3,0.2,0.4c0,0.3-0.2,0.8-0.5,1.2c-0.3,0.4-0.9,0.9-0.9,0.9l-0.4,0L190,64
						C190,64,191.4,62.9,191.8,61.6z"/>
					<path class="st12" d="M191.1,63L191.1,63l1.4,1.2l0.2,0.5l0,0c0,0,0,0.2-0.1,0.5c-0.1,0.3-0.2,0.6-0.4,0.8c-0.3,0.4-0.9,1-1,1
						l0,0l-0.5-0.1l-1.6-1.5l0.1,0l0,0c0.1-0.1,0.5-0.4,0.9-0.8C190.4,64.2,190.9,63.6,191.1,63l0-0.1L191.1,63L191.1,63L191.1,63
						c-0.1,0.7-0.6,1.4-1.1,1.8c-0.4,0.5-0.8,0.8-0.8,0.8l0-0.1l0,0l1.5,1.5l0.4,0l0,0.1l0,0c0,0,0,0,0.1-0.1
						c0.2-0.2,0.6-0.6,0.8-0.9c0.2-0.2,0.3-0.5,0.4-0.8c0-0.1,0.1-0.3,0.1-0.3c0,0,0-0.1,0-0.1c0,0,0,0,0,0l0.1,0l-0.1,0l-0.2-0.4
						L191.1,63L191.1,63L191.1,63L191.1,63z"/>
				</g>
				<g>
					<g>
						<defs>
							<path id="SVGID_00000173845307262646065930000007517159101140363423_" d="M191.8,61.6l1.2,1.2l0.2,0.4c0,0-0.2,0.8-0.5,1.2
								c-0.3,0.4-0.9,1-0.9,1l-0.2,0L190,64C190,64,191.4,62.9,191.8,61.6z"/>
						</defs>
						<clipPath id="SVGID_00000058588412632661746770000007527333132480493224_">
							<use xlink:href="#SVGID_00000173845307262646065930000007517159101140363423_"  style="overflow:visible;"/>
						</clipPath>
						<g style="clip-path:url(#SVGID_00000058588412632661746770000007527333132480493224_);">
							<line class="st14" x1="191.6" y1="65.2" x2="190.8" y2="64.2"/>
							<line class="st14" x1="191.8" y1="65.1" x2="190.9" y2="64"/>
							<path class="st14" d="M191.9,65c0,0-1-1.2-1-1.2"/>
							<line class="st14" x1="192.1" y1="64.9" x2="190.9" y2="63.5"/>
							<line class="st14" x1="192.3" y1="64.7" x2="190.9" y2="63.2"/>
							<line class="st14" x1="192.5" y1="64.4" x2="191.1" y2="63"/>
							<line class="st14" x1="192.7" y1="64.3" x2="191.2" y2="62.8"/>
							<line class="st14" x1="192.8" y1="64.1" x2="191.2" y2="62.5"/>
							<line class="st14" x1="192.9" y1="63.8" x2="191.6" y2="62.3"/>
							<line class="st14" x1="192.8" y1="63.9" x2="191.4" y2="62.4"/>
							<line class="st14" x1="193" y1="63.6" x2="191.7" y2="62.2"/>
							<line class="st14" x1="193.1" y1="63.4" x2="191.7" y2="62"/>
							<line class="st14" x1="193.2" y1="63.2" x2="191.7" y2="61.8"/>
						</g>
						
							<path style="clip-path:url(#SVGID_00000058588412632661746770000007527333132480493224_);fill:#FFFFFF;stroke:#E1E1E1;stroke-width:6.278194e-02;stroke-miterlimit:10;" d="
							M191.4,65.4c0,0,0.9-0.7,1.2-1.1c0.3-0.4,0.6-1.2,0.6-1.2s0.2,0.5-0.5,1.4c-0.4,0.5-0.9,0.9-0.9,0.9L191.4,65.4z"/>
					</g>
					<polygon class="st4" points="190.2,64.9 189.9,64.1 191,62.8 191.5,61.8 191.7,61.5 191.9,61.7 191.7,62.1 190.2,64.2 
						190.8,64.7 190.6,64.8 					"/>
					<g>
						<g>
							<path class="st0" d="M188.9,69c0,0-0.3-0.4-0.4-0.7c-0.1-0.3,0.3-1.1,0.4-1.2l1.4-2.2c0,0,0.2,0,0.5-0.2
								c0.3-0.2,0.3-0.7,0.2-0.8c0-0.2,0-0.6,0-0.6v0l0.1,0c0,0,0.8-0.4,0.9-0.5c0.1-0.1,0.3-0.5,0.4-0.6l-0.1-0.1
								c0-0.1,0.3-0.3,0.4-0.4c0.2-0.3,0.7-0.9,0.8-1.1c0.1-0.2-0.1-0.7-0.3-0.9c0,0-0.2-0.1-0.2-0.1l0.3-0.4l0.2,0l0.7,0.8
								c0,0,0.2,0.2,0,0.7c-0.2,0.4-1.6,2.7-1.6,2.7l0.3,1.2l-1.4,0.5l-1.9,2.6c0,0-0.1,0.3,0,0.5c0.1,0.3,0.2,0.3,0.2,0.4l-0.4,0.5
								l-0.1,0L188.9,69z"/>
							<path class="st1" d="M193.4,59L193.4,59l0.6,0.8c0,0,0.2,0.2,0,0.6c-0.2,0.4-1.6,2.7-1.6,2.7l0.3,1.2l-1.4,0.5l-2,2.6
								c0,0-0.1,0.3,0,0.5c0.1,0.3,0.2,0.4,0.2,0.4l-0.4,0.5l0,0.1l-0.1,0c0,0-0.3-0.4-0.4-0.7c-0.1-0.3,0.4-1.1,0.4-1.1l1.4-2.2
								c0,0,0.2,0,0.5-0.2c0.3-0.2,0.3-0.7,0.3-0.9c0-0.1,0-0.6,0-0.6l0.1,0c0,0,0.8-0.4,0.9-0.5c0.1-0.1,0.4-0.6,0.4-0.6l-0.2-0.2
								c0,0,0.3-0.2,0.4-0.3c0.2-0.3,0.6-0.9,0.8-1.1c0.2-0.3-0.2-0.7-0.3-0.9c0,0-0.2-0.1-0.2-0.1l0.3-0.4L193.4,59 M193.4,58.9
								L193.4,58.9l-0.2,0l0,0l0,0l-0.3,0.4l-0.1,0.1l0.1,0c0,0,0.1,0.1,0.2,0.1c0.2,0.2,0.5,0.6,0.3,0.8c-0.2,0.2-0.6,0.9-0.8,1.1
								c-0.1,0.1-0.4,0.3-0.4,0.3l-0.1,0.1l0.1,0.1l0.1,0.1c-0.1,0.2-0.2,0.5-0.3,0.6c-0.1,0.1-0.7,0.4-0.9,0.5l-0.1,0l0,0l0,0.1
								c0,0,0,0.5,0,0.6c0,0.2,0,0.6-0.2,0.8c-0.2,0.2-0.4,0.2-0.4,0.2l0,0l0,0l-1.4,2.2c-0.1,0.1-0.5,0.9-0.4,1.2
								c0.1,0.3,0.4,0.7,0.4,0.7l0,0l0,0l0.1,0l0,0l0,0l0-0.1l0.4-0.5l0,0l0,0c0,0,0-0.1-0.2-0.3c-0.1-0.2,0-0.5,0-0.5l1.9-2.6
								l1.4-0.5l0.1,0l0-0.1l-0.3-1.2c0.2-0.3,1.4-2.3,1.6-2.7c0.2-0.4,0-0.7,0-0.7L193.4,58.9L193.4,58.9L193.4,58.9L193.4,58.9z"
								/>
						</g>
						<g>
							<path class="st0" d="M189.1,68.9c0,0-0.2-0.2-0.2-0.3c-0.1-0.1-0.2-0.4-0.1-0.6c0-0.2,0.1-0.3,0.2-0.5c0.5-0.8,2.2-3,2.2-3
								l0-1.1l0.9-0.5c0,0,1.2-1.7,1.5-2.3c0.1-0.2,0.2-0.4-0.1-0.7c-0.3-0.3-0.4-0.4-0.4-0.4l0.4-0.4l0.7,0.8c0,0,0.2,0.2,0,0.7
								c-0.2,0.4-1.6,2.7-1.6,2.7l0.3,1.2l-1.4,0.5l-1.9,2.6c0,0-0.1,0.3,0,0.5c0.1,0.3,0.2,0.3,0.2,0.4L189.1,68.9L189.1,68.9z"/>
							<path class="st1" d="M193.4,59.1l0.6,0.8c0,0,0.2,0.2,0,0.6c-0.2,0.4-1.6,2.7-1.6,2.7l0.3,1.2l-1.4,0.5l-2,2.6
								c0,0-0.1,0.3,0,0.5c0.1,0.3,0.2,0.4,0.2,0.4l-0.4,0.5c0,0-0.2-0.2-0.2-0.3c-0.1-0.1-0.2-0.4-0.1-0.6c0-0.2,0.1-0.4,0.2-0.5
								c0.5-0.8,2.2-3,2.2-3l0-1.2l0.9-0.4c0,0,1.2-1.7,1.5-2.3c0.1-0.2,0.2-0.5-0.1-0.8c-0.3-0.3-0.4-0.4-0.4-0.4L193.4,59.1
								 M193.4,58.9L193.4,58.9l-0.4,0.4l-0.1,0.1l0.1,0c0,0,0,0,0,0c0,0,0.1,0.1,0.4,0.4c0.3,0.3,0.2,0.6,0.1,0.7
								c-0.3,0.6-1.4,2.1-1.5,2.3l-0.9,0.4l0,0l0,0l0,1.1c-0.2,0.2-1.8,2.2-2.2,3c-0.1,0.2-0.2,0.3-0.2,0.5c0,0.2,0.1,0.6,0.2,0.7
								c0.1,0.1,0.2,0.3,0.3,0.3l0.1,0.1l0.1-0.1l0.4-0.5l0,0l0,0c0,0,0-0.1-0.2-0.3c-0.1-0.2,0-0.5,0-0.5l1.9-2.6l1.4-0.5l0.1,0
								l0-0.1l-0.3-1.2c0.2-0.3,1.4-2.3,1.6-2.7c0.2-0.4,0-0.7,0-0.7L193.4,58.9L193.4,58.9L193.4,58.9z"/>
						</g>
					</g>
				</g>
				<path class="st4" d="M191.3,61.8l-0.2,0.7l-0.7,0.9l-0.4,0.3l0.8,0.8l1-2.7c0,0-2-2-2.6-2.7c-1.2-1.3-3.3-4-4.2-5.4
					c-1.3-2-2.4-3.7-3.2-5C181,47.6,179,44,179,44s2.2,4.8,3,6c0.8,1.2,3.1,4.7,4,5.8C186.9,56.9,191.2,61.8,191.3,61.8z"/>
			</g>
			<g>
				<g>
					<g>
						<path class="st4" d="M205.6,69.3c0,0-0.5,0.7,0,1.2c0.3,0.2,1,0.4,0.9,0.9c-0.1,0.5-1,1.1-2,1c-1-0.1-2-1.4-2-2.5
							c0-1.1,0.7-1.9,1.7-2.8L205.6,69.3z"/>
						<path class="st4" d="M204.6,67.7c0,0-0.8,0.7-1.1,1.2c-0.3,0.5-0.5,1.2-0.5,1.7c0,0.5,0.2,1.1,0.7,1.5
							c0.5,0.4,1.3,0.4,1.9,0.2c0.6-0.2,1-0.8,0.8-1c-0.3-0.2-0.5-0.2-0.8-0.3c-0.3-0.1-0.5-0.2-0.7-0.5c-0.1-0.3-0.3-0.8,0.6-1.5
							L204.6,67.7z"/>
						<path class="st3" d="M204.4,71.8c-0.3,0-0.5-0.2-0.5-0.5c0-0.3,0.2-0.5,0.5-0.5c0.3,0,0.5,0.2,0.5,0.5
							C204.9,71.6,204.7,71.8,204.4,71.8z"/>
						<g>
							<defs>
								<path id="SVGID_00000146459708944811387420000011353066397039692701_" d="M204.5,67.9c0,0-0.7,0.6-1,1.1
									c-0.3,0.5-0.5,1.2-0.5,1.7c0,0.5,0.2,1.1,0.7,1.5c0.5,0.4,1.3,0.4,1.9,0.2c0.6-0.2,1-0.8,0.8-1c-0.3-0.2-0.5-0.2-0.8-0.3
									c-0.3-0.1-0.5-0.2-0.7-0.5c-0.1-0.3-0.2-0.8,0.4-1.3L204.5,67.9z"/>
							</defs>
							<clipPath id="SVGID_00000022534690645004909250000015814388236832291747_">
								<use xlink:href="#SVGID_00000146459708944811387420000011353066397039692701_"  style="overflow:visible;"/>
							</clipPath>
							<polyline style="clip-path:url(#SVGID_00000022534690645004909250000015814388236832291747_);fill:#E1E1E1;" points="
								204.9,68.3 202.8,71 202.9,71 205,68.3 							"/>
							<polyline style="clip-path:url(#SVGID_00000022534690645004909250000015814388236832291747_);fill:#E1E1E1;" points="
								205.1,68.4 203,71.1 203.1,71.2 205.1,68.5 							"/>
							<polyline style="clip-path:url(#SVGID_00000022534690645004909250000015814388236832291747_);fill:#E1E1E1;" points="
								205.2,68.6 203.1,71.3 203.2,71.4 205.3,68.7 							"/>
							<polyline style="clip-path:url(#SVGID_00000022534690645004909250000015814388236832291747_);fill:#E1E1E1;" points="
								205.3,68.9 203.2,71.6 203.3,71.6 205.4,68.9 							"/>
							<polyline style="clip-path:url(#SVGID_00000022534690645004909250000015814388236832291747_);fill:#E1E1E1;" points="
								205.4,69.2 203.3,71.9 203.4,71.9 205.4,69.3 							"/>
							<polyline style="clip-path:url(#SVGID_00000022534690645004909250000015814388236832291747_);fill:#E1E1E1;" points="
								205.5,69.4 203.5,72.1 203.5,72.1 205.6,69.4 							"/>
							<polyline style="clip-path:url(#SVGID_00000022534690645004909250000015814388236832291747_);fill:#E1E1E1;" points="
								205.7,69.6 203.6,72.3 203.7,72.3 205.7,69.6 							"/>
							<polyline style="clip-path:url(#SVGID_00000022534690645004909250000015814388236832291747_);fill:#E1E1E1;" points="
								205.8,69.7 203.7,72.4 203.8,72.5 205.9,69.8 							"/>
							<polyline style="clip-path:url(#SVGID_00000022534690645004909250000015814388236832291747_);fill:#E1E1E1;" points="
								206,69.9 203.9,72.6 204,72.7 206,70 							"/>
							<polyline style="clip-path:url(#SVGID_00000022534690645004909250000015814388236832291747_);fill:#E1E1E1;" points="
								206.1,70.1 204,72.8 204.1,72.8 206.2,70.1 							"/>
						</g>
						<g>
							<path class="st1" d="M204.4,70.9c0.2,0,0.4,0.2,0.5,0.4c0,0.2-0.2,0.4-0.4,0.5c-0.2,0-0.4-0.2-0.5-0.4
								C204,71.1,204.1,70.9,204.4,70.9 M204.4,70.8c-0.3,0-0.5,0.3-0.5,0.6c0,0.3,0.3,0.5,0.6,0.5c0.3,0,0.5-0.3,0.5-0.6
								C204.9,71,204.7,70.8,204.4,70.8z"/>
							<g>
								<defs>
									<path id="SVGID_00000032619025462852607340000012332346444193997443_" d="M204.8,71.3c0,0.2-0.2,0.4-0.4,0.5
										c-0.2,0-0.4-0.2-0.5-0.4c0-0.2,0.2-0.4,0.4-0.5C204.6,70.9,204.8,71.1,204.8,71.3z"/>
								</defs>
								<clipPath id="SVGID_00000003080546891541775510000005407901106323690939_">
									<use xlink:href="#SVGID_00000032619025462852607340000012332346444193997443_"  style="overflow:visible;"/>
								</clipPath>
								<path style="clip-path:url(#SVGID_00000003080546891541775510000005407901106323690939_);fill:#FFFFFF;" d="M204.9,71.3
									c0,0.3-0.2,0.5-0.5,0.5c-0.3,0-0.5-0.2-0.5-0.5c0-0.3,0.2-0.5,0.5-0.5C204.7,70.8,204.9,71,204.9,71.3z"/>
								<path style="clip-path:url(#SVGID_00000003080546891541775510000005407901106323690939_);fill:#E1E1E1;" d="M204.9,71.2
									L204.9,71.2c0,0.2-0.2,0.3-0.4,0.3c-0.2,0-0.3-0.1-0.3-0.3c0-0.2,0.1-0.3,0.3-0.3C204.7,70.8,204.8,71,204.9,71.2
									L204.9,71.2L204.9,71.2c0-0.2-0.2-0.4-0.4-0.4c-0.2,0-0.4,0.2-0.4,0.4c0,0.2,0.2,0.4,0.4,0.4
									C204.8,71.6,205,71.4,204.9,71.2L204.9,71.2z"/>
							</g>
						</g>
					</g>
					<g>
						<path class="st4" d="M209.2,65.4l0,0.3l-3.3,3.7l-0.4,0.2l-1.4-2.2l0.1-0.4l3.4-3.7l0.2-0.1C207.8,63.1,208.2,64.5,209.2,65.4
							z"/>
						<g>
							<g>
								<defs>
									<path id="SVGID_00000151513399553482581370000000835720939029172618_" d="M209.2,65.4l0,0.3l-3.3,3.7l-0.4,0.2l-1.4-2.2
										l0.1-0.4l3.4-3.7l0.2-0.1C207.8,63.1,207.8,64.4,209.2,65.4z"/>
								</defs>
								<clipPath id="SVGID_00000068674584416908957240000006838513703180638611_">
									<use xlink:href="#SVGID_00000151513399553482581370000000835720939029172618_"  style="overflow:visible;"/>
								</clipPath>
								<path style="clip-path:url(#SVGID_00000068674584416908957240000006838513703180638611_);fill:#E1E1E1;" d="M207.6,63.2
									c0,0-1.1,2.9-1.5,6.1l0.1,0c0.2-1.6,0.5-3.1,0.8-4.3c0.2-0.6,0.3-1,0.4-1.3c0.1-0.2,0.1-0.3,0.1-0.4
									C207.7,63.3,207.7,63.2,207.6,63.2L207.6,63.2L207.6,63.2z"/>
								<path style="clip-path:url(#SVGID_00000068674584416908957240000006838513703180638611_);fill:#E1E1E1;" d="M208,62.7
									c0,0-1.1,2.9-1.5,6.1l0.1,0c0.2-1.6,0.5-3.1,0.8-4.3c0.2-0.6,0.3-1,0.4-1.3c0.1-0.2,0.1-0.3,0.1-0.4
									C208,62.8,208.1,62.8,208,62.7L208,62.7z"/>
								<path style="clip-path:url(#SVGID_00000068674584416908957240000006838513703180638611_);fill:#E1E1E1;" d="M208.3,62.4
									c0,0-1.1,2.9-1.5,6.1l0.1,0c0.2-1.6,0.5-3.1,0.8-4.3c0.2-0.6,0.3-1,0.4-1.3c0.1-0.2,0.1-0.3,0.1-0.4
									C208.4,62.5,208.4,62.5,208.3,62.4L208.3,62.4L208.3,62.4z"/>
								<path style="clip-path:url(#SVGID_00000068674584416908957240000006838513703180638611_);fill:#E1E1E1;" d="M208.6,62.1
									c0,0-1.1,2.9-1.5,6.1l0.1,0c0.2-1.6,0.5-3.1,0.8-4.3c0.2-0.6,0.3-1,0.4-1.3c0.1-0.2,0.1-0.3,0.1-0.4
									C208.6,62.2,208.7,62.1,208.6,62.1L208.6,62.1L208.6,62.1z"/>
								<path style="clip-path:url(#SVGID_00000068674584416908957240000006838513703180638611_);fill:#E1E1E1;" d="M208.9,61.8
									c0,0-1.1,2.9-1.5,6.1l0.1,0c0.2-1.6,0.5-3.1,0.8-4.3c0.2-0.6,0.3-1,0.4-1.3c0.1-0.2,0.1-0.3,0.1-0.4
									C208.9,61.8,208.9,61.8,208.9,61.8L208.9,61.8L208.9,61.8z"/>
								<path style="clip-path:url(#SVGID_00000068674584416908957240000006838513703180638611_);fill:#E1E1E1;" d="M209.2,61.4
									c0,0-1.1,2.9-1.5,6.1l0.1,0c0.2-1.6,0.5-3.1,0.8-4.3c0.2-0.6,0.3-1,0.4-1.3c0.1-0.2,0.1-0.3,0.1-0.4
									C209.3,61.5,209.3,61.4,209.2,61.4L209.2,61.4L209.2,61.4z"/>
								<path style="clip-path:url(#SVGID_00000068674584416908957240000006838513703180638611_);fill:#E1E1E1;" d="M209.5,61.1
									c0,0-1.1,2.9-1.5,6.1l0.1,0c0.2-1.6,0.5-3.1,0.8-4.3c0.2-0.6,0.3-1,0.4-1.3c0.1-0.2,0.1-0.3,0.1-0.4
									C209.6,61.2,209.6,61.2,209.5,61.1L209.5,61.1z"/>
								<path style="clip-path:url(#SVGID_00000068674584416908957240000006838513703180638611_);fill:#E1E1E1;" d="M209.8,60.8
									c0,0-1.1,2.9-1.5,6.1l0.1,0c0.2-1.6,0.5-3.1,0.8-4.3c0.2-0.6,0.3-1,0.4-1.3c0.1-0.2,0.1-0.3,0.1-0.4
									C209.9,60.9,209.9,60.8,209.8,60.8L209.8,60.8L209.8,60.8z"/>
								<path style="clip-path:url(#SVGID_00000068674584416908957240000006838513703180638611_);fill:#E1E1E1;" d="M210.2,60.5
									c0,0-1.1,2.9-1.5,6.1l0.1,0c0.2-1.6,0.5-3.1,0.8-4.3c0.2-0.6,0.3-1,0.4-1.3c0.1-0.2,0.1-0.3,0.1-0.4
									C210.2,60.6,210.3,60.6,210.2,60.5L210.2,60.5L210.2,60.5z"/>
								<path style="clip-path:url(#SVGID_00000068674584416908957240000006838513703180638611_);fill:#E1E1E1;" d="M207.4,63.3
									c0,0-1.1,2.9-1.5,6.1l0.1,0c0.2-1.6,0.5-3.1,0.8-4.3c0.2-0.6,0.3-1,0.4-1.3c0.1-0.2,0.1-0.3,0.1-0.4
									C207.4,63.4,207.4,63.3,207.4,63.3L207.4,63.3z"/>
								<path style="clip-path:url(#SVGID_00000068674584416908957240000006838513703180638611_);fill:#E1E1E1;" d="M207.1,63.3
									c0,0-1.1,2.9-1.5,6.1l0.1,0c0.2-1.6,0.5-3.1,0.8-4.3c0.2-0.6,0.3-1,0.4-1.3c0.1-0.2,0.1-0.3,0.1-0.4
									C207.2,63.4,207.2,63.4,207.1,63.3L207.1,63.3L207.1,63.3z"/>
								<path style="clip-path:url(#SVGID_00000068674584416908957240000006838513703180638611_);fill:#E1E1E1;" d="M206.9,63.4
									c0,0-1.1,2.9-1.5,6.1l0.1,0c0.2-1.6,0.5-3.1,0.8-4.3c0.2-0.6,0.3-1,0.4-1.3c0.1-0.2,0.1-0.3,0.1-0.4
									C206.9,63.5,206.9,63.4,206.9,63.4L206.9,63.4z"/>
								<path style="clip-path:url(#SVGID_00000068674584416908957240000006838513703180638611_);fill:#E1E1E1;" d="M206.7,63.1
									c0,0-1.1,2.9-1.5,6.1l0.1,0c0.2-1.6,0.5-3.1,0.8-4.3c0.2-0.6,0.3-1,0.4-1.3c0.1-0.2,0.1-0.3,0.1-0.4
									C206.7,63.2,206.7,63.1,206.7,63.1L206.7,63.1L206.7,63.1z"/>
								<path style="clip-path:url(#SVGID_00000068674584416908957240000006838513703180638611_);fill:#E1E1E1;" d="M206.5,62.9
									c0,0-1.1,2.9-1.5,6.1l0.1,0c0.2-1.6,0.5-3.1,0.8-4.3c0.2-0.6,0.3-1,0.4-1.3c0.1-0.2,0.1-0.3,0.1-0.4
									C206.5,63,206.6,62.9,206.5,62.9L206.5,62.9L206.5,62.9z"/>
								<path style="clip-path:url(#SVGID_00000068674584416908957240000006838513703180638611_);fill:#E1E1E1;" d="M206.3,62.7
									c0,0-1.1,2.9-1.5,6.1l0.1,0c0.2-1.6,0.5-3.1,0.8-4.3c0.2-0.6,0.3-1,0.4-1.3c0.1-0.2,0.1-0.3,0.1-0.4
									C206.4,62.8,206.4,62.8,206.3,62.7L206.3,62.7L206.3,62.7z"/>
								<path style="clip-path:url(#SVGID_00000068674584416908957240000006838513703180638611_);fill:#E1E1E1;" d="M206.1,62.6
									c0,0-1.1,2.9-1.5,6.1l0.1,0c0.2-1.6,0.5-3.1,0.8-4.3c0.2-0.6,0.3-1,0.4-1.3c0.1-0.2,0.1-0.3,0.1-0.4
									C206.2,62.7,206.2,62.7,206.1,62.6L206.1,62.6L206.1,62.6z"/>
								<path style="clip-path:url(#SVGID_00000068674584416908957240000006838513703180638611_);fill:#E1E1E1;" d="M206,62.5
									c0,0-1.1,2.9-1.5,6.1l0.1,0c0.2-1.6,0.5-3.1,0.8-4.3c0.2-0.6,0.3-1,0.4-1.3c0.1-0.2,0.1-0.3,0.1-0.4
									C206,62.6,206,62.5,206,62.5L206,62.5L206,62.5z"/>
								<path style="clip-path:url(#SVGID_00000068674584416908957240000006838513703180638611_);fill:#E1E1E1;" d="M205.8,62.3
									c0,0-1.1,2.9-1.5,6.1l0.1,0c0.2-1.6,0.5-3.1,0.8-4.3c0.2-0.6,0.3-1,0.4-1.3c0.1-0.2,0.1-0.3,0.1-0.4
									C205.9,62.4,205.9,62.4,205.8,62.3L205.8,62.3z"/>
								<path style="clip-path:url(#SVGID_00000068674584416908957240000006838513703180638611_);fill:#E1E1E1;" d="M205.6,62.2
									c0,0-1.1,2.9-1.5,6.1l0.1,0c0.2-1.6,0.5-3.1,0.8-4.3c0.2-0.6,0.3-1,0.4-1.3c0.1-0.2,0.1-0.3,0.1-0.4
									C205.7,62.2,205.7,62.2,205.6,62.2L205.6,62.2L205.6,62.2z"/>
								<path style="clip-path:url(#SVGID_00000068674584416908957240000006838513703180638611_);fill:#E1E1E1;" d="M205.5,62.1
									c-1.1,2.9-1.2,2.9-1.5,6.1l0.1,0C204.4,65,204.5,65,205.5,62.1L205.5,62.1L205.5,62.1z"/>
							</g>
						</g>
					</g>
					<g>
						<path class="st3" d="M210.8,64c0,0,17.4-15.7,17.3-39.4c0-1.9-0.3-4.5-1.3-5.1c0,0-0.5,8.7-1.3,12.7
							c-3.6,18.4-16.3,29.7-16.3,29.7l0.6,1L210.8,64z"/>
						<path class="st1" d="M210.8,64L210.8,64c0,0,17.4-15.7,17.3-39.4c0-0.2,0-0.4,0-0.7c0-0.9-0.1-1.9-0.3-2.7
							c-0.1-0.4-0.2-0.8-0.4-1.1c-0.2-0.3-0.4-0.5-0.6-0.7l-0.1,0l0,0.1c0,0,0,0.1,0,0.4c-0.1,1.7-0.6,8.8-1.3,12.4
							c-1.8,9.2-5.9,16.6-9.5,21.7c-1.8,2.6-3.5,4.5-4.7,5.9c-0.6,0.7-1.1,1.2-1.5,1.5c-0.2,0.2-0.3,0.3-0.4,0.4
							c-0.1,0.1-0.1,0.1-0.1,0.1l0,0l0.6,1L210.8,64L210.8,64L210.8,64L210.8,64l-1.1-1.1l-0.6-1l-0.1,0l0,0
							c0,0,12.7-11.3,16.3-29.7c0.8-4.1,1.3-12.8,1.3-12.8l-0.1,0l0,0.1c0.2,0.1,0.4,0.3,0.5,0.6c0.5,0.9,0.7,2.4,0.7,3.7
							c0,0.2,0,0.4,0,0.7c0,11.8-4.3,21.7-8.6,28.6c-2.2,3.4-4.3,6.1-6,8c-0.8,0.9-1.5,1.6-2,2.1c-0.2,0.2-0.4,0.4-0.5,0.5
							C210.8,63.9,210.8,63.9,210.8,64L210.8,64L210.8,64L210.8,64z"/>
					</g>
					<g>
						<path class="st4" d="M210.8,64c0,0,17.4-15.7,17.3-39.4c0-1.9-0.3-4.5-1.3-5.1c0,0-0.5,8.7-1.3,12.7
							c-3.6,18.4-16.2,29.5-16.2,29.5l0.6,1L210.8,64z"/>
						<g>
							<defs>
								<path id="SVGID_00000018915257410123501240000017431730414878228870_" d="M210.8,64c0,0,17.4-15.7,17.3-39.4
									c0-1.9-0.3-4.5-1.3-5.1c0,0-0.5,8.7-1.3,12.7c-3.6,18.4-16.2,29.5-16.2,29.5l0.6,1L210.8,64z"/>
							</defs>
							<clipPath id="SVGID_00000054956124563243634860000011607118962616744639_">
								<use xlink:href="#SVGID_00000018915257410123501240000017431730414878228870_"  style="overflow:visible;"/>
							</clipPath>
							
								<path style="clip-path:url(#SVGID_00000054956124563243634860000011607118962616744639_);fill:none;stroke:#E1E1E1;stroke-width:7.847752e-02;stroke-miterlimit:10;" d="
								M210.5,63.6c0,0,6.1-6.9,6.7-7.9c0.6-1.1,3.9-6.2,5.1-9.2c1.3-3,2.8-7.7,3.4-9.8c0.6-2.1,1.1-4.6,1.1-5.6
								c0.1-1,0.2-2.5,0.2-3c0.1-0.5,0.1-1,0.1-1.6c0-0.6,0.1-1.8,0-2.3c-0.1-0.5-0.2-1.1-0.2-1.1s-0.2,1.3-0.3,1.6
								c-0.1,0.3-0.1,1.1-0.2,1.8c0,0.7-0.1,1.9-0.3,2.8c-0.2,0.9-1,5.1-1.4,6.6c-0.4,1.5-1.1,3.8-1.7,5.3c-0.6,1.5-1.5,4-2.3,5.7
								c-0.9,1.7-2.9,5.3-3.6,6.5c-0.7,1.1-2.9,3.7-3.5,4.3c-0.5,0.6-2.2,2.8-2.6,3.1c-0.4,0.3-1.7,1.4-1.7,1.4L210.5,63.6z"/>
							
								<path style="clip-path:url(#SVGID_00000054956124563243634860000011607118962616744639_);fill:none;stroke:#E1E1E1;stroke-width:7.847752e-02;stroke-miterlimit:10;" d="
								M209.8,62.6c0,0,3.4-3.7,4.4-4.9c1-1.2,3.7-4.6,4.9-6.7c1.2-2.1,3.7-7.2,4.6-9.6c0.9-2.3,1.8-5.3,2.4-7.8
								c0.6-2.5,1.2-5.6,1.2-5.6"/>
							<g style="clip-path:url(#SVGID_00000054956124563243634860000011607118962616744639_);">
								<line class="st11" x1="211" y1="60.9" x2="211.7" y2="59.6"/>
								<line class="st11" x1="213.2" y1="58.3" x2="213.8" y2="57.2"/>
							</g>
						</g>
					</g>
				</g>
				<g>
					<path class="st4" d="M209.2,61.6l-1.2,1.2c0,0-0.1,0.3-0.2,0.4c0,0.3,0.2,0.8,0.5,1.2c0.3,0.4,0.9,0.9,0.9,0.9l0.4,0L211,64
						C211,64,209.5,62.9,209.2,61.6z"/>
					<path class="st12" d="M209.9,63L209.9,63l-1.4,1.2l-0.2,0.5l0,0c0,0,0,0.2,0.1,0.5c0.1,0.3,0.2,0.6,0.4,0.8c0.3,0.4,0.9,1,1,1
						l0,0l0.5-0.1l1.6-1.5l-0.1,0l0,0c-0.1-0.1-0.5-0.4-0.9-0.8C210.6,64.2,210.1,63.6,209.9,63l0-0.1L209.9,63L209.9,63L209.9,63
						c0.1,0.7,0.6,1.4,1.1,1.8c0.4,0.5,0.8,0.8,0.8,0.8l0-0.1l0,0l-1.5,1.5l-0.4,0l0,0.1l0,0c0,0,0,0-0.1-0.1
						c-0.2-0.2-0.6-0.6-0.8-0.9c-0.2-0.2-0.3-0.5-0.4-0.8c0-0.1-0.1-0.3-0.1-0.3c0,0,0-0.1,0-0.1c0,0,0,0,0,0l-0.1,0l0.1,0l0.2-0.4
						L209.9,63L209.9,63L209.9,63L209.9,63z"/>
				</g>
				<g>
					<g>
						<defs>
							<path id="SVGID_00000101061607233633406020000012164149379659596984_" d="M209.2,61.6l-1.2,1.2l-0.2,0.4c0,0,0.2,0.8,0.5,1.2
								c0.3,0.4,0.9,1,0.9,1l0.2,0L211,64C211,64,209.5,62.9,209.2,61.6z"/>
						</defs>
						<clipPath id="SVGID_00000081628840787346226490000002690650127184695471_">
							<use xlink:href="#SVGID_00000101061607233633406020000012164149379659596984_"  style="overflow:visible;"/>
						</clipPath>
						<g style="clip-path:url(#SVGID_00000081628840787346226490000002690650127184695471_);">
							<line class="st14" x1="209.4" y1="65.2" x2="210.2" y2="64.2"/>
							<line class="st14" x1="209.2" y1="65.1" x2="210.1" y2="64"/>
							<path class="st14" d="M209,65c0,0,1-1.2,1-1.2"/>
							<line class="st14" x1="208.9" y1="64.9" x2="210.1" y2="63.5"/>
							<line class="st14" x1="208.7" y1="64.7" x2="210" y2="63.2"/>
							<line class="st14" x1="208.5" y1="64.4" x2="209.9" y2="63"/>
							<line class="st14" x1="208.3" y1="64.3" x2="209.8" y2="62.8"/>
							<line class="st14" x1="208.2" y1="64.1" x2="209.7" y2="62.5"/>
							<line class="st14" x1="208.1" y1="63.8" x2="209.4" y2="62.3"/>
							<line class="st14" x1="208.1" y1="63.9" x2="209.6" y2="62.4"/>
							<line class="st14" x1="208" y1="63.6" x2="209.3" y2="62.2"/>
							<line class="st14" x1="207.9" y1="63.4" x2="209.3" y2="62"/>
							<line class="st14" x1="207.8" y1="63.2" x2="209.2" y2="61.8"/>
						</g>
						
							<path style="clip-path:url(#SVGID_00000081628840787346226490000002690650127184695471_);fill:#FFFFFF;stroke:#E1E1E1;stroke-width:6.278194e-02;stroke-miterlimit:10;" d="
							M209.6,65.4c0,0-0.9-0.7-1.2-1.1c-0.3-0.4-0.6-1.2-0.6-1.2s-0.2,0.5,0.5,1.4c0.4,0.5,0.9,0.9,0.9,0.9L209.6,65.4z"/>
					</g>
					<polygon class="st4" points="210.8,64.9 211.1,64.1 210,62.8 209.5,61.8 209.2,61.5 209.1,61.7 209.3,62.1 210.8,64.2 
						210.2,64.7 210.4,64.8 					"/>
					<g>
						<g>
							<path class="st0" d="M211.5,68.4c0,0,0-0.1,0.2-0.4c0.1-0.2,0-0.5,0-0.5l-2-2.6l-1.4-0.5l0.3-1.3c0,0-1.4-2.3-1.6-2.7
								c-0.2-0.4,0-0.7,0-0.7l0.6-0.8l0.3,0l0.3,0.4c0,0.1-0.1,0.1-0.2,0.2c-0.2,0.2-0.5,0.6-0.3,0.9c0.2,0.2,0.6,0.9,0.8,1.1
								c0.1,0.1,0.4,0.3,0.4,0.3l-0.1,0.2c0.1,0.1,0.3,0.5,0.4,0.6c0.1,0.1,0.9,0.5,0.9,0.5l0,0l0.1,0.1c0,0,0,0.5,0,0.6
								c0,0.1,0,0.7,0.2,0.8c0.3,0.2,0.4,0.2,0.4,0.2l1.4,2.2c0,0,0.5,0.8,0.4,1.2c-0.1,0.3-0.4,0.7-0.4,0.7l-0.2,0L211.5,68.4z"/>
							<path class="st1" d="M207.6,59l0.2,0l0.3,0.4c0,0-0.1,0.1-0.2,0.1c-0.2,0.2-0.5,0.6-0.3,0.9c0.2,0.3,0.6,0.9,0.8,1.1
								c0.1,0.1,0.4,0.3,0.4,0.3l-0.2,0.2c0,0,0.2,0.5,0.4,0.6c0.1,0.1,0.9,0.5,0.9,0.5l0.1,0c0,0,0,0.5,0,0.6c0,0.1,0,0.7,0.3,0.9
								c0.3,0.2,0.5,0.2,0.5,0.2l1.4,2.2c0,0,0.5,0.8,0.4,1.1c-0.1,0.3-0.4,0.7-0.4,0.7l-0.1,0l0-0.1l-0.4-0.5c0,0,0-0.1,0.2-0.4
								c0.1-0.3,0-0.5,0-0.5l-2-2.6l-1.4-0.5l0.3-1.2c0,0-1.4-2.3-1.6-2.7c-0.2-0.4,0-0.6,0-0.6L207.6,59L207.6,59 M207.6,58.9
								L207.6,58.9L207.6,58.9l-0.7,0.8c0,0-0.2,0.3,0,0.7c0.2,0.4,1.4,2.4,1.6,2.7l-0.3,1.2l0,0.1l0.1,0l1.4,0.5l1.9,2.6
								c0,0,0,0,0,0c0,0,0.1,0.2,0,0.5c-0.1,0.3-0.2,0.3-0.2,0.3l0,0l0,0l0.4,0.5l0,0.1l0,0l0,0l0.1,0l0,0l0,0c0,0,0.3-0.4,0.4-0.7
								c0.1-0.4-0.3-1.1-0.4-1.2l-1.4-2.2l0,0l0,0c0,0-0.2,0-0.4-0.2c-0.2-0.1-0.2-0.6-0.2-0.8c0-0.2,0-0.6,0-0.6l0-0.1l0,0l-0.1,0
								c-0.2-0.1-0.8-0.4-0.9-0.5c-0.1-0.1-0.2-0.4-0.3-0.6l0.1-0.1l0.1-0.1l-0.1-0.1c0,0-0.3-0.2-0.4-0.3c-0.2-0.3-0.7-0.9-0.8-1.1
								c-0.1-0.2,0.1-0.6,0.3-0.8c0,0,0.1-0.1,0.2-0.1l0.1,0l-0.1-0.1l-0.3-0.4l0,0l0,0L207.6,58.9L207.6,58.9L207.6,58.9z"/>
						</g>
						<g>
							<path class="st0" d="M211.5,68.4c0,0,0-0.1,0.2-0.4c0.1-0.2,0-0.5,0-0.5l-2-2.6l-1.4-0.5l0.3-1.3c0,0-1.4-2.3-1.6-2.7
								c-0.2-0.4,0-0.7,0-0.7l0.6-0.8l0.4,0.3c0,0.1-0.1,0.1-0.4,0.4c-0.3,0.3-0.2,0.6-0.1,0.7c0.3,0.6,1.5,2.3,1.5,2.3l0.9,0.4
								l0.1,1.2c0,0,1.8,2.2,2.2,3c0.1,0.2,0.1,0.3,0.2,0.5c0,0.2-0.1,0.5-0.2,0.6c-0.1,0.1-0.2,0.3-0.2,0.3l0,0L211.5,68.4z"/>
							<path class="st1" d="M207.6,59.1l0.4,0.3c0,0-0.1,0-0.4,0.4c-0.3,0.3-0.2,0.6-0.1,0.8c0.3,0.6,1.5,2.3,1.5,2.3l0.9,0.4l0,1.2
								c0,0,1.8,2.2,2.2,3c0.1,0.1,0.1,0.3,0.2,0.5c0,0.2-0.1,0.5-0.1,0.6c-0.1,0.1-0.2,0.3-0.2,0.3l-0.4-0.5c0,0,0-0.1,0.2-0.4
								c0.1-0.3,0-0.5,0-0.5l-2-2.6l-1.4-0.5l0.3-1.2c0,0-1.4-2.3-1.6-2.7c-0.2-0.4,0-0.6,0-0.6L207.6,59.1 M207.6,58.9L207.6,58.9
								l-0.7,0.8c0,0-0.2,0.3,0,0.7c0.2,0.4,1.4,2.4,1.6,2.7l-0.3,1.2l0,0.1l0.1,0l1.4,0.5l1.9,2.6c0,0,0,0,0,0c0,0,0.1,0.2,0,0.5
								c-0.1,0.3-0.2,0.3-0.2,0.3l0,0l0,0l0.4,0.5l0.1,0.1L212,69c0,0,0.2-0.2,0.3-0.3c0.1-0.1,0.2-0.4,0.2-0.7
								c0-0.2-0.1-0.3-0.2-0.5c-0.4-0.8-2-2.8-2.2-3l0-1.1l0,0l0,0l-0.9-0.4c-0.1-0.2-1.2-1.7-1.5-2.3c-0.1-0.2-0.2-0.4,0.1-0.7
								c0.2-0.3,0.4-0.4,0.4-0.4l0.1,0l-0.1-0.1L207.6,58.9L207.6,58.9L207.6,58.9z"/>
						</g>
					</g>
				</g>
				<path class="st4" d="M209.7,61.8l0.2,0.7l0.7,0.9l0.4,0.3l-0.8,0.8l-1-2.7c0,0,2-2,2.6-2.7c1.2-1.3,3.3-4,4.2-5.4
					c1.3-2,2.4-3.7,3.2-5c0.7-1.2,2.7-4.8,2.7-4.8s-2.2,4.8-3,6c-0.8,1.2-3.1,4.7-4,5.8C214.1,56.9,209.8,61.8,209.7,61.8z"/>
			</g>
		</g>
	</g>
</g>
</svg>
