<svg id="Capa_1" data-name="Capa 1" xmlns="http://www.w3.org/2000/svg" viewBox="0 0 399.78 511.99"><defs><style>.cls-1,.cls-2{fill:#fff;}.cls-2{fill-rule:evenodd;}</style></defs><title>patient-record</title><path class="cls-1" d="M384.26,64.13H367.71V47.58A15.53,15.53,0,0,0,352.2,32.06H95.2V23.53a23.53,23.53,0,0,0-47.06,0v8.53H15.52A15.53,15.53,0,0,0,0,47.58V464.42a15.53,15.53,0,0,0,15.52,15.52H32.07v16.54A15.53,15.53,0,0,0,47.58,512H384.26a15.53,15.53,0,0,0,15.52-15.52V79.65A15.53,15.53,0,0,0,384.26,64.13ZM63.1,23.53a8.53,8.53,0,0,1,17.06,0v8.53H63.1Zm321.68,473a.52.52,0,0,1-.52.52H47.58a.51.51,0,0,1-.51-.51h0V479.94H352.2a15.53,15.53,0,0,0,15.51-15.52V119.72a7.5,7.5,0,1,0-15,0v344.7a.51.51,0,0,1-.5.52H15.52a.52.52,0,0,1-.52-.52V47.58a.51.51,0,0,1,.51-.51H48.1V71.63a23.54,23.54,0,0,0,47.07,0,7.5,7.5,0,0,0-15,0,8.54,8.54,0,0,1-17.07,0V47.06H352.2a.53.53,0,0,1,.51.52V87.66a7.5,7.5,0,1,0,15,0V79.13h16.55a.52.52,0,0,1,.52.52Z" transform="translate(0 -0.01)"/><path class="cls-1" d="M296.08,288.58H135.76a7.5,7.5,0,0,0,0,15H296.08a7.5,7.5,0,0,0,0-15Z" transform="translate(0 -0.01)"/><path class="cls-1" d="M95.68,288.58h-24a7.5,7.5,0,0,0,0,15h24a7.5,7.5,0,0,0,0-15Z" transform="translate(0 -0.01)"/><path class="cls-1" d="M296.08,336.68H135.76a7.5,7.5,0,0,0,0,15H296.08a7.5,7.5,0,0,0,0-15Z" transform="translate(0 -0.01)"/><path class="cls-1" d="M296.08,384.77H135.76a7.5,7.5,0,0,0,0,15H296.08a7.5,7.5,0,0,0,0-15Z" transform="translate(0 -0.01)"/><path class="cls-1" d="M95.68,336.68h-24a7.5,7.5,0,0,0,0,15h24a7.5,7.5,0,0,0,0-15Z" transform="translate(0 -0.01)"/><path class="cls-1" d="M95.68,384.77h-24a7.5,7.5,0,0,0,0,15h24a7.5,7.5,0,0,0,0-15Z" transform="translate(0 -0.01)"/><path class="cls-2" d="M247,124.56s-35.14-17.65-60.11,11.6c-24.79,29.24-2.67,60.46-2.67,60.46s28.53,33.53,63.13,13.37c0,0-26.75,30.5-69.38,10.35-45.83-27.65-30.32-78.12-16.05-91.85C172.3,116.36,208.86,92.28,247,124.56Z" transform="translate(0 -0.01)"/></svg>