<?xml version="1.0" encoding="utf-8"?>
<!-- Generator: Adobe Illustrator 23.0.6, SVG Export Plug-In . SVG Version: 6.00 Build 0)  -->
<svg version="1.1" id="Layer_1" xmlns="http://www.w3.org/2000/svg" xmlns:xlink="http://www.w3.org/1999/xlink" x="0px" y="0px"
	 viewBox="0 0 494 364.2" style="enable-background:new 0 0 494 364.2;" xml:space="preserve">
<style type="text/css">
	.st0{fill:#283772;}
	.st1{fill-rule:evenodd;clip-rule:evenodd;fill:#EC312C;}
</style>
<title>ambulance</title>
<path class="st0" d="M36.1,169.7c0.8-0.7,1.7-1.3,2.7-1.7l37.1-55.7C85,98.4,100.5,90,117.1,90H168c0.2-27.2,22.3-49,49.5-49h97.6
	l5-34.2C320.7,2.9,324,0,328,0h34c4,0,7.3,2.9,7.9,6.8l5,34.1h111.4c4.2,0,7.6,3.4,7.7,7.6c0,0.1,0,0.3,0,0.4v254.9
	c0,4.4-3.2,8.1-7.6,8.1h-36.7c-3.8,29-29,52.2-59.4,52.2S334.7,341,330.9,312H176.2c-3.8,29-29,52.2-59.3,52.2S61.3,341,57.5,312
	H7.7c-4.4,0-7.7-3.7-7.7-8.1v-78c0-13.4,5.4-26.3,15-35.6L36.1,169.7z M117.1,106c-11.2,0-21.7,5.6-27.9,15l-30.8,46H168v-61
	L117.1,106z M355.1,16h-20.2l-3.7,25h27.5L355.1,16z M390.3,348c24.2,0,43.9-19.6,43.9-43.9s-19.6-43.9-43.9-43.9
	s-43.9,19.6-43.9,43.9l0,0C346.4,328.3,366,348,390.3,348L390.3,348z M116.9,348c24.2,0,43.9-19.6,43.9-43.9s-19.6-43.9-43.9-43.9
	S73,279.9,73,304.1l0,0C73,328.3,92.6,348,116.9,348L116.9,348z M16,296h41.6c4.6-32.7,34.8-55.5,67.6-51c26.5,3.7,47.2,24.5,51,51
	H331c4.6-32.7,34.8-55.6,67.5-51c26.5,3.7,47.3,24.5,51,51H478V57H217.5C199,57,184,72,184,90.4l0,0v85c0,4.4-3.6,7.6-8,7.6H44.9
	l-18.8,18.5c-6.5,6.4-10.1,15.2-10.1,24.3V296z"/>
<path class="st0" d="M287,85.4c20,0.1,39.4,7,55,19.6h50.2c4.4,0,8,3.6,8,8s-3.6,8-8,8h-35c8,11,13.3,23.6,15.6,37H453
	c4.4,0,8,3.6,8,8s-3.6,8-8,8h-79c-0.3,14.7-4.2,29.1-11.4,42h48c4.4,0,8,3.6,8,8s-3.6,8-8,8h-59.7c-16.5,17.7-39.7,27.7-63.9,27.7
	c-48,0-87-39.2-87-87.2S239,85.4,287,85.4z M287,243.5c39.2,0,71-31.8,71-71s-31.8-71-71-71s-71,31.8-71,71l0,0
	C216,211.7,247.8,243.5,287,243.5z"/>
<image style="display:none;overflow:visible;" width="103" height="121" xlink:href="8B6BFC0F.png"  transform="matrix(0.5447 0 0 0.5447 336.2521 146.9674)">
</image>
<path class="st1" d="M314.8,148.2c0,0-19.7-9.9-33.7,6.5c-13.9,16.4-1.5,33.9-1.5,33.9s16,18.8,35.4,7.5c0,0-15,17.1-38.9,5.8
	c-25.7-15.5-17-43.8-9-51.5C272.9,143.6,293.4,130.1,314.8,148.2z"/>
</svg>
