<svg id="line_icons" data-name="line icons" xmlns="http://www.w3.org/2000/svg" viewBox="0 0 391.97 481.51"><defs><style>.cls-1{fill:#fff;}</style></defs><title>career</title><path class="cls-1" d="M452,498.16H73.85a6.92,6.92,0,0,1-6.92-6.92v-116a6.92,6.92,0,0,1,6.92-6.92h80.3V331.11a6.92,6.92,0,0,1,6.92-6.92h92.76V280.06a6.92,6.92,0,0,1,6.92-6.92h83.36V226.68a6.91,6.91,0,0,1,6.91-6.92H452a6.91,6.91,0,0,1,6.91,6.92V491.24A6.91,6.91,0,0,1,452,498.16ZM80.77,484.32h364.3V233.6H357.94v46.46A6.92,6.92,0,0,1,351,287H267.67v44.13a6.92,6.92,0,0,1-6.92,6.92H168v37.18a6.92,6.92,0,0,1-6.92,6.92H80.77Z" transform="translate(-66.93 -16.65)"/><path class="cls-1" d="M100.83,365.84a23.27,23.27,0,0,1-18.34-37.52l44.18-60.78,13.5-111-10.81,4.76-13.74,24.12A20.26,20.26,0,0,1,80,166.05l18.81-36.17a23.65,23.65,0,0,1,8.93-9.44l41-24.27a31.55,31.55,0,0,1,27.89-2l38.86,15.91a31.33,31.33,0,0,1,14,11.31L243,141.1l27.39-8A20.63,20.63,0,0,1,283,172.42l-37.11,12.92a23.67,23.67,0,0,1-23.37-4.62l-6.44-5.67-2.16,21.34a57.07,57.07,0,0,1,30.37,56.22l-4.76,63A23.52,23.52,0,0,1,192.6,312c0-.19,0-.37.05-.56l4.15-56.73A8.41,8.41,0,0,0,183.48,247a8.32,8.32,0,0,0-3.37,5.65l-3.58,27.38a26.15,26.15,0,0,1-6.07,13.5l-51.79,64.07a23.57,23.57,0,0,1-17.84,8.21Zm47.68-227.46a6.91,6.91,0,0,1,6.92,6.91,7.58,7.58,0,0,1-.05.84L140.16,271a6.84,6.84,0,0,1-1.28,3.24L93.52,336.61a9.54,9.54,0,0,0-2,7.26,9.35,9.35,0,0,0,3.68,6.3,9.5,9.5,0,0,0,12.85-1.39l51.71-64,.15-.18a12.27,12.27,0,0,0,2.89-6.38l3.58-27.38a22.24,22.24,0,0,1,25-19.05l.86.13a22.37,22.37,0,0,1,18.32,23.89l-4.15,56.74a9.69,9.69,0,0,0,19.27,2,1.5,1.5,0,0,0,0-.22l4.76-63a43.2,43.2,0,0,0-25.6-44L204,207a6.92,6.92,0,0,1-4.4-7.15l4-39.68a6.92,6.92,0,0,1,11.46-4.49l16.53,14.6a9.83,9.83,0,0,0,9.69,1.91l37.11-12.92a6.79,6.79,0,0,0-4.15-12.93l-32.24,9.36a6.9,6.9,0,0,1-7.61-2.73l-16.36-23.88a17.48,17.48,0,0,0-7.82-6.32L171.4,106.9A17.57,17.57,0,0,0,155.81,108l-41,24.31a9.87,9.87,0,0,0-3.7,3.91L92.34,172.43a6.43,6.43,0,0,0,11.28,6.15l14.87-26.09a6.9,6.9,0,0,1,3.22-2.91l24-10.6a6.92,6.92,0,0,1,2.76-.6Z" transform="translate(-66.93 -16.65)"/><path class="cls-1" d="M210.69,102.52a42.8,42.8,0,1,1,2.69-.08C212.48,102.5,211.58,102.52,210.69,102.52ZM208.9,30.57a29.1,29.1,0,1,0,30.85,27.24h0a28.87,28.87,0,0,0-30.41-27.26Z" transform="translate(-66.93 -16.65)"/></svg>