<svg id="Icons" xmlns="http://www.w3.org/2000/svg" viewBox="0 0 484.32 484.32"><defs><style>.cls-1{fill:#fff;}</style></defs><title>document</title><path class="cls-1" d="M355.32,498.16H20.76a6.92,6.92,0,0,1-6.92-6.92V20.76a6.92,6.92,0,0,1,6.92-6.92H256.69a6.88,6.88,0,0,1,4.89,2l98.63,98.65a6.88,6.88,0,0,1,2,4.89V491.24A6.92,6.92,0,0,1,355.32,498.16ZM27.68,484.32H348.4v-362L253.81,27.68H27.68Z" transform="translate(-13.84 -13.84)"/><path class="cls-1" d="M355.32,126.33H256.69a6.92,6.92,0,0,1-6.92-6.92V20.76a6.92,6.92,0,0,1,13.84,0v91.73h91.71a6.92,6.92,0,1,1,0,13.84Z" transform="translate(-13.84 -13.84)"/><path class="cls-1" d="M290.82,194.62H77.67a6.92,6.92,0,0,1,0-13.84H290.82a6.92,6.92,0,0,1,0,13.84Z" transform="translate(-13.84 -13.84)"/><path class="cls-1" d="M290.82,260.39H77.67a6.92,6.92,0,1,1,0-13.83H290.82a6.92,6.92,0,0,1,0,13.83Z" transform="translate(-13.84 -13.84)"/><path class="cls-1" d="M290.82,326.16H77.67a6.92,6.92,0,1,1,0-13.84H290.82a6.92,6.92,0,0,1,0,13.84Z" transform="translate(-13.84 -13.84)"/><path class="cls-1" d="M290.82,391.93H77.67a6.92,6.92,0,1,1,0-13.84H290.82a6.92,6.92,0,0,1,0,13.84Z" transform="translate(-13.84 -13.84)"/><path class="cls-1" d="M491.24,391.49h-83a6.92,6.92,0,0,1-6.92-6.92V112.35A14.34,14.34,0,0,1,415.63,98h65.73a16.82,16.82,0,0,1,16.8,16.84V384.57A6.92,6.92,0,0,1,491.24,391.49Zm-76.1-13.84h69.18V114.85a3,3,0,0,0-3-3H415.63a.49.49,0,0,0-.49.49h0Z" transform="translate(-13.84 -13.84)"/><path class="cls-1" d="M449.73,483.18a6.92,6.92,0,0,1-6.3-4.07l-41.52-91.69a6.92,6.92,0,0,1,6.31-9.77h83a6.92,6.92,0,0,1,6.92,6.92,7,7,0,0,1-.61,2.85L456,479.11A6.92,6.92,0,0,1,449.73,483.18Zm-30.79-91.69,30.79,68,30.79-68Z" transform="translate(-13.84 -13.84)"/><path class="cls-1" d="M491.24,188.48h-83a6.92,6.92,0,0,1,0-13.84h83a6.92,6.92,0,1,1,0,13.84Z" transform="translate(-13.84 -13.84)"/><path class="cls-1" d="M449.73,391.49a6.92,6.92,0,0,1-6.92-6.92v-203a6.92,6.92,0,1,1,13.84,0v203A6.92,6.92,0,0,1,449.73,391.49Z" transform="translate(-13.84 -13.84)"/></svg>