<svg id="Capa_1" data-name="Capa 1" xmlns="http://www.w3.org/2000/svg" viewBox="0 0 368 420.96"><defs><style>.cls-1{fill:#72767b;}</style></defs><title>headphones</title><path class="cls-1" d="M354.48,144a144,144,0,0,0-288,0c-20.56,2.56-40,16-40,47.2v75.2c0,35.2,24.64,48,48,48h23.2a8,8,0,0,0,8-8V151.52a8,8,0,0,0-8-8H82.48a128,128,0,0,1,256,0h-15.2a8,8,0,0,0-8,8V306.16a8,8,0,0,0,8,8h15.2c-2.24,55-28.64,67.84-81.36,70.16V379a16,16,0,0,0-16-16H190.8a16,16,0,0,0-16,16v26a16,16,0,0,0,16,16h50.48a16,16,0,0,0,16-16v-4.64c50.72-2.32,94.56-12.8,97.2-86.64,20.56-2.56,40-16,40-47.2v-75.2C394.48,159.92,375.12,146.56,354.48,144ZM89.68,159v139.2H74.08c-11.84,0-32-4.16-32-32V191c0-27.6,19.92-32,32-32Zm151.6,233.92V405H190.8V379h50.48ZM378.48,266.4c0,27.6-19.92,32-32,32h-15.2V159.52h15.6c11.84,0,32,4.16,32,32Z" transform="translate(-26.48)"/></svg>