<svg id="Layer_1" data-name="Layer 1" xmlns="http://www.w3.org/2000/svg" viewBox="0 0 512 409.6"><defs><style>.cls-1{fill:#fff;}</style></defs><title>laptop</title><g id="Page-1"><path id="Shape" class="cls-1" d="M392.53,145.07A17.08,17.08,0,0,0,375.47,128H307.2a17.09,17.09,0,0,0-17.07,17.07v68.26A17.09,17.09,0,0,0,307.2,230.4h68.27a17.08,17.08,0,0,0,17.06-17.07Zm-17.06,68.26H307.2V145.07h68.27Z" transform="translate(0 -51.2)"/><path class="cls-1" d="M392.53,349.87V332.8a8.53,8.53,0,1,0-17.06,0v17.07H307.2V281.6h42.67a8.54,8.54,0,0,0,0-17.07H307.2a17.09,17.09,0,0,0-17.07,17.07v68.27a17.08,17.08,0,0,0,17.07,17.06h68.27A17.08,17.08,0,0,0,392.53,349.87Z" transform="translate(0 -51.2)"/><path class="cls-1" d="M128,153.6h25.6a8.54,8.54,0,0,0,0-17.07H128a8.54,8.54,0,0,0,0,17.07Z" transform="translate(0 -51.2)"/><path class="cls-1" d="M247.47,136.53H187.73a8.54,8.54,0,0,0,0,17.07h59.74a8.54,8.54,0,0,0,0-17.07Z" transform="translate(0 -51.2)"/><path class="cls-1" d="M247.47,170.67H128a8.53,8.53,0,0,0,0,17.06H247.47a8.53,8.53,0,1,0,0-17.06Z" transform="translate(0 -51.2)"/><path class="cls-1" d="M196.27,213.33a8.53,8.53,0,0,0-8.54-8.53H128a8.54,8.54,0,0,0,0,17.07h59.73A8.54,8.54,0,0,0,196.27,213.33Z" transform="translate(0 -51.2)"/><path class="cls-1" d="M247.47,204.8h-25.6a8.54,8.54,0,1,0,0,17.07h25.6a8.54,8.54,0,0,0,0-17.07Z" transform="translate(0 -51.2)"/><path class="cls-1" d="M128,273.07a8.53,8.53,0,1,0,0,17.06h25.6a8.53,8.53,0,1,0,0-17.06Z" transform="translate(0 -51.2)"/><path class="cls-1" d="M247.47,273.07H187.73a8.53,8.53,0,1,0,0,17.06h59.74a8.53,8.53,0,1,0,0-17.06Z" transform="translate(0 -51.2)"/><path class="cls-1" d="M247.47,307.2H128a8.54,8.54,0,0,0,0,17.07H247.47a8.54,8.54,0,0,0,0-17.07Z" transform="translate(0 -51.2)"/><path class="cls-1" d="M187.73,341.33H128a8.54,8.54,0,0,0,0,17.07h59.73a8.54,8.54,0,1,0,0-17.07Z" transform="translate(0 -51.2)"/><path class="cls-1" d="M247.47,341.33h-25.6a8.54,8.54,0,1,0,0,17.07h25.6a8.54,8.54,0,0,0,0-17.07Z" transform="translate(0 -51.2)"/><path class="cls-1" d="M394.24,250.88l-45.3,60.4-10.11-10.11a8.53,8.53,0,0,0-12.06,12.06l17.06,17.07a8.54,8.54,0,0,0,6,2.5l.6,0a8.53,8.53,0,0,0,6.22-3.39l51.2-68.27a8.53,8.53,0,1,0-13.65-10.24Z" transform="translate(0 -51.2)"/><path class="cls-1" d="M110.93,85.33H102.4a8.54,8.54,0,0,0,0,17.07h8.53a8.54,8.54,0,1,0,0-17.07Z" transform="translate(0 -51.2)"/><path class="cls-1" d="M145.07,102.4h281.6a8.54,8.54,0,0,0,0-17.07H145.07a8.54,8.54,0,1,0,0,17.07Z" transform="translate(0 -51.2)"/><path class="cls-1" d="M469.33,51.2H101A42,42,0,0,0,59.73,93.87V392.53H8.53A8.53,8.53,0,0,0,0,401.07v8.53a51.26,51.26,0,0,0,51.2,51.2H460.8A51.26,51.26,0,0,0,512,409.6V93.87A42.72,42.72,0,0,0,469.33,51.2Zm25.6,42.67V392.53h-25.6V93.87a43.14,43.14,0,0,0-8.46-25.6h8.46A25.61,25.61,0,0,1,494.93,93.87Zm-418.13,0A24.93,24.93,0,0,1,101,68.27H428.09a25,25,0,0,1,24.18,25.6V392.53H76.8ZM17.07,409.6H307.2a50.88,50.88,0,0,0,13.15,34.13H51.2A34.17,34.17,0,0,1,17.07,409.6ZM460.8,443.73H358.4a34.17,34.17,0,0,1-34.13-34.13H494.93A34.17,34.17,0,0,1,460.8,443.73Z" transform="translate(0 -51.2)"/></g></svg>