<svg id="Capa_1" data-name="Capa 1" xmlns="http://www.w3.org/2000/svg" viewBox="0 0 248.35 234.26"><defs><style>.cls-1{fill:#fff;}</style></defs><title>male-user</title><path class="cls-1" d="M10,241.3H238.39a10.34,10.34,0,0,0,7.81-3.41,8.43,8.43,0,0,0,2.08-6.72,125.68,125.68,0,0,0-66.15-95.06,81.85,81.85,0,0,1-115.91,0A125.65,125.65,0,0,0,.07,231.17a8.46,8.46,0,0,0,2.08,6.72A10.34,10.34,0,0,0,10,241.3Z" transform="translate(0 -7.04)"/><path class="cls-1" d="M72.7,127.09c1.33,1.4,2.72,2.73,4.16,4a70.71,70.71,0,0,0,94.62,0c1.44-1.29,2.84-2.62,4.17-4s2.62-2.83,3.84-4.33a71.12,71.12,0,1,0-110.63,0C70.07,124.26,71.37,125.69,72.7,127.09Z" transform="translate(0 -7.04)"/></svg>