<svg id="Capa_1" data-name="Capa 1" xmlns="http://www.w3.org/2000/svg" viewBox="0 0 399.77 512"><defs><style>.cls-1{fill:#fff;}</style></defs><title>record</title><path class="cls-1" d="M440.37,64.13H423.82V47.58a15.53,15.53,0,0,0-15.51-15.52h-257V23.53a23.53,23.53,0,0,0-47.06,0v8.53H71.63A15.53,15.53,0,0,0,56.11,47.58V464.42a15.53,15.53,0,0,0,15.52,15.52H88.18v16.54A15.53,15.53,0,0,0,103.69,512H440.37a15.53,15.53,0,0,0,15.52-15.52V79.65a15.53,15.53,0,0,0-15.52-15.52ZM119.21,23.53a8.53,8.53,0,0,1,17.06,0v8.53H119.21Zm321.68,473a.52.52,0,0,1-.52.52H103.69a.51.51,0,0,1-.51-.52V479.94H408.31a15.53,15.53,0,0,0,15.51-15.52V119.72a7.5,7.5,0,1,0-15,0v344.7a.51.51,0,0,1-.51.52H71.63a.52.52,0,0,1-.52-.52V47.58a.51.51,0,0,1,.52-.51h32.58V71.63a23.54,23.54,0,0,0,47.07,0,7.5,7.5,0,0,0-15,0,8.54,8.54,0,0,1-17.07,0V47.06h289.1a.52.52,0,0,1,.51.52V87.66a7.5,7.5,0,1,0,15,0V79.13h16.55a.52.52,0,0,1,.52.52Z" transform="translate(-56.11 0)"/><path class="cls-1" d="M216.44,223.94A15.53,15.53,0,0,0,232,239.45h16a15.53,15.53,0,0,0,15.52-15.51V191.36h32.58a15.53,15.53,0,0,0,15.52-15.52v-16a15.53,15.53,0,0,0-15.52-15.52H263.5V111.71A15.53,15.53,0,0,0,248,96.19H232a15.53,15.53,0,0,0-15.51,15.52v32.58H183.85a15.53,15.53,0,0,0-15.51,15.52v16a15.53,15.53,0,0,0,15.51,15.52h32.59Zm-32.58-47.59a.51.51,0,0,1-.52-.51v-16a.52.52,0,0,1,.52-.52h40.08a7.5,7.5,0,0,0,7.5-7.5V111.71a.51.51,0,0,1,.51-.52h16a.52.52,0,0,1,.52.52v40.08a7.5,7.5,0,0,0,7.5,7.5h40.08a.52.52,0,0,1,.52.52v16a.51.51,0,0,1-.52.51H256a7.5,7.5,0,0,0-7.5,7.5v40.08a.52.52,0,0,1-.52.52H232a.51.51,0,0,1-.51-.52V183.85a7.5,7.5,0,0,0-7.5-7.5Z" transform="translate(-56.11 0)"/><path class="cls-1" d="M352.19,288.58H191.87a7.5,7.5,0,0,0,0,15H352.19a7.5,7.5,0,0,0,0-15Z" transform="translate(-56.11 0)"/><path class="cls-1" d="M151.79,288.58h-24a7.5,7.5,0,0,0,0,15h24a7.5,7.5,0,1,0,0-15Z" transform="translate(-56.11 0)"/><path class="cls-1" d="M352.19,336.68H191.87a7.5,7.5,0,1,0,0,15H352.19a7.5,7.5,0,0,0,0-15Z" transform="translate(-56.11 0)"/><path class="cls-1" d="M352.19,384.77H191.87a7.5,7.5,0,0,0,0,15H352.19a7.5,7.5,0,1,0,0-15Z" transform="translate(-56.11 0)"/><path class="cls-1" d="M151.79,336.68h-24a7.5,7.5,0,0,0,0,15h24a7.5,7.5,0,1,0,0-15Z" transform="translate(-56.11 0)"/><path class="cls-1" d="M151.79,384.77h-24a7.5,7.5,0,0,0,0,15h24a7.5,7.5,0,0,0,0-15Z" transform="translate(-56.11 0)"/></svg>