<svg id="Layer_1" data-name="Layer 1" xmlns="http://www.w3.org/2000/svg" viewBox="0 0 494 364.2"><defs><style>.cls-1,.cls-2{fill:#5f5e5e;}.cls-2{fill-rule:evenodd;}</style></defs><title>ambulance-blue-grey</title><path class="cls-1" d="M36.1,169.7a9.4,9.4,0,0,1,2.7-1.7l37.1-55.7A49.29,49.29,0,0,1,117.1,90H168a49.38,49.38,0,0,1,49.5-49h97.6l5-34.2A8,8,0,0,1,328,0h34a8,8,0,0,1,7.9,6.8l5,34.1H486.3a7.75,7.75,0,0,1,7.7,7.6V303.8c0,4.4-3.2,8.1-7.6,8.1H449.7c-3.8,29-29,52.2-59.4,52.2S334.7,341,330.9,312H176.2c-3.8,29-29,52.2-59.3,52.2S61.3,341,57.5,312H7.7A7.85,7.85,0,0,1,0,304V225.9a49.6,49.6,0,0,1,15-35.6Zm81-63.7a33.41,33.41,0,0,0-27.9,15L58.4,167H168V106Zm238-90H334.9l-3.7,25h27.5Zm35.2,332a43.9,43.9,0,1,0-43.9-43.9h0A43.89,43.89,0,0,0,390.28,348Zm-273.4,0A43.9,43.9,0,1,0,73,304.1h0A43.89,43.89,0,0,0,116.88,348ZM16,296H57.6a59.88,59.88,0,0,1,118.6,0H331a59.82,59.82,0,0,1,118.5,0H478V57H217.5A33.47,33.47,0,0,0,184,90.4h0v85a7.7,7.7,0,0,1-7.77,7.61H44.9L26.1,201.5A34.12,34.12,0,0,0,16,225.8Z" transform="translate(0)"/><path class="cls-1" d="M287,85.4A88.19,88.19,0,0,1,342,105h50.2a8,8,0,0,1,0,16h-35a88.06,88.06,0,0,1,15.6,37H453a8,8,0,0,1,0,16H374a89.89,89.89,0,0,1-11.4,42h48a8,8,0,0,1,0,16H350.9A87.38,87.38,0,0,1,287,259.7c-48,0-87-39.2-87-87.2A87.15,87.15,0,0,1,287,85.4Zm0,158.1a71,71,0,1,0-71-71h0A71,71,0,0,0,287,243.5Z" transform="translate(0)"/><path class="cls-2" d="M314.8,148.2s-19.7-9.9-33.7,6.5-1.5,33.9-1.5,33.9,16,18.8,35.4,7.5c0,0-15,17.1-38.9,5.8-25.7-15.5-17-43.8-9-51.5C272.9,143.6,293.4,130.1,314.8,148.2Z" transform="translate(0)"/></svg>