<svg id="Layer_1" data-name="Layer 1" xmlns="http://www.w3.org/2000/svg" viewBox="0 0 512 512"><defs><style>.cls-1{fill:#243a76;}</style></defs><title>approach</title><path class="cls-1" d="M437,75a256.2,256.2,0,0,0-296.3-47.62A258.48,258.48,0,0,0,68.09,82.19L72.5,55.73A8.29,8.29,0,1,0,56.14,53l-8.85,53.08a8.3,8.3,0,0,0,8.19,9.65,7.8,7.8,0,0,0,1.36-.11l53.08-8.85a8.29,8.29,0,1,0-2.73-16.36L78.66,95.18a241.5,241.5,0,0,1,69.54-53A239.46,239.46,0,0,1,495.41,256a240,240,0,0,1-27.3,111.15,8.3,8.3,0,0,0,3.48,11.2,8.3,8.3,0,0,0,11.2-3.49A256.16,256.16,0,0,0,437,75Z"/><path class="cls-1" d="M462.39,398.68a8.31,8.31,0,0,0-7.23-2.31l-53.08,8.85a8.29,8.29,0,1,0,2.73,16.36l28.53-4.76a239.45,239.45,0,0,1-389.45-272,8.29,8.29,0,1,0-14.68-7.71A256,256,0,0,0,443.9,429.87l-4.4,26.4a8.29,8.29,0,0,0,6.81,9.54,8,8,0,0,0,1.38.11,8.29,8.29,0,0,0,8.17-6.93l8.84-53.08A8.31,8.31,0,0,0,462.39,398.68Z"/><path class="cls-1" d="M348,227.39A12.61,12.61,0,0,0,337,221.17H276.92l39.9-103.74a8.29,8.29,0,0,0-7.74-11.27H220.61a8.29,8.29,0,0,0-8.09,6.5L178.33,266.51A12.71,12.71,0,0,0,190.74,282h55.93l-16.6,141.13a8.28,8.28,0,0,0,5.72,8.87,8.13,8.13,0,0,0,2.52.39,8.31,8.31,0,0,0,7.28-4.32L348.18,240A12.62,12.62,0,0,0,348,227.39Zm-96.4,155.09,12.69-107.82A8.29,8.29,0,0,0,256,265.4H195.57l31.7-142.65H297L257.11,226.48a8.28,8.28,0,0,0,7.74,11.27H330.5Z"/></svg>