<svg id="Layer_1" data-name="Layer 1" xmlns="http://www.w3.org/2000/svg" viewBox="0 0 512.22 512.18"><defs><style>.cls-1{fill:#5f5e5e;}</style></defs><title>approach-grey</title><path class="cls-1" d="M437,75A255.71,255.71,0,0,0,68.09,82.19L72.5,55.73A8.29,8.29,0,0,0,56.14,53l-8.85,53.08a8.3,8.3,0,0,0,6.84,9.54,8.78,8.78,0,0,0,1.35.11,7.72,7.72,0,0,0,1.36-.11l53.08-8.85a8.29,8.29,0,1,0-2.73-16.36L78.66,95.18a241.53,241.53,0,0,1,69.54-53c118.11-59.51,262.09-12,321.6,106.1a239.64,239.64,0,0,1-1.69,218.87,8.29,8.29,0,1,0,14.68,7.71A256.17,256.17,0,0,0,437,75Z" transform="translate(0.22 -0.01)"/><path class="cls-1" d="M462.39,398.68a8.31,8.31,0,0,0-7.23-2.31l-53.08,8.85a8.29,8.29,0,0,0,2.73,16.36h0l28.53-4.76C344.48,514.76,193,522.12,95.11,433.25A239.44,239.44,0,0,1,43.89,144.82a8.29,8.29,0,0,0-14.68-7.71C-36.55,262.27,11.59,417,136.75,482.81A256,256,0,0,0,443.9,429.87l-4.4,26.4a8.3,8.3,0,0,0,6.81,9.54,8,8,0,0,0,1.38.11,8.28,8.28,0,0,0,8.17-6.93l8.84-53.08A8.31,8.31,0,0,0,462.39,398.68Z" transform="translate(0.22 -0.01)"/><path class="cls-1" d="M348,227.39a12.61,12.61,0,0,0-11-6.22H276.92l39.9-103.74a8.29,8.29,0,0,0-4.76-10.72,8.42,8.42,0,0,0-3-.55H220.61a8.28,8.28,0,0,0-8.09,6.5L178.33,266.51A12.7,12.7,0,0,0,188,281.69a12.49,12.49,0,0,0,2.79.31h55.93l-16.6,141.13a8.3,8.3,0,0,0,15.52,4.94L348.18,240A12.6,12.6,0,0,0,348,227.39ZM251.6,382.48l12.69-107.82a8.28,8.28,0,0,0-7.26-9.2,8.89,8.89,0,0,0-1-.06H195.57l31.7-142.65H297L257.11,226.48a8.28,8.28,0,0,0,4.73,10.71,8.37,8.37,0,0,0,3,.56H330.5Z" transform="translate(0.22 -0.01)"/></svg>