<svg xmlns="http://www.w3.org/2000/svg" viewBox="0 0 59.5 51.68"><defs><style>.cls-1{fill:none;stroke:#515151;stroke-miterlimit:10;stroke-width:1.5px;}</style></defs><title>audit</title><g id="Layer_2" data-name="Layer 2"><g id="Layer_1-2" data-name="Layer 1"><path class="cls-1" d="M18.83,47.27H4.61A3.86,3.86,0,0,1,.75,43.41V4.61A3.86,3.86,0,0,1,4.61.75h42.3a3.86,3.86,0,0,1,3.87,3.86V8.09"/><path class="cls-1" d="M48.08,17.51a16.09,16.09,0,1,0,0,22.75A16.09,16.09,0,0,0,48.08,17.51Z"/><line class="cls-1" x1="7.4" y1="11.72" x2="23.71" y2="11.72"/><line class="cls-1" x1="8.56" y1="22.19" x2="16.27" y2="22.19"/><line class="cls-1" x1="7.4" y1="33.63" x2="15.56" y2="33.63"/><path class="cls-1" d="M44.91,42.67,52.23,50a3.2,3.2,0,0,0,4.53,0l1.05-1.05a3.2,3.2,0,0,0,0-4.53l-7.32-7.32-.92,1.69L48.2,40.31l-1.81,1.57Z"/></g></g></svg>