<svg xmlns="http://www.w3.org/2000/svg" viewBox="0 0 50.89 58.46"><defs><style>.cls-1{fill:none;stroke:#515151;stroke-miterlimit:10;stroke-width:1.5px;}</style></defs><title>award</title><g id="Layer_2" data-name="Layer 2"><g id="Layer_1-2" data-name="Layer 1"><path class="cls-1" d="M40.1,57.71H10.79a1,1,0,0,1-1-1V56.3a4.49,4.49,0,0,1,4.48-4.48H36.61a4.48,4.48,0,0,1,4.47,4.48v.43A1,1,0,0,1,40.1,57.71Z"/><path class="cls-1" d="M34.28,51.82H16.6V44.88a1.14,1.14,0,0,1,1.14-1.14H33.15a1.14,1.14,0,0,1,1.13,1.14Z"/><path class="cls-1" d="M22.36,34.5S23,41.87,17,43.84"/><path class="cls-1" d="M28.52,34.5s-.66,7.37,5.32,9.34"/><path class="cls-1" d="M25.44,35.34h0C16.8,35.34,9.8,22.22,9.8,12.55V2.48A1.74,1.74,0,0,1,11.53.75H39.35a1.74,1.74,0,0,1,1.74,1.73V12.55C41.09,22.22,34.08,35.34,25.44,35.34Z"/><path class="cls-1" d="M12.14,23.35C5.92,20.82,2.53,13.73.93,9.14A3.12,3.12,0,0,1,3.88,5H9.42"/><path class="cls-1" d="M38.74,23.35C45,20.82,48.36,13.73,50,9.14A3.12,3.12,0,0,0,47,5H41.46"/><path class="cls-1" d="M25.74,10.07l1.74,3.52a.35.35,0,0,0,.25.19l3.89.56a.34.34,0,0,1,.19.57L29,17.65a.33.33,0,0,0-.09.3l.66,3.87a.33.33,0,0,1-.48.35L25.6,20.34a.34.34,0,0,0-.31,0l-3.48,1.83a.33.33,0,0,1-.48-.35L22,18a.34.34,0,0,0-.1-.3l-2.81-2.74a.33.33,0,0,1,.19-.57l3.88-.56a.36.36,0,0,0,.26-.19l1.73-3.52A.33.33,0,0,1,25.74,10.07Z"/></g></g></svg>