<svg id="Layer_1" data-name="Layer 1" xmlns="http://www.w3.org/2000/svg" xmlns:xlink="http://www.w3.org/1999/xlink" viewBox="0 0 68.43 52.34"><defs><style>.cls-1,.cls-3{fill:none;}.cls-2{clip-path:url(#clip-path);}.cls-3{stroke:#a4a9af;stroke-miterlimit:10;stroke-width:1.5px;}</style><clipPath id="clip-path"><rect class="cls-1" x="-5.31" y="-16.1" width="79.26" height="84.44"/></clipPath></defs><title>blended</title><g class="cls-2"><polyline class="cls-3" points="39.34 33.89 4.77 33.89 4.77 0.93 23.6 0.93 49.91 0.93 63.38 0.93 63.38 12.89"/><polyline class="cls-3" points="39.53 39.73 4.32 39.73 1.32 35.69 1.32 33.89 6.52 33.89"/><polygon class="cls-3" points="35.17 22.84 30.67 24.44 28.91 28.88 26.93 20.89 35.17 22.84"/><line class="cls-3" x1="35.63" y1="29.24" x2="30.67" y2="24.44"/><line class="cls-3" x1="10.69" y1="22.16" x2="23.02" y2="22.16"/><line class="cls-3" x1="10.69" y1="16.36" x2="30.81" y2="16.36"/><line class="cls-3" x1="10.69" y1="10.55" x2="30.81" y2="10.55"/><g class="cls-2"><rect class="cls-3" x="39.88" y="13.34" width="27.44" height="37.97" rx="3.46"/><line class="cls-3" x1="44.16" y1="22.46" x2="63.03" y2="22.46"/><line class="cls-3" x1="44.16" y1="29.02" x2="63.03" y2="29.02"/><line class="cls-3" x1="44.16" y1="35.57" x2="63.03" y2="35.57"/><line class="cls-3" x1="44.16" y1="42.12" x2="63.03" y2="42.12"/></g></g></svg>