<svg id="Capa_1" data-name="Capa 1" xmlns="http://www.w3.org/2000/svg" viewBox="0 0 32.5 36.45"><defs><style>.cls-1{fill:#919191;}</style></defs><title>calendar</title><path class="cls-1" d="M30.22,4H29.13V2.75a2.67,2.67,0,1,0-5.34,0V4H21.05V2.75a2.67,2.67,0,1,0-5.34,0V4H13V2.75a2.67,2.67,0,1,0-5.34,0V4H6.22A4.25,4.25,0,0,0,2,8.2v24a4.26,4.26,0,0,0,4.25,4.25h24a4.25,4.25,0,0,0,4.25-4.25V8.2A4.25,4.25,0,0,0,30.22,4Zm-4.93-1.2a1.17,1.17,0,1,1,2.34,0v4.9a1.17,1.17,0,1,1-2.34,0Zm-8.08,0a1.17,1.17,0,1,1,2.34,0v4.9a1.17,1.17,0,1,1-2.34,0Zm-8.08,0a1.17,1.17,0,1,1,2.34,0v4.9a1.17,1.17,0,1,1-2.34,0ZM32,32.2A1.75,1.75,0,0,1,30.22,34h-24A1.76,1.76,0,0,1,4.47,32.2v-22H32Z" transform="translate(-1.97)"/><rect class="cls-1" x="4.75" y="14.63" width="4.6" height="4.09"/><rect class="cls-1" x="10.88" y="14.63" width="4.6" height="4.09"/><rect class="cls-1" x="17.02" y="14.63" width="4.59" height="4.09"/><rect class="cls-1" x="23.15" y="14.63" width="4.6" height="4.09"/><rect class="cls-1" x="4.75" y="20.08" width="4.6" height="4.09"/><rect class="cls-1" x="10.88" y="20.08" width="4.6" height="4.09"/><rect class="cls-1" x="17.02" y="20.08" width="4.59" height="4.09"/><rect class="cls-1" x="23.15" y="20.08" width="4.6" height="4.09"/><rect class="cls-1" x="4.75" y="25.54" width="4.6" height="4.09"/><rect class="cls-1" x="10.88" y="25.54" width="4.6" height="4.09"/><rect class="cls-1" x="17.02" y="25.54" width="4.59" height="4.09"/><rect class="cls-1" x="23.15" y="25.54" width="4.6" height="4.09"/></svg>