<svg id="Layer_1" data-name="Layer 1" xmlns="http://www.w3.org/2000/svg" viewBox="0 0 149.98 150.08"><defs><style>.cls-1{fill:#fff;}</style></defs><title>career</title><path class="cls-1" d="M149.14,63.1a3,3,0,0,0-2.65-.8l-25.26,5.08a2.93,2.93,0,0,0-2.34,3.43,2.88,2.88,0,0,0,.84,1.57l3.42,3.41-13.4,13.36L99.37,78.77a2.92,2.92,0,0,0-4.13,0h0L82.49,91.51l4.74-17.17a13.76,13.76,0,0,0-8.42-16.55l3.82-10.91c1.06.09,2.11.14,3.15.14A36.42,36.42,0,0,0,109,38.62l.7-.58A8.12,8.12,0,0,0,99.64,25.28l-.23.18-.79.66a20.73,20.73,0,0,1-3.8,2.49,12.16,12.16,0,0,1-13.91-2.45,13.39,13.39,0,1,0-14.68-4.91,15.24,15.24,0,0,0-7.87,4.44,2.38,2.38,0,0,0-.35.36,39.74,39.74,0,0,1-20,13.14A8.17,8.17,0,0,0,33.23,43l-6-6a6.74,6.74,0,0,0-9.53,0L9.83,44.87h0L2,52.73a6.74,6.74,0,0,0,0,9.53L23.62,83.91a6.74,6.74,0,0,0,9.53,0l8.14-8.14L37.43,85.89A2.93,2.93,0,0,0,42.91,88l9.61-25.2H74a7.86,7.86,0,0,1,7.88,7.86,7.78,7.78,0,0,1-.29,2.14L75,96.69a2.49,2.49,0,0,1-3,1.78,2.47,2.47,0,0,1-1.83-2.78l3.54-22.33A2.89,2.89,0,0,0,73,71a2.93,2.93,0,0,0-2.23-1h-7a2.93,2.93,0,0,0-2.51,1.58c-.17.34-17.17,34-22.9,45.31a3,3,0,0,1-3.1,1.61h-.14a2.85,2.85,0,0,1-2.45-3.21,2.38,2.38,0,0,1,.16-.65l1.81-4.74a2.93,2.93,0,1,0-5.48-2.08l-1.9,4.71a8.74,8.74,0,0,0,5.13,11.25,9.15,9.15,0,0,0,1.87.47h.13a8.08,8.08,0,0,0,1.2.09,8.87,8.87,0,0,0,7.92-4.86c5-9.93,18.61-36.84,22.09-43.7h1.71l-3,18.88A8.35,8.35,0,0,0,70,103.93L37.38,136.62a2.92,2.92,0,0,0,0,4.14h0l8.4,8.4a2.92,2.92,0,0,0,2.07.86,3,3,0,0,0,2.08-.86L66.08,133a2.93,2.93,0,1,0-4-4.31l-.17.17L47.85,143l-4.26-4.26L97.3,85l10.38,10.38a2.92,2.92,0,0,0,4.13,0h0l17.55-17.55a2.92,2.92,0,0,0,0-4.14h0l-1.62-1.62,15.57-3.13-3.09,15.57-2.41-2.41a2.92,2.92,0,0,0-4.14,0h0L109.79,106,99.37,95.58a2.93,2.93,0,0,0-4.14,0L78.51,112.3a2.93,2.93,0,0,0,4.15,4.14h0L97.3,101.8l10.38,10.38a2.93,2.93,0,0,0,4.14,0l23.89-23.93,4.2,4.21a2.94,2.94,0,0,0,5-1.5l5.08-25.25A3,3,0,0,0,149.14,63.1ZM77,5.86a7.52,7.52,0,1,1-7.52,7.52h0A7.54,7.54,0,0,1,77,5.86ZM48,57.8l-3.56-3.55q2.54-.82,5-1.89ZM38.12,47.63a2.26,2.26,0,0,1,1.54-2.8h0A45.67,45.67,0,0,0,53,38.5l-1.66,6.36a50.66,50.66,0,0,1-10.44,4.33h-.21A2.26,2.26,0,0,1,39.23,49l-.86-.86A2.73,2.73,0,0,1,38.12,47.63ZM21.83,41.15a.9.9,0,0,1,.62-.25.89.89,0,0,1,.62.25L33.75,51.83a7.9,7.9,0,0,0,1.76,1.75l9.22,9.23a.88.88,0,0,1,0,1.24l-5.79,5.79L32.51,63.4l1.22-1.23a2.92,2.92,0,0,0,0-4.13h0l-6.59-6.59a2.92,2.92,0,0,0-4.14,0h0l-1.22,1.22L16,46.94Zm4,20.63a1.1,1.1,0,0,1-.78.32,1.06,1.06,0,0,1-.77-.32h0l-.9-.9a1.11,1.11,0,0,1,0-1.56l1.67-1.67,2.46,2.45Zm3.17,18a.88.88,0,0,1-1.24,0L6.11,58.11a.89.89,0,0,1,0-1.24l5.79-5.79,6,6A7,7,0,0,0,19.23,65l.89.9h0a7,7,0,0,0,8,1.35L34.83,74ZM70.86,56.92H54.29l6-23.14a9.39,9.39,0,0,1,9.09-7,9.2,9.2,0,0,1,6.87,3,18.07,18.07,0,0,0,21.23,4.08,25.59,25.59,0,0,0,4.9-3.22l.8-.66a2.33,2.33,0,0,1,1.7-.51,2.26,2.26,0,0,1,1.54.88,2.34,2.34,0,0,1-.44,3.2l-.7.58a30.46,30.46,0,0,1-24.16,6.63,2.93,2.93,0,0,0-3.22,1.93l-5,14.2Z" transform="translate(0 0.05)"/><path class="cls-1" d="M72.35,119.78a2.94,2.94,0,1,0,2.07.86A2.92,2.92,0,0,0,72.35,119.78Z" transform="translate(0 0.05)"/><path class="cls-1" d="M36,100.83a2.92,2.92,0,0,0,2.93-2.93A2.93,2.93,0,1,0,36,100.83Z" transform="translate(0 0.05)"/></svg>