<svg id="Capa_1" data-name="Capa 1" xmlns="http://www.w3.org/2000/svg" viewBox="0 0 512.03 493.04"><defs><style>.cls-1{fill:#5f5e5e;}</style></defs><title>certified-grey</title><path class="cls-1" d="M256,64a39.25,39.25,0,1,0,39.25,39.25A39.25,39.25,0,0,0,256,64Zm0,63.5a24.25,24.25,0,1,1,24.25-24.25A24.25,24.25,0,0,1,256,127.52Z"/><path class="cls-1" d="M341,243.07a7.5,7.5,0,0,0,0-15H171a7.5,7.5,0,0,0,0,15Z"/><path class="cls-1" d="M73.5,278.65a7.5,7.5,0,0,0,7.5,7.5H431a7.5,7.5,0,0,0,0-15H81a7.5,7.5,0,0,0-7.5,7.5Z"/><path class="cls-1" d="M306,374.54a7.5,7.5,0,0,0,0-15H206a7.5,7.5,0,1,0,0,15Z"/><path class="cls-1" d="M488.5,75.25H334.18q-1.37-3.8-3.09-7.45l7.28-7.26a14.82,14.82,0,0,0,0-20.93l-18.7-18.7a14.82,14.82,0,0,0-20.93,0l-7.28,7.28q-3.65-1.73-7.44-3.09V14.8A14.82,14.82,0,0,0,269.22,0H242.78A14.82,14.82,0,0,0,228,14.8V25.09q-3.8,1.36-7.44,3.09l-7.28-7.28a14.82,14.82,0,0,0-20.93,0l-18.7,18.7a14.82,14.82,0,0,0,0,20.93l7.28,7.27q-1.73,3.66-3.09,7.45H23.5A23.52,23.52,0,0,0,0,98.75v76.79a7.5,7.5,0,0,0,15,0V98.75a8.52,8.52,0,0,1,8.5-8.5H152.73v26.29a14.82,14.82,0,0,0,14.8,14.8h10.29q1.37,3.79,3.09,7.44l-7.28,7.28a14.79,14.79,0,0,0,0,20.92h0c19.54,19.54,19.22,19.4,21.08,20.63a14.77,14.77,0,0,0,16.21,0h0c1.77-1.17,2.21-1.78,9.59-9.17,2.47,1.17,5,2.21,7.45,3.09v10.2a14.8,14.8,0,0,0,14.8,14.8h26.46A14.82,14.82,0,0,0,284,191.74V181.45q3.79-1.37,7.44-3.09c7.62,7.62,8,8.12,9.68,9.22a14.8,14.8,0,0,0,18.53-1.94l18.7-18.7a14.8,14.8,0,0,0,0-20.93l-7.28-7.28q1.73-3.64,3.09-7.44h10.29a14.8,14.8,0,0,0,14.81-14.75V90.25H488.5a8.52,8.52,0,0,1,8.5,8.5v313a8.52,8.52,0,0,1-8.5,8.5h-33v-2.08a67.75,67.75,0,0,0-82.58-107.43q-2.16,1.67-4.19,3.5H81a7.5,7.5,0,0,0,0,15H356.3a67.72,67.72,0,0,0,16.44,88.93v2.08H23.5a8.52,8.52,0,0,1-8.5-8.5V210.54a7.5,7.5,0,0,0-15,0H0V411.73a23.52,23.52,0,0,0,23.5,23.5H372.74v50.31a7.5,7.5,0,0,0,12.17,5.86l29.22-23.29,29.23,23.29a7.49,7.49,0,0,0,12.17-5.86v-9a7.49,7.49,0,0,0-13.09-5l-23.63-18.83a7.5,7.5,0,0,0-9.35,0L387.74,470V426.93a67.9,67.9,0,0,0,52.79,0v14.61a7.5,7.5,0,0,0,15,0v-6.28h33a23.52,23.52,0,0,0,23.5-23.5v-313a23.52,23.52,0,0,0-23.5-23.5Zm-144.23,41H328.71a7.49,7.49,0,0,0-7.22,5.47,68.67,68.67,0,0,1-6.11,14.82,7.49,7.49,0,0,0,1.23,9l11,11L309.2,175l-11-11a7.51,7.51,0,0,0-9-1.23,67.84,67.84,0,0,1-14.74,6.11,7.49,7.49,0,0,0-5.47,7.22v15.48H243V176a7.49,7.49,0,0,0-5.47-7.22c-14.36-4-15.92-9.16-21.72-6.3a7.42,7.42,0,0,0-2,1.42l-11,11L184.4,156.46l11-11a7.49,7.49,0,0,0,1.23-9A67.73,67.73,0,0,1,190.91,123c-.13-.43-.27-.87-.39-1.3a7.49,7.49,0,0,0-7.22-5.47H167.73v-26h15.56a7.51,7.51,0,0,0,7.22-5.47A67.84,67.84,0,0,1,196.62,70a7.5,7.5,0,0,0-1.23-9l-11-11L202.8,31.63l11,11a7.48,7.48,0,0,0,9,1.24,67.84,67.84,0,0,1,14.74-6.11A7.5,7.5,0,0,0,243,30.54V15h26V30.54a7.49,7.49,0,0,0,5.47,7.22,67.84,67.84,0,0,1,14.74,6.11,7.48,7.48,0,0,0,9-1.24l11-11L327.62,50l-11,11a7.5,7.5,0,0,0-1.23,9,67.84,67.84,0,0,1,6.11,14.74,7.51,7.51,0,0,0,7.22,5.47h15.56Zm69.87,301a52.77,52.77,0,1,1,52.76-52.78v.07a52.79,52.79,0,0,1-52.76,52.73Z"/><path class="cls-1" d="M414.14,326.16a38.34,38.34,0,1,0,38.33,38.38A38.35,38.35,0,0,0,414.14,326.16Zm0,61.68a23.34,23.34,0,1,1,23.33-23.35v.05A23.37,23.37,0,0,1,414.14,387.84Z"/></svg>