<svg xmlns="http://www.w3.org/2000/svg" id="Capa_1" data-name="Capa 1" viewBox="0 0 438.53 438.53"><defs fill="#000000"><style>.cls-1{fill:#b5a03a;}</style></defs><title>chevron-sign-to-right</title><path class="cls-1" d="M409.13,109.2a218.33,218.33,0,0,0-79.8-79.79Q278.95,0,219.27,0T109.21,29.41a218.33,218.33,0,0,0-79.8,79.79Q0,159.6,0,219.27T29.41,329.33a218.36,218.36,0,0,0,79.8,79.8q50.39,29.4,110.06,29.4t110.06-29.4a218.44,218.44,0,0,0,79.8-79.8q29.4-50.4,29.4-110.06T409.13,109.2Zm-74.8,122.91L204.71,361.74a17.93,17.93,0,0,1-25.37.33l-.33-.33-29.12-29.13a17.93,17.93,0,0,1-.33-25.37l.33-.33,87.65-87.64-87.65-87.65a17.92,17.92,0,0,1-.36-25.34l.36-.36L179,76.79a17.93,17.93,0,0,1,25.37-.33l.33.33L334.33,206.41a17.93,17.93,0,0,1,.33,25.37l-.33.33Z" fill="#000000"/></svg>