<svg xmlns="http://www.w3.org/2000/svg" viewBox="0 0 62.58 59.89"><defs><style>.cls-1{fill:none;stroke:#a4a9af;stroke-miterlimit:10;stroke-width:1.5px;}</style></defs><title>classroom</title><g id="Layer_2" data-name="Layer 2"><g id="Layer_1-2" data-name="Layer 1"><rect class="cls-1" x="0.75" y="0.75" width="61.08" height="58.39" rx="3.43"/><polyline class="cls-1" points="56.75 53.42 56.75 6.47 5.83 6.47 5.83 53.42 35.87 53.42"/><path class="cls-1" d="M36.59,25.42a5.54,5.54,0,0,0-5.3-5.76A5.54,5.54,0,0,0,26,25.42a5.55,5.55,0,0,0,5.3,5.77A5.55,5.55,0,0,0,36.59,25.42Z"/><path class="cls-1" d="M20.91,40.78V39.55a3.39,3.39,0,0,1,.66-2,10.77,10.77,0,0,1,8.75-4.26h1.94A10.77,10.77,0,0,1,41,37.53a3.38,3.38,0,0,1,.65,2v1.23"/><path class="cls-1" d="M22,25.06a4.12,4.12,0,0,0-3.93-4.28,4.12,4.12,0,0,0-3.93,4.28,4.12,4.12,0,0,0,3.93,4.28A4.12,4.12,0,0,0,22,25.06Z"/><path class="cls-1" d="M10.37,36.45v-.91a2.49,2.49,0,0,1,.49-1.5,8,8,0,0,1,6.49-3.16h1.44a8.24,8.24,0,0,1,4.93,1.6"/><path class="cls-1" d="M40.58,25.06a3.94,3.94,0,1,1,7.86,0,3.94,3.94,0,1,1-7.86,0Z"/><path class="cls-1" d="M52.21,36.45v-.91a2.49,2.49,0,0,0-.49-1.5,8,8,0,0,0-6.49-3.16H43.79a8.24,8.24,0,0,0-4.93,1.6"/><rect class="cls-1" x="38.33" y="51.72" width="15.57" height="3.56"/></g></g></svg>