<svg id="Layer_1" data-name="Layer 1" xmlns="http://www.w3.org/2000/svg" viewBox="0 0 494.34 503.24"><defs><style>.cls-1{fill:#b0976f;}</style></defs><title>contact-postbox</title><g id="Page-1"><path id="Shape" class="cls-1" d="M157.53,97.1a87.71,87.71,0,0,0-85.15,70.62H203a26.49,26.49,0,0,1,26.48,26.48h0V317.79a25.85,25.85,0,0,1-1.62,8.83h14.87a4.43,4.43,0,0,0,4.41-4.41V188.38A90.84,90.84,0,0,0,157.53,97.1Z"/><path class="cls-1" d="M123,276.24a26.6,26.6,0,0,1-34.2,0l-7-5.91L15.28,326.62h181.3L130,270.31Z"/><path class="cls-1" d="M211.86,316.43V201.07L143.7,258.75Z"/><path class="cls-1" d="M111.6,262.79,203,185.38H8.83l91.44,77.38A8.84,8.84,0,0,0,111.6,262.79Zm-41-50.93A8.83,8.83,0,0,1,79.4,203h53a8.83,8.83,0,1,1,0,17.66h-53a8.84,8.84,0,0,1-8.83-8.8Z"/><path class="cls-1" d="M0,201.07V316.43l68.17-57.68Z"/><path class="cls-1" d="M406.07,97.1H309V53h61.8a8.84,8.84,0,0,0,8.82-8.83V8.83A8.82,8.82,0,0,0,370.77,0h-70.6a8.83,8.83,0,0,0-8.83,8.83V97.1h-74a105.94,105.94,0,0,1,47.51,88.28V322.21a4.4,4.4,0,0,0,4.41,4.41H489.93a4.4,4.4,0,0,0,4.41-4.41h0V185.38A88.29,88.29,0,0,0,406.07,97.1Zm70.62,194.21A17.66,17.66,0,0,1,459.06,309H388.41a17.66,17.66,0,0,1-17.65-17.66V256a17.66,17.66,0,0,1,17.65-17.66H459A17.66,17.66,0,0,1,476.69,256h0Z"/><path class="cls-1" d="M313.38,344.28a4.4,4.4,0,0,0-4.42,4.4h0v128a8.83,8.83,0,1,1-17.65.59,5.8,5.8,0,0,1,0-.59v-128a4.4,4.4,0,0,0-4.41-4.41H269.24a4.4,4.4,0,0,0-4.41,4.39V498.76a4.4,4.4,0,0,0,4.39,4.41h0c13.91,0,56.75.09,70.62.06a4.4,4.4,0,0,0,4.41-4.41h0V348.74a4.4,4.4,0,0,0-4.39-4.41h0Z"/><rect id="Rectangle-path" class="cls-1" x="388.41" y="256" width="70.63" height="35.31" rx="4.41"/></g></svg>