<svg id="Capa_1" data-name="Capa 1" xmlns="http://www.w3.org/2000/svg" viewBox="0 0 512 352"><defs><style>.cls-1{fill:#243a76;}</style></defs><title>contact-email</title><polygon class="cls-1" points="339.39 178.62 512 287.74 512 64.9 339.39 178.62"/><polygon class="cls-1" points="0 64.9 0 287.74 172.61 178.62 0 64.9"/><path class="cls-1" d="M480,0H32C16,0,3.36,11.9,1,27.23l255,168,255-168C508.64,11.9,496,0,480,0Z"/><path class="cls-1" d="M310.08,198,264.8,227.78a16.1,16.1,0,0,1-17.6,0l-45.28-29.86L1,325c2.47,15.2,15.08,27,31,27H480c15.9,0,28.51-11.81,31-27Z"/></svg>