<svg id="Capa_1" data-name="Capa 1" xmlns="http://www.w3.org/2000/svg" viewBox="0 0 150.64 150.67"><defs><style>.cls-1{fill:#fff;}</style></defs><title>crescent</title><path class="cls-1" d="M145,101.89a71.44,71.44,0,0,1-29.77,6.42A72.5,72.5,0,0,1,42.82,35.9,71.49,71.49,0,0,1,49.24,6.12L52,.09,46,2.81A77.4,77.4,0,1,0,148.33,105.19l2.71-6Zm-31.64,34.53A72.41,72.41,0,1,1,42.17,10.3a76.71,76.71,0,0,0-4.34,25.6,77.49,77.49,0,0,0,77.41,77.4A76.65,76.65,0,0,0,140.83,109,72.42,72.42,0,0,1,113.37,136.42Z" transform="translate(-0.4 -0.09)"/></svg>