<svg id="Capa_1" enable-background="new 0 0 512 512" height="512" viewBox="0 0 512 512" width="512" xmlns="http://www.w3.org/2000/svg"><g><path d="m512 236.575c0 51.84-41.74 94.01-93.04 94.01h-315.93c-56.81 0-103.03-46.71-103.03-104.13 0-27.59 10.57-53.59 29.76-73.21 16.33-16.7 37.3-27.14 60-30.08 8.11-32.72 26.26-62.37 51.91-84.43 29.04-24.98 66.05-38.73 104.21-38.73 3.39 0 6.76.11 10.12.32 36.45 2.27 70.6 16.81 97.73 41.64 5.64-.87 11.36-1.3 17.1-1.3 61.78 0 112.04 50.26 112.04 112.04 0 4.89-.32 9.79-.96 14.64 19.23 17.78 30.09 42.53 30.09 69.23z" fill="#00c2f3"/><path d="m512 236.575c0 51.84-41.74 94.01-93.04 94.01h-162.96v-330.26c36.45 2.27 70.6 16.81 97.73 41.64 5.64-.87 11.36-1.3 17.1-1.3 61.78 0 112.04 50.26 112.04 112.04 0 4.89-.32 9.79-.96 14.64 19.23 17.78 30.09 42.53 30.09 69.23z" fill="#1e90ff"/><path d="m373.21 394.545-117.21 117.45-117.21-117.45 21.23-21.19 32.9 32.97v-215.56h126.16v215.56l32.9-32.97z" fill="#d4f4ee"/><path d="m373.21 394.545-117.21 117.45v-321.23h63.08v215.56l32.9-32.97z" fill="#b0daed"/></g></svg>