<svg id="Layer_1" data-name="Layer 1" xmlns="http://www.w3.org/2000/svg" viewBox="0 0 492 421.85"><defs><style>.cls-1{fill:#243a76;}</style></defs><title>ecg</title><path class="cls-1" d="M397.61,193.74H347.43a6,6,0,0,0-5.09,2.81l-16.28,26-16.51-31.62a6,6,0,0,0-11,.75l-25.85,71.83-26.59-76.58a6,6,0,0,0-10.64-1.4L211.6,220.75,190,147.52a6,6,0,0,0-11.42-.27l-27.4,79H114.39a6,6,0,0,0,0,12h41.05a6,6,0,0,0,5.67-4l22.67-65.33,19.9,67.46A6,6,0,0,0,214.4,238l24.33-35.83L267,283.49a6,6,0,0,0,5.63,4h0a6,6,0,0,0,5.64-4l27-74.93,15,28.77a6,6,0,0,0,10.4.41l20.08-32.06h46.86a6,6,0,0,0,0-12Z" transform="translate(-10 -45.07)"/><path class="cls-1" d="M458,45.07H54a44.05,44.05,0,0,0-44,44V393.84a44.05,44.05,0,0,0,44,44h9.63v23.09a6,6,0,0,0,6,6h66.84a6,6,0,0,0,6-6h0V437.84H369.53v23.09a6,6,0,0,0,6,6h66.84a6,6,0,0,0,6-6h0V437.84H458a44.05,44.05,0,0,0,44-44V89.07A44.05,44.05,0,0,0,458,45.07ZM130.47,454.93H75.63V437.84h54.84Zm305.9,0H381.53V437.84h54.84ZM490,393.84a32,32,0,0,1-32,32H54a32,32,0,0,1-32-32V353.65H490ZM63.74,341.65V116a14,14,0,0,1,14-14H434.26a14,14,0,0,1,14,14v225.7Zm426.26,0H460.26V116a26,26,0,0,0-26-26H77.74a26,26,0,0,0-26,26v225.7H22V89.07a32,32,0,0,1,32-32H458a32,32,0,0,1,32,32Z" transform="translate(-10 -45.07)"/><path class="cls-1" d="M55.15,406.68a16.08,16.08,0,1,0-16-16.1v0A16.08,16.08,0,0,0,55.15,406.68Zm0-20.15a4.08,4.08,0,1,1-4,4.09v0A4.07,4.07,0,0,1,55.15,386.53Z" transform="translate(-10 -45.07)"/><path class="cls-1" d="M101.91,406.68a16.08,16.08,0,1,0-16-16.1v0A16.09,16.09,0,0,0,101.91,406.68Zm0-20.15a4.08,4.08,0,1,1-4,4.1v0A4.07,4.07,0,0,1,101.91,386.53Z" transform="translate(-10 -45.07)"/><path class="cls-1" d="M297.81,406.68a16.08,16.08,0,1,0-16.05-16.1v0A16.09,16.09,0,0,0,297.81,406.68Zm0-20.15a4.08,4.08,0,1,1-4.05,4.1v0A4.07,4.07,0,0,1,297.81,386.53Z" transform="translate(-10 -45.07)"/><path class="cls-1" d="M344.58,406.68a16.08,16.08,0,1,0-16.06-16.1v0A16.1,16.1,0,0,0,344.58,406.68Zm0-20.15a4.08,4.08,0,1,1-4.06,4.1v0A4.07,4.07,0,0,1,344.58,386.53Z" transform="translate(-10 -45.07)"/><path class="cls-1" d="M390.17,406.68a16.08,16.08,0,1,0-16.05-16.1v0A16.08,16.08,0,0,0,390.17,406.68Zm0-20.15a4.08,4.08,0,1,1-4.05,4.1v0A4.06,4.06,0,0,1,390.17,386.53Z" transform="translate(-10 -45.07)"/><path class="cls-1" d="M449.79,406.68a16.08,16.08,0,1,0-16.05-16.1v0A16.08,16.08,0,0,0,449.79,406.68Zm0-20.15a4.08,4.08,0,1,1-4.05,4.1v0A4.06,4.06,0,0,1,449.79,386.53Z" transform="translate(-10 -45.07)"/><path class="cls-1" d="M81.51,114.65a6,6,0,0,0-6,6V123a6,6,0,0,0,12,0v-2.36A6,6,0,0,0,81.51,114.65Z" transform="translate(-10 -45.07)"/><path class="cls-1" d="M81.51,134.21a6,6,0,0,0-6,6v60.7a6,6,0,0,0,12,0v-60.7A6,6,0,0,0,81.51,134.21Z" transform="translate(-10 -45.07)"/></svg>