<svg id="Layer_1" data-name="Layer 1" xmlns="http://www.w3.org/2000/svg" viewBox="0 0 42.14 41.78"><defs><style>.cls-1,.cls-3{fill:#fff;}.cls-1{stroke:#fff;stroke-miterlimit:10;}.cls-2{fill:#243a76;}</style></defs><title>education-icon</title><path class="cls-1" d="M13.86,18.2a9.43,9.43,0,0,1,1-1,2.57,2.57,0,0,1,4,1.64,3.9,3.9,0,0,1-1.09,3.59c-.77.76-1.6,1.47-2.4,2.2-.5.45-1,.89-1.5,1.35L11.84,24.2c-.63-.57-1.27-1.13-1.87-1.73A3.88,3.88,0,0,1,8.9,18.85a2.59,2.59,0,0,1,4.27-1.4C13.43,17.69,13.66,18,13.86,18.2Z" transform="translate(-0.66 -1.03)"/><path class="cls-2" d="M13.37,23.32h0a.35.35,0,0,1-.3-.19l-.84-1.77-.49.64a.35.35,0,0,1-.27.13H9a.34.34,0,1,1,0-.67H11.3l.73-.95a.31.31,0,0,1,.3-.12.32.32,0,0,1,.27.19l.78,1.64L15,19.14a.33.33,0,0,1,.62,0l.75,2h3.22a.34.34,0,1,1,0,.67H16.11a.34.34,0,0,1-.32-.22l-.57-1.54-1.55,3a.35.35,0,0,1-.3.18" transform="translate(-0.66 -1.03)"/><line class="cls-1" x1="6.47" y1="4.89" x2="31.63" y2="4.89"/><line class="cls-1" x1="6.47" y1="8.64" x2="21.91" y2="8.64"/><line class="cls-1" x1="6.47" y1="12.58" x2="26.31" y2="12.58"/><path class="cls-3" d="M29,29.23a5.49,5.49,0,0,1-.5-1H26.89l.73,1Z" transform="translate(-0.66 -1.03)"/><path class="cls-3" d="M2.63,28.23a1,1,0,0,1-1-1V3a1,1,0,0,1,1-1H35.21a1,1,0,0,1,1,1V20.84a5.52,5.52,0,0,1,1,.41V3a2,2,0,0,0-2-2H2.63a2,2,0,0,0-2,2V27.26a2,2,0,0,0,2,2H25.15l-.73-1Z" transform="translate(-0.66 -1.03)"/><line class="cls-1" x1="22.39" y1="23.57" x2="28.58" y2="32.05"/><path class="cls-1" d="M39,26.34a4.85,4.85,0,1,0-4.85,4.85A4.84,4.84,0,0,0,39,26.34Z" transform="translate(-0.66 -1.03)"/><path class="cls-1" d="M42.31,41.6A8.42,8.42,0,0,0,34.12,33a8.42,8.42,0,0,0-8.19,8.62q0,.36,0,.72H42.28Q42.31,42,42.31,41.6Z" transform="translate(-0.66 -1.03)"/><polygon class="cls-2" points="32.96 33.46 32.11 38.38 32.69 39.22 33.65 38.42 33.44 33.46 32.96 33.46"/></svg>