<svg id="Layer_1" data-name="Layer 1" xmlns="http://www.w3.org/2000/svg" viewBox="0 0 496 400"><defs><style>.cls-1{fill:#243a76;}</style></defs><title>education-training</title><path class="cls-1" d="M480,56H32A24,24,0,0,0,8,80V352a24,24,0,0,0,24,24H197.39L186,416H152a8,8,0,0,0-8,8v16H80a8,8,0,0,0,0,16H432a8,8,0,0,0,0-16H368V424a8,8,0,0,0-8-8H326l-11.42-40H480a24,24,0,0,0,24-24V80A24,24,0,0,0,480,56ZM352,432v8H160v-8ZM202.61,416,214,376H298l11.42,40ZM488,352a8,8,0,0,1-8,8H32a8,8,0,0,1-8-8V336H488Zm0-32H24V80a8,8,0,0,1,8-8H480a8,8,0,0,1,8,8Z" transform="translate(-8 -56)"/><path class="cls-1" d="M384,201.38V160a8,8,0,0,0-4.62-7.25l-120-56a8,8,0,0,0-6.76,0l-120,56a8,8,0,0,0,0,14.5L176,187.49V280a8,8,0,0,0,8,8H328a8,8,0,0,0,8-8V187.49l32-14.93v28.82a24,24,0,1,0,16,0ZM320,272H192V195l60.62,28.29a8,8,0,0,0,6.76,0L320,195Zm-64-64.83L154.92,160,256,112.83,357.08,160ZM376,232a8,8,0,1,1,8-8A8,8,0,0,1,376,232Z" transform="translate(-8 -56)"/></svg>