<svg id="Layer_1" data-name="Layer 1" xmlns="http://www.w3.org/2000/svg" viewBox="0 0 496 400"><defs><style>.cls-1{fill:#5f5e5e;}</style></defs><title>education-training-grey</title><path class="cls-1" d="M472,0H24A24,24,0,0,0,0,24V296a24,24,0,0,0,24,24H189.39L178,360H144a8,8,0,0,0-8,8v16H72a8,8,0,0,0,0,16H424a8,8,0,0,0,0-16H360V368a8,8,0,0,0-8-8H318l-11.42-40H472a24,24,0,0,0,24-24V24A24,24,0,0,0,472,0ZM344,376v8H152v-8ZM194.61,360,206,320h84l11.42,40ZM480,296a8,8,0,0,1-8,8H24a8,8,0,0,1-8-8V280H480Zm0-32H16V24a8,8,0,0,1,8-8H472a8,8,0,0,1,8,8Z"/><path class="cls-1" d="M376,145.38V104a8,8,0,0,0-4.62-7.25l-120-56a8,8,0,0,0-6.76,0l-120,56a8,8,0,0,0,0,14.5L168,131.49V224a8,8,0,0,0,8,8H320a8,8,0,0,0,8-8V131.49l32-14.93v28.82a24,24,0,1,0,16,0ZM312,216H184V139l60.62,28.29a8,8,0,0,0,6.76,0L312,139Zm-64-64.83L146.92,104,248,56.83,349.08,104ZM368,176a8,8,0,1,1,8-8A8,8,0,0,1,368,176Z"/></svg>