<svg id="Layer_1" data-name="Layer 1" xmlns="http://www.w3.org/2000/svg" viewBox="0 0 40 40"><defs><style>.cls-1{fill:#5e5e5e;}</style></defs><title>envelop-circled</title><path class="cls-1" d="M20,0A20,20,0,1,0,40,20,20,20,0,0,0,20,0Zm0,38.33A18.33,18.33,0,1,1,38.33,20,18.33,18.33,0,0,1,20,38.33Z" transform="translate(0)"/><circle class="cls-1" cx="29.17" cy="17.5" r="0.83"/><path class="cls-1" d="M7.55,11.83c3.57,3,9.83,8.34,11.67,10a1.08,1.08,0,0,0,1.57,0c1.84-1.66,8.11-7,11.67-10a.54.54,0,0,0,.08-.75,2.18,2.18,0,0,0-1.7-.83H9.16a2.18,2.18,0,0,0-1.7.83A.56.56,0,0,0,7.55,11.83Z" transform="translate(0)"/><path class="cls-1" d="M32.68,13.47a.52.52,0,0,0-.57.08c-4,3.35-9,7.65-10.6,9.08a2.19,2.19,0,0,1-3,0c-1.69-1.52-7.36-6.34-10.59-9.08a.54.54,0,0,0-.76.06A.56.56,0,0,0,7,14V27.58a2.18,2.18,0,0,0,2.16,2.17H30.83A2.17,2.17,0,0,0,33,27.58V14A.54.54,0,0,0,32.68,13.47Z" transform="translate(0)"/></svg>