<svg id="Capa_1" data-name="Capa 1" xmlns="http://www.w3.org/2000/svg" viewBox="0 0 248.35 234.37"><defs><style>.cls-1{fill:#5a5a5a;}</style></defs><title>male-user-grey</title><path class="cls-1" d="M10,234.26H238.39a10.32,10.32,0,0,0,7.81-3.41,8.42,8.42,0,0,0,2.08-6.72,125.67,125.67,0,0,0-66.15-95.06,81.84,81.84,0,0,1-115.75.16l-.16-.16A125.63,125.63,0,0,0,.07,224.13a8.46,8.46,0,0,0,2.08,6.72A10.32,10.32,0,0,0,10,234.26Z" transform="translate(0 0.1)"/><path class="cls-1" d="M72.7,120.05q2,2.1,4.16,4a70.71,70.71,0,0,0,94.62,0c1.44-1.29,2.84-2.62,4.17-4s2.62-2.83,3.84-4.33a71.12,71.12,0,1,0-110.63,0C70.07,117.22,71.37,118.65,72.7,120.05Z" transform="translate(0 0.1)"/></svg>