<?xml version="1.0" encoding="utf-8"?>
<!-- Generator: Adobe Illustrator 27.7.0, SVG Export Plug-In . SVG Version: 6.00 Build 0)  -->
<svg version="1.1" id="Layer_1" xmlns="http://www.w3.org/2000/svg" xmlns:xlink="http://www.w3.org/1999/xlink" x="0px" y="0px"
	 viewBox="0 0 400.9 89.9" style="enable-background:new 0 0 400.9 89.9;" xml:space="preserve">
<style type="text/css">
	.st0{fill:#B59F3C;}
	.st1{fill:none;stroke:#8E7D2C;stroke-width:3.3833;stroke-miterlimit:10;}
	.st2{fill:#EDEDED;}
	.st3{fill:#8E7D2C;}
	.st4{fill:#FFFFFF;}
	.st5{fill:#FFFFFF;stroke:#B59F3C;stroke-width:0.3439;stroke-miterlimit:10;}
	.st6{fill:#B59F3C;stroke:#B59F3C;stroke-width:0.3439;stroke-miterlimit:10;}
	.st7{fill:#B99B2C;}
	.st8{fill:#B59F3C;stroke:#221E1F;stroke-width:7.777243e-02;stroke-miterlimit:10;}
	.st9{clip-path:url(#SVGID_00000154392197200987865390000001361006319834835611_);fill:#211F1F;}
	.st10{fill:#211F1F;}
	.st11{clip-path:url(#SVGID_00000042724299052231974890000015129349327718245797_);fill:#B59F3C;}
	.st12{clip-path:url(#SVGID_00000042724299052231974890000015129349327718245797_);fill:#211F1F;}
	.st13{clip-path:url(#SVGID_00000037671869045297157970000005121493155205570996_);fill:#211F1F;}
	
		.st14{clip-path:url(#SVGID_00000000214248536708773010000008918133948104538535_);fill:none;stroke:#221E1F;stroke-width:7.777243e-02;stroke-miterlimit:10;}
	.st15{clip-path:url(#SVGID_00000000214248536708773010000008918133948104538535_);}
	.st16{fill:none;stroke:#221E1F;stroke-width:7.777243e-02;stroke-miterlimit:10;}
	.st17{display:none;fill:#B99B2C;stroke:#221E1F;stroke-width:8.405880e-02;stroke-miterlimit:10;}
	.st18{clip-path:url(#SVGID_00000024715980774533765030000004604818690262279838_);}
	.st19{fill:#B99B2C;stroke:#221E1F;stroke-width:6.221788e-02;stroke-miterlimit:10;}
	
		.st20{clip-path:url(#SVGID_00000024715980774533765030000004604818690262279838_);fill:#B59F3C;stroke:#221E1F;stroke-width:6.221788e-02;stroke-miterlimit:10;}
	.st21{fill:#221E1F;}
	.st22{clip-path:url(#SVGID_00000152232581632782442860000005440198138378116761_);fill:#211F1F;}
	.st23{clip-path:url(#SVGID_00000145737447336859349730000006140060422590835635_);fill:#B59F3C;}
	.st24{clip-path:url(#SVGID_00000145737447336859349730000006140060422590835635_);fill:#211F1F;}
	.st25{clip-path:url(#SVGID_00000008858984538033929030000016357832817701255580_);fill:#211F1F;}
	
		.st26{clip-path:url(#SVGID_00000068646253838527445220000005426171163092565173_);fill:none;stroke:#221E1F;stroke-width:7.777243e-02;stroke-miterlimit:10;}
	.st27{clip-path:url(#SVGID_00000068646253838527445220000005426171163092565173_);}
	.st28{clip-path:url(#SVGID_00000163064571440997978430000008026508369653523345_);}
	
		.st29{clip-path:url(#SVGID_00000163064571440997978430000008026508369653523345_);fill:#B59F3C;stroke:#221E1F;stroke-width:6.221788e-02;stroke-miterlimit:10;}
</style>
<g>
	<g>
		<path class="st0" d="M280.4,0h-3v3h3V0z M285,11.7c0-3.6-2.5-6.4-6.1-6.4c-3.6,0-6.2,2.6-6.2,6.3c0,1.2,0.3,2.2,0.7,3.3h-4.5
			c-3.7,0-5.3-1.3-5.3-4.6V6.1h-3v4.1c0,5,2.8,7.7,8.4,7.7h9.9C282.5,17.9,285,15.3,285,11.7 M275.9,11.5c0-2.1,1.1-3.5,2.9-3.5
			c1.8,0,3.1,1.5,3.1,3.6c0,2-1.1,3.5-2.9,3.5C277.1,15.1,275.9,13.5,275.9,11.5 M292.3,17.9h18.6c2,0,4-0.7,6-2
			c0.5,0.5,1,1,1.8,1.3c0.8,0.4,1.7,0.7,2.4,0.7h35.3c3.1,0,5.3-2.6,5.3-6.5V5.5h-3.1v6.3c0,2-0.8,3-2.3,3h-3.6
			c0.4-0.4,0.6-1.6,0.6-3.3v-6h-3.1v6.3c0,2-0.8,3-2.3,3h-4.2v-0.2c0.3-0.5,0.5-1.5,0.5-3.2v-6h-3.1v6.1c0,2.2-0.8,3.2-2.3,3.2
			h-17.1c-0.7,0-1.1,0-1.2-0.1c-0.4-0.1-0.7-0.3-1.1-0.7c1-0.7,2-1.7,3.1-3.1c1-1.3,1.7-2.3,1.9-3c-2.2-1.9-4.8-2.8-7.8-2.8
			c-2.5,0-5,0.7-7.4,2.2v2.9c1,0.2,2.1,0.7,3.2,1.5c1.1,0.7,1.9,1.4,2.3,2c-0.7,0.4-1.3,0.7-2,0.8c-0.5,0.1-1.2,0.2-2.1,0.2h-16.8
			c-1.1,0-1.9-0.2-2.3-0.5c-0.6-0.4-0.9-1.3-0.9-2.6V0h-3v13c0,1.5,0.4,2.7,1.1,3.6C289.7,17.5,290.8,17.9,292.3,17.9 M312.7,8.9
			c1.4-0.7,2.8-1.1,4.2-1.1c1.4,0,2.7,0.4,4,1.1c-0.4,0.6-0.9,1.2-1.5,1.8c-0.7,0.7-1.4,1.2-2,1.5C316,10.6,314.4,9.5,312.7,8.9
			 M379.1,13.6V0h-3v11.6c0,1.2-0.3,2.1-0.8,2.6c-0.4,0.4-1,0.6-1.9,0.6L370,2.2h-3.2l3.4,12.6h-4.2v3.1h8.2
			C377.2,17.9,379.1,16.2,379.1,13.6 M366.2,23.5h4.7v-1.2h-2.2c-0.3-0.2-0.5-0.6-0.5-1c0-0.5,0.4-1.1,0.9-1.1
			c0.4,0,0.7,0.2,0.8,0.6l1-0.5c-0.4-0.8-1-1.3-1.7-1.3c-1.2,0-2.1,1-2.1,2.3c0,0.1,0.1,0.4,0.2,1h-1.1V23.5z M383.7,17.9h3V0h-3
			V17.9z"/>
		<g>
			<rect x="265.9" y="52.4" class="st0" width="3" height="3"/>
			<rect x="271.1" y="52.4" class="st0" width="3" height="3"/>
			<rect x="302.1" y="26.9" class="st0" width="3" height="3"/>
			<path class="st0" d="M335.6,32.4c-2.9,0-5.5,1.5-8,4.7l0.3-10.2h-3v14.8h-20.5c0.4-0.5,0.7-1.6,0.7-3.2v-6.1h-3v6.3
				c0,1-0.1,1.7-0.3,2.1c-0.3,0.6-2.2,0.9-3.1,0.9h-15.2c-1.6,0-2.6-0.8-3.8-2.9c-1.2-2.2-3-3.2-5.4-3.2H273v2.8c0.2,0,0.3,0,0.5,0
				c1.7,0,2.8,1.2,2.8,2.9c0,2.8-2.7,5.1-6.2,5.1c-4,0-6.4-2.7-6.4-6.9v-2.7h-3.1v3.1c0,5.4,4.2,9.5,9.4,9.5c4.5,0,8.1-2.7,9-7
				c1.1,1.7,2.1,2.3,4.8,2.4v0h58.8c0.1-1,0.1-1.9,0.1-2.8C342.7,35.6,340.4,32.4,335.6,32.4 M339.6,41.7h-12.3c1.9-3.9,5-6.6,8-6.6
				c2.7,0,4.2,2.3,4.2,5.7V41.7z"/>
			<path class="st0" d="M376.1,38.9c0,1-0.1,1.6-0.2,2c-0.3,0.6-0.9,0.9-1.9,0.9h-15.5v-3.2c0-3.6-2.3-6.2-5.7-6.2
				c-3.5,0-6.1,2.4-6.1,6.1c0,3.6,2.7,6.4,6,6.4h2.9c-0.4,1.5-1.5,2.1-3,2.1v2.4c3.6,0,5.6-1.5,6-4.5h16.1c3.1,0,4.6-1.6,4.6-5v-13
				h-3.1V38.9z M355.3,41.7h-2.7c-1.6,0-2.9-1.5-2.9-3.4c0-1.8,1.1-3.1,2.9-3.1c1.6,0,2.5,1.1,2.7,2.8V41.7z"/>
			<rect x="383.7" y="26.9" class="st0" width="3" height="17.9"/>
		</g>
		<g>
			<path class="st0" d="M138.6,17.9h1.8v-2.7H139c-0.9-0.1-1-0.3-1-1.1V0h-3.1v14.3c0,1,0.3,1.9,0.9,2.6
				C136.4,17.5,137.3,17.9,138.6,17.9"/>
			<polygon class="st0" points="24.6,11.5 17.1,0 14.2,0 14.2,17.9 17.4,17.9 17.4,6.4 25,17.9 27.9,17.9 27.9,0 24.6,0 			"/>
			<path class="st0" d="M58.3,1.5h-3.1v3.7h-1.4v2.5h1.4v6.5c0,0.9,0.3,1.9,0.9,2.6c0.6,0.7,1.5,1.1,2.8,1.1h1.8v-2.7h-1.3
				c-0.8,0-1-0.3-1.1-1.1V7.7h2.4V5.3h-2.4V1.5z"/>
			<path class="st0" d="M45,6c-0.9-0.8-2.3-1.1-4-1.1c-2.1,0-3.4,0.4-4.6,1.9L36.2,7l2.1,1.9l0.2-0.2c0.7-0.8,1.2-1.1,2.5-1.1
				c1.9,0.1,2.4,0.6,2.4,2v0.6h-3c-1.5,0-2.6,0.4-3.4,1.1c-0.8,0.7-1.2,1.7-1.2,2.8c0,1.1,0.4,2.1,1,2.9c0.8,0.8,2,1.2,3.5,1.2
				c0,0,0,0,0.1,0c1.3,0,2.2-0.3,2.9-0.9v0.8h3V9.4C46.4,8,45.9,6.8,45,6z M43.3,13.2c0,0.8-0.2,1.3-0.5,1.6
				c-0.6,0.5-1.2,0.6-2.1,0.6c-1.5,0-2-0.5-2-1.5c0-1,0.6-1.5,1.9-1.5h2.6V13.2z"/>
			<g>
				<rect x="69.3" y="5.1" class="st0" width="3.1" height="12.9"/>
				<rect x="69.2" class="st0" width="3.2" height="3.2"/>
			</g>
			<path class="st0" d="M124.1,6c-0.9-0.8-2.3-1.1-4-1.1c-2.1,0-3.4,0.4-4.6,1.9L115.3,7l2,1.9l0.2-0.2c0.7-0.8,1.2-1.1,2.5-1.1
				c1.9,0.1,2.4,0.6,2.4,2v0.6h-3c-1.5,0-2.6,0.4-3.4,1.1c-0.8,0.7-1.2,1.7-1.2,2.8c0,1.1,0.4,2.1,1,2.9c0.8,0.8,1.9,1.2,3.5,1.2
				c0,0,0,0,0.1,0c1.3,0,2.2-0.3,2.9-0.9v0.8h3V9.4C125.5,8,125,6.8,124.1,6z M122.4,13.2c0,0.8-0.2,1.3-0.5,1.6
				c-0.6,0.5-1.2,0.6-2.1,0.6c-1.5,0-1.9-0.5-2-1.5c0-1,0.5-1.5,1.9-1.5h2.6V13.2z"/>
			<path class="st0" d="M89.5,6.5c-0.9-0.9-2.2-1.5-3.9-1.5c-1.8,0-3,0.7-3.9,1.5c-1.2,1.3-1.5,3-1.5,5c0,2.1,0.3,3.8,1.5,5.1
				c0.9,0.9,2.1,1.5,3.9,1.5h0c1.8,0,3.1-0.7,3.9-1.5c1.3-1.3,1.5-2.9,1.5-5.1C91,9.4,90.7,7.7,89.5,6.5z M87.2,14.7
				c-0.4,0.4-1,0.6-1.6,0.7c-0.7,0-1.2-0.2-1.6-0.7c-0.7-0.6-0.8-1.8-0.8-3.2c0-1.3,0.1-2.5,0.8-3.2c0.4-0.4,0.9-0.6,1.6-0.6
				c0.7,0,1.2,0.2,1.6,0.6c0.6,0.6,0.8,1.8,0.8,3.2C88,12.8,87.8,14,87.2,14.7z"/>
			<path class="st0" d="M104.9,10.1v7.8h3.1V9.8c0-1.4-0.3-2.7-1.3-3.7c-0.8-0.8-1.9-1.2-3.2-1.2c-1.1,0-2.2,0.3-3,1V5.1h-3v12.9h3
				v-7.8c0-1.8,1-2.4,2.3-2.5C104,7.7,104.9,8.3,104.9,10.1"/>
		</g>
		<g>
			<path class="st0" d="M46.1,31.8c-1.6,0-2.8,0.5-3.9,1.6c-0.8-1.1-2.1-1.6-3.5-1.6c-1.1,0-2.2,0.3-3,1v-0.9h-3v12.9h3.1V37
				c0-1.8,1-2.4,2.3-2.5c1.3,0,2.2,0.7,2.2,2.5v7.8h3.1v-7.9c0-1.6,1-2.3,2.3-2.4c1.3,0,2.2,0.7,2.2,2.5v7.8h3.1v-8.2
				c0-1.4-0.4-2.7-1.4-3.7C48.6,32.2,47.4,31.8,46.1,31.8"/>
			<path class="st0" d="M20.8,26.9l-0.1,0.2l-6.5,17.8h3.4l1.2-3.5h6.4l1.2,3.5h3.4l-6.6-17.9H20.8z M19.8,38.5l2.3-6.5l2.2,6.5
				H19.8z"/>
			<path class="st0" d="M124.8,41.1c-0.8,0.8-1.2,1.1-2.2,1.1c-0.9,0-1.6-0.4-2.1-1c-0.5-0.6-0.7-1.4-0.7-2.9c0-1.4,0.2-2.2,0.7-2.8
				c0.5-0.6,1.2-1,2.1-1c0.9,0,1.4,0.3,2.2,1.1l0.2,0.2l2.1-2.1l-0.2-0.2c-1.2-1.3-2.5-1.8-4.3-1.8c-1.4,0-2.9,0.4-4,1.5
				c-1.1,1.1-1.8,2.7-1.8,5.1c0,2.4,0.7,4,1.8,5.1c1.1,1.1,2.6,1.5,4,1.5h0c1.7,0,3-0.6,4.2-1.8l0.2-0.2l-2.1-2L124.8,41.1z"/>
			<path class="st0" d="M109.3,31.8c-1.1,0-2.1,0.3-3,1v-0.9h-3v12.9h3.1V37c0-1.8,1-2.4,2.3-2.5c1.3,0,2.2,0.7,2.2,2.5l0,7.8h3.1
				v-8.2c0-1.4-0.3-2.7-1.3-3.7C111.7,32.2,110.6,31.8,109.3,31.8"/>
			<path class="st0" d="M140.4,38c0-1.8-0.5-3.4-1.4-4.5c-0.9-1.1-2.4-1.8-4.1-1.8c-1.6,0-3.1,0.6-4,1.8c-1,1.2-1.5,2.8-1.5,4.8
				c0,2.4,0.6,4.1,1.7,5.1c1.1,1.1,2.5,1.5,4.1,1.5h0.1c2.2,0,3.5-0.7,4.8-2l0.2-0.2l-2-1.9l-0.2,0.2c-0.9,0.9-1.5,1.2-2.8,1.2
				c-1.8,0-2.7-1.1-2.8-2.9h8V38z M132.4,37.1c0-0.5,0.1-0.8,0.3-1.3c0.3-0.8,1.1-1.4,2.2-1.4c1.1,0,1.8,0.6,2.2,1.4
				c0.2,0.5,0.3,0.7,0.3,1.3H132.4z"/>
			<path class="st0" d="M94.7,31.8c-2.1,0-3.4,0.4-4.7,1.9l-0.2,0.2l2.1,1.9l0.2-0.3c0.7-0.8,1.1-1.1,2.5-1.1c1.9,0.1,2.4,0.6,2.4,2
				v0.6h-3c-1.5,0-2.6,0.4-3.4,1.1c-0.8,0.7-1.2,1.7-1.2,2.8c0,1.1,0.4,2.1,1.1,2.9c0.8,0.8,2,1.2,3.5,1.2h0.1c1.3,0,2.2-0.3,3-0.9
				v0.8h3v-8.6c0-1.5-0.5-2.6-1.4-3.4C97.8,32.1,96.4,31.8,94.7,31.8 M97,40.1c0,0.9-0.2,1.3-0.5,1.6c-0.6,0.6-1.2,0.6-2.1,0.6
				c-1.5,0-2-0.5-2-1.5c0-1,0.5-1.5,1.9-1.5H97V40.1z"/>
			<path class="st0" d="M75.5,39.7c0,1.8-1,2.4-2.3,2.5c-1.3,0-2.2-0.7-2.2-2.5v-7.8H68v8.2c0,1.4,0.3,2.7,1.3,3.7
				c0.8,0.8,1.9,1.2,3.3,1.2h0c1.1,0,2.2-0.3,3-1v0.9h3V31.9h-3.1V39.7z"/>
			<path class="st0" d="M60.4,31.8c-1.1,0-2.1,0.2-3,1v-5.8h-3.1v17.9h3V44c0.8,0.8,1.8,1,2.9,1h0.1c1.3,0,2.5-0.4,3.2-1.2
				c1.3-1.4,1.5-3.6,1.5-5.5c0-1.9-0.1-4.1-1.5-5.4C62.9,32.2,61.7,31.8,60.4,31.8 M61.6,41.1c-0.3,0.7-0.8,1.1-1.9,1.1
				c-1,0-1.5-0.4-1.9-1.1c-0.3-0.7-0.4-1.7-0.4-2.8c0-1.1,0.1-2.1,0.4-2.7c0.3-0.7,0.8-1.1,1.9-1.1c1,0,1.5,0.4,1.9,1.1
				c0.3,0.7,0.4,1.7,0.4,2.7C62,39.4,62,40.4,61.6,41.1"/>
			<path class="st0" d="M85.1,41V26.9h-3.1v14.2c0,1,0.3,1.9,0.9,2.6c0.6,0.7,1.5,1.1,2.8,1.1h1.8v-2.7h-1.4
				C85.3,42.1,85.2,41.9,85.1,41"/>
		</g>
		<g id="FINAL_REVISED_LOGO_00000164478266490478535760000003147515778577676938_">
			<g>
				<g>
					<g>
						<path class="st1" d="M198,86.7c-1.3-0.7-2.8-1.5-4.3-2.5c-5.6-3.9-17.8-14-25.3-34.5c-7.8-21.3-6.1-48-6.1-48h76.3
							c0,0,2,26.7-5.8,48c-7.7,20.9-19.6,31-25.2,34.5c-1.4,0.9-2.4,1.6-4.2,2.5l-2.8,1.3L198,86.7z"/>
						<path class="st0" d="M198,86.7c-1.3-0.7-2.8-1.5-4.3-2.5c-5.6-3.9-17.8-14-25.3-34.5c-7.8-21.3-6.1-48-6.1-48h76.3
							c0,0,2,26.7-5.8,48c-7.7,20.9-19.6,31-25.2,34.5c-1.4,0.9-2.4,1.6-4.2,2.5l-2.8,1.3L198,86.7z"/>
					</g>
					<path class="st2" d="M230.1,10.7l0,4c0,8.9-1,21.9-5.1,33.1c-3.3,9.1-8.2,16.9-14.4,23.1c-3.5,3.6-6.5,5.6-8,6.5l-2.2,1.3
						l-2.2-1.3c-1.5-0.9-4.5-3-8-6.5c-6.2-6.3-11-14-14.4-23.1c-4.1-11.2-5-24.2-5.1-33.1l0-4H230.1z"/>
				</g>
				<g>
					<g>
						<polygon class="st3" points="168.2,9.2 168.6,6.7 166.9,5 169.3,4.7 170.4,2.5 171.5,4.7 173.9,5.1 172.1,6.8 172.5,9.2 
							170.4,8 						"/>
						<polygon class="st4" points="170.4,2.5 170.4,6 171.5,4.7 						"/>
						<polygon class="st4" points="173.9,5.1 170.4,6 172.1,6.8 						"/>
						<polygon class="st4" points="170.4,8 172.5,9.2 170.4,6 						"/>
						<polygon class="st4" points="168.6,6.7 170.4,6 168.2,9.2 						"/>
						<polygon class="st4" points="166.9,5 170.4,6 169.3,4.7 						"/>
					</g>
					<g>
						<polygon class="st3" points="178.3,9.2 178.8,6.7 177,5 179.5,4.7 180.6,2.5 181.7,4.7 184.1,5.1 182.3,6.8 182.7,9.2 
							180.5,8 						"/>
						<polygon class="st4" points="180.6,2.5 180.6,6 181.7,4.7 						"/>
						<polygon class="st4" points="184.1,5.1 180.6,6 182.3,6.8 						"/>
						<polygon class="st4" points="180.5,8 182.7,9.2 180.6,6 						"/>
						<polygon class="st4" points="178.8,6.7 180.6,6 178.3,9.2 						"/>
						<polygon class="st4" points="177,5 180.6,6 179.5,4.7 						"/>
					</g>
					<g>
						<polygon class="st3" points="188.5,9.2 188.9,6.7 187.2,5 189.6,4.7 190.7,2.5 191.8,4.7 194.2,5.1 192.5,6.8 192.8,9.2 
							190.7,8 						"/>
						<polygon class="st4" points="190.7,2.5 190.7,6 191.8,4.7 						"/>
						<polygon class="st4" points="194.2,5.1 190.7,6 192.5,6.8 						"/>
						<polygon class="st4" points="190.7,8 192.8,9.2 190.7,6 						"/>
						<polygon class="st4" points="188.9,6.7 190.7,6 188.5,9.2 						"/>
						<polygon class="st4" points="187.2,5 190.7,6 189.6,4.7 						"/>
					</g>
					<g>
						<polygon class="st3" points="198.7,9.2 199.1,6.7 197.4,5 199.8,4.7 200.9,2.5 202,4.7 204.4,5.1 202.6,6.8 203,9.2 200.8,8 
													"/>
						<polygon class="st4" points="200.9,2.5 200.9,6 202,4.7 						"/>
						<polygon class="st4" points="204.4,5.1 200.9,6 202.6,6.8 						"/>
						<polygon class="st4" points="200.8,8 203,9.2 200.9,6 						"/>
						<polygon class="st4" points="199.1,6.7 200.9,6 198.7,9.2 						"/>
						<polygon class="st4" points="197.4,5 200.9,6 199.8,4.7 						"/>
					</g>
					<g>
						<polygon class="st3" points="208.8,9.2 209.3,6.7 207.5,5 210,4.7 211.1,2.5 212.1,4.7 214.5,5.1 212.8,6.8 213.2,9.2 211,8 
													"/>
						<polygon class="st4" points="211.1,2.5 211.1,6 212.1,4.7 						"/>
						<polygon class="st4" points="214.5,5.1 211.1,6 212.8,6.8 						"/>
						<polygon class="st4" points="211,8 213.2,9.2 211.1,6 						"/>
						<polygon class="st4" points="209.3,6.7 211.1,6 208.8,9.2 						"/>
						<polygon class="st4" points="207.5,5 211.1,6 210,4.7 						"/>
					</g>
					<g>
						<polygon class="st3" points="219,9.2 219.4,6.7 217.7,5 220.1,4.7 221.2,2.5 222.3,4.7 224.7,5.1 222.9,6.8 223.3,9.2 
							221.2,8 						"/>
						<polygon class="st4" points="221.2,2.5 221.2,6 222.3,4.7 						"/>
						<polygon class="st4" points="224.7,5.1 221.2,6 222.9,6.8 						"/>
						<polygon class="st4" points="221.2,8 223.3,9.2 221.2,6 						"/>
						<polygon class="st4" points="219.4,6.7 221.2,6 219,9.2 						"/>
						<polygon class="st4" points="217.7,5 221.2,6 220.1,4.7 						"/>
					</g>
					<g>
						<polygon class="st3" points="229.1,9.2 229.6,6.7 227.8,5 230.3,4.7 231.4,2.5 232.4,4.7 234.9,5.1 233.1,6.8 233.5,9.2 
							231.3,8 						"/>
						<polygon class="st4" points="231.4,2.5 231.4,6 232.4,4.7 						"/>
						<polygon class="st4" points="234.9,5.1 231.4,6 233.1,6.8 						"/>
						<polygon class="st4" points="231.3,8 233.5,9.2 231.4,6 						"/>
						<polygon class="st4" points="229.6,6.7 231.4,6 229.1,9.2 						"/>
						<polygon class="st4" points="227.8,5 231.4,6 230.3,4.7 						"/>
					</g>
				</g>
				<g>
					<g>
						<polygon class="st4" points="213.2,77.7 212.6,77.7 212.6,78.2 212.1,78.2 212.1,78.8 212.7,78.8 212.7,78.3 213.2,78.3 
													"/>
						
							<rect x="210.8" y="73.3" transform="matrix(0.999 -4.386679e-02 4.386679e-02 0.999 -3.0281 9.3313)" class="st4" width="0.7" height="0.7"/>
						<path class="st4" d="M216.7,69.1c-0.2,0-0.3-0.1-0.4,0c-0.1,0-0.2,0-0.3,0.1c-0.1,0-0.2,0.1-0.2,0.2c-0.1,0.1-0.1,0.1-0.1,0.2
							c0,0.1-0.1,0.2-0.1,0.3c0,0.1,0,0.2,0,0.3c0,0.1,0,0.2,0,0.3l-1.3-1.1L214,70c0.3,0.2,0.5,0.4,0.8,0.6
							c0.3,0.2,0.5,0.4,0.8,0.6l-0.2,0.3l0,0l-0.8,0.9l-0.8,0.9l-0.8,0.9l0,0l-0.2,0.2l0,0c-0.1-0.1-0.3-0.2-0.4-0.3
							c-0.2-0.1-0.3-0.2-0.5-0.2l-0.1,0.7c0.1,0,0.2,0.1,0.3,0.1c0.1,0,0.2,0.1,0.2,0.2c0,0,0.1,0.1,0.1,0.1l-0.5,0.5l0,0l-0.9,0.9
							l0.4,0.6l0.5-0.4c0,0.1,0.1,0.1,0.1,0.2c0,0.1,0,0.2,0,0.2c0,0.1,0,0.2-0.1,0.2c0,0.1-0.1,0.1-0.2,0.2
							c-0.1,0.1-0.2,0.1-0.3,0.2c-0.1,0-0.2,0-0.3,0c-0.1,0-0.2-0.1-0.3-0.1c-0.1-0.1-0.2-0.1-0.3-0.2c-0.1-0.1-0.2-0.2-0.2-0.3
							c-0.1-0.1-0.1-0.2-0.2-0.3l-0.1,0.4c0,0.1,0,0.1,0.1,0.2c0,0.1,0.1,0.2,0.1,0.2c0,0.1,0.1,0.2,0.1,0.2
							c0.1,0.1,0.1,0.1,0.1,0.2c0.2,0.1,0.3,0.2,0.5,0.3c0.2,0.1,0.3,0.1,0.5,0.1c0.2,0,0.3-0.1,0.4-0.1c0.1-0.1,0.3-0.2,0.4-0.3
							c0.1-0.1,0.2-0.2,0.3-0.4c0.1-0.1,0.1-0.3,0.1-0.5c0-0.2,0-0.3-0.1-0.5c-0.1-0.2-0.2-0.3-0.3-0.4l0.3-0.3l0,0l1.1-1.2l0,0
							l0.7-0.8l0,0l0,0l0,0l0,0l0.7-0.8l0,0l0,0l0,0l0,0l0.7-0.8l0,0l1.8-2.2l-0.5-0.5C217,69.2,216.8,69.1,216.7,69.1z M215.9,70.8
							c0-0.1,0-0.2,0-0.3c0-0.1,0-0.2,0-0.3c0-0.1,0-0.2,0.1-0.3c0-0.1,0.1-0.1,0.1-0.2c0.1-0.1,0.1-0.1,0.2-0.1
							c0.1,0,0.2,0,0.4,0.1L215.9,70.8z"/>
						<path class="st4" d="M219.6,62.2l-0.1,0.7c0.3,0.2,0.5,0.4,0.8,0.5c0.3,0.2,0.6,0.4,0.8,0.5l-0.3,0.4l-0.7,1l-0.7,0.9l-0.7,1
							l0,0l-0.1,0.2c-0.1-0.1-0.2-0.2-0.4-0.2c-0.1-0.1-0.3-0.1-0.4-0.1c-0.1,0-0.2,0-0.4,0.1c-0.1,0-0.2,0.1-0.3,0.2
							c-0.1,0.1-0.1,0.1-0.1,0.2c0,0.1,0,0.2,0,0.2c0,0.1,0,0.2,0,0.2c0,0.1,0.1,0.2,0.1,0.2c0,0.1,0.1,0.2,0.1,0.2
							c0.1,0.1,0.1,0.1,0.2,0.2c0.1,0,0.1,0.1,0.2,0.1c0.1,0,0.1,0,0.2,0.1c0.1,0,0.1,0,0.2,0c0.1,0,0.1,0,0.2,0c0,0,0,0,0.1,0
							c0,0,0,0,0.1-0.1l0.3-0.4c0,0.1,0.1,0.2,0.1,0.3c0,0.1,0,0.2,0,0.3c0,0.1,0,0.2,0,0.4c0,0.1-0.1,0.2-0.1,0.4l0.7-0.4
							c0.1,0,0.1-0.1,0.1-0.1c0-0.1,0-0.1,0-0.2c0-0.1,0-0.2,0-0.2c0-0.1,0-0.2-0.1-0.3c0-0.1-0.1-0.2-0.1-0.3
							c-0.1-0.1-0.1-0.2-0.2-0.3l0.2-0.3l0,0l0.6-0.9l0,0l0,0l0,0l0,0l0.6-0.9l0,0l0,0l0-0.1l0,0l0.6-0.9l0,0l0.7-1l-0.5-0.4
							L219.6,62.2z M217.9,68.3c0,0-0.1,0-0.1,0c0,0-0.1,0-0.1-0.1c0,0-0.1-0.1-0.1-0.1c0,0,0-0.1-0.1-0.1c0,0,0-0.1,0-0.1
							c0,0,0-0.1,0-0.1c0-0.1,0.1-0.1,0.2-0.1c0.1,0,0.1,0,0.2,0c0.1,0,0.1,0,0.2,0.1c0,0,0.1,0.1,0.1,0.1L217.9,68.3z"/>
						<path class="st4" d="M220.3,61.1l-0.1,0.7c0.1,0.1,0.3,0.2,0.4,0.3c0.1,0.1,0.3,0.2,0.4,0.3c0.1,0.1,0.3,0.2,0.4,0.3
							c0.1,0.1,0.3,0.2,0.4,0.3l0.5,0.4l0.1-0.2l-0.3-0.6L220.3,61.1z"/>
						<path class="st4" d="M225.8,57c-0.1-0.1-0.2-0.1-0.3-0.2c-0.2-0.1-0.3-0.2-0.5-0.2c-0.2-0.1-0.3-0.1-0.5-0.1l0,0.7
							c0.2,0,0.3,0,0.4,0.1c0.1,0,0.2,0.1,0.3,0.2l-0.2,0.3c-0.1,0-0.2,0-0.3-0.1c-0.1,0-0.2-0.1-0.4-0.1l-0.1,0.6
							c0.1,0,0.2,0.1,0.2,0.1c0.1,0,0.1,0,0.2,0.1l-0.2,0.4c-0.1,0-0.2,0-0.3-0.1c-0.1,0-0.2-0.1-0.4-0.1l-0.1,0.6
							c0.1,0,0.1,0,0.1,0.1c0,0,0.1,0,0.1,0c0,0,0.1,0,0.1,0c0,0,0.1,0,0.1,0.1c0.1,0.1,0.2,0.1,0.3,0.2c0.1,0.1,0.1,0.2,0.1,0.3
							c0,0.1,0,0.2,0,0.3c0,0.1,0,0.2-0.1,0.2c0,0.1-0.1,0.1-0.1,0.2c-0.1,0-0.1,0.1-0.2,0.1c-0.1,0-0.2,0-0.2,0.1
							c-0.1,0-0.2,0-0.3,0c-0.1,0-0.2-0.1-0.3-0.1c-0.1,0-0.2-0.1-0.2-0.2c-0.1-0.1-0.1-0.1-0.2-0.2c-0.1-0.1-0.1-0.1-0.2-0.2l0,0.4
							c0,0.1,0.1,0.1,0.1,0.2c0.1,0.1,0.1,0.1,0.2,0.2c0.1,0.1,0.1,0.1,0.2,0.2c0.1,0.1,0.1,0.1,0.2,0.1c0.2,0.1,0.3,0.1,0.5,0.2
							c0.2,0,0.3,0,0.5,0c0.2,0,0.3-0.1,0.4-0.2c0.1-0.1,0.2-0.2,0.3-0.4c0.1-0.1,0.1-0.3,0.2-0.4c0-0.1,0-0.3,0-0.4
							c0-0.1-0.1-0.3-0.1-0.4c-0.1-0.1-0.1-0.2-0.2-0.4l1-1.7C226,57.1,225.9,57,225.8,57z"/>
						<path class="st4" d="M229.4,43.3l0,0.7c0.3,0.1,0.6,0.2,0.9,0.3c0.3,0.1,0.6,0.2,0.9,0.3l-0.2,0.5l0,0l-0.5,1.1l-0.4,1
							l-0.5,1.1l-0.5,1.1l0,0l-0.1,0.3c-0.2,0-0.4,0.1-0.6,0.1c-0.2,0-0.3,0.1-0.4,0.1c-0.1,0.1-0.2,0.1-0.3,0.2
							c-0.1,0.1-0.2,0.2-0.2,0.3c0,0.1-0.1,0.2-0.1,0.3c0,0.1,0,0.2,0.1,0.2c0,0.1,0.1,0.1,0.2,0.2c0.1,0.1,0.1,0.1,0.2,0.2
							c0-0.1,0-0.1,0-0.2c0-0.1,0-0.1,0-0.2c0-0.1,0-0.1,0.1-0.2c0-0.1,0.1-0.1,0.2-0.2c0.1-0.1,0.2-0.1,0.3-0.1
							c0.1,0,0.2,0,0.3-0.1l-0.6,1.2l0,0l-0.5,1.1l-0.5,1l-0.6,1.1l0,0l-0.1,0.3c-0.2-0.1-0.4-0.1-0.6-0.2c-0.2,0-0.4-0.1-0.6,0
							l0.1,0.7c0.2,0,0.4,0.1,0.6,0.1c0.2,0,0.3,0.1,0.4,0.2c0.1,0.1,0.2,0.1,0.3,0.2c0.1,0.1,0.1,0.2,0.2,0.3c0,0.1,0,0.3,0,0.4
							c0,0.2,0,0.3-0.1,0.5l0.6-0.4c0,0,0.1-0.1,0.1-0.2c0-0.1,0-0.2,0-0.2c0-0.1,0-0.2-0.1-0.3c0-0.1-0.1-0.2-0.1-0.3
							c0-0.1-0.1-0.2-0.1-0.2c-0.1-0.1-0.1-0.1-0.2-0.2l0.2-0.4l0,0l0.5-1v0l0,0l0,0l0,0l0.5-1l0,0l0,0l0,0l0,0l0.5-1l0,0l1.1-2.3
							l0,0l0.4-1l0,0l0-0.1l0,0h0l0.4-1l0,0l0-0.1l0,0l0,0l0.4-1l0,0l0,0l0,0h0l0.4-1l0,0l0.4-1.1l-0.6-0.2L229.4,43.3z"/>
						<path class="st4" d="M232,42.9l-2.1-0.8l0,0.7c0.2,0.1,0.3,0.1,0.5,0.2c0.2,0.1,0.3,0.1,0.5,0.2c0.2,0.1,0.3,0.1,0.5,0.2
							c0.2,0.1,0.3,0.1,0.5,0.2l0.6,0.2l0.1-0.2L232,42.9z"/>
					</g>
					<g>
						<path class="st4" d="M172.2,44.1L172.2,44.1l-1.4,0.5c-0.3,0.1-0.6,0.2-0.9,0.3c0.2-0.2,0.3-0.4,0.5-0.6l1.2-1.6l-0.2-0.6
							l-3.3,1.2l0.2,0.5l1.4-0.5c0.4-0.1,0.6-0.2,0.9-0.3c-0.2,0.2-0.4,0.4-0.6,0.7l-1.2,1.6l0.2,0.5l3.3-1.2L172.2,44.1z"/>
						<path class="st4" d="M172.2,47.9c0.1-0.1,0.2-0.3,0.2-0.6c0-0.1,0-0.3-0.1-0.4c-0.1-0.3-0.3-0.5-0.5-0.7l-0.1,0l-0.4,0.3
							l0.1,0.1c0.1,0.1,0.3,0.3,0.4,0.5l0,0v0c0,0.1,0,0.2,0,0.2c0,0.1,0,0.2-0.1,0.2c0,0-0.1,0.1-0.2,0.1c-0.1-0.3-0.3-0.6-0.5-0.7
							c-0.2-0.2-0.4-0.3-0.6-0.3c-0.1,0-0.2,0-0.3,0.1c-0.3,0.1-0.5,0.4-0.5,0.7c0,0.1,0,0.2,0.1,0.3c0.1,0.3,0.3,0.4,0.5,0.5
							l-0.2,0.1l0.2,0.5l0.1-0.1c0.1-0.1,0.3-0.2,0.5-0.2l0.8-0.3C171.9,48.2,172,48.1,172.2,47.9z M170.9,47.9c0,0-0.1,0-0.1,0l0,0
							c-0.2,0-0.4-0.1-0.5-0.3c0,0,0-0.1,0-0.1c0-0.1,0-0.1,0-0.1c0,0,0.1-0.1,0.2-0.1c0.1,0,0.1,0,0.1,0c0.1,0,0.2,0.1,0.3,0.2
							c0.1,0.1,0.2,0.3,0.2,0.4L170.9,47.9L170.9,47.9z"/>
						<path class="st4" d="M171.8,51c0,0-0.1-0.1-0.1-0.2c0,0,0-0.1,0-0.1c0,0,0-0.1,0.1-0.1c0,0,0.1-0.1,0.2-0.1L173,50l0.2,0.6
							l0.5-0.2l-0.2-0.6l0.5-0.2l-0.4-0.5l-0.4,0.2l-0.1-0.3l-0.5,0.2l0.1,0.3l-1.1,0.5c-0.3,0.1-0.5,0.3-0.5,0.4l0,0l0,0
							c0,0.1-0.1,0.2-0.1,0.3c0,0.1,0,0.2,0.1,0.3c0.1,0.2,0.2,0.3,0.2,0.4l0,0.1L171.8,51L171.8,51z"/>
						<path class="st4" d="M174.8,51.7c0.1,0,0.1,0,0.2,0l0-0.1l0,0.1c0.1-0.1,0.2-0.2,0.2-0.3c0-0.1,0-0.1,0-0.2
							c-0.1-0.1-0.2-0.2-0.3-0.2c-0.1,0-0.1,0-0.2,0c-0.1,0.1-0.2,0.2-0.2,0.3c0,0.1,0,0.1,0,0.2C174.5,51.6,174.6,51.7,174.8,51.7z
							"/>
						<polygon class="st4" points="174.1,51.3 174,51.3 171.8,52.3 172.1,52.9 174.4,51.8 						"/>
						<path class="st4" d="M175.7,54.7c0-0.2,0-0.4-0.1-0.6c-0.2-0.4-0.6-0.7-1.1-0.7c-0.2,0-0.4,0.1-0.7,0.2
							c-0.5,0.2-0.8,0.7-0.8,1.1c0,0.2,0,0.4,0.1,0.6c0.2,0.4,0.6,0.7,1.1,0.7c0.2,0,0.4-0.1,0.7-0.2
							C175.4,55.5,175.7,55.1,175.7,54.7z M173.5,54.8c0-0.2,0.2-0.5,0.5-0.7c0.2-0.1,0.3-0.1,0.5-0.1c0.2,0,0.4,0.1,0.5,0.3
							c0,0.1,0.1,0.2,0.1,0.2c0,0.1-0.1,0.3-0.2,0.4c-0.1,0.1-0.2,0.2-0.4,0.3c-0.2,0.1-0.3,0.1-0.5,0.1c-0.3,0-0.5-0.1-0.6-0.3
							C173.6,54.9,173.5,54.9,173.5,54.8z"/>
						<path class="st4" d="M177.3,57.8c0-0.2-0.1-0.3-0.1-0.4c-0.1-0.3-0.4-0.4-0.6-0.5l0.2-0.1l-0.3-0.5l-0.1,0.1
							c-0.2,0.1-0.3,0.2-0.5,0.3l-1.6,0.9l0.3,0.5l1.3-0.7c0.1,0,0.1-0.1,0.2-0.1l0,0l0,0c0,0,0.1,0,0.1,0c0.2,0,0.4,0.1,0.5,0.3
							c0,0.1,0.1,0.2,0.1,0.2c0,0.1,0,0.2-0.1,0.3c-0.1,0.1-0.2,0.2-0.3,0.2l-1.3,0.7l0.3,0.5l1.3-0.7
							C177.2,58.4,177.3,58.1,177.3,57.8z"/>
						<path class="st4" d="M178.7,61c0.1-0.1,0.2-0.3,0.2-0.5c0-0.2-0.1-0.4-0.2-0.6c-0.2-0.3-0.4-0.5-0.6-0.6l-0.1,0l-0.3,0.4
							l0.1,0.1c0.2,0.1,0.3,0.2,0.4,0.4l0,0v0c0.1,0.1,0.1,0.2,0.1,0.3c0,0.1,0,0.2-0.1,0.2c0,0-0.1,0.1-0.1,0.1
							c-0.2-0.3-0.3-0.5-0.5-0.6c-0.2-0.2-0.4-0.2-0.6-0.2c-0.1,0-0.3,0-0.4,0.1c-0.2,0.1-0.4,0.4-0.4,0.6c0,0.1,0,0.3,0.1,0.4
							c0.1,0.2,0.3,0.4,0.6,0.4l-0.2,0.1l0.3,0.5l0.1-0.1c0.1-0.1,0.3-0.2,0.5-0.3l0.8-0.4C178.5,61.3,178.6,61.2,178.7,61z
							 M177.4,61.2c0,0-0.1,0-0.1,0c0,0-0.1,0-0.1,0c-0.2,0-0.3-0.1-0.4-0.3c0-0.1-0.1-0.1-0.1-0.2c0-0.1,0-0.2,0.2-0.3
							c0.1,0,0.1-0.1,0.2-0.1c0.1,0,0.2,0.1,0.3,0.2c0.1,0.1,0.2,0.2,0.3,0.4L177.4,61.2L177.4,61.2z"/>
						<polygon class="st4" points="180.9,61.4 180.8,61.5 177.8,63.4 178.1,63.9 181.2,62 						"/>
						<path class="st4" d="M182.4,66.9L182.4,66.9l-0.4,0.3l0.4,0.5l-0.7,0.5c-0.1-0.1-0.2-0.2-0.3-0.4c-0.2-0.2-0.2-0.5-0.2-0.7
							c0-0.3,0.2-0.7,0.6-1c0.3-0.2,0.5-0.3,0.8-0.3c0.4,0,0.7,0.2,1,0.6c0.2,0.3,0.3,0.5,0.3,0.6l0,0.1l0.5-0.2l0-0.1
							c0-0.2-0.1-0.5-0.4-0.8c-0.4-0.6-0.9-0.8-1.5-0.8c-0.4,0-0.7,0.1-1.1,0.4c-0.4,0.3-0.7,0.7-0.8,1.1l0,0c0,0.1,0,0.2,0,0.2
							c0,0.4,0.1,0.7,0.4,1.1c0.3,0.4,0.6,0.6,0.8,0.7l0.1,0l1.4-1L182.4,66.9z"/>
						<path class="st4" d="M185.5,70L185.5,70l-1.2,0.9c-0.1,0-0.1,0.1-0.2,0.1h0h0c0,0-0.1,0-0.2,0c-0.1,0-0.3-0.1-0.4-0.2
							c-0.1-0.1-0.1-0.2-0.1-0.2c0-0.1,0-0.2,0.1-0.2c0.1-0.1,0.2-0.2,0.3-0.3l1.1-0.8l-0.4-0.5l-1.2,0.9c-0.4,0.3-0.5,0.6-0.5,0.9
							c0,0.2,0.1,0.4,0.2,0.5c0.2,0.3,0.5,0.4,0.7,0.4l-0.2,0.2l0.3,0.4l0.1-0.1c0.1-0.1,0.3-0.3,0.5-0.4l1.4-1.1L185.5,70z"/>
						<path class="st4" d="M187.5,72.7c0-0.2-0.1-0.4-0.3-0.6h0c-0.2-0.2-0.5-0.4-0.7-0.5l-0.1,0l-0.3,0.4l0.1,0
							c0.2,0,0.4,0.2,0.5,0.3l0,0v0c0.1,0.1,0.1,0.2,0.1,0.3c0,0.1,0,0.1-0.1,0.2c0,0-0.1,0.1-0.1,0.1c-0.4-0.4-0.7-0.7-1.1-0.7
							c-0.2,0-0.4,0.1-0.5,0.2c-0.2,0.1-0.3,0.3-0.3,0.6c0,0.2,0.1,0.4,0.2,0.5c0.2,0.2,0.4,0.3,0.6,0.4l-0.1,0.1l0.4,0.4l0.1-0.1
							c0.1-0.1,0.2-0.2,0.4-0.4l0.7-0.6C187.3,73.3,187.5,73.1,187.5,72.7z M186.2,73.5C186.1,73.5,186.1,73.5,186.2,73.5
							c-0.1,0.1-0.2,0.1-0.3,0.1c-0.1,0-0.3-0.1-0.4-0.2c-0.1-0.1-0.1-0.1-0.1-0.2c0-0.1,0-0.2,0.1-0.2c0.1-0.1,0.1-0.1,0.2-0.1
							c0.1,0,0.2,0.1,0.3,0.1c0.1,0.1,0.2,0.2,0.3,0.3L186.2,73.5L186.2,73.5z"/>
						<path class="st4" d="M189.1,75.1c0,0,0.1,0.1,0.1,0.1l0.1,0.1l0.1-0.1l0.4-0.3l0-0.1c0,0,0-0.1-0.1-0.1
							c-0.1-0.2-0.4-0.2-0.6-0.2c0,0,0,0-0.1,0l0.2-0.2l-0.4-0.4l-0.1,0.1c-0.2,0.2-0.3,0.3-0.5,0.5l-1.3,1.1l0.4,0.5l1-0.9
							c0,0,0.1-0.1,0.1-0.1c0.1-0.1,0.2-0.1,0.3-0.1C188.9,75,189,75,189.1,75.1z"/>
						<path class="st4" d="M192.3,76.3L192.3,76.3l-0.9,0.9c0-0.2-0.1-0.4-0.3-0.6c-0.2-0.2-0.5-0.3-0.8-0.3c-0.3,0-0.7,0.1-1,0.4v0
							c-0.3,0.3-0.5,0.6-0.5,1c0,0.3,0.1,0.5,0.3,0.7c0.2,0.2,0.5,0.3,0.7,0.3c0,0,0,0,0,0l-0.2,0.2l0.4,0.4l0.1-0.1
							c0.1-0.1,0.3-0.3,0.4-0.4l2.2-2L192.3,76.3z M190.8,77.6L190.8,77.6c0,0-0.1,0.1-0.1,0.1l0,0l-0.3,0.3c0,0-0.1,0.1-0.1,0.1
							l0,0c-0.1,0.1-0.2,0.1-0.3,0.1c-0.2,0-0.3-0.1-0.4-0.2c-0.1-0.1-0.2-0.2-0.2-0.4c0-0.2,0.1-0.4,0.3-0.6
							c0.2-0.2,0.4-0.3,0.6-0.3c0.1,0,0.3,0.1,0.4,0.2c0.1,0.1,0.1,0.2,0.1,0.4C190.9,77.4,190.9,77.5,190.8,77.6L190.8,77.6z"/>
					</g>
				</g>
			</g>
			<g>
				<path class="st4" d="M201.7,23.6c-0.5,0.2-0.9,0.3-1.3,0.1c-0.4-0.1-0.6-0.4-0.7-0.6l-0.1-0.1c-0.4,0-0.8-0.3-0.9-0.7
					c-0.1-0.4,0.1-0.8,0.1-0.9c0.2-0.3,0.5-0.5,0.6-0.6l0,0.1l0,0.4l0.1-0.1c0.1-0.1,0.4-0.4,0.8-0.4c0.5-0.1,0.9,0,1.3,0.2
					c0.4,0.1,0.8,0.3,0.9,0.6c0.1,0.1,0.1,0.3,0.1,0.4l0,0.1c0,0.1,0.1,0.2,0.2,0.2c0.1,0.1,0.3,0.1,0.3,0.1l0,0.1
					C202.7,23.2,202.1,23.4,201.7,23.6"/>
				<path class="st5" d="M194.9,34.4c-0.8,2.8-2.3,6-3.1,7.6l6.2,8.3c1.1,1.4,3.1,1.6,4.5,0.4l11.2-10c0.5-0.4,0.6-1.1,0.5-1.7
					c-0.4-1.3-1.2-3.7-1.6-5c-0.4-1.1-0.9-2.2-1.3-3l-0.4,0.3c-0.1,0-0.8-0.4-1.1-0.8c-0.1-0.1-0.1-0.2-0.2-0.3c0-0.2,0-0.2,0-0.5
					c0-0.1,0-0.2-0.1-0.3c0-0.1-0.1-0.2-0.2-0.3c-0.1-0.2-0.2-0.3-0.3-0.3c-0.1-0.1-0.2,0-0.3,0c-0.5,0-0.9-0.3-1-0.4
					c-0.1-0.1-0.2-0.2-0.2-0.3c0-0.1,0.1-0.1,0.2-0.3c0-0.1,0-0.1,0.1-0.2c0.1-0.4,0-0.8-0.2-1.5c0-0.1-0.1-0.3-0.2-0.4
					c-0.1-0.1-0.2-0.1-0.2-0.1c-0.2,0-0.3,0-0.4,0c-0.1,0-0.1-0.1-0.1-0.1c-0.3-0.5-0.5-0.9-0.8-1.1c-0.1-0.1-0.2-0.2-0.4-0.3
					c-0.2-0.1-0.5-0.1-0.6-0.1l-0.1,0c0-0.1-0.1-0.5-0.4-0.7c-0.2-0.1-0.6-0.2-0.6-0.1c0,0,0,0.1,0,0.1c0,0,0.1,0.1,0.1,0.1
					c0.1,0,0.2,0.1,0.3,0.4l0,0.1c-0.1,0-0.3,0-0.5,0c-0.1,0-0.3,0.1-0.6,0.2c-0.2,0.2-0.4,0.4-0.4,0.5l-0.1,0.1
					c0,0-0.5-0.1-0.5,0.1c0,0,0,0.1,0,0.2c0.1,0.2,0.2,0.2,0.3,0.3c0.2,0.2,0.2,0.5,0.2,0.7c-0.1,0.3-0.3,0.3-0.3,0.5
					c0,0.2,0.1,0.3,0.1,0.4c-0.1,0.1-0.1,0-0.2,0.1c-0.1,0.1,0,0.2,0,0.2c0,0.2,0.2,0.3,0.3,0.3l0,0.1c-0.1,0-0.3,0.1-0.3,0.2
					c0,0.1,0.1,0.2,0.2,0.3c0.6,0.5,0.7,0.7,0.8,0.8c0.1,0.3,0.1,0.4,0.1,0.5c0,0.1-0.1,0.2-0.1,0.2l-0.1-0.1
					c-0.3-0.2-1.3-0.7-2-1.4c-0.3-0.3-0.5-0.5-0.6-0.8c-0.2-0.3-0.2-0.5-0.2-0.7c0-0.1,0-0.2,0-0.3c0-0.1-0.1-0.2-0.2-0.2
					c-0.1-0.1-0.2-0.1-0.3-0.1l0-0.1c0-0.2-0.1-0.8-0.5-1.2c-0.2-0.3-0.5-0.4-0.7-0.5l0-0.1c-0.2-0.3-0.4-0.6-0.5-0.7
					c-0.1-0.1-0.3-0.3-0.5-0.4c-0.2-0.1-0.4-0.1-0.6-0.1l0.1-0.1c0.1-0.1,0.3-0.3,0.6-0.4c0.1-0.1,0.3-0.1,0.4-0.1l0.1,0l0-0.1
					c0-0.2,0.1-0.5,0.3-0.8c0.1-0.1,0.3-0.3,0.5-0.4c0.2-0.1,0.2,0,0.6,0c0.2,0,0.4-0.1,0.6-0.2c0.1-0.1,0.3-0.2,0.5-0.3
					c0.1-0.1,0.1-0.2,0.2-0.3v0c-0.3,0-0.7-0.1-1.3-0.1c-0.6,0-1.3,0.1-1.9,0.2c-0.7,0.1-1.4,0.4-2,0.7l0,0l0,0
					c-0.5-0.1-1.3-0.1-2.1,0.3c-1.1,0.6-1.8,2.2-1.8,3.8l1.6-1.6c0,0,0.2-0.1,0.5-0.2c0.2-0.1,1.2-0.1,1.7,0c0,0,1,0.1,1.2,0.1
					c0.2,0.1,1.2,0.9,1.5,1c0.3,0.1,0.8,0.4,1,0.5c0.1,0.1,0.2,0.2,0.1,0.2c-0.1,0.1-0.7,0.2-1.2-0.2c-0.6-0.5-1.2-1.1-1.6-1.3
					c-0.4-0.2-0.9-0.1-1.5-0.2c-0.6,0-1-0.1-1.4,0.1c-0.1,0-0.2,0.1-0.3,0.2c0.2-0.1,0.3-0.2,0.5-0.3c0.2-0.1,0.3,0,0.6,0
					c0.1,0,0.3,0,0.5,0c0.2,0,0.5,0,0.7,0l0,0.1c-0.2,0-0.5,0-0.7,0c-0.2,0-0.4,0-0.5,0c-0.3,0-0.4,0-0.6,0
					c-0.3,0.1-0.5,0.2-0.8,0.5c0.3,0.2,0.8,0.7,1.1,1.1c0.7,0.9,1,1.9,1.2,2.6l0-0.1c0.1,0.3,0.2,0.7,0.2,1c0.3,1.7,0.1,3.1,0,4
					C195.3,33,195.1,33.6,194.9,34.4"/>
				<path class="st6" d="M194.1,23.1c-0.3,0-0.4,0-0.6,0c-0.3,0.1-0.5,0.3-0.8,0.5c0,0,0,0,0,0c0,0,0,0,0,0c0.3,0.2,0.8,0.7,1.1,1.1
					c0.8,1,1.2,2.8,1.2,2.8c0.1,0.3,0.1,0.5,0.2,0.8c0.3,1.7,0.1,3.1,0,4c-0.1,0.7-0.2,1.4-0.4,2.1c-0.8,2.9-2.3,6-3.2,7.7l0.1,0
					c0.9-1.6,2.4-4.8,3.2-7.7c0.2-0.7,0.3-1.4,0.4-2.1c0.1-0.8,0.3-2.3,0-4c-0.1-0.3-0.1-0.7-0.2-1c0,0-0.4-1.6-1.2-2.5
					c-0.3-0.4-0.8-0.8-1.1-1.1c0.2-0.3,0.5-0.4,0.8-0.5C193.7,23.1,193.8,23.1,194.1,23.1c0.1,0.1,0.3,0.1,0.5,0.1
					c0.2,0,0.5,0,0.7,0v-0.1c-0.2,0-0.5,0-0.7,0C194.4,23.1,194.3,23.1,194.1,23.1"/>
				<path class="st7" d="M194.8,21.3c0,0.2,0.2,0.3,0.4,0.3c0.2,0,0.4-0.2,0.4-0.4c0-0.2-0.2-0.3-0.4-0.3
					C194.9,21,194.8,21.1,194.8,21.3"/>
				<path class="st0" d="M194.8,21.3c0,0.2,0.2,0.3,0.4,0.3c0.2,0,0.4-0.2,0.4-0.4c0-0.2-0.2-0.3-0.4-0.3
					C194.9,21,194.8,21.1,194.8,21.3"/>
				<path class="st0" d="M211.1,30.9c-0.2-0.5-0.5-1.1-0.9-1.8c-0.5-0.9-1-1.8-1.5-2.7c-0.2-0.3-0.3-0.5-0.5-0.7
					c-0.9-1.4-1.7-2.4-2.9-3.5c-0.5-0.5-1.1-1-1.8-1.4c-1.3-0.7-2.4-1-3-1c-0.3,0-0.7-0.1-1.3-0.1c-0.7,0-1.3,0.1-1.9,0.2
					c-0.9,0.2-2,0.7-2,0.7c-0.5-0.1-1.3-0.1-2.1,0.3c-1.1,0.6-1.9,2.2-1.8,3.9c0,0,0,0,0,0c0,0,0,0,0.1,0c0.3-0.2,0.8-0.7,1.3-1.1
					c0,0,0,0,0,0c0.3-0.2,0.5-0.4,0.6-0.5c0.4-0.2,0.8-0.1,1.4-0.1c0.6,0,1.1,0,1.5,0.2c0.4,0.2,1,0.8,1.6,1.3
					c0.6,0.5,1.1,0.3,1.2,0.2c0.1-0.1,0-0.1-0.1-0.2c-0.1-0.1-0.7-0.4-1-0.5c-0.3-0.1-1.4-1-1.5-1c-0.2-0.1-1.2-0.1-1.2-0.1
					c-0.6,0-1.5,0-1.7,0c-0.2,0-0.4,0.1-0.5,0.2c-0.5,0.3-1.6,1.6-1.6,1.6c0-1.6,0.7-3.2,1.8-3.8c0.8-0.4,1.6-0.4,2.1-0.3l0,0l0,0
					c0.6-0.3,1.3-0.5,2-0.7c0.6-0.1,1.3-0.2,1.9-0.2c0.6,0,1,0.1,1.3,0.1c0,0,0,0,0,0c0,0.1,0,0.2-0.2,0.3c-0.1,0.2-0.3,0.3-0.5,0.3
					c-0.2,0.1-0.4,0.1-0.6,0.2c-0.4,0-0.4,0-0.6,0.1c-0.3,0.1-0.4,0.3-0.5,0.4c-0.2,0.3-0.3,0.6-0.3,0.8l0,0.1l-0.1,0
					c-0.1,0-0.2,0.1-0.4,0.1c-0.3,0.1-0.5,0.3-0.6,0.4l-0.1,0.1c0.1,0,0.3,0,0.6,0.1c0.2,0.1,0.4,0.2,0.5,0.4
					c0.1,0.1,0.3,0.4,0.5,0.7l0,0.1c0.2,0.1,0.4,0.2,0.7,0.5c0.4,0.5,0.5,1,0.5,1.2l0,0.1c0,0,0.2,0,0.3,0.1
					c0.1,0.1,0.1,0.2,0.2,0.2c0.1,0.2,0,0.3,0,0.3c0,0.2,0.1,0.4,0.2,0.7c0.1,0.3,0.3,0.5,0.6,0.8c0.7,0.7,1.6,1.2,2,1.4l0.1,0.1
					c0,0,0.1-0.1,0.1-0.2c0,0,0-0.2-0.1-0.5c-0.1-0.1-0.2-0.3-0.8-0.8c-0.1-0.1-0.2-0.2-0.2-0.3c0-0.1,0.2-0.2,0.3-0.2l0-0.1
					c0,0-0.2-0.1-0.3-0.3c0,0,0-0.2,0-0.2c0.1-0.1,0.2,0,0.2-0.1c0.1-0.1-0.1-0.2-0.1-0.4c0-0.2,0.2-0.3,0.3-0.5
					c0-0.2,0-0.5-0.2-0.7c-0.1-0.1-0.2-0.1-0.3-0.3c0-0.1-0.1-0.1,0-0.2c0.1-0.1,0.5-0.1,0.5-0.1l0.1-0.1c0.1-0.1,0.2-0.3,0.4-0.5
					c0.2-0.2,0.4-0.2,0.6-0.2c0.2,0,0.4,0,0.5,0l0-0.1c-0.1-0.2-0.2-0.3-0.3-0.3c0,0-0.1,0-0.1-0.1c0,0,0-0.1,0-0.1
					c0.1-0.1,0.4,0,0.6,0.1c0.3,0.2,0.4,0.5,0.4,0.7l0.1,0c0.1,0,0.4,0,0.6,0.1c0.2,0.1,0.3,0.2,0.4,0.3c0.3,0.2,0.5,0.6,0.8,1.1
					c0,0,0.1,0.1,0.1,0.1c0.1,0.1,0.2,0,0.4,0c0,0,0.1,0,0.2,0.1c0.1,0.1,0.2,0.3,0.2,0.4c0.1,0.7,0.3,1.2,0.2,1.5
					c0,0.1,0,0.1-0.1,0.2c-0.1,0.2-0.2,0.2-0.2,0.3c0,0.1,0.1,0.2,0.2,0.3c0.1,0.1,0.5,0.4,1,0.4c0.1,0,0.2,0,0.3,0
					c0.1,0,0.2,0.1,0.3,0.3c0.1,0.1,0.2,0.2,0.2,0.3c0,0.1,0.1,0.2,0.1,0.3c0,0.3,0,0.3,0,0.5c0,0.1,0.1,0.2,0.2,0.3
					c0.3,0.4,1,0.8,1.1,0.8l0.7,0.1L211.1,30.9z M201.7,23.6c-0.5,0.2-0.9,0.3-1.3,0.1c-0.4-0.1-0.6-0.4-0.7-0.6l-0.1-0.1
					c-0.4,0-0.8-0.3-0.9-0.7c-0.1-0.4,0.1-0.8,0.1-0.9c0.2-0.3,0.5-0.5,0.6-0.6l0,0.1l0,0.4l0.1-0.1c0.1-0.1,0.4-0.4,0.8-0.4
					c0.5-0.1,0.9,0,1.3,0.2c0.4,0.1,0.8,0.3,0.9,0.6c0.1,0.1,0.1,0.3,0.1,0.4l0,0.1c0,0.1,0.1,0.2,0.2,0.2c0.1,0.1,0.3,0.1,0.3,0.1
					l0,0.1C202.7,23.2,202.1,23.4,201.7,23.6"/>
				<path class="st7" d="M201.1,26.1c0-0.1,0-0.2-0.1-0.4c0-0.1-0.2-0.5-0.5-0.7c0-0.1,0-0.1-0.1-0.2c0.1,0,0.3,0,0.4,0
					c0,0.1,0.1,0.2,0.1,0.4c0.1,0.2,0.2,0.3,0.3,0.4C201.2,25.7,201.2,25.9,201.1,26.1"/>
				<path class="st0" d="M200.9,23.1c0.7,0,1.3-0.4,1.3-0.9c0-0.5-0.6-0.8-1.4-0.8c-0.7,0-1.3,0.4-1.3,0.9
					C199.6,22.8,200.2,23.1,200.9,23.1 M200.3,21.9c0.2,0,0.4,0.2,0.4,0.4c0,0.2-0.2,0.4-0.4,0.4c-0.2,0-0.4-0.2-0.4-0.4
					C199.9,22,200,21.9,200.3,21.9"/>
				<path class="st0" d="M204.4,37.6c0,0.1,0,0.1,0,0.2c-0.1,0-0.1,0-0.2,0c-0.1,0.2-0.1,0.2-0.4,0c0,0,0,0.1,0.1,0.1
					c0.2,0.2,0.4,0.4,0.6,0.6c0.1,0.1,0.1,0.2-0.1,0.3c-0.1,0-0.2,0-0.2,0c-0.1,0-0.1,0-0.2,0c-0.1,0.1-0.2,0.1-0.3,0
					c-0.1-0.1-0.1-0.2-0.2-0.2c0,0-0.1-0.1-0.1-0.1c0.1,0.3,0.4,0.6,0.7,0.7c0.1-0.1,0.3,0,0.4-0.3c0.1,0.1,0.3,0.2,0.4,0.1
					c0-0.1,0-0.1,0.1-0.2c0,0,0.1,0,0.1,0c0,0,0,0,0.1,0c0.2-0.1,0.3-0.2,0.5-0.3c0.1-0.1,0.1-0.2,0.2-0.3c0-0.1,0.1-0.3,0.1-0.4
					c0-0.2,0.1-0.3,0.3-0.4c0,0,0,0,0-0.1c-0.1,0-0.3,0-0.4-0.1c0,0,0,0-0.1,0c-0.3,0.1-0.4-0.1-0.6-0.2c-0.1,0-0.2-0.1-0.4-0.1
					c-0.1,0-0.1,0-0.2,0c0-0.2,0-0.3,0-0.5c0-0.1,0-0.1,0.1-0.1c0,0,0.1,0,0.1,0c0.1,0,0.2,0,0.3-0.2c0,0,0-0.1,0.1-0.1
					c0.1-0.2,0.1-0.2,0.2-0.1c0.1-0.1,0.2-0.1,0.3-0.2c0.1-0.1,0.2-0.2,0.3-0.3c0.1-0.1,0.1-0.1,0.2,0c0,0,0,0,0,0
					c0.1,0,0.1,0.1,0.1,0.1c0,0.1-0.1,0.1-0.2,0c0,0,0,0-0.1,0c0,0,0,0,0,0.1c0,0,0,0,0,0.1c0,0,0,0,0,0c0.1,0,0.2,0,0.3,0.1
					c0.1,0.1,0.1,0.2,0.2,0.4c0,0,0,0,0,0.1c0,0,0,0.1,0,0.1c0,0-0.1,0-0.1,0c0,0-0.1-0.1-0.1-0.1c0-0.1-0.1-0.2-0.2-0.2
					c0,0-0.1-0.1-0.2-0.1c0,0.1,0,0.1,0,0.1c0,0,0.1,0.1,0.1,0.1c0,0,0,0.1,0,0.1c0,0-0.1,0-0.1,0c-0.1-0.1-0.3-0.1-0.4-0.2
					c-0.1,0.1-0.1,0.3,0,0.5c0,0.1,0.1,0.2,0.2,0.2c0.2,0,0.4,0.1,0.5,0.2c0,0,0,0,0.1,0c0.1-0.1,0-0.3,0.3-0.2c0,0,0,0.1,0,0.1
					c0.1,0,0.2,0,0.3-0.1c0.1-0.1,0.2-0.1,0.3-0.2c0.1-0.1,0.1-0.2,0-0.2c-0.1,0-0.1-0.1-0.2-0.1c-0.2,0-0.3-0.2-0.4-0.3
					c0,0-0.1-0.1,0-0.2c0-0.1,0.1-0.1,0.2-0.1c0.1,0,0.1,0.1,0,0.1c0,0,0,0,0,0.1c0.2,0,0.3,0.1,0.5,0c0,0,0.1-0.1,0.1-0.1
					c0-0.1,0.1-0.2,0.2-0.3c0-0.1,0.1-0.2,0.1-0.3c0,0-0.1,0-0.1-0.1c-0.1,0.1-0.1,0.2-0.3,0.1c-0.1,0-0.2-0.1-0.2-0.2
					c0-0.1,0-0.1-0.1-0.1l0,0c0-0.2-0.1-0.1,0.3-0.3c0.1,0.1,0.2,0.1,0.3,0.2c0.1,0,0.2,0,0.3,0c-0.1-0.2-0.1-0.3,0.2-0.3
					c-0.1,0-0.1,0-0.1-0.1c0-0.1,0-0.1,0-0.1c0.1-0.1,0-0.3,0-0.4c0,0,0,0-0.1-0.1c-0.1-0.1-0.1-0.1,0-0.3c0.1-0.1,0.1-0.1,0.2-0.2
					c0.1-0.1,0.2-0.2,0.2-0.3c0.1-0.2,0.1-0.2,0.3-0.1c0,0,0-0.1,0.1-0.1c-0.1,0-0.1-0.1-0.2-0.1c0-0.1,0.1-0.1,0.1-0.1
					c0.1-0.1,0.2,0,0.3,0c0.2-0.1,0.3-0.1,0.5-0.2c0.1-0.1,0.2-0.1,0.3-0.2c0.1-0.1,0.3-0.2,0.4-0.3c0.1-0.1,0.2-0.2,0.3-0.3
					c0.2-0.2,0.4-0.3,0.7-0.4c0.1,0,0.2-0.1,0.3-0.1c0.1,0,0.2-0.1,0.1-0.2c0-0.1,0-0.1,0.1-0.1c0.1,0,0.2-0.1,0.3-0.2
					c0.3-0.3,0.5-0.7,0.8-1c0,0,0.1-0.1,0.1-0.1c0.1-0.1,0.1-0.2,0.1-0.3c0-0.1,0-0.2,0.1-0.2c0,0,0.1,0,0.1-0.1
					c-0.1-0.1-0.1-0.2,0-0.3c0.1,0,0.1,0.1,0.1,0.1c0,0,0,0,0,0c0-0.1,0.1-0.2,0.2-0.3c0.1-0.1,0.3-0.2,0.4-0.3
					c0.1-0.1,0.2-0.2,0.2-0.4c0,0,0.1,0,0.1,0c0-0.2,0.1-0.3,0.2-0.4c0.1-0.1,0.2-0.1,0.2-0.2c0.1-0.1,0.1-0.1,0.1-0.2
					c0-0.1,0.1-0.2,0.2-0.3c0.1,0,0.1-0.1,0.2-0.1c0.2-0.2,0.3-0.4,0.4-0.6c0.1-0.2,0.3-0.3,0.2-0.6c0-0.1,0-0.1,0.1-0.2
					c0.1-0.1,0.2-0.2,0.4-0.2c0,0,0,0,0.1,0c0.1-0.2,0.3-0.2,0.5-0.3c0.1,0,0.2-0.1,0.3-0.1c0.1-0.1,0.1-0.1,0.2,0.1
					c0.2-0.2,0.4-0.4,0.6-0.6c0.1-0.1,0.1-0.2,0.1-0.2c0,0,0.1-0.1,0.1-0.1c0.2,0,0.3-0.1,0.5-0.2c0.1,0,0.2-0.1,0.2,0
					c0.1-0.1,0.2-0.2,0.3-0.3l0,0c0,0-0.1,0-0.1,0c-0.1-0.2,0-0.3,0.2-0.3c0,0,0,0.1,0.1,0.1c0.1-0.1,0.2-0.2,0.3-0.2
					c-0.1-0.2,0-0.3,0.2-0.3c0.1-0.1,0.1-0.2,0.1-0.4c0,0,0-0.1,0-0.1c0.1-0.1,0.1-0.2,0.2-0.3c0-0.1,0.1-0.2,0.1-0.3
					c0-0.1,0.1-0.2,0.1-0.3c0,0,0-0.1,0-0.1c0.2-0.2,0.2-0.5,0.2-0.7c0-0.2,0.1-0.3,0.1-0.5c0.2,0,0.4-0.1,0.6-0.3
					c0.1,0,0.2,0.1,0.2,0.2c0.1,0.1,0.2,0.3,0.2,0.4c0.1,0.1,0.1,0.2,0,0.3c-0.1,0.2-0.1,0.3-0.1,0.5c0,0.2,0,0.5,0,0.7
					c0,0,0,0.1,0,0.1c0,0.1-0.1,0.1-0.1,0.2c-0.1,0.2-0.1,0.4,0,0.6c0.2,0.2,0.2,0.4,0,0.6c-0.1,0.1-0.1,0.5,0,0.7
					c0,0.1,0.1,0.1,0.2,0.1c0.1,0,0.2,0.1,0.3,0.2c0,0,0,0.1,0.1,0.1c0,0.1,0.1,0.1,0.2,0.1c0,0,0.1,0,0.1,0c0.1,0,0.1,0,0.2,0.1
					c0.1,0.1,0.1,0.2,0.2,0.1c0.2,0,0.3,0.1,0.5,0.2c0,0,0.1,0.1,0.1,0.2c0,0.1,0,0.3,0.1,0.4c0.1,0.1,0.1,0.2,0.1,0.3
					c0,0.1,0,0.2,0,0.3c0,0.1,0,0.3,0,0.4c0,0.1,0,0.2,0,0.4c0,0.1,0,0.2-0.1,0.4c0,0,0,0,0,0c0.2,0.1,0.3,0.2,0.2,0.4
					c0,0.2-0.1,0.4-0.1,0.7c0,0.3,0,0.5,0,0.8c0,0.1,0,0.3,0,0.4c0,0.1,0,0.2,0,0.2c0,0,0,0.1,0,0.1c-0.1,0.2,0,0.3,0,0.5
					c0,0.1,0,0.2,0,0.3c0,0,0,0.1,0,0.1c0,0.1,0.1,0.2,0.1,0.3c0,0,0,0.1-0.1,0.1c0,0-0.1,0-0.2,0.1c-0.1,0-0.2,0.1-0.1,0.2
					c0,0.1,0,0.1,0.1,0.2c0.1,0.2,0,0.4-0.3,0.4c-0.1,0-0.2,0.1-0.2,0.2c-0.1,0.2-0.2,0.2-0.4,0.3c-0.1,0.1-0.2,0.1-0.3,0.1
					c-0.2,0-0.3,0.1-0.3,0.3c0,0.1,0,0.2-0.1,0.3c-0.1,0.1-0.2,0.1-0.2,0.2c-0.1,0.1-0.2,0.2-0.3,0.2c0,0-0.1,0-0.1,0
					c-0.2,0-0.3,0-0.4-0.2c-0.1-0.2-0.3-0.5-0.4-0.7c-0.1-0.1-0.1-0.2-0.2-0.4c-0.1-0.2-0.1-0.2,0-0.3c0.1-0.1,0.2-0.1,0.4,0
					c0,0,0.1,0,0.1,0.1c-0.1-0.3-0.1-0.5-0.2-0.8c0,0-0.1-0.1-0.1-0.1c-0.1-0.1-0.3-0.1-0.4-0.1c-0.1,0-0.2,0-0.2,0
					c-0.2,0-0.3,0.1-0.5,0.2c-0.2,0.2-0.4,0.4-0.6,0.6c-0.1,0.1-0.1,0.2-0.1,0.3c0,0.3,0.1,0.5,0.1,0.8c0,0.2,0.1,0.3,0.1,0.5
					c0,0.2,0,0.4,0.1,0.6c0.1,0.1,0.1,0.3-0.1,0.4c-0.1,0.1-0.1,0.2-0.1,0.3c0,0.1,0,0.2-0.1,0.3c-0.2,0.1-0.2,0.3-0.1,0.4
					c0.1,0.2,0.1,0.4,0.1,0.6c0,0,0,0.1,0,0.1c0,0.2,0,0.3,0.2,0.5c0.1,0.1,0.2,0.2,0.2,0.4c0,0.2,0,0.5-0.1,0.7
					c-0.1,0.1-0.1,0.2-0.2,0.3c0,0.1-0.1,0.1-0.1,0.2c-0.1,0.2,0,0.3,0.2,0.3c0.1,0,0.2,0,0.3,0.1c0.1,0.1,0.2,0.1,0.3,0
					c0.1-0.1,0.2-0.1,0.3-0.2c0.2-0.1,0.4,0,0.5,0.2c0.1,0.2,0.2,0.4,0.2,0.7c0,0.1,0.1,0.2,0.2,0.4c0,0.1,0.1,0.1,0.1,0.2
					c0.2,0.3,0.1,0.4-0.2,0.5c-0.2,0-0.4,0.1-0.6,0.2c-0.3,0.1-0.6,0.2-0.8,0.3c0,0-0.1,0-0.1,0c-0.1,0.1-0.2,0.1-0.3,0
					c0,0,0,0-0.1,0c-0.1-0.1-0.3-0.1-0.4,0c-0.1,0.1-0.2,0.1-0.4,0c-0.2-0.1-0.4-0.1-0.6-0.1c-0.2,0.1-0.4,0.2-0.6,0.4
					c-0.2,0.2-0.4,0.2-0.6,0.3c0,0-0.1,0-0.1,0c-0.1,0.2-0.1,0.2,0.1,0.3c0.1,0.1,0.3,0.2,0.4,0.2c0.2,0.1,0.3,0.3,0.2,0.5
					c0,0.1,0,0.2,0,0.3c0,0.2,0,0.3,0,0.5c0,0.2,0,0.3-0.2,0.5c-0.1,0.1-0.1,0.1-0.2,0.2c-0.2,0.2-0.3,0.5-0.4,0.8
					c0,0.2-0.1,0.5-0.1,0.7c0,0,0,0.1-0.1,0.1c-0.2,0.2-0.3,0.4-0.5,0.6c-0.1,0.1-0.2,0.3-0.2,0.4c0,0.2-0.1,0.5-0.1,0.7
					c-0.1,0.3-0.2,0.7-0.3,1c-0.1,0.2-0.2,0.4-0.3,0.6c-0.2,0.4-0.4,0.8-0.6,1.1c0,0.1-0.1,0.1-0.1,0.2c0,0.3-0.1,0.6-0.2,0.9
					c0,0.1,0,0.1,0,0.2c0,0.3,0,0.6,0,0.9c0,0.2,0.1,0.5,0.1,0.7c0,0.2,0,0.5,0,0.7c0,0.1,0,0.2,0,0.3c0,0.2-0.1,0.4-0.3,0.6
					c-0.6,0.6-1.1,1.2-1.7,1.7c-0.1,0.1-0.1,0.1-0.3,0.1c-0.2-0.1-0.5-0.1-0.7-0.1c-0.2,0-0.4-0.1-0.7-0.1c-0.2,0-0.3-0.1-0.5-0.1
					c-0.2,0-0.4-0.1-0.7-0.1c-0.2,0-0.3-0.1-0.5-0.1c-0.4-0.1-0.8-0.1-1.2-0.2c-0.2,0-0.4-0.1-0.6-0.1c-0.2,0-0.3-0.1-0.5-0.1
					c-0.2,0-0.4-0.1-0.6-0.1c-0.2,0-0.4-0.1-0.7-0.1c-0.2,0-0.3-0.1-0.5-0.1c-0.2,0-0.4-0.1-0.6-0.1c-0.2,0-0.5-0.1-0.7-0.1
					c-0.2,0-0.3-0.1-0.5-0.1c-0.4-0.1-0.8-0.1-1.1-0.2c-0.2,0-0.4-0.1-0.6-0.1c-0.2,0-0.5-0.1-0.7-0.1c-0.2,0-0.4-0.1-0.5-0.1
					c-0.1,0-0.3,0-0.4-0.1c-0.2,0-0.4-0.1-0.6-0.1c-0.2,0-0.4-0.1-0.6-0.1c-0.2,0-0.4-0.1-0.6-0.1c-0.4-0.1-0.7-0.1-1.1-0.2
					c-0.4-0.1-0.7-0.1-1.1-0.2c-0.2,0-0.4-0.1-0.6-0.1c-0.2,0-0.4-0.1-0.6-0.1c-0.2,0-0.4-0.1-0.5-0.1c-0.1,0-0.3,0-0.4-0.1
					c-0.4-0.1-0.7-0.2-1.1-0.2c-0.2,0-0.5-0.1-0.7-0.1c-0.2,0-0.4-0.1-0.6-0.1c-0.2,0-0.5-0.1-0.7-0.1c-0.2,0-0.4-0.1-0.6-0.1
					c-0.1,0-0.2,0-0.2,0c-0.2,0-0.3-0.1-0.4-0.2c-0.3-0.4-0.6-0.8-1-1.3c-1-1.3-2-2.6-3.1-3.9c-0.8-1-1.5-1.9-2.3-2.9
					c-1-1.3-2-2.5-3-3.8c-0.1-0.1-0.1-0.1-0.1-0.2c0-0.3,0-0.6,0.1-0.9c0-0.2,0-0.3-0.1-0.4c0,0,0-0.1,0-0.1c0,0,0.1-0.1,0.1-0.1
					c0.1-0.1,0.2-0.3,0.1-0.5c-0.1-0.1-0.1-0.2,0-0.3c0-0.1,0-0.2-0.1-0.3c0,0,0,0,0-0.1c0-0.1,0.1-0.1,0.1-0.2
					c0.1-0.1,0.1-0.1,0.2,0c0.1,0.2,0.3,0.3,0.4,0.6c0.2,0,0.2,0,0.2,0.1c0,0,0,0.1,0.1,0.1c0,0.1,0,0.1,0.1,0.2c0,0,0,0.1,0,0.1
					c0.1,0.1,0.2,0.3,0.2,0.5c0,0,0,0.1,0.1,0.1c0-0.1,0-0.1,0-0.1c-0.1-0.2,0-0.3,0.1-0.4c0.1-0.1,0.1-0.1,0.1-0.2
					c0.1-0.1,0.1-0.1,0.2-0.1c0.1,0.1,0.2,0.2,0.3,0.2c0,0,0,0,0,0c0,0.2,0,0.4,0,0.5c0,0.1,0,0.1,0,0.2c0,0.1-0.1,0.3-0.1,0.4
					c0,0.1,0,0.2,0.1,0.4c0,0.1,0.1,0.3,0.1,0.4c0,0.1,0,0.1,0,0.2c-0.1,0.2,0,0.4,0.2,0.6c0.2,0.2,0.5,0.2,0.7,0.2
					c0.1,0,0.1,0,0.2,0c0.1-0.2,0.2-0.2,0.4-0.1c0.2,0.1,0.3,0.1,0.5,0c0.1,0,0.1,0,0.2,0c0.1,0.1,0.2,0.2,0.3,0.2
					c0.1,0,0.1,0.1,0.2,0.1c0,0,0-0.1,0-0.1c0-0.1,0.1-0.1,0.2-0.1c0.3,0.2,0.5,0.1,0.8,0.1c0.2,0,0.3,0,0.5,0
					c0.2,0,0.4-0.1,0.6-0.2c0.3-0.1,0.5-0.2,0.7-0.3c0.2-0.1,0.3-0.2,0.5-0.2c0.1,0,0.3-0.1,0.4-0.2c0.1-0.1,0.1-0.1,0-0.2
					c-0.1,0-0.1-0.1-0.1-0.1c0,0-0.1-0.1,0-0.1c0.1,0,0.1-0.1,0.2-0.1c0,0,0.1,0.1,0.1,0.1c0,0,0,0.1,0,0.1c0.4,0,0.7-0.2,1-0.4
					c0-0.2,0-0.3,0.1-0.4c0-0.1,0.2-0.2,0.3-0.2c0.1-0.1,0.1,0,0.2,0c0.1,0.1,0.2,0.1,0.2,0.2c0,0,0,0,0,0c0.1,0,0.1,0.1,0.2,0.1
					c0,0,0.1,0.1,0.1,0.2c0.3-0.1,0.5,0,0.7,0.1c0.1,0,0.1,0.1,0.2,0c0,0,0,0,0.1,0c0.2-0.1,0.3-0.1,0.5,0c0.1,0.1,0.1,0,0.2,0
					c0.1,0,0.1-0.1,0.2-0.1c0.1,0,0.1,0,0.2,0c0.1,0.1,0.2,0.1,0.3,0c0.1-0.1,0.2-0.1,0.3-0.2c0,0,0.1,0,0.2,0
					c0.1,0,0.1-0.1,0.2-0.1c0.1,0,0.1,0,0.1,0.1c0,0,0,0.1-0.1,0.1c0,0-0.1,0-0.1,0c0,0-0.1,0-0.1,0c0.1,0.2,0.2,0.2,0.4,0.1
					c0.2-0.1,0.4-0.1,0.7-0.2c0,0,0-0.1,0-0.1c0-0.2,0.2-0.2,0.4-0.2c0.1,0,0.3,0.1,0.4,0.2c0.1,0.1,0.2,0.2,0.3,0.3
					c0.1,0.1,0.1,0.1,0.1,0.2c0,0,0.1,0.1,0.1,0.1c0.1,0,0.2,0.1,0.3,0.1c0.1,0.1,0.2,0,0.2-0.1c0-0.1,0.1-0.2,0.2-0.1
					c0.1,0.1,0.2,0.1,0.3,0c0.1,0,0.2,0,0.2,0c0.1,0,0.3,0,0.4-0.1c0.1-0.1,0.2-0.1,0.2,0c0.2,0.2,0.4,0.3,0.6,0.3
					c0.2,0,0.3,0.1,0.4,0.3c0.1,0.1,0.2,0.2,0.4,0.2c0.1,0,0.2,0,0.3,0c0.2,0,0.3,0,0.5-0.1c0.1-0.1,0.2-0.1,0.3,0c0,0,0.1,0,0.1,0
					c0.2,0,0.4,0,0.7,0c0,0,0.1,0,0.1,0c0.1-0.1,0.2,0,0.3,0c0.1,0,0.3,0,0.4-0.1c0.1,0,0.2-0.1,0.3-0.1c0,0,0.1,0,0.1,0
					c0.3-0.2,0.7-0.2,1-0.4c0.2-0.1,0.3-0.1,0.5-0.2c0.2-0.1,0.4-0.2,0.6-0.3c0-0.2,0.2-0.3,0.3-0.4c-0.1-0.1-0.1-0.2-0.3-0.2
					c-0.1,0-0.1-0.1-0.2-0.2c-0.1-0.1-0.1-0.1-0.3-0.1c0.1,0,0.1,0.1,0.2,0.1c0,0,0.1,0.1,0.1,0.1c-0.1,0.1-0.2,0-0.3,0
					c0,0.1,0,0.1,0.1,0.2c0.1,0.1,0.1,0.1,0.1,0.2c0,0-0.1,0.1-0.1,0.1c-0.1,0-0.2,0.1-0.3,0.1c-0.1,0.1-0.2,0.1-0.3,0.3
					c0,0,0,0-0.1,0c0,0-0.1,0-0.1,0c0,0-0.1-0.1-0.1-0.1c0,0,0.1-0.1,0.1-0.1c0,0-0.1,0-0.2-0.1c-0.1,0-0.1-0.1-0.1-0.2
					c0-0.1,0.1-0.1,0.2-0.2c0.1,0,0.1,0,0.2,0c0.1,0,0.2-0.1,0.2-0.2c0,0,0,0,0-0.1c0.2,0,0.3-0.1,0.4-0.3c-0.1-0.1-0.1-0.2-0.2-0.3
					c0.2-0.2,0.4-0.3,0.6-0.5c0,0,0.1,0,0.1,0.1c0.2-0.1,0.3-0.2,0.5-0.3c-0.1-0.1-0.2-0.1-0.3-0.1c0,0-0.1-0.1-0.1-0.1
					c0,0,0.1-0.1,0.1-0.1c0.2,0,0.3-0.1,0.4-0.2c0,0,0.1-0.1,0.1-0.1c0.1,0,0.2,0,0.2,0.1c0,0.1,0,0.1-0.1,0.2c0,0,0,0,0,0.1
					c0,0,0,0.1,0,0.1c0,0,0,0,0.1,0.1C204.2,37.6,204.2,37.6,204.4,37.6C204.3,37.6,204.3,37.6,204.4,37.6 M179.6,38.2
					c-0.1,0.3,0,0.6,0,0.9c0.1-0.1,0.2-0.3,0.1-0.4c0,0,0-0.1,0-0.1C179.8,38.5,179.7,38.4,179.6,38.2 M200.1,38.7
					c0,0-0.1,0.1-0.1,0.1c-0.1,0-0.1,0.1-0.2,0.1c-0.1,0-0.2,0.2-0.4,0.1c-0.1-0.1-0.2,0-0.3,0c-0.2,0.2-0.4,0.3-0.7,0.4
					c-0.1,0-0.2,0.1-0.3,0.2c-0.1,0.1-0.1,0.1,0,0.2c0.1,0.1,0.2,0.2,0.4,0.1c0.1,0,0.1,0,0.2-0.1c0.1,0.1,0.2,0.1,0.2,0.2
					c0.1,0.1,0.2,0.1,0.3,0.1c0.2,0,0.4,0.1,0.6,0c0.2,0,0.2-0.1,0.2-0.2c0-0.1,0-0.2,0-0.3l0,0c0,0.2,0,0.3,0.2,0.3
					c0.1,0,0.2,0.1,0.4,0.1c0.1,0.1,0.2,0,0.3,0c0.1,0,0.2-0.1,0.3-0.2c0.1-0.1,0.1-0.2,0.1-0.4c0,0,0,0,0-0.1
					c-0.2-0.2-0.3-0.4-0.6-0.4c-0.2,0-0.4-0.1-0.4-0.3c0.1,0,0.1-0.1,0.2-0.1c-0.1-0.1-0.1-0.1-0.3-0.2
					C200.2,38.6,200.1,38.7,200.1,38.7 M204.6,37.9c-0.1,0-0.1,0-0.2,0c0,0.1,0,0.2,0.1,0.2c0.1,0,0.1,0,0.2,0
					c0.1-0.1,0.2-0.2,0.3-0.4c-0.2-0.2-0.3-0.4-0.6-0.5c-0.2,0.1-0.2,0.1-0.1,0.3c0,0,0,0,0.1,0.1C204.5,37.7,204.5,37.8,204.6,37.9
					 M206.9,35.1C206.8,35.1,206.8,35.1,206.9,35.1c-0.1-0.3-0.1-0.3-0.3-0.2c-0.1,0.1-0.2,0.1-0.2,0.1c-0.1,0-0.1,0-0.1,0.1
					c0,0.1,0,0.1,0.1,0.1c0.1,0,0.3,0,0.4,0C206.8,35.3,206.8,35.3,206.9,35.1L206.9,35.1z M206.4,35.5c0,0,0,0.1,0,0.1
					c0.1,0.1,0.2,0.2,0.3,0.1c0,0,0.1,0,0.1,0c0.1,0,0.1,0,0.1-0.1c0-0.1,0-0.1-0.1-0.2c-0.1,0-0.3-0.1-0.4-0.1
					C206.5,35.5,206.4,35.5,206.4,35.5 M206.6,36.8c0,0,0.1,0,0.1-0.1c0-0.1,0-0.1-0.1-0.1c0,0-0.1,0-0.1-0.1c-0.1,0-0.2,0-0.3,0
					c0,0-0.1,0-0.1,0.1C206.3,36.7,206.5,36.8,206.6,36.8 M207.2,34.4c-0.1,0.1-0.2,0.1-0.3,0.2c0,0-0.1,0.1-0.1,0.1
					c0,0,0,0.1,0,0.1c0,0,0.1,0,0.1,0c0,0,0,0,0.1,0c0.1-0.1,0.2-0.1,0.3-0.2c0,0,0.1-0.1,0.1-0.1C207.3,34.4,207.3,34.4,207.2,34.4
					 M205.2,37.2c-0.1-0.1-0.2-0.1-0.4-0.1c0,0-0.1,0-0.1,0.1c0,0,0,0.1,0.1,0.1c0.1,0.1,0.3,0.1,0.4,0.1c0,0,0.1,0,0.1-0.1
					C205.2,37.2,205.2,37.2,205.2,37.2 M206,36.5c-0.1,0-0.2,0.1-0.2,0.2c0,0.1,0.1,0.1,0.1,0.1C206.1,36.8,206.1,36.7,206,36.5
					C206.1,36.6,206.1,36.6,206,36.5 M179.6,39.1c0.1-0.1,0.2-0.3,0.1-0.4c0,0,0-0.1,0-0.1c0.1-0.2-0.1-0.3-0.1-0.4
					C179.6,38.5,179.6,38.8,179.6,39.1"/>
			</g>
			<g>
				<g>
					<g>
						<path class="st8" d="M195.4,68.7c0,0,0.5,0.7,0,1.2c-0.3,0.2-1,0.3-0.9,0.9c0.1,0.5,1,1.1,2,1c1-0.1,1.9-1.4,1.9-2.5
							c0-1.1-0.7-1.8-1.7-2.8L195.4,68.7z"/>
						<path class="st8" d="M196.4,67.1c0,0,0.8,0.7,1.1,1.2c0.3,0.5,0.5,1.2,0.5,1.7c0,0.5-0.2,1.1-0.7,1.5
							c-0.5,0.4-1.3,0.4-1.9,0.2c-0.6-0.2-1-0.8-0.8-1c0.3-0.2,0.5-0.2,0.8-0.3c0.3-0.1,0.5-0.2,0.7-0.5c0.1-0.3,0.3-0.8-0.6-1.5
							L196.4,67.1z"/>
						<path class="st7" d="M196.6,71.2c0.3,0,0.5-0.2,0.5-0.5c0-0.3-0.2-0.5-0.5-0.5c-0.3,0-0.5,0.2-0.5,0.5
							C196.1,70.9,196.3,71.2,196.6,71.2z"/>
						<g>
							<defs>
								<path id="SVGID_1_" d="M196.6,67.2c0,0,0.7,0.6,1,1.1c0.3,0.5,0.5,1.2,0.5,1.7c0,0.5-0.2,1.1-0.7,1.5
									c-0.5,0.4-1.3,0.4-1.9,0.2c-0.6-0.2-1-0.8-0.8-1c0.3-0.2,0.5-0.2,0.8-0.3c0.3-0.1,0.5-0.2,0.7-0.5c0.1-0.3,0.2-0.8-0.4-1.3
									L196.6,67.2z"/>
							</defs>
							<clipPath id="SVGID_00000178903471713747226170000005966435799643553709_">
								<use xlink:href="#SVGID_1_"  style="overflow:visible;"/>
							</clipPath>
							<polyline style="clip-path:url(#SVGID_00000178903471713747226170000005966435799643553709_);fill:#211F1F;" points="
								196.1,67.7 198.2,70.3 198.1,70.4 196,67.7 							"/>
							<polyline style="clip-path:url(#SVGID_00000178903471713747226170000005966435799643553709_);fill:#211F1F;" points="
								195.9,67.8 198,70.5 197.9,70.5 195.9,67.9 							"/>
							<polyline style="clip-path:url(#SVGID_00000178903471713747226170000005966435799643553709_);fill:#211F1F;" points="
								195.8,68 197.9,70.7 197.8,70.7 195.7,68 							"/>
							<polyline style="clip-path:url(#SVGID_00000178903471713747226170000005966435799643553709_);fill:#211F1F;" points="
								195.7,68.3 197.8,70.9 197.7,71 195.7,68.3 							"/>
							<polyline style="clip-path:url(#SVGID_00000178903471713747226170000005966435799643553709_);fill:#211F1F;" points="
								195.7,68.6 197.7,71.2 197.7,71.3 195.6,68.6 							"/>
							<polyline style="clip-path:url(#SVGID_00000178903471713747226170000005966435799643553709_);fill:#211F1F;" points="
								195.5,68.8 197.6,71.4 197.5,71.5 195.4,68.8 							"/>
							<polyline style="clip-path:url(#SVGID_00000178903471713747226170000005966435799643553709_);fill:#211F1F;" points="
								195.4,68.9 197.4,71.6 197.4,71.6 195.3,69 							"/>
							<polyline style="clip-path:url(#SVGID_00000178903471713747226170000005966435799643553709_);fill:#211F1F;" points="
								195.2,69.1 197.3,71.8 197.2,71.8 195.1,69.2 							"/>
							<polyline style="clip-path:url(#SVGID_00000178903471713747226170000005966435799643553709_);fill:#211F1F;" points="
								195.1,69.3 197.1,72 197.1,72 195,69.4 							"/>
							<polyline style="clip-path:url(#SVGID_00000178903471713747226170000005966435799643553709_);fill:#211F1F;" points="
								194.9,69.5 197,72.1 196.9,72.2 194.9,69.5 							"/>
						</g>
						<g>
							<path class="st10" d="M196.6,70.3c0.2,0,0.4,0.2,0.4,0.5s-0.2,0.4-0.5,0.4c-0.2,0-0.4-0.2-0.4-0.5
								C196.2,70.4,196.4,70.3,196.6,70.3 M196.1,70.7c0,0.3,0.2,0.5,0.5,0.5c0.3,0,0.5-0.2,0.5-0.5c0-0.3-0.2-0.5-0.5-0.5
								C196.3,70.2,196.1,70.4,196.1,70.7z"/>
							<g>
								<defs>
									<path id="SVGID_00000134231170368494202160000005325321109588929691_" d="M196.2,70.7c0,0.2,0.2,0.4,0.4,0.5
										c0.2,0,0.4-0.2,0.5-0.4s-0.2-0.4-0.4-0.5C196.4,70.3,196.2,70.4,196.2,70.7z"/>
								</defs>
								<clipPath id="SVGID_00000158710676962297873600000016464083619193937544_">
									<use xlink:href="#SVGID_00000134231170368494202160000005325321109588929691_"  style="overflow:visible;"/>
								</clipPath>
								<path style="clip-path:url(#SVGID_00000158710676962297873600000016464083619193937544_);fill:#B59F3C;" d="M196.1,70.7
									c0,0.3,0.2,0.5,0.5,0.5c0.3,0,0.5-0.2,0.5-0.5c0-0.3-0.2-0.5-0.5-0.5C196.4,70.2,196.1,70.4,196.1,70.7z"/>
								<path style="clip-path:url(#SVGID_00000158710676962297873600000016464083619193937544_);fill:#211F1F;" d="M196.1,70.5
									L196.1,70.5c0,0.2,0.2,0.3,0.4,0.3c0.2,0,0.3-0.1,0.3-0.3c0-0.2-0.1-0.3-0.3-0.3C196.3,70.2,196.2,70.3,196.1,70.5
									L196.1,70.5L196.1,70.5c0-0.2,0.2-0.4,0.4-0.4c0.2,0,0.4,0.2,0.4,0.4c0,0.2-0.2,0.4-0.4,0.4
									C196.2,70.9,196.1,70.7,196.1,70.5L196.1,70.5z"/>
							</g>
						</g>
					</g>
					<g>
						<path class="st8" d="M191.9,64.8l0,0.3l3.2,3.7l0.4,0.1l1.4-2.2l-0.1-0.3l-3.4-3.7l-0.2-0.1C193.2,62.6,192.9,63.9,191.9,64.8
							z"/>
						<g>
							<g>
								<defs>
									<path id="SVGID_00000088844056990662336620000016500880583845484990_" d="M191.9,64.8l0,0.3l3.2,3.7l0.4,0.1l1.4-2.2
										l-0.1-0.3l-3.4-3.7l-0.2-0.1C193.2,62.6,193.3,63.8,191.9,64.8z"/>
								</defs>
								<clipPath id="SVGID_00000127735915643652404060000002603082300749224609_">
									<use xlink:href="#SVGID_00000088844056990662336620000016500880583845484990_"  style="overflow:visible;"/>
								</clipPath>
								<path style="clip-path:url(#SVGID_00000127735915643652404060000002603082300749224609_);fill:#211F1F;" d="M193.4,62.6
									c0,0,1.1,2.8,1.4,6.1l-0.1,0c-0.2-1.6-0.5-3.1-0.8-4.2c-0.2-0.6-0.3-1-0.4-1.3c-0.1-0.2-0.1-0.3-0.1-0.4
									C193.4,62.7,193.3,62.6,193.4,62.6L193.4,62.6L193.4,62.6z"/>
								<path style="clip-path:url(#SVGID_00000127735915643652404060000002603082300749224609_);fill:#211F1F;" d="M193.1,62.2
									c0,0,1.1,2.8,1.4,6.1l-0.1,0c-0.2-1.6-0.5-3.1-0.8-4.2c-0.2-0.6-0.3-1-0.4-1.3c-0.1-0.2-0.1-0.3-0.1-0.4
									C193,62.2,193,62.2,193.1,62.2L193.1,62.2z"/>
								<path style="clip-path:url(#SVGID_00000127735915643652404060000002603082300749224609_);fill:#211F1F;" d="M192.8,61.9
									c0,0,1.1,2.8,1.4,6.1l-0.1,0c-0.2-1.6-0.5-3.1-0.8-4.2c-0.2-0.6-0.3-1-0.4-1.3c-0.1-0.2-0.1-0.3-0.1-0.4
									C192.7,61.9,192.7,61.9,192.8,61.9L192.8,61.9L192.8,61.9z"/>
								<path style="clip-path:url(#SVGID_00000127735915643652404060000002603082300749224609_);fill:#211F1F;" d="M192.5,61.5
									c0,0,1.1,2.8,1.4,6.1l-0.1,0c-0.2-1.6-0.5-3.1-0.8-4.2c-0.2-0.6-0.3-1-0.4-1.3c-0.1-0.2-0.1-0.3-0.1-0.4
									C192.4,61.6,192.4,61.6,192.5,61.5L192.5,61.5L192.5,61.5z"/>
								<path style="clip-path:url(#SVGID_00000127735915643652404060000002603082300749224609_);fill:#211F1F;" d="M192.2,61.2
									c0,0,1.1,2.8,1.4,6.1l-0.1,0c-0.2-1.6-0.5-3.1-0.8-4.2c-0.2-0.6-0.3-1-0.4-1.3c-0.1-0.2-0.1-0.3-0.1-0.4
									C192.1,61.3,192.1,61.2,192.2,61.2L192.2,61.2L192.2,61.2z"/>
								<path style="clip-path:url(#SVGID_00000127735915643652404060000002603082300749224609_);fill:#211F1F;" d="M191.8,60.8
									c0,0,1.1,2.8,1.4,6.1l-0.1,0c-0.2-1.6-0.5-3.1-0.8-4.2c-0.2-0.6-0.3-1-0.4-1.3c-0.1-0.2-0.1-0.3-0.1-0.4
									C191.8,60.9,191.8,60.9,191.8,60.8L191.8,60.8L191.8,60.8z"/>
								<path style="clip-path:url(#SVGID_00000127735915643652404060000002603082300749224609_);fill:#211F1F;" d="M191.5,60.6
									c0,0,1.1,2.8,1.4,6.1l-0.1,0c-0.2-1.6-0.5-3.1-0.8-4.2c-0.2-0.6-0.3-1-0.4-1.3c-0.1-0.2-0.1-0.3-0.1-0.4
									C191.5,60.7,191.5,60.6,191.5,60.6L191.5,60.6z"/>
								<path style="clip-path:url(#SVGID_00000127735915643652404060000002603082300749224609_);fill:#211F1F;" d="M191.2,60.2
									c0,0,1.1,2.8,1.4,6.1l-0.1,0c-0.2-1.6-0.5-3.1-0.8-4.2c-0.2-0.6-0.3-1-0.4-1.3c-0.1-0.2-0.1-0.3-0.1-0.4
									C191.2,60.3,191.1,60.3,191.2,60.2L191.2,60.2L191.2,60.2z"/>
								<path style="clip-path:url(#SVGID_00000127735915643652404060000002603082300749224609_);fill:#211F1F;" d="M190.9,60
									c0,0,1.1,2.8,1.4,6.1l-0.1,0c-0.2-1.6-0.5-3.1-0.8-4.2c-0.2-0.6-0.3-1-0.4-1.3c-0.1-0.2-0.1-0.3-0.1-0.4
									C190.8,60,190.8,60,190.9,60L190.9,60L190.9,60z"/>
								<path style="clip-path:url(#SVGID_00000127735915643652404060000002603082300749224609_);fill:#211F1F;" d="M193.7,62.7
									c0,0,1.1,2.8,1.4,6.1l-0.1,0c-0.2-1.6-0.5-3.1-0.8-4.2c-0.2-0.6-0.3-1-0.4-1.3c-0.1-0.2-0.1-0.3-0.1-0.4
									C193.6,62.8,193.6,62.7,193.7,62.7L193.7,62.7z"/>
								<path style="clip-path:url(#SVGID_00000127735915643652404060000002603082300749224609_);fill:#211F1F;" d="M193.9,62.8
									c0,0,1.1,2.8,1.4,6.1l-0.1,0c-0.2-1.6-0.5-3.1-0.8-4.2c-0.2-0.6-0.3-1-0.4-1.3c-0.1-0.2-0.1-0.3-0.1-0.4
									C193.9,62.8,193.9,62.8,193.9,62.8L193.9,62.8L193.9,62.8z"/>
								<path style="clip-path:url(#SVGID_00000127735915643652404060000002603082300749224609_);fill:#211F1F;" d="M194.2,62.8
									c0,0,1.1,2.8,1.4,6.1l-0.1,0c-0.2-1.6-0.5-3.1-0.8-4.2c-0.2-0.6-0.3-1-0.4-1.3c-0.1-0.2-0.1-0.3-0.1-0.4
									C194.1,62.9,194.1,62.8,194.2,62.8L194.2,62.8z"/>
								<path style="clip-path:url(#SVGID_00000127735915643652404060000002603082300749224609_);fill:#211F1F;" d="M194.4,62.5
									c0,0,1.1,2.8,1.4,6.1l-0.1,0c-0.2-1.6-0.5-3.1-0.8-4.2c-0.2-0.6-0.3-1-0.4-1.3c-0.1-0.2-0.1-0.3-0.1-0.4
									C194.3,62.6,194.3,62.5,194.4,62.5L194.4,62.5L194.4,62.5z"/>
								<path style="clip-path:url(#SVGID_00000127735915643652404060000002603082300749224609_);fill:#211F1F;" d="M194.6,62.3
									c0,0,1.1,2.8,1.4,6.1l-0.1,0c-0.2-1.6-0.5-3.1-0.8-4.2c-0.2-0.6-0.3-1-0.4-1.3c-0.1-0.2-0.1-0.3-0.1-0.4
									C194.5,62.4,194.5,62.4,194.6,62.3L194.6,62.3L194.6,62.3z"/>
								<path style="clip-path:url(#SVGID_00000127735915643652404060000002603082300749224609_);fill:#211F1F;" d="M194.7,62.2
									c0,0,1.1,2.8,1.4,6.1l-0.1,0c-0.2-1.6-0.5-3.1-0.8-4.2c-0.2-0.6-0.3-1-0.4-1.3c-0.1-0.2-0.1-0.3-0.1-0.4
									C194.7,62.2,194.7,62.2,194.7,62.2L194.7,62.2L194.7,62.2z"/>
								<path style="clip-path:url(#SVGID_00000127735915643652404060000002603082300749224609_);fill:#211F1F;" d="M194.9,62.1
									c0,0,1.1,2.8,1.4,6.1l-0.1,0c-0.2-1.6-0.5-3.1-0.8-4.2c-0.2-0.6-0.3-1-0.4-1.3c-0.1-0.2-0.1-0.3-0.1-0.4
									C194.8,62.1,194.8,62.1,194.9,62.1L194.9,62.1L194.9,62.1z"/>
								<path style="clip-path:url(#SVGID_00000127735915643652404060000002603082300749224609_);fill:#211F1F;" d="M195.1,61.9
									c0,0,1.1,2.8,1.4,6.1l-0.1,0c-0.2-1.6-0.5-3.1-0.8-4.2c-0.2-0.6-0.3-1-0.4-1.3c-0.1-0.2-0.1-0.3-0.1-0.4
									C195,62,195,61.9,195.1,61.9L195.1,61.9L195.1,61.9z"/>
								<path style="clip-path:url(#SVGID_00000127735915643652404060000002603082300749224609_);fill:#211F1F;" d="M195.2,61.8
									c0,0,1.1,2.8,1.4,6.1l-0.1,0c-0.2-1.6-0.5-3.1-0.8-4.2c-0.2-0.6-0.3-1-0.4-1.3c-0.1-0.2-0.1-0.3-0.1-0.4
									C195.2,61.8,195.2,61.8,195.2,61.8L195.2,61.8z"/>
								<path style="clip-path:url(#SVGID_00000127735915643652404060000002603082300749224609_);fill:#211F1F;" d="M195.4,61.6
									c0,0,1.1,2.8,1.4,6.1l-0.1,0c-0.2-1.6-0.5-3.1-0.8-4.2c-0.2-0.6-0.3-1-0.4-1.3c-0.1-0.2-0.1-0.3-0.1-0.4
									C195.3,61.7,195.3,61.6,195.4,61.6L195.4,61.6L195.4,61.6z"/>
								<path style="clip-path:url(#SVGID_00000127735915643652404060000002603082300749224609_);fill:#211F1F;" d="M195.5,61.6
									c1.1,2.9,1.2,2.9,1.5,6.1l-0.1,0C196.6,64.4,196.5,64.4,195.5,61.6L195.5,61.6L195.5,61.6z"/>
							</g>
						</g>
					</g>
					<g>
						<path class="st7" d="M190.3,63.4c0,0-17.2-15.6-17.1-39.1c0-1.8,0.3-4.5,1.3-5c0,0,0.5,8.6,1.3,12.6
							c3.6,18.2,16.2,29.4,16.2,29.4l-0.6,1L190.3,63.4z"/>
						<path class="st10" d="M190.3,63.4L190.3,63.4c0,0-17.3-15.5-17.2-39.1c0-0.2,0-0.4,0-0.7c0-0.9,0.1-1.9,0.3-2.7
							c0.1-0.4,0.2-0.8,0.4-1.1c0.2-0.3,0.4-0.5,0.6-0.7l0.1,0l0,0.1c0,0,0,0.1,0,0.4c0.1,1.7,0.6,8.7,1.3,12.3
							c1.8,9.1,5.8,16.4,9.4,21.5c1.8,2.5,3.5,4.5,4.7,5.8c0.6,0.7,1.1,1.2,1.5,1.5c0.2,0.2,0.3,0.3,0.4,0.4
							c0.1,0.1,0.1,0.1,0.1,0.1l0,0l-0.6,1L190.3,63.4L190.3,63.4L190.3,63.4L190.3,63.4l1.1-1.1l0.5-1l0.1,0l0,0
							c0,0-12.6-11.2-16.2-29.5c-0.8-4.1-1.3-12.6-1.3-12.6l0.1,0l0,0.1c-0.2,0.1-0.4,0.3-0.5,0.6c-0.5,0.9-0.7,2.4-0.7,3.7
							c0,0.2,0,0.4,0,0.7c0,11.7,4.2,21.5,8.5,28.3c2.1,3.4,4.3,6.1,5.9,7.9c0.8,0.9,1.5,1.6,1.9,2.1c0.2,0.2,0.4,0.4,0.5,0.5
							C190.3,63.3,190.3,63.4,190.3,63.4L190.3,63.4L190.3,63.4L190.3,63.4z"/>
					</g>
					<g>
						<path class="st8" d="M190.3,63.4c0,0-17.2-15.6-17.1-39.1c0-1.8,0.3-4.5,1.3-5c0,0,0.5,8.6,1.3,12.6c3.6,18.2,16,29.3,16,29.3
							l-0.6,1L190.3,63.4z"/>
						<g>
							<defs>
								<path id="SVGID_00000170245515281533087770000016009888197254568576_" d="M190.3,63.4c0,0-17.2-15.6-17.1-39.1
									c0-1.8,0.3-4.5,1.3-5c0,0,0.5,8.6,1.3,12.6c3.6,18.2,16,29.3,16,29.3l-0.6,1L190.3,63.4z"/>
							</defs>
							<clipPath id="SVGID_00000119101807570729122920000006772755648415493794_">
								<use xlink:href="#SVGID_00000170245515281533087770000016009888197254568576_"  style="overflow:visible;"/>
							</clipPath>
							
								<path style="clip-path:url(#SVGID_00000119101807570729122920000006772755648415493794_);fill:none;stroke:#221E1F;stroke-width:7.777243e-02;stroke-miterlimit:10;" d="
								M190.6,63c0,0-6-6.8-6.6-7.9c-0.6-1.1-3.8-6.2-5.1-9.1c-1.2-2.9-2.8-7.7-3.4-9.7c-0.6-2.1-1.1-4.6-1.1-5.5
								c-0.1-1-0.2-2.5-0.2-3c-0.1-0.5-0.1-1-0.1-1.6c0-0.6-0.1-1.8,0-2.3c0.1-0.5,0.2-1.1,0.2-1.1s0.2,1.3,0.3,1.6
								c0.1,0.3,0.1,1.1,0.2,1.8c0,0.7,0.1,1.9,0.3,2.8c0.2,0.9,1,5.1,1.4,6.6c0.4,1.5,1.1,3.8,1.7,5.3c0.6,1.5,1.5,4,2.3,5.6
								c0.9,1.6,2.9,5.3,3.6,6.4c0.7,1.1,2.9,3.7,3.4,4.3c0.5,0.6,2.2,2.7,2.6,3.1c0.4,0.3,1.7,1.4,1.7,1.4L190.6,63z"/>
							
								<path style="clip-path:url(#SVGID_00000119101807570729122920000006772755648415493794_);fill:none;stroke:#221E1F;stroke-width:7.777243e-02;stroke-miterlimit:10;" d="
								M191.3,62c0,0-3.3-3.6-4.3-4.9c-1-1.2-3.6-4.6-4.8-6.7c-1.2-2.1-3.7-7.2-4.6-9.5c-0.8-2.3-1.8-5.2-2.3-7.7
								c-0.6-2.4-1.2-5.5-1.2-5.5"/>
							<g style="clip-path:url(#SVGID_00000119101807570729122920000006772755648415493794_);">
								<line class="st16" x1="190.1" y1="60.3" x2="189.4" y2="59.1"/>
								<line class="st16" x1="187.9" y1="57.7" x2="187.3" y2="56.6"/>
							</g>
						</g>
					</g>
				</g>
				<g>
					<path class="st8" d="M191.9,61.1l1.2,1.2c0,0,0.1,0.3,0.2,0.4c0,0.3-0.2,0.8-0.5,1.2c-0.3,0.4-0.9,0.9-0.9,0.9l-0.4,0l-1.4-1.3
						C190.1,63.4,191.5,62.3,191.9,61.1z"/>
					<path class="st17" d="M191.2,62.4L191.2,62.4l1.4,1.2l0.2,0.5l0,0c0,0,0,0.2-0.1,0.5c-0.1,0.3-0.2,0.6-0.4,0.8
						c-0.3,0.4-0.9,1-0.9,1l0,0l-0.5,0l-1.6-1.5l0.1,0l0,0c0.1-0.1,0.5-0.4,0.9-0.8C190.5,63.6,190.9,63,191.2,62.4l0-0.1
						L191.2,62.4L191.2,62.4L191.2,62.4c-0.1,0.7-0.6,1.4-1.1,1.8c-0.4,0.5-0.8,0.7-0.8,0.7l0-0.1l0,0l1.5,1.4l0.4,0l0,0.1l0,0
						c0,0,0,0,0.1-0.1c0.2-0.2,0.6-0.6,0.8-0.9c0.2-0.2,0.3-0.5,0.4-0.8c0-0.1,0.1-0.3,0.1-0.3c0,0,0-0.1,0-0.1c0,0,0,0,0,0l0.1,0
						l-0.1,0l-0.2-0.4L191.2,62.4L191.2,62.4L191.2,62.4L191.2,62.4z"/>
				</g>
				<g>
					<g>
						<defs>
							<path id="SVGID_00000117657694482334368410000016380800576379338416_" d="M191.9,61.1l1.2,1.2l0.2,0.4c0,0-0.2,0.8-0.5,1.2
								c-0.3,0.4-0.9,1-0.9,1l-0.2,0l-1.5-1.5C190.1,63.4,191.5,62.3,191.9,61.1z"/>
						</defs>
						<clipPath id="SVGID_00000098928936834668781930000000259591907273065662_">
							<use xlink:href="#SVGID_00000117657694482334368410000016380800576379338416_"  style="overflow:visible;"/>
						</clipPath>
						<g style="clip-path:url(#SVGID_00000098928936834668781930000000259591907273065662_);">
							<line class="st19" x1="191.7" y1="64.7" x2="190.9" y2="63.6"/>
							<line class="st19" x1="191.8" y1="64.5" x2="191" y2="63.4"/>
							<path class="st19" d="M192,64.4c0,0-1-1.2-1-1.2"/>
							<line class="st19" x1="192.2" y1="64.3" x2="191" y2="62.9"/>
							<line class="st19" x1="192.4" y1="64.1" x2="191" y2="62.6"/>
							<line class="st19" x1="192.6" y1="63.8" x2="191.2" y2="62.4"/>
							<line class="st19" x1="192.7" y1="63.7" x2="191.3" y2="62.2"/>
							<line class="st19" x1="192.9" y1="63.5" x2="191.3" y2="61.9"/>
							<line class="st19" x1="193" y1="63.2" x2="191.7" y2="61.7"/>
							<line class="st19" x1="192.9" y1="63.3" x2="191.5" y2="61.8"/>
							<line class="st19" x1="193.1" y1="63" x2="191.8" y2="61.6"/>
							<line class="st19" x1="193.1" y1="62.8" x2="191.8" y2="61.4"/>
							<line class="st19" x1="193.2" y1="62.6" x2="191.8" y2="61.2"/>
						</g>
						
							<path style="clip-path:url(#SVGID_00000098928936834668781930000000259591907273065662_);fill:#B59F3C;stroke:#221E1F;stroke-width:6.221788e-02;stroke-miterlimit:10;" d="
							M191.5,64.8c0,0,0.9-0.7,1.2-1.1c0.3-0.4,0.6-1.1,0.6-1.1s0.2,0.5-0.5,1.4c-0.4,0.5-0.9,0.9-0.9,0.9L191.5,64.8z"/>
					</g>
					<polygon class="st8" points="190.3,64.3 190,63.5 191.1,62.2 191.5,61.2 191.8,60.9 192,61.1 191.8,61.5 190.3,63.6 
						190.8,64.1 190.6,64.2 					"/>
					<g>
						<g>
							<path class="st0" d="M189,68.3c0,0-0.3-0.4-0.4-0.7c-0.1-0.3,0.3-1.1,0.4-1.2l1.4-2.1c0,0,0.2,0,0.5-0.2
								c0.2-0.2,0.3-0.7,0.2-0.8c0-0.1,0-0.6,0-0.6l0,0l0.1,0c0,0,0.7-0.4,0.9-0.5c0.1-0.1,0.3-0.5,0.4-0.6l-0.1-0.1
								c0-0.1,0.3-0.3,0.4-0.4c0.2-0.3,0.6-0.9,0.8-1.1c0.1-0.2-0.1-0.7-0.3-0.9c0,0-0.2-0.1-0.2-0.1l0.3-0.4l0.2,0l0.7,0.8
								c0,0,0.2,0.2,0,0.7c-0.2,0.4-1.6,2.7-1.6,2.7l0.3,1.2l-1.4,0.5l-1.9,2.6c0,0-0.1,0.3,0,0.5c0.1,0.3,0.2,0.3,0.2,0.3l-0.4,0.5
								l-0.1,0L189,68.3z"/>
							<path class="st21" d="M193.4,58.5L193.4,58.5l0.6,0.8c0,0,0.2,0.2,0,0.6c-0.2,0.4-1.6,2.7-1.6,2.7l0.3,1.2l-1.4,0.5l-1.9,2.6
								c0,0-0.1,0.3,0,0.5c0.1,0.3,0.2,0.4,0.2,0.4l-0.4,0.5l0,0.1l-0.1,0c0,0-0.3-0.4-0.4-0.7c-0.1-0.3,0.3-1.1,0.3-1.1l1.4-2.1
								c0,0,0.2,0,0.5-0.2c0.3-0.2,0.3-0.7,0.3-0.9c0-0.1,0-0.6,0-0.6l0.1,0c0,0,0.8-0.4,0.9-0.5c0.1-0.1,0.4-0.6,0.4-0.6l-0.2-0.2
								c0,0,0.3-0.2,0.4-0.3c0.2-0.3,0.6-0.9,0.8-1.1c0.2-0.3-0.2-0.7-0.3-0.9c0,0-0.2-0.1-0.2-0.1l0.3-0.4L193.4,58.5 M193.5,58.4
								L193.5,58.4l-0.2,0l0,0l0,0l-0.3,0.4l-0.1,0.1l0.1,0c0,0,0.1,0.1,0.2,0.1c0.2,0.2,0.5,0.6,0.3,0.8c-0.1,0.2-0.6,0.8-0.8,1.1
								c-0.1,0.1-0.4,0.3-0.4,0.3l-0.1,0l0.1,0.1l0.1,0.1c-0.1,0.2-0.2,0.5-0.3,0.6c-0.1,0.1-0.7,0.4-0.9,0.5l-0.1,0l0,0l0,0
								c0,0,0,0.5,0,0.6c0,0.2,0,0.6-0.2,0.8c-0.2,0.2-0.4,0.2-0.4,0.2l0,0l0,0l-1.4,2.1c-0.1,0.1-0.5,0.9-0.4,1.2
								c0.1,0.3,0.4,0.7,0.4,0.7l0,0l0,0l0.1,0l0,0l0,0l0-0.1l0.4-0.5l0,0l0,0c0,0,0-0.1-0.2-0.3c-0.1-0.2,0-0.5,0-0.5l1.9-2.6
								l1.4-0.5l0.1,0l0-0.1l-0.3-1.2c0.2-0.3,1.4-2.3,1.5-2.7c0.2-0.4,0-0.7,0-0.7L193.5,58.4L193.5,58.4L193.5,58.4L193.5,58.4z"
								/>
						</g>
						<g>
							<path class="st0" d="M189.2,68.3c0,0-0.2-0.2-0.2-0.3c-0.1-0.1-0.2-0.4-0.1-0.6c0-0.2,0.1-0.3,0.2-0.5c0.5-0.8,2.2-3,2.2-3
								l0-1.1l0.9-0.5c0,0,1.2-1.7,1.5-2.3c0.1-0.2,0.2-0.4-0.1-0.7c-0.3-0.3-0.4-0.4-0.4-0.4l0.4-0.4l0.7,0.8c0,0,0.2,0.2,0,0.7
								c-0.2,0.4-1.6,2.7-1.6,2.7l0.3,1.2l-1.4,0.5l-1.9,2.6c0,0-0.1,0.3,0,0.5c0.1,0.3,0.2,0.3,0.2,0.3L189.2,68.3L189.2,68.3z"/>
							<path class="st21" d="M193.5,58.5l0.6,0.8c0,0,0.2,0.2,0,0.6c-0.2,0.4-1.6,2.7-1.6,2.7l0.3,1.2l-1.4,0.5l-1.9,2.6
								c0,0-0.1,0.3,0,0.5c0.1,0.3,0.2,0.4,0.2,0.4l-0.4,0.5c0,0-0.2-0.2-0.2-0.3c-0.1-0.1-0.2-0.4-0.1-0.6c0-0.2,0.1-0.4,0.2-0.5
								c0.5-0.8,2.2-3,2.2-3l0-1.2l0.9-0.4c0,0,1.2-1.7,1.5-2.3c0.1-0.2,0.2-0.4-0.1-0.8c-0.3-0.3-0.4-0.4-0.4-0.4L193.5,58.5
								 M193.5,58.4L193.5,58.4l-0.4,0.4l-0.1,0.1l0.1,0c0,0,0,0,0,0c0,0,0.1,0.1,0.4,0.4c0.2,0.3,0.2,0.5,0.1,0.7
								c-0.3,0.6-1.4,2.1-1.5,2.3l-0.8,0.4l0,0l0,0l0,1.1c-0.2,0.2-1.8,2.2-2.2,3c-0.1,0.2-0.2,0.3-0.2,0.5c0,0.2,0.1,0.6,0.2,0.7
								c0.1,0.1,0.2,0.3,0.3,0.3l0.1,0.1l0.1-0.1l0.4-0.5l0,0l0,0c0,0,0-0.1-0.2-0.3c-0.1-0.2,0-0.5,0-0.5l1.9-2.6l1.4-0.5l0.1,0
								l0-0.1l-0.3-1.2c0.2-0.3,1.4-2.3,1.5-2.7c0.2-0.4,0-0.7,0-0.7L193.5,58.4L193.5,58.4L193.5,58.4z"/>
						</g>
					</g>
				</g>
				<path class="st8" d="M191.4,61.3l-0.2,0.7l-0.7,0.9l-0.4,0.3l0.8,0.7l1-2.7c0,0-2-2-2.6-2.7c-1.1-1.3-3.2-3.9-4.2-5.3
					c-1.3-2-2.4-3.7-3.1-4.9c-0.7-1.2-2.7-4.7-2.7-4.7s2.2,4.7,3,5.9c0.8,1.2,3.1,4.7,4,5.8C187,56.4,191.3,61.2,191.4,61.3z"/>
			</g>
			<g>
				<g>
					<g>
						<path class="st8" d="M205.6,68.7c0,0-0.5,0.7,0,1.2c0.3,0.2,1,0.3,0.9,0.9c-0.1,0.5-1,1.1-2,1c-1-0.1-1.9-1.4-1.9-2.5
							c0-1.1,0.7-1.8,1.7-2.8L205.6,68.7z"/>
						<path class="st8" d="M204.6,67.1c0,0-0.8,0.7-1.1,1.2c-0.3,0.5-0.5,1.2-0.5,1.7c0,0.5,0.2,1.1,0.7,1.5
							c0.5,0.4,1.3,0.4,1.9,0.2c0.6-0.2,1-0.8,0.8-1c-0.3-0.2-0.5-0.2-0.8-0.3c-0.3-0.1-0.5-0.2-0.7-0.5c-0.1-0.3-0.3-0.8,0.6-1.5
							L204.6,67.1z"/>
						<path class="st7" d="M204.4,71.2c-0.3,0-0.5-0.2-0.5-0.5c0-0.3,0.2-0.5,0.5-0.5c0.3,0,0.5,0.2,0.5,0.5
							C204.9,70.9,204.7,71.2,204.4,71.2z"/>
						<g>
							<defs>
								<path id="SVGID_00000125573577098739319060000017869273271445310083_" d="M204.4,67.2c0,0-0.7,0.6-1,1.1
									c-0.3,0.5-0.5,1.2-0.5,1.7c0,0.5,0.2,1.1,0.7,1.5c0.5,0.4,1.3,0.4,1.9,0.2c0.6-0.2,1-0.8,0.8-1c-0.3-0.2-0.5-0.2-0.8-0.3
									c-0.3-0.1-0.5-0.2-0.7-0.5c-0.1-0.3-0.2-0.8,0.4-1.3L204.4,67.2z"/>
							</defs>
							<clipPath id="SVGID_00000025411657278953632230000007687118865280748200_">
								<use xlink:href="#SVGID_00000125573577098739319060000017869273271445310083_"  style="overflow:visible;"/>
							</clipPath>
							<polyline style="clip-path:url(#SVGID_00000025411657278953632230000007687118865280748200_);fill:#211F1F;" points="
								204.9,67.7 202.8,70.3 202.9,70.4 204.9,67.7 							"/>
							<polyline style="clip-path:url(#SVGID_00000025411657278953632230000007687118865280748200_);fill:#211F1F;" points="
								205,67.8 203,70.5 203,70.5 205.1,67.9 							"/>
							<polyline style="clip-path:url(#SVGID_00000025411657278953632230000007687118865280748200_);fill:#211F1F;" points="
								205.2,68 203.1,70.7 203.2,70.7 205.2,68 							"/>
							<polyline style="clip-path:url(#SVGID_00000025411657278953632230000007687118865280748200_);fill:#211F1F;" points="
								205.3,68.3 203.2,70.9 203.3,71 205.3,68.3 							"/>
							<polyline style="clip-path:url(#SVGID_00000025411657278953632230000007687118865280748200_);fill:#211F1F;" points="
								205.3,68.6 203.3,71.2 203.3,71.3 205.4,68.6 							"/>
							<polyline style="clip-path:url(#SVGID_00000025411657278953632230000007687118865280748200_);fill:#211F1F;" points="
								205.5,68.8 203.4,71.4 203.5,71.5 205.6,68.8 							"/>
							<polyline style="clip-path:url(#SVGID_00000025411657278953632230000007687118865280748200_);fill:#211F1F;" points="
								205.6,68.9 203.6,71.6 203.6,71.6 205.7,69 							"/>
							<polyline style="clip-path:url(#SVGID_00000025411657278953632230000007687118865280748200_);fill:#211F1F;" points="
								205.8,69.1 203.7,71.8 203.8,71.8 205.8,69.2 							"/>
							<polyline style="clip-path:url(#SVGID_00000025411657278953632230000007687118865280748200_);fill:#211F1F;" points="
								205.9,69.3 203.9,72 203.9,72 206,69.4 							"/>
							<polyline style="clip-path:url(#SVGID_00000025411657278953632230000007687118865280748200_);fill:#211F1F;" points="
								206.1,69.5 204,72.1 204.1,72.2 206.1,69.5 							"/>
						</g>
						<g>
							<path class="st10" d="M204.3,70.3c0.2,0,0.4,0.2,0.5,0.4c0,0.2-0.2,0.4-0.4,0.5c-0.2,0-0.4-0.2-0.5-0.4
								S204.1,70.3,204.3,70.3 M204.3,70.2c-0.3,0-0.5,0.3-0.5,0.5c0,0.3,0.3,0.5,0.5,0.5c0.3,0,0.5-0.3,0.5-0.5
								C204.9,70.4,204.6,70.2,204.3,70.2z"/>
							<g>
								<defs>
									<path id="SVGID_00000001656537068750308250000017803213582166276514_" d="M204.8,70.7c0,0.2-0.2,0.4-0.4,0.5
										c-0.2,0-0.4-0.2-0.5-0.4s0.2-0.4,0.4-0.5C204.6,70.3,204.8,70.4,204.8,70.7z"/>
								</defs>
								<clipPath id="SVGID_00000059997118014147847170000008466335755005992115_">
									<use xlink:href="#SVGID_00000001656537068750308250000017803213582166276514_"  style="overflow:visible;"/>
								</clipPath>
								<path style="clip-path:url(#SVGID_00000059997118014147847170000008466335755005992115_);fill:#B59F3C;" d="M204.9,70.7
									c0,0.3-0.2,0.5-0.5,0.5c-0.3,0-0.5-0.2-0.5-0.5c0-0.3,0.2-0.5,0.5-0.5C204.6,70.2,204.9,70.4,204.9,70.7z"/>
								<path style="clip-path:url(#SVGID_00000059997118014147847170000008466335755005992115_);fill:#211F1F;" d="M204.9,70.5
									L204.9,70.5c0,0.2-0.2,0.3-0.4,0.3c-0.2,0-0.3-0.1-0.3-0.3c0-0.2,0.1-0.3,0.3-0.3C204.7,70.2,204.8,70.3,204.9,70.5
									L204.9,70.5L204.9,70.5c0-0.2-0.2-0.4-0.4-0.4c-0.2,0-0.4,0.2-0.4,0.4c0,0.2,0.2,0.4,0.4,0.4
									C204.7,70.9,204.9,70.7,204.9,70.5L204.9,70.5z"/>
							</g>
						</g>
					</g>
					<g>
						<path class="st8" d="M209.1,64.8l0,0.3l-3.2,3.7l-0.4,0.1l-1.4-2.2l0.1-0.3l3.4-3.7l0.2-0.1C207.7,62.6,208.1,63.9,209.1,64.8
							z"/>
						<g>
							<g>
								<defs>
									<path id="SVGID_00000087403337388118077680000002223987091537153461_" d="M209.1,64.8l0,0.3l-3.2,3.7l-0.4,0.1l-1.4-2.2
										l0.1-0.3l3.4-3.7l0.2-0.1C207.7,62.6,207.7,63.8,209.1,64.8z"/>
								</defs>
								<clipPath id="SVGID_00000026149552427575829730000014476772579710555318_">
									<use xlink:href="#SVGID_00000087403337388118077680000002223987091537153461_"  style="overflow:visible;"/>
								</clipPath>
								<path style="clip-path:url(#SVGID_00000026149552427575829730000014476772579710555318_);fill:#211F1F;" d="M207.6,62.6
									c0,0-1.1,2.8-1.4,6.1l0.1,0c0.2-1.6,0.5-3.1,0.8-4.2c0.2-0.6,0.3-1,0.4-1.3c0.1-0.2,0.1-0.3,0.1-0.4
									C207.6,62.7,207.6,62.6,207.6,62.6L207.6,62.6L207.6,62.6z"/>
								<path style="clip-path:url(#SVGID_00000026149552427575829730000014476772579710555318_);fill:#211F1F;" d="M207.9,62.2
									c0,0-1.1,2.8-1.4,6.1l0.1,0c0.2-1.6,0.5-3.1,0.8-4.2c0.2-0.6,0.3-1,0.4-1.3c0.1-0.2,0.1-0.3,0.1-0.4
									C208,62.2,208,62.2,207.9,62.2L207.9,62.2z"/>
								<path style="clip-path:url(#SVGID_00000026149552427575829730000014476772579710555318_);fill:#211F1F;" d="M208.2,61.9
									c0,0-1.1,2.8-1.4,6.1l0.1,0c0.2-1.6,0.5-3.1,0.8-4.2c0.2-0.6,0.3-1,0.4-1.3c0.1-0.2,0.1-0.3,0.1-0.4
									C208.3,61.9,208.3,61.9,208.2,61.9L208.2,61.9L208.2,61.9z"/>
								<path style="clip-path:url(#SVGID_00000026149552427575829730000014476772579710555318_);fill:#211F1F;" d="M208.5,61.5
									c0,0-1.1,2.8-1.4,6.1l0.1,0c0.2-1.6,0.5-3.1,0.8-4.2c0.2-0.6,0.3-1,0.4-1.3c0.1-0.2,0.1-0.3,0.1-0.4
									C208.6,61.6,208.6,61.6,208.5,61.5L208.5,61.5L208.5,61.5z"/>
								<path style="clip-path:url(#SVGID_00000026149552427575829730000014476772579710555318_);fill:#211F1F;" d="M208.8,61.2
									c0,0-1.1,2.8-1.4,6.1l0.1,0c0.2-1.6,0.5-3.1,0.8-4.2c0.2-0.6,0.3-1,0.4-1.3c0.1-0.2,0.1-0.3,0.1-0.4
									C208.8,61.3,208.9,61.2,208.8,61.2L208.8,61.2L208.8,61.2z"/>
								<path style="clip-path:url(#SVGID_00000026149552427575829730000014476772579710555318_);fill:#211F1F;" d="M209.1,60.8
									c0,0-1.1,2.8-1.4,6.1l0.1,0c0.2-1.6,0.5-3.1,0.8-4.2c0.2-0.6,0.3-1,0.4-1.3c0.1-0.2,0.1-0.3,0.1-0.4
									C209.2,60.9,209.2,60.9,209.1,60.8L209.1,60.8L209.1,60.8z"/>
								<path style="clip-path:url(#SVGID_00000026149552427575829730000014476772579710555318_);fill:#211F1F;" d="M209.4,60.6
									c0,0-1.1,2.8-1.4,6.1l0.1,0c0.2-1.6,0.5-3.1,0.8-4.2c0.2-0.6,0.3-1,0.4-1.3c0.1-0.2,0.1-0.3,0.1-0.4
									C209.5,60.7,209.5,60.6,209.4,60.6L209.4,60.6z"/>
								<path style="clip-path:url(#SVGID_00000026149552427575829730000014476772579710555318_);fill:#211F1F;" d="M209.8,60.2
									c0,0-1.1,2.8-1.4,6.1l0.1,0c0.2-1.6,0.5-3.1,0.8-4.2c0.2-0.6,0.3-1,0.4-1.3c0.1-0.2,0.1-0.3,0.1-0.4
									C209.8,60.3,209.8,60.3,209.8,60.2L209.8,60.2L209.8,60.2z"/>
								<path style="clip-path:url(#SVGID_00000026149552427575829730000014476772579710555318_);fill:#211F1F;" d="M210.1,60
									c0,0-1.1,2.8-1.4,6.1l0.1,0c0.2-1.6,0.5-3.1,0.8-4.2c0.2-0.6,0.3-1,0.4-1.3c0.1-0.2,0.1-0.3,0.1-0.4
									C210.2,60,210.2,60,210.1,60L210.1,60L210.1,60z"/>
								<path style="clip-path:url(#SVGID_00000026149552427575829730000014476772579710555318_);fill:#211F1F;" d="M207.3,62.7
									c0,0-1.1,2.8-1.4,6.1l0.1,0c0.2-1.6,0.5-3.1,0.8-4.2c0.2-0.6,0.3-1,0.4-1.3c0.1-0.2,0.1-0.3,0.1-0.4
									C207.3,62.8,207.4,62.7,207.3,62.7L207.3,62.7z"/>
								<path style="clip-path:url(#SVGID_00000026149552427575829730000014476772579710555318_);fill:#211F1F;" d="M207,62.8
									c0,0-1.1,2.8-1.4,6.1l0.1,0c0.2-1.6,0.5-3.1,0.8-4.2c0.2-0.6,0.3-1,0.4-1.3c0.1-0.2,0.1-0.3,0.1-0.4
									C207.1,62.8,207.1,62.8,207,62.8L207,62.8L207,62.8z"/>
								<path style="clip-path:url(#SVGID_00000026149552427575829730000014476772579710555318_);fill:#211F1F;" d="M206.8,62.8
									c0,0-1.1,2.8-1.4,6.1l0.1,0c0.2-1.6,0.5-3.1,0.8-4.2c0.2-0.6,0.3-1,0.4-1.3c0.1-0.2,0.1-0.3,0.1-0.4
									C206.9,62.9,206.9,62.8,206.8,62.8L206.8,62.8z"/>
								<path style="clip-path:url(#SVGID_00000026149552427575829730000014476772579710555318_);fill:#211F1F;" d="M206.6,62.5
									c0,0-1.1,2.8-1.4,6.1l0.1,0c0.2-1.6,0.5-3.1,0.8-4.2c0.2-0.6,0.3-1,0.4-1.3c0.1-0.2,0.1-0.3,0.1-0.4
									C206.7,62.6,206.7,62.5,206.6,62.5L206.6,62.5L206.6,62.5z"/>
								<path style="clip-path:url(#SVGID_00000026149552427575829730000014476772579710555318_);fill:#211F1F;" d="M206.4,62.3
									c0,0-1.1,2.8-1.4,6.1l0.1,0c0.2-1.6,0.5-3.1,0.8-4.2c0.2-0.6,0.3-1,0.4-1.3c0.1-0.2,0.1-0.3,0.1-0.4
									C206.5,62.4,206.5,62.4,206.4,62.3L206.4,62.3L206.4,62.3z"/>
								<path style="clip-path:url(#SVGID_00000026149552427575829730000014476772579710555318_);fill:#211F1F;" d="M206.3,62.2
									c0,0-1.1,2.8-1.4,6.1l0.1,0c0.2-1.6,0.5-3.1,0.8-4.2c0.2-0.6,0.3-1,0.4-1.3c0.1-0.2,0.1-0.3,0.1-0.4
									C206.3,62.2,206.3,62.2,206.3,62.2L206.3,62.2L206.3,62.2z"/>
								<path style="clip-path:url(#SVGID_00000026149552427575829730000014476772579710555318_);fill:#211F1F;" d="M206.1,62.1
									c0,0-1.1,2.8-1.4,6.1l0.1,0c0.2-1.6,0.5-3.1,0.8-4.2c0.2-0.6,0.3-1,0.4-1.3c0.1-0.2,0.1-0.3,0.1-0.4
									C206.1,62.1,206.2,62.1,206.1,62.1L206.1,62.1L206.1,62.1z"/>
								<path style="clip-path:url(#SVGID_00000026149552427575829730000014476772579710555318_);fill:#211F1F;" d="M205.9,61.9
									c0,0-1.1,2.8-1.4,6.1l0.1,0c0.2-1.6,0.5-3.1,0.8-4.2c0.2-0.6,0.3-1,0.4-1.3c0.1-0.2,0.1-0.3,0.1-0.4
									C206,62,206,61.9,205.9,61.9L205.9,61.9L205.9,61.9z"/>
								<path style="clip-path:url(#SVGID_00000026149552427575829730000014476772579710555318_);fill:#211F1F;" d="M205.8,61.8
									c0,0-1.1,2.8-1.4,6.1l0.1,0c0.2-1.6,0.5-3.1,0.8-4.2c0.2-0.6,0.3-1,0.4-1.3c0.1-0.2,0.1-0.3,0.1-0.4
									C205.8,61.8,205.8,61.8,205.8,61.8L205.8,61.8z"/>
								<path style="clip-path:url(#SVGID_00000026149552427575829730000014476772579710555318_);fill:#211F1F;" d="M205.6,61.6
									c0,0-1.1,2.8-1.4,6.1l0.1,0c0.2-1.6,0.5-3.1,0.8-4.2c0.2-0.6,0.3-1,0.4-1.3c0.1-0.2,0.1-0.3,0.1-0.4
									C205.6,61.7,205.7,61.6,205.6,61.6L205.6,61.6L205.6,61.6z"/>
								<path style="clip-path:url(#SVGID_00000026149552427575829730000014476772579710555318_);fill:#211F1F;" d="M205.5,61.6
									c-1.1,2.9-1.2,2.9-1.5,6.1l0.1,0C204.4,64.4,204.4,64.4,205.5,61.6L205.5,61.6L205.5,61.6z"/>
							</g>
						</g>
					</g>
					<g>
						<path class="st7" d="M210.7,63.4c0,0,17.2-15.6,17.1-39.1c0-1.8-0.3-4.5-1.3-5c0,0-0.5,8.6-1.3,12.6
							C221.6,50.2,209,61.4,209,61.4l0.6,1L210.7,63.4z"/>
						<path class="st10" d="M210.7,63.4L210.7,63.4c0,0,17.3-15.5,17.2-39.1c0-0.2,0-0.4,0-0.7c0-0.9-0.1-1.9-0.3-2.7
							c-0.1-0.4-0.2-0.8-0.4-1.1c-0.2-0.3-0.4-0.5-0.6-0.7l-0.1,0l0,0.1c0,0,0,0.1,0,0.4c-0.1,1.7-0.6,8.7-1.3,12.3
							c-1.8,9.1-5.8,16.4-9.4,21.5c-1.8,2.5-3.5,4.5-4.7,5.8c-0.6,0.7-1.1,1.2-1.5,1.5c-0.2,0.2-0.3,0.3-0.4,0.4
							c-0.1,0.1-0.1,0.1-0.1,0.1l0,0l0.6,1L210.7,63.4L210.7,63.4L210.7,63.4L210.7,63.4l-1.1-1.1l-0.5-1l-0.1,0l0,0
							c0,0,12.6-11.2,16.2-29.5c0.8-4.1,1.3-12.6,1.3-12.6l-0.1,0l0,0.1c0.2,0.1,0.4,0.3,0.5,0.6c0.5,0.9,0.7,2.4,0.7,3.7
							c0,0.2,0,0.4,0,0.7c0,11.7-4.2,21.5-8.5,28.3c-2.1,3.4-4.3,6.1-5.9,7.9c-0.8,0.9-1.5,1.6-1.9,2.1c-0.2,0.2-0.4,0.4-0.5,0.5
							C210.7,63.3,210.7,63.4,210.7,63.4L210.7,63.4L210.7,63.4L210.7,63.4z"/>
					</g>
					<g>
						<path class="st8" d="M210.7,63.4c0,0,17.2-15.6,17.1-39.1c0-1.8-0.3-4.5-1.3-5c0,0-0.5,8.6-1.3,12.6
							c-3.6,18.2-16,29.3-16,29.3l0.6,1L210.7,63.4z"/>
						<g>
							<defs>
								<path id="SVGID_00000093164942819611966450000000587080603019040651_" d="M210.7,63.4c0,0,17.2-15.6,17.1-39.1
									c0-1.8-0.3-4.5-1.3-5c0,0-0.5,8.6-1.3,12.6c-3.6,18.2-16,29.3-16,29.3l0.6,1L210.7,63.4z"/>
							</defs>
							<clipPath id="SVGID_00000103238257293885152240000001972975123074725018_">
								<use xlink:href="#SVGID_00000093164942819611966450000000587080603019040651_"  style="overflow:visible;"/>
							</clipPath>
							
								<path style="clip-path:url(#SVGID_00000103238257293885152240000001972975123074725018_);fill:none;stroke:#221E1F;stroke-width:7.777243e-02;stroke-miterlimit:10;" d="
								M210.4,63c0,0,6-6.8,6.6-7.9c0.6-1.1,3.8-6.2,5.1-9.1c1.2-2.9,2.8-7.7,3.4-9.7c0.6-2.1,1.1-4.6,1.1-5.5c0.1-1,0.2-2.5,0.2-3
								c0.1-0.5,0.1-1,0.1-1.6c0-0.6,0.1-1.8,0-2.3c-0.1-0.5-0.2-1.1-0.2-1.1s-0.2,1.3-0.3,1.6c-0.1,0.3-0.1,1.1-0.2,1.8
								c0,0.7-0.1,1.9-0.3,2.8c-0.2,0.9-1,5.1-1.4,6.6c-0.4,1.5-1.1,3.8-1.7,5.3c-0.6,1.5-1.5,4-2.3,5.6c-0.9,1.6-2.9,5.3-3.6,6.4
								c-0.7,1.1-2.9,3.7-3.4,4.3c-0.5,0.6-2.2,2.7-2.6,3.1c-0.4,0.3-1.7,1.4-1.7,1.4L210.4,63z"/>
							
								<path style="clip-path:url(#SVGID_00000103238257293885152240000001972975123074725018_);fill:none;stroke:#221E1F;stroke-width:7.777243e-02;stroke-miterlimit:10;" d="
								M209.7,62c0,0,3.3-3.6,4.3-4.9c1-1.2,3.6-4.6,4.8-6.7c1.2-2.1,3.7-7.2,4.6-9.5c0.8-2.3,1.8-5.2,2.3-7.7
								c0.6-2.4,1.2-5.5,1.2-5.5"/>
							<g style="clip-path:url(#SVGID_00000103238257293885152240000001972975123074725018_);">
								<line class="st16" x1="210.9" y1="60.3" x2="211.6" y2="59.1"/>
								<line class="st16" x1="213.1" y1="57.7" x2="213.7" y2="56.6"/>
							</g>
						</g>
					</g>
				</g>
				<g>
					<path class="st8" d="M209.1,61.1l-1.2,1.2c0,0-0.1,0.3-0.2,0.4c0,0.3,0.2,0.8,0.5,1.2c0.3,0.4,0.9,0.9,0.9,0.9l0.4,0l1.4-1.3
						C210.9,63.4,209.5,62.3,209.1,61.1z"/>
					<path class="st17" d="M209.8,62.4L209.8,62.4l-1.4,1.2l-0.2,0.5l0,0c0,0,0,0.2,0.1,0.5c0.1,0.3,0.2,0.6,0.4,0.8
						c0.3,0.4,0.9,1,0.9,1l0,0l0.5,0l1.6-1.5l-0.1,0l0,0c-0.1-0.1-0.5-0.4-0.9-0.8C210.5,63.6,210,63,209.8,62.4l0-0.1L209.8,62.4
						L209.8,62.4L209.8,62.4c0.1,0.7,0.6,1.4,1.1,1.8c0.4,0.5,0.8,0.7,0.8,0.7l0-0.1l0,0l-1.5,1.4l-0.4,0l0,0.1l0,0c0,0,0,0-0.1-0.1
						c-0.2-0.2-0.6-0.6-0.8-0.9c-0.2-0.2-0.3-0.5-0.4-0.8c0-0.1-0.1-0.3-0.1-0.3c0,0,0-0.1,0-0.1c0,0,0,0,0,0l-0.1,0l0.1,0l0.2-0.4
						L209.8,62.4L209.8,62.4L209.8,62.4L209.8,62.4z"/>
				</g>
				<g>
					<g>
						<defs>
							<path id="SVGID_00000119834582713153236130000015321211724398432441_" d="M209.1,61.1l-1.2,1.2l-0.2,0.4c0,0,0.2,0.8,0.5,1.2
								c0.3,0.4,0.9,1,0.9,1l0.2,0l1.5-1.5C210.9,63.4,209.5,62.3,209.1,61.1z"/>
						</defs>
						<clipPath id="SVGID_00000072273902700895000950000014807095293065685943_">
							<use xlink:href="#SVGID_00000119834582713153236130000015321211724398432441_"  style="overflow:visible;"/>
						</clipPath>
						<g style="clip-path:url(#SVGID_00000072273902700895000950000014807095293065685943_);">
							<line class="st19" x1="209.3" y1="64.7" x2="210.1" y2="63.6"/>
							<line class="st19" x1="209.1" y1="64.5" x2="210" y2="63.4"/>
							<path class="st19" d="M209,64.4c0,0,1-1.2,1-1.2"/>
							<line class="st19" x1="208.8" y1="64.3" x2="210" y2="62.9"/>
							<line class="st19" x1="208.6" y1="64.1" x2="210" y2="62.6"/>
							<line class="st19" x1="208.4" y1="63.8" x2="209.8" y2="62.4"/>
							<line class="st19" x1="208.2" y1="63.7" x2="209.7" y2="62.2"/>
							<line class="st19" x1="208.1" y1="63.5" x2="209.7" y2="61.9"/>
							<line class="st19" x1="208" y1="63.2" x2="209.3" y2="61.7"/>
							<line class="st19" x1="208.1" y1="63.3" x2="209.5" y2="61.8"/>
							<line class="st19" x1="207.9" y1="63" x2="209.2" y2="61.6"/>
							<line class="st19" x1="207.8" y1="62.8" x2="209.2" y2="61.4"/>
							<line class="st19" x1="207.8" y1="62.6" x2="209.2" y2="61.2"/>
						</g>
						
							<path style="clip-path:url(#SVGID_00000072273902700895000950000014807095293065685943_);fill:#B59F3C;stroke:#221E1F;stroke-width:6.221788e-02;stroke-miterlimit:10;" d="
							M209.5,64.8c0,0-0.9-0.7-1.2-1.1c-0.3-0.4-0.6-1.1-0.6-1.1s-0.2,0.5,0.5,1.4c0.4,0.5,0.9,0.9,0.9,0.9L209.5,64.8z"/>
					</g>
					<polygon class="st8" points="210.7,64.3 211,63.5 209.9,62.2 209.4,61.2 209.2,60.9 209,61.1 209.2,61.5 210.7,63.6 
						210.1,64.1 210.3,64.2 					"/>
					<g>
						<g>
							<path class="st0" d="M211.4,67.8c0,0,0-0.1,0.1-0.4c0.1-0.2,0-0.5,0-0.5l-1.9-2.6l-1.4-0.5l0.3-1.3c0,0-1.3-2.3-1.6-2.7
								c-0.2-0.4,0-0.6,0-0.7l0.6-0.8l0.3,0l0.3,0.4c0,0.1-0.1,0.1-0.2,0.2c-0.2,0.2-0.5,0.6-0.3,0.9c0.1,0.2,0.6,0.9,0.8,1.1
								c0.1,0.1,0.4,0.3,0.4,0.3l-0.1,0.2c0.1,0.1,0.3,0.5,0.4,0.6c0.1,0.1,0.9,0.5,0.9,0.5l0.1,0.1c0,0,0,0.5,0,0.6
								c0,0.1,0,0.7,0.2,0.8c0.3,0.2,0.4,0.2,0.4,0.2l1.4,2.2c0,0,0.5,0.8,0.4,1.2c-0.1,0.3-0.4,0.7-0.4,0.7l-0.2,0L211.4,67.8z"/>
							<path class="st21" d="M207.6,58.5l0.2,0l0.3,0.4c0,0-0.1,0.1-0.2,0.1c-0.2,0.2-0.5,0.6-0.3,0.9c0.2,0.3,0.6,0.9,0.8,1.1
								c0.1,0.1,0.4,0.3,0.4,0.3l-0.2,0.2c0,0,0.2,0.5,0.4,0.6c0.1,0.1,0.9,0.5,0.9,0.5l0.1,0c0,0,0,0.5,0,0.6c0,0.1,0,0.7,0.3,0.9
								c0.3,0.2,0.5,0.2,0.5,0.2l1.4,2.1c0,0,0.5,0.8,0.3,1.1c-0.1,0.3-0.4,0.7-0.4,0.7l-0.1,0l0-0.1l-0.4-0.5c0,0,0-0.1,0.2-0.4
								c0.1-0.3,0-0.5,0-0.5l-1.9-2.6l-1.4-0.5l0.3-1.2c0,0-1.4-2.3-1.6-2.7c-0.2-0.4,0-0.6,0-0.6L207.6,58.5L207.6,58.5
								 M207.5,58.4L207.5,58.4L207.5,58.4l-0.7,0.8c0,0-0.2,0.3,0,0.7c0.2,0.4,1.4,2.4,1.5,2.7l-0.3,1.2l0,0.1l0.1,0l1.4,0.5
								l1.9,2.6c0,0,0,0,0,0c0,0,0.1,0.2,0,0.5c-0.1,0.3-0.2,0.3-0.2,0.3l0,0l0,0l0.4,0.5l0,0.1l0,0l0,0l0.1,0l0,0l0,0
								c0,0,0.3-0.4,0.4-0.7c0.1-0.3-0.3-1.1-0.4-1.2l-1.4-2.1l0,0l0,0c0,0-0.2,0-0.4-0.2c-0.2-0.1-0.2-0.6-0.2-0.8
								c0-0.2,0-0.6,0-0.6l0,0l0,0l-0.1,0c-0.2-0.1-0.8-0.4-0.9-0.5c-0.1-0.1-0.2-0.4-0.3-0.6l0.1-0.1l0.1-0.1l-0.1,0
								c0,0-0.3-0.2-0.4-0.3c-0.2-0.3-0.6-0.9-0.8-1.1c-0.1-0.2,0.1-0.6,0.3-0.8c0,0,0.1-0.1,0.2-0.1l0.1,0l-0.1-0.1l-0.3-0.4l0,0
								l0,0L207.5,58.4L207.5,58.4L207.5,58.4z"/>
						</g>
						<g>
							<path class="st0" d="M211.4,67.8c0,0,0-0.1,0.1-0.4c0.1-0.2,0-0.5,0-0.5l-1.9-2.6l-1.4-0.5l0.3-1.3c0,0-1.3-2.3-1.6-2.7
								c-0.2-0.4,0-0.6,0-0.7l0.6-0.8l0.4,0.3c0,0.1-0.1,0.1-0.4,0.4c-0.3,0.3-0.2,0.6-0.1,0.7c0.3,0.6,1.5,2.3,1.5,2.3l0.9,0.4
								l0.1,1.2c0,0,1.7,2.2,2.2,3c0.1,0.2,0.1,0.3,0.2,0.5c0,0.2-0.1,0.5-0.1,0.6c-0.1,0.1-0.2,0.3-0.2,0.3l0,0L211.4,67.8z"/>
							<path class="st21" d="M207.5,58.5l0.4,0.3c0,0-0.1,0-0.4,0.4c-0.3,0.3-0.2,0.6-0.1,0.8c0.3,0.6,1.5,2.3,1.5,2.3l0.9,0.4
								l0,1.2c0,0,1.7,2.2,2.2,3c0.1,0.1,0.1,0.3,0.2,0.5c0,0.2-0.1,0.5-0.1,0.6c-0.1,0.1-0.2,0.3-0.2,0.3l-0.4-0.5
								c0,0,0-0.1,0.2-0.4c0.1-0.3,0-0.5,0-0.5l-1.9-2.6l-1.4-0.5l0.3-1.2c0,0-1.4-2.3-1.6-2.7c-0.2-0.4,0-0.6,0-0.6L207.5,58.5
								 M207.5,58.4L207.5,58.4l-0.7,0.8c0,0-0.2,0.3,0,0.7c0.2,0.4,1.4,2.4,1.5,2.7l-0.3,1.2l0,0.1l0.1,0l1.4,0.5l1.9,2.6
								c0,0,0,0,0,0c0,0,0.1,0.2,0,0.5c-0.1,0.3-0.2,0.3-0.2,0.3l0,0l0,0l0.4,0.5l0.1,0.1l0.1-0.1c0,0,0.2-0.2,0.3-0.3
								c0.1-0.1,0.2-0.4,0.2-0.7c0-0.2-0.1-0.3-0.2-0.5c-0.4-0.8-2-2.7-2.2-3l0-1.1l0,0l0,0l-0.8-0.4c-0.1-0.2-1.2-1.7-1.5-2.3
								c-0.1-0.2-0.2-0.4,0.1-0.7c0.2-0.3,0.4-0.4,0.4-0.4l0.1,0l-0.1-0.1L207.5,58.4L207.5,58.4L207.5,58.4z"/>
						</g>
					</g>
				</g>
				<path class="st8" d="M209.6,61.3l0.2,0.7l0.7,0.9l0.4,0.3l-0.8,0.7l-1-2.7c0,0,2-2,2.6-2.7c1.1-1.3,3.2-3.9,4.2-5.3
					c1.3-2,2.4-3.7,3.1-4.9c0.7-1.2,2.7-4.7,2.7-4.7s-2.2,4.7-3,5.9c-0.8,1.2-3.1,4.7-4,5.8C213.9,56.4,209.7,61.2,209.6,61.3z"/>
			</g>
		</g>
	</g>
</g>
</svg>
