<svg id="Capa_1" data-name="Capa 1" xmlns="http://www.w3.org/2000/svg" viewBox="0 0 512 512"><defs><style>.cls-1{fill:#72767b;}</style></defs><title>patient</title><path class="cls-1" d="M126.26,265.12a7.5,7.5,0,0,1-7.5-7.5v-12a7.5,7.5,0,1,1,15,0v12A7.5,7.5,0,0,1,126.26,265.12Z" transform="translate(0 0)"/><path class="cls-1" d="M251.16,265.12a7.5,7.5,0,0,1-7.5-7.5v-12a7.5,7.5,0,0,1,15,0v12a7.5,7.5,0,0,1-7.5,7.5Z" transform="translate(0 0)"/><path class="cls-1" d="M205.18,272.26a7.51,7.51,0,0,1-5.66-2.57,14.32,14.32,0,0,0-21.62,0,7.5,7.5,0,1,1-11.31-9.86,29.33,29.33,0,0,1,44.24,0,7.5,7.5,0,0,1-5.65,12.43Z" transform="translate(0 0)"/><path class="cls-1" d="M484.5,0h-80A27.54,27.54,0,0,0,377,27.5v90a67.57,67.57,0,0,0,40,61.62V197.5A27.54,27.54,0,0,0,437,224v57.52c0,80.27-64.38,145.79-144.21,147.64a129.5,129.5,0,0,0-43.53-38,153.24,153.24,0,0,0,85.6-96.39,43.56,43.56,0,0,0,21.35-80.94V203.5a170.47,170.47,0,0,0-1.77-24.44,27.41,27.41,0,0,0,10.21-25.17,177.52,177.52,0,0,0-351.88,0A27.41,27.41,0,0,0,23,179.06a170.37,170.37,0,0,0-1.77,24.44v10.25a43.56,43.56,0,0,0,21.38,80.94A152.54,152.54,0,0,0,70.3,347.23a7.5,7.5,0,1,0,11.64-9.45A137.57,137.57,0,0,1,68.14,185H309.28a137.48,137.48,0,0,1,3.49,125.38L295.43,293a37.5,37.5,0,0,0-53,53l20.67,20.67a137.4,137.4,0,0,1-161-8.84,7.5,7.5,0,1,0-9.46,11.64,152,152,0,0,0,35.56,21.54,129.18,129.18,0,0,0-65.55,88.16,27.48,27.48,0,0,0,27,32.76H287.8a27.47,27.47,0,0,0,27-32.76A127.26,127.26,0,0,0,302,443.67C385.77,437.2,452,366.92,452,281.47V224a27.54,27.54,0,0,0,20-26.45V179.12a67.57,67.57,0,0,0,40-61.62v-90A27.54,27.54,0,0,0,484.5,0ZM338.59,279.31a152.57,152.57,0,0,0,0-56.36,28.58,28.58,0,0,1,0,56.36ZM40,170a12.54,12.54,0,0,1-9.42-4.27,12.33,12.33,0,0,1-3-9.86A160.85,160.85,0,0,1,34.89,125H342.52a160.87,160.87,0,0,1,7.26,30.87,12.33,12.33,0,0,1-3,9.86,12.54,12.54,0,0,1-9.42,4.27ZM188.71,15A161.87,161.87,0,0,1,280,43.19l-48.55,7.4a7.5,7.5,0,1,0,2.26,14.82l62.61-9.53A162.79,162.79,0,0,1,336.54,110H40.87a161.64,161.64,0,0,1,8.8-16.56L204,69.94a7.5,7.5,0,1,0-2.26-14.83L61.54,76.46A162.82,162.82,0,0,1,188.71,15ZM15,251.13A28.61,28.61,0,0,1,38.85,223a151.49,151.49,0,0,0,0,56.37A28.63,28.63,0,0,1,15,251.13Zm27.56-43.55a42.82,42.82,0,0,0-6.35.61V203.5a154.67,154.67,0,0,1,1.13-18.64A26.82,26.82,0,0,0,40,185H51.28A152.63,152.63,0,0,0,42.56,207.58ZM337.38,185a26.82,26.82,0,0,0,2.7-.14,154.67,154.67,0,0,1,1.13,18.64v4.69a42.82,42.82,0,0,0-6.34-.61A151.58,151.58,0,0,0,326.14,185ZM253,335.46a22.5,22.5,0,0,1,31.82-31.82l20.41,20.41a138.44,138.44,0,0,1-29.88,33.76Zm-31.5,64.61a33,33,0,0,1-65.58,0,152.16,152.16,0,0,0,65.58,0Zm76,92.33a12.51,12.51,0,0,1-9.71,4.6H89.61a12.54,12.54,0,0,1-9.71-4.6,12.25,12.25,0,0,1-2.57-10.23A114.08,114.08,0,0,1,141,401.42a48,48,0,0,0,95.46,0,114.13,114.13,0,0,1,63.65,80.74,12.29,12.29,0,0,1-2.58,10.23ZM404.5,15h80A12.52,12.52,0,0,1,497,27.5V65.21c-27.38,1.54-42.25,11.44-56.66,21.05-13.1,8.73-25.53,17-48.34,18.5V27.5A12.52,12.52,0,0,1,404.5,15ZM457,197.5a12.5,12.5,0,0,1-25,0V183.82a66.8,66.8,0,0,0,25,0ZM444.5,170a52.55,52.55,0,0,1-52.44-50.21c27.35-1.55,42.2-11.45,56.6-21.05,13.09-8.73,25.53-17,48.34-18.5V117.5A52.56,52.56,0,0,1,444.5,170Z" transform="translate(0 0)"/></svg>