<svg id="Layer_1" data-name="Layer 1" xmlns="http://www.w3.org/2000/svg" viewBox="0 0 40 40"><defs><style>.cls-1{fill:#5e5e5e;}.cls-2{fill:#fff;}</style></defs><title>printer</title><path class="cls-1" d="M20,0A20,20,0,1,0,40,20,20,20,0,0,0,20,0Zm0,38.33A18.33,18.33,0,1,1,38.33,20,18.33,18.33,0,0,1,20,38.33Z"/><path class="cls-1" d="M30,13.33H28.33V9.17a.84.84,0,0,0-.83-.84h-15a.84.84,0,0,0-.83.84v4.16H10a3.34,3.34,0,0,0-3.33,3.34v5A3.33,3.33,0,0,0,10,25h1.67v5.83a.84.84,0,0,0,.83.84h15a.84.84,0,0,0,.83-.84V25H30a3.33,3.33,0,0,0,3.33-3.33h0v-5A3.34,3.34,0,0,0,30,13.33ZM13.33,10H26.67v3.33H13.33ZM26.67,24v6H13.33V24"/><circle class="cls-2" cx="29.17" cy="17.5" r="0.83"/></svg>