<svg id="Layer_1" data-name="Layer 1" xmlns="http://www.w3.org/2000/svg" viewBox="0 0 373.44 511.96"><defs><style>.cls-1{fill:#5f5e5e;}</style></defs><title>quality-grey</title><path class="cls-1" d="M364.15,160.61l-24-29.16a25.82,25.82,0,0,1-5.8-14l-3.62-37.62a41.19,41.19,0,0,0-37-37l-37.62-3.62a25.82,25.82,0,0,1-14-5.8l-29.17-24a41.18,41.18,0,0,0-52.3,0l-29.16,24a25.82,25.82,0,0,1-14,5.8L79.86,42.83a41.19,41.19,0,0,0-37,37l-3.62,37.62a25.82,25.82,0,0,1-5.8,14l-24,29.16a41.18,41.18,0,0,0,0,52.3l24,29.16a25.82,25.82,0,0,1,5.8,14l3.62,37.62a41.21,41.21,0,0,0,37,37l23,2.21L48.18,463.46a10,10,0,0,0,11.88,13.41l47.41-13.39a.46.46,0,0,1,.5.2l23.73,43.17a9.88,9.88,0,0,0,8.7,5.15h.52a9.92,9.92,0,0,0,8.68-6.1L207.29,368a39.34,39.34,0,0,0,5.62-3.89l29.17-24a25.84,25.84,0,0,1,12.82-5.64l52.25,124.84-37-10.44a15.57,15.57,0,0,0-17.93,7.5L233.74,490l-24.52-58.62a7.59,7.59,0,0,0-14,5.86L224,505.9a9.9,9.9,0,0,0,8.65,6.1h.52a9.87,9.87,0,0,0,8.7-5.15l23.74-43.16a.46.46,0,0,1,.5-.21l47.39,13.39a10,10,0,0,0,11.89-13.42L270.71,332.9l23-2.22a41.19,41.19,0,0,0,37-37l3.62-37.62a25.82,25.82,0,0,1,5.8-14l24-29.16A41.16,41.16,0,0,0,364.15,160.61ZM139.78,490l-18.51-33.67a15.56,15.56,0,0,0-17.93-7.49l-37,10.43,52.24-124.83a25.82,25.82,0,0,1,12.83,5.64l29.16,24a41,41,0,0,0,26.15,9.37h1.79ZM352.44,203.25l-24,29.17a40.88,40.88,0,0,0-9.2,22.21l-3.62,37.62a26,26,0,0,1-23.33,23.32l-33.05,3.18h-.39l-4.18.41a40.86,40.86,0,0,0-22.21,9.19l-29.17,24a26,26,0,0,1-33,0l-29.16-24a40.9,40.9,0,0,0-22.21-9.19l-4.21-.41h-.35l-33.07-3.19A26,26,0,0,1,58,292.25l-3.62-37.62a41,41,0,0,0-9.2-22.21l-24-29.17a26,26,0,0,1,0-33l24-29.17a41,41,0,0,0,9.2-22.21L58,81.27A26,26,0,0,1,81.27,58l37.63-3.63a40.9,40.9,0,0,0,22.21-9.19l29.16-24a26,26,0,0,1,33,0l29.17,24a40.86,40.86,0,0,0,22.21,9.19L292.25,58a26,26,0,0,1,23.33,23.32l3.62,37.62a40.88,40.88,0,0,0,9.2,22.21l24,29.17A26,26,0,0,1,352.44,203.25Z" transform="translate(-0.07 -0.04)"/><path class="cls-1" d="M186.76,68.16a120.27,120.27,0,0,0-15.17,1,7.59,7.59,0,1,0,1.93,15.06,103.31,103.31,0,1,1-29.08,8.18,7.59,7.59,0,0,0-6.22-13.85A118.68,118.68,0,1,0,186.76,68.2Z" transform="translate(-0.07 -0.04)"/><path class="cls-1" d="M111.36,178a23.25,23.25,0,0,0,0,32.84L144.52,244a23.22,23.22,0,0,0,32.84,0h0l72.38-72.39a23.22,23.22,0,0,0-32.38-33.29l-.45.45-56,56L144.19,178A23.24,23.24,0,0,0,111.36,178Zm49.58,35a7.56,7.56,0,0,0,5.37-2.23l61.34-61.34A8,8,0,0,1,239,160.83l-72.38,72.39a8,8,0,0,1-11.31.05l-.05-.05-33.17-33.16a8,8,0,0,1,11.36-11.36l22.12,22.11A7.6,7.6,0,0,0,160.94,213Z" transform="translate(-0.07 -0.04)"/></svg>