<svg id="Layer_1" data-name="Layer 1" xmlns="http://www.w3.org/2000/svg" viewBox="0 0 396 512"><defs><style>.cls-1{fill:#243a76;}</style></defs><title>qualified</title><path class="cls-1" d="M454,83.51,370.48,0H122V272.27A69.94,69.94,0,0,0,82,394.7V512H98.48L128,482.48,157.51,512H174V460H454Zm-80-63L433.52,80H374ZM70,342a58,58,0,1,1,58,58A58.07,58.07,0,0,1,70,342Zm58,123.52-34,34V403.16a69.8,69.8,0,0,0,68,0v96.36ZM174,448V394.7a69.94,69.94,0,0,0-40-122.43V12H362V92h80V448Z" transform="translate(-58)"/><path class="cls-1" d="M176,64h96V76H176Z" transform="translate(-58)"/><path class="cls-1" d="M176,96h64v12H176Z" transform="translate(-58)"/><path class="cls-1" d="M176,144H400v12H176Z" transform="translate(-58)"/><path class="cls-1" d="M176,176H400v12H176Z" transform="translate(-58)"/><path class="cls-1" d="M176,240H400v12H176Z" transform="translate(-58)"/><path class="cls-1" d="M208,272H368v12H208Z" transform="translate(-58)"/><path class="cls-1" d="M176,208H400v12H176Z" transform="translate(-58)"/><path class="cls-1" d="M304,320h96v12H304Z" transform="translate(-58)"/><path class="cls-1" d="M336,352h64v12H336Z" transform="translate(-58)"/><path class="cls-1" d="M128,380a38,38,0,1,0-38-38A38,38,0,0,0,128,380Zm0-64a26,26,0,1,1-26,26A26,26,0,0,1,128,316Z" transform="translate(-58)"/></svg>