<?xml version="1.0" encoding="utf-8"?>
<!-- Generator: Adobe Illustrator 25.4.1, SVG Export Plug-In . SVG Version: 6.00 Build 0)  -->
<svg version="1.1" id="Layer_1" xmlns="http://www.w3.org/2000/svg" xmlns:xlink="http://www.w3.org/1999/xlink" x="0px" y="0px"
	 viewBox="0 0 128.5 128.5" style="enable-background:new 0 0 128.5 128.5;" xml:space="preserve">
<style type="text/css">
	.st0{fill:#FFFFFF;stroke:#FFFFFF;stroke-width:4;stroke-miterlimit:10;}
	.st1{fill:#E30613;}
</style>
<circle class="st0" cx="64.2" cy="64.2" r="56.7"/>
<g>
	<path class="st1" d="M45.4,69.2c0,1.7-0.3,3.2-1,4.5c-0.6,1.3-1.5,2.4-2.6,3.2c-1.1,0.9-2.4,1.5-3.8,1.9c-1.5,0.4-3,0.7-4.7,0.7
		c-1.1,0-2.2-0.1-3.1-0.3c-1-0.2-1.8-0.4-2.5-0.7c-0.7-0.3-1.3-0.5-1.8-0.8s-0.8-0.5-1.1-0.8c-0.2-0.2-0.4-0.5-0.5-0.9
		s-0.1-1-0.1-1.8c0-0.5,0-1,0-1.3c0-0.4,0.1-0.6,0.2-0.9c0.1-0.2,0.2-0.4,0.3-0.5s0.3-0.1,0.4-0.1c0.2,0,0.6,0.1,1,0.4
		s1,0.6,1.6,0.9c0.7,0.3,1.5,0.6,2.4,0.9s2,0.4,3.2,0.4c0.8,0,1.5-0.1,2.2-0.3c0.6-0.2,1.2-0.5,1.6-0.8c0.4-0.4,0.8-0.8,1-1.3
		s0.4-1.1,0.4-1.7c0-0.7-0.2-1.4-0.6-1.9c-0.4-0.5-0.9-1-1.6-1.4c-0.6-0.4-1.4-0.8-2.2-1.2c-0.8-0.4-1.7-0.7-2.5-1.1
		c-0.9-0.4-1.7-0.9-2.5-1.4s-1.5-1.1-2.2-1.8c-0.6-0.7-1.2-1.5-1.6-2.5s-0.6-2.1-0.6-3.5c0-1.6,0.3-2.9,0.9-4.1
		c0.6-1.2,1.4-2.2,2.3-2.9c1-0.8,2.1-1.4,3.5-1.7c1.3-0.4,2.7-0.6,4.2-0.6c0.8,0,1.5,0.1,2.3,0.2c0.8,0.1,1.5,0.3,2.2,0.5
		s1.3,0.4,1.8,0.7s0.9,0.5,1,0.6s0.3,0.3,0.3,0.4c0.1,0.1,0.1,0.3,0.2,0.5c0,0.2,0.1,0.4,0.1,0.7s0,0.7,0,1.1c0,0.5,0,0.9,0,1.2
		s-0.1,0.6-0.1,0.8c-0.1,0.2-0.1,0.4-0.3,0.5s-0.3,0.1-0.4,0.1s-0.5-0.1-0.9-0.4s-0.9-0.5-1.5-0.8s-1.3-0.5-2-0.8
		c-0.8-0.2-1.6-0.3-2.5-0.3c-0.7,0-1.3,0.1-1.9,0.3c-0.5,0.2-1,0.4-1.3,0.7c-0.4,0.3-0.6,0.7-0.8,1.1c-0.2,0.4-0.3,0.9-0.3,1.4
		c0,0.7,0.2,1.3,0.6,1.9c0.4,0.5,0.9,1,1.6,1.4s1.4,0.8,2.2,1.2s1.7,0.7,2.6,1.1c0.9,0.4,1.7,0.9,2.6,1.4c0.8,0.5,1.6,1.1,2.2,1.8
		c0.7,0.7,1.2,1.5,1.6,2.5C45.2,66.8,45.4,67.9,45.4,69.2z"/>
	<path class="st1" d="M79.6,62.4c0,2.7-0.3,5.1-1,7.2s-1.7,3.9-3,5.4s-2.9,2.6-4.9,3.4c-1.9,0.8-4.2,1.2-6.7,1.2
		c-2.5,0-4.7-0.3-6.6-1c-1.9-0.7-3.4-1.7-4.7-3c-1.3-1.4-2.2-3.1-2.8-5.2S49,65.8,49,63c0-2.6,0.3-5,1-7.1s1.7-3.9,3-5.3
		s2.9-2.6,4.9-3.4c1.9-0.8,4.2-1.2,6.8-1.2c2.5,0,4.6,0.3,6.5,1s3.4,1.7,4.7,3c1.3,1.4,2.2,3.1,2.9,5.1
		C79.2,57.1,79.6,59.6,79.6,62.4z M72.7,62.7c0-1.7-0.1-3.2-0.4-4.6c-0.3-1.4-0.7-2.6-1.4-3.6c-0.6-1-1.5-1.8-2.6-2.3
		s-2.4-0.8-4-0.8s-3,0.3-4.1,0.9c-1.1,0.6-2,1.4-2.6,2.4c-0.7,1-1.1,2.2-1.4,3.6c-0.3,1.4-0.4,2.8-0.4,4.3c0,1.8,0.1,3.4,0.4,4.8
		c0.3,1.4,0.7,2.6,1.4,3.6s1.5,1.8,2.6,2.3s2.4,0.8,4,0.8s3-0.3,4.1-0.9s2-1.4,2.6-2.5c0.7-1,1.1-2.2,1.4-3.6
		C72.5,65.7,72.7,64.3,72.7,62.7z"/>
	<path class="st1" d="M104.3,69.2c0,1.7-0.3,3.2-1,4.5c-0.6,1.3-1.5,2.4-2.6,3.2c-1.1,0.9-2.4,1.5-3.8,1.9c-1.5,0.4-3,0.7-4.7,0.7
		c-1.1,0-2.2-0.1-3.1-0.3c-1-0.2-1.8-0.4-2.5-0.7c-0.7-0.3-1.3-0.5-1.8-0.8S84,77.2,83.7,77c-0.2-0.2-0.4-0.5-0.5-0.9
		s-0.1-1-0.1-1.8c0-0.5,0-1,0-1.3c0-0.4,0.1-0.6,0.2-0.9c0.1-0.2,0.2-0.4,0.3-0.5s0.3-0.1,0.4-0.1c0.2,0,0.6,0.1,1,0.4
		s1,0.6,1.6,0.9c0.7,0.3,1.5,0.6,2.4,0.9s2,0.4,3.2,0.4c0.8,0,1.5-0.1,2.2-0.3c0.6-0.2,1.2-0.5,1.6-0.8c0.4-0.4,0.8-0.8,1-1.3
		s0.4-1.1,0.4-1.7c0-0.7-0.2-1.4-0.6-1.9s-0.9-1-1.6-1.4c-0.6-0.4-1.4-0.8-2.2-1.2c-0.8-0.4-1.7-0.7-2.5-1.1
		C89.6,64,88.8,63.5,88,63s-1.5-1.1-2.2-1.8c-0.6-0.7-1.2-1.5-1.6-2.5s-0.6-2.1-0.6-3.5c0-1.6,0.3-2.9,0.9-4.1
		c0.6-1.2,1.4-2.2,2.3-2.9c1-0.8,2.1-1.4,3.5-1.7c1.3-0.4,2.7-0.6,4.2-0.6c0.8,0,1.5,0.1,2.3,0.2c0.8,0.1,1.5,0.3,2.2,0.5
		s1.3,0.4,1.8,0.7s0.9,0.5,1,0.6s0.3,0.3,0.3,0.4c0.1,0.1,0.1,0.3,0.2,0.5c0,0.2,0.1,0.4,0.1,0.7s0,0.7,0,1.1c0,0.5,0,0.9,0,1.2
		s-0.1,0.6-0.1,0.8c-0.1,0.2-0.1,0.4-0.3,0.5s-0.3,0.1-0.4,0.1s-0.5-0.1-0.9-0.4s-0.9-0.5-1.5-0.8s-1.3-0.5-2-0.8
		c-0.8-0.2-1.6-0.3-2.5-0.3c-0.7,0-1.3,0.1-1.9,0.3c-0.5,0.2-1,0.4-1.3,0.7c-0.4,0.3-0.6,0.7-0.8,1.1c-0.2,0.4-0.3,0.9-0.3,1.4
		c0,0.7,0.2,1.3,0.6,1.9c0.4,0.5,0.9,1,1.6,1.4s1.4,0.8,2.2,1.2s1.7,0.7,2.6,1.1c0.9,0.4,1.7,0.9,2.6,1.4c0.8,0.5,1.6,1.1,2.2,1.8
		c0.7,0.7,1.2,1.5,1.6,2.5C104.1,66.8,104.3,67.9,104.3,69.2z"/>
</g>
</svg>
