<svg id="Capa_1" data-name="Capa 1" xmlns="http://www.w3.org/2000/svg" viewBox="0 0 443.84 512"><defs><style>.cls-1{fill:#fff;}</style></defs><title>supplier</title><path class="cls-1" d="M167.24,195.48V181.55a7.5,7.5,0,0,0-15,0v13.93a7.5,7.5,0,1,0,15,0Z" transform="translate(-34.08 0)"/><path class="cls-1" d="M230,203a7.5,7.5,0,0,0,7.5-7.5V181.55a7.5,7.5,0,0,0-15,0v13.93A7.5,7.5,0,0,0,230,203Z" transform="translate(-34.08 0)"/><path class="cls-1" d="M226.19,250.31a7.5,7.5,0,0,0-10.61-10.6,29.31,29.31,0,0,1-41.41,0,7.5,7.5,0,0,0-10.61,10.6,44.34,44.34,0,0,0,62.63,0Z" transform="translate(-34.08 0)"/><path class="cls-1" d="M191.16,225.27h11.15a7.5,7.5,0,0,0,0-15h-3.65V198a7.5,7.5,0,0,0-15,0v19.82A7.5,7.5,0,0,0,191.16,225.27Z" transform="translate(-34.08 0)"/><path class="cls-1" d="M470.42,364.5a7.5,7.5,0,0,0,7.5-7.5V297.36a12.52,12.52,0,0,0-12.5-12.5H431.5V284A12.52,12.52,0,0,0,419,271.5h-6.44a29.74,29.74,0,0,0-59.38,0h-6.44a12.52,12.52,0,0,0-12.5,12.5v.86H300.32a12.52,12.52,0,0,0-12.5,12.5v10.81H262.16L241.74,288a65.33,65.33,0,0,0,37.65-40.54h4.85a34.36,34.36,0,0,0,34.32-34.32v-10a34.24,34.24,0,0,0-11.37-25.5V157.45a21.12,21.12,0,0,0,0-42,104.87,104.87,0,0,0-80-99.94A25.46,25.46,0,0,0,203.74,0H186a25.46,25.46,0,0,0-23.45,15.54,104.87,104.87,0,0,0-80,99.95,21.12,21.12,0,0,0,0,42v20.19a34.21,34.21,0,0,0-11.38,25.49v10a34.36,34.36,0,0,0,34.32,34.32h4.86A65.3,65.3,0,0,0,148,288l-20.42,20.2H70.34a36.3,36.3,0,0,0-36.26,36.25V499.5A12.52,12.52,0,0,0,46.58,512H233a7.5,7.5,0,0,0,0-15H202.37V353l.43-.44,47.57,30.78a10.5,10.5,0,0,0,16.21-8.82V323.18h21.24V497H268a7.5,7.5,0,0,0,0,15H465.42a12.52,12.52,0,0,0,12.5-12.5V392a7.5,7.5,0,0,0-15,0V497H302.82V299.86H314V475.29a10.51,10.51,0,0,0,10.5,10.5H441.21a10.51,10.51,0,0,0,10.5-10.5V299.86h11.21V357a7.5,7.5,0,0,0,7.5,7.5ZM303.56,213.12a19.34,19.34,0,0,1-19.32,19.32h-2c.12-1.57.2-3.16.2-4.76V183.81h1.77a19.35,19.35,0,0,1,19.32,19.32v10Zm-21.09-44.31V157.6h9.72v12.15a34.12,34.12,0,0,0-7.95-.94ZM178.14,18.57A10.31,10.31,0,0,1,186,15h17.74a10.46,10.46,0,0,1,10.37,11.83l-7.67,58.1H183.3l-7.67-58.1a10.3,10.3,0,0,1,2.51-8.26ZM105.5,232.44a19.35,19.35,0,0,1-19.32-19.32v-10a19.35,19.35,0,0,1,19.32-19.32h1.78v43.87c0,1.6.07,3.19.19,4.76Zm-7.94-62.69V157.6h9.72v11.21H105.5A34.1,34.1,0,0,0,97.56,169.75ZM85,142.6a6.13,6.13,0,1,1,0-12.26h56a7.5,7.5,0,0,0,0-15H97.6a89.84,89.84,0,0,1,63.51-83.86l8.18,61.93a7.5,7.5,0,0,0,7.44,6.52H213a7.5,7.5,0,0,0,7.43-6.52l8.18-61.93a89.85,89.85,0,0,1,63.52,83.86H176a7.5,7.5,0,0,0,0,15H304.76a6.13,6.13,0,0,1,0,12.26Zm37.29,85.08V157.6H267.47v70.08a50.08,50.08,0,0,1-50,50H172.29A50.07,50.07,0,0,1,122.28,227.68Zm15.89,91.13,15.49-15.33v7.9A17.87,17.87,0,0,0,158.83,324l17.38,17.68-38,24.61ZM187.37,497H49.08V344.43a21.28,21.28,0,0,1,21.26-21.25h52.83v51.37a10.5,10.5,0,0,0,16.2,8.82l47.57-30.78.43.44Zm7.5-157.74-25.35-25.78a3,3,0,0,1-.86-2.1v-18.8c1.21.07,2.42.12,3.63.12h45.16c1.22,0,2.43-.05,3.63-.12v18.8a3,3,0,0,1-.85,2.1h0Zm56.71,27-38-24.62L230.92,324a17.85,17.85,0,0,0,5.16-12.6v-7.9l15.5,15.32ZM382.87,258.5a14.75,14.75,0,0,1,14.63,13H368.24A14.76,14.76,0,0,1,382.87,258.5Zm-33.63,28H416.5v18.7H349.24Zm87.47,184.29H329V299.86h5.21v7.84a12.51,12.51,0,0,0,12.5,12.5H419a12.51,12.51,0,0,0,12.5-12.5v-7.84h5.21Z" transform="translate(-34.08 0)"/><path class="cls-1" d="M359.65,342.17l-7,7-4-4a7.5,7.5,0,0,0-10.6,10.6l9.29,9.3a7.52,7.52,0,0,0,10.61,0l12.33-12.34a7.5,7.5,0,0,0-10.61-10.6Z" transform="translate(-34.08 0)"/><path class="cls-1" d="M422,348.11h-38.8a7.5,7.5,0,1,0,0,15H422a7.5,7.5,0,0,0,0-15Z" transform="translate(-34.08 0)"/><path class="cls-1" d="M422,376.42h-38.8a7.5,7.5,0,0,0,0,15H422a7.5,7.5,0,0,0,0-15Z" transform="translate(-34.08 0)"/><path class="cls-1" d="M360.1,376.42H343.33a7.5,7.5,0,0,0,0,15H360.1a7.5,7.5,0,0,0,0-15Z" transform="translate(-34.08 0)"/><path class="cls-1" d="M360.1,404.73H343.33a7.5,7.5,0,1,0,0,15H360.1a7.5,7.5,0,0,0,0-15Z" transform="translate(-34.08 0)"/><path class="cls-1" d="M360.1,433H343.33a7.5,7.5,0,0,0,0,15H360.1a7.5,7.5,0,0,0,0-15Z" transform="translate(-34.08 0)"/><path class="cls-1" d="M422,404.73h-38.8a7.5,7.5,0,0,0,0,15H422a7.5,7.5,0,0,0,0-15Z" transform="translate(-34.08 0)"/><path class="cls-1" d="M422,433h-38.8a7.5,7.5,0,0,0,0,15H422a7.5,7.5,0,0,0,0-15Z" transform="translate(-34.08 0)"/></svg>