<svg id="Capa_1" data-name="Capa 1" xmlns="http://www.w3.org/2000/svg" viewBox="0 0 511.37 512"><defs><style>.cls-1{fill:#b0976f;}</style></defs><title>working-hours</title><path class="cls-1" d="M379.68,216.7A162.29,162.29,0,0,1,426,223.4C432.13,107.43,342.3,7.62,228,0V55.54H198V0C92.37,7.39,7.7,92.05.32,197.68H55.85v30H.32C7.93,342,107.75,431.82,223.71,425.64,191.93,324,272.82,215,379.68,216.7Zm-69-122.91L331.92,115l-21.23,21.23L289.46,115ZM115.33,331.61,94.1,310.37l21.23-21.23,21.23,21.23Zm0-195.36L94.1,115l21.23-21.23L136.56,115ZM159,227.71v-30h39V122.6h30V227.71Z" transform="translate(-0.32)"/><path class="cls-1" d="M374.6,351.64c16.69,4.7,30.37-14.18,20.74-28.52a18.78,18.78,0,0,0-15.66-8.41c-21.95.55-25.85,30.63-5.08,36.93Z" transform="translate(-0.32)"/><path class="cls-1" d="M379.68,382.37a31.42,31.42,0,0,0-31.39,31.38c1.72,41.64,61.06,41.63,62.78,0A31.42,31.42,0,0,0,379.68,382.37Z" transform="translate(-0.32)"/><path class="cls-1" d="M422.25,253.74C338.25,224,245.81,290,247.05,379.37c-.52,71.4,58.93,133,132.63,132.63,150.5-2.95,182.57-208.43,42.57-258.26ZM379.68,475.17C321,474.69,296.13,400.81,342.36,365c-26.69-31.08-4-80.5,37.32-80.32,41.42,0,64,48.85,37.32,80.32C463.09,400.36,438.49,474.83,379.68,475.17Z" transform="translate(-0.32)"/></svg>