<svg id="Capa_1" data-name="Capa 1" xmlns="http://www.w3.org/2000/svg" viewBox="0 0 450.54 512"><defs><style>.cls-1{fill:#fff;}</style></defs><title>mailbox</title><path class="cls-1" d="M409.38,118.08h34.5l37.39-67.66L350.12,14.31C319.47,5.87,287.42,0,256,0c-32,0-63.3,5.82-94.12,14.31L30.73,50.42l37.39,67.66h34.5V417.87H62V512H450V417.87H409.38Zm-323.56-30L75.41,69.23l94.43-26C197.91,35.51,227.19,30,256,30c29.24,0,58,5.48,86.16,13.24l94.43,26L426.18,88.08Zm293.56,30V417.87H132.62V118.08ZM420,447.87v34H92v-34Z" transform="translate(-30.73 0)"/><path class="cls-1" d="M165.68,238.09V371.51H346.32V238.09Zm127,30L256,301.65l-36.69-33.56Zm-97,73.42V287.13l59.45,54.38Zm120.64,0H256.87l59.45-54.38Z" transform="translate(-30.73 0)"/><path class="cls-1" d="M180.68,159.08H331.32v30H180.68Z" transform="translate(-30.73 0)"/></svg>